G04 #@! TF.GenerationSoftware,KiCad,Pcbnew,(5.1.2-1)-1*
G04 #@! TF.CreationDate,2020-04-24T16:50:01+02:00*
G04 #@! TF.ProjectId,USB-C-Power-tester,5553422d-432d-4506-9f77-65722d746573,rev?*
G04 #@! TF.SameCoordinates,Original*
G04 #@! TF.FileFunction,Soldermask,Top*
G04 #@! TF.FilePolarity,Negative*
%FSLAX46Y46*%
G04 Gerber Fmt 4.6, Leading zero omitted, Abs format (unit mm)*
G04 Created by KiCad (PCBNEW (5.1.2-1)-1) date 2020-04-24 16:50:01*
%MOMM*%
%LPD*%
G04 APERTURE LIST*
%ADD10C,0.100000*%
G04 APERTURE END LIST*
D10*
G36*
X88980443Y-70655519D02*
G01*
X89046627Y-70662037D01*
X89216466Y-70713557D01*
X89372991Y-70797222D01*
X89408729Y-70826552D01*
X89510186Y-70909814D01*
X89593448Y-71011271D01*
X89622778Y-71047009D01*
X89706443Y-71203534D01*
X89757963Y-71373373D01*
X89775359Y-71550000D01*
X89757963Y-71726627D01*
X89706443Y-71896466D01*
X89622778Y-72052991D01*
X89593448Y-72088729D01*
X89510186Y-72190186D01*
X89408729Y-72273448D01*
X89372991Y-72302778D01*
X89216466Y-72386443D01*
X89046627Y-72437963D01*
X88980442Y-72444482D01*
X88914260Y-72451000D01*
X88825740Y-72451000D01*
X88759558Y-72444482D01*
X88693373Y-72437963D01*
X88523534Y-72386443D01*
X88367009Y-72302778D01*
X88331271Y-72273448D01*
X88229814Y-72190186D01*
X88146552Y-72088729D01*
X88117222Y-72052991D01*
X88033557Y-71896466D01*
X87982037Y-71726627D01*
X87964641Y-71550000D01*
X87982037Y-71373373D01*
X88033557Y-71203534D01*
X88117222Y-71047009D01*
X88146552Y-71011271D01*
X88229814Y-70909814D01*
X88331271Y-70826552D01*
X88367009Y-70797222D01*
X88523534Y-70713557D01*
X88693373Y-70662037D01*
X88759557Y-70655519D01*
X88825740Y-70649000D01*
X88914260Y-70649000D01*
X88980443Y-70655519D01*
X88980443Y-70655519D01*
G37*
G36*
X86440443Y-70655519D02*
G01*
X86506627Y-70662037D01*
X86676466Y-70713557D01*
X86832991Y-70797222D01*
X86868729Y-70826552D01*
X86970186Y-70909814D01*
X87053448Y-71011271D01*
X87082778Y-71047009D01*
X87166443Y-71203534D01*
X87217963Y-71373373D01*
X87235359Y-71550000D01*
X87217963Y-71726627D01*
X87166443Y-71896466D01*
X87082778Y-72052991D01*
X87053448Y-72088729D01*
X86970186Y-72190186D01*
X86868729Y-72273448D01*
X86832991Y-72302778D01*
X86676466Y-72386443D01*
X86506627Y-72437963D01*
X86440442Y-72444482D01*
X86374260Y-72451000D01*
X86285740Y-72451000D01*
X86219558Y-72444482D01*
X86153373Y-72437963D01*
X85983534Y-72386443D01*
X85827009Y-72302778D01*
X85791271Y-72273448D01*
X85689814Y-72190186D01*
X85606552Y-72088729D01*
X85577222Y-72052991D01*
X85493557Y-71896466D01*
X85442037Y-71726627D01*
X85424641Y-71550000D01*
X85442037Y-71373373D01*
X85493557Y-71203534D01*
X85577222Y-71047009D01*
X85606552Y-71011271D01*
X85689814Y-70909814D01*
X85791271Y-70826552D01*
X85827009Y-70797222D01*
X85983534Y-70713557D01*
X86153373Y-70662037D01*
X86219557Y-70655519D01*
X86285740Y-70649000D01*
X86374260Y-70649000D01*
X86440443Y-70655519D01*
X86440443Y-70655519D01*
G37*
G36*
X83900443Y-70655519D02*
G01*
X83966627Y-70662037D01*
X84136466Y-70713557D01*
X84292991Y-70797222D01*
X84328729Y-70826552D01*
X84430186Y-70909814D01*
X84513448Y-71011271D01*
X84542778Y-71047009D01*
X84626443Y-71203534D01*
X84677963Y-71373373D01*
X84695359Y-71550000D01*
X84677963Y-71726627D01*
X84626443Y-71896466D01*
X84542778Y-72052991D01*
X84513448Y-72088729D01*
X84430186Y-72190186D01*
X84328729Y-72273448D01*
X84292991Y-72302778D01*
X84136466Y-72386443D01*
X83966627Y-72437963D01*
X83900442Y-72444482D01*
X83834260Y-72451000D01*
X83745740Y-72451000D01*
X83679558Y-72444482D01*
X83613373Y-72437963D01*
X83443534Y-72386443D01*
X83287009Y-72302778D01*
X83251271Y-72273448D01*
X83149814Y-72190186D01*
X83066552Y-72088729D01*
X83037222Y-72052991D01*
X82953557Y-71896466D01*
X82902037Y-71726627D01*
X82884641Y-71550000D01*
X82902037Y-71373373D01*
X82953557Y-71203534D01*
X83037222Y-71047009D01*
X83066552Y-71011271D01*
X83149814Y-70909814D01*
X83251271Y-70826552D01*
X83287009Y-70797222D01*
X83443534Y-70713557D01*
X83613373Y-70662037D01*
X83679557Y-70655519D01*
X83745740Y-70649000D01*
X83834260Y-70649000D01*
X83900443Y-70655519D01*
X83900443Y-70655519D01*
G37*
G36*
X81360443Y-70655519D02*
G01*
X81426627Y-70662037D01*
X81596466Y-70713557D01*
X81752991Y-70797222D01*
X81788729Y-70826552D01*
X81890186Y-70909814D01*
X81973448Y-71011271D01*
X82002778Y-71047009D01*
X82086443Y-71203534D01*
X82137963Y-71373373D01*
X82155359Y-71550000D01*
X82137963Y-71726627D01*
X82086443Y-71896466D01*
X82002778Y-72052991D01*
X81973448Y-72088729D01*
X81890186Y-72190186D01*
X81788729Y-72273448D01*
X81752991Y-72302778D01*
X81596466Y-72386443D01*
X81426627Y-72437963D01*
X81360442Y-72444482D01*
X81294260Y-72451000D01*
X81205740Y-72451000D01*
X81139558Y-72444482D01*
X81073373Y-72437963D01*
X80903534Y-72386443D01*
X80747009Y-72302778D01*
X80711271Y-72273448D01*
X80609814Y-72190186D01*
X80526552Y-72088729D01*
X80497222Y-72052991D01*
X80413557Y-71896466D01*
X80362037Y-71726627D01*
X80344641Y-71550000D01*
X80362037Y-71373373D01*
X80413557Y-71203534D01*
X80497222Y-71047009D01*
X80526552Y-71011271D01*
X80609814Y-70909814D01*
X80711271Y-70826552D01*
X80747009Y-70797222D01*
X80903534Y-70713557D01*
X81073373Y-70662037D01*
X81139557Y-70655519D01*
X81205740Y-70649000D01*
X81294260Y-70649000D01*
X81360443Y-70655519D01*
X81360443Y-70655519D01*
G37*
G36*
X78820443Y-70655519D02*
G01*
X78886627Y-70662037D01*
X79056466Y-70713557D01*
X79212991Y-70797222D01*
X79248729Y-70826552D01*
X79350186Y-70909814D01*
X79433448Y-71011271D01*
X79462778Y-71047009D01*
X79546443Y-71203534D01*
X79597963Y-71373373D01*
X79615359Y-71550000D01*
X79597963Y-71726627D01*
X79546443Y-71896466D01*
X79462778Y-72052991D01*
X79433448Y-72088729D01*
X79350186Y-72190186D01*
X79248729Y-72273448D01*
X79212991Y-72302778D01*
X79056466Y-72386443D01*
X78886627Y-72437963D01*
X78820442Y-72444482D01*
X78754260Y-72451000D01*
X78665740Y-72451000D01*
X78599558Y-72444482D01*
X78533373Y-72437963D01*
X78363534Y-72386443D01*
X78207009Y-72302778D01*
X78171271Y-72273448D01*
X78069814Y-72190186D01*
X77986552Y-72088729D01*
X77957222Y-72052991D01*
X77873557Y-71896466D01*
X77822037Y-71726627D01*
X77804641Y-71550000D01*
X77822037Y-71373373D01*
X77873557Y-71203534D01*
X77957222Y-71047009D01*
X77986552Y-71011271D01*
X78069814Y-70909814D01*
X78171271Y-70826552D01*
X78207009Y-70797222D01*
X78363534Y-70713557D01*
X78533373Y-70662037D01*
X78599557Y-70655519D01*
X78665740Y-70649000D01*
X78754260Y-70649000D01*
X78820443Y-70655519D01*
X78820443Y-70655519D01*
G37*
G36*
X77071000Y-72451000D02*
G01*
X75269000Y-72451000D01*
X75269000Y-70649000D01*
X77071000Y-70649000D01*
X77071000Y-72451000D01*
X77071000Y-72451000D01*
G37*
G36*
X84938674Y-67553465D02*
G01*
X84976367Y-67564899D01*
X85011103Y-67583466D01*
X85041548Y-67608452D01*
X85066534Y-67638897D01*
X85085101Y-67673633D01*
X85096535Y-67711326D01*
X85101000Y-67756661D01*
X85101000Y-68843339D01*
X85096535Y-68888674D01*
X85085101Y-68926367D01*
X85066534Y-68961103D01*
X85041548Y-68991548D01*
X85011103Y-69016534D01*
X84976367Y-69035101D01*
X84938674Y-69046535D01*
X84893339Y-69051000D01*
X84056661Y-69051000D01*
X84011326Y-69046535D01*
X83973633Y-69035101D01*
X83938897Y-69016534D01*
X83908452Y-68991548D01*
X83883466Y-68961103D01*
X83864899Y-68926367D01*
X83853465Y-68888674D01*
X83849000Y-68843339D01*
X83849000Y-67756661D01*
X83853465Y-67711326D01*
X83864899Y-67673633D01*
X83883466Y-67638897D01*
X83908452Y-67608452D01*
X83938897Y-67583466D01*
X83973633Y-67564899D01*
X84011326Y-67553465D01*
X84056661Y-67549000D01*
X84893339Y-67549000D01*
X84938674Y-67553465D01*
X84938674Y-67553465D01*
G37*
G36*
X86988674Y-67553465D02*
G01*
X87026367Y-67564899D01*
X87061103Y-67583466D01*
X87091548Y-67608452D01*
X87116534Y-67638897D01*
X87135101Y-67673633D01*
X87146535Y-67711326D01*
X87151000Y-67756661D01*
X87151000Y-68843339D01*
X87146535Y-68888674D01*
X87135101Y-68926367D01*
X87116534Y-68961103D01*
X87091548Y-68991548D01*
X87061103Y-69016534D01*
X87026367Y-69035101D01*
X86988674Y-69046535D01*
X86943339Y-69051000D01*
X86106661Y-69051000D01*
X86061326Y-69046535D01*
X86023633Y-69035101D01*
X85988897Y-69016534D01*
X85958452Y-68991548D01*
X85933466Y-68961103D01*
X85914899Y-68926367D01*
X85903465Y-68888674D01*
X85899000Y-68843339D01*
X85899000Y-67756661D01*
X85903465Y-67711326D01*
X85914899Y-67673633D01*
X85933466Y-67638897D01*
X85958452Y-67608452D01*
X85988897Y-67583466D01*
X86023633Y-67564899D01*
X86061326Y-67553465D01*
X86106661Y-67549000D01*
X86943339Y-67549000D01*
X86988674Y-67553465D01*
X86988674Y-67553465D01*
G37*
G36*
X80988674Y-67553465D02*
G01*
X81026367Y-67564899D01*
X81061103Y-67583466D01*
X81091548Y-67608452D01*
X81116534Y-67638897D01*
X81135101Y-67673633D01*
X81146535Y-67711326D01*
X81151000Y-67756661D01*
X81151000Y-68843339D01*
X81146535Y-68888674D01*
X81135101Y-68926367D01*
X81116534Y-68961103D01*
X81091548Y-68991548D01*
X81061103Y-69016534D01*
X81026367Y-69035101D01*
X80988674Y-69046535D01*
X80943339Y-69051000D01*
X80106661Y-69051000D01*
X80061326Y-69046535D01*
X80023633Y-69035101D01*
X79988897Y-69016534D01*
X79958452Y-68991548D01*
X79933466Y-68961103D01*
X79914899Y-68926367D01*
X79903465Y-68888674D01*
X79899000Y-68843339D01*
X79899000Y-67756661D01*
X79903465Y-67711326D01*
X79914899Y-67673633D01*
X79933466Y-67638897D01*
X79958452Y-67608452D01*
X79988897Y-67583466D01*
X80023633Y-67564899D01*
X80061326Y-67553465D01*
X80106661Y-67549000D01*
X80943339Y-67549000D01*
X80988674Y-67553465D01*
X80988674Y-67553465D01*
G37*
G36*
X78938674Y-67553465D02*
G01*
X78976367Y-67564899D01*
X79011103Y-67583466D01*
X79041548Y-67608452D01*
X79066534Y-67638897D01*
X79085101Y-67673633D01*
X79096535Y-67711326D01*
X79101000Y-67756661D01*
X79101000Y-68843339D01*
X79096535Y-68888674D01*
X79085101Y-68926367D01*
X79066534Y-68961103D01*
X79041548Y-68991548D01*
X79011103Y-69016534D01*
X78976367Y-69035101D01*
X78938674Y-69046535D01*
X78893339Y-69051000D01*
X78056661Y-69051000D01*
X78011326Y-69046535D01*
X77973633Y-69035101D01*
X77938897Y-69016534D01*
X77908452Y-68991548D01*
X77883466Y-68961103D01*
X77864899Y-68926367D01*
X77853465Y-68888674D01*
X77849000Y-68843339D01*
X77849000Y-67756661D01*
X77853465Y-67711326D01*
X77864899Y-67673633D01*
X77883466Y-67638897D01*
X77908452Y-67608452D01*
X77938897Y-67583466D01*
X77973633Y-67564899D01*
X78011326Y-67553465D01*
X78056661Y-67549000D01*
X78893339Y-67549000D01*
X78938674Y-67553465D01*
X78938674Y-67553465D01*
G37*
G36*
X78938674Y-65053465D02*
G01*
X78976367Y-65064899D01*
X79011103Y-65083466D01*
X79041548Y-65108452D01*
X79066534Y-65138897D01*
X79085101Y-65173633D01*
X79096535Y-65211326D01*
X79101000Y-65256661D01*
X79101000Y-66343339D01*
X79096535Y-66388674D01*
X79085101Y-66426367D01*
X79066534Y-66461103D01*
X79041548Y-66491548D01*
X79011103Y-66516534D01*
X78976367Y-66535101D01*
X78938674Y-66546535D01*
X78893339Y-66551000D01*
X78056661Y-66551000D01*
X78011326Y-66546535D01*
X77973633Y-66535101D01*
X77938897Y-66516534D01*
X77908452Y-66491548D01*
X77883466Y-66461103D01*
X77864899Y-66426367D01*
X77853465Y-66388674D01*
X77849000Y-66343339D01*
X77849000Y-65256661D01*
X77853465Y-65211326D01*
X77864899Y-65173633D01*
X77883466Y-65138897D01*
X77908452Y-65108452D01*
X77938897Y-65083466D01*
X77973633Y-65064899D01*
X78011326Y-65053465D01*
X78056661Y-65049000D01*
X78893339Y-65049000D01*
X78938674Y-65053465D01*
X78938674Y-65053465D01*
G37*
G36*
X86988674Y-65053465D02*
G01*
X87026367Y-65064899D01*
X87061103Y-65083466D01*
X87091548Y-65108452D01*
X87116534Y-65138897D01*
X87135101Y-65173633D01*
X87146535Y-65211326D01*
X87151000Y-65256661D01*
X87151000Y-66343339D01*
X87146535Y-66388674D01*
X87135101Y-66426367D01*
X87116534Y-66461103D01*
X87091548Y-66491548D01*
X87061103Y-66516534D01*
X87026367Y-66535101D01*
X86988674Y-66546535D01*
X86943339Y-66551000D01*
X86106661Y-66551000D01*
X86061326Y-66546535D01*
X86023633Y-66535101D01*
X85988897Y-66516534D01*
X85958452Y-66491548D01*
X85933466Y-66461103D01*
X85914899Y-66426367D01*
X85903465Y-66388674D01*
X85899000Y-66343339D01*
X85899000Y-65256661D01*
X85903465Y-65211326D01*
X85914899Y-65173633D01*
X85933466Y-65138897D01*
X85958452Y-65108452D01*
X85988897Y-65083466D01*
X86023633Y-65064899D01*
X86061326Y-65053465D01*
X86106661Y-65049000D01*
X86943339Y-65049000D01*
X86988674Y-65053465D01*
X86988674Y-65053465D01*
G37*
G36*
X84938674Y-65053465D02*
G01*
X84976367Y-65064899D01*
X85011103Y-65083466D01*
X85041548Y-65108452D01*
X85066534Y-65138897D01*
X85085101Y-65173633D01*
X85096535Y-65211326D01*
X85101000Y-65256661D01*
X85101000Y-66343339D01*
X85096535Y-66388674D01*
X85085101Y-66426367D01*
X85066534Y-66461103D01*
X85041548Y-66491548D01*
X85011103Y-66516534D01*
X84976367Y-66535101D01*
X84938674Y-66546535D01*
X84893339Y-66551000D01*
X84056661Y-66551000D01*
X84011326Y-66546535D01*
X83973633Y-66535101D01*
X83938897Y-66516534D01*
X83908452Y-66491548D01*
X83883466Y-66461103D01*
X83864899Y-66426367D01*
X83853465Y-66388674D01*
X83849000Y-66343339D01*
X83849000Y-65256661D01*
X83853465Y-65211326D01*
X83864899Y-65173633D01*
X83883466Y-65138897D01*
X83908452Y-65108452D01*
X83938897Y-65083466D01*
X83973633Y-65064899D01*
X84011326Y-65053465D01*
X84056661Y-65049000D01*
X84893339Y-65049000D01*
X84938674Y-65053465D01*
X84938674Y-65053465D01*
G37*
G36*
X80988674Y-65053465D02*
G01*
X81026367Y-65064899D01*
X81061103Y-65083466D01*
X81091548Y-65108452D01*
X81116534Y-65138897D01*
X81135101Y-65173633D01*
X81146535Y-65211326D01*
X81151000Y-65256661D01*
X81151000Y-66343339D01*
X81146535Y-66388674D01*
X81135101Y-66426367D01*
X81116534Y-66461103D01*
X81091548Y-66491548D01*
X81061103Y-66516534D01*
X81026367Y-66535101D01*
X80988674Y-66546535D01*
X80943339Y-66551000D01*
X80106661Y-66551000D01*
X80061326Y-66546535D01*
X80023633Y-66535101D01*
X79988897Y-66516534D01*
X79958452Y-66491548D01*
X79933466Y-66461103D01*
X79914899Y-66426367D01*
X79903465Y-66388674D01*
X79899000Y-66343339D01*
X79899000Y-65256661D01*
X79903465Y-65211326D01*
X79914899Y-65173633D01*
X79933466Y-65138897D01*
X79958452Y-65108452D01*
X79988897Y-65083466D01*
X80023633Y-65064899D01*
X80061326Y-65053465D01*
X80106661Y-65049000D01*
X80943339Y-65049000D01*
X80988674Y-65053465D01*
X80988674Y-65053465D01*
G37*
G36*
X95634239Y-57811467D02*
G01*
X95948282Y-57873934D01*
X96539926Y-58119001D01*
X96829523Y-58312504D01*
X97072391Y-58474783D01*
X97525217Y-58927609D01*
X97583909Y-59015448D01*
X97880999Y-59460074D01*
X98126066Y-60051718D01*
X98139881Y-60121173D01*
X98251000Y-60679803D01*
X98251000Y-61320197D01*
X98213169Y-61510384D01*
X98126066Y-61948282D01*
X97880999Y-62539926D01*
X97654552Y-62878827D01*
X97567535Y-63009058D01*
X97525216Y-63072392D01*
X97072392Y-63525216D01*
X96539926Y-63880999D01*
X95948282Y-64126066D01*
X95634239Y-64188533D01*
X95320197Y-64251000D01*
X94679803Y-64251000D01*
X94365761Y-64188533D01*
X94051718Y-64126066D01*
X93460074Y-63880999D01*
X92927608Y-63525216D01*
X92474784Y-63072392D01*
X92432466Y-63009058D01*
X92345448Y-62878827D01*
X92119001Y-62539926D01*
X91873934Y-61948282D01*
X91786831Y-61510384D01*
X91749000Y-61320197D01*
X91749000Y-60679803D01*
X91860119Y-60121173D01*
X91873934Y-60051718D01*
X92119001Y-59460074D01*
X92416091Y-59015448D01*
X92474783Y-58927609D01*
X92927609Y-58474783D01*
X93170477Y-58312504D01*
X93460074Y-58119001D01*
X94051718Y-57873934D01*
X94365761Y-57811467D01*
X94679803Y-57749000D01*
X95320197Y-57749000D01*
X95634239Y-57811467D01*
X95634239Y-57811467D01*
G37*
G36*
X70634239Y-57811467D02*
G01*
X70948282Y-57873934D01*
X71539926Y-58119001D01*
X71829523Y-58312504D01*
X72072391Y-58474783D01*
X72525217Y-58927609D01*
X72583909Y-59015448D01*
X72880999Y-59460074D01*
X73126066Y-60051718D01*
X73139881Y-60121173D01*
X73251000Y-60679803D01*
X73251000Y-61320197D01*
X73213169Y-61510384D01*
X73126066Y-61948282D01*
X72880999Y-62539926D01*
X72654552Y-62878827D01*
X72567535Y-63009058D01*
X72525216Y-63072392D01*
X72072392Y-63525216D01*
X71539926Y-63880999D01*
X70948282Y-64126066D01*
X70634239Y-64188533D01*
X70320197Y-64251000D01*
X69679803Y-64251000D01*
X69365761Y-64188533D01*
X69051718Y-64126066D01*
X68460074Y-63880999D01*
X67927608Y-63525216D01*
X67474784Y-63072392D01*
X67432466Y-63009058D01*
X67345448Y-62878827D01*
X67119001Y-62539926D01*
X66873934Y-61948282D01*
X66786831Y-61510384D01*
X66749000Y-61320197D01*
X66749000Y-60679803D01*
X66860119Y-60121173D01*
X66873934Y-60051718D01*
X67119001Y-59460074D01*
X67416091Y-59015448D01*
X67474783Y-58927609D01*
X67927609Y-58474783D01*
X68170477Y-58312504D01*
X68460074Y-58119001D01*
X69051718Y-57873934D01*
X69365761Y-57811467D01*
X69679803Y-57749000D01*
X70320197Y-57749000D01*
X70634239Y-57811467D01*
X70634239Y-57811467D01*
G37*
G36*
X76088674Y-61903465D02*
G01*
X76126367Y-61914899D01*
X76161103Y-61933466D01*
X76191548Y-61958452D01*
X76216534Y-61988897D01*
X76235101Y-62023633D01*
X76246535Y-62061326D01*
X76251000Y-62106661D01*
X76251000Y-62943339D01*
X76246535Y-62988674D01*
X76235101Y-63026367D01*
X76216534Y-63061103D01*
X76191548Y-63091548D01*
X76161103Y-63116534D01*
X76126367Y-63135101D01*
X76088674Y-63146535D01*
X76043339Y-63151000D01*
X74956661Y-63151000D01*
X74911326Y-63146535D01*
X74873633Y-63135101D01*
X74838897Y-63116534D01*
X74808452Y-63091548D01*
X74783466Y-63061103D01*
X74764899Y-63026367D01*
X74753465Y-62988674D01*
X74749000Y-62943339D01*
X74749000Y-62106661D01*
X74753465Y-62061326D01*
X74764899Y-62023633D01*
X74783466Y-61988897D01*
X74808452Y-61958452D01*
X74838897Y-61933466D01*
X74873633Y-61914899D01*
X74911326Y-61903465D01*
X74956661Y-61899000D01*
X76043339Y-61899000D01*
X76088674Y-61903465D01*
X76088674Y-61903465D01*
G37*
G36*
X86927496Y-61359587D02*
G01*
X87030860Y-61390942D01*
X87126120Y-61441860D01*
X87209617Y-61510384D01*
X87278141Y-61593881D01*
X87329059Y-61689141D01*
X87360414Y-61792505D01*
X87371001Y-61900000D01*
X87371001Y-62500000D01*
X87360414Y-62607495D01*
X87329059Y-62710859D01*
X87278141Y-62806119D01*
X87209617Y-62889616D01*
X87126120Y-62958140D01*
X87030860Y-63009058D01*
X86927496Y-63040413D01*
X86820001Y-63051000D01*
X86819999Y-63051000D01*
X86712504Y-63040413D01*
X86609140Y-63009058D01*
X86513880Y-62958140D01*
X86430383Y-62889616D01*
X86361859Y-62806119D01*
X86310941Y-62710859D01*
X86279586Y-62607495D01*
X86268999Y-62500000D01*
X86268999Y-61900000D01*
X86279586Y-61792505D01*
X86310941Y-61689141D01*
X86361859Y-61593881D01*
X86430383Y-61510384D01*
X86513880Y-61441860D01*
X86609140Y-61390942D01*
X86712504Y-61359587D01*
X86819999Y-61349000D01*
X86820001Y-61349000D01*
X86927496Y-61359587D01*
X86927496Y-61359587D01*
G37*
G36*
X78287496Y-61359587D02*
G01*
X78390860Y-61390942D01*
X78486120Y-61441860D01*
X78569617Y-61510384D01*
X78638141Y-61593881D01*
X78689059Y-61689141D01*
X78720414Y-61792505D01*
X78731001Y-61900000D01*
X78731001Y-62500000D01*
X78720414Y-62607495D01*
X78689059Y-62710859D01*
X78638141Y-62806119D01*
X78569617Y-62889616D01*
X78486120Y-62958140D01*
X78390860Y-63009058D01*
X78287496Y-63040413D01*
X78180001Y-63051000D01*
X78179999Y-63051000D01*
X78072504Y-63040413D01*
X77969140Y-63009058D01*
X77873880Y-62958140D01*
X77790383Y-62889616D01*
X77721859Y-62806119D01*
X77670941Y-62710859D01*
X77639586Y-62607495D01*
X77628999Y-62500000D01*
X77628999Y-61900000D01*
X77639586Y-61792505D01*
X77670941Y-61689141D01*
X77721859Y-61593881D01*
X77790383Y-61510384D01*
X77873880Y-61441860D01*
X77969140Y-61390942D01*
X78072504Y-61359587D01*
X78179999Y-61349000D01*
X78180001Y-61349000D01*
X78287496Y-61359587D01*
X78287496Y-61359587D01*
G37*
G36*
X85701000Y-62851000D02*
G01*
X84799000Y-62851000D01*
X84799000Y-61549000D01*
X85701000Y-61549000D01*
X85701000Y-62851000D01*
X85701000Y-62851000D01*
G37*
G36*
X84471000Y-62851000D02*
G01*
X80529000Y-62851000D01*
X80529000Y-61549000D01*
X84471000Y-61549000D01*
X84471000Y-62851000D01*
X84471000Y-62851000D01*
G37*
G36*
X80201000Y-62851000D02*
G01*
X79299000Y-62851000D01*
X79299000Y-61549000D01*
X80201000Y-61549000D01*
X80201000Y-62851000D01*
X80201000Y-62851000D01*
G37*
G36*
X76088674Y-59853465D02*
G01*
X76126367Y-59864899D01*
X76161103Y-59883466D01*
X76191548Y-59908452D01*
X76216534Y-59938897D01*
X76235101Y-59973633D01*
X76246535Y-60011326D01*
X76251000Y-60056661D01*
X76251000Y-60893339D01*
X76246535Y-60938674D01*
X76235101Y-60976367D01*
X76216534Y-61011103D01*
X76191548Y-61041548D01*
X76161103Y-61066534D01*
X76126367Y-61085101D01*
X76088674Y-61096535D01*
X76043339Y-61101000D01*
X74956661Y-61101000D01*
X74911326Y-61096535D01*
X74873633Y-61085101D01*
X74838897Y-61066534D01*
X74808452Y-61041548D01*
X74783466Y-61011103D01*
X74764899Y-60976367D01*
X74753465Y-60938674D01*
X74749000Y-60893339D01*
X74749000Y-60056661D01*
X74753465Y-60011326D01*
X74764899Y-59973633D01*
X74783466Y-59938897D01*
X74808452Y-59908452D01*
X74838897Y-59883466D01*
X74873633Y-59864899D01*
X74911326Y-59853465D01*
X74956661Y-59849000D01*
X76043339Y-59849000D01*
X76088674Y-59853465D01*
X76088674Y-59853465D01*
G37*
G36*
X86927496Y-57559587D02*
G01*
X87030860Y-57590942D01*
X87126120Y-57641860D01*
X87209617Y-57710384D01*
X87278141Y-57793881D01*
X87329059Y-57889141D01*
X87360414Y-57992505D01*
X87371001Y-58100000D01*
X87371001Y-58700000D01*
X87360414Y-58807495D01*
X87329059Y-58910859D01*
X87278141Y-59006119D01*
X87209617Y-59089616D01*
X87126120Y-59158140D01*
X87030860Y-59209058D01*
X86927496Y-59240413D01*
X86820001Y-59251000D01*
X86819999Y-59251000D01*
X86712504Y-59240413D01*
X86609140Y-59209058D01*
X86513880Y-59158140D01*
X86430383Y-59089616D01*
X86361859Y-59006119D01*
X86310941Y-58910859D01*
X86279586Y-58807495D01*
X86268999Y-58700000D01*
X86268999Y-58100000D01*
X86279586Y-57992505D01*
X86310941Y-57889141D01*
X86361859Y-57793881D01*
X86430383Y-57710384D01*
X86513880Y-57641860D01*
X86609140Y-57590942D01*
X86712504Y-57559587D01*
X86819999Y-57549000D01*
X86820001Y-57549000D01*
X86927496Y-57559587D01*
X86927496Y-57559587D01*
G37*
G36*
X78287496Y-57559587D02*
G01*
X78390860Y-57590942D01*
X78486120Y-57641860D01*
X78569617Y-57710384D01*
X78638141Y-57793881D01*
X78689059Y-57889141D01*
X78720414Y-57992505D01*
X78731001Y-58100000D01*
X78731001Y-58700000D01*
X78720414Y-58807495D01*
X78689059Y-58910859D01*
X78638141Y-59006119D01*
X78569617Y-59089616D01*
X78486120Y-59158140D01*
X78390860Y-59209058D01*
X78287496Y-59240413D01*
X78180001Y-59251000D01*
X78179999Y-59251000D01*
X78072504Y-59240413D01*
X77969140Y-59209058D01*
X77873880Y-59158140D01*
X77790383Y-59089616D01*
X77721859Y-59006119D01*
X77670941Y-58910859D01*
X77639586Y-58807495D01*
X77628999Y-58700000D01*
X77628999Y-58100000D01*
X77639586Y-57992505D01*
X77670941Y-57889141D01*
X77721859Y-57793881D01*
X77790383Y-57710384D01*
X77873880Y-57641860D01*
X77969140Y-57590942D01*
X78072504Y-57559587D01*
X78179999Y-57549000D01*
X78180001Y-57549000D01*
X78287496Y-57559587D01*
X78287496Y-57559587D01*
G37*
M02*
