M48
; DRILL file {KiCad (5.1.2-1)-1} date 2020 April 24, Friday 16:50:03
; FORMAT={-:-/ absolute / metric / decimal}
; #@! TF.CreationDate,2020-04-24T16:50:03+02:00
; #@! TF.GenerationSoftware,Kicad,Pcbnew,(5.1.2-1)-1
; #@! TF.FileFunction,Plated,1,2,PTH
FMAT,2
METRIC
T1C0.400
T2C0.500
T3C0.600
T4C1.000
T5C3.200
%
G90
G05
T1
X77.1Y-65.8
X77.1Y-68.25
X82.5Y-65.8
X87.9Y-65.8
X87.9Y-68.3
T2
X80.9Y-60.6
X80.9Y-63.8
X84.1Y-60.6
X84.1Y-63.8
X67.6Y-61.0
X68.303Y-59.303
X68.303Y-62.697
X70.0Y-58.6
X70.0Y-63.4
X71.697Y-59.303
X71.697Y-62.697
X72.4Y-61.0
T4
X76.17Y-71.55
X78.71Y-71.55
X81.25Y-71.55
X83.79Y-71.55
X86.33Y-71.55
X88.87Y-71.55
T5
X70.0Y-61.0
X95.0Y-61.0
T3
G00X78.18Y-58.7
M15
G01X78.18Y-58.1
M16
G05
G00X78.18Y-62.5
M15
G01X78.18Y-61.9
M16
G05
G00X86.82Y-58.7
M15
G01X86.82Y-58.1
M16
G05
G00X86.82Y-62.5
M15
G01X86.82Y-61.9
M16
G05
T0
M30
