G04 #@! TF.GenerationSoftware,KiCad,Pcbnew,(5.1.2-1)-1*
G04 #@! TF.CreationDate,2020-04-24T16:50:01+02:00*
G04 #@! TF.ProjectId,USB-C-Power-tester,5553422d-432d-4506-9f77-65722d746573,rev?*
G04 #@! TF.SameCoordinates,Original*
G04 #@! TF.FileFunction,Copper,L1,Top*
G04 #@! TF.FilePolarity,Positive*
%FSLAX46Y46*%
G04 Gerber Fmt 4.6, Leading zero omitted, Abs format (unit mm)*
G04 Created by KiCad (PCBNEW (5.1.2-1)-1) date 2020-04-24 16:50:01*
%MOMM*%
%LPD*%
G04 APERTURE LIST*
%ADD10C,0.010000*%
%ADD11R,0.800000X1.200000*%
%ADD12C,0.100000*%
%ADD13C,1.000000*%
%ADD14C,6.400000*%
%ADD15C,0.800000*%
%ADD16C,1.150000*%
%ADD17O,1.700000X1.700000*%
%ADD18R,1.700000X1.700000*%
%ADD19C,0.750000*%
%ADD20C,0.250000*%
%ADD21C,0.254000*%
G04 APERTURE END LIST*
D10*
G36*
X94876964Y-68790018D02*
G01*
X94933812Y-69091570D01*
X95353338Y-69264512D01*
X95604984Y-69093395D01*
X95675458Y-69045750D01*
X95739163Y-69003210D01*
X95793126Y-68967715D01*
X95834373Y-68941210D01*
X95859934Y-68925636D01*
X95866895Y-68922278D01*
X95879435Y-68930914D01*
X95906231Y-68954792D01*
X95944280Y-68990859D01*
X95990579Y-69036067D01*
X96042123Y-69087364D01*
X96095909Y-69141701D01*
X96148935Y-69196028D01*
X96198195Y-69247295D01*
X96240687Y-69292451D01*
X96273407Y-69328446D01*
X96293351Y-69352230D01*
X96298119Y-69360190D01*
X96291257Y-69374865D01*
X96272020Y-69407014D01*
X96242430Y-69453492D01*
X96204510Y-69511156D01*
X96160282Y-69576860D01*
X96134654Y-69614336D01*
X96087941Y-69682768D01*
X96046432Y-69744520D01*
X96012140Y-69796519D01*
X95987080Y-69835692D01*
X95973264Y-69858965D01*
X95971188Y-69863855D01*
X95975895Y-69877755D01*
X95988723Y-69910150D01*
X96007738Y-69956485D01*
X96031003Y-70012206D01*
X96056584Y-70072758D01*
X96082545Y-70133586D01*
X96106950Y-70190136D01*
X96127863Y-70237852D01*
X96143349Y-70272181D01*
X96151472Y-70288568D01*
X96151952Y-70289212D01*
X96164707Y-70292341D01*
X96198677Y-70299321D01*
X96250340Y-70309467D01*
X96316176Y-70322092D01*
X96392664Y-70336509D01*
X96437290Y-70344823D01*
X96519021Y-70360384D01*
X96592843Y-70375192D01*
X96655021Y-70388436D01*
X96701822Y-70399305D01*
X96729509Y-70406989D01*
X96735074Y-70409427D01*
X96740526Y-70425930D01*
X96744924Y-70463200D01*
X96748272Y-70516880D01*
X96750574Y-70582612D01*
X96751832Y-70656037D01*
X96752048Y-70732796D01*
X96751227Y-70808532D01*
X96749371Y-70878886D01*
X96746482Y-70939500D01*
X96742565Y-70986016D01*
X96737622Y-71014075D01*
X96734657Y-71019916D01*
X96716934Y-71026917D01*
X96679381Y-71036927D01*
X96626964Y-71048769D01*
X96564652Y-71061267D01*
X96542900Y-71065310D01*
X96438024Y-71084520D01*
X96355180Y-71099991D01*
X96291630Y-71112337D01*
X96244637Y-71122173D01*
X96211463Y-71130114D01*
X96189371Y-71136776D01*
X96175624Y-71142773D01*
X96167484Y-71148719D01*
X96166345Y-71149894D01*
X96154977Y-71168826D01*
X96137635Y-71205669D01*
X96116050Y-71255913D01*
X96091954Y-71315046D01*
X96067079Y-71378556D01*
X96043157Y-71441932D01*
X96021919Y-71500662D01*
X96005097Y-71550235D01*
X95994422Y-71586139D01*
X95991627Y-71603862D01*
X95991860Y-71604483D01*
X96001331Y-71618970D01*
X96022818Y-71650844D01*
X96054063Y-71696789D01*
X96092807Y-71753485D01*
X96136793Y-71817617D01*
X96149319Y-71835842D01*
X96193984Y-71901914D01*
X96233288Y-71962200D01*
X96265088Y-72013235D01*
X96287245Y-72051560D01*
X96297617Y-72073711D01*
X96298119Y-72076432D01*
X96289405Y-72090736D01*
X96265325Y-72119072D01*
X96228976Y-72158396D01*
X96183453Y-72205661D01*
X96131852Y-72257823D01*
X96077267Y-72311835D01*
X96022794Y-72364653D01*
X95971529Y-72413231D01*
X95926567Y-72454523D01*
X95891004Y-72485485D01*
X95867935Y-72503070D01*
X95861554Y-72505941D01*
X95846699Y-72499178D01*
X95816286Y-72480939D01*
X95775268Y-72454297D01*
X95743709Y-72432852D01*
X95686525Y-72393503D01*
X95618806Y-72347171D01*
X95550880Y-72300913D01*
X95514361Y-72276155D01*
X95390752Y-72192547D01*
X95286991Y-72248650D01*
X95239720Y-72273228D01*
X95199523Y-72292331D01*
X95172326Y-72303227D01*
X95165402Y-72304743D01*
X95157077Y-72293549D01*
X95140654Y-72261917D01*
X95117357Y-72212765D01*
X95088414Y-72149010D01*
X95055050Y-72073571D01*
X95018491Y-71989364D01*
X94979964Y-71899308D01*
X94940694Y-71806321D01*
X94901908Y-71713320D01*
X94864830Y-71623223D01*
X94830689Y-71538948D01*
X94800708Y-71463413D01*
X94776116Y-71399534D01*
X94758136Y-71350231D01*
X94747997Y-71318421D01*
X94746366Y-71307496D01*
X94759291Y-71293561D01*
X94787589Y-71270940D01*
X94825346Y-71244333D01*
X94828515Y-71242228D01*
X94926100Y-71164114D01*
X95004786Y-71072982D01*
X95063891Y-70971745D01*
X95102732Y-70863318D01*
X95120628Y-70750614D01*
X95116897Y-70636548D01*
X95090857Y-70524034D01*
X95041825Y-70415985D01*
X95027400Y-70392345D01*
X94952369Y-70296887D01*
X94863730Y-70220232D01*
X94764549Y-70162780D01*
X94657895Y-70124929D01*
X94546836Y-70107078D01*
X94434439Y-70109625D01*
X94323773Y-70132970D01*
X94217906Y-70177510D01*
X94119905Y-70243645D01*
X94089590Y-70270487D01*
X94012438Y-70354512D01*
X93956218Y-70442966D01*
X93917653Y-70542115D01*
X93896174Y-70640303D01*
X93890872Y-70750697D01*
X93908552Y-70861640D01*
X93947419Y-70969381D01*
X94005677Y-71070169D01*
X94081531Y-71160256D01*
X94173183Y-71235892D01*
X94185228Y-71243864D01*
X94223389Y-71269974D01*
X94252399Y-71292595D01*
X94266268Y-71307039D01*
X94266469Y-71307496D01*
X94263492Y-71323121D01*
X94251689Y-71358582D01*
X94232286Y-71410962D01*
X94206512Y-71477345D01*
X94175591Y-71554814D01*
X94140751Y-71640450D01*
X94103217Y-71731337D01*
X94064217Y-71824559D01*
X94024977Y-71917197D01*
X93986724Y-72006335D01*
X93950683Y-72089055D01*
X93918083Y-72162441D01*
X93890148Y-72223575D01*
X93868105Y-72269541D01*
X93853182Y-72297421D01*
X93847172Y-72304743D01*
X93828809Y-72299041D01*
X93794448Y-72283749D01*
X93750016Y-72261599D01*
X93725583Y-72248650D01*
X93621822Y-72192547D01*
X93498213Y-72276155D01*
X93435114Y-72318987D01*
X93366030Y-72366122D01*
X93301293Y-72410503D01*
X93268866Y-72432852D01*
X93223259Y-72463477D01*
X93184640Y-72487747D01*
X93158048Y-72502587D01*
X93149410Y-72505724D01*
X93136839Y-72497261D01*
X93109016Y-72473636D01*
X93068639Y-72437302D01*
X93018405Y-72390711D01*
X92961012Y-72336317D01*
X92924714Y-72301392D01*
X92861210Y-72238996D01*
X92806327Y-72183188D01*
X92762286Y-72136354D01*
X92731305Y-72100882D01*
X92715602Y-72079161D01*
X92714095Y-72074752D01*
X92721086Y-72057985D01*
X92740406Y-72024082D01*
X92769909Y-71976476D01*
X92807455Y-71918599D01*
X92850900Y-71853884D01*
X92863255Y-71835842D01*
X92908273Y-71770267D01*
X92948660Y-71711228D01*
X92982160Y-71662042D01*
X93006514Y-71626028D01*
X93019464Y-71606502D01*
X93020715Y-71604483D01*
X93018844Y-71588922D01*
X93008913Y-71554709D01*
X92992653Y-71506355D01*
X92971795Y-71448371D01*
X92948073Y-71385270D01*
X92923216Y-71321563D01*
X92898958Y-71261761D01*
X92877029Y-71210376D01*
X92859162Y-71171919D01*
X92847087Y-71150902D01*
X92846229Y-71149894D01*
X92838846Y-71143888D01*
X92826375Y-71137948D01*
X92806080Y-71131460D01*
X92775222Y-71123809D01*
X92731066Y-71114380D01*
X92670874Y-71102559D01*
X92591907Y-71087729D01*
X92491430Y-71069277D01*
X92469675Y-71065310D01*
X92405198Y-71052853D01*
X92348989Y-71040666D01*
X92306013Y-71029926D01*
X92281240Y-71021809D01*
X92277918Y-71019916D01*
X92272444Y-71003138D01*
X92267994Y-70965645D01*
X92264572Y-70911794D01*
X92262181Y-70845944D01*
X92260823Y-70772453D01*
X92260501Y-70695680D01*
X92261219Y-70619983D01*
X92262979Y-70549720D01*
X92265784Y-70489250D01*
X92269638Y-70442930D01*
X92274543Y-70415119D01*
X92277500Y-70409427D01*
X92293963Y-70403686D01*
X92331449Y-70394345D01*
X92386225Y-70382215D01*
X92454555Y-70368107D01*
X92532706Y-70352830D01*
X92575284Y-70344823D01*
X92656071Y-70329721D01*
X92728113Y-70316040D01*
X92787889Y-70304467D01*
X92831879Y-70295687D01*
X92856561Y-70290387D01*
X92860623Y-70289212D01*
X92867489Y-70275965D01*
X92882002Y-70244057D01*
X92902229Y-70198047D01*
X92926234Y-70142492D01*
X92952082Y-70081953D01*
X92977840Y-70020986D01*
X93001573Y-69964151D01*
X93021346Y-69916006D01*
X93035224Y-69881110D01*
X93041274Y-69864021D01*
X93041386Y-69863274D01*
X93034528Y-69849793D01*
X93015302Y-69818770D01*
X92985728Y-69773289D01*
X92947827Y-69716432D01*
X92903620Y-69651283D01*
X92877921Y-69613862D01*
X92831093Y-69545247D01*
X92789501Y-69482952D01*
X92755175Y-69430129D01*
X92730143Y-69389927D01*
X92716435Y-69365500D01*
X92714456Y-69360024D01*
X92722966Y-69347278D01*
X92746493Y-69320063D01*
X92782032Y-69281428D01*
X92826577Y-69234423D01*
X92877123Y-69182095D01*
X92930664Y-69127495D01*
X92984195Y-69073670D01*
X93034711Y-69023670D01*
X93079206Y-68980543D01*
X93114675Y-68947339D01*
X93138113Y-68927106D01*
X93145954Y-68922278D01*
X93158720Y-68929067D01*
X93189256Y-68948142D01*
X93234590Y-68977561D01*
X93291756Y-69015381D01*
X93357784Y-69059661D01*
X93407590Y-69093395D01*
X93659236Y-69264512D01*
X93868999Y-69178041D01*
X94078763Y-69091570D01*
X94135611Y-68790018D01*
X94192460Y-68488466D01*
X94820115Y-68488466D01*
X94876964Y-68790018D01*
X94876964Y-68790018D01*
G37*
X94876964Y-68790018D02*
X94933812Y-69091570D01*
X95353338Y-69264512D01*
X95604984Y-69093395D01*
X95675458Y-69045750D01*
X95739163Y-69003210D01*
X95793126Y-68967715D01*
X95834373Y-68941210D01*
X95859934Y-68925636D01*
X95866895Y-68922278D01*
X95879435Y-68930914D01*
X95906231Y-68954792D01*
X95944280Y-68990859D01*
X95990579Y-69036067D01*
X96042123Y-69087364D01*
X96095909Y-69141701D01*
X96148935Y-69196028D01*
X96198195Y-69247295D01*
X96240687Y-69292451D01*
X96273407Y-69328446D01*
X96293351Y-69352230D01*
X96298119Y-69360190D01*
X96291257Y-69374865D01*
X96272020Y-69407014D01*
X96242430Y-69453492D01*
X96204510Y-69511156D01*
X96160282Y-69576860D01*
X96134654Y-69614336D01*
X96087941Y-69682768D01*
X96046432Y-69744520D01*
X96012140Y-69796519D01*
X95987080Y-69835692D01*
X95973264Y-69858965D01*
X95971188Y-69863855D01*
X95975895Y-69877755D01*
X95988723Y-69910150D01*
X96007738Y-69956485D01*
X96031003Y-70012206D01*
X96056584Y-70072758D01*
X96082545Y-70133586D01*
X96106950Y-70190136D01*
X96127863Y-70237852D01*
X96143349Y-70272181D01*
X96151472Y-70288568D01*
X96151952Y-70289212D01*
X96164707Y-70292341D01*
X96198677Y-70299321D01*
X96250340Y-70309467D01*
X96316176Y-70322092D01*
X96392664Y-70336509D01*
X96437290Y-70344823D01*
X96519021Y-70360384D01*
X96592843Y-70375192D01*
X96655021Y-70388436D01*
X96701822Y-70399305D01*
X96729509Y-70406989D01*
X96735074Y-70409427D01*
X96740526Y-70425930D01*
X96744924Y-70463200D01*
X96748272Y-70516880D01*
X96750574Y-70582612D01*
X96751832Y-70656037D01*
X96752048Y-70732796D01*
X96751227Y-70808532D01*
X96749371Y-70878886D01*
X96746482Y-70939500D01*
X96742565Y-70986016D01*
X96737622Y-71014075D01*
X96734657Y-71019916D01*
X96716934Y-71026917D01*
X96679381Y-71036927D01*
X96626964Y-71048769D01*
X96564652Y-71061267D01*
X96542900Y-71065310D01*
X96438024Y-71084520D01*
X96355180Y-71099991D01*
X96291630Y-71112337D01*
X96244637Y-71122173D01*
X96211463Y-71130114D01*
X96189371Y-71136776D01*
X96175624Y-71142773D01*
X96167484Y-71148719D01*
X96166345Y-71149894D01*
X96154977Y-71168826D01*
X96137635Y-71205669D01*
X96116050Y-71255913D01*
X96091954Y-71315046D01*
X96067079Y-71378556D01*
X96043157Y-71441932D01*
X96021919Y-71500662D01*
X96005097Y-71550235D01*
X95994422Y-71586139D01*
X95991627Y-71603862D01*
X95991860Y-71604483D01*
X96001331Y-71618970D01*
X96022818Y-71650844D01*
X96054063Y-71696789D01*
X96092807Y-71753485D01*
X96136793Y-71817617D01*
X96149319Y-71835842D01*
X96193984Y-71901914D01*
X96233288Y-71962200D01*
X96265088Y-72013235D01*
X96287245Y-72051560D01*
X96297617Y-72073711D01*
X96298119Y-72076432D01*
X96289405Y-72090736D01*
X96265325Y-72119072D01*
X96228976Y-72158396D01*
X96183453Y-72205661D01*
X96131852Y-72257823D01*
X96077267Y-72311835D01*
X96022794Y-72364653D01*
X95971529Y-72413231D01*
X95926567Y-72454523D01*
X95891004Y-72485485D01*
X95867935Y-72503070D01*
X95861554Y-72505941D01*
X95846699Y-72499178D01*
X95816286Y-72480939D01*
X95775268Y-72454297D01*
X95743709Y-72432852D01*
X95686525Y-72393503D01*
X95618806Y-72347171D01*
X95550880Y-72300913D01*
X95514361Y-72276155D01*
X95390752Y-72192547D01*
X95286991Y-72248650D01*
X95239720Y-72273228D01*
X95199523Y-72292331D01*
X95172326Y-72303227D01*
X95165402Y-72304743D01*
X95157077Y-72293549D01*
X95140654Y-72261917D01*
X95117357Y-72212765D01*
X95088414Y-72149010D01*
X95055050Y-72073571D01*
X95018491Y-71989364D01*
X94979964Y-71899308D01*
X94940694Y-71806321D01*
X94901908Y-71713320D01*
X94864830Y-71623223D01*
X94830689Y-71538948D01*
X94800708Y-71463413D01*
X94776116Y-71399534D01*
X94758136Y-71350231D01*
X94747997Y-71318421D01*
X94746366Y-71307496D01*
X94759291Y-71293561D01*
X94787589Y-71270940D01*
X94825346Y-71244333D01*
X94828515Y-71242228D01*
X94926100Y-71164114D01*
X95004786Y-71072982D01*
X95063891Y-70971745D01*
X95102732Y-70863318D01*
X95120628Y-70750614D01*
X95116897Y-70636548D01*
X95090857Y-70524034D01*
X95041825Y-70415985D01*
X95027400Y-70392345D01*
X94952369Y-70296887D01*
X94863730Y-70220232D01*
X94764549Y-70162780D01*
X94657895Y-70124929D01*
X94546836Y-70107078D01*
X94434439Y-70109625D01*
X94323773Y-70132970D01*
X94217906Y-70177510D01*
X94119905Y-70243645D01*
X94089590Y-70270487D01*
X94012438Y-70354512D01*
X93956218Y-70442966D01*
X93917653Y-70542115D01*
X93896174Y-70640303D01*
X93890872Y-70750697D01*
X93908552Y-70861640D01*
X93947419Y-70969381D01*
X94005677Y-71070169D01*
X94081531Y-71160256D01*
X94173183Y-71235892D01*
X94185228Y-71243864D01*
X94223389Y-71269974D01*
X94252399Y-71292595D01*
X94266268Y-71307039D01*
X94266469Y-71307496D01*
X94263492Y-71323121D01*
X94251689Y-71358582D01*
X94232286Y-71410962D01*
X94206512Y-71477345D01*
X94175591Y-71554814D01*
X94140751Y-71640450D01*
X94103217Y-71731337D01*
X94064217Y-71824559D01*
X94024977Y-71917197D01*
X93986724Y-72006335D01*
X93950683Y-72089055D01*
X93918083Y-72162441D01*
X93890148Y-72223575D01*
X93868105Y-72269541D01*
X93853182Y-72297421D01*
X93847172Y-72304743D01*
X93828809Y-72299041D01*
X93794448Y-72283749D01*
X93750016Y-72261599D01*
X93725583Y-72248650D01*
X93621822Y-72192547D01*
X93498213Y-72276155D01*
X93435114Y-72318987D01*
X93366030Y-72366122D01*
X93301293Y-72410503D01*
X93268866Y-72432852D01*
X93223259Y-72463477D01*
X93184640Y-72487747D01*
X93158048Y-72502587D01*
X93149410Y-72505724D01*
X93136839Y-72497261D01*
X93109016Y-72473636D01*
X93068639Y-72437302D01*
X93018405Y-72390711D01*
X92961012Y-72336317D01*
X92924714Y-72301392D01*
X92861210Y-72238996D01*
X92806327Y-72183188D01*
X92762286Y-72136354D01*
X92731305Y-72100882D01*
X92715602Y-72079161D01*
X92714095Y-72074752D01*
X92721086Y-72057985D01*
X92740406Y-72024082D01*
X92769909Y-71976476D01*
X92807455Y-71918599D01*
X92850900Y-71853884D01*
X92863255Y-71835842D01*
X92908273Y-71770267D01*
X92948660Y-71711228D01*
X92982160Y-71662042D01*
X93006514Y-71626028D01*
X93019464Y-71606502D01*
X93020715Y-71604483D01*
X93018844Y-71588922D01*
X93008913Y-71554709D01*
X92992653Y-71506355D01*
X92971795Y-71448371D01*
X92948073Y-71385270D01*
X92923216Y-71321563D01*
X92898958Y-71261761D01*
X92877029Y-71210376D01*
X92859162Y-71171919D01*
X92847087Y-71150902D01*
X92846229Y-71149894D01*
X92838846Y-71143888D01*
X92826375Y-71137948D01*
X92806080Y-71131460D01*
X92775222Y-71123809D01*
X92731066Y-71114380D01*
X92670874Y-71102559D01*
X92591907Y-71087729D01*
X92491430Y-71069277D01*
X92469675Y-71065310D01*
X92405198Y-71052853D01*
X92348989Y-71040666D01*
X92306013Y-71029926D01*
X92281240Y-71021809D01*
X92277918Y-71019916D01*
X92272444Y-71003138D01*
X92267994Y-70965645D01*
X92264572Y-70911794D01*
X92262181Y-70845944D01*
X92260823Y-70772453D01*
X92260501Y-70695680D01*
X92261219Y-70619983D01*
X92262979Y-70549720D01*
X92265784Y-70489250D01*
X92269638Y-70442930D01*
X92274543Y-70415119D01*
X92277500Y-70409427D01*
X92293963Y-70403686D01*
X92331449Y-70394345D01*
X92386225Y-70382215D01*
X92454555Y-70368107D01*
X92532706Y-70352830D01*
X92575284Y-70344823D01*
X92656071Y-70329721D01*
X92728113Y-70316040D01*
X92787889Y-70304467D01*
X92831879Y-70295687D01*
X92856561Y-70290387D01*
X92860623Y-70289212D01*
X92867489Y-70275965D01*
X92882002Y-70244057D01*
X92902229Y-70198047D01*
X92926234Y-70142492D01*
X92952082Y-70081953D01*
X92977840Y-70020986D01*
X93001573Y-69964151D01*
X93021346Y-69916006D01*
X93035224Y-69881110D01*
X93041274Y-69864021D01*
X93041386Y-69863274D01*
X93034528Y-69849793D01*
X93015302Y-69818770D01*
X92985728Y-69773289D01*
X92947827Y-69716432D01*
X92903620Y-69651283D01*
X92877921Y-69613862D01*
X92831093Y-69545247D01*
X92789501Y-69482952D01*
X92755175Y-69430129D01*
X92730143Y-69389927D01*
X92716435Y-69365500D01*
X92714456Y-69360024D01*
X92722966Y-69347278D01*
X92746493Y-69320063D01*
X92782032Y-69281428D01*
X92826577Y-69234423D01*
X92877123Y-69182095D01*
X92930664Y-69127495D01*
X92984195Y-69073670D01*
X93034711Y-69023670D01*
X93079206Y-68980543D01*
X93114675Y-68947339D01*
X93138113Y-68927106D01*
X93145954Y-68922278D01*
X93158720Y-68929067D01*
X93189256Y-68948142D01*
X93234590Y-68977561D01*
X93291756Y-69015381D01*
X93357784Y-69059661D01*
X93407590Y-69093395D01*
X93659236Y-69264512D01*
X93868999Y-69178041D01*
X94078763Y-69091570D01*
X94135611Y-68790018D01*
X94192460Y-68488466D01*
X94820115Y-68488466D01*
X94876964Y-68790018D01*
G36*
X96299460Y-72958030D02*
G01*
X96342711Y-72971245D01*
X96370558Y-72987941D01*
X96379629Y-73001145D01*
X96377132Y-73016797D01*
X96360931Y-73041385D01*
X96347232Y-73058800D01*
X96318992Y-73090283D01*
X96297775Y-73103529D01*
X96279688Y-73102664D01*
X96226035Y-73089010D01*
X96186630Y-73089630D01*
X96154632Y-73105104D01*
X96143890Y-73114161D01*
X96109505Y-73146027D01*
X96109505Y-73562179D01*
X95971188Y-73562179D01*
X95971188Y-72958614D01*
X96040347Y-72958614D01*
X96081869Y-72960256D01*
X96103291Y-72966087D01*
X96109502Y-72977461D01*
X96109505Y-72977798D01*
X96112439Y-72989713D01*
X96125704Y-72988159D01*
X96144084Y-72979563D01*
X96182046Y-72963568D01*
X96212872Y-72953945D01*
X96252536Y-72951478D01*
X96299460Y-72958030D01*
X96299460Y-72958030D01*
G37*
X96299460Y-72958030D02*
X96342711Y-72971245D01*
X96370558Y-72987941D01*
X96379629Y-73001145D01*
X96377132Y-73016797D01*
X96360931Y-73041385D01*
X96347232Y-73058800D01*
X96318992Y-73090283D01*
X96297775Y-73103529D01*
X96279688Y-73102664D01*
X96226035Y-73089010D01*
X96186630Y-73089630D01*
X96154632Y-73105104D01*
X96143890Y-73114161D01*
X96109505Y-73146027D01*
X96109505Y-73562179D01*
X95971188Y-73562179D01*
X95971188Y-72958614D01*
X96040347Y-72958614D01*
X96081869Y-72960256D01*
X96103291Y-72966087D01*
X96109502Y-72977461D01*
X96109505Y-72977798D01*
X96112439Y-72989713D01*
X96125704Y-72988159D01*
X96144084Y-72979563D01*
X96182046Y-72963568D01*
X96212872Y-72953945D01*
X96252536Y-72951478D01*
X96299460Y-72958030D01*
G36*
X93745988Y-72969002D02*
G01*
X93777283Y-72983950D01*
X93807591Y-73005541D01*
X93830682Y-73030391D01*
X93847500Y-73062087D01*
X93858994Y-73104214D01*
X93866109Y-73160358D01*
X93869793Y-73234106D01*
X93870992Y-73329044D01*
X93871011Y-73338985D01*
X93871287Y-73562179D01*
X93732970Y-73562179D01*
X93732970Y-73356418D01*
X93732872Y-73280189D01*
X93732191Y-73224939D01*
X93730349Y-73186501D01*
X93726767Y-73160706D01*
X93720868Y-73143384D01*
X93712073Y-73130368D01*
X93699820Y-73117507D01*
X93656953Y-73089873D01*
X93610157Y-73084745D01*
X93565576Y-73102217D01*
X93550072Y-73115221D01*
X93538690Y-73127447D01*
X93530519Y-73140540D01*
X93525026Y-73158615D01*
X93521680Y-73185787D01*
X93519949Y-73226170D01*
X93519303Y-73283879D01*
X93519208Y-73354132D01*
X93519208Y-73562179D01*
X93380891Y-73562179D01*
X93380891Y-72958614D01*
X93450050Y-72958614D01*
X93491572Y-72960256D01*
X93512994Y-72966087D01*
X93519205Y-72977461D01*
X93519208Y-72977798D01*
X93522090Y-72988938D01*
X93534801Y-72987674D01*
X93560074Y-72975434D01*
X93617395Y-72957424D01*
X93682963Y-72955421D01*
X93745988Y-72969002D01*
X93745988Y-72969002D01*
G37*
X93745988Y-72969002D02*
X93777283Y-72983950D01*
X93807591Y-73005541D01*
X93830682Y-73030391D01*
X93847500Y-73062087D01*
X93858994Y-73104214D01*
X93866109Y-73160358D01*
X93869793Y-73234106D01*
X93870992Y-73329044D01*
X93871011Y-73338985D01*
X93871287Y-73562179D01*
X93732970Y-73562179D01*
X93732970Y-73356418D01*
X93732872Y-73280189D01*
X93732191Y-73224939D01*
X93730349Y-73186501D01*
X93726767Y-73160706D01*
X93720868Y-73143384D01*
X93712073Y-73130368D01*
X93699820Y-73117507D01*
X93656953Y-73089873D01*
X93610157Y-73084745D01*
X93565576Y-73102217D01*
X93550072Y-73115221D01*
X93538690Y-73127447D01*
X93530519Y-73140540D01*
X93525026Y-73158615D01*
X93521680Y-73185787D01*
X93519949Y-73226170D01*
X93519303Y-73283879D01*
X93519208Y-73354132D01*
X93519208Y-73562179D01*
X93380891Y-73562179D01*
X93380891Y-72958614D01*
X93450050Y-72958614D01*
X93491572Y-72960256D01*
X93512994Y-72966087D01*
X93519205Y-72977461D01*
X93519208Y-72977798D01*
X93522090Y-72988938D01*
X93534801Y-72987674D01*
X93560074Y-72975434D01*
X93617395Y-72957424D01*
X93682963Y-72955421D01*
X93745988Y-72969002D01*
G36*
X97177898Y-72956457D02*
G01*
X97210096Y-72964279D01*
X97271825Y-72992921D01*
X97324610Y-73036667D01*
X97361141Y-73089117D01*
X97366160Y-73100893D01*
X97373045Y-73131740D01*
X97377864Y-73177371D01*
X97379505Y-73223492D01*
X97379505Y-73310693D01*
X97197178Y-73310693D01*
X97121979Y-73310978D01*
X97069003Y-73312704D01*
X97035325Y-73317181D01*
X97018020Y-73325720D01*
X97014163Y-73339630D01*
X97020829Y-73360222D01*
X97032770Y-73384315D01*
X97066080Y-73424525D01*
X97112368Y-73444558D01*
X97168944Y-73443905D01*
X97233031Y-73422101D01*
X97288417Y-73395193D01*
X97334375Y-73431532D01*
X97380333Y-73467872D01*
X97337096Y-73507819D01*
X97279374Y-73545563D01*
X97208386Y-73568320D01*
X97132029Y-73574688D01*
X97058199Y-73563268D01*
X97046287Y-73559393D01*
X96981399Y-73525506D01*
X96933130Y-73474986D01*
X96900465Y-73406325D01*
X96882385Y-73318014D01*
X96882175Y-73316121D01*
X96880556Y-73219878D01*
X96887100Y-73185542D01*
X97014852Y-73185542D01*
X97026584Y-73190822D01*
X97058438Y-73194867D01*
X97105397Y-73197176D01*
X97135154Y-73197525D01*
X97190648Y-73197306D01*
X97225346Y-73195916D01*
X97243601Y-73192251D01*
X97249766Y-73185210D01*
X97248195Y-73173690D01*
X97246878Y-73169233D01*
X97224382Y-73127355D01*
X97189003Y-73093604D01*
X97157780Y-73078773D01*
X97116301Y-73079668D01*
X97074269Y-73098164D01*
X97039012Y-73128786D01*
X97017854Y-73166062D01*
X97014852Y-73185542D01*
X96887100Y-73185542D01*
X96896690Y-73135229D01*
X96928698Y-73064191D01*
X96974701Y-73008779D01*
X97032821Y-72971009D01*
X97101180Y-72952896D01*
X97177898Y-72956457D01*
X97177898Y-72956457D01*
G37*
X97177898Y-72956457D02*
X97210096Y-72964279D01*
X97271825Y-72992921D01*
X97324610Y-73036667D01*
X97361141Y-73089117D01*
X97366160Y-73100893D01*
X97373045Y-73131740D01*
X97377864Y-73177371D01*
X97379505Y-73223492D01*
X97379505Y-73310693D01*
X97197178Y-73310693D01*
X97121979Y-73310978D01*
X97069003Y-73312704D01*
X97035325Y-73317181D01*
X97018020Y-73325720D01*
X97014163Y-73339630D01*
X97020829Y-73360222D01*
X97032770Y-73384315D01*
X97066080Y-73424525D01*
X97112368Y-73444558D01*
X97168944Y-73443905D01*
X97233031Y-73422101D01*
X97288417Y-73395193D01*
X97334375Y-73431532D01*
X97380333Y-73467872D01*
X97337096Y-73507819D01*
X97279374Y-73545563D01*
X97208386Y-73568320D01*
X97132029Y-73574688D01*
X97058199Y-73563268D01*
X97046287Y-73559393D01*
X96981399Y-73525506D01*
X96933130Y-73474986D01*
X96900465Y-73406325D01*
X96882385Y-73318014D01*
X96882175Y-73316121D01*
X96880556Y-73219878D01*
X96887100Y-73185542D01*
X97014852Y-73185542D01*
X97026584Y-73190822D01*
X97058438Y-73194867D01*
X97105397Y-73197176D01*
X97135154Y-73197525D01*
X97190648Y-73197306D01*
X97225346Y-73195916D01*
X97243601Y-73192251D01*
X97249766Y-73185210D01*
X97248195Y-73173690D01*
X97246878Y-73169233D01*
X97224382Y-73127355D01*
X97189003Y-73093604D01*
X97157780Y-73078773D01*
X97116301Y-73079668D01*
X97074269Y-73098164D01*
X97039012Y-73128786D01*
X97017854Y-73166062D01*
X97014852Y-73185542D01*
X96887100Y-73185542D01*
X96896690Y-73135229D01*
X96928698Y-73064191D01*
X96974701Y-73008779D01*
X97032821Y-72971009D01*
X97101180Y-72952896D01*
X97177898Y-72956457D01*
G36*
X96717226Y-72963880D02*
G01*
X96790080Y-72994830D01*
X96813027Y-73009895D01*
X96842354Y-73033048D01*
X96860764Y-73051253D01*
X96863961Y-73057183D01*
X96854935Y-73070340D01*
X96831837Y-73092667D01*
X96813344Y-73108250D01*
X96762728Y-73148926D01*
X96722760Y-73115295D01*
X96691874Y-73093584D01*
X96661759Y-73086090D01*
X96627292Y-73087920D01*
X96572561Y-73101528D01*
X96534886Y-73129772D01*
X96511991Y-73175433D01*
X96501597Y-73241289D01*
X96501595Y-73241331D01*
X96502494Y-73314939D01*
X96516463Y-73368946D01*
X96544328Y-73405716D01*
X96563325Y-73418168D01*
X96613776Y-73433673D01*
X96667663Y-73433683D01*
X96714546Y-73418638D01*
X96725644Y-73411287D01*
X96753476Y-73392511D01*
X96775236Y-73389434D01*
X96798704Y-73403409D01*
X96824649Y-73428510D01*
X96865716Y-73470880D01*
X96820121Y-73508464D01*
X96749674Y-73550882D01*
X96670233Y-73571785D01*
X96587215Y-73570272D01*
X96532694Y-73556411D01*
X96468970Y-73522135D01*
X96418005Y-73468212D01*
X96394851Y-73430149D01*
X96376099Y-73375536D01*
X96366715Y-73306369D01*
X96366643Y-73231407D01*
X96375824Y-73159409D01*
X96394199Y-73099137D01*
X96397093Y-73092958D01*
X96439952Y-73032351D01*
X96497979Y-72988224D01*
X96566591Y-72961493D01*
X96641201Y-72953073D01*
X96717226Y-72963880D01*
X96717226Y-72963880D01*
G37*
X96717226Y-72963880D02*
X96790080Y-72994830D01*
X96813027Y-73009895D01*
X96842354Y-73033048D01*
X96860764Y-73051253D01*
X96863961Y-73057183D01*
X96854935Y-73070340D01*
X96831837Y-73092667D01*
X96813344Y-73108250D01*
X96762728Y-73148926D01*
X96722760Y-73115295D01*
X96691874Y-73093584D01*
X96661759Y-73086090D01*
X96627292Y-73087920D01*
X96572561Y-73101528D01*
X96534886Y-73129772D01*
X96511991Y-73175433D01*
X96501597Y-73241289D01*
X96501595Y-73241331D01*
X96502494Y-73314939D01*
X96516463Y-73368946D01*
X96544328Y-73405716D01*
X96563325Y-73418168D01*
X96613776Y-73433673D01*
X96667663Y-73433683D01*
X96714546Y-73418638D01*
X96725644Y-73411287D01*
X96753476Y-73392511D01*
X96775236Y-73389434D01*
X96798704Y-73403409D01*
X96824649Y-73428510D01*
X96865716Y-73470880D01*
X96820121Y-73508464D01*
X96749674Y-73550882D01*
X96670233Y-73571785D01*
X96587215Y-73570272D01*
X96532694Y-73556411D01*
X96468970Y-73522135D01*
X96418005Y-73468212D01*
X96394851Y-73430149D01*
X96376099Y-73375536D01*
X96366715Y-73306369D01*
X96366643Y-73231407D01*
X96375824Y-73159409D01*
X96394199Y-73099137D01*
X96397093Y-73092958D01*
X96439952Y-73032351D01*
X96497979Y-72988224D01*
X96566591Y-72961493D01*
X96641201Y-72953073D01*
X96717226Y-72963880D01*
G36*
X95493367Y-73154342D02*
G01*
X95494555Y-73246563D01*
X95498897Y-73316610D01*
X95507558Y-73367381D01*
X95521704Y-73401772D01*
X95542500Y-73422679D01*
X95571110Y-73433000D01*
X95606535Y-73435636D01*
X95643636Y-73432682D01*
X95671818Y-73421889D01*
X95692243Y-73400360D01*
X95706079Y-73365199D01*
X95714491Y-73313510D01*
X95718643Y-73242394D01*
X95719703Y-73154342D01*
X95719703Y-72958614D01*
X95858020Y-72958614D01*
X95858020Y-73562179D01*
X95788862Y-73562179D01*
X95747170Y-73560489D01*
X95725701Y-73554556D01*
X95719703Y-73543293D01*
X95716091Y-73533261D01*
X95701714Y-73535383D01*
X95672736Y-73549580D01*
X95606319Y-73571480D01*
X95535875Y-73569928D01*
X95468377Y-73546147D01*
X95436233Y-73527362D01*
X95411715Y-73507022D01*
X95393804Y-73481573D01*
X95381479Y-73447458D01*
X95373723Y-73401121D01*
X95369516Y-73339007D01*
X95367840Y-73257561D01*
X95367624Y-73194578D01*
X95367624Y-72958614D01*
X95493367Y-72958614D01*
X95493367Y-73154342D01*
X95493367Y-73154342D01*
G37*
X95493367Y-73154342D02*
X95494555Y-73246563D01*
X95498897Y-73316610D01*
X95507558Y-73367381D01*
X95521704Y-73401772D01*
X95542500Y-73422679D01*
X95571110Y-73433000D01*
X95606535Y-73435636D01*
X95643636Y-73432682D01*
X95671818Y-73421889D01*
X95692243Y-73400360D01*
X95706079Y-73365199D01*
X95714491Y-73313510D01*
X95718643Y-73242394D01*
X95719703Y-73154342D01*
X95719703Y-72958614D01*
X95858020Y-72958614D01*
X95858020Y-73562179D01*
X95788862Y-73562179D01*
X95747170Y-73560489D01*
X95725701Y-73554556D01*
X95719703Y-73543293D01*
X95716091Y-73533261D01*
X95701714Y-73535383D01*
X95672736Y-73549580D01*
X95606319Y-73571480D01*
X95535875Y-73569928D01*
X95468377Y-73546147D01*
X95436233Y-73527362D01*
X95411715Y-73507022D01*
X95393804Y-73481573D01*
X95381479Y-73447458D01*
X95373723Y-73401121D01*
X95369516Y-73339007D01*
X95367840Y-73257561D01*
X95367624Y-73194578D01*
X95367624Y-72958614D01*
X95493367Y-72958614D01*
X95493367Y-73154342D01*
G36*
X95110762Y-72966055D02*
G01*
X95174363Y-73000692D01*
X95224123Y-73055372D01*
X95247568Y-73099842D01*
X95257634Y-73139121D01*
X95264156Y-73195116D01*
X95266951Y-73259621D01*
X95265836Y-73324429D01*
X95260626Y-73381334D01*
X95254541Y-73411727D01*
X95234014Y-73453306D01*
X95198463Y-73497468D01*
X95155619Y-73536087D01*
X95113211Y-73561034D01*
X95112177Y-73561430D01*
X95059553Y-73572331D01*
X94997188Y-73572601D01*
X94937924Y-73562676D01*
X94915040Y-73554722D01*
X94856102Y-73521300D01*
X94813890Y-73477511D01*
X94786156Y-73419538D01*
X94770651Y-73343565D01*
X94767143Y-73303771D01*
X94767590Y-73253766D01*
X94902376Y-73253766D01*
X94906917Y-73326732D01*
X94919986Y-73382334D01*
X94940756Y-73417861D01*
X94955552Y-73428020D01*
X94993464Y-73435104D01*
X95038527Y-73433007D01*
X95077487Y-73422812D01*
X95087704Y-73417204D01*
X95114659Y-73384538D01*
X95132451Y-73334545D01*
X95140024Y-73273705D01*
X95136325Y-73208497D01*
X95128057Y-73169253D01*
X95104320Y-73123805D01*
X95066849Y-73095396D01*
X95021720Y-73085573D01*
X94975011Y-73095887D01*
X94939132Y-73121112D01*
X94920277Y-73141925D01*
X94909272Y-73162439D01*
X94904026Y-73190203D01*
X94902449Y-73232762D01*
X94902376Y-73253766D01*
X94767590Y-73253766D01*
X94768094Y-73197580D01*
X94785388Y-73110501D01*
X94819029Y-73042530D01*
X94869018Y-72993664D01*
X94935356Y-72963899D01*
X94949601Y-72960448D01*
X95035210Y-72952345D01*
X95110762Y-72966055D01*
X95110762Y-72966055D01*
G37*
X95110762Y-72966055D02*
X95174363Y-73000692D01*
X95224123Y-73055372D01*
X95247568Y-73099842D01*
X95257634Y-73139121D01*
X95264156Y-73195116D01*
X95266951Y-73259621D01*
X95265836Y-73324429D01*
X95260626Y-73381334D01*
X95254541Y-73411727D01*
X95234014Y-73453306D01*
X95198463Y-73497468D01*
X95155619Y-73536087D01*
X95113211Y-73561034D01*
X95112177Y-73561430D01*
X95059553Y-73572331D01*
X94997188Y-73572601D01*
X94937924Y-73562676D01*
X94915040Y-73554722D01*
X94856102Y-73521300D01*
X94813890Y-73477511D01*
X94786156Y-73419538D01*
X94770651Y-73343565D01*
X94767143Y-73303771D01*
X94767590Y-73253766D01*
X94902376Y-73253766D01*
X94906917Y-73326732D01*
X94919986Y-73382334D01*
X94940756Y-73417861D01*
X94955552Y-73428020D01*
X94993464Y-73435104D01*
X95038527Y-73433007D01*
X95077487Y-73422812D01*
X95087704Y-73417204D01*
X95114659Y-73384538D01*
X95132451Y-73334545D01*
X95140024Y-73273705D01*
X95136325Y-73208497D01*
X95128057Y-73169253D01*
X95104320Y-73123805D01*
X95066849Y-73095396D01*
X95021720Y-73085573D01*
X94975011Y-73095887D01*
X94939132Y-73121112D01*
X94920277Y-73141925D01*
X94909272Y-73162439D01*
X94904026Y-73190203D01*
X94902449Y-73232762D01*
X94902376Y-73253766D01*
X94767590Y-73253766D01*
X94768094Y-73197580D01*
X94785388Y-73110501D01*
X94819029Y-73042530D01*
X94869018Y-72993664D01*
X94935356Y-72963899D01*
X94949601Y-72960448D01*
X95035210Y-72952345D01*
X95110762Y-72966055D01*
G36*
X94514017Y-72956452D02*
G01*
X94561634Y-72965482D01*
X94611034Y-72984370D01*
X94616312Y-72986777D01*
X94653774Y-73006476D01*
X94679717Y-73024781D01*
X94688103Y-73036508D01*
X94680117Y-73055632D01*
X94660720Y-73083850D01*
X94652110Y-73094384D01*
X94616628Y-73135847D01*
X94570885Y-73108858D01*
X94527350Y-73090878D01*
X94477050Y-73081267D01*
X94428812Y-73080660D01*
X94391467Y-73089691D01*
X94382505Y-73095327D01*
X94365437Y-73121171D01*
X94363363Y-73150941D01*
X94376134Y-73174197D01*
X94383688Y-73178708D01*
X94406325Y-73184309D01*
X94446115Y-73190892D01*
X94495166Y-73197183D01*
X94504215Y-73198170D01*
X94582996Y-73211798D01*
X94640136Y-73234946D01*
X94678030Y-73269752D01*
X94699079Y-73318354D01*
X94705635Y-73377718D01*
X94696577Y-73445198D01*
X94667164Y-73498188D01*
X94617278Y-73536783D01*
X94546800Y-73561081D01*
X94468565Y-73570667D01*
X94404766Y-73570552D01*
X94353016Y-73561845D01*
X94317673Y-73549825D01*
X94273017Y-73528880D01*
X94231747Y-73504574D01*
X94217079Y-73493876D01*
X94179357Y-73463084D01*
X94224852Y-73417049D01*
X94270347Y-73371013D01*
X94322072Y-73405243D01*
X94373952Y-73430952D01*
X94429351Y-73444399D01*
X94482605Y-73445818D01*
X94528049Y-73435443D01*
X94560016Y-73413507D01*
X94570338Y-73394998D01*
X94568789Y-73365314D01*
X94543140Y-73342615D01*
X94493460Y-73326940D01*
X94439031Y-73319695D01*
X94355264Y-73305873D01*
X94293033Y-73279796D01*
X94251507Y-73240699D01*
X94229853Y-73187820D01*
X94226853Y-73125126D01*
X94241671Y-73059642D01*
X94275454Y-73010144D01*
X94328505Y-72976408D01*
X94401126Y-72958207D01*
X94454928Y-72954639D01*
X94514017Y-72956452D01*
X94514017Y-72956452D01*
G37*
X94514017Y-72956452D02*
X94561634Y-72965482D01*
X94611034Y-72984370D01*
X94616312Y-72986777D01*
X94653774Y-73006476D01*
X94679717Y-73024781D01*
X94688103Y-73036508D01*
X94680117Y-73055632D01*
X94660720Y-73083850D01*
X94652110Y-73094384D01*
X94616628Y-73135847D01*
X94570885Y-73108858D01*
X94527350Y-73090878D01*
X94477050Y-73081267D01*
X94428812Y-73080660D01*
X94391467Y-73089691D01*
X94382505Y-73095327D01*
X94365437Y-73121171D01*
X94363363Y-73150941D01*
X94376134Y-73174197D01*
X94383688Y-73178708D01*
X94406325Y-73184309D01*
X94446115Y-73190892D01*
X94495166Y-73197183D01*
X94504215Y-73198170D01*
X94582996Y-73211798D01*
X94640136Y-73234946D01*
X94678030Y-73269752D01*
X94699079Y-73318354D01*
X94705635Y-73377718D01*
X94696577Y-73445198D01*
X94667164Y-73498188D01*
X94617278Y-73536783D01*
X94546800Y-73561081D01*
X94468565Y-73570667D01*
X94404766Y-73570552D01*
X94353016Y-73561845D01*
X94317673Y-73549825D01*
X94273017Y-73528880D01*
X94231747Y-73504574D01*
X94217079Y-73493876D01*
X94179357Y-73463084D01*
X94224852Y-73417049D01*
X94270347Y-73371013D01*
X94322072Y-73405243D01*
X94373952Y-73430952D01*
X94429351Y-73444399D01*
X94482605Y-73445818D01*
X94528049Y-73435443D01*
X94560016Y-73413507D01*
X94570338Y-73394998D01*
X94568789Y-73365314D01*
X94543140Y-73342615D01*
X94493460Y-73326940D01*
X94439031Y-73319695D01*
X94355264Y-73305873D01*
X94293033Y-73279796D01*
X94251507Y-73240699D01*
X94229853Y-73187820D01*
X94226853Y-73125126D01*
X94241671Y-73059642D01*
X94275454Y-73010144D01*
X94328505Y-72976408D01*
X94401126Y-72958207D01*
X94454928Y-72954639D01*
X94514017Y-72956452D01*
G36*
X93143301Y-72972614D02*
G01*
X93155832Y-72978514D01*
X93199201Y-73010283D01*
X93240210Y-73056646D01*
X93270832Y-73107696D01*
X93279541Y-73131166D01*
X93287488Y-73173091D01*
X93292226Y-73223757D01*
X93292801Y-73244679D01*
X93292871Y-73310693D01*
X92912917Y-73310693D01*
X92921017Y-73345273D01*
X92940896Y-73386170D01*
X92975653Y-73421514D01*
X93017002Y-73444282D01*
X93043351Y-73449010D01*
X93079084Y-73443273D01*
X93121718Y-73428882D01*
X93136201Y-73422262D01*
X93189760Y-73395513D01*
X93235467Y-73430376D01*
X93261842Y-73453955D01*
X93275876Y-73473417D01*
X93276586Y-73479129D01*
X93264049Y-73492973D01*
X93236572Y-73514012D01*
X93211634Y-73530425D01*
X93144336Y-73559930D01*
X93068890Y-73573284D01*
X92994112Y-73569812D01*
X92934505Y-73551663D01*
X92873059Y-73512784D01*
X92829392Y-73461595D01*
X92802074Y-73395367D01*
X92789678Y-73311371D01*
X92788579Y-73272936D01*
X92792978Y-73184861D01*
X92793518Y-73182299D01*
X92919418Y-73182299D01*
X92922885Y-73190558D01*
X92937137Y-73195113D01*
X92966530Y-73197065D01*
X93015425Y-73197517D01*
X93034252Y-73197525D01*
X93091533Y-73196843D01*
X93127859Y-73194364D01*
X93147396Y-73189443D01*
X93154310Y-73181434D01*
X93154555Y-73178862D01*
X93146664Y-73158423D01*
X93126915Y-73129789D01*
X93118425Y-73119763D01*
X93086906Y-73091408D01*
X93054051Y-73080259D01*
X93036349Y-73079327D01*
X92988461Y-73090981D01*
X92948301Y-73122285D01*
X92922827Y-73167752D01*
X92922375Y-73169233D01*
X92919418Y-73182299D01*
X92793518Y-73182299D01*
X92807608Y-73115510D01*
X92833962Y-73060025D01*
X92866193Y-73020639D01*
X92925783Y-72977931D01*
X92995832Y-72955109D01*
X93070339Y-72953046D01*
X93143301Y-72972614D01*
X93143301Y-72972614D01*
G37*
X93143301Y-72972614D02*
X93155832Y-72978514D01*
X93199201Y-73010283D01*
X93240210Y-73056646D01*
X93270832Y-73107696D01*
X93279541Y-73131166D01*
X93287488Y-73173091D01*
X93292226Y-73223757D01*
X93292801Y-73244679D01*
X93292871Y-73310693D01*
X92912917Y-73310693D01*
X92921017Y-73345273D01*
X92940896Y-73386170D01*
X92975653Y-73421514D01*
X93017002Y-73444282D01*
X93043351Y-73449010D01*
X93079084Y-73443273D01*
X93121718Y-73428882D01*
X93136201Y-73422262D01*
X93189760Y-73395513D01*
X93235467Y-73430376D01*
X93261842Y-73453955D01*
X93275876Y-73473417D01*
X93276586Y-73479129D01*
X93264049Y-73492973D01*
X93236572Y-73514012D01*
X93211634Y-73530425D01*
X93144336Y-73559930D01*
X93068890Y-73573284D01*
X92994112Y-73569812D01*
X92934505Y-73551663D01*
X92873059Y-73512784D01*
X92829392Y-73461595D01*
X92802074Y-73395367D01*
X92789678Y-73311371D01*
X92788579Y-73272936D01*
X92792978Y-73184861D01*
X92793518Y-73182299D01*
X92919418Y-73182299D01*
X92922885Y-73190558D01*
X92937137Y-73195113D01*
X92966530Y-73197065D01*
X93015425Y-73197517D01*
X93034252Y-73197525D01*
X93091533Y-73196843D01*
X93127859Y-73194364D01*
X93147396Y-73189443D01*
X93154310Y-73181434D01*
X93154555Y-73178862D01*
X93146664Y-73158423D01*
X93126915Y-73129789D01*
X93118425Y-73119763D01*
X93086906Y-73091408D01*
X93054051Y-73080259D01*
X93036349Y-73079327D01*
X92988461Y-73090981D01*
X92948301Y-73122285D01*
X92922827Y-73167752D01*
X92922375Y-73169233D01*
X92919418Y-73182299D01*
X92793518Y-73182299D01*
X92807608Y-73115510D01*
X92833962Y-73060025D01*
X92866193Y-73020639D01*
X92925783Y-72977931D01*
X92995832Y-72955109D01*
X93070339Y-72953046D01*
X93143301Y-72972614D01*
G36*
X91961739Y-72965148D02*
G01*
X92027521Y-72994231D01*
X92077460Y-73042793D01*
X92111626Y-73110908D01*
X92130093Y-73198651D01*
X92131417Y-73212351D01*
X92132454Y-73308939D01*
X92119007Y-73393602D01*
X92091892Y-73462221D01*
X92077373Y-73484294D01*
X92026799Y-73531011D01*
X91962391Y-73561268D01*
X91890334Y-73573824D01*
X91816815Y-73567439D01*
X91760928Y-73547772D01*
X91712868Y-73514629D01*
X91673588Y-73471175D01*
X91672908Y-73470158D01*
X91656956Y-73443338D01*
X91646590Y-73416368D01*
X91640312Y-73382332D01*
X91636627Y-73334310D01*
X91635003Y-73294931D01*
X91634328Y-73259219D01*
X91760045Y-73259219D01*
X91761274Y-73294770D01*
X91765734Y-73342094D01*
X91773603Y-73372465D01*
X91787793Y-73394072D01*
X91801083Y-73406694D01*
X91848198Y-73433122D01*
X91897495Y-73436653D01*
X91943407Y-73417639D01*
X91966362Y-73396331D01*
X91982904Y-73374859D01*
X91992579Y-73354313D01*
X91996826Y-73327574D01*
X91997080Y-73287523D01*
X91995772Y-73250638D01*
X91992957Y-73197947D01*
X91988495Y-73163772D01*
X91980452Y-73141480D01*
X91966897Y-73124442D01*
X91956155Y-73114703D01*
X91911223Y-73089123D01*
X91862751Y-73087847D01*
X91822106Y-73102999D01*
X91787433Y-73134642D01*
X91766776Y-73186620D01*
X91760045Y-73259219D01*
X91634328Y-73259219D01*
X91633521Y-73216621D01*
X91636052Y-73158056D01*
X91643638Y-73114007D01*
X91657319Y-73079248D01*
X91678135Y-73048551D01*
X91685853Y-73039436D01*
X91734111Y-72994021D01*
X91785872Y-72967493D01*
X91849172Y-72956379D01*
X91880039Y-72955471D01*
X91961739Y-72965148D01*
X91961739Y-72965148D01*
G37*
X91961739Y-72965148D02*
X92027521Y-72994231D01*
X92077460Y-73042793D01*
X92111626Y-73110908D01*
X92130093Y-73198651D01*
X92131417Y-73212351D01*
X92132454Y-73308939D01*
X92119007Y-73393602D01*
X92091892Y-73462221D01*
X92077373Y-73484294D01*
X92026799Y-73531011D01*
X91962391Y-73561268D01*
X91890334Y-73573824D01*
X91816815Y-73567439D01*
X91760928Y-73547772D01*
X91712868Y-73514629D01*
X91673588Y-73471175D01*
X91672908Y-73470158D01*
X91656956Y-73443338D01*
X91646590Y-73416368D01*
X91640312Y-73382332D01*
X91636627Y-73334310D01*
X91635003Y-73294931D01*
X91634328Y-73259219D01*
X91760045Y-73259219D01*
X91761274Y-73294770D01*
X91765734Y-73342094D01*
X91773603Y-73372465D01*
X91787793Y-73394072D01*
X91801083Y-73406694D01*
X91848198Y-73433122D01*
X91897495Y-73436653D01*
X91943407Y-73417639D01*
X91966362Y-73396331D01*
X91982904Y-73374859D01*
X91992579Y-73354313D01*
X91996826Y-73327574D01*
X91997080Y-73287523D01*
X91995772Y-73250638D01*
X91992957Y-73197947D01*
X91988495Y-73163772D01*
X91980452Y-73141480D01*
X91966897Y-73124442D01*
X91956155Y-73114703D01*
X91911223Y-73089123D01*
X91862751Y-73087847D01*
X91822106Y-73102999D01*
X91787433Y-73134642D01*
X91766776Y-73186620D01*
X91760045Y-73259219D01*
X91634328Y-73259219D01*
X91633521Y-73216621D01*
X91636052Y-73158056D01*
X91643638Y-73114007D01*
X91657319Y-73079248D01*
X91678135Y-73048551D01*
X91685853Y-73039436D01*
X91734111Y-72994021D01*
X91785872Y-72967493D01*
X91849172Y-72956379D01*
X91880039Y-72955471D01*
X91961739Y-72965148D01*
G36*
X96532581Y-73904970D02*
G01*
X96592685Y-73920597D01*
X96643021Y-73952848D01*
X96667393Y-73976940D01*
X96707345Y-74033895D01*
X96730242Y-74099965D01*
X96738108Y-74181182D01*
X96738148Y-74187748D01*
X96738218Y-74253763D01*
X96358264Y-74253763D01*
X96366363Y-74288342D01*
X96380987Y-74319659D01*
X96406581Y-74352291D01*
X96411935Y-74357500D01*
X96457943Y-74385694D01*
X96510410Y-74390475D01*
X96570803Y-74371926D01*
X96581040Y-74366931D01*
X96612439Y-74351745D01*
X96633470Y-74343094D01*
X96637139Y-74342293D01*
X96649948Y-74350063D01*
X96674378Y-74369072D01*
X96686779Y-74379460D01*
X96712476Y-74403321D01*
X96720915Y-74419077D01*
X96715058Y-74433571D01*
X96711928Y-74437534D01*
X96690725Y-74454879D01*
X96655738Y-74475959D01*
X96631337Y-74488265D01*
X96562072Y-74509946D01*
X96485388Y-74516971D01*
X96412765Y-74508647D01*
X96392426Y-74502686D01*
X96329476Y-74468952D01*
X96282815Y-74417045D01*
X96252173Y-74346459D01*
X96237282Y-74256692D01*
X96235647Y-74209753D01*
X96240421Y-74141413D01*
X96360990Y-74141413D01*
X96372652Y-74146465D01*
X96403998Y-74150429D01*
X96449571Y-74152768D01*
X96480446Y-74153169D01*
X96535981Y-74152783D01*
X96571033Y-74150975D01*
X96590262Y-74146773D01*
X96598330Y-74139203D01*
X96599901Y-74128218D01*
X96589121Y-74094381D01*
X96561980Y-74060940D01*
X96526277Y-74035272D01*
X96490560Y-74024772D01*
X96442048Y-74034086D01*
X96400053Y-74061013D01*
X96370936Y-74099827D01*
X96360990Y-74141413D01*
X96240421Y-74141413D01*
X96242599Y-74110236D01*
X96264055Y-74030949D01*
X96300470Y-73971263D01*
X96352297Y-73930549D01*
X96419990Y-73908179D01*
X96456662Y-73903871D01*
X96532581Y-73904970D01*
X96532581Y-73904970D01*
G37*
X96532581Y-73904970D02*
X96592685Y-73920597D01*
X96643021Y-73952848D01*
X96667393Y-73976940D01*
X96707345Y-74033895D01*
X96730242Y-74099965D01*
X96738108Y-74181182D01*
X96738148Y-74187748D01*
X96738218Y-74253763D01*
X96358264Y-74253763D01*
X96366363Y-74288342D01*
X96380987Y-74319659D01*
X96406581Y-74352291D01*
X96411935Y-74357500D01*
X96457943Y-74385694D01*
X96510410Y-74390475D01*
X96570803Y-74371926D01*
X96581040Y-74366931D01*
X96612439Y-74351745D01*
X96633470Y-74343094D01*
X96637139Y-74342293D01*
X96649948Y-74350063D01*
X96674378Y-74369072D01*
X96686779Y-74379460D01*
X96712476Y-74403321D01*
X96720915Y-74419077D01*
X96715058Y-74433571D01*
X96711928Y-74437534D01*
X96690725Y-74454879D01*
X96655738Y-74475959D01*
X96631337Y-74488265D01*
X96562072Y-74509946D01*
X96485388Y-74516971D01*
X96412765Y-74508647D01*
X96392426Y-74502686D01*
X96329476Y-74468952D01*
X96282815Y-74417045D01*
X96252173Y-74346459D01*
X96237282Y-74256692D01*
X96235647Y-74209753D01*
X96240421Y-74141413D01*
X96360990Y-74141413D01*
X96372652Y-74146465D01*
X96403998Y-74150429D01*
X96449571Y-74152768D01*
X96480446Y-74153169D01*
X96535981Y-74152783D01*
X96571033Y-74150975D01*
X96590262Y-74146773D01*
X96598330Y-74139203D01*
X96599901Y-74128218D01*
X96589121Y-74094381D01*
X96561980Y-74060940D01*
X96526277Y-74035272D01*
X96490560Y-74024772D01*
X96442048Y-74034086D01*
X96400053Y-74061013D01*
X96370936Y-74099827D01*
X96360990Y-74141413D01*
X96240421Y-74141413D01*
X96242599Y-74110236D01*
X96264055Y-74030949D01*
X96300470Y-73971263D01*
X96352297Y-73930549D01*
X96419990Y-73908179D01*
X96456662Y-73903871D01*
X96532581Y-73904970D01*
G36*
X96135255Y-73901486D02*
G01*
X96183595Y-73911015D01*
X96211114Y-73925125D01*
X96240064Y-73948568D01*
X96198876Y-74000571D01*
X96173482Y-74032064D01*
X96156238Y-74047428D01*
X96139102Y-74049776D01*
X96114027Y-74042217D01*
X96102257Y-74037941D01*
X96054270Y-74031631D01*
X96010324Y-74045156D01*
X95978060Y-74075710D01*
X95972819Y-74085452D01*
X95967112Y-74111258D01*
X95962706Y-74158817D01*
X95959811Y-74224758D01*
X95958631Y-74305710D01*
X95958614Y-74317226D01*
X95958614Y-74517822D01*
X95820297Y-74517822D01*
X95820297Y-73901683D01*
X95889456Y-73901683D01*
X95929333Y-73902725D01*
X95950107Y-73907358D01*
X95957789Y-73917849D01*
X95958614Y-73927745D01*
X95958614Y-73953806D01*
X95991745Y-73927745D01*
X96029735Y-73909965D01*
X96080770Y-73901174D01*
X96135255Y-73901486D01*
X96135255Y-73901486D01*
G37*
X96135255Y-73901486D02*
X96183595Y-73911015D01*
X96211114Y-73925125D01*
X96240064Y-73948568D01*
X96198876Y-74000571D01*
X96173482Y-74032064D01*
X96156238Y-74047428D01*
X96139102Y-74049776D01*
X96114027Y-74042217D01*
X96102257Y-74037941D01*
X96054270Y-74031631D01*
X96010324Y-74045156D01*
X95978060Y-74075710D01*
X95972819Y-74085452D01*
X95967112Y-74111258D01*
X95962706Y-74158817D01*
X95959811Y-74224758D01*
X95958631Y-74305710D01*
X95958614Y-74317226D01*
X95958614Y-74517822D01*
X95820297Y-74517822D01*
X95820297Y-73901683D01*
X95889456Y-73901683D01*
X95929333Y-73902725D01*
X95950107Y-73907358D01*
X95957789Y-73917849D01*
X95958614Y-73927745D01*
X95958614Y-73953806D01*
X95991745Y-73927745D01*
X96029735Y-73909965D01*
X96080770Y-73901174D01*
X96135255Y-73901486D01*
G36*
X95538411Y-73905417D02*
G01*
X95591411Y-73918290D01*
X95606731Y-73925110D01*
X95636428Y-73942974D01*
X95659220Y-73963093D01*
X95676083Y-73988962D01*
X95687998Y-74024073D01*
X95695942Y-74071920D01*
X95700894Y-74135996D01*
X95703831Y-74219794D01*
X95704947Y-74275768D01*
X95709052Y-74517822D01*
X95638932Y-74517822D01*
X95596393Y-74516038D01*
X95574476Y-74509942D01*
X95568812Y-74499706D01*
X95565821Y-74488637D01*
X95552451Y-74490754D01*
X95534233Y-74499629D01*
X95488624Y-74513233D01*
X95430007Y-74516899D01*
X95368354Y-74510903D01*
X95313638Y-74495521D01*
X95308730Y-74493386D01*
X95258723Y-74458255D01*
X95225756Y-74409419D01*
X95210587Y-74352333D01*
X95211746Y-74331824D01*
X95335508Y-74331824D01*
X95346413Y-74359425D01*
X95378745Y-74379204D01*
X95430910Y-74389819D01*
X95458787Y-74391228D01*
X95505247Y-74387620D01*
X95536129Y-74373597D01*
X95543664Y-74366931D01*
X95564076Y-74330666D01*
X95568812Y-74297773D01*
X95568812Y-74253763D01*
X95507513Y-74253763D01*
X95436256Y-74257395D01*
X95386276Y-74268818D01*
X95354696Y-74288824D01*
X95347626Y-74297743D01*
X95335508Y-74331824D01*
X95211746Y-74331824D01*
X95213971Y-74292456D01*
X95236663Y-74235244D01*
X95267624Y-74196580D01*
X95286376Y-74179864D01*
X95304733Y-74168878D01*
X95328619Y-74162180D01*
X95363957Y-74158326D01*
X95416669Y-74155873D01*
X95437577Y-74155168D01*
X95568812Y-74150879D01*
X95568620Y-74111158D01*
X95563537Y-74069405D01*
X95545162Y-74044158D01*
X95508039Y-74028030D01*
X95507043Y-74027742D01*
X95454410Y-74021400D01*
X95402906Y-74029684D01*
X95364630Y-74049827D01*
X95349272Y-74059773D01*
X95332730Y-74058397D01*
X95307275Y-74043987D01*
X95292328Y-74033817D01*
X95263091Y-74012088D01*
X95244980Y-73995800D01*
X95242074Y-73991137D01*
X95254040Y-73967005D01*
X95289396Y-73938185D01*
X95304753Y-73928461D01*
X95348901Y-73911714D01*
X95408398Y-73902227D01*
X95474487Y-73900095D01*
X95538411Y-73905417D01*
X95538411Y-73905417D01*
G37*
X95538411Y-73905417D02*
X95591411Y-73918290D01*
X95606731Y-73925110D01*
X95636428Y-73942974D01*
X95659220Y-73963093D01*
X95676083Y-73988962D01*
X95687998Y-74024073D01*
X95695942Y-74071920D01*
X95700894Y-74135996D01*
X95703831Y-74219794D01*
X95704947Y-74275768D01*
X95709052Y-74517822D01*
X95638932Y-74517822D01*
X95596393Y-74516038D01*
X95574476Y-74509942D01*
X95568812Y-74499706D01*
X95565821Y-74488637D01*
X95552451Y-74490754D01*
X95534233Y-74499629D01*
X95488624Y-74513233D01*
X95430007Y-74516899D01*
X95368354Y-74510903D01*
X95313638Y-74495521D01*
X95308730Y-74493386D01*
X95258723Y-74458255D01*
X95225756Y-74409419D01*
X95210587Y-74352333D01*
X95211746Y-74331824D01*
X95335508Y-74331824D01*
X95346413Y-74359425D01*
X95378745Y-74379204D01*
X95430910Y-74389819D01*
X95458787Y-74391228D01*
X95505247Y-74387620D01*
X95536129Y-74373597D01*
X95543664Y-74366931D01*
X95564076Y-74330666D01*
X95568812Y-74297773D01*
X95568812Y-74253763D01*
X95507513Y-74253763D01*
X95436256Y-74257395D01*
X95386276Y-74268818D01*
X95354696Y-74288824D01*
X95347626Y-74297743D01*
X95335508Y-74331824D01*
X95211746Y-74331824D01*
X95213971Y-74292456D01*
X95236663Y-74235244D01*
X95267624Y-74196580D01*
X95286376Y-74179864D01*
X95304733Y-74168878D01*
X95328619Y-74162180D01*
X95363957Y-74158326D01*
X95416669Y-74155873D01*
X95437577Y-74155168D01*
X95568812Y-74150879D01*
X95568620Y-74111158D01*
X95563537Y-74069405D01*
X95545162Y-74044158D01*
X95508039Y-74028030D01*
X95507043Y-74027742D01*
X95454410Y-74021400D01*
X95402906Y-74029684D01*
X95364630Y-74049827D01*
X95349272Y-74059773D01*
X95332730Y-74058397D01*
X95307275Y-74043987D01*
X95292328Y-74033817D01*
X95263091Y-74012088D01*
X95244980Y-73995800D01*
X95242074Y-73991137D01*
X95254040Y-73967005D01*
X95289396Y-73938185D01*
X95304753Y-73928461D01*
X95348901Y-73911714D01*
X95408398Y-73902227D01*
X95474487Y-73900095D01*
X95538411Y-73905417D01*
G36*
X94781524Y-73904237D02*
G01*
X94831255Y-73907971D01*
X94961291Y-74297773D01*
X94981678Y-74228614D01*
X94993946Y-74185874D01*
X95010085Y-74128115D01*
X95027512Y-74064625D01*
X95036726Y-74030570D01*
X95071388Y-73901683D01*
X95214391Y-73901683D01*
X95171646Y-74036857D01*
X95150596Y-74103342D01*
X95125167Y-74183539D01*
X95098610Y-74267193D01*
X95074902Y-74341782D01*
X95020902Y-74511535D01*
X94962598Y-74515328D01*
X94904295Y-74519122D01*
X94872679Y-74414734D01*
X94853182Y-74349889D01*
X94831904Y-74278400D01*
X94813308Y-74215263D01*
X94812574Y-74212750D01*
X94798684Y-74169969D01*
X94786429Y-74140779D01*
X94777846Y-74129741D01*
X94776082Y-74131018D01*
X94769891Y-74148130D01*
X94758128Y-74184787D01*
X94742225Y-74236378D01*
X94723614Y-74298294D01*
X94713543Y-74332352D01*
X94659007Y-74517822D01*
X94543264Y-74517822D01*
X94450737Y-74225471D01*
X94424744Y-74143462D01*
X94401066Y-74068987D01*
X94380820Y-74005544D01*
X94365126Y-73956632D01*
X94355102Y-73925749D01*
X94352055Y-73916726D01*
X94354467Y-73907487D01*
X94373408Y-73903441D01*
X94412823Y-73903846D01*
X94418993Y-73904152D01*
X94492086Y-73907971D01*
X94539957Y-74084010D01*
X94557553Y-74148211D01*
X94573277Y-74204649D01*
X94585746Y-74248422D01*
X94593574Y-74274630D01*
X94595020Y-74278903D01*
X94601014Y-74273990D01*
X94613101Y-74248532D01*
X94629893Y-74205997D01*
X94650003Y-74149850D01*
X94667003Y-74099130D01*
X94731794Y-73900504D01*
X94781524Y-73904237D01*
X94781524Y-73904237D01*
G37*
X94781524Y-73904237D02*
X94831255Y-73907971D01*
X94961291Y-74297773D01*
X94981678Y-74228614D01*
X94993946Y-74185874D01*
X95010085Y-74128115D01*
X95027512Y-74064625D01*
X95036726Y-74030570D01*
X95071388Y-73901683D01*
X95214391Y-73901683D01*
X95171646Y-74036857D01*
X95150596Y-74103342D01*
X95125167Y-74183539D01*
X95098610Y-74267193D01*
X95074902Y-74341782D01*
X95020902Y-74511535D01*
X94962598Y-74515328D01*
X94904295Y-74519122D01*
X94872679Y-74414734D01*
X94853182Y-74349889D01*
X94831904Y-74278400D01*
X94813308Y-74215263D01*
X94812574Y-74212750D01*
X94798684Y-74169969D01*
X94786429Y-74140779D01*
X94777846Y-74129741D01*
X94776082Y-74131018D01*
X94769891Y-74148130D01*
X94758128Y-74184787D01*
X94742225Y-74236378D01*
X94723614Y-74298294D01*
X94713543Y-74332352D01*
X94659007Y-74517822D01*
X94543264Y-74517822D01*
X94450737Y-74225471D01*
X94424744Y-74143462D01*
X94401066Y-74068987D01*
X94380820Y-74005544D01*
X94365126Y-73956632D01*
X94355102Y-73925749D01*
X94352055Y-73916726D01*
X94354467Y-73907487D01*
X94373408Y-73903441D01*
X94412823Y-73903846D01*
X94418993Y-73904152D01*
X94492086Y-73907971D01*
X94539957Y-74084010D01*
X94557553Y-74148211D01*
X94573277Y-74204649D01*
X94585746Y-74248422D01*
X94593574Y-74274630D01*
X94595020Y-74278903D01*
X94601014Y-74273990D01*
X94613101Y-74248532D01*
X94629893Y-74205997D01*
X94650003Y-74149850D01*
X94667003Y-74099130D01*
X94731794Y-73900504D01*
X94781524Y-73904237D01*
G36*
X94298812Y-74517822D02*
G01*
X94229654Y-74517822D01*
X94189512Y-74516645D01*
X94168606Y-74511772D01*
X94161078Y-74501186D01*
X94160495Y-74494029D01*
X94159226Y-74479676D01*
X94151221Y-74476923D01*
X94130185Y-74485771D01*
X94113827Y-74494029D01*
X94051023Y-74513597D01*
X93982752Y-74514729D01*
X93927248Y-74500135D01*
X93875562Y-74464877D01*
X93836162Y-74412835D01*
X93814587Y-74351450D01*
X93814038Y-74348018D01*
X93810833Y-74310571D01*
X93809239Y-74256813D01*
X93809367Y-74216155D01*
X93946721Y-74216155D01*
X93949903Y-74270194D01*
X93957141Y-74314735D01*
X93966940Y-74339888D01*
X94004011Y-74374260D01*
X94048026Y-74386582D01*
X94093416Y-74376618D01*
X94132203Y-74346895D01*
X94146892Y-74326905D01*
X94155481Y-74303050D01*
X94159504Y-74268230D01*
X94160495Y-74215930D01*
X94158722Y-74164139D01*
X94154037Y-74118634D01*
X94147397Y-74088181D01*
X94146290Y-74085452D01*
X94119509Y-74053000D01*
X94080421Y-74035183D01*
X94036685Y-74032306D01*
X93995962Y-74044674D01*
X93965913Y-74072593D01*
X93962796Y-74078148D01*
X93953039Y-74112022D01*
X93947723Y-74160728D01*
X93946721Y-74216155D01*
X93809367Y-74216155D01*
X93809432Y-74195540D01*
X93810336Y-74162563D01*
X93816486Y-74080981D01*
X93829267Y-74019730D01*
X93850529Y-73974449D01*
X93882122Y-73940779D01*
X93912793Y-73921014D01*
X93955646Y-73907120D01*
X94008944Y-73902354D01*
X94063520Y-73906236D01*
X94110208Y-73918282D01*
X94134876Y-73932693D01*
X94160495Y-73955878D01*
X94160495Y-73662773D01*
X94298812Y-73662773D01*
X94298812Y-74517822D01*
X94298812Y-74517822D01*
G37*
X94298812Y-74517822D02*
X94229654Y-74517822D01*
X94189512Y-74516645D01*
X94168606Y-74511772D01*
X94161078Y-74501186D01*
X94160495Y-74494029D01*
X94159226Y-74479676D01*
X94151221Y-74476923D01*
X94130185Y-74485771D01*
X94113827Y-74494029D01*
X94051023Y-74513597D01*
X93982752Y-74514729D01*
X93927248Y-74500135D01*
X93875562Y-74464877D01*
X93836162Y-74412835D01*
X93814587Y-74351450D01*
X93814038Y-74348018D01*
X93810833Y-74310571D01*
X93809239Y-74256813D01*
X93809367Y-74216155D01*
X93946721Y-74216155D01*
X93949903Y-74270194D01*
X93957141Y-74314735D01*
X93966940Y-74339888D01*
X94004011Y-74374260D01*
X94048026Y-74386582D01*
X94093416Y-74376618D01*
X94132203Y-74346895D01*
X94146892Y-74326905D01*
X94155481Y-74303050D01*
X94159504Y-74268230D01*
X94160495Y-74215930D01*
X94158722Y-74164139D01*
X94154037Y-74118634D01*
X94147397Y-74088181D01*
X94146290Y-74085452D01*
X94119509Y-74053000D01*
X94080421Y-74035183D01*
X94036685Y-74032306D01*
X93995962Y-74044674D01*
X93965913Y-74072593D01*
X93962796Y-74078148D01*
X93953039Y-74112022D01*
X93947723Y-74160728D01*
X93946721Y-74216155D01*
X93809367Y-74216155D01*
X93809432Y-74195540D01*
X93810336Y-74162563D01*
X93816486Y-74080981D01*
X93829267Y-74019730D01*
X93850529Y-73974449D01*
X93882122Y-73940779D01*
X93912793Y-73921014D01*
X93955646Y-73907120D01*
X94008944Y-73902354D01*
X94063520Y-73906236D01*
X94110208Y-73918282D01*
X94134876Y-73932693D01*
X94160495Y-73955878D01*
X94160495Y-73662773D01*
X94298812Y-73662773D01*
X94298812Y-74517822D01*
G36*
X93506644Y-73903020D02*
G01*
X93525461Y-73908660D01*
X93531527Y-73921053D01*
X93531782Y-73926647D01*
X93532871Y-73942230D01*
X93540368Y-73944676D01*
X93560619Y-73933993D01*
X93572649Y-73926694D01*
X93610600Y-73911063D01*
X93655928Y-73903334D01*
X93703456Y-73902740D01*
X93748005Y-73908513D01*
X93784398Y-73919884D01*
X93807457Y-73936088D01*
X93812004Y-73956355D01*
X93809709Y-73961843D01*
X93792980Y-73984626D01*
X93767037Y-74012647D01*
X93762345Y-74017177D01*
X93737617Y-74038005D01*
X93716282Y-74044735D01*
X93686445Y-74040038D01*
X93674492Y-74036917D01*
X93637295Y-74029421D01*
X93611141Y-74032792D01*
X93589054Y-74044681D01*
X93568822Y-74060635D01*
X93553921Y-74080700D01*
X93543566Y-74108702D01*
X93536971Y-74148467D01*
X93533351Y-74203823D01*
X93531922Y-74278594D01*
X93531782Y-74323740D01*
X93531782Y-74517822D01*
X93406040Y-74517822D01*
X93406040Y-73901683D01*
X93468911Y-73901683D01*
X93506644Y-73903020D01*
X93506644Y-73903020D01*
G37*
X93506644Y-73903020D02*
X93525461Y-73908660D01*
X93531527Y-73921053D01*
X93531782Y-73926647D01*
X93532871Y-73942230D01*
X93540368Y-73944676D01*
X93560619Y-73933993D01*
X93572649Y-73926694D01*
X93610600Y-73911063D01*
X93655928Y-73903334D01*
X93703456Y-73902740D01*
X93748005Y-73908513D01*
X93784398Y-73919884D01*
X93807457Y-73936088D01*
X93812004Y-73956355D01*
X93809709Y-73961843D01*
X93792980Y-73984626D01*
X93767037Y-74012647D01*
X93762345Y-74017177D01*
X93737617Y-74038005D01*
X93716282Y-74044735D01*
X93686445Y-74040038D01*
X93674492Y-74036917D01*
X93637295Y-74029421D01*
X93611141Y-74032792D01*
X93589054Y-74044681D01*
X93568822Y-74060635D01*
X93553921Y-74080700D01*
X93543566Y-74108702D01*
X93536971Y-74148467D01*
X93533351Y-74203823D01*
X93531922Y-74278594D01*
X93531782Y-74323740D01*
X93531782Y-74517822D01*
X93406040Y-74517822D01*
X93406040Y-73901683D01*
X93468911Y-73901683D01*
X93506644Y-73903020D01*
G36*
X93115790Y-73906555D02*
G01*
X93174945Y-73922339D01*
X93219977Y-73950948D01*
X93251754Y-73988419D01*
X93261634Y-74004411D01*
X93268927Y-74021163D01*
X93274026Y-74042592D01*
X93277321Y-74072616D01*
X93279203Y-74115154D01*
X93280063Y-74174122D01*
X93280293Y-74253440D01*
X93280297Y-74274484D01*
X93280297Y-74517822D01*
X93219941Y-74517822D01*
X93181443Y-74515126D01*
X93152977Y-74508295D01*
X93145845Y-74504083D01*
X93126348Y-74496813D01*
X93106434Y-74504083D01*
X93073647Y-74513160D01*
X93026022Y-74516813D01*
X92973236Y-74515228D01*
X92924964Y-74508589D01*
X92896782Y-74500072D01*
X92842247Y-74465063D01*
X92808165Y-74416479D01*
X92792843Y-74351882D01*
X92792701Y-74350223D01*
X92794045Y-74321566D01*
X92915644Y-74321566D01*
X92926274Y-74354161D01*
X92943590Y-74372505D01*
X92978348Y-74386379D01*
X93024227Y-74391917D01*
X93071012Y-74389191D01*
X93108486Y-74378274D01*
X93118985Y-74371269D01*
X93137332Y-74338904D01*
X93141980Y-74302111D01*
X93141980Y-74253763D01*
X93072418Y-74253763D01*
X93006333Y-74258850D01*
X92956236Y-74273263D01*
X92925071Y-74295729D01*
X92915644Y-74321566D01*
X92794045Y-74321566D01*
X92796013Y-74279647D01*
X92819290Y-74223845D01*
X92863052Y-74181647D01*
X92869101Y-74177808D01*
X92895093Y-74165309D01*
X92927265Y-74157740D01*
X92972240Y-74154061D01*
X93025669Y-74153216D01*
X93141980Y-74153169D01*
X93141980Y-74104411D01*
X93137047Y-74066581D01*
X93124457Y-74041236D01*
X93122983Y-74039887D01*
X93094966Y-74028800D01*
X93052674Y-74024503D01*
X93005936Y-74026615D01*
X92964582Y-74034756D01*
X92940043Y-74046965D01*
X92926747Y-74056746D01*
X92912706Y-74058613D01*
X92893329Y-74050600D01*
X92864024Y-74030739D01*
X92820197Y-73997063D01*
X92816175Y-73993909D01*
X92818236Y-73982236D01*
X92835432Y-73962822D01*
X92861567Y-73941248D01*
X92890448Y-73923096D01*
X92899522Y-73918809D01*
X92932620Y-73910256D01*
X92981120Y-73904155D01*
X93035305Y-73901708D01*
X93037839Y-73901703D01*
X93115790Y-73906555D01*
X93115790Y-73906555D01*
G37*
X93115790Y-73906555D02*
X93174945Y-73922339D01*
X93219977Y-73950948D01*
X93251754Y-73988419D01*
X93261634Y-74004411D01*
X93268927Y-74021163D01*
X93274026Y-74042592D01*
X93277321Y-74072616D01*
X93279203Y-74115154D01*
X93280063Y-74174122D01*
X93280293Y-74253440D01*
X93280297Y-74274484D01*
X93280297Y-74517822D01*
X93219941Y-74517822D01*
X93181443Y-74515126D01*
X93152977Y-74508295D01*
X93145845Y-74504083D01*
X93126348Y-74496813D01*
X93106434Y-74504083D01*
X93073647Y-74513160D01*
X93026022Y-74516813D01*
X92973236Y-74515228D01*
X92924964Y-74508589D01*
X92896782Y-74500072D01*
X92842247Y-74465063D01*
X92808165Y-74416479D01*
X92792843Y-74351882D01*
X92792701Y-74350223D01*
X92794045Y-74321566D01*
X92915644Y-74321566D01*
X92926274Y-74354161D01*
X92943590Y-74372505D01*
X92978348Y-74386379D01*
X93024227Y-74391917D01*
X93071012Y-74389191D01*
X93108486Y-74378274D01*
X93118985Y-74371269D01*
X93137332Y-74338904D01*
X93141980Y-74302111D01*
X93141980Y-74253763D01*
X93072418Y-74253763D01*
X93006333Y-74258850D01*
X92956236Y-74273263D01*
X92925071Y-74295729D01*
X92915644Y-74321566D01*
X92794045Y-74321566D01*
X92796013Y-74279647D01*
X92819290Y-74223845D01*
X92863052Y-74181647D01*
X92869101Y-74177808D01*
X92895093Y-74165309D01*
X92927265Y-74157740D01*
X92972240Y-74154061D01*
X93025669Y-74153216D01*
X93141980Y-74153169D01*
X93141980Y-74104411D01*
X93137047Y-74066581D01*
X93124457Y-74041236D01*
X93122983Y-74039887D01*
X93094966Y-74028800D01*
X93052674Y-74024503D01*
X93005936Y-74026615D01*
X92964582Y-74034756D01*
X92940043Y-74046965D01*
X92926747Y-74056746D01*
X92912706Y-74058613D01*
X92893329Y-74050600D01*
X92864024Y-74030739D01*
X92820197Y-73997063D01*
X92816175Y-73993909D01*
X92818236Y-73982236D01*
X92835432Y-73962822D01*
X92861567Y-73941248D01*
X92890448Y-73923096D01*
X92899522Y-73918809D01*
X92932620Y-73910256D01*
X92981120Y-73904155D01*
X93035305Y-73901708D01*
X93037839Y-73901703D01*
X93115790Y-73906555D01*
G36*
X92591241Y-72969184D02*
G01*
X92617753Y-72982282D01*
X92650447Y-73005106D01*
X92674275Y-73029996D01*
X92690594Y-73061249D01*
X92700760Y-73103166D01*
X92706128Y-73160044D01*
X92708056Y-73236184D01*
X92708169Y-73268917D01*
X92707839Y-73340656D01*
X92706473Y-73391927D01*
X92703500Y-73427404D01*
X92698351Y-73451763D01*
X92690457Y-73469680D01*
X92682243Y-73481902D01*
X92629813Y-73533905D01*
X92568070Y-73565184D01*
X92501464Y-73574592D01*
X92434442Y-73560980D01*
X92413208Y-73551354D01*
X92362376Y-73524859D01*
X92362376Y-73940052D01*
X92399475Y-73920868D01*
X92448357Y-73906025D01*
X92508439Y-73902222D01*
X92568436Y-73909243D01*
X92613744Y-73925013D01*
X92651325Y-73955047D01*
X92683436Y-73998024D01*
X92685850Y-74002436D01*
X92696033Y-74023221D01*
X92703470Y-74044170D01*
X92708589Y-74069548D01*
X92711819Y-74103618D01*
X92713587Y-74150641D01*
X92714323Y-74214882D01*
X92714456Y-74287176D01*
X92714456Y-74517822D01*
X92576139Y-74517822D01*
X92576139Y-74092533D01*
X92537451Y-74059979D01*
X92497262Y-74033940D01*
X92459203Y-74029205D01*
X92420934Y-74041389D01*
X92400538Y-74053320D01*
X92385358Y-74070313D01*
X92374562Y-74095995D01*
X92367317Y-74133991D01*
X92362792Y-74187926D01*
X92360156Y-74261425D01*
X92359228Y-74310347D01*
X92356089Y-74511535D01*
X92290074Y-74515336D01*
X92224060Y-74519136D01*
X92224060Y-73270650D01*
X92362376Y-73270650D01*
X92365903Y-73340254D01*
X92377785Y-73388569D01*
X92399980Y-73418631D01*
X92434441Y-73433471D01*
X92469258Y-73436436D01*
X92508671Y-73433028D01*
X92534829Y-73419617D01*
X92551186Y-73401896D01*
X92564063Y-73382835D01*
X92571728Y-73361601D01*
X92575139Y-73331849D01*
X92575251Y-73287236D01*
X92574103Y-73249880D01*
X92571468Y-73193604D01*
X92567544Y-73156658D01*
X92560937Y-73133223D01*
X92550251Y-73117480D01*
X92540167Y-73108380D01*
X92498030Y-73088537D01*
X92448160Y-73085332D01*
X92419524Y-73092168D01*
X92391172Y-73116464D01*
X92372391Y-73163728D01*
X92363288Y-73233624D01*
X92362376Y-73270650D01*
X92224060Y-73270650D01*
X92224060Y-72958614D01*
X92293218Y-72958614D01*
X92334740Y-72960256D01*
X92356162Y-72966087D01*
X92362374Y-72977461D01*
X92362376Y-72977798D01*
X92365258Y-72988938D01*
X92377970Y-72987673D01*
X92403243Y-72975433D01*
X92462131Y-72956707D01*
X92528385Y-72954739D01*
X92591241Y-72969184D01*
X92591241Y-72969184D01*
G37*
X92591241Y-72969184D02*
X92617753Y-72982282D01*
X92650447Y-73005106D01*
X92674275Y-73029996D01*
X92690594Y-73061249D01*
X92700760Y-73103166D01*
X92706128Y-73160044D01*
X92708056Y-73236184D01*
X92708169Y-73268917D01*
X92707839Y-73340656D01*
X92706473Y-73391927D01*
X92703500Y-73427404D01*
X92698351Y-73451763D01*
X92690457Y-73469680D01*
X92682243Y-73481902D01*
X92629813Y-73533905D01*
X92568070Y-73565184D01*
X92501464Y-73574592D01*
X92434442Y-73560980D01*
X92413208Y-73551354D01*
X92362376Y-73524859D01*
X92362376Y-73940052D01*
X92399475Y-73920868D01*
X92448357Y-73906025D01*
X92508439Y-73902222D01*
X92568436Y-73909243D01*
X92613744Y-73925013D01*
X92651325Y-73955047D01*
X92683436Y-73998024D01*
X92685850Y-74002436D01*
X92696033Y-74023221D01*
X92703470Y-74044170D01*
X92708589Y-74069548D01*
X92711819Y-74103618D01*
X92713587Y-74150641D01*
X92714323Y-74214882D01*
X92714456Y-74287176D01*
X92714456Y-74517822D01*
X92576139Y-74517822D01*
X92576139Y-74092533D01*
X92537451Y-74059979D01*
X92497262Y-74033940D01*
X92459203Y-74029205D01*
X92420934Y-74041389D01*
X92400538Y-74053320D01*
X92385358Y-74070313D01*
X92374562Y-74095995D01*
X92367317Y-74133991D01*
X92362792Y-74187926D01*
X92360156Y-74261425D01*
X92359228Y-74310347D01*
X92356089Y-74511535D01*
X92290074Y-74515336D01*
X92224060Y-74519136D01*
X92224060Y-73270650D01*
X92362376Y-73270650D01*
X92365903Y-73340254D01*
X92377785Y-73388569D01*
X92399980Y-73418631D01*
X92434441Y-73433471D01*
X92469258Y-73436436D01*
X92508671Y-73433028D01*
X92534829Y-73419617D01*
X92551186Y-73401896D01*
X92564063Y-73382835D01*
X92571728Y-73361601D01*
X92575139Y-73331849D01*
X92575251Y-73287236D01*
X92574103Y-73249880D01*
X92571468Y-73193604D01*
X92567544Y-73156658D01*
X92560937Y-73133223D01*
X92550251Y-73117480D01*
X92540167Y-73108380D01*
X92498030Y-73088537D01*
X92448160Y-73085332D01*
X92419524Y-73092168D01*
X92391172Y-73116464D01*
X92372391Y-73163728D01*
X92363288Y-73233624D01*
X92362376Y-73270650D01*
X92224060Y-73270650D01*
X92224060Y-72958614D01*
X92293218Y-72958614D01*
X92334740Y-72960256D01*
X92356162Y-72966087D01*
X92362374Y-72977461D01*
X92362376Y-72977798D01*
X92365258Y-72988938D01*
X92377970Y-72987673D01*
X92403243Y-72975433D01*
X92462131Y-72956707D01*
X92528385Y-72954739D01*
X92591241Y-72969184D01*
D11*
X79750000Y-62200000D03*
X80980000Y-62200000D03*
X82000000Y-62200000D03*
X83000000Y-62200000D03*
X84020000Y-62200000D03*
X85250000Y-62200000D03*
D12*
G36*
X86869010Y-61402408D02*
G01*
X86917546Y-61409607D01*
X86965143Y-61421530D01*
X87011343Y-61438060D01*
X87055699Y-61459039D01*
X87097786Y-61484265D01*
X87137198Y-61513495D01*
X87173554Y-61546447D01*
X87206506Y-61582803D01*
X87235736Y-61622215D01*
X87260962Y-61664302D01*
X87281941Y-61708658D01*
X87298471Y-61754858D01*
X87310394Y-61802455D01*
X87317593Y-61850991D01*
X87320001Y-61900000D01*
X87320001Y-62500000D01*
X87317593Y-62549009D01*
X87310394Y-62597545D01*
X87298471Y-62645142D01*
X87281941Y-62691342D01*
X87260962Y-62735698D01*
X87235736Y-62777785D01*
X87206506Y-62817197D01*
X87173554Y-62853553D01*
X87137198Y-62886505D01*
X87097786Y-62915735D01*
X87055699Y-62940961D01*
X87011343Y-62961940D01*
X86965143Y-62978470D01*
X86917546Y-62990393D01*
X86869010Y-62997592D01*
X86820001Y-63000000D01*
X86819999Y-63000000D01*
X86770990Y-62997592D01*
X86722454Y-62990393D01*
X86674857Y-62978470D01*
X86628657Y-62961940D01*
X86584301Y-62940961D01*
X86542214Y-62915735D01*
X86502802Y-62886505D01*
X86466446Y-62853553D01*
X86433494Y-62817197D01*
X86404264Y-62777785D01*
X86379038Y-62735698D01*
X86358059Y-62691342D01*
X86341529Y-62645142D01*
X86329606Y-62597545D01*
X86322407Y-62549009D01*
X86319999Y-62500000D01*
X86319999Y-61900000D01*
X86322407Y-61850991D01*
X86329606Y-61802455D01*
X86341529Y-61754858D01*
X86358059Y-61708658D01*
X86379038Y-61664302D01*
X86404264Y-61622215D01*
X86433494Y-61582803D01*
X86466446Y-61546447D01*
X86502802Y-61513495D01*
X86542214Y-61484265D01*
X86584301Y-61459039D01*
X86628657Y-61438060D01*
X86674857Y-61421530D01*
X86722454Y-61409607D01*
X86770990Y-61402408D01*
X86819999Y-61400000D01*
X86820001Y-61400000D01*
X86869010Y-61402408D01*
X86869010Y-61402408D01*
G37*
D13*
X86820000Y-62200000D03*
D12*
G36*
X78229010Y-61402408D02*
G01*
X78277546Y-61409607D01*
X78325143Y-61421530D01*
X78371343Y-61438060D01*
X78415699Y-61459039D01*
X78457786Y-61484265D01*
X78497198Y-61513495D01*
X78533554Y-61546447D01*
X78566506Y-61582803D01*
X78595736Y-61622215D01*
X78620962Y-61664302D01*
X78641941Y-61708658D01*
X78658471Y-61754858D01*
X78670394Y-61802455D01*
X78677593Y-61850991D01*
X78680001Y-61900000D01*
X78680001Y-62500000D01*
X78677593Y-62549009D01*
X78670394Y-62597545D01*
X78658471Y-62645142D01*
X78641941Y-62691342D01*
X78620962Y-62735698D01*
X78595736Y-62777785D01*
X78566506Y-62817197D01*
X78533554Y-62853553D01*
X78497198Y-62886505D01*
X78457786Y-62915735D01*
X78415699Y-62940961D01*
X78371343Y-62961940D01*
X78325143Y-62978470D01*
X78277546Y-62990393D01*
X78229010Y-62997592D01*
X78180001Y-63000000D01*
X78179999Y-63000000D01*
X78130990Y-62997592D01*
X78082454Y-62990393D01*
X78034857Y-62978470D01*
X77988657Y-62961940D01*
X77944301Y-62940961D01*
X77902214Y-62915735D01*
X77862802Y-62886505D01*
X77826446Y-62853553D01*
X77793494Y-62817197D01*
X77764264Y-62777785D01*
X77739038Y-62735698D01*
X77718059Y-62691342D01*
X77701529Y-62645142D01*
X77689606Y-62597545D01*
X77682407Y-62549009D01*
X77679999Y-62500000D01*
X77679999Y-61900000D01*
X77682407Y-61850991D01*
X77689606Y-61802455D01*
X77701529Y-61754858D01*
X77718059Y-61708658D01*
X77739038Y-61664302D01*
X77764264Y-61622215D01*
X77793494Y-61582803D01*
X77826446Y-61546447D01*
X77862802Y-61513495D01*
X77902214Y-61484265D01*
X77944301Y-61459039D01*
X77988657Y-61438060D01*
X78034857Y-61421530D01*
X78082454Y-61409607D01*
X78130990Y-61402408D01*
X78179999Y-61400000D01*
X78180001Y-61400000D01*
X78229010Y-61402408D01*
X78229010Y-61402408D01*
G37*
D13*
X78180000Y-62200000D03*
D12*
G36*
X78229010Y-57602408D02*
G01*
X78277546Y-57609607D01*
X78325143Y-57621530D01*
X78371343Y-57638060D01*
X78415699Y-57659039D01*
X78457786Y-57684265D01*
X78497198Y-57713495D01*
X78533554Y-57746447D01*
X78566506Y-57782803D01*
X78595736Y-57822215D01*
X78620962Y-57864302D01*
X78641941Y-57908658D01*
X78658471Y-57954858D01*
X78670394Y-58002455D01*
X78677593Y-58050991D01*
X78680001Y-58100000D01*
X78680001Y-58700000D01*
X78677593Y-58749009D01*
X78670394Y-58797545D01*
X78658471Y-58845142D01*
X78641941Y-58891342D01*
X78620962Y-58935698D01*
X78595736Y-58977785D01*
X78566506Y-59017197D01*
X78533554Y-59053553D01*
X78497198Y-59086505D01*
X78457786Y-59115735D01*
X78415699Y-59140961D01*
X78371343Y-59161940D01*
X78325143Y-59178470D01*
X78277546Y-59190393D01*
X78229010Y-59197592D01*
X78180001Y-59200000D01*
X78179999Y-59200000D01*
X78130990Y-59197592D01*
X78082454Y-59190393D01*
X78034857Y-59178470D01*
X77988657Y-59161940D01*
X77944301Y-59140961D01*
X77902214Y-59115735D01*
X77862802Y-59086505D01*
X77826446Y-59053553D01*
X77793494Y-59017197D01*
X77764264Y-58977785D01*
X77739038Y-58935698D01*
X77718059Y-58891342D01*
X77701529Y-58845142D01*
X77689606Y-58797545D01*
X77682407Y-58749009D01*
X77679999Y-58700000D01*
X77679999Y-58100000D01*
X77682407Y-58050991D01*
X77689606Y-58002455D01*
X77701529Y-57954858D01*
X77718059Y-57908658D01*
X77739038Y-57864302D01*
X77764264Y-57822215D01*
X77793494Y-57782803D01*
X77826446Y-57746447D01*
X77862802Y-57713495D01*
X77902214Y-57684265D01*
X77944301Y-57659039D01*
X77988657Y-57638060D01*
X78034857Y-57621530D01*
X78082454Y-57609607D01*
X78130990Y-57602408D01*
X78179999Y-57600000D01*
X78180001Y-57600000D01*
X78229010Y-57602408D01*
X78229010Y-57602408D01*
G37*
D13*
X78180000Y-58400000D03*
D12*
G36*
X86869010Y-57602408D02*
G01*
X86917546Y-57609607D01*
X86965143Y-57621530D01*
X87011343Y-57638060D01*
X87055699Y-57659039D01*
X87097786Y-57684265D01*
X87137198Y-57713495D01*
X87173554Y-57746447D01*
X87206506Y-57782803D01*
X87235736Y-57822215D01*
X87260962Y-57864302D01*
X87281941Y-57908658D01*
X87298471Y-57954858D01*
X87310394Y-58002455D01*
X87317593Y-58050991D01*
X87320001Y-58100000D01*
X87320001Y-58700000D01*
X87317593Y-58749009D01*
X87310394Y-58797545D01*
X87298471Y-58845142D01*
X87281941Y-58891342D01*
X87260962Y-58935698D01*
X87235736Y-58977785D01*
X87206506Y-59017197D01*
X87173554Y-59053553D01*
X87137198Y-59086505D01*
X87097786Y-59115735D01*
X87055699Y-59140961D01*
X87011343Y-59161940D01*
X86965143Y-59178470D01*
X86917546Y-59190393D01*
X86869010Y-59197592D01*
X86820001Y-59200000D01*
X86819999Y-59200000D01*
X86770990Y-59197592D01*
X86722454Y-59190393D01*
X86674857Y-59178470D01*
X86628657Y-59161940D01*
X86584301Y-59140961D01*
X86542214Y-59115735D01*
X86502802Y-59086505D01*
X86466446Y-59053553D01*
X86433494Y-59017197D01*
X86404264Y-58977785D01*
X86379038Y-58935698D01*
X86358059Y-58891342D01*
X86341529Y-58845142D01*
X86329606Y-58797545D01*
X86322407Y-58749009D01*
X86319999Y-58700000D01*
X86319999Y-58100000D01*
X86322407Y-58050991D01*
X86329606Y-58002455D01*
X86341529Y-57954858D01*
X86358059Y-57908658D01*
X86379038Y-57864302D01*
X86404264Y-57822215D01*
X86433494Y-57782803D01*
X86466446Y-57746447D01*
X86502802Y-57713495D01*
X86542214Y-57684265D01*
X86584301Y-57659039D01*
X86628657Y-57638060D01*
X86674857Y-57621530D01*
X86722454Y-57609607D01*
X86770990Y-57602408D01*
X86819999Y-57600000D01*
X86820001Y-57600000D01*
X86869010Y-57602408D01*
X86869010Y-57602408D01*
G37*
D13*
X86820000Y-58400000D03*
D14*
X95000000Y-61000000D03*
D15*
X71697056Y-59302944D03*
X70000000Y-58600000D03*
X68302944Y-59302944D03*
X67600000Y-61000000D03*
X68302944Y-62697056D03*
X70000000Y-63400000D03*
X71697056Y-62697056D03*
X72400000Y-61000000D03*
D14*
X70000000Y-61000000D03*
D12*
G36*
X78824505Y-65101204D02*
G01*
X78848773Y-65104804D01*
X78872572Y-65110765D01*
X78895671Y-65119030D01*
X78917850Y-65129520D01*
X78938893Y-65142132D01*
X78958599Y-65156747D01*
X78976777Y-65173223D01*
X78993253Y-65191401D01*
X79007868Y-65211107D01*
X79020480Y-65232150D01*
X79030970Y-65254329D01*
X79039235Y-65277428D01*
X79045196Y-65301227D01*
X79048796Y-65325495D01*
X79050000Y-65349999D01*
X79050000Y-66250001D01*
X79048796Y-66274505D01*
X79045196Y-66298773D01*
X79039235Y-66322572D01*
X79030970Y-66345671D01*
X79020480Y-66367850D01*
X79007868Y-66388893D01*
X78993253Y-66408599D01*
X78976777Y-66426777D01*
X78958599Y-66443253D01*
X78938893Y-66457868D01*
X78917850Y-66470480D01*
X78895671Y-66480970D01*
X78872572Y-66489235D01*
X78848773Y-66495196D01*
X78824505Y-66498796D01*
X78800001Y-66500000D01*
X78149999Y-66500000D01*
X78125495Y-66498796D01*
X78101227Y-66495196D01*
X78077428Y-66489235D01*
X78054329Y-66480970D01*
X78032150Y-66470480D01*
X78011107Y-66457868D01*
X77991401Y-66443253D01*
X77973223Y-66426777D01*
X77956747Y-66408599D01*
X77942132Y-66388893D01*
X77929520Y-66367850D01*
X77919030Y-66345671D01*
X77910765Y-66322572D01*
X77904804Y-66298773D01*
X77901204Y-66274505D01*
X77900000Y-66250001D01*
X77900000Y-65349999D01*
X77901204Y-65325495D01*
X77904804Y-65301227D01*
X77910765Y-65277428D01*
X77919030Y-65254329D01*
X77929520Y-65232150D01*
X77942132Y-65211107D01*
X77956747Y-65191401D01*
X77973223Y-65173223D01*
X77991401Y-65156747D01*
X78011107Y-65142132D01*
X78032150Y-65129520D01*
X78054329Y-65119030D01*
X78077428Y-65110765D01*
X78101227Y-65104804D01*
X78125495Y-65101204D01*
X78149999Y-65100000D01*
X78800001Y-65100000D01*
X78824505Y-65101204D01*
X78824505Y-65101204D01*
G37*
D16*
X78475000Y-65800000D03*
D12*
G36*
X80874505Y-65101204D02*
G01*
X80898773Y-65104804D01*
X80922572Y-65110765D01*
X80945671Y-65119030D01*
X80967850Y-65129520D01*
X80988893Y-65142132D01*
X81008599Y-65156747D01*
X81026777Y-65173223D01*
X81043253Y-65191401D01*
X81057868Y-65211107D01*
X81070480Y-65232150D01*
X81080970Y-65254329D01*
X81089235Y-65277428D01*
X81095196Y-65301227D01*
X81098796Y-65325495D01*
X81100000Y-65349999D01*
X81100000Y-66250001D01*
X81098796Y-66274505D01*
X81095196Y-66298773D01*
X81089235Y-66322572D01*
X81080970Y-66345671D01*
X81070480Y-66367850D01*
X81057868Y-66388893D01*
X81043253Y-66408599D01*
X81026777Y-66426777D01*
X81008599Y-66443253D01*
X80988893Y-66457868D01*
X80967850Y-66470480D01*
X80945671Y-66480970D01*
X80922572Y-66489235D01*
X80898773Y-66495196D01*
X80874505Y-66498796D01*
X80850001Y-66500000D01*
X80199999Y-66500000D01*
X80175495Y-66498796D01*
X80151227Y-66495196D01*
X80127428Y-66489235D01*
X80104329Y-66480970D01*
X80082150Y-66470480D01*
X80061107Y-66457868D01*
X80041401Y-66443253D01*
X80023223Y-66426777D01*
X80006747Y-66408599D01*
X79992132Y-66388893D01*
X79979520Y-66367850D01*
X79969030Y-66345671D01*
X79960765Y-66322572D01*
X79954804Y-66298773D01*
X79951204Y-66274505D01*
X79950000Y-66250001D01*
X79950000Y-65349999D01*
X79951204Y-65325495D01*
X79954804Y-65301227D01*
X79960765Y-65277428D01*
X79969030Y-65254329D01*
X79979520Y-65232150D01*
X79992132Y-65211107D01*
X80006747Y-65191401D01*
X80023223Y-65173223D01*
X80041401Y-65156747D01*
X80061107Y-65142132D01*
X80082150Y-65129520D01*
X80104329Y-65119030D01*
X80127428Y-65110765D01*
X80151227Y-65104804D01*
X80175495Y-65101204D01*
X80199999Y-65100000D01*
X80850001Y-65100000D01*
X80874505Y-65101204D01*
X80874505Y-65101204D01*
G37*
D16*
X80525000Y-65800000D03*
D12*
G36*
X86874505Y-65101204D02*
G01*
X86898773Y-65104804D01*
X86922572Y-65110765D01*
X86945671Y-65119030D01*
X86967850Y-65129520D01*
X86988893Y-65142132D01*
X87008599Y-65156747D01*
X87026777Y-65173223D01*
X87043253Y-65191401D01*
X87057868Y-65211107D01*
X87070480Y-65232150D01*
X87080970Y-65254329D01*
X87089235Y-65277428D01*
X87095196Y-65301227D01*
X87098796Y-65325495D01*
X87100000Y-65349999D01*
X87100000Y-66250001D01*
X87098796Y-66274505D01*
X87095196Y-66298773D01*
X87089235Y-66322572D01*
X87080970Y-66345671D01*
X87070480Y-66367850D01*
X87057868Y-66388893D01*
X87043253Y-66408599D01*
X87026777Y-66426777D01*
X87008599Y-66443253D01*
X86988893Y-66457868D01*
X86967850Y-66470480D01*
X86945671Y-66480970D01*
X86922572Y-66489235D01*
X86898773Y-66495196D01*
X86874505Y-66498796D01*
X86850001Y-66500000D01*
X86199999Y-66500000D01*
X86175495Y-66498796D01*
X86151227Y-66495196D01*
X86127428Y-66489235D01*
X86104329Y-66480970D01*
X86082150Y-66470480D01*
X86061107Y-66457868D01*
X86041401Y-66443253D01*
X86023223Y-66426777D01*
X86006747Y-66408599D01*
X85992132Y-66388893D01*
X85979520Y-66367850D01*
X85969030Y-66345671D01*
X85960765Y-66322572D01*
X85954804Y-66298773D01*
X85951204Y-66274505D01*
X85950000Y-66250001D01*
X85950000Y-65349999D01*
X85951204Y-65325495D01*
X85954804Y-65301227D01*
X85960765Y-65277428D01*
X85969030Y-65254329D01*
X85979520Y-65232150D01*
X85992132Y-65211107D01*
X86006747Y-65191401D01*
X86023223Y-65173223D01*
X86041401Y-65156747D01*
X86061107Y-65142132D01*
X86082150Y-65129520D01*
X86104329Y-65119030D01*
X86127428Y-65110765D01*
X86151227Y-65104804D01*
X86175495Y-65101204D01*
X86199999Y-65100000D01*
X86850001Y-65100000D01*
X86874505Y-65101204D01*
X86874505Y-65101204D01*
G37*
D16*
X86525000Y-65800000D03*
D12*
G36*
X84824505Y-65101204D02*
G01*
X84848773Y-65104804D01*
X84872572Y-65110765D01*
X84895671Y-65119030D01*
X84917850Y-65129520D01*
X84938893Y-65142132D01*
X84958599Y-65156747D01*
X84976777Y-65173223D01*
X84993253Y-65191401D01*
X85007868Y-65211107D01*
X85020480Y-65232150D01*
X85030970Y-65254329D01*
X85039235Y-65277428D01*
X85045196Y-65301227D01*
X85048796Y-65325495D01*
X85050000Y-65349999D01*
X85050000Y-66250001D01*
X85048796Y-66274505D01*
X85045196Y-66298773D01*
X85039235Y-66322572D01*
X85030970Y-66345671D01*
X85020480Y-66367850D01*
X85007868Y-66388893D01*
X84993253Y-66408599D01*
X84976777Y-66426777D01*
X84958599Y-66443253D01*
X84938893Y-66457868D01*
X84917850Y-66470480D01*
X84895671Y-66480970D01*
X84872572Y-66489235D01*
X84848773Y-66495196D01*
X84824505Y-66498796D01*
X84800001Y-66500000D01*
X84149999Y-66500000D01*
X84125495Y-66498796D01*
X84101227Y-66495196D01*
X84077428Y-66489235D01*
X84054329Y-66480970D01*
X84032150Y-66470480D01*
X84011107Y-66457868D01*
X83991401Y-66443253D01*
X83973223Y-66426777D01*
X83956747Y-66408599D01*
X83942132Y-66388893D01*
X83929520Y-66367850D01*
X83919030Y-66345671D01*
X83910765Y-66322572D01*
X83904804Y-66298773D01*
X83901204Y-66274505D01*
X83900000Y-66250001D01*
X83900000Y-65349999D01*
X83901204Y-65325495D01*
X83904804Y-65301227D01*
X83910765Y-65277428D01*
X83919030Y-65254329D01*
X83929520Y-65232150D01*
X83942132Y-65211107D01*
X83956747Y-65191401D01*
X83973223Y-65173223D01*
X83991401Y-65156747D01*
X84011107Y-65142132D01*
X84032150Y-65129520D01*
X84054329Y-65119030D01*
X84077428Y-65110765D01*
X84101227Y-65104804D01*
X84125495Y-65101204D01*
X84149999Y-65100000D01*
X84800001Y-65100000D01*
X84824505Y-65101204D01*
X84824505Y-65101204D01*
G37*
D16*
X84475000Y-65800000D03*
D12*
G36*
X75974505Y-59901204D02*
G01*
X75998773Y-59904804D01*
X76022572Y-59910765D01*
X76045671Y-59919030D01*
X76067850Y-59929520D01*
X76088893Y-59942132D01*
X76108599Y-59956747D01*
X76126777Y-59973223D01*
X76143253Y-59991401D01*
X76157868Y-60011107D01*
X76170480Y-60032150D01*
X76180970Y-60054329D01*
X76189235Y-60077428D01*
X76195196Y-60101227D01*
X76198796Y-60125495D01*
X76200000Y-60149999D01*
X76200000Y-60800001D01*
X76198796Y-60824505D01*
X76195196Y-60848773D01*
X76189235Y-60872572D01*
X76180970Y-60895671D01*
X76170480Y-60917850D01*
X76157868Y-60938893D01*
X76143253Y-60958599D01*
X76126777Y-60976777D01*
X76108599Y-60993253D01*
X76088893Y-61007868D01*
X76067850Y-61020480D01*
X76045671Y-61030970D01*
X76022572Y-61039235D01*
X75998773Y-61045196D01*
X75974505Y-61048796D01*
X75950001Y-61050000D01*
X75049999Y-61050000D01*
X75025495Y-61048796D01*
X75001227Y-61045196D01*
X74977428Y-61039235D01*
X74954329Y-61030970D01*
X74932150Y-61020480D01*
X74911107Y-61007868D01*
X74891401Y-60993253D01*
X74873223Y-60976777D01*
X74856747Y-60958599D01*
X74842132Y-60938893D01*
X74829520Y-60917850D01*
X74819030Y-60895671D01*
X74810765Y-60872572D01*
X74804804Y-60848773D01*
X74801204Y-60824505D01*
X74800000Y-60800001D01*
X74800000Y-60149999D01*
X74801204Y-60125495D01*
X74804804Y-60101227D01*
X74810765Y-60077428D01*
X74819030Y-60054329D01*
X74829520Y-60032150D01*
X74842132Y-60011107D01*
X74856747Y-59991401D01*
X74873223Y-59973223D01*
X74891401Y-59956747D01*
X74911107Y-59942132D01*
X74932150Y-59929520D01*
X74954329Y-59919030D01*
X74977428Y-59910765D01*
X75001227Y-59904804D01*
X75025495Y-59901204D01*
X75049999Y-59900000D01*
X75950001Y-59900000D01*
X75974505Y-59901204D01*
X75974505Y-59901204D01*
G37*
D16*
X75500000Y-60475000D03*
D12*
G36*
X75974505Y-61951204D02*
G01*
X75998773Y-61954804D01*
X76022572Y-61960765D01*
X76045671Y-61969030D01*
X76067850Y-61979520D01*
X76088893Y-61992132D01*
X76108599Y-62006747D01*
X76126777Y-62023223D01*
X76143253Y-62041401D01*
X76157868Y-62061107D01*
X76170480Y-62082150D01*
X76180970Y-62104329D01*
X76189235Y-62127428D01*
X76195196Y-62151227D01*
X76198796Y-62175495D01*
X76200000Y-62199999D01*
X76200000Y-62850001D01*
X76198796Y-62874505D01*
X76195196Y-62898773D01*
X76189235Y-62922572D01*
X76180970Y-62945671D01*
X76170480Y-62967850D01*
X76157868Y-62988893D01*
X76143253Y-63008599D01*
X76126777Y-63026777D01*
X76108599Y-63043253D01*
X76088893Y-63057868D01*
X76067850Y-63070480D01*
X76045671Y-63080970D01*
X76022572Y-63089235D01*
X75998773Y-63095196D01*
X75974505Y-63098796D01*
X75950001Y-63100000D01*
X75049999Y-63100000D01*
X75025495Y-63098796D01*
X75001227Y-63095196D01*
X74977428Y-63089235D01*
X74954329Y-63080970D01*
X74932150Y-63070480D01*
X74911107Y-63057868D01*
X74891401Y-63043253D01*
X74873223Y-63026777D01*
X74856747Y-63008599D01*
X74842132Y-62988893D01*
X74829520Y-62967850D01*
X74819030Y-62945671D01*
X74810765Y-62922572D01*
X74804804Y-62898773D01*
X74801204Y-62874505D01*
X74800000Y-62850001D01*
X74800000Y-62199999D01*
X74801204Y-62175495D01*
X74804804Y-62151227D01*
X74810765Y-62127428D01*
X74819030Y-62104329D01*
X74829520Y-62082150D01*
X74842132Y-62061107D01*
X74856747Y-62041401D01*
X74873223Y-62023223D01*
X74891401Y-62006747D01*
X74911107Y-61992132D01*
X74932150Y-61979520D01*
X74954329Y-61969030D01*
X74977428Y-61960765D01*
X75001227Y-61954804D01*
X75025495Y-61951204D01*
X75049999Y-61950000D01*
X75950001Y-61950000D01*
X75974505Y-61951204D01*
X75974505Y-61951204D01*
G37*
D16*
X75500000Y-62525000D03*
D17*
X88870000Y-71550000D03*
X86330000Y-71550000D03*
X83790000Y-71550000D03*
X81250000Y-71550000D03*
X78710000Y-71550000D03*
D18*
X76170000Y-71550000D03*
D12*
G36*
X78824505Y-67601204D02*
G01*
X78848773Y-67604804D01*
X78872572Y-67610765D01*
X78895671Y-67619030D01*
X78917850Y-67629520D01*
X78938893Y-67642132D01*
X78958599Y-67656747D01*
X78976777Y-67673223D01*
X78993253Y-67691401D01*
X79007868Y-67711107D01*
X79020480Y-67732150D01*
X79030970Y-67754329D01*
X79039235Y-67777428D01*
X79045196Y-67801227D01*
X79048796Y-67825495D01*
X79050000Y-67849999D01*
X79050000Y-68750001D01*
X79048796Y-68774505D01*
X79045196Y-68798773D01*
X79039235Y-68822572D01*
X79030970Y-68845671D01*
X79020480Y-68867850D01*
X79007868Y-68888893D01*
X78993253Y-68908599D01*
X78976777Y-68926777D01*
X78958599Y-68943253D01*
X78938893Y-68957868D01*
X78917850Y-68970480D01*
X78895671Y-68980970D01*
X78872572Y-68989235D01*
X78848773Y-68995196D01*
X78824505Y-68998796D01*
X78800001Y-69000000D01*
X78149999Y-69000000D01*
X78125495Y-68998796D01*
X78101227Y-68995196D01*
X78077428Y-68989235D01*
X78054329Y-68980970D01*
X78032150Y-68970480D01*
X78011107Y-68957868D01*
X77991401Y-68943253D01*
X77973223Y-68926777D01*
X77956747Y-68908599D01*
X77942132Y-68888893D01*
X77929520Y-68867850D01*
X77919030Y-68845671D01*
X77910765Y-68822572D01*
X77904804Y-68798773D01*
X77901204Y-68774505D01*
X77900000Y-68750001D01*
X77900000Y-67849999D01*
X77901204Y-67825495D01*
X77904804Y-67801227D01*
X77910765Y-67777428D01*
X77919030Y-67754329D01*
X77929520Y-67732150D01*
X77942132Y-67711107D01*
X77956747Y-67691401D01*
X77973223Y-67673223D01*
X77991401Y-67656747D01*
X78011107Y-67642132D01*
X78032150Y-67629520D01*
X78054329Y-67619030D01*
X78077428Y-67610765D01*
X78101227Y-67604804D01*
X78125495Y-67601204D01*
X78149999Y-67600000D01*
X78800001Y-67600000D01*
X78824505Y-67601204D01*
X78824505Y-67601204D01*
G37*
D16*
X78475000Y-68300000D03*
D12*
G36*
X80874505Y-67601204D02*
G01*
X80898773Y-67604804D01*
X80922572Y-67610765D01*
X80945671Y-67619030D01*
X80967850Y-67629520D01*
X80988893Y-67642132D01*
X81008599Y-67656747D01*
X81026777Y-67673223D01*
X81043253Y-67691401D01*
X81057868Y-67711107D01*
X81070480Y-67732150D01*
X81080970Y-67754329D01*
X81089235Y-67777428D01*
X81095196Y-67801227D01*
X81098796Y-67825495D01*
X81100000Y-67849999D01*
X81100000Y-68750001D01*
X81098796Y-68774505D01*
X81095196Y-68798773D01*
X81089235Y-68822572D01*
X81080970Y-68845671D01*
X81070480Y-68867850D01*
X81057868Y-68888893D01*
X81043253Y-68908599D01*
X81026777Y-68926777D01*
X81008599Y-68943253D01*
X80988893Y-68957868D01*
X80967850Y-68970480D01*
X80945671Y-68980970D01*
X80922572Y-68989235D01*
X80898773Y-68995196D01*
X80874505Y-68998796D01*
X80850001Y-69000000D01*
X80199999Y-69000000D01*
X80175495Y-68998796D01*
X80151227Y-68995196D01*
X80127428Y-68989235D01*
X80104329Y-68980970D01*
X80082150Y-68970480D01*
X80061107Y-68957868D01*
X80041401Y-68943253D01*
X80023223Y-68926777D01*
X80006747Y-68908599D01*
X79992132Y-68888893D01*
X79979520Y-68867850D01*
X79969030Y-68845671D01*
X79960765Y-68822572D01*
X79954804Y-68798773D01*
X79951204Y-68774505D01*
X79950000Y-68750001D01*
X79950000Y-67849999D01*
X79951204Y-67825495D01*
X79954804Y-67801227D01*
X79960765Y-67777428D01*
X79969030Y-67754329D01*
X79979520Y-67732150D01*
X79992132Y-67711107D01*
X80006747Y-67691401D01*
X80023223Y-67673223D01*
X80041401Y-67656747D01*
X80061107Y-67642132D01*
X80082150Y-67629520D01*
X80104329Y-67619030D01*
X80127428Y-67610765D01*
X80151227Y-67604804D01*
X80175495Y-67601204D01*
X80199999Y-67600000D01*
X80850001Y-67600000D01*
X80874505Y-67601204D01*
X80874505Y-67601204D01*
G37*
D16*
X80525000Y-68300000D03*
D12*
G36*
X86874505Y-67601204D02*
G01*
X86898773Y-67604804D01*
X86922572Y-67610765D01*
X86945671Y-67619030D01*
X86967850Y-67629520D01*
X86988893Y-67642132D01*
X87008599Y-67656747D01*
X87026777Y-67673223D01*
X87043253Y-67691401D01*
X87057868Y-67711107D01*
X87070480Y-67732150D01*
X87080970Y-67754329D01*
X87089235Y-67777428D01*
X87095196Y-67801227D01*
X87098796Y-67825495D01*
X87100000Y-67849999D01*
X87100000Y-68750001D01*
X87098796Y-68774505D01*
X87095196Y-68798773D01*
X87089235Y-68822572D01*
X87080970Y-68845671D01*
X87070480Y-68867850D01*
X87057868Y-68888893D01*
X87043253Y-68908599D01*
X87026777Y-68926777D01*
X87008599Y-68943253D01*
X86988893Y-68957868D01*
X86967850Y-68970480D01*
X86945671Y-68980970D01*
X86922572Y-68989235D01*
X86898773Y-68995196D01*
X86874505Y-68998796D01*
X86850001Y-69000000D01*
X86199999Y-69000000D01*
X86175495Y-68998796D01*
X86151227Y-68995196D01*
X86127428Y-68989235D01*
X86104329Y-68980970D01*
X86082150Y-68970480D01*
X86061107Y-68957868D01*
X86041401Y-68943253D01*
X86023223Y-68926777D01*
X86006747Y-68908599D01*
X85992132Y-68888893D01*
X85979520Y-68867850D01*
X85969030Y-68845671D01*
X85960765Y-68822572D01*
X85954804Y-68798773D01*
X85951204Y-68774505D01*
X85950000Y-68750001D01*
X85950000Y-67849999D01*
X85951204Y-67825495D01*
X85954804Y-67801227D01*
X85960765Y-67777428D01*
X85969030Y-67754329D01*
X85979520Y-67732150D01*
X85992132Y-67711107D01*
X86006747Y-67691401D01*
X86023223Y-67673223D01*
X86041401Y-67656747D01*
X86061107Y-67642132D01*
X86082150Y-67629520D01*
X86104329Y-67619030D01*
X86127428Y-67610765D01*
X86151227Y-67604804D01*
X86175495Y-67601204D01*
X86199999Y-67600000D01*
X86850001Y-67600000D01*
X86874505Y-67601204D01*
X86874505Y-67601204D01*
G37*
D16*
X86525000Y-68300000D03*
D12*
G36*
X84824505Y-67601204D02*
G01*
X84848773Y-67604804D01*
X84872572Y-67610765D01*
X84895671Y-67619030D01*
X84917850Y-67629520D01*
X84938893Y-67642132D01*
X84958599Y-67656747D01*
X84976777Y-67673223D01*
X84993253Y-67691401D01*
X85007868Y-67711107D01*
X85020480Y-67732150D01*
X85030970Y-67754329D01*
X85039235Y-67777428D01*
X85045196Y-67801227D01*
X85048796Y-67825495D01*
X85050000Y-67849999D01*
X85050000Y-68750001D01*
X85048796Y-68774505D01*
X85045196Y-68798773D01*
X85039235Y-68822572D01*
X85030970Y-68845671D01*
X85020480Y-68867850D01*
X85007868Y-68888893D01*
X84993253Y-68908599D01*
X84976777Y-68926777D01*
X84958599Y-68943253D01*
X84938893Y-68957868D01*
X84917850Y-68970480D01*
X84895671Y-68980970D01*
X84872572Y-68989235D01*
X84848773Y-68995196D01*
X84824505Y-68998796D01*
X84800001Y-69000000D01*
X84149999Y-69000000D01*
X84125495Y-68998796D01*
X84101227Y-68995196D01*
X84077428Y-68989235D01*
X84054329Y-68980970D01*
X84032150Y-68970480D01*
X84011107Y-68957868D01*
X83991401Y-68943253D01*
X83973223Y-68926777D01*
X83956747Y-68908599D01*
X83942132Y-68888893D01*
X83929520Y-68867850D01*
X83919030Y-68845671D01*
X83910765Y-68822572D01*
X83904804Y-68798773D01*
X83901204Y-68774505D01*
X83900000Y-68750001D01*
X83900000Y-67849999D01*
X83901204Y-67825495D01*
X83904804Y-67801227D01*
X83910765Y-67777428D01*
X83919030Y-67754329D01*
X83929520Y-67732150D01*
X83942132Y-67711107D01*
X83956747Y-67691401D01*
X83973223Y-67673223D01*
X83991401Y-67656747D01*
X84011107Y-67642132D01*
X84032150Y-67629520D01*
X84054329Y-67619030D01*
X84077428Y-67610765D01*
X84101227Y-67604804D01*
X84125495Y-67601204D01*
X84149999Y-67600000D01*
X84800001Y-67600000D01*
X84824505Y-67601204D01*
X84824505Y-67601204D01*
G37*
D16*
X84475000Y-68300000D03*
D13*
X80900000Y-63800000D03*
X84100000Y-63800000D03*
X80900000Y-60600000D03*
X84100000Y-60600000D03*
D15*
X87900000Y-68300000D03*
X77100000Y-68250000D03*
X82500000Y-65800000D03*
X77100000Y-65800000D03*
X87900000Y-65800000D03*
D19*
X80980000Y-63720000D02*
X80900000Y-63800000D01*
X80980000Y-62200000D02*
X80980000Y-63720000D01*
X84020000Y-63720000D02*
X84100000Y-63800000D01*
X84020000Y-62200000D02*
X84020000Y-63720000D01*
X80980000Y-60680000D02*
X80900000Y-60600000D01*
X80980000Y-62200000D02*
X80980000Y-60680000D01*
X84020000Y-60680000D02*
X84100000Y-60600000D01*
X84020000Y-62200000D02*
X84020000Y-60680000D01*
D20*
X87000000Y-68300000D02*
X86525000Y-68300000D01*
X87900000Y-68300000D02*
X87000000Y-68300000D01*
X78000000Y-68300000D02*
X78475000Y-68300000D01*
X77100000Y-68250000D02*
X78000000Y-68300000D01*
X83000000Y-64325000D02*
X84475000Y-65800000D01*
X83000000Y-63000000D02*
X83000000Y-64325000D01*
X84475000Y-65800000D02*
X84475000Y-68300000D01*
X84475000Y-70865000D02*
X83790000Y-71550000D01*
X84475000Y-68300000D02*
X84475000Y-70865000D01*
X83000000Y-63000000D02*
X83000000Y-62200000D01*
X82000000Y-64325000D02*
X80525000Y-65800000D01*
X82000000Y-63000000D02*
X82000000Y-64325000D01*
X80525000Y-65800000D02*
X80525000Y-68300000D01*
X80525000Y-70825000D02*
X81250000Y-71550000D01*
X80525000Y-68300000D02*
X80525000Y-70825000D01*
X82000000Y-63000000D02*
X82000000Y-62200000D01*
X78475000Y-65775000D02*
X78475000Y-65800000D01*
X77100000Y-65800000D02*
X78475000Y-65775000D01*
X86525000Y-65775000D02*
X86525000Y-65800000D01*
X87900000Y-65800000D02*
X86525000Y-65775000D01*
X78180000Y-62200000D02*
X77725000Y-62200000D01*
X86820000Y-62200000D02*
X86820000Y-58400000D01*
X75500000Y-60475000D02*
X75525000Y-60475000D01*
X77600000Y-58400000D02*
X78180000Y-58400000D01*
X75525000Y-60475000D02*
X77600000Y-58400000D01*
X76455000Y-60475000D02*
X78180000Y-62200000D01*
X75500000Y-60475000D02*
X76455000Y-60475000D01*
D21*
G36*
X77128558Y-57664479D02*
G01*
X77072313Y-57849893D01*
X77059999Y-57859999D01*
X77036201Y-57888997D01*
X75663271Y-59261928D01*
X75049999Y-59261928D01*
X74876745Y-59278992D01*
X74710149Y-59329528D01*
X74556613Y-59411595D01*
X74422038Y-59522038D01*
X74311595Y-59656613D01*
X74229528Y-59810149D01*
X74178992Y-59976745D01*
X74161928Y-60149999D01*
X74161928Y-60800001D01*
X74178992Y-60973255D01*
X74229528Y-61139851D01*
X74311595Y-61293387D01*
X74422038Y-61427962D01*
X74428594Y-61433342D01*
X74348815Y-61498815D01*
X74269463Y-61595506D01*
X74210498Y-61705820D01*
X74174188Y-61825518D01*
X74161928Y-61950000D01*
X74165000Y-62239250D01*
X74323750Y-62398000D01*
X75373000Y-62398000D01*
X75373000Y-62378000D01*
X75627000Y-62378000D01*
X75627000Y-62398000D01*
X76676250Y-62398000D01*
X76835000Y-62239250D01*
X76838072Y-61950000D01*
X76836201Y-61931003D01*
X76974223Y-62069025D01*
X76961323Y-62200000D01*
X76975997Y-62348986D01*
X77019454Y-62492247D01*
X77046067Y-62542036D01*
X77063795Y-62722027D01*
X77128558Y-62935521D01*
X77233727Y-63132279D01*
X77375261Y-63304738D01*
X77547720Y-63446272D01*
X77744478Y-63551441D01*
X77957972Y-63616204D01*
X78179999Y-63638072D01*
X78180001Y-63638072D01*
X78402028Y-63616204D01*
X78615522Y-63551441D01*
X78812280Y-63446272D01*
X78974404Y-63313219D01*
X78995506Y-63330537D01*
X79105820Y-63389502D01*
X79225518Y-63425812D01*
X79350000Y-63438072D01*
X79464250Y-63435000D01*
X79623000Y-63276250D01*
X79623000Y-62327000D01*
X79603000Y-62327000D01*
X79603000Y-62073000D01*
X79623000Y-62073000D01*
X79623000Y-61123750D01*
X79464250Y-60965000D01*
X79350000Y-60961928D01*
X79225518Y-60974188D01*
X79105820Y-61010498D01*
X78995506Y-61069463D01*
X78974404Y-61086781D01*
X78812280Y-60953728D01*
X78615522Y-60848559D01*
X78402028Y-60783796D01*
X78180001Y-60761928D01*
X78179999Y-60761928D01*
X77957972Y-60783796D01*
X77866382Y-60811580D01*
X77064801Y-60010000D01*
X77482255Y-59592546D01*
X77547720Y-59646272D01*
X77744478Y-59751441D01*
X77957972Y-59816204D01*
X78179999Y-59838072D01*
X78180001Y-59838072D01*
X78402028Y-59816204D01*
X78615522Y-59751441D01*
X78812280Y-59646272D01*
X78984739Y-59504738D01*
X79126273Y-59332279D01*
X79231442Y-59135521D01*
X79296205Y-58922027D01*
X79318073Y-58700000D01*
X79318073Y-58100000D01*
X79296205Y-57877973D01*
X79231442Y-57664479D01*
X79229048Y-57660000D01*
X85770952Y-57660000D01*
X85768558Y-57664479D01*
X85703795Y-57877973D01*
X85681927Y-58100000D01*
X85681927Y-58700000D01*
X85703795Y-58922027D01*
X85768558Y-59135521D01*
X85873727Y-59332279D01*
X86015261Y-59504738D01*
X86060001Y-59541455D01*
X86060000Y-61058545D01*
X86025596Y-61086781D01*
X86004494Y-61069463D01*
X85894180Y-61010498D01*
X85774482Y-60974188D01*
X85650000Y-60961928D01*
X85535750Y-60965000D01*
X85377000Y-61123750D01*
X85377000Y-62073000D01*
X85397000Y-62073000D01*
X85397000Y-62327000D01*
X85377000Y-62327000D01*
X85377000Y-63276250D01*
X85535750Y-63435000D01*
X85650000Y-63438072D01*
X85774482Y-63425812D01*
X85894180Y-63389502D01*
X86004494Y-63330537D01*
X86025596Y-63313219D01*
X86187720Y-63446272D01*
X86384478Y-63551441D01*
X86597972Y-63616204D01*
X86819999Y-63638072D01*
X86820001Y-63638072D01*
X87042028Y-63616204D01*
X87255522Y-63551441D01*
X87452280Y-63446272D01*
X87624739Y-63304738D01*
X87766273Y-63132279D01*
X87871442Y-62935521D01*
X87936205Y-62722027D01*
X87958073Y-62500000D01*
X87958073Y-61900000D01*
X87936205Y-61677973D01*
X87871442Y-61464479D01*
X87766273Y-61267721D01*
X87624739Y-61095262D01*
X87580000Y-61058546D01*
X87580000Y-59541454D01*
X87624739Y-59504738D01*
X87766273Y-59332279D01*
X87871442Y-59135521D01*
X87936205Y-58922027D01*
X87958073Y-58700000D01*
X87958073Y-58100000D01*
X87936205Y-57877973D01*
X87871442Y-57664479D01*
X87869048Y-57660000D01*
X93095845Y-57660000D01*
X92555330Y-58021161D01*
X92021161Y-58555330D01*
X91601467Y-59183446D01*
X91312377Y-59881372D01*
X91165000Y-60622285D01*
X91165000Y-61377715D01*
X91312377Y-62118628D01*
X91601467Y-62816554D01*
X92021161Y-63444670D01*
X92555330Y-63978839D01*
X93183446Y-64398533D01*
X93881372Y-64687623D01*
X94622285Y-64835000D01*
X95377715Y-64835000D01*
X96118628Y-64687623D01*
X96816554Y-64398533D01*
X97444670Y-63978839D01*
X97978839Y-63444670D01*
X98340001Y-62904154D01*
X98340000Y-72967721D01*
X98273286Y-73648126D01*
X98085057Y-74271570D01*
X97779323Y-74846573D01*
X97367721Y-75351248D01*
X96865933Y-75766362D01*
X96293077Y-76076104D01*
X95670961Y-76268682D01*
X94992417Y-76340000D01*
X70032279Y-76340000D01*
X69351874Y-76273286D01*
X68728430Y-76085057D01*
X68153427Y-75779323D01*
X67648752Y-75367721D01*
X67233638Y-74865933D01*
X66923896Y-74293077D01*
X66731318Y-73670961D01*
X66683900Y-73219808D01*
X90993529Y-73219808D01*
X90993636Y-73228743D01*
X90994441Y-73271247D01*
X90994442Y-73271314D01*
X90995117Y-73307025D01*
X90995429Y-73309690D01*
X90995240Y-73312371D01*
X90995547Y-73321302D01*
X90997171Y-73360681D01*
X90998123Y-73367485D01*
X90997881Y-73374362D01*
X90998503Y-73383277D01*
X91002188Y-73431299D01*
X91007290Y-73460272D01*
X91009369Y-73489624D01*
X91010929Y-73498423D01*
X91017207Y-73532459D01*
X91032278Y-73584840D01*
X91046048Y-73637615D01*
X91049196Y-73645978D01*
X91059562Y-73672949D01*
X91081868Y-73717444D01*
X91102383Y-73762790D01*
X91106898Y-73770502D01*
X91122850Y-73797321D01*
X91130234Y-73807357D01*
X91135964Y-73818427D01*
X91140879Y-73825890D01*
X91141559Y-73826907D01*
X91168280Y-73859474D01*
X91192866Y-73893675D01*
X91198812Y-73900346D01*
X91238092Y-73943800D01*
X91243474Y-73948696D01*
X91247931Y-73954439D01*
X91289628Y-73990674D01*
X91330494Y-74027844D01*
X91336719Y-74031598D01*
X91342211Y-74036370D01*
X91349532Y-74041495D01*
X91397593Y-74074638D01*
X91413283Y-74083332D01*
X91427604Y-74094118D01*
X91467798Y-74113538D01*
X91506848Y-74135175D01*
X91523915Y-74140652D01*
X91540070Y-74148457D01*
X91548479Y-74151482D01*
X91584060Y-74164003D01*
X91584060Y-74519136D01*
X91585642Y-74535268D01*
X91584877Y-74551454D01*
X91591725Y-74597303D01*
X91596249Y-74643446D01*
X91600933Y-74658960D01*
X91603327Y-74674990D01*
X91618953Y-74718644D01*
X91632351Y-74763021D01*
X91639959Y-74777330D01*
X91645421Y-74792589D01*
X91669221Y-74832365D01*
X91690990Y-74873307D01*
X91701236Y-74885869D01*
X91709555Y-74899773D01*
X91740634Y-74934176D01*
X91769935Y-74970102D01*
X91782418Y-74980429D01*
X91793286Y-74992459D01*
X91830469Y-75020180D01*
X91866177Y-75049720D01*
X91880427Y-75057425D01*
X91893426Y-75067116D01*
X91935287Y-75087087D01*
X91976050Y-75109128D01*
X91991526Y-75113919D01*
X92006159Y-75120900D01*
X92051087Y-75132356D01*
X92095370Y-75146064D01*
X92111492Y-75147758D01*
X92127193Y-75151762D01*
X92173484Y-75154274D01*
X92219592Y-75159120D01*
X92235728Y-75157652D01*
X92251915Y-75158530D01*
X92260840Y-75158078D01*
X92326788Y-75154282D01*
X92326863Y-75154278D01*
X92392878Y-75150477D01*
X92429369Y-75144765D01*
X92442815Y-75143753D01*
X92443076Y-75143836D01*
X92445304Y-75144086D01*
X92447449Y-75144750D01*
X92507316Y-75151042D01*
X92567203Y-75157760D01*
X92571518Y-75157790D01*
X92571671Y-75157806D01*
X92571824Y-75157792D01*
X92576139Y-75157822D01*
X92714456Y-75157822D01*
X92774394Y-75151945D01*
X92834380Y-75146486D01*
X92836535Y-75145852D01*
X92838766Y-75145633D01*
X92845306Y-75143658D01*
X92886035Y-75149260D01*
X92915702Y-75150416D01*
X92945097Y-75154610D01*
X92954027Y-75154940D01*
X93006814Y-75156525D01*
X93036410Y-75154517D01*
X93066054Y-75155560D01*
X93074968Y-75154939D01*
X93120176Y-75151471D01*
X93127824Y-75152876D01*
X93136734Y-75153562D01*
X93175231Y-75156258D01*
X93193166Y-75155759D01*
X93211005Y-75157760D01*
X93219941Y-75157822D01*
X93280297Y-75157822D01*
X93340235Y-75151945D01*
X93343012Y-75151692D01*
X93397104Y-75157760D01*
X93401419Y-75157790D01*
X93401572Y-75157806D01*
X93401725Y-75157792D01*
X93406040Y-75157822D01*
X93531782Y-75157822D01*
X93591720Y-75151945D01*
X93651706Y-75146486D01*
X93653861Y-75145852D01*
X93656092Y-75145633D01*
X93713673Y-75128248D01*
X93754499Y-75116233D01*
X93755874Y-75116764D01*
X93764501Y-75119096D01*
X93820005Y-75133691D01*
X93840352Y-75136961D01*
X93860086Y-75142863D01*
X93901877Y-75146851D01*
X93943328Y-75153513D01*
X93963912Y-75152770D01*
X93984427Y-75154727D01*
X93993362Y-75154641D01*
X94061633Y-75153509D01*
X94085843Y-75150729D01*
X94110203Y-75150854D01*
X94116587Y-75149624D01*
X94161824Y-75156046D01*
X94167927Y-75156267D01*
X94168060Y-75156285D01*
X94168187Y-75156277D01*
X94170755Y-75156370D01*
X94210896Y-75157547D01*
X94215814Y-75157210D01*
X94220718Y-75157760D01*
X94229654Y-75157822D01*
X94298812Y-75157822D01*
X94358750Y-75151945D01*
X94418736Y-75146486D01*
X94420891Y-75145852D01*
X94423122Y-75145633D01*
X94423961Y-75145380D01*
X94447732Y-75148046D01*
X94484839Y-75155150D01*
X94509661Y-75154993D01*
X94534328Y-75157760D01*
X94543264Y-75157822D01*
X94659007Y-75157822D01*
X94690237Y-75154760D01*
X94721620Y-75154752D01*
X94752248Y-75148679D01*
X94783317Y-75145633D01*
X94783871Y-75145466D01*
X94812164Y-75152455D01*
X94825179Y-75153064D01*
X94837952Y-75155674D01*
X94887463Y-75155976D01*
X94936933Y-75158290D01*
X94945854Y-75157771D01*
X95004105Y-75153980D01*
X95004146Y-75153978D01*
X95062449Y-75150185D01*
X95065941Y-75149612D01*
X95069486Y-75149689D01*
X95127578Y-75139494D01*
X95185706Y-75129952D01*
X95189023Y-75128710D01*
X95192512Y-75128098D01*
X95195251Y-75127038D01*
X95246493Y-75136167D01*
X95297516Y-75146971D01*
X95306404Y-75147898D01*
X95368057Y-75153894D01*
X95414575Y-75153857D01*
X95461033Y-75156147D01*
X95469956Y-75155651D01*
X95528573Y-75151985D01*
X95532067Y-75151420D01*
X95547923Y-75154200D01*
X95554320Y-75154060D01*
X95560651Y-75155040D01*
X95569576Y-75155476D01*
X95612115Y-75157260D01*
X95621075Y-75156759D01*
X95629996Y-75157760D01*
X95638932Y-75157822D01*
X95709052Y-75157822D01*
X95712244Y-75157509D01*
X95715437Y-75157790D01*
X95764416Y-75152494D01*
X95811361Y-75157760D01*
X95815676Y-75157790D01*
X95815829Y-75157806D01*
X95815982Y-75157792D01*
X95820297Y-75157822D01*
X95958614Y-75157822D01*
X96018552Y-75151945D01*
X96078538Y-75146486D01*
X96080693Y-75145852D01*
X96082924Y-75145633D01*
X96140505Y-75128248D01*
X96197308Y-75111530D01*
X96203867Y-75114279D01*
X96205372Y-75114732D01*
X96205455Y-75114766D01*
X96205551Y-75114785D01*
X96212425Y-75116852D01*
X96232764Y-75122813D01*
X96282075Y-75132161D01*
X96331015Y-75143405D01*
X96339886Y-75144484D01*
X96412508Y-75152808D01*
X96473602Y-75153809D01*
X96534869Y-75155056D01*
X96537278Y-75154852D01*
X96537398Y-75154854D01*
X96537524Y-75154831D01*
X96543774Y-75154302D01*
X96620458Y-75147277D01*
X96621269Y-75147122D01*
X96622089Y-75147125D01*
X96682603Y-75135384D01*
X96743137Y-75123799D01*
X96743897Y-75123491D01*
X96744708Y-75123334D01*
X96753255Y-75120724D01*
X96822520Y-75099043D01*
X96866625Y-75080339D01*
X96911522Y-75063675D01*
X96919529Y-75059707D01*
X96943929Y-75047401D01*
X96960505Y-75036897D01*
X96978340Y-75028705D01*
X96986026Y-75024147D01*
X97021013Y-75003066D01*
X97054218Y-74978344D01*
X97089001Y-74955855D01*
X97095956Y-74950245D01*
X97117160Y-74932900D01*
X97118808Y-74931258D01*
X97120723Y-74929962D01*
X97148004Y-74902396D01*
X97165996Y-74887724D01*
X97182286Y-74868035D01*
X97205659Y-74844756D01*
X97206952Y-74842833D01*
X97208585Y-74841183D01*
X97214172Y-74834209D01*
X97217302Y-74830246D01*
X97230292Y-74810013D01*
X97245620Y-74791487D01*
X97262660Y-74759978D01*
X97275352Y-74741100D01*
X97276881Y-74737447D01*
X97284784Y-74725138D01*
X97293594Y-74702774D01*
X97305035Y-74681618D01*
X97308441Y-74673356D01*
X97314298Y-74658862D01*
X97321526Y-74634309D01*
X97331542Y-74610743D01*
X97339126Y-74574520D01*
X97349571Y-74539040D01*
X97351892Y-74513551D01*
X97357140Y-74488488D01*
X97357545Y-74451481D01*
X97360899Y-74414648D01*
X97359520Y-74401518D01*
X97364373Y-74386162D01*
X97364583Y-74384272D01*
X97365146Y-74382453D01*
X97371472Y-74322261D01*
X97378165Y-74262020D01*
X97378187Y-74258377D01*
X97378202Y-74258231D01*
X97378188Y-74258081D01*
X97378218Y-74253084D01*
X97378148Y-74187069D01*
X97378134Y-74186924D01*
X97378135Y-74184782D01*
X97384443Y-74183628D01*
X97389696Y-74181552D01*
X97395232Y-74180438D01*
X97403760Y-74177770D01*
X97474748Y-74155013D01*
X97492249Y-74147449D01*
X97510610Y-74142329D01*
X97549465Y-74122719D01*
X97589403Y-74105457D01*
X97605092Y-74094644D01*
X97622118Y-74086051D01*
X97629631Y-74081212D01*
X97687353Y-74043468D01*
X97725437Y-74012870D01*
X97764801Y-73983917D01*
X97771406Y-73977899D01*
X97814643Y-73937951D01*
X97846288Y-73902390D01*
X97879570Y-73868325D01*
X97887742Y-73855805D01*
X97897677Y-73844641D01*
X97921810Y-73803613D01*
X97947844Y-73763730D01*
X97953430Y-73749859D01*
X97961006Y-73736979D01*
X97976711Y-73692046D01*
X97994502Y-73647866D01*
X97997286Y-73633178D01*
X98002218Y-73619068D01*
X98008899Y-73571918D01*
X98017765Y-73525145D01*
X98017644Y-73510199D01*
X98019741Y-73495397D01*
X98017138Y-73447873D01*
X98016751Y-73400243D01*
X98013726Y-73385592D01*
X98013174Y-73375515D01*
X98019443Y-73319629D01*
X98019473Y-73315314D01*
X98019489Y-73315161D01*
X98019475Y-73315008D01*
X98019505Y-73310693D01*
X98019505Y-73223492D01*
X98018828Y-73216588D01*
X98019356Y-73209667D01*
X98019100Y-73200735D01*
X98017459Y-73154614D01*
X98015085Y-73136912D01*
X98015201Y-73119049D01*
X98014325Y-73110156D01*
X98009506Y-73064525D01*
X98003023Y-73033025D01*
X97999561Y-73001058D01*
X97997675Y-72992324D01*
X97990790Y-72961477D01*
X97973901Y-72910054D01*
X97958363Y-72858207D01*
X97954916Y-72849962D01*
X97949897Y-72838186D01*
X97920496Y-72784448D01*
X97891370Y-72730707D01*
X97890002Y-72728713D01*
X97889944Y-72728608D01*
X97889862Y-72728510D01*
X97886313Y-72723339D01*
X97849783Y-72670889D01*
X97837094Y-72656009D01*
X97826523Y-72639575D01*
X97796666Y-72608602D01*
X97768734Y-72575848D01*
X97753402Y-72563721D01*
X97739836Y-72549648D01*
X97732996Y-72543898D01*
X97680211Y-72500152D01*
X97667406Y-72491499D01*
X97656014Y-72481063D01*
X97615753Y-72456592D01*
X97576721Y-72430215D01*
X97562485Y-72424216D01*
X97549277Y-72416188D01*
X97541198Y-72412371D01*
X97479469Y-72383729D01*
X97424537Y-72364502D01*
X97369848Y-72344537D01*
X97361609Y-72342476D01*
X97361576Y-72342464D01*
X97361545Y-72342460D01*
X97361179Y-72342368D01*
X97328982Y-72334546D01*
X97272687Y-72326580D01*
X97216497Y-72317622D01*
X97207573Y-72317145D01*
X97130855Y-72313584D01*
X97100156Y-72315162D01*
X97069463Y-72313683D01*
X97037945Y-72318360D01*
X97006113Y-72319996D01*
X96976312Y-72327505D01*
X96945911Y-72332016D01*
X96937257Y-72334245D01*
X96883498Y-72348489D01*
X96877186Y-72346509D01*
X96883029Y-72336202D01*
X96889718Y-72316031D01*
X96898948Y-72296896D01*
X96909330Y-72256895D01*
X96922346Y-72217646D01*
X96924991Y-72196554D01*
X96930326Y-72175996D01*
X96932742Y-72134726D01*
X96937885Y-72093710D01*
X96936384Y-72072521D01*
X96937626Y-72051303D01*
X96931979Y-72010350D01*
X96929058Y-71969116D01*
X96927498Y-71960317D01*
X96926996Y-71957596D01*
X96922909Y-71943394D01*
X96920984Y-71928753D01*
X96905670Y-71883486D01*
X96892455Y-71837561D01*
X96885693Y-71824433D01*
X96880957Y-71810434D01*
X96877224Y-71802315D01*
X96866852Y-71780164D01*
X96855024Y-71760237D01*
X96845732Y-71739001D01*
X96841313Y-71731234D01*
X96819156Y-71692909D01*
X96815585Y-71687927D01*
X96812943Y-71682395D01*
X96808270Y-71674778D01*
X96802349Y-71665275D01*
X96820415Y-71661194D01*
X96827835Y-71658736D01*
X96835571Y-71657576D01*
X96844222Y-71655334D01*
X96881774Y-71645324D01*
X96912285Y-71633901D01*
X96920078Y-71631790D01*
X96926968Y-71630340D01*
X96929644Y-71629199D01*
X96943734Y-71625383D01*
X96952068Y-71622158D01*
X96969791Y-71615157D01*
X96989896Y-71604844D01*
X96998751Y-71601529D01*
X97008063Y-71595772D01*
X97041871Y-71581361D01*
X97060684Y-71568534D01*
X97080930Y-71558149D01*
X97112153Y-71533442D01*
X97145072Y-71510997D01*
X97161033Y-71494762D01*
X97178878Y-71480641D01*
X97194933Y-71461806D01*
X97194955Y-71461788D01*
X97195058Y-71461660D01*
X97204720Y-71450326D01*
X97232640Y-71421926D01*
X97245137Y-71402911D01*
X97259907Y-71385584D01*
X97268407Y-71370403D01*
X97273207Y-71364431D01*
X97283996Y-71343785D01*
X97301241Y-71317546D01*
X97305341Y-71309606D01*
X97308306Y-71303765D01*
X97314253Y-71288521D01*
X97320929Y-71276598D01*
X97323947Y-71267336D01*
X97331057Y-71253729D01*
X97340956Y-71220077D01*
X97353704Y-71187401D01*
X97358200Y-71162193D01*
X97359620Y-71157835D01*
X97359865Y-71155793D01*
X97366305Y-71133900D01*
X97367916Y-71125111D01*
X97372859Y-71097052D01*
X97374733Y-71072641D01*
X97379496Y-71048618D01*
X97380308Y-71039719D01*
X97384225Y-70993202D01*
X97384126Y-70986004D01*
X97385269Y-70978892D01*
X97385756Y-70969969D01*
X97388645Y-70909355D01*
X97388528Y-70907020D01*
X97388851Y-70904695D01*
X97389148Y-70895764D01*
X97391004Y-70825410D01*
X97390968Y-70824912D01*
X97391031Y-70824404D01*
X97391189Y-70815469D01*
X97392008Y-70739943D01*
X97392009Y-70739931D01*
X97392045Y-70730995D01*
X97391829Y-70654236D01*
X97391818Y-70654126D01*
X97391829Y-70654009D01*
X97391738Y-70645074D01*
X97390480Y-70571648D01*
X97390336Y-70570403D01*
X97390433Y-70569145D01*
X97390182Y-70560212D01*
X97387880Y-70494480D01*
X97387314Y-70490238D01*
X97387525Y-70485963D01*
X97387031Y-70477041D01*
X97383683Y-70423361D01*
X97381576Y-70410308D01*
X97381500Y-70397080D01*
X97380514Y-70388198D01*
X97376116Y-70350928D01*
X97366452Y-70306717D01*
X97366219Y-70303334D01*
X97363584Y-70293598D01*
X97363310Y-70292341D01*
X97350967Y-70233673D01*
X97349476Y-70229054D01*
X97349443Y-70228903D01*
X97349382Y-70228764D01*
X97348222Y-70225169D01*
X97342770Y-70208666D01*
X97337194Y-70196073D01*
X97333593Y-70182764D01*
X97311939Y-70139032D01*
X97292202Y-70094454D01*
X97284285Y-70083181D01*
X97278168Y-70070828D01*
X97248436Y-70032139D01*
X97220413Y-69992239D01*
X97210458Y-69982720D01*
X97202058Y-69971789D01*
X97165390Y-69939623D01*
X97130138Y-69905914D01*
X97118514Y-69898504D01*
X97108159Y-69889420D01*
X97065945Y-69864991D01*
X97024814Y-69838769D01*
X97011981Y-69833761D01*
X97000051Y-69826857D01*
X96991891Y-69823215D01*
X96986326Y-69820777D01*
X96947318Y-69808059D01*
X96909253Y-69792748D01*
X96900659Y-69790298D01*
X96872973Y-69782614D01*
X96863938Y-69781035D01*
X96855292Y-69777978D01*
X96846602Y-69775896D01*
X96802403Y-69765631D01*
X96811895Y-69750722D01*
X96813892Y-69746782D01*
X96816568Y-69743269D01*
X96821210Y-69735633D01*
X96840447Y-69703484D01*
X96852475Y-69678033D01*
X96867166Y-69654023D01*
X96871007Y-69645955D01*
X96877869Y-69631280D01*
X96887644Y-69603615D01*
X96893817Y-69590554D01*
X96897594Y-69575512D01*
X96917232Y-69522364D01*
X96917956Y-69517830D01*
X96919483Y-69513510D01*
X96927797Y-69456245D01*
X96936940Y-69399023D01*
X96936770Y-69394437D01*
X96937429Y-69389899D01*
X96934461Y-69332077D01*
X96932317Y-69274202D01*
X96931260Y-69269739D01*
X96931025Y-69265158D01*
X96916876Y-69208995D01*
X96903536Y-69152657D01*
X96901633Y-69148485D01*
X96900512Y-69144036D01*
X96875750Y-69091744D01*
X96867230Y-69073069D01*
X96858534Y-69051951D01*
X96855540Y-69047441D01*
X96851697Y-69039017D01*
X96847158Y-69031319D01*
X96842390Y-69023359D01*
X96814953Y-68986309D01*
X96789447Y-68947892D01*
X96783753Y-68941005D01*
X96763809Y-68917221D01*
X96757845Y-68911376D01*
X96752951Y-68904609D01*
X96746987Y-68897955D01*
X96714267Y-68861960D01*
X96713487Y-68861255D01*
X96712854Y-68860410D01*
X96706775Y-68853860D01*
X96664283Y-68808704D01*
X96664192Y-68808625D01*
X96659686Y-68803870D01*
X96610426Y-68752603D01*
X96610310Y-68752504D01*
X96606934Y-68748997D01*
X96553908Y-68694670D01*
X96553789Y-68694570D01*
X96550757Y-68691464D01*
X96496972Y-68637128D01*
X96496848Y-68637025D01*
X96493583Y-68633730D01*
X96442039Y-68582433D01*
X96441929Y-68582343D01*
X96437700Y-68578156D01*
X96391401Y-68532948D01*
X96391192Y-68532780D01*
X96391012Y-68532567D01*
X96384569Y-68526375D01*
X96346520Y-68490308D01*
X96342257Y-68486993D01*
X96338645Y-68482967D01*
X96332014Y-68476976D01*
X96305219Y-68453098D01*
X96276557Y-68432194D01*
X96249759Y-68408936D01*
X96242434Y-68403817D01*
X96229894Y-68395181D01*
X96212965Y-68385815D01*
X96209817Y-68383519D01*
X96196972Y-68373963D01*
X96158167Y-68355498D01*
X96120600Y-68334713D01*
X96101920Y-68328732D01*
X96084184Y-68320292D01*
X96042531Y-68309716D01*
X96001643Y-68296624D01*
X95982146Y-68294384D01*
X95963120Y-68289553D01*
X95920234Y-68287270D01*
X95877554Y-68282366D01*
X95857987Y-68283956D01*
X95838390Y-68282913D01*
X95795871Y-68289004D01*
X95753058Y-68292484D01*
X95734176Y-68297843D01*
X95714746Y-68300627D01*
X95674222Y-68314860D01*
X95661831Y-68318377D01*
X95647842Y-68321801D01*
X95644831Y-68323202D01*
X95632898Y-68326589D01*
X95615417Y-68335514D01*
X95596898Y-68342018D01*
X95588823Y-68345844D01*
X95581861Y-68349202D01*
X95558935Y-68363170D01*
X95534595Y-68374496D01*
X95526932Y-68379093D01*
X95501371Y-68394667D01*
X95498816Y-68396589D01*
X95495940Y-68398012D01*
X95488389Y-68402791D01*
X95458820Y-68421792D01*
X95449037Y-68369901D01*
X95448842Y-68369233D01*
X95448779Y-68368542D01*
X95431309Y-68309185D01*
X95414029Y-68250001D01*
X95413710Y-68249388D01*
X95413513Y-68248718D01*
X95384824Y-68193842D01*
X95356400Y-68139184D01*
X95355966Y-68138642D01*
X95355644Y-68138026D01*
X95316898Y-68089835D01*
X95278344Y-68041670D01*
X95277814Y-68041223D01*
X95277378Y-68040681D01*
X95229929Y-68000867D01*
X95182834Y-67961176D01*
X95182228Y-67960841D01*
X95181694Y-67960393D01*
X95127266Y-67930471D01*
X95073508Y-67900766D01*
X95072851Y-67900556D01*
X95072238Y-67900219D01*
X95013191Y-67881489D01*
X94954531Y-67862741D01*
X94953840Y-67862662D01*
X94953178Y-67862452D01*
X94891776Y-67855564D01*
X94830434Y-67848549D01*
X94829742Y-67848606D01*
X94829051Y-67848528D01*
X94820115Y-67848466D01*
X94192460Y-67848466D01*
X94191771Y-67848534D01*
X94191077Y-67848467D01*
X94129264Y-67854663D01*
X94068150Y-67860655D01*
X94067490Y-67860854D01*
X94066794Y-67860924D01*
X94007414Y-67878992D01*
X93948575Y-67896757D01*
X93947963Y-67897082D01*
X93947297Y-67897285D01*
X93892669Y-67926482D01*
X93838289Y-67955396D01*
X93837752Y-67955834D01*
X93837138Y-67956162D01*
X93789126Y-67995493D01*
X93741494Y-68034341D01*
X93741054Y-68034873D01*
X93740513Y-68035316D01*
X93700974Y-68083321D01*
X93661876Y-68130583D01*
X93661548Y-68131190D01*
X93661103Y-68131730D01*
X93631721Y-68186354D01*
X93602468Y-68240456D01*
X93602263Y-68241119D01*
X93601933Y-68241732D01*
X93583752Y-68300916D01*
X93565532Y-68359776D01*
X93565460Y-68360465D01*
X93565255Y-68361131D01*
X93563538Y-68369901D01*
X93553766Y-68421737D01*
X93537648Y-68411278D01*
X93536706Y-68410790D01*
X93535873Y-68410130D01*
X93528327Y-68405343D01*
X93497791Y-68386268D01*
X93481810Y-68378338D01*
X93467084Y-68368253D01*
X93459223Y-68364003D01*
X93446457Y-68357214D01*
X93431826Y-68351182D01*
X93418229Y-68343084D01*
X93391882Y-68333713D01*
X93385904Y-68330747D01*
X93375915Y-68328035D01*
X93374187Y-68327420D01*
X93330979Y-68309607D01*
X93315460Y-68306533D01*
X93300544Y-68301228D01*
X93254291Y-68294417D01*
X93208453Y-68285337D01*
X93192627Y-68285336D01*
X93176970Y-68283030D01*
X93130299Y-68285331D01*
X93083547Y-68285327D01*
X93068016Y-68288401D01*
X93052216Y-68289180D01*
X93006882Y-68300502D01*
X92961018Y-68309580D01*
X92946383Y-68315611D01*
X92931031Y-68319445D01*
X92888747Y-68339362D01*
X92845533Y-68357170D01*
X92835539Y-68363809D01*
X92829765Y-68366284D01*
X92825740Y-68369040D01*
X92818034Y-68372670D01*
X92810392Y-68377303D01*
X92802551Y-68382131D01*
X92765310Y-68410421D01*
X92763319Y-68411784D01*
X92741492Y-68426284D01*
X92740041Y-68427724D01*
X92726706Y-68436856D01*
X92719902Y-68442648D01*
X92696464Y-68462881D01*
X92690634Y-68469004D01*
X92683857Y-68474057D01*
X92677291Y-68480118D01*
X92641822Y-68513323D01*
X92641106Y-68514138D01*
X92640237Y-68514810D01*
X92633778Y-68520985D01*
X92589282Y-68564112D01*
X92589200Y-68564208D01*
X92584491Y-68568805D01*
X92533976Y-68618804D01*
X92533874Y-68618927D01*
X92530409Y-68622363D01*
X92476878Y-68676188D01*
X92476778Y-68676311D01*
X92473706Y-68679400D01*
X92420165Y-68734000D01*
X92420067Y-68734121D01*
X92416805Y-68737452D01*
X92366259Y-68789780D01*
X92366172Y-68789889D01*
X92362036Y-68794194D01*
X92317491Y-68841199D01*
X92317318Y-68841422D01*
X92317100Y-68841611D01*
X92311005Y-68848146D01*
X92275466Y-68886781D01*
X92272204Y-68891108D01*
X92268221Y-68894791D01*
X92262330Y-68901510D01*
X92238803Y-68928726D01*
X92218452Y-68957530D01*
X92208479Y-68969360D01*
X92202862Y-68975484D01*
X92201679Y-68977428D01*
X92195712Y-68984506D01*
X92190698Y-68991904D01*
X92182188Y-69004650D01*
X92172949Y-69021932D01*
X92166727Y-69030738D01*
X92159871Y-69046105D01*
X92137913Y-69082176D01*
X92131744Y-69099007D01*
X92123299Y-69114803D01*
X92110301Y-69157505D01*
X92094926Y-69199452D01*
X92092143Y-69217163D01*
X92086928Y-69234296D01*
X92082471Y-69278710D01*
X92075536Y-69322844D01*
X92076246Y-69340750D01*
X92074457Y-69358578D01*
X92078715Y-69403036D01*
X92080484Y-69447653D01*
X92084658Y-69465079D01*
X92086366Y-69482915D01*
X92099091Y-69525411D01*
X92105390Y-69555824D01*
X92107704Y-69561301D01*
X92109577Y-69569123D01*
X92112556Y-69577548D01*
X92114535Y-69583024D01*
X92119405Y-69593248D01*
X92122197Y-69602572D01*
X92136810Y-69630205D01*
X92153994Y-69670885D01*
X92158313Y-69678708D01*
X92172020Y-69703135D01*
X92177819Y-69711448D01*
X92182182Y-69720591D01*
X92186852Y-69728210D01*
X92210191Y-69765693D01*
X92193075Y-69769483D01*
X92189313Y-69770712D01*
X92185387Y-69771235D01*
X92176702Y-69773335D01*
X92139216Y-69782676D01*
X92115864Y-69790988D01*
X92091685Y-69796492D01*
X92083227Y-69799376D01*
X92066764Y-69805117D01*
X92035377Y-69819636D01*
X92021542Y-69824561D01*
X92013388Y-69829420D01*
X91975578Y-69845119D01*
X91964969Y-69852207D01*
X91953400Y-69857559D01*
X91913153Y-69886827D01*
X91871720Y-69914509D01*
X91862688Y-69923524D01*
X91852381Y-69931020D01*
X91824008Y-69961686D01*
X91817298Y-69967316D01*
X91811114Y-69975006D01*
X91783319Y-70002752D01*
X91776217Y-70013339D01*
X91767553Y-70022704D01*
X91750658Y-70050193D01*
X91739028Y-70064657D01*
X91729247Y-70083365D01*
X91713740Y-70106483D01*
X91709565Y-70114385D01*
X91706608Y-70120076D01*
X91704542Y-70125227D01*
X91702151Y-70129118D01*
X91694366Y-70150079D01*
X91681155Y-70175347D01*
X91672080Y-70206177D01*
X91660117Y-70236008D01*
X91654487Y-70265943D01*
X91645884Y-70295169D01*
X91644271Y-70303959D01*
X91639366Y-70331769D01*
X91637467Y-70356441D01*
X91637165Y-70358043D01*
X91632645Y-70380963D01*
X91631842Y-70389863D01*
X91627988Y-70436183D01*
X91628095Y-70443467D01*
X91626947Y-70450671D01*
X91626471Y-70459594D01*
X91623666Y-70520064D01*
X91623787Y-70522421D01*
X91623465Y-70524762D01*
X91623180Y-70533694D01*
X91621420Y-70603957D01*
X91621457Y-70604467D01*
X91621395Y-70604978D01*
X91621248Y-70613913D01*
X91620532Y-70689421D01*
X91620531Y-70689428D01*
X91620531Y-70689509D01*
X91620530Y-70689610D01*
X91620530Y-70689616D01*
X91620507Y-70698364D01*
X91620829Y-70775138D01*
X91620839Y-70775235D01*
X91620829Y-70775342D01*
X91620932Y-70784277D01*
X91622290Y-70857769D01*
X91622433Y-70858998D01*
X91622340Y-70860235D01*
X91622602Y-70869167D01*
X91624993Y-70935017D01*
X91625560Y-70939220D01*
X91625355Y-70943459D01*
X91625860Y-70952381D01*
X91629282Y-71006233D01*
X91631379Y-71019129D01*
X91631463Y-71032195D01*
X91632455Y-71041076D01*
X91636905Y-71078569D01*
X91649443Y-71135743D01*
X91658299Y-71178626D01*
X91658934Y-71182579D01*
X91659344Y-71183687D01*
X91661295Y-71193132D01*
X91663645Y-71200508D01*
X91663660Y-71200576D01*
X91663685Y-71200634D01*
X91664008Y-71201647D01*
X91669482Y-71218424D01*
X91687082Y-71258576D01*
X91702317Y-71299709D01*
X91712111Y-71315677D01*
X91719627Y-71332823D01*
X91744691Y-71368792D01*
X91767625Y-71406182D01*
X91780333Y-71419942D01*
X91791037Y-71435303D01*
X91822624Y-71465733D01*
X91852371Y-71497942D01*
X91867498Y-71508963D01*
X91880991Y-71521962D01*
X91917887Y-71545676D01*
X91953323Y-71571494D01*
X91961056Y-71575972D01*
X91964378Y-71577865D01*
X91976161Y-71583130D01*
X91986066Y-71589496D01*
X92022514Y-71603876D01*
X92073492Y-71627153D01*
X92078281Y-71628759D01*
X92078418Y-71628820D01*
X92078561Y-71628853D01*
X92081965Y-71629994D01*
X92106738Y-71638111D01*
X92124821Y-71642134D01*
X92142190Y-71648604D01*
X92150845Y-71650831D01*
X92193821Y-71661571D01*
X92199357Y-71662392D01*
X92204658Y-71664179D01*
X92209798Y-71665331D01*
X92196403Y-71686946D01*
X92193161Y-71693538D01*
X92188833Y-71699478D01*
X92184355Y-71707211D01*
X92165035Y-71741113D01*
X92150802Y-71772965D01*
X92147251Y-71779362D01*
X92142485Y-71786893D01*
X92141142Y-71790368D01*
X92133872Y-71803465D01*
X92130376Y-71811689D01*
X92123385Y-71828456D01*
X92117667Y-71847121D01*
X92114078Y-71855152D01*
X92111142Y-71867996D01*
X92097459Y-71903402D01*
X92093507Y-71925979D01*
X92086796Y-71947883D01*
X92082764Y-71987344D01*
X92075921Y-72026437D01*
X92076429Y-72049352D01*
X92074101Y-72072142D01*
X92076022Y-72092598D01*
X92075811Y-72095520D01*
X92077811Y-72111662D01*
X92078691Y-72151312D01*
X92083638Y-72173680D01*
X92085781Y-72196501D01*
X92090142Y-72211162D01*
X92091173Y-72219478D01*
X92099031Y-72243287D01*
X92105662Y-72273271D01*
X92108494Y-72281747D01*
X92110000Y-72286156D01*
X92117079Y-72301711D01*
X92121396Y-72316222D01*
X92125971Y-72324912D01*
X92126949Y-72327874D01*
X92104136Y-72329950D01*
X92101981Y-72330584D01*
X92099750Y-72330803D01*
X92077155Y-72337625D01*
X92073638Y-72337190D01*
X92045884Y-72330703D01*
X92037018Y-72329591D01*
X91955318Y-72319914D01*
X91912672Y-72319054D01*
X91870154Y-72315547D01*
X91861220Y-72315748D01*
X91830354Y-72316656D01*
X91788967Y-72321947D01*
X91747308Y-72324537D01*
X91738496Y-72326021D01*
X91675196Y-72337135D01*
X91647305Y-72344901D01*
X91618765Y-72349695D01*
X91587288Y-72361611D01*
X91554867Y-72370638D01*
X91529030Y-72383665D01*
X91501950Y-72393917D01*
X91493970Y-72397938D01*
X91442209Y-72424466D01*
X91422794Y-72436947D01*
X91401985Y-72446945D01*
X91370369Y-72470650D01*
X91337141Y-72492011D01*
X91320523Y-72508022D01*
X91302049Y-72521874D01*
X91295499Y-72527953D01*
X91247242Y-72573367D01*
X91236534Y-72585625D01*
X91234693Y-72587077D01*
X91224342Y-72599178D01*
X91203248Y-72619087D01*
X91197426Y-72625867D01*
X91189708Y-72634982D01*
X91175630Y-72655347D01*
X91165069Y-72667437D01*
X91163239Y-72670615D01*
X91153504Y-72681996D01*
X91148437Y-72689357D01*
X91127621Y-72720054D01*
X91125857Y-72723297D01*
X91123536Y-72726155D01*
X91096035Y-72778128D01*
X91067942Y-72829780D01*
X91066845Y-72833293D01*
X91065118Y-72836557D01*
X91061788Y-72844850D01*
X91048107Y-72879608D01*
X91031474Y-72938061D01*
X91014500Y-72996592D01*
X91013958Y-72999615D01*
X91013921Y-72999745D01*
X91013910Y-72999885D01*
X91012923Y-73005387D01*
X91005337Y-73049436D01*
X91002697Y-73085636D01*
X90997097Y-73121498D01*
X90996649Y-73130423D01*
X90994118Y-73188988D01*
X90994961Y-73204419D01*
X90993529Y-73219808D01*
X66683900Y-73219808D01*
X66660000Y-72992417D01*
X66660000Y-72400000D01*
X74681928Y-72400000D01*
X74694188Y-72524482D01*
X74730498Y-72644180D01*
X74789463Y-72754494D01*
X74868815Y-72851185D01*
X74965506Y-72930537D01*
X75075820Y-72989502D01*
X75195518Y-73025812D01*
X75320000Y-73038072D01*
X75884250Y-73035000D01*
X76043000Y-72876250D01*
X76043000Y-71677000D01*
X74843750Y-71677000D01*
X74685000Y-71835750D01*
X74681928Y-72400000D01*
X66660000Y-72400000D01*
X66660000Y-70700000D01*
X74681928Y-70700000D01*
X74685000Y-71264250D01*
X74843750Y-71423000D01*
X76043000Y-71423000D01*
X76043000Y-70223750D01*
X75884250Y-70065000D01*
X75320000Y-70061928D01*
X75195518Y-70074188D01*
X75075820Y-70110498D01*
X74965506Y-70169463D01*
X74868815Y-70248815D01*
X74789463Y-70345506D01*
X74730498Y-70455820D01*
X74694188Y-70575518D01*
X74681928Y-70700000D01*
X66660000Y-70700000D01*
X66660000Y-68148061D01*
X76065000Y-68148061D01*
X76065000Y-68351939D01*
X76104774Y-68551898D01*
X76182795Y-68740256D01*
X76296063Y-68909774D01*
X76440226Y-69053937D01*
X76609744Y-69167205D01*
X76798102Y-69245226D01*
X76998061Y-69285000D01*
X77201939Y-69285000D01*
X77401898Y-69245226D01*
X77410642Y-69241604D01*
X77411595Y-69243387D01*
X77522038Y-69377962D01*
X77656613Y-69488405D01*
X77810149Y-69570472D01*
X77976745Y-69621008D01*
X78149999Y-69638072D01*
X78800001Y-69638072D01*
X78973255Y-69621008D01*
X79139851Y-69570472D01*
X79293387Y-69488405D01*
X79427962Y-69377962D01*
X79500000Y-69290184D01*
X79572038Y-69377962D01*
X79706613Y-69488405D01*
X79765000Y-69519614D01*
X79765001Y-70494757D01*
X79539014Y-70309294D01*
X79281034Y-70171401D01*
X79001111Y-70086487D01*
X78782950Y-70065000D01*
X78637050Y-70065000D01*
X78418889Y-70086487D01*
X78138966Y-70171401D01*
X77880986Y-70309294D01*
X77654866Y-70494866D01*
X77630393Y-70524687D01*
X77609502Y-70455820D01*
X77550537Y-70345506D01*
X77471185Y-70248815D01*
X77374494Y-70169463D01*
X77264180Y-70110498D01*
X77144482Y-70074188D01*
X77020000Y-70061928D01*
X76455750Y-70065000D01*
X76297000Y-70223750D01*
X76297000Y-71423000D01*
X76317000Y-71423000D01*
X76317000Y-71677000D01*
X76297000Y-71677000D01*
X76297000Y-72876250D01*
X76455750Y-73035000D01*
X77020000Y-73038072D01*
X77144482Y-73025812D01*
X77264180Y-72989502D01*
X77374494Y-72930537D01*
X77471185Y-72851185D01*
X77550537Y-72754494D01*
X77609502Y-72644180D01*
X77630393Y-72575313D01*
X77654866Y-72605134D01*
X77880986Y-72790706D01*
X78138966Y-72928599D01*
X78418889Y-73013513D01*
X78637050Y-73035000D01*
X78782950Y-73035000D01*
X79001111Y-73013513D01*
X79281034Y-72928599D01*
X79539014Y-72790706D01*
X79765134Y-72605134D01*
X79950706Y-72379014D01*
X79980000Y-72324209D01*
X80009294Y-72379014D01*
X80194866Y-72605134D01*
X80420986Y-72790706D01*
X80678966Y-72928599D01*
X80958889Y-73013513D01*
X81177050Y-73035000D01*
X81322950Y-73035000D01*
X81541111Y-73013513D01*
X81821034Y-72928599D01*
X82079014Y-72790706D01*
X82305134Y-72605134D01*
X82490706Y-72379014D01*
X82520000Y-72324209D01*
X82549294Y-72379014D01*
X82734866Y-72605134D01*
X82960986Y-72790706D01*
X83218966Y-72928599D01*
X83498889Y-73013513D01*
X83717050Y-73035000D01*
X83862950Y-73035000D01*
X84081111Y-73013513D01*
X84361034Y-72928599D01*
X84619014Y-72790706D01*
X84845134Y-72605134D01*
X85030706Y-72379014D01*
X85060000Y-72324209D01*
X85089294Y-72379014D01*
X85274866Y-72605134D01*
X85500986Y-72790706D01*
X85758966Y-72928599D01*
X86038889Y-73013513D01*
X86257050Y-73035000D01*
X86402950Y-73035000D01*
X86621111Y-73013513D01*
X86901034Y-72928599D01*
X87159014Y-72790706D01*
X87385134Y-72605134D01*
X87570706Y-72379014D01*
X87605201Y-72314477D01*
X87674822Y-72431355D01*
X87869731Y-72647588D01*
X88103080Y-72821641D01*
X88365901Y-72946825D01*
X88513110Y-72991476D01*
X88743000Y-72870155D01*
X88743000Y-71677000D01*
X88997000Y-71677000D01*
X88997000Y-72870155D01*
X89226890Y-72991476D01*
X89374099Y-72946825D01*
X89636920Y-72821641D01*
X89870269Y-72647588D01*
X90065178Y-72431355D01*
X90214157Y-72181252D01*
X90311481Y-71906891D01*
X90190814Y-71677000D01*
X88997000Y-71677000D01*
X88743000Y-71677000D01*
X88723000Y-71677000D01*
X88723000Y-71423000D01*
X88743000Y-71423000D01*
X88743000Y-70229845D01*
X88997000Y-70229845D01*
X88997000Y-71423000D01*
X90190814Y-71423000D01*
X90311481Y-71193109D01*
X90214157Y-70918748D01*
X90065178Y-70668645D01*
X89870269Y-70452412D01*
X89636920Y-70278359D01*
X89374099Y-70153175D01*
X89226890Y-70108524D01*
X88997000Y-70229845D01*
X88743000Y-70229845D01*
X88513110Y-70108524D01*
X88365901Y-70153175D01*
X88103080Y-70278359D01*
X87869731Y-70452412D01*
X87674822Y-70668645D01*
X87605201Y-70785523D01*
X87570706Y-70720986D01*
X87385134Y-70494866D01*
X87159014Y-70309294D01*
X86901034Y-70171401D01*
X86621111Y-70086487D01*
X86402950Y-70065000D01*
X86257050Y-70065000D01*
X86038889Y-70086487D01*
X85758966Y-70171401D01*
X85500986Y-70309294D01*
X85274866Y-70494866D01*
X85235000Y-70543443D01*
X85235000Y-69519614D01*
X85293387Y-69488405D01*
X85427962Y-69377962D01*
X85500000Y-69290184D01*
X85572038Y-69377962D01*
X85706613Y-69488405D01*
X85860149Y-69570472D01*
X86026745Y-69621008D01*
X86199999Y-69638072D01*
X86850001Y-69638072D01*
X87023255Y-69621008D01*
X87189851Y-69570472D01*
X87343387Y-69488405D01*
X87477962Y-69377962D01*
X87559115Y-69279077D01*
X87598102Y-69295226D01*
X87798061Y-69335000D01*
X88001939Y-69335000D01*
X88201898Y-69295226D01*
X88390256Y-69217205D01*
X88559774Y-69103937D01*
X88703937Y-68959774D01*
X88817205Y-68790256D01*
X88895226Y-68601898D01*
X88935000Y-68401939D01*
X88935000Y-68198061D01*
X88895226Y-67998102D01*
X88817205Y-67809744D01*
X88703937Y-67640226D01*
X88559774Y-67496063D01*
X88390256Y-67382795D01*
X88201898Y-67304774D01*
X88001939Y-67265000D01*
X87798061Y-67265000D01*
X87598102Y-67304774D01*
X87559115Y-67320923D01*
X87477962Y-67222038D01*
X87343387Y-67111595D01*
X87317306Y-67097654D01*
X87344180Y-67089502D01*
X87454494Y-67030537D01*
X87551185Y-66951185D01*
X87630537Y-66854494D01*
X87689502Y-66744180D01*
X87725812Y-66624482D01*
X87738072Y-66500000D01*
X87735000Y-66085750D01*
X87576250Y-65927000D01*
X86652000Y-65927000D01*
X86652000Y-65947000D01*
X86398000Y-65947000D01*
X86398000Y-65927000D01*
X86378000Y-65927000D01*
X86378000Y-65673000D01*
X86398000Y-65673000D01*
X86398000Y-64623750D01*
X86652000Y-64623750D01*
X86652000Y-65673000D01*
X87576250Y-65673000D01*
X87735000Y-65514250D01*
X87738072Y-65100000D01*
X87725812Y-64975518D01*
X87689502Y-64855820D01*
X87630537Y-64745506D01*
X87551185Y-64648815D01*
X87454494Y-64569463D01*
X87344180Y-64510498D01*
X87224482Y-64474188D01*
X87100000Y-64461928D01*
X86810750Y-64465000D01*
X86652000Y-64623750D01*
X86398000Y-64623750D01*
X86239250Y-64465000D01*
X85950000Y-64461928D01*
X85825518Y-64474188D01*
X85705820Y-64510498D01*
X85595506Y-64569463D01*
X85498815Y-64648815D01*
X85433342Y-64728594D01*
X85427962Y-64722038D01*
X85293387Y-64611595D01*
X85139851Y-64529528D01*
X85004942Y-64488604D01*
X85105824Y-64337624D01*
X85191383Y-64131067D01*
X85235000Y-63911788D01*
X85235000Y-63688212D01*
X85191383Y-63468933D01*
X85114918Y-63284332D01*
X85123000Y-63276250D01*
X85123000Y-62327000D01*
X85103000Y-62327000D01*
X85103000Y-62073000D01*
X85123000Y-62073000D01*
X85123000Y-61123750D01*
X85114918Y-61115668D01*
X85191383Y-60931067D01*
X85235000Y-60711788D01*
X85235000Y-60488212D01*
X85191383Y-60268933D01*
X85105824Y-60062376D01*
X84981612Y-59876480D01*
X84823520Y-59718388D01*
X84637624Y-59594176D01*
X84431067Y-59508617D01*
X84211788Y-59465000D01*
X83988212Y-59465000D01*
X83768933Y-59508617D01*
X83562376Y-59594176D01*
X83376480Y-59718388D01*
X83218388Y-59876480D01*
X83094176Y-60062376D01*
X83008617Y-60268933D01*
X82965000Y-60488212D01*
X82965000Y-60711788D01*
X83008617Y-60931067D01*
X83010001Y-60934408D01*
X83010001Y-60961928D01*
X82600000Y-60961928D01*
X82500000Y-60971777D01*
X82400000Y-60961928D01*
X81990000Y-60961928D01*
X81990000Y-60934406D01*
X81991383Y-60931067D01*
X82035000Y-60711788D01*
X82035000Y-60488212D01*
X81991383Y-60268933D01*
X81905824Y-60062376D01*
X81781612Y-59876480D01*
X81623520Y-59718388D01*
X81437624Y-59594176D01*
X81231067Y-59508617D01*
X81011788Y-59465000D01*
X80788212Y-59465000D01*
X80568933Y-59508617D01*
X80362376Y-59594176D01*
X80176480Y-59718388D01*
X80018388Y-59876480D01*
X79894176Y-60062376D01*
X79808617Y-60268933D01*
X79765000Y-60488212D01*
X79765000Y-60711788D01*
X79808617Y-60931067D01*
X79885082Y-61115668D01*
X79877000Y-61123750D01*
X79877000Y-62073000D01*
X79897000Y-62073000D01*
X79897000Y-62327000D01*
X79877000Y-62327000D01*
X79877000Y-63276250D01*
X79885082Y-63284332D01*
X79808617Y-63468933D01*
X79765000Y-63688212D01*
X79765000Y-63911788D01*
X79808617Y-64131067D01*
X79894176Y-64337624D01*
X79995058Y-64488604D01*
X79860149Y-64529528D01*
X79706613Y-64611595D01*
X79572038Y-64722038D01*
X79566658Y-64728594D01*
X79501185Y-64648815D01*
X79404494Y-64569463D01*
X79294180Y-64510498D01*
X79174482Y-64474188D01*
X79050000Y-64461928D01*
X78760750Y-64465000D01*
X78602000Y-64623750D01*
X78602000Y-65673000D01*
X78622000Y-65673000D01*
X78622000Y-65927000D01*
X78602000Y-65927000D01*
X78602000Y-65947000D01*
X78348000Y-65947000D01*
X78348000Y-65927000D01*
X77423750Y-65927000D01*
X77265000Y-66085750D01*
X77261928Y-66500000D01*
X77274188Y-66624482D01*
X77310498Y-66744180D01*
X77369463Y-66854494D01*
X77448815Y-66951185D01*
X77545506Y-67030537D01*
X77655820Y-67089502D01*
X77682694Y-67097654D01*
X77656613Y-67111595D01*
X77522038Y-67222038D01*
X77471509Y-67283608D01*
X77401898Y-67254774D01*
X77201939Y-67215000D01*
X76998061Y-67215000D01*
X76798102Y-67254774D01*
X76609744Y-67332795D01*
X76440226Y-67446063D01*
X76296063Y-67590226D01*
X76182795Y-67759744D01*
X76104774Y-67948102D01*
X76065000Y-68148061D01*
X66660000Y-68148061D01*
X66660000Y-65100000D01*
X77261928Y-65100000D01*
X77265000Y-65514250D01*
X77423750Y-65673000D01*
X78348000Y-65673000D01*
X78348000Y-64623750D01*
X78189250Y-64465000D01*
X77900000Y-64461928D01*
X77775518Y-64474188D01*
X77655820Y-64510498D01*
X77545506Y-64569463D01*
X77448815Y-64648815D01*
X77369463Y-64745506D01*
X77310498Y-64855820D01*
X77274188Y-64975518D01*
X77261928Y-65100000D01*
X66660000Y-65100000D01*
X66660000Y-62904155D01*
X67021161Y-63444670D01*
X67555330Y-63978839D01*
X68183446Y-64398533D01*
X68881372Y-64687623D01*
X69622285Y-64835000D01*
X70377715Y-64835000D01*
X71118628Y-64687623D01*
X71816554Y-64398533D01*
X72444670Y-63978839D01*
X72978839Y-63444670D01*
X73209140Y-63100000D01*
X74161928Y-63100000D01*
X74174188Y-63224482D01*
X74210498Y-63344180D01*
X74269463Y-63454494D01*
X74348815Y-63551185D01*
X74445506Y-63630537D01*
X74555820Y-63689502D01*
X74675518Y-63725812D01*
X74800000Y-63738072D01*
X75214250Y-63735000D01*
X75373000Y-63576250D01*
X75373000Y-62652000D01*
X75627000Y-62652000D01*
X75627000Y-63576250D01*
X75785750Y-63735000D01*
X76200000Y-63738072D01*
X76324482Y-63725812D01*
X76444180Y-63689502D01*
X76554494Y-63630537D01*
X76651185Y-63551185D01*
X76730537Y-63454494D01*
X76789502Y-63344180D01*
X76825812Y-63224482D01*
X76838072Y-63100000D01*
X76835000Y-62810750D01*
X76676250Y-62652000D01*
X75627000Y-62652000D01*
X75373000Y-62652000D01*
X74323750Y-62652000D01*
X74165000Y-62810750D01*
X74161928Y-63100000D01*
X73209140Y-63100000D01*
X73398533Y-62816554D01*
X73687623Y-62118628D01*
X73835000Y-61377715D01*
X73835000Y-60622285D01*
X73687623Y-59881372D01*
X73398533Y-59183446D01*
X72978839Y-58555330D01*
X72444670Y-58021161D01*
X71904155Y-57660000D01*
X77130952Y-57660000D01*
X77128558Y-57664479D01*
X77128558Y-57664479D01*
G37*
X77128558Y-57664479D02*
X77072313Y-57849893D01*
X77059999Y-57859999D01*
X77036201Y-57888997D01*
X75663271Y-59261928D01*
X75049999Y-59261928D01*
X74876745Y-59278992D01*
X74710149Y-59329528D01*
X74556613Y-59411595D01*
X74422038Y-59522038D01*
X74311595Y-59656613D01*
X74229528Y-59810149D01*
X74178992Y-59976745D01*
X74161928Y-60149999D01*
X74161928Y-60800001D01*
X74178992Y-60973255D01*
X74229528Y-61139851D01*
X74311595Y-61293387D01*
X74422038Y-61427962D01*
X74428594Y-61433342D01*
X74348815Y-61498815D01*
X74269463Y-61595506D01*
X74210498Y-61705820D01*
X74174188Y-61825518D01*
X74161928Y-61950000D01*
X74165000Y-62239250D01*
X74323750Y-62398000D01*
X75373000Y-62398000D01*
X75373000Y-62378000D01*
X75627000Y-62378000D01*
X75627000Y-62398000D01*
X76676250Y-62398000D01*
X76835000Y-62239250D01*
X76838072Y-61950000D01*
X76836201Y-61931003D01*
X76974223Y-62069025D01*
X76961323Y-62200000D01*
X76975997Y-62348986D01*
X77019454Y-62492247D01*
X77046067Y-62542036D01*
X77063795Y-62722027D01*
X77128558Y-62935521D01*
X77233727Y-63132279D01*
X77375261Y-63304738D01*
X77547720Y-63446272D01*
X77744478Y-63551441D01*
X77957972Y-63616204D01*
X78179999Y-63638072D01*
X78180001Y-63638072D01*
X78402028Y-63616204D01*
X78615522Y-63551441D01*
X78812280Y-63446272D01*
X78974404Y-63313219D01*
X78995506Y-63330537D01*
X79105820Y-63389502D01*
X79225518Y-63425812D01*
X79350000Y-63438072D01*
X79464250Y-63435000D01*
X79623000Y-63276250D01*
X79623000Y-62327000D01*
X79603000Y-62327000D01*
X79603000Y-62073000D01*
X79623000Y-62073000D01*
X79623000Y-61123750D01*
X79464250Y-60965000D01*
X79350000Y-60961928D01*
X79225518Y-60974188D01*
X79105820Y-61010498D01*
X78995506Y-61069463D01*
X78974404Y-61086781D01*
X78812280Y-60953728D01*
X78615522Y-60848559D01*
X78402028Y-60783796D01*
X78180001Y-60761928D01*
X78179999Y-60761928D01*
X77957972Y-60783796D01*
X77866382Y-60811580D01*
X77064801Y-60010000D01*
X77482255Y-59592546D01*
X77547720Y-59646272D01*
X77744478Y-59751441D01*
X77957972Y-59816204D01*
X78179999Y-59838072D01*
X78180001Y-59838072D01*
X78402028Y-59816204D01*
X78615522Y-59751441D01*
X78812280Y-59646272D01*
X78984739Y-59504738D01*
X79126273Y-59332279D01*
X79231442Y-59135521D01*
X79296205Y-58922027D01*
X79318073Y-58700000D01*
X79318073Y-58100000D01*
X79296205Y-57877973D01*
X79231442Y-57664479D01*
X79229048Y-57660000D01*
X85770952Y-57660000D01*
X85768558Y-57664479D01*
X85703795Y-57877973D01*
X85681927Y-58100000D01*
X85681927Y-58700000D01*
X85703795Y-58922027D01*
X85768558Y-59135521D01*
X85873727Y-59332279D01*
X86015261Y-59504738D01*
X86060001Y-59541455D01*
X86060000Y-61058545D01*
X86025596Y-61086781D01*
X86004494Y-61069463D01*
X85894180Y-61010498D01*
X85774482Y-60974188D01*
X85650000Y-60961928D01*
X85535750Y-60965000D01*
X85377000Y-61123750D01*
X85377000Y-62073000D01*
X85397000Y-62073000D01*
X85397000Y-62327000D01*
X85377000Y-62327000D01*
X85377000Y-63276250D01*
X85535750Y-63435000D01*
X85650000Y-63438072D01*
X85774482Y-63425812D01*
X85894180Y-63389502D01*
X86004494Y-63330537D01*
X86025596Y-63313219D01*
X86187720Y-63446272D01*
X86384478Y-63551441D01*
X86597972Y-63616204D01*
X86819999Y-63638072D01*
X86820001Y-63638072D01*
X87042028Y-63616204D01*
X87255522Y-63551441D01*
X87452280Y-63446272D01*
X87624739Y-63304738D01*
X87766273Y-63132279D01*
X87871442Y-62935521D01*
X87936205Y-62722027D01*
X87958073Y-62500000D01*
X87958073Y-61900000D01*
X87936205Y-61677973D01*
X87871442Y-61464479D01*
X87766273Y-61267721D01*
X87624739Y-61095262D01*
X87580000Y-61058546D01*
X87580000Y-59541454D01*
X87624739Y-59504738D01*
X87766273Y-59332279D01*
X87871442Y-59135521D01*
X87936205Y-58922027D01*
X87958073Y-58700000D01*
X87958073Y-58100000D01*
X87936205Y-57877973D01*
X87871442Y-57664479D01*
X87869048Y-57660000D01*
X93095845Y-57660000D01*
X92555330Y-58021161D01*
X92021161Y-58555330D01*
X91601467Y-59183446D01*
X91312377Y-59881372D01*
X91165000Y-60622285D01*
X91165000Y-61377715D01*
X91312377Y-62118628D01*
X91601467Y-62816554D01*
X92021161Y-63444670D01*
X92555330Y-63978839D01*
X93183446Y-64398533D01*
X93881372Y-64687623D01*
X94622285Y-64835000D01*
X95377715Y-64835000D01*
X96118628Y-64687623D01*
X96816554Y-64398533D01*
X97444670Y-63978839D01*
X97978839Y-63444670D01*
X98340001Y-62904154D01*
X98340000Y-72967721D01*
X98273286Y-73648126D01*
X98085057Y-74271570D01*
X97779323Y-74846573D01*
X97367721Y-75351248D01*
X96865933Y-75766362D01*
X96293077Y-76076104D01*
X95670961Y-76268682D01*
X94992417Y-76340000D01*
X70032279Y-76340000D01*
X69351874Y-76273286D01*
X68728430Y-76085057D01*
X68153427Y-75779323D01*
X67648752Y-75367721D01*
X67233638Y-74865933D01*
X66923896Y-74293077D01*
X66731318Y-73670961D01*
X66683900Y-73219808D01*
X90993529Y-73219808D01*
X90993636Y-73228743D01*
X90994441Y-73271247D01*
X90994442Y-73271314D01*
X90995117Y-73307025D01*
X90995429Y-73309690D01*
X90995240Y-73312371D01*
X90995547Y-73321302D01*
X90997171Y-73360681D01*
X90998123Y-73367485D01*
X90997881Y-73374362D01*
X90998503Y-73383277D01*
X91002188Y-73431299D01*
X91007290Y-73460272D01*
X91009369Y-73489624D01*
X91010929Y-73498423D01*
X91017207Y-73532459D01*
X91032278Y-73584840D01*
X91046048Y-73637615D01*
X91049196Y-73645978D01*
X91059562Y-73672949D01*
X91081868Y-73717444D01*
X91102383Y-73762790D01*
X91106898Y-73770502D01*
X91122850Y-73797321D01*
X91130234Y-73807357D01*
X91135964Y-73818427D01*
X91140879Y-73825890D01*
X91141559Y-73826907D01*
X91168280Y-73859474D01*
X91192866Y-73893675D01*
X91198812Y-73900346D01*
X91238092Y-73943800D01*
X91243474Y-73948696D01*
X91247931Y-73954439D01*
X91289628Y-73990674D01*
X91330494Y-74027844D01*
X91336719Y-74031598D01*
X91342211Y-74036370D01*
X91349532Y-74041495D01*
X91397593Y-74074638D01*
X91413283Y-74083332D01*
X91427604Y-74094118D01*
X91467798Y-74113538D01*
X91506848Y-74135175D01*
X91523915Y-74140652D01*
X91540070Y-74148457D01*
X91548479Y-74151482D01*
X91584060Y-74164003D01*
X91584060Y-74519136D01*
X91585642Y-74535268D01*
X91584877Y-74551454D01*
X91591725Y-74597303D01*
X91596249Y-74643446D01*
X91600933Y-74658960D01*
X91603327Y-74674990D01*
X91618953Y-74718644D01*
X91632351Y-74763021D01*
X91639959Y-74777330D01*
X91645421Y-74792589D01*
X91669221Y-74832365D01*
X91690990Y-74873307D01*
X91701236Y-74885869D01*
X91709555Y-74899773D01*
X91740634Y-74934176D01*
X91769935Y-74970102D01*
X91782418Y-74980429D01*
X91793286Y-74992459D01*
X91830469Y-75020180D01*
X91866177Y-75049720D01*
X91880427Y-75057425D01*
X91893426Y-75067116D01*
X91935287Y-75087087D01*
X91976050Y-75109128D01*
X91991526Y-75113919D01*
X92006159Y-75120900D01*
X92051087Y-75132356D01*
X92095370Y-75146064D01*
X92111492Y-75147758D01*
X92127193Y-75151762D01*
X92173484Y-75154274D01*
X92219592Y-75159120D01*
X92235728Y-75157652D01*
X92251915Y-75158530D01*
X92260840Y-75158078D01*
X92326788Y-75154282D01*
X92326863Y-75154278D01*
X92392878Y-75150477D01*
X92429369Y-75144765D01*
X92442815Y-75143753D01*
X92443076Y-75143836D01*
X92445304Y-75144086D01*
X92447449Y-75144750D01*
X92507316Y-75151042D01*
X92567203Y-75157760D01*
X92571518Y-75157790D01*
X92571671Y-75157806D01*
X92571824Y-75157792D01*
X92576139Y-75157822D01*
X92714456Y-75157822D01*
X92774394Y-75151945D01*
X92834380Y-75146486D01*
X92836535Y-75145852D01*
X92838766Y-75145633D01*
X92845306Y-75143658D01*
X92886035Y-75149260D01*
X92915702Y-75150416D01*
X92945097Y-75154610D01*
X92954027Y-75154940D01*
X93006814Y-75156525D01*
X93036410Y-75154517D01*
X93066054Y-75155560D01*
X93074968Y-75154939D01*
X93120176Y-75151471D01*
X93127824Y-75152876D01*
X93136734Y-75153562D01*
X93175231Y-75156258D01*
X93193166Y-75155759D01*
X93211005Y-75157760D01*
X93219941Y-75157822D01*
X93280297Y-75157822D01*
X93340235Y-75151945D01*
X93343012Y-75151692D01*
X93397104Y-75157760D01*
X93401419Y-75157790D01*
X93401572Y-75157806D01*
X93401725Y-75157792D01*
X93406040Y-75157822D01*
X93531782Y-75157822D01*
X93591720Y-75151945D01*
X93651706Y-75146486D01*
X93653861Y-75145852D01*
X93656092Y-75145633D01*
X93713673Y-75128248D01*
X93754499Y-75116233D01*
X93755874Y-75116764D01*
X93764501Y-75119096D01*
X93820005Y-75133691D01*
X93840352Y-75136961D01*
X93860086Y-75142863D01*
X93901877Y-75146851D01*
X93943328Y-75153513D01*
X93963912Y-75152770D01*
X93984427Y-75154727D01*
X93993362Y-75154641D01*
X94061633Y-75153509D01*
X94085843Y-75150729D01*
X94110203Y-75150854D01*
X94116587Y-75149624D01*
X94161824Y-75156046D01*
X94167927Y-75156267D01*
X94168060Y-75156285D01*
X94168187Y-75156277D01*
X94170755Y-75156370D01*
X94210896Y-75157547D01*
X94215814Y-75157210D01*
X94220718Y-75157760D01*
X94229654Y-75157822D01*
X94298812Y-75157822D01*
X94358750Y-75151945D01*
X94418736Y-75146486D01*
X94420891Y-75145852D01*
X94423122Y-75145633D01*
X94423961Y-75145380D01*
X94447732Y-75148046D01*
X94484839Y-75155150D01*
X94509661Y-75154993D01*
X94534328Y-75157760D01*
X94543264Y-75157822D01*
X94659007Y-75157822D01*
X94690237Y-75154760D01*
X94721620Y-75154752D01*
X94752248Y-75148679D01*
X94783317Y-75145633D01*
X94783871Y-75145466D01*
X94812164Y-75152455D01*
X94825179Y-75153064D01*
X94837952Y-75155674D01*
X94887463Y-75155976D01*
X94936933Y-75158290D01*
X94945854Y-75157771D01*
X95004105Y-75153980D01*
X95004146Y-75153978D01*
X95062449Y-75150185D01*
X95065941Y-75149612D01*
X95069486Y-75149689D01*
X95127578Y-75139494D01*
X95185706Y-75129952D01*
X95189023Y-75128710D01*
X95192512Y-75128098D01*
X95195251Y-75127038D01*
X95246493Y-75136167D01*
X95297516Y-75146971D01*
X95306404Y-75147898D01*
X95368057Y-75153894D01*
X95414575Y-75153857D01*
X95461033Y-75156147D01*
X95469956Y-75155651D01*
X95528573Y-75151985D01*
X95532067Y-75151420D01*
X95547923Y-75154200D01*
X95554320Y-75154060D01*
X95560651Y-75155040D01*
X95569576Y-75155476D01*
X95612115Y-75157260D01*
X95621075Y-75156759D01*
X95629996Y-75157760D01*
X95638932Y-75157822D01*
X95709052Y-75157822D01*
X95712244Y-75157509D01*
X95715437Y-75157790D01*
X95764416Y-75152494D01*
X95811361Y-75157760D01*
X95815676Y-75157790D01*
X95815829Y-75157806D01*
X95815982Y-75157792D01*
X95820297Y-75157822D01*
X95958614Y-75157822D01*
X96018552Y-75151945D01*
X96078538Y-75146486D01*
X96080693Y-75145852D01*
X96082924Y-75145633D01*
X96140505Y-75128248D01*
X96197308Y-75111530D01*
X96203867Y-75114279D01*
X96205372Y-75114732D01*
X96205455Y-75114766D01*
X96205551Y-75114785D01*
X96212425Y-75116852D01*
X96232764Y-75122813D01*
X96282075Y-75132161D01*
X96331015Y-75143405D01*
X96339886Y-75144484D01*
X96412508Y-75152808D01*
X96473602Y-75153809D01*
X96534869Y-75155056D01*
X96537278Y-75154852D01*
X96537398Y-75154854D01*
X96537524Y-75154831D01*
X96543774Y-75154302D01*
X96620458Y-75147277D01*
X96621269Y-75147122D01*
X96622089Y-75147125D01*
X96682603Y-75135384D01*
X96743137Y-75123799D01*
X96743897Y-75123491D01*
X96744708Y-75123334D01*
X96753255Y-75120724D01*
X96822520Y-75099043D01*
X96866625Y-75080339D01*
X96911522Y-75063675D01*
X96919529Y-75059707D01*
X96943929Y-75047401D01*
X96960505Y-75036897D01*
X96978340Y-75028705D01*
X96986026Y-75024147D01*
X97021013Y-75003066D01*
X97054218Y-74978344D01*
X97089001Y-74955855D01*
X97095956Y-74950245D01*
X97117160Y-74932900D01*
X97118808Y-74931258D01*
X97120723Y-74929962D01*
X97148004Y-74902396D01*
X97165996Y-74887724D01*
X97182286Y-74868035D01*
X97205659Y-74844756D01*
X97206952Y-74842833D01*
X97208585Y-74841183D01*
X97214172Y-74834209D01*
X97217302Y-74830246D01*
X97230292Y-74810013D01*
X97245620Y-74791487D01*
X97262660Y-74759978D01*
X97275352Y-74741100D01*
X97276881Y-74737447D01*
X97284784Y-74725138D01*
X97293594Y-74702774D01*
X97305035Y-74681618D01*
X97308441Y-74673356D01*
X97314298Y-74658862D01*
X97321526Y-74634309D01*
X97331542Y-74610743D01*
X97339126Y-74574520D01*
X97349571Y-74539040D01*
X97351892Y-74513551D01*
X97357140Y-74488488D01*
X97357545Y-74451481D01*
X97360899Y-74414648D01*
X97359520Y-74401518D01*
X97364373Y-74386162D01*
X97364583Y-74384272D01*
X97365146Y-74382453D01*
X97371472Y-74322261D01*
X97378165Y-74262020D01*
X97378187Y-74258377D01*
X97378202Y-74258231D01*
X97378188Y-74258081D01*
X97378218Y-74253084D01*
X97378148Y-74187069D01*
X97378134Y-74186924D01*
X97378135Y-74184782D01*
X97384443Y-74183628D01*
X97389696Y-74181552D01*
X97395232Y-74180438D01*
X97403760Y-74177770D01*
X97474748Y-74155013D01*
X97492249Y-74147449D01*
X97510610Y-74142329D01*
X97549465Y-74122719D01*
X97589403Y-74105457D01*
X97605092Y-74094644D01*
X97622118Y-74086051D01*
X97629631Y-74081212D01*
X97687353Y-74043468D01*
X97725437Y-74012870D01*
X97764801Y-73983917D01*
X97771406Y-73977899D01*
X97814643Y-73937951D01*
X97846288Y-73902390D01*
X97879570Y-73868325D01*
X97887742Y-73855805D01*
X97897677Y-73844641D01*
X97921810Y-73803613D01*
X97947844Y-73763730D01*
X97953430Y-73749859D01*
X97961006Y-73736979D01*
X97976711Y-73692046D01*
X97994502Y-73647866D01*
X97997286Y-73633178D01*
X98002218Y-73619068D01*
X98008899Y-73571918D01*
X98017765Y-73525145D01*
X98017644Y-73510199D01*
X98019741Y-73495397D01*
X98017138Y-73447873D01*
X98016751Y-73400243D01*
X98013726Y-73385592D01*
X98013174Y-73375515D01*
X98019443Y-73319629D01*
X98019473Y-73315314D01*
X98019489Y-73315161D01*
X98019475Y-73315008D01*
X98019505Y-73310693D01*
X98019505Y-73223492D01*
X98018828Y-73216588D01*
X98019356Y-73209667D01*
X98019100Y-73200735D01*
X98017459Y-73154614D01*
X98015085Y-73136912D01*
X98015201Y-73119049D01*
X98014325Y-73110156D01*
X98009506Y-73064525D01*
X98003023Y-73033025D01*
X97999561Y-73001058D01*
X97997675Y-72992324D01*
X97990790Y-72961477D01*
X97973901Y-72910054D01*
X97958363Y-72858207D01*
X97954916Y-72849962D01*
X97949897Y-72838186D01*
X97920496Y-72784448D01*
X97891370Y-72730707D01*
X97890002Y-72728713D01*
X97889944Y-72728608D01*
X97889862Y-72728510D01*
X97886313Y-72723339D01*
X97849783Y-72670889D01*
X97837094Y-72656009D01*
X97826523Y-72639575D01*
X97796666Y-72608602D01*
X97768734Y-72575848D01*
X97753402Y-72563721D01*
X97739836Y-72549648D01*
X97732996Y-72543898D01*
X97680211Y-72500152D01*
X97667406Y-72491499D01*
X97656014Y-72481063D01*
X97615753Y-72456592D01*
X97576721Y-72430215D01*
X97562485Y-72424216D01*
X97549277Y-72416188D01*
X97541198Y-72412371D01*
X97479469Y-72383729D01*
X97424537Y-72364502D01*
X97369848Y-72344537D01*
X97361609Y-72342476D01*
X97361576Y-72342464D01*
X97361545Y-72342460D01*
X97361179Y-72342368D01*
X97328982Y-72334546D01*
X97272687Y-72326580D01*
X97216497Y-72317622D01*
X97207573Y-72317145D01*
X97130855Y-72313584D01*
X97100156Y-72315162D01*
X97069463Y-72313683D01*
X97037945Y-72318360D01*
X97006113Y-72319996D01*
X96976312Y-72327505D01*
X96945911Y-72332016D01*
X96937257Y-72334245D01*
X96883498Y-72348489D01*
X96877186Y-72346509D01*
X96883029Y-72336202D01*
X96889718Y-72316031D01*
X96898948Y-72296896D01*
X96909330Y-72256895D01*
X96922346Y-72217646D01*
X96924991Y-72196554D01*
X96930326Y-72175996D01*
X96932742Y-72134726D01*
X96937885Y-72093710D01*
X96936384Y-72072521D01*
X96937626Y-72051303D01*
X96931979Y-72010350D01*
X96929058Y-71969116D01*
X96927498Y-71960317D01*
X96926996Y-71957596D01*
X96922909Y-71943394D01*
X96920984Y-71928753D01*
X96905670Y-71883486D01*
X96892455Y-71837561D01*
X96885693Y-71824433D01*
X96880957Y-71810434D01*
X96877224Y-71802315D01*
X96866852Y-71780164D01*
X96855024Y-71760237D01*
X96845732Y-71739001D01*
X96841313Y-71731234D01*
X96819156Y-71692909D01*
X96815585Y-71687927D01*
X96812943Y-71682395D01*
X96808270Y-71674778D01*
X96802349Y-71665275D01*
X96820415Y-71661194D01*
X96827835Y-71658736D01*
X96835571Y-71657576D01*
X96844222Y-71655334D01*
X96881774Y-71645324D01*
X96912285Y-71633901D01*
X96920078Y-71631790D01*
X96926968Y-71630340D01*
X96929644Y-71629199D01*
X96943734Y-71625383D01*
X96952068Y-71622158D01*
X96969791Y-71615157D01*
X96989896Y-71604844D01*
X96998751Y-71601529D01*
X97008063Y-71595772D01*
X97041871Y-71581361D01*
X97060684Y-71568534D01*
X97080930Y-71558149D01*
X97112153Y-71533442D01*
X97145072Y-71510997D01*
X97161033Y-71494762D01*
X97178878Y-71480641D01*
X97194933Y-71461806D01*
X97194955Y-71461788D01*
X97195058Y-71461660D01*
X97204720Y-71450326D01*
X97232640Y-71421926D01*
X97245137Y-71402911D01*
X97259907Y-71385584D01*
X97268407Y-71370403D01*
X97273207Y-71364431D01*
X97283996Y-71343785D01*
X97301241Y-71317546D01*
X97305341Y-71309606D01*
X97308306Y-71303765D01*
X97314253Y-71288521D01*
X97320929Y-71276598D01*
X97323947Y-71267336D01*
X97331057Y-71253729D01*
X97340956Y-71220077D01*
X97353704Y-71187401D01*
X97358200Y-71162193D01*
X97359620Y-71157835D01*
X97359865Y-71155793D01*
X97366305Y-71133900D01*
X97367916Y-71125111D01*
X97372859Y-71097052D01*
X97374733Y-71072641D01*
X97379496Y-71048618D01*
X97380308Y-71039719D01*
X97384225Y-70993202D01*
X97384126Y-70986004D01*
X97385269Y-70978892D01*
X97385756Y-70969969D01*
X97388645Y-70909355D01*
X97388528Y-70907020D01*
X97388851Y-70904695D01*
X97389148Y-70895764D01*
X97391004Y-70825410D01*
X97390968Y-70824912D01*
X97391031Y-70824404D01*
X97391189Y-70815469D01*
X97392008Y-70739943D01*
X97392009Y-70739931D01*
X97392045Y-70730995D01*
X97391829Y-70654236D01*
X97391818Y-70654126D01*
X97391829Y-70654009D01*
X97391738Y-70645074D01*
X97390480Y-70571648D01*
X97390336Y-70570403D01*
X97390433Y-70569145D01*
X97390182Y-70560212D01*
X97387880Y-70494480D01*
X97387314Y-70490238D01*
X97387525Y-70485963D01*
X97387031Y-70477041D01*
X97383683Y-70423361D01*
X97381576Y-70410308D01*
X97381500Y-70397080D01*
X97380514Y-70388198D01*
X97376116Y-70350928D01*
X97366452Y-70306717D01*
X97366219Y-70303334D01*
X97363584Y-70293598D01*
X97363310Y-70292341D01*
X97350967Y-70233673D01*
X97349476Y-70229054D01*
X97349443Y-70228903D01*
X97349382Y-70228764D01*
X97348222Y-70225169D01*
X97342770Y-70208666D01*
X97337194Y-70196073D01*
X97333593Y-70182764D01*
X97311939Y-70139032D01*
X97292202Y-70094454D01*
X97284285Y-70083181D01*
X97278168Y-70070828D01*
X97248436Y-70032139D01*
X97220413Y-69992239D01*
X97210458Y-69982720D01*
X97202058Y-69971789D01*
X97165390Y-69939623D01*
X97130138Y-69905914D01*
X97118514Y-69898504D01*
X97108159Y-69889420D01*
X97065945Y-69864991D01*
X97024814Y-69838769D01*
X97011981Y-69833761D01*
X97000051Y-69826857D01*
X96991891Y-69823215D01*
X96986326Y-69820777D01*
X96947318Y-69808059D01*
X96909253Y-69792748D01*
X96900659Y-69790298D01*
X96872973Y-69782614D01*
X96863938Y-69781035D01*
X96855292Y-69777978D01*
X96846602Y-69775896D01*
X96802403Y-69765631D01*
X96811895Y-69750722D01*
X96813892Y-69746782D01*
X96816568Y-69743269D01*
X96821210Y-69735633D01*
X96840447Y-69703484D01*
X96852475Y-69678033D01*
X96867166Y-69654023D01*
X96871007Y-69645955D01*
X96877869Y-69631280D01*
X96887644Y-69603615D01*
X96893817Y-69590554D01*
X96897594Y-69575512D01*
X96917232Y-69522364D01*
X96917956Y-69517830D01*
X96919483Y-69513510D01*
X96927797Y-69456245D01*
X96936940Y-69399023D01*
X96936770Y-69394437D01*
X96937429Y-69389899D01*
X96934461Y-69332077D01*
X96932317Y-69274202D01*
X96931260Y-69269739D01*
X96931025Y-69265158D01*
X96916876Y-69208995D01*
X96903536Y-69152657D01*
X96901633Y-69148485D01*
X96900512Y-69144036D01*
X96875750Y-69091744D01*
X96867230Y-69073069D01*
X96858534Y-69051951D01*
X96855540Y-69047441D01*
X96851697Y-69039017D01*
X96847158Y-69031319D01*
X96842390Y-69023359D01*
X96814953Y-68986309D01*
X96789447Y-68947892D01*
X96783753Y-68941005D01*
X96763809Y-68917221D01*
X96757845Y-68911376D01*
X96752951Y-68904609D01*
X96746987Y-68897955D01*
X96714267Y-68861960D01*
X96713487Y-68861255D01*
X96712854Y-68860410D01*
X96706775Y-68853860D01*
X96664283Y-68808704D01*
X96664192Y-68808625D01*
X96659686Y-68803870D01*
X96610426Y-68752603D01*
X96610310Y-68752504D01*
X96606934Y-68748997D01*
X96553908Y-68694670D01*
X96553789Y-68694570D01*
X96550757Y-68691464D01*
X96496972Y-68637128D01*
X96496848Y-68637025D01*
X96493583Y-68633730D01*
X96442039Y-68582433D01*
X96441929Y-68582343D01*
X96437700Y-68578156D01*
X96391401Y-68532948D01*
X96391192Y-68532780D01*
X96391012Y-68532567D01*
X96384569Y-68526375D01*
X96346520Y-68490308D01*
X96342257Y-68486993D01*
X96338645Y-68482967D01*
X96332014Y-68476976D01*
X96305219Y-68453098D01*
X96276557Y-68432194D01*
X96249759Y-68408936D01*
X96242434Y-68403817D01*
X96229894Y-68395181D01*
X96212965Y-68385815D01*
X96209817Y-68383519D01*
X96196972Y-68373963D01*
X96158167Y-68355498D01*
X96120600Y-68334713D01*
X96101920Y-68328732D01*
X96084184Y-68320292D01*
X96042531Y-68309716D01*
X96001643Y-68296624D01*
X95982146Y-68294384D01*
X95963120Y-68289553D01*
X95920234Y-68287270D01*
X95877554Y-68282366D01*
X95857987Y-68283956D01*
X95838390Y-68282913D01*
X95795871Y-68289004D01*
X95753058Y-68292484D01*
X95734176Y-68297843D01*
X95714746Y-68300627D01*
X95674222Y-68314860D01*
X95661831Y-68318377D01*
X95647842Y-68321801D01*
X95644831Y-68323202D01*
X95632898Y-68326589D01*
X95615417Y-68335514D01*
X95596898Y-68342018D01*
X95588823Y-68345844D01*
X95581861Y-68349202D01*
X95558935Y-68363170D01*
X95534595Y-68374496D01*
X95526932Y-68379093D01*
X95501371Y-68394667D01*
X95498816Y-68396589D01*
X95495940Y-68398012D01*
X95488389Y-68402791D01*
X95458820Y-68421792D01*
X95449037Y-68369901D01*
X95448842Y-68369233D01*
X95448779Y-68368542D01*
X95431309Y-68309185D01*
X95414029Y-68250001D01*
X95413710Y-68249388D01*
X95413513Y-68248718D01*
X95384824Y-68193842D01*
X95356400Y-68139184D01*
X95355966Y-68138642D01*
X95355644Y-68138026D01*
X95316898Y-68089835D01*
X95278344Y-68041670D01*
X95277814Y-68041223D01*
X95277378Y-68040681D01*
X95229929Y-68000867D01*
X95182834Y-67961176D01*
X95182228Y-67960841D01*
X95181694Y-67960393D01*
X95127266Y-67930471D01*
X95073508Y-67900766D01*
X95072851Y-67900556D01*
X95072238Y-67900219D01*
X95013191Y-67881489D01*
X94954531Y-67862741D01*
X94953840Y-67862662D01*
X94953178Y-67862452D01*
X94891776Y-67855564D01*
X94830434Y-67848549D01*
X94829742Y-67848606D01*
X94829051Y-67848528D01*
X94820115Y-67848466D01*
X94192460Y-67848466D01*
X94191771Y-67848534D01*
X94191077Y-67848467D01*
X94129264Y-67854663D01*
X94068150Y-67860655D01*
X94067490Y-67860854D01*
X94066794Y-67860924D01*
X94007414Y-67878992D01*
X93948575Y-67896757D01*
X93947963Y-67897082D01*
X93947297Y-67897285D01*
X93892669Y-67926482D01*
X93838289Y-67955396D01*
X93837752Y-67955834D01*
X93837138Y-67956162D01*
X93789126Y-67995493D01*
X93741494Y-68034341D01*
X93741054Y-68034873D01*
X93740513Y-68035316D01*
X93700974Y-68083321D01*
X93661876Y-68130583D01*
X93661548Y-68131190D01*
X93661103Y-68131730D01*
X93631721Y-68186354D01*
X93602468Y-68240456D01*
X93602263Y-68241119D01*
X93601933Y-68241732D01*
X93583752Y-68300916D01*
X93565532Y-68359776D01*
X93565460Y-68360465D01*
X93565255Y-68361131D01*
X93563538Y-68369901D01*
X93553766Y-68421737D01*
X93537648Y-68411278D01*
X93536706Y-68410790D01*
X93535873Y-68410130D01*
X93528327Y-68405343D01*
X93497791Y-68386268D01*
X93481810Y-68378338D01*
X93467084Y-68368253D01*
X93459223Y-68364003D01*
X93446457Y-68357214D01*
X93431826Y-68351182D01*
X93418229Y-68343084D01*
X93391882Y-68333713D01*
X93385904Y-68330747D01*
X93375915Y-68328035D01*
X93374187Y-68327420D01*
X93330979Y-68309607D01*
X93315460Y-68306533D01*
X93300544Y-68301228D01*
X93254291Y-68294417D01*
X93208453Y-68285337D01*
X93192627Y-68285336D01*
X93176970Y-68283030D01*
X93130299Y-68285331D01*
X93083547Y-68285327D01*
X93068016Y-68288401D01*
X93052216Y-68289180D01*
X93006882Y-68300502D01*
X92961018Y-68309580D01*
X92946383Y-68315611D01*
X92931031Y-68319445D01*
X92888747Y-68339362D01*
X92845533Y-68357170D01*
X92835539Y-68363809D01*
X92829765Y-68366284D01*
X92825740Y-68369040D01*
X92818034Y-68372670D01*
X92810392Y-68377303D01*
X92802551Y-68382131D01*
X92765310Y-68410421D01*
X92763319Y-68411784D01*
X92741492Y-68426284D01*
X92740041Y-68427724D01*
X92726706Y-68436856D01*
X92719902Y-68442648D01*
X92696464Y-68462881D01*
X92690634Y-68469004D01*
X92683857Y-68474057D01*
X92677291Y-68480118D01*
X92641822Y-68513323D01*
X92641106Y-68514138D01*
X92640237Y-68514810D01*
X92633778Y-68520985D01*
X92589282Y-68564112D01*
X92589200Y-68564208D01*
X92584491Y-68568805D01*
X92533976Y-68618804D01*
X92533874Y-68618927D01*
X92530409Y-68622363D01*
X92476878Y-68676188D01*
X92476778Y-68676311D01*
X92473706Y-68679400D01*
X92420165Y-68734000D01*
X92420067Y-68734121D01*
X92416805Y-68737452D01*
X92366259Y-68789780D01*
X92366172Y-68789889D01*
X92362036Y-68794194D01*
X92317491Y-68841199D01*
X92317318Y-68841422D01*
X92317100Y-68841611D01*
X92311005Y-68848146D01*
X92275466Y-68886781D01*
X92272204Y-68891108D01*
X92268221Y-68894791D01*
X92262330Y-68901510D01*
X92238803Y-68928726D01*
X92218452Y-68957530D01*
X92208479Y-68969360D01*
X92202862Y-68975484D01*
X92201679Y-68977428D01*
X92195712Y-68984506D01*
X92190698Y-68991904D01*
X92182188Y-69004650D01*
X92172949Y-69021932D01*
X92166727Y-69030738D01*
X92159871Y-69046105D01*
X92137913Y-69082176D01*
X92131744Y-69099007D01*
X92123299Y-69114803D01*
X92110301Y-69157505D01*
X92094926Y-69199452D01*
X92092143Y-69217163D01*
X92086928Y-69234296D01*
X92082471Y-69278710D01*
X92075536Y-69322844D01*
X92076246Y-69340750D01*
X92074457Y-69358578D01*
X92078715Y-69403036D01*
X92080484Y-69447653D01*
X92084658Y-69465079D01*
X92086366Y-69482915D01*
X92099091Y-69525411D01*
X92105390Y-69555824D01*
X92107704Y-69561301D01*
X92109577Y-69569123D01*
X92112556Y-69577548D01*
X92114535Y-69583024D01*
X92119405Y-69593248D01*
X92122197Y-69602572D01*
X92136810Y-69630205D01*
X92153994Y-69670885D01*
X92158313Y-69678708D01*
X92172020Y-69703135D01*
X92177819Y-69711448D01*
X92182182Y-69720591D01*
X92186852Y-69728210D01*
X92210191Y-69765693D01*
X92193075Y-69769483D01*
X92189313Y-69770712D01*
X92185387Y-69771235D01*
X92176702Y-69773335D01*
X92139216Y-69782676D01*
X92115864Y-69790988D01*
X92091685Y-69796492D01*
X92083227Y-69799376D01*
X92066764Y-69805117D01*
X92035377Y-69819636D01*
X92021542Y-69824561D01*
X92013388Y-69829420D01*
X91975578Y-69845119D01*
X91964969Y-69852207D01*
X91953400Y-69857559D01*
X91913153Y-69886827D01*
X91871720Y-69914509D01*
X91862688Y-69923524D01*
X91852381Y-69931020D01*
X91824008Y-69961686D01*
X91817298Y-69967316D01*
X91811114Y-69975006D01*
X91783319Y-70002752D01*
X91776217Y-70013339D01*
X91767553Y-70022704D01*
X91750658Y-70050193D01*
X91739028Y-70064657D01*
X91729247Y-70083365D01*
X91713740Y-70106483D01*
X91709565Y-70114385D01*
X91706608Y-70120076D01*
X91704542Y-70125227D01*
X91702151Y-70129118D01*
X91694366Y-70150079D01*
X91681155Y-70175347D01*
X91672080Y-70206177D01*
X91660117Y-70236008D01*
X91654487Y-70265943D01*
X91645884Y-70295169D01*
X91644271Y-70303959D01*
X91639366Y-70331769D01*
X91637467Y-70356441D01*
X91637165Y-70358043D01*
X91632645Y-70380963D01*
X91631842Y-70389863D01*
X91627988Y-70436183D01*
X91628095Y-70443467D01*
X91626947Y-70450671D01*
X91626471Y-70459594D01*
X91623666Y-70520064D01*
X91623787Y-70522421D01*
X91623465Y-70524762D01*
X91623180Y-70533694D01*
X91621420Y-70603957D01*
X91621457Y-70604467D01*
X91621395Y-70604978D01*
X91621248Y-70613913D01*
X91620532Y-70689421D01*
X91620531Y-70689428D01*
X91620531Y-70689509D01*
X91620530Y-70689610D01*
X91620530Y-70689616D01*
X91620507Y-70698364D01*
X91620829Y-70775138D01*
X91620839Y-70775235D01*
X91620829Y-70775342D01*
X91620932Y-70784277D01*
X91622290Y-70857769D01*
X91622433Y-70858998D01*
X91622340Y-70860235D01*
X91622602Y-70869167D01*
X91624993Y-70935017D01*
X91625560Y-70939220D01*
X91625355Y-70943459D01*
X91625860Y-70952381D01*
X91629282Y-71006233D01*
X91631379Y-71019129D01*
X91631463Y-71032195D01*
X91632455Y-71041076D01*
X91636905Y-71078569D01*
X91649443Y-71135743D01*
X91658299Y-71178626D01*
X91658934Y-71182579D01*
X91659344Y-71183687D01*
X91661295Y-71193132D01*
X91663645Y-71200508D01*
X91663660Y-71200576D01*
X91663685Y-71200634D01*
X91664008Y-71201647D01*
X91669482Y-71218424D01*
X91687082Y-71258576D01*
X91702317Y-71299709D01*
X91712111Y-71315677D01*
X91719627Y-71332823D01*
X91744691Y-71368792D01*
X91767625Y-71406182D01*
X91780333Y-71419942D01*
X91791037Y-71435303D01*
X91822624Y-71465733D01*
X91852371Y-71497942D01*
X91867498Y-71508963D01*
X91880991Y-71521962D01*
X91917887Y-71545676D01*
X91953323Y-71571494D01*
X91961056Y-71575972D01*
X91964378Y-71577865D01*
X91976161Y-71583130D01*
X91986066Y-71589496D01*
X92022514Y-71603876D01*
X92073492Y-71627153D01*
X92078281Y-71628759D01*
X92078418Y-71628820D01*
X92078561Y-71628853D01*
X92081965Y-71629994D01*
X92106738Y-71638111D01*
X92124821Y-71642134D01*
X92142190Y-71648604D01*
X92150845Y-71650831D01*
X92193821Y-71661571D01*
X92199357Y-71662392D01*
X92204658Y-71664179D01*
X92209798Y-71665331D01*
X92196403Y-71686946D01*
X92193161Y-71693538D01*
X92188833Y-71699478D01*
X92184355Y-71707211D01*
X92165035Y-71741113D01*
X92150802Y-71772965D01*
X92147251Y-71779362D01*
X92142485Y-71786893D01*
X92141142Y-71790368D01*
X92133872Y-71803465D01*
X92130376Y-71811689D01*
X92123385Y-71828456D01*
X92117667Y-71847121D01*
X92114078Y-71855152D01*
X92111142Y-71867996D01*
X92097459Y-71903402D01*
X92093507Y-71925979D01*
X92086796Y-71947883D01*
X92082764Y-71987344D01*
X92075921Y-72026437D01*
X92076429Y-72049352D01*
X92074101Y-72072142D01*
X92076022Y-72092598D01*
X92075811Y-72095520D01*
X92077811Y-72111662D01*
X92078691Y-72151312D01*
X92083638Y-72173680D01*
X92085781Y-72196501D01*
X92090142Y-72211162D01*
X92091173Y-72219478D01*
X92099031Y-72243287D01*
X92105662Y-72273271D01*
X92108494Y-72281747D01*
X92110000Y-72286156D01*
X92117079Y-72301711D01*
X92121396Y-72316222D01*
X92125971Y-72324912D01*
X92126949Y-72327874D01*
X92104136Y-72329950D01*
X92101981Y-72330584D01*
X92099750Y-72330803D01*
X92077155Y-72337625D01*
X92073638Y-72337190D01*
X92045884Y-72330703D01*
X92037018Y-72329591D01*
X91955318Y-72319914D01*
X91912672Y-72319054D01*
X91870154Y-72315547D01*
X91861220Y-72315748D01*
X91830354Y-72316656D01*
X91788967Y-72321947D01*
X91747308Y-72324537D01*
X91738496Y-72326021D01*
X91675196Y-72337135D01*
X91647305Y-72344901D01*
X91618765Y-72349695D01*
X91587288Y-72361611D01*
X91554867Y-72370638D01*
X91529030Y-72383665D01*
X91501950Y-72393917D01*
X91493970Y-72397938D01*
X91442209Y-72424466D01*
X91422794Y-72436947D01*
X91401985Y-72446945D01*
X91370369Y-72470650D01*
X91337141Y-72492011D01*
X91320523Y-72508022D01*
X91302049Y-72521874D01*
X91295499Y-72527953D01*
X91247242Y-72573367D01*
X91236534Y-72585625D01*
X91234693Y-72587077D01*
X91224342Y-72599178D01*
X91203248Y-72619087D01*
X91197426Y-72625867D01*
X91189708Y-72634982D01*
X91175630Y-72655347D01*
X91165069Y-72667437D01*
X91163239Y-72670615D01*
X91153504Y-72681996D01*
X91148437Y-72689357D01*
X91127621Y-72720054D01*
X91125857Y-72723297D01*
X91123536Y-72726155D01*
X91096035Y-72778128D01*
X91067942Y-72829780D01*
X91066845Y-72833293D01*
X91065118Y-72836557D01*
X91061788Y-72844850D01*
X91048107Y-72879608D01*
X91031474Y-72938061D01*
X91014500Y-72996592D01*
X91013958Y-72999615D01*
X91013921Y-72999745D01*
X91013910Y-72999885D01*
X91012923Y-73005387D01*
X91005337Y-73049436D01*
X91002697Y-73085636D01*
X90997097Y-73121498D01*
X90996649Y-73130423D01*
X90994118Y-73188988D01*
X90994961Y-73204419D01*
X90993529Y-73219808D01*
X66683900Y-73219808D01*
X66660000Y-72992417D01*
X66660000Y-72400000D01*
X74681928Y-72400000D01*
X74694188Y-72524482D01*
X74730498Y-72644180D01*
X74789463Y-72754494D01*
X74868815Y-72851185D01*
X74965506Y-72930537D01*
X75075820Y-72989502D01*
X75195518Y-73025812D01*
X75320000Y-73038072D01*
X75884250Y-73035000D01*
X76043000Y-72876250D01*
X76043000Y-71677000D01*
X74843750Y-71677000D01*
X74685000Y-71835750D01*
X74681928Y-72400000D01*
X66660000Y-72400000D01*
X66660000Y-70700000D01*
X74681928Y-70700000D01*
X74685000Y-71264250D01*
X74843750Y-71423000D01*
X76043000Y-71423000D01*
X76043000Y-70223750D01*
X75884250Y-70065000D01*
X75320000Y-70061928D01*
X75195518Y-70074188D01*
X75075820Y-70110498D01*
X74965506Y-70169463D01*
X74868815Y-70248815D01*
X74789463Y-70345506D01*
X74730498Y-70455820D01*
X74694188Y-70575518D01*
X74681928Y-70700000D01*
X66660000Y-70700000D01*
X66660000Y-68148061D01*
X76065000Y-68148061D01*
X76065000Y-68351939D01*
X76104774Y-68551898D01*
X76182795Y-68740256D01*
X76296063Y-68909774D01*
X76440226Y-69053937D01*
X76609744Y-69167205D01*
X76798102Y-69245226D01*
X76998061Y-69285000D01*
X77201939Y-69285000D01*
X77401898Y-69245226D01*
X77410642Y-69241604D01*
X77411595Y-69243387D01*
X77522038Y-69377962D01*
X77656613Y-69488405D01*
X77810149Y-69570472D01*
X77976745Y-69621008D01*
X78149999Y-69638072D01*
X78800001Y-69638072D01*
X78973255Y-69621008D01*
X79139851Y-69570472D01*
X79293387Y-69488405D01*
X79427962Y-69377962D01*
X79500000Y-69290184D01*
X79572038Y-69377962D01*
X79706613Y-69488405D01*
X79765000Y-69519614D01*
X79765001Y-70494757D01*
X79539014Y-70309294D01*
X79281034Y-70171401D01*
X79001111Y-70086487D01*
X78782950Y-70065000D01*
X78637050Y-70065000D01*
X78418889Y-70086487D01*
X78138966Y-70171401D01*
X77880986Y-70309294D01*
X77654866Y-70494866D01*
X77630393Y-70524687D01*
X77609502Y-70455820D01*
X77550537Y-70345506D01*
X77471185Y-70248815D01*
X77374494Y-70169463D01*
X77264180Y-70110498D01*
X77144482Y-70074188D01*
X77020000Y-70061928D01*
X76455750Y-70065000D01*
X76297000Y-70223750D01*
X76297000Y-71423000D01*
X76317000Y-71423000D01*
X76317000Y-71677000D01*
X76297000Y-71677000D01*
X76297000Y-72876250D01*
X76455750Y-73035000D01*
X77020000Y-73038072D01*
X77144482Y-73025812D01*
X77264180Y-72989502D01*
X77374494Y-72930537D01*
X77471185Y-72851185D01*
X77550537Y-72754494D01*
X77609502Y-72644180D01*
X77630393Y-72575313D01*
X77654866Y-72605134D01*
X77880986Y-72790706D01*
X78138966Y-72928599D01*
X78418889Y-73013513D01*
X78637050Y-73035000D01*
X78782950Y-73035000D01*
X79001111Y-73013513D01*
X79281034Y-72928599D01*
X79539014Y-72790706D01*
X79765134Y-72605134D01*
X79950706Y-72379014D01*
X79980000Y-72324209D01*
X80009294Y-72379014D01*
X80194866Y-72605134D01*
X80420986Y-72790706D01*
X80678966Y-72928599D01*
X80958889Y-73013513D01*
X81177050Y-73035000D01*
X81322950Y-73035000D01*
X81541111Y-73013513D01*
X81821034Y-72928599D01*
X82079014Y-72790706D01*
X82305134Y-72605134D01*
X82490706Y-72379014D01*
X82520000Y-72324209D01*
X82549294Y-72379014D01*
X82734866Y-72605134D01*
X82960986Y-72790706D01*
X83218966Y-72928599D01*
X83498889Y-73013513D01*
X83717050Y-73035000D01*
X83862950Y-73035000D01*
X84081111Y-73013513D01*
X84361034Y-72928599D01*
X84619014Y-72790706D01*
X84845134Y-72605134D01*
X85030706Y-72379014D01*
X85060000Y-72324209D01*
X85089294Y-72379014D01*
X85274866Y-72605134D01*
X85500986Y-72790706D01*
X85758966Y-72928599D01*
X86038889Y-73013513D01*
X86257050Y-73035000D01*
X86402950Y-73035000D01*
X86621111Y-73013513D01*
X86901034Y-72928599D01*
X87159014Y-72790706D01*
X87385134Y-72605134D01*
X87570706Y-72379014D01*
X87605201Y-72314477D01*
X87674822Y-72431355D01*
X87869731Y-72647588D01*
X88103080Y-72821641D01*
X88365901Y-72946825D01*
X88513110Y-72991476D01*
X88743000Y-72870155D01*
X88743000Y-71677000D01*
X88997000Y-71677000D01*
X88997000Y-72870155D01*
X89226890Y-72991476D01*
X89374099Y-72946825D01*
X89636920Y-72821641D01*
X89870269Y-72647588D01*
X90065178Y-72431355D01*
X90214157Y-72181252D01*
X90311481Y-71906891D01*
X90190814Y-71677000D01*
X88997000Y-71677000D01*
X88743000Y-71677000D01*
X88723000Y-71677000D01*
X88723000Y-71423000D01*
X88743000Y-71423000D01*
X88743000Y-70229845D01*
X88997000Y-70229845D01*
X88997000Y-71423000D01*
X90190814Y-71423000D01*
X90311481Y-71193109D01*
X90214157Y-70918748D01*
X90065178Y-70668645D01*
X89870269Y-70452412D01*
X89636920Y-70278359D01*
X89374099Y-70153175D01*
X89226890Y-70108524D01*
X88997000Y-70229845D01*
X88743000Y-70229845D01*
X88513110Y-70108524D01*
X88365901Y-70153175D01*
X88103080Y-70278359D01*
X87869731Y-70452412D01*
X87674822Y-70668645D01*
X87605201Y-70785523D01*
X87570706Y-70720986D01*
X87385134Y-70494866D01*
X87159014Y-70309294D01*
X86901034Y-70171401D01*
X86621111Y-70086487D01*
X86402950Y-70065000D01*
X86257050Y-70065000D01*
X86038889Y-70086487D01*
X85758966Y-70171401D01*
X85500986Y-70309294D01*
X85274866Y-70494866D01*
X85235000Y-70543443D01*
X85235000Y-69519614D01*
X85293387Y-69488405D01*
X85427962Y-69377962D01*
X85500000Y-69290184D01*
X85572038Y-69377962D01*
X85706613Y-69488405D01*
X85860149Y-69570472D01*
X86026745Y-69621008D01*
X86199999Y-69638072D01*
X86850001Y-69638072D01*
X87023255Y-69621008D01*
X87189851Y-69570472D01*
X87343387Y-69488405D01*
X87477962Y-69377962D01*
X87559115Y-69279077D01*
X87598102Y-69295226D01*
X87798061Y-69335000D01*
X88001939Y-69335000D01*
X88201898Y-69295226D01*
X88390256Y-69217205D01*
X88559774Y-69103937D01*
X88703937Y-68959774D01*
X88817205Y-68790256D01*
X88895226Y-68601898D01*
X88935000Y-68401939D01*
X88935000Y-68198061D01*
X88895226Y-67998102D01*
X88817205Y-67809744D01*
X88703937Y-67640226D01*
X88559774Y-67496063D01*
X88390256Y-67382795D01*
X88201898Y-67304774D01*
X88001939Y-67265000D01*
X87798061Y-67265000D01*
X87598102Y-67304774D01*
X87559115Y-67320923D01*
X87477962Y-67222038D01*
X87343387Y-67111595D01*
X87317306Y-67097654D01*
X87344180Y-67089502D01*
X87454494Y-67030537D01*
X87551185Y-66951185D01*
X87630537Y-66854494D01*
X87689502Y-66744180D01*
X87725812Y-66624482D01*
X87738072Y-66500000D01*
X87735000Y-66085750D01*
X87576250Y-65927000D01*
X86652000Y-65927000D01*
X86652000Y-65947000D01*
X86398000Y-65947000D01*
X86398000Y-65927000D01*
X86378000Y-65927000D01*
X86378000Y-65673000D01*
X86398000Y-65673000D01*
X86398000Y-64623750D01*
X86652000Y-64623750D01*
X86652000Y-65673000D01*
X87576250Y-65673000D01*
X87735000Y-65514250D01*
X87738072Y-65100000D01*
X87725812Y-64975518D01*
X87689502Y-64855820D01*
X87630537Y-64745506D01*
X87551185Y-64648815D01*
X87454494Y-64569463D01*
X87344180Y-64510498D01*
X87224482Y-64474188D01*
X87100000Y-64461928D01*
X86810750Y-64465000D01*
X86652000Y-64623750D01*
X86398000Y-64623750D01*
X86239250Y-64465000D01*
X85950000Y-64461928D01*
X85825518Y-64474188D01*
X85705820Y-64510498D01*
X85595506Y-64569463D01*
X85498815Y-64648815D01*
X85433342Y-64728594D01*
X85427962Y-64722038D01*
X85293387Y-64611595D01*
X85139851Y-64529528D01*
X85004942Y-64488604D01*
X85105824Y-64337624D01*
X85191383Y-64131067D01*
X85235000Y-63911788D01*
X85235000Y-63688212D01*
X85191383Y-63468933D01*
X85114918Y-63284332D01*
X85123000Y-63276250D01*
X85123000Y-62327000D01*
X85103000Y-62327000D01*
X85103000Y-62073000D01*
X85123000Y-62073000D01*
X85123000Y-61123750D01*
X85114918Y-61115668D01*
X85191383Y-60931067D01*
X85235000Y-60711788D01*
X85235000Y-60488212D01*
X85191383Y-60268933D01*
X85105824Y-60062376D01*
X84981612Y-59876480D01*
X84823520Y-59718388D01*
X84637624Y-59594176D01*
X84431067Y-59508617D01*
X84211788Y-59465000D01*
X83988212Y-59465000D01*
X83768933Y-59508617D01*
X83562376Y-59594176D01*
X83376480Y-59718388D01*
X83218388Y-59876480D01*
X83094176Y-60062376D01*
X83008617Y-60268933D01*
X82965000Y-60488212D01*
X82965000Y-60711788D01*
X83008617Y-60931067D01*
X83010001Y-60934408D01*
X83010001Y-60961928D01*
X82600000Y-60961928D01*
X82500000Y-60971777D01*
X82400000Y-60961928D01*
X81990000Y-60961928D01*
X81990000Y-60934406D01*
X81991383Y-60931067D01*
X82035000Y-60711788D01*
X82035000Y-60488212D01*
X81991383Y-60268933D01*
X81905824Y-60062376D01*
X81781612Y-59876480D01*
X81623520Y-59718388D01*
X81437624Y-59594176D01*
X81231067Y-59508617D01*
X81011788Y-59465000D01*
X80788212Y-59465000D01*
X80568933Y-59508617D01*
X80362376Y-59594176D01*
X80176480Y-59718388D01*
X80018388Y-59876480D01*
X79894176Y-60062376D01*
X79808617Y-60268933D01*
X79765000Y-60488212D01*
X79765000Y-60711788D01*
X79808617Y-60931067D01*
X79885082Y-61115668D01*
X79877000Y-61123750D01*
X79877000Y-62073000D01*
X79897000Y-62073000D01*
X79897000Y-62327000D01*
X79877000Y-62327000D01*
X79877000Y-63276250D01*
X79885082Y-63284332D01*
X79808617Y-63468933D01*
X79765000Y-63688212D01*
X79765000Y-63911788D01*
X79808617Y-64131067D01*
X79894176Y-64337624D01*
X79995058Y-64488604D01*
X79860149Y-64529528D01*
X79706613Y-64611595D01*
X79572038Y-64722038D01*
X79566658Y-64728594D01*
X79501185Y-64648815D01*
X79404494Y-64569463D01*
X79294180Y-64510498D01*
X79174482Y-64474188D01*
X79050000Y-64461928D01*
X78760750Y-64465000D01*
X78602000Y-64623750D01*
X78602000Y-65673000D01*
X78622000Y-65673000D01*
X78622000Y-65927000D01*
X78602000Y-65927000D01*
X78602000Y-65947000D01*
X78348000Y-65947000D01*
X78348000Y-65927000D01*
X77423750Y-65927000D01*
X77265000Y-66085750D01*
X77261928Y-66500000D01*
X77274188Y-66624482D01*
X77310498Y-66744180D01*
X77369463Y-66854494D01*
X77448815Y-66951185D01*
X77545506Y-67030537D01*
X77655820Y-67089502D01*
X77682694Y-67097654D01*
X77656613Y-67111595D01*
X77522038Y-67222038D01*
X77471509Y-67283608D01*
X77401898Y-67254774D01*
X77201939Y-67215000D01*
X76998061Y-67215000D01*
X76798102Y-67254774D01*
X76609744Y-67332795D01*
X76440226Y-67446063D01*
X76296063Y-67590226D01*
X76182795Y-67759744D01*
X76104774Y-67948102D01*
X76065000Y-68148061D01*
X66660000Y-68148061D01*
X66660000Y-65100000D01*
X77261928Y-65100000D01*
X77265000Y-65514250D01*
X77423750Y-65673000D01*
X78348000Y-65673000D01*
X78348000Y-64623750D01*
X78189250Y-64465000D01*
X77900000Y-64461928D01*
X77775518Y-64474188D01*
X77655820Y-64510498D01*
X77545506Y-64569463D01*
X77448815Y-64648815D01*
X77369463Y-64745506D01*
X77310498Y-64855820D01*
X77274188Y-64975518D01*
X77261928Y-65100000D01*
X66660000Y-65100000D01*
X66660000Y-62904155D01*
X67021161Y-63444670D01*
X67555330Y-63978839D01*
X68183446Y-64398533D01*
X68881372Y-64687623D01*
X69622285Y-64835000D01*
X70377715Y-64835000D01*
X71118628Y-64687623D01*
X71816554Y-64398533D01*
X72444670Y-63978839D01*
X72978839Y-63444670D01*
X73209140Y-63100000D01*
X74161928Y-63100000D01*
X74174188Y-63224482D01*
X74210498Y-63344180D01*
X74269463Y-63454494D01*
X74348815Y-63551185D01*
X74445506Y-63630537D01*
X74555820Y-63689502D01*
X74675518Y-63725812D01*
X74800000Y-63738072D01*
X75214250Y-63735000D01*
X75373000Y-63576250D01*
X75373000Y-62652000D01*
X75627000Y-62652000D01*
X75627000Y-63576250D01*
X75785750Y-63735000D01*
X76200000Y-63738072D01*
X76324482Y-63725812D01*
X76444180Y-63689502D01*
X76554494Y-63630537D01*
X76651185Y-63551185D01*
X76730537Y-63454494D01*
X76789502Y-63344180D01*
X76825812Y-63224482D01*
X76838072Y-63100000D01*
X76835000Y-62810750D01*
X76676250Y-62652000D01*
X75627000Y-62652000D01*
X75373000Y-62652000D01*
X74323750Y-62652000D01*
X74165000Y-62810750D01*
X74161928Y-63100000D01*
X73209140Y-63100000D01*
X73398533Y-62816554D01*
X73687623Y-62118628D01*
X73835000Y-61377715D01*
X73835000Y-60622285D01*
X73687623Y-59881372D01*
X73398533Y-59183446D01*
X72978839Y-58555330D01*
X72444670Y-58021161D01*
X71904155Y-57660000D01*
X77130952Y-57660000D01*
X77128558Y-57664479D01*
G36*
X83261928Y-65661730D02*
G01*
X83261928Y-66250001D01*
X83278992Y-66423255D01*
X83329528Y-66589851D01*
X83411595Y-66743387D01*
X83522038Y-66877962D01*
X83656613Y-66988405D01*
X83715000Y-67019614D01*
X83715001Y-67080386D01*
X83656613Y-67111595D01*
X83522038Y-67222038D01*
X83411595Y-67356613D01*
X83329528Y-67510149D01*
X83278992Y-67676745D01*
X83261928Y-67849999D01*
X83261928Y-68750001D01*
X83278992Y-68923255D01*
X83329528Y-69089851D01*
X83411595Y-69243387D01*
X83522038Y-69377962D01*
X83656613Y-69488405D01*
X83715000Y-69519614D01*
X83715001Y-70065202D01*
X83498889Y-70086487D01*
X83218966Y-70171401D01*
X82960986Y-70309294D01*
X82734866Y-70494866D01*
X82549294Y-70720986D01*
X82520000Y-70775791D01*
X82490706Y-70720986D01*
X82305134Y-70494866D01*
X82079014Y-70309294D01*
X81821034Y-70171401D01*
X81541111Y-70086487D01*
X81322950Y-70065000D01*
X81285000Y-70065000D01*
X81285000Y-69519614D01*
X81343387Y-69488405D01*
X81477962Y-69377962D01*
X81588405Y-69243387D01*
X81670472Y-69089851D01*
X81721008Y-68923255D01*
X81738072Y-68750001D01*
X81738072Y-67849999D01*
X81721008Y-67676745D01*
X81670472Y-67510149D01*
X81588405Y-67356613D01*
X81477962Y-67222038D01*
X81343387Y-67111595D01*
X81285000Y-67080386D01*
X81285000Y-67019614D01*
X81343387Y-66988405D01*
X81477962Y-66877962D01*
X81588405Y-66743387D01*
X81670472Y-66589851D01*
X81721008Y-66423255D01*
X81738072Y-66250001D01*
X81738072Y-65661729D01*
X82500000Y-64899802D01*
X83261928Y-65661730D01*
X83261928Y-65661730D01*
G37*
X83261928Y-65661730D02*
X83261928Y-66250001D01*
X83278992Y-66423255D01*
X83329528Y-66589851D01*
X83411595Y-66743387D01*
X83522038Y-66877962D01*
X83656613Y-66988405D01*
X83715000Y-67019614D01*
X83715001Y-67080386D01*
X83656613Y-67111595D01*
X83522038Y-67222038D01*
X83411595Y-67356613D01*
X83329528Y-67510149D01*
X83278992Y-67676745D01*
X83261928Y-67849999D01*
X83261928Y-68750001D01*
X83278992Y-68923255D01*
X83329528Y-69089851D01*
X83411595Y-69243387D01*
X83522038Y-69377962D01*
X83656613Y-69488405D01*
X83715000Y-69519614D01*
X83715001Y-70065202D01*
X83498889Y-70086487D01*
X83218966Y-70171401D01*
X82960986Y-70309294D01*
X82734866Y-70494866D01*
X82549294Y-70720986D01*
X82520000Y-70775791D01*
X82490706Y-70720986D01*
X82305134Y-70494866D01*
X82079014Y-70309294D01*
X81821034Y-70171401D01*
X81541111Y-70086487D01*
X81322950Y-70065000D01*
X81285000Y-70065000D01*
X81285000Y-69519614D01*
X81343387Y-69488405D01*
X81477962Y-69377962D01*
X81588405Y-69243387D01*
X81670472Y-69089851D01*
X81721008Y-68923255D01*
X81738072Y-68750001D01*
X81738072Y-67849999D01*
X81721008Y-67676745D01*
X81670472Y-67510149D01*
X81588405Y-67356613D01*
X81477962Y-67222038D01*
X81343387Y-67111595D01*
X81285000Y-67080386D01*
X81285000Y-67019614D01*
X81343387Y-66988405D01*
X81477962Y-66877962D01*
X81588405Y-66743387D01*
X81670472Y-66589851D01*
X81721008Y-66423255D01*
X81738072Y-66250001D01*
X81738072Y-65661729D01*
X82500000Y-64899802D01*
X83261928Y-65661730D01*
M02*
