G04 #@! TF.GenerationSoftware,KiCad,Pcbnew,(5.1.2-1)-1*
G04 #@! TF.CreationDate,2020-04-24T16:50:01+02:00*
G04 #@! TF.ProjectId,USB-C-Power-tester,5553422d-432d-4506-9f77-65722d746573,rev?*
G04 #@! TF.SameCoordinates,Original*
G04 #@! TF.FileFunction,Copper,L2,Bot*
G04 #@! TF.FilePolarity,Positive*
%FSLAX46Y46*%
G04 Gerber Fmt 4.6, Leading zero omitted, Abs format (unit mm)*
G04 Created by KiCad (PCBNEW (5.1.2-1)-1) date 2020-04-24 16:50:01*
%MOMM*%
%LPD*%
G04 APERTURE LIST*
%ADD10C,0.100000*%
%ADD11C,1.000000*%
%ADD12C,6.400000*%
%ADD13C,0.800000*%
%ADD14O,1.700000X1.700000*%
%ADD15R,1.700000X1.700000*%
%ADD16C,0.250000*%
%ADD17C,0.254000*%
G04 APERTURE END LIST*
D10*
G36*
X86869010Y-61402408D02*
G01*
X86917546Y-61409607D01*
X86965143Y-61421530D01*
X87011343Y-61438060D01*
X87055699Y-61459039D01*
X87097786Y-61484265D01*
X87137198Y-61513495D01*
X87173554Y-61546447D01*
X87206506Y-61582803D01*
X87235736Y-61622215D01*
X87260962Y-61664302D01*
X87281941Y-61708658D01*
X87298471Y-61754858D01*
X87310394Y-61802455D01*
X87317593Y-61850991D01*
X87320001Y-61900000D01*
X87320001Y-62500000D01*
X87317593Y-62549009D01*
X87310394Y-62597545D01*
X87298471Y-62645142D01*
X87281941Y-62691342D01*
X87260962Y-62735698D01*
X87235736Y-62777785D01*
X87206506Y-62817197D01*
X87173554Y-62853553D01*
X87137198Y-62886505D01*
X87097786Y-62915735D01*
X87055699Y-62940961D01*
X87011343Y-62961940D01*
X86965143Y-62978470D01*
X86917546Y-62990393D01*
X86869010Y-62997592D01*
X86820001Y-63000000D01*
X86819999Y-63000000D01*
X86770990Y-62997592D01*
X86722454Y-62990393D01*
X86674857Y-62978470D01*
X86628657Y-62961940D01*
X86584301Y-62940961D01*
X86542214Y-62915735D01*
X86502802Y-62886505D01*
X86466446Y-62853553D01*
X86433494Y-62817197D01*
X86404264Y-62777785D01*
X86379038Y-62735698D01*
X86358059Y-62691342D01*
X86341529Y-62645142D01*
X86329606Y-62597545D01*
X86322407Y-62549009D01*
X86319999Y-62500000D01*
X86319999Y-61900000D01*
X86322407Y-61850991D01*
X86329606Y-61802455D01*
X86341529Y-61754858D01*
X86358059Y-61708658D01*
X86379038Y-61664302D01*
X86404264Y-61622215D01*
X86433494Y-61582803D01*
X86466446Y-61546447D01*
X86502802Y-61513495D01*
X86542214Y-61484265D01*
X86584301Y-61459039D01*
X86628657Y-61438060D01*
X86674857Y-61421530D01*
X86722454Y-61409607D01*
X86770990Y-61402408D01*
X86819999Y-61400000D01*
X86820001Y-61400000D01*
X86869010Y-61402408D01*
X86869010Y-61402408D01*
G37*
D11*
X86820000Y-62200000D03*
D10*
G36*
X78229010Y-61402408D02*
G01*
X78277546Y-61409607D01*
X78325143Y-61421530D01*
X78371343Y-61438060D01*
X78415699Y-61459039D01*
X78457786Y-61484265D01*
X78497198Y-61513495D01*
X78533554Y-61546447D01*
X78566506Y-61582803D01*
X78595736Y-61622215D01*
X78620962Y-61664302D01*
X78641941Y-61708658D01*
X78658471Y-61754858D01*
X78670394Y-61802455D01*
X78677593Y-61850991D01*
X78680001Y-61900000D01*
X78680001Y-62500000D01*
X78677593Y-62549009D01*
X78670394Y-62597545D01*
X78658471Y-62645142D01*
X78641941Y-62691342D01*
X78620962Y-62735698D01*
X78595736Y-62777785D01*
X78566506Y-62817197D01*
X78533554Y-62853553D01*
X78497198Y-62886505D01*
X78457786Y-62915735D01*
X78415699Y-62940961D01*
X78371343Y-62961940D01*
X78325143Y-62978470D01*
X78277546Y-62990393D01*
X78229010Y-62997592D01*
X78180001Y-63000000D01*
X78179999Y-63000000D01*
X78130990Y-62997592D01*
X78082454Y-62990393D01*
X78034857Y-62978470D01*
X77988657Y-62961940D01*
X77944301Y-62940961D01*
X77902214Y-62915735D01*
X77862802Y-62886505D01*
X77826446Y-62853553D01*
X77793494Y-62817197D01*
X77764264Y-62777785D01*
X77739038Y-62735698D01*
X77718059Y-62691342D01*
X77701529Y-62645142D01*
X77689606Y-62597545D01*
X77682407Y-62549009D01*
X77679999Y-62500000D01*
X77679999Y-61900000D01*
X77682407Y-61850991D01*
X77689606Y-61802455D01*
X77701529Y-61754858D01*
X77718059Y-61708658D01*
X77739038Y-61664302D01*
X77764264Y-61622215D01*
X77793494Y-61582803D01*
X77826446Y-61546447D01*
X77862802Y-61513495D01*
X77902214Y-61484265D01*
X77944301Y-61459039D01*
X77988657Y-61438060D01*
X78034857Y-61421530D01*
X78082454Y-61409607D01*
X78130990Y-61402408D01*
X78179999Y-61400000D01*
X78180001Y-61400000D01*
X78229010Y-61402408D01*
X78229010Y-61402408D01*
G37*
D11*
X78180000Y-62200000D03*
D10*
G36*
X78229010Y-57602408D02*
G01*
X78277546Y-57609607D01*
X78325143Y-57621530D01*
X78371343Y-57638060D01*
X78415699Y-57659039D01*
X78457786Y-57684265D01*
X78497198Y-57713495D01*
X78533554Y-57746447D01*
X78566506Y-57782803D01*
X78595736Y-57822215D01*
X78620962Y-57864302D01*
X78641941Y-57908658D01*
X78658471Y-57954858D01*
X78670394Y-58002455D01*
X78677593Y-58050991D01*
X78680001Y-58100000D01*
X78680001Y-58700000D01*
X78677593Y-58749009D01*
X78670394Y-58797545D01*
X78658471Y-58845142D01*
X78641941Y-58891342D01*
X78620962Y-58935698D01*
X78595736Y-58977785D01*
X78566506Y-59017197D01*
X78533554Y-59053553D01*
X78497198Y-59086505D01*
X78457786Y-59115735D01*
X78415699Y-59140961D01*
X78371343Y-59161940D01*
X78325143Y-59178470D01*
X78277546Y-59190393D01*
X78229010Y-59197592D01*
X78180001Y-59200000D01*
X78179999Y-59200000D01*
X78130990Y-59197592D01*
X78082454Y-59190393D01*
X78034857Y-59178470D01*
X77988657Y-59161940D01*
X77944301Y-59140961D01*
X77902214Y-59115735D01*
X77862802Y-59086505D01*
X77826446Y-59053553D01*
X77793494Y-59017197D01*
X77764264Y-58977785D01*
X77739038Y-58935698D01*
X77718059Y-58891342D01*
X77701529Y-58845142D01*
X77689606Y-58797545D01*
X77682407Y-58749009D01*
X77679999Y-58700000D01*
X77679999Y-58100000D01*
X77682407Y-58050991D01*
X77689606Y-58002455D01*
X77701529Y-57954858D01*
X77718059Y-57908658D01*
X77739038Y-57864302D01*
X77764264Y-57822215D01*
X77793494Y-57782803D01*
X77826446Y-57746447D01*
X77862802Y-57713495D01*
X77902214Y-57684265D01*
X77944301Y-57659039D01*
X77988657Y-57638060D01*
X78034857Y-57621530D01*
X78082454Y-57609607D01*
X78130990Y-57602408D01*
X78179999Y-57600000D01*
X78180001Y-57600000D01*
X78229010Y-57602408D01*
X78229010Y-57602408D01*
G37*
D11*
X78180000Y-58400000D03*
D10*
G36*
X86869010Y-57602408D02*
G01*
X86917546Y-57609607D01*
X86965143Y-57621530D01*
X87011343Y-57638060D01*
X87055699Y-57659039D01*
X87097786Y-57684265D01*
X87137198Y-57713495D01*
X87173554Y-57746447D01*
X87206506Y-57782803D01*
X87235736Y-57822215D01*
X87260962Y-57864302D01*
X87281941Y-57908658D01*
X87298471Y-57954858D01*
X87310394Y-58002455D01*
X87317593Y-58050991D01*
X87320001Y-58100000D01*
X87320001Y-58700000D01*
X87317593Y-58749009D01*
X87310394Y-58797545D01*
X87298471Y-58845142D01*
X87281941Y-58891342D01*
X87260962Y-58935698D01*
X87235736Y-58977785D01*
X87206506Y-59017197D01*
X87173554Y-59053553D01*
X87137198Y-59086505D01*
X87097786Y-59115735D01*
X87055699Y-59140961D01*
X87011343Y-59161940D01*
X86965143Y-59178470D01*
X86917546Y-59190393D01*
X86869010Y-59197592D01*
X86820001Y-59200000D01*
X86819999Y-59200000D01*
X86770990Y-59197592D01*
X86722454Y-59190393D01*
X86674857Y-59178470D01*
X86628657Y-59161940D01*
X86584301Y-59140961D01*
X86542214Y-59115735D01*
X86502802Y-59086505D01*
X86466446Y-59053553D01*
X86433494Y-59017197D01*
X86404264Y-58977785D01*
X86379038Y-58935698D01*
X86358059Y-58891342D01*
X86341529Y-58845142D01*
X86329606Y-58797545D01*
X86322407Y-58749009D01*
X86319999Y-58700000D01*
X86319999Y-58100000D01*
X86322407Y-58050991D01*
X86329606Y-58002455D01*
X86341529Y-57954858D01*
X86358059Y-57908658D01*
X86379038Y-57864302D01*
X86404264Y-57822215D01*
X86433494Y-57782803D01*
X86466446Y-57746447D01*
X86502802Y-57713495D01*
X86542214Y-57684265D01*
X86584301Y-57659039D01*
X86628657Y-57638060D01*
X86674857Y-57621530D01*
X86722454Y-57609607D01*
X86770990Y-57602408D01*
X86819999Y-57600000D01*
X86820001Y-57600000D01*
X86869010Y-57602408D01*
X86869010Y-57602408D01*
G37*
D11*
X86820000Y-58400000D03*
D12*
X95000000Y-61000000D03*
D13*
X71697056Y-59302944D03*
X70000000Y-58600000D03*
X68302944Y-59302944D03*
X67600000Y-61000000D03*
X68302944Y-62697056D03*
X70000000Y-63400000D03*
X71697056Y-62697056D03*
X72400000Y-61000000D03*
D12*
X70000000Y-61000000D03*
D14*
X88870000Y-71550000D03*
X86330000Y-71550000D03*
X83790000Y-71550000D03*
X81250000Y-71550000D03*
X78710000Y-71550000D03*
D15*
X76170000Y-71550000D03*
D11*
X80900000Y-63800000D03*
X84100000Y-63800000D03*
X80900000Y-60600000D03*
X84100000Y-60600000D03*
D13*
X87900000Y-68300000D03*
X77100000Y-68250000D03*
X82500000Y-65800000D03*
X77100000Y-65800000D03*
X87900000Y-65800000D03*
D16*
X78500000Y-65800000D02*
X82500000Y-65800000D01*
X77100000Y-65800000D02*
X78500000Y-65800000D01*
X86500000Y-65800000D02*
X82500000Y-65800000D01*
X87900000Y-65800000D02*
X86500000Y-65800000D01*
X86820000Y-58400000D02*
X78180000Y-58400000D01*
D17*
G36*
X77128558Y-57664479D02*
G01*
X77063795Y-57877973D01*
X77041927Y-58100000D01*
X77041927Y-58700000D01*
X77063795Y-58922027D01*
X77128558Y-59135521D01*
X77233727Y-59332279D01*
X77375261Y-59504738D01*
X77547720Y-59646272D01*
X77744478Y-59751441D01*
X77957972Y-59816204D01*
X78179999Y-59838072D01*
X78180001Y-59838072D01*
X78402028Y-59816204D01*
X78615522Y-59751441D01*
X78812280Y-59646272D01*
X78984739Y-59504738D01*
X79126273Y-59332279D01*
X79218358Y-59160000D01*
X85781642Y-59160000D01*
X85873727Y-59332279D01*
X86015261Y-59504738D01*
X86187720Y-59646272D01*
X86384478Y-59751441D01*
X86597972Y-59816204D01*
X86819999Y-59838072D01*
X86820001Y-59838072D01*
X87042028Y-59816204D01*
X87255522Y-59751441D01*
X87452280Y-59646272D01*
X87624739Y-59504738D01*
X87766273Y-59332279D01*
X87871442Y-59135521D01*
X87936205Y-58922027D01*
X87958073Y-58700000D01*
X87958073Y-58100000D01*
X87936205Y-57877973D01*
X87871442Y-57664479D01*
X87869048Y-57660000D01*
X93095845Y-57660000D01*
X92555330Y-58021161D01*
X92021161Y-58555330D01*
X91601467Y-59183446D01*
X91312377Y-59881372D01*
X91165000Y-60622285D01*
X91165000Y-61377715D01*
X91312377Y-62118628D01*
X91601467Y-62816554D01*
X92021161Y-63444670D01*
X92555330Y-63978839D01*
X93183446Y-64398533D01*
X93881372Y-64687623D01*
X94622285Y-64835000D01*
X95377715Y-64835000D01*
X96118628Y-64687623D01*
X96816554Y-64398533D01*
X97444670Y-63978839D01*
X97978839Y-63444670D01*
X98340001Y-62904154D01*
X98340000Y-72967721D01*
X98273286Y-73648126D01*
X98085057Y-74271570D01*
X97779323Y-74846573D01*
X97367721Y-75351248D01*
X96865933Y-75766362D01*
X96293077Y-76076104D01*
X95670961Y-76268682D01*
X94992417Y-76340000D01*
X70032279Y-76340000D01*
X69351874Y-76273286D01*
X68728430Y-76085057D01*
X68153427Y-75779323D01*
X67648752Y-75367721D01*
X67233638Y-74865933D01*
X66923896Y-74293077D01*
X66731318Y-73670961D01*
X66660000Y-72992417D01*
X66660000Y-70700000D01*
X74681928Y-70700000D01*
X74681928Y-72400000D01*
X74694188Y-72524482D01*
X74730498Y-72644180D01*
X74789463Y-72754494D01*
X74868815Y-72851185D01*
X74965506Y-72930537D01*
X75075820Y-72989502D01*
X75195518Y-73025812D01*
X75320000Y-73038072D01*
X77020000Y-73038072D01*
X77144482Y-73025812D01*
X77264180Y-72989502D01*
X77374494Y-72930537D01*
X77471185Y-72851185D01*
X77550537Y-72754494D01*
X77609502Y-72644180D01*
X77633966Y-72563534D01*
X77709731Y-72647588D01*
X77943080Y-72821641D01*
X78205901Y-72946825D01*
X78353110Y-72991476D01*
X78583000Y-72870155D01*
X78583000Y-71677000D01*
X78563000Y-71677000D01*
X78563000Y-71423000D01*
X78583000Y-71423000D01*
X78583000Y-70229845D01*
X78837000Y-70229845D01*
X78837000Y-71423000D01*
X78857000Y-71423000D01*
X78857000Y-71677000D01*
X78837000Y-71677000D01*
X78837000Y-72870155D01*
X79066890Y-72991476D01*
X79214099Y-72946825D01*
X79476920Y-72821641D01*
X79710269Y-72647588D01*
X79905178Y-72431355D01*
X79974799Y-72314477D01*
X80009294Y-72379014D01*
X80194866Y-72605134D01*
X80420986Y-72790706D01*
X80678966Y-72928599D01*
X80958889Y-73013513D01*
X81177050Y-73035000D01*
X81322950Y-73035000D01*
X81541111Y-73013513D01*
X81821034Y-72928599D01*
X82079014Y-72790706D01*
X82305134Y-72605134D01*
X82490706Y-72379014D01*
X82520000Y-72324209D01*
X82549294Y-72379014D01*
X82734866Y-72605134D01*
X82960986Y-72790706D01*
X83218966Y-72928599D01*
X83498889Y-73013513D01*
X83717050Y-73035000D01*
X83862950Y-73035000D01*
X84081111Y-73013513D01*
X84361034Y-72928599D01*
X84619014Y-72790706D01*
X84845134Y-72605134D01*
X85030706Y-72379014D01*
X85065201Y-72314477D01*
X85134822Y-72431355D01*
X85329731Y-72647588D01*
X85563080Y-72821641D01*
X85825901Y-72946825D01*
X85973110Y-72991476D01*
X86203000Y-72870155D01*
X86203000Y-71677000D01*
X86183000Y-71677000D01*
X86183000Y-71423000D01*
X86203000Y-71423000D01*
X86203000Y-70229845D01*
X86457000Y-70229845D01*
X86457000Y-71423000D01*
X86477000Y-71423000D01*
X86477000Y-71677000D01*
X86457000Y-71677000D01*
X86457000Y-72870155D01*
X86686890Y-72991476D01*
X86834099Y-72946825D01*
X87096920Y-72821641D01*
X87330269Y-72647588D01*
X87525178Y-72431355D01*
X87594799Y-72314477D01*
X87629294Y-72379014D01*
X87814866Y-72605134D01*
X88040986Y-72790706D01*
X88298966Y-72928599D01*
X88578889Y-73013513D01*
X88797050Y-73035000D01*
X88942950Y-73035000D01*
X89161111Y-73013513D01*
X89441034Y-72928599D01*
X89699014Y-72790706D01*
X89925134Y-72605134D01*
X90110706Y-72379014D01*
X90248599Y-72121034D01*
X90333513Y-71841111D01*
X90362185Y-71550000D01*
X90333513Y-71258889D01*
X90248599Y-70978966D01*
X90110706Y-70720986D01*
X89925134Y-70494866D01*
X89699014Y-70309294D01*
X89441034Y-70171401D01*
X89161111Y-70086487D01*
X88942950Y-70065000D01*
X88797050Y-70065000D01*
X88578889Y-70086487D01*
X88298966Y-70171401D01*
X88040986Y-70309294D01*
X87814866Y-70494866D01*
X87629294Y-70720986D01*
X87594799Y-70785523D01*
X87525178Y-70668645D01*
X87330269Y-70452412D01*
X87096920Y-70278359D01*
X86834099Y-70153175D01*
X86686890Y-70108524D01*
X86457000Y-70229845D01*
X86203000Y-70229845D01*
X85973110Y-70108524D01*
X85825901Y-70153175D01*
X85563080Y-70278359D01*
X85329731Y-70452412D01*
X85134822Y-70668645D01*
X85065201Y-70785523D01*
X85030706Y-70720986D01*
X84845134Y-70494866D01*
X84619014Y-70309294D01*
X84361034Y-70171401D01*
X84081111Y-70086487D01*
X83862950Y-70065000D01*
X83717050Y-70065000D01*
X83498889Y-70086487D01*
X83218966Y-70171401D01*
X82960986Y-70309294D01*
X82734866Y-70494866D01*
X82549294Y-70720986D01*
X82520000Y-70775791D01*
X82490706Y-70720986D01*
X82305134Y-70494866D01*
X82079014Y-70309294D01*
X81821034Y-70171401D01*
X81541111Y-70086487D01*
X81322950Y-70065000D01*
X81177050Y-70065000D01*
X80958889Y-70086487D01*
X80678966Y-70171401D01*
X80420986Y-70309294D01*
X80194866Y-70494866D01*
X80009294Y-70720986D01*
X79974799Y-70785523D01*
X79905178Y-70668645D01*
X79710269Y-70452412D01*
X79476920Y-70278359D01*
X79214099Y-70153175D01*
X79066890Y-70108524D01*
X78837000Y-70229845D01*
X78583000Y-70229845D01*
X78353110Y-70108524D01*
X78205901Y-70153175D01*
X77943080Y-70278359D01*
X77709731Y-70452412D01*
X77633966Y-70536466D01*
X77609502Y-70455820D01*
X77550537Y-70345506D01*
X77471185Y-70248815D01*
X77374494Y-70169463D01*
X77264180Y-70110498D01*
X77144482Y-70074188D01*
X77020000Y-70061928D01*
X75320000Y-70061928D01*
X75195518Y-70074188D01*
X75075820Y-70110498D01*
X74965506Y-70169463D01*
X74868815Y-70248815D01*
X74789463Y-70345506D01*
X74730498Y-70455820D01*
X74694188Y-70575518D01*
X74681928Y-70700000D01*
X66660000Y-70700000D01*
X66660000Y-65698061D01*
X76065000Y-65698061D01*
X76065000Y-65901939D01*
X76104774Y-66101898D01*
X76182795Y-66290256D01*
X76296063Y-66459774D01*
X76440226Y-66603937D01*
X76609744Y-66717205D01*
X76798102Y-66795226D01*
X76998061Y-66835000D01*
X77201939Y-66835000D01*
X77401898Y-66795226D01*
X77590256Y-66717205D01*
X77759774Y-66603937D01*
X77803711Y-66560000D01*
X81796289Y-66560000D01*
X81840226Y-66603937D01*
X82009744Y-66717205D01*
X82198102Y-66795226D01*
X82398061Y-66835000D01*
X82601939Y-66835000D01*
X82801898Y-66795226D01*
X82990256Y-66717205D01*
X83159774Y-66603937D01*
X83203711Y-66560000D01*
X87196289Y-66560000D01*
X87240226Y-66603937D01*
X87409744Y-66717205D01*
X87598102Y-66795226D01*
X87798061Y-66835000D01*
X88001939Y-66835000D01*
X88201898Y-66795226D01*
X88390256Y-66717205D01*
X88559774Y-66603937D01*
X88703937Y-66459774D01*
X88817205Y-66290256D01*
X88895226Y-66101898D01*
X88935000Y-65901939D01*
X88935000Y-65698061D01*
X88895226Y-65498102D01*
X88817205Y-65309744D01*
X88703937Y-65140226D01*
X88559774Y-64996063D01*
X88390256Y-64882795D01*
X88201898Y-64804774D01*
X88001939Y-64765000D01*
X87798061Y-64765000D01*
X87598102Y-64804774D01*
X87409744Y-64882795D01*
X87240226Y-64996063D01*
X87196289Y-65040000D01*
X83203711Y-65040000D01*
X83159774Y-64996063D01*
X82990256Y-64882795D01*
X82801898Y-64804774D01*
X82601939Y-64765000D01*
X82398061Y-64765000D01*
X82198102Y-64804774D01*
X82009744Y-64882795D01*
X81840226Y-64996063D01*
X81796289Y-65040000D01*
X77803711Y-65040000D01*
X77759774Y-64996063D01*
X77590256Y-64882795D01*
X77401898Y-64804774D01*
X77201939Y-64765000D01*
X76998061Y-64765000D01*
X76798102Y-64804774D01*
X76609744Y-64882795D01*
X76440226Y-64996063D01*
X76296063Y-65140226D01*
X76182795Y-65309744D01*
X76104774Y-65498102D01*
X76065000Y-65698061D01*
X66660000Y-65698061D01*
X66660000Y-62904155D01*
X67021161Y-63444670D01*
X67555330Y-63978839D01*
X68183446Y-64398533D01*
X68881372Y-64687623D01*
X69622285Y-64835000D01*
X70377715Y-64835000D01*
X71118628Y-64687623D01*
X71816554Y-64398533D01*
X72444670Y-63978839D01*
X72978839Y-63444670D01*
X73398533Y-62816554D01*
X73687623Y-62118628D01*
X73731110Y-61900000D01*
X77041927Y-61900000D01*
X77041927Y-62500000D01*
X77063795Y-62722027D01*
X77128558Y-62935521D01*
X77233727Y-63132279D01*
X77375261Y-63304738D01*
X77547720Y-63446272D01*
X77744478Y-63551441D01*
X77957972Y-63616204D01*
X78179999Y-63638072D01*
X78180001Y-63638072D01*
X78402028Y-63616204D01*
X78615522Y-63551441D01*
X78812280Y-63446272D01*
X78984739Y-63304738D01*
X79126273Y-63132279D01*
X79231442Y-62935521D01*
X79296205Y-62722027D01*
X79318073Y-62500000D01*
X79318073Y-61900000D01*
X85681927Y-61900000D01*
X85681927Y-62500000D01*
X85703795Y-62722027D01*
X85768558Y-62935521D01*
X85873727Y-63132279D01*
X86015261Y-63304738D01*
X86187720Y-63446272D01*
X86384478Y-63551441D01*
X86597972Y-63616204D01*
X86819999Y-63638072D01*
X86820001Y-63638072D01*
X87042028Y-63616204D01*
X87255522Y-63551441D01*
X87452280Y-63446272D01*
X87624739Y-63304738D01*
X87766273Y-63132279D01*
X87871442Y-62935521D01*
X87936205Y-62722027D01*
X87958073Y-62500000D01*
X87958073Y-61900000D01*
X87936205Y-61677973D01*
X87871442Y-61464479D01*
X87766273Y-61267721D01*
X87624739Y-61095262D01*
X87452280Y-60953728D01*
X87255522Y-60848559D01*
X87042028Y-60783796D01*
X86820001Y-60761928D01*
X86819999Y-60761928D01*
X86597972Y-60783796D01*
X86384478Y-60848559D01*
X86187720Y-60953728D01*
X86015261Y-61095262D01*
X85873727Y-61267721D01*
X85768558Y-61464479D01*
X85703795Y-61677973D01*
X85681927Y-61900000D01*
X79318073Y-61900000D01*
X79296205Y-61677973D01*
X79231442Y-61464479D01*
X79126273Y-61267721D01*
X78984739Y-61095262D01*
X78812280Y-60953728D01*
X78615522Y-60848559D01*
X78402028Y-60783796D01*
X78180001Y-60761928D01*
X78179999Y-60761928D01*
X77957972Y-60783796D01*
X77744478Y-60848559D01*
X77547720Y-60953728D01*
X77375261Y-61095262D01*
X77233727Y-61267721D01*
X77128558Y-61464479D01*
X77063795Y-61677973D01*
X77041927Y-61900000D01*
X73731110Y-61900000D01*
X73835000Y-61377715D01*
X73835000Y-60622285D01*
X73687623Y-59881372D01*
X73398533Y-59183446D01*
X72978839Y-58555330D01*
X72444670Y-58021161D01*
X71904155Y-57660000D01*
X77130952Y-57660000D01*
X77128558Y-57664479D01*
X77128558Y-57664479D01*
G37*
X77128558Y-57664479D02*
X77063795Y-57877973D01*
X77041927Y-58100000D01*
X77041927Y-58700000D01*
X77063795Y-58922027D01*
X77128558Y-59135521D01*
X77233727Y-59332279D01*
X77375261Y-59504738D01*
X77547720Y-59646272D01*
X77744478Y-59751441D01*
X77957972Y-59816204D01*
X78179999Y-59838072D01*
X78180001Y-59838072D01*
X78402028Y-59816204D01*
X78615522Y-59751441D01*
X78812280Y-59646272D01*
X78984739Y-59504738D01*
X79126273Y-59332279D01*
X79218358Y-59160000D01*
X85781642Y-59160000D01*
X85873727Y-59332279D01*
X86015261Y-59504738D01*
X86187720Y-59646272D01*
X86384478Y-59751441D01*
X86597972Y-59816204D01*
X86819999Y-59838072D01*
X86820001Y-59838072D01*
X87042028Y-59816204D01*
X87255522Y-59751441D01*
X87452280Y-59646272D01*
X87624739Y-59504738D01*
X87766273Y-59332279D01*
X87871442Y-59135521D01*
X87936205Y-58922027D01*
X87958073Y-58700000D01*
X87958073Y-58100000D01*
X87936205Y-57877973D01*
X87871442Y-57664479D01*
X87869048Y-57660000D01*
X93095845Y-57660000D01*
X92555330Y-58021161D01*
X92021161Y-58555330D01*
X91601467Y-59183446D01*
X91312377Y-59881372D01*
X91165000Y-60622285D01*
X91165000Y-61377715D01*
X91312377Y-62118628D01*
X91601467Y-62816554D01*
X92021161Y-63444670D01*
X92555330Y-63978839D01*
X93183446Y-64398533D01*
X93881372Y-64687623D01*
X94622285Y-64835000D01*
X95377715Y-64835000D01*
X96118628Y-64687623D01*
X96816554Y-64398533D01*
X97444670Y-63978839D01*
X97978839Y-63444670D01*
X98340001Y-62904154D01*
X98340000Y-72967721D01*
X98273286Y-73648126D01*
X98085057Y-74271570D01*
X97779323Y-74846573D01*
X97367721Y-75351248D01*
X96865933Y-75766362D01*
X96293077Y-76076104D01*
X95670961Y-76268682D01*
X94992417Y-76340000D01*
X70032279Y-76340000D01*
X69351874Y-76273286D01*
X68728430Y-76085057D01*
X68153427Y-75779323D01*
X67648752Y-75367721D01*
X67233638Y-74865933D01*
X66923896Y-74293077D01*
X66731318Y-73670961D01*
X66660000Y-72992417D01*
X66660000Y-70700000D01*
X74681928Y-70700000D01*
X74681928Y-72400000D01*
X74694188Y-72524482D01*
X74730498Y-72644180D01*
X74789463Y-72754494D01*
X74868815Y-72851185D01*
X74965506Y-72930537D01*
X75075820Y-72989502D01*
X75195518Y-73025812D01*
X75320000Y-73038072D01*
X77020000Y-73038072D01*
X77144482Y-73025812D01*
X77264180Y-72989502D01*
X77374494Y-72930537D01*
X77471185Y-72851185D01*
X77550537Y-72754494D01*
X77609502Y-72644180D01*
X77633966Y-72563534D01*
X77709731Y-72647588D01*
X77943080Y-72821641D01*
X78205901Y-72946825D01*
X78353110Y-72991476D01*
X78583000Y-72870155D01*
X78583000Y-71677000D01*
X78563000Y-71677000D01*
X78563000Y-71423000D01*
X78583000Y-71423000D01*
X78583000Y-70229845D01*
X78837000Y-70229845D01*
X78837000Y-71423000D01*
X78857000Y-71423000D01*
X78857000Y-71677000D01*
X78837000Y-71677000D01*
X78837000Y-72870155D01*
X79066890Y-72991476D01*
X79214099Y-72946825D01*
X79476920Y-72821641D01*
X79710269Y-72647588D01*
X79905178Y-72431355D01*
X79974799Y-72314477D01*
X80009294Y-72379014D01*
X80194866Y-72605134D01*
X80420986Y-72790706D01*
X80678966Y-72928599D01*
X80958889Y-73013513D01*
X81177050Y-73035000D01*
X81322950Y-73035000D01*
X81541111Y-73013513D01*
X81821034Y-72928599D01*
X82079014Y-72790706D01*
X82305134Y-72605134D01*
X82490706Y-72379014D01*
X82520000Y-72324209D01*
X82549294Y-72379014D01*
X82734866Y-72605134D01*
X82960986Y-72790706D01*
X83218966Y-72928599D01*
X83498889Y-73013513D01*
X83717050Y-73035000D01*
X83862950Y-73035000D01*
X84081111Y-73013513D01*
X84361034Y-72928599D01*
X84619014Y-72790706D01*
X84845134Y-72605134D01*
X85030706Y-72379014D01*
X85065201Y-72314477D01*
X85134822Y-72431355D01*
X85329731Y-72647588D01*
X85563080Y-72821641D01*
X85825901Y-72946825D01*
X85973110Y-72991476D01*
X86203000Y-72870155D01*
X86203000Y-71677000D01*
X86183000Y-71677000D01*
X86183000Y-71423000D01*
X86203000Y-71423000D01*
X86203000Y-70229845D01*
X86457000Y-70229845D01*
X86457000Y-71423000D01*
X86477000Y-71423000D01*
X86477000Y-71677000D01*
X86457000Y-71677000D01*
X86457000Y-72870155D01*
X86686890Y-72991476D01*
X86834099Y-72946825D01*
X87096920Y-72821641D01*
X87330269Y-72647588D01*
X87525178Y-72431355D01*
X87594799Y-72314477D01*
X87629294Y-72379014D01*
X87814866Y-72605134D01*
X88040986Y-72790706D01*
X88298966Y-72928599D01*
X88578889Y-73013513D01*
X88797050Y-73035000D01*
X88942950Y-73035000D01*
X89161111Y-73013513D01*
X89441034Y-72928599D01*
X89699014Y-72790706D01*
X89925134Y-72605134D01*
X90110706Y-72379014D01*
X90248599Y-72121034D01*
X90333513Y-71841111D01*
X90362185Y-71550000D01*
X90333513Y-71258889D01*
X90248599Y-70978966D01*
X90110706Y-70720986D01*
X89925134Y-70494866D01*
X89699014Y-70309294D01*
X89441034Y-70171401D01*
X89161111Y-70086487D01*
X88942950Y-70065000D01*
X88797050Y-70065000D01*
X88578889Y-70086487D01*
X88298966Y-70171401D01*
X88040986Y-70309294D01*
X87814866Y-70494866D01*
X87629294Y-70720986D01*
X87594799Y-70785523D01*
X87525178Y-70668645D01*
X87330269Y-70452412D01*
X87096920Y-70278359D01*
X86834099Y-70153175D01*
X86686890Y-70108524D01*
X86457000Y-70229845D01*
X86203000Y-70229845D01*
X85973110Y-70108524D01*
X85825901Y-70153175D01*
X85563080Y-70278359D01*
X85329731Y-70452412D01*
X85134822Y-70668645D01*
X85065201Y-70785523D01*
X85030706Y-70720986D01*
X84845134Y-70494866D01*
X84619014Y-70309294D01*
X84361034Y-70171401D01*
X84081111Y-70086487D01*
X83862950Y-70065000D01*
X83717050Y-70065000D01*
X83498889Y-70086487D01*
X83218966Y-70171401D01*
X82960986Y-70309294D01*
X82734866Y-70494866D01*
X82549294Y-70720986D01*
X82520000Y-70775791D01*
X82490706Y-70720986D01*
X82305134Y-70494866D01*
X82079014Y-70309294D01*
X81821034Y-70171401D01*
X81541111Y-70086487D01*
X81322950Y-70065000D01*
X81177050Y-70065000D01*
X80958889Y-70086487D01*
X80678966Y-70171401D01*
X80420986Y-70309294D01*
X80194866Y-70494866D01*
X80009294Y-70720986D01*
X79974799Y-70785523D01*
X79905178Y-70668645D01*
X79710269Y-70452412D01*
X79476920Y-70278359D01*
X79214099Y-70153175D01*
X79066890Y-70108524D01*
X78837000Y-70229845D01*
X78583000Y-70229845D01*
X78353110Y-70108524D01*
X78205901Y-70153175D01*
X77943080Y-70278359D01*
X77709731Y-70452412D01*
X77633966Y-70536466D01*
X77609502Y-70455820D01*
X77550537Y-70345506D01*
X77471185Y-70248815D01*
X77374494Y-70169463D01*
X77264180Y-70110498D01*
X77144482Y-70074188D01*
X77020000Y-70061928D01*
X75320000Y-70061928D01*
X75195518Y-70074188D01*
X75075820Y-70110498D01*
X74965506Y-70169463D01*
X74868815Y-70248815D01*
X74789463Y-70345506D01*
X74730498Y-70455820D01*
X74694188Y-70575518D01*
X74681928Y-70700000D01*
X66660000Y-70700000D01*
X66660000Y-65698061D01*
X76065000Y-65698061D01*
X76065000Y-65901939D01*
X76104774Y-66101898D01*
X76182795Y-66290256D01*
X76296063Y-66459774D01*
X76440226Y-66603937D01*
X76609744Y-66717205D01*
X76798102Y-66795226D01*
X76998061Y-66835000D01*
X77201939Y-66835000D01*
X77401898Y-66795226D01*
X77590256Y-66717205D01*
X77759774Y-66603937D01*
X77803711Y-66560000D01*
X81796289Y-66560000D01*
X81840226Y-66603937D01*
X82009744Y-66717205D01*
X82198102Y-66795226D01*
X82398061Y-66835000D01*
X82601939Y-66835000D01*
X82801898Y-66795226D01*
X82990256Y-66717205D01*
X83159774Y-66603937D01*
X83203711Y-66560000D01*
X87196289Y-66560000D01*
X87240226Y-66603937D01*
X87409744Y-66717205D01*
X87598102Y-66795226D01*
X87798061Y-66835000D01*
X88001939Y-66835000D01*
X88201898Y-66795226D01*
X88390256Y-66717205D01*
X88559774Y-66603937D01*
X88703937Y-66459774D01*
X88817205Y-66290256D01*
X88895226Y-66101898D01*
X88935000Y-65901939D01*
X88935000Y-65698061D01*
X88895226Y-65498102D01*
X88817205Y-65309744D01*
X88703937Y-65140226D01*
X88559774Y-64996063D01*
X88390256Y-64882795D01*
X88201898Y-64804774D01*
X88001939Y-64765000D01*
X87798061Y-64765000D01*
X87598102Y-64804774D01*
X87409744Y-64882795D01*
X87240226Y-64996063D01*
X87196289Y-65040000D01*
X83203711Y-65040000D01*
X83159774Y-64996063D01*
X82990256Y-64882795D01*
X82801898Y-64804774D01*
X82601939Y-64765000D01*
X82398061Y-64765000D01*
X82198102Y-64804774D01*
X82009744Y-64882795D01*
X81840226Y-64996063D01*
X81796289Y-65040000D01*
X77803711Y-65040000D01*
X77759774Y-64996063D01*
X77590256Y-64882795D01*
X77401898Y-64804774D01*
X77201939Y-64765000D01*
X76998061Y-64765000D01*
X76798102Y-64804774D01*
X76609744Y-64882795D01*
X76440226Y-64996063D01*
X76296063Y-65140226D01*
X76182795Y-65309744D01*
X76104774Y-65498102D01*
X76065000Y-65698061D01*
X66660000Y-65698061D01*
X66660000Y-62904155D01*
X67021161Y-63444670D01*
X67555330Y-63978839D01*
X68183446Y-64398533D01*
X68881372Y-64687623D01*
X69622285Y-64835000D01*
X70377715Y-64835000D01*
X71118628Y-64687623D01*
X71816554Y-64398533D01*
X72444670Y-63978839D01*
X72978839Y-63444670D01*
X73398533Y-62816554D01*
X73687623Y-62118628D01*
X73731110Y-61900000D01*
X77041927Y-61900000D01*
X77041927Y-62500000D01*
X77063795Y-62722027D01*
X77128558Y-62935521D01*
X77233727Y-63132279D01*
X77375261Y-63304738D01*
X77547720Y-63446272D01*
X77744478Y-63551441D01*
X77957972Y-63616204D01*
X78179999Y-63638072D01*
X78180001Y-63638072D01*
X78402028Y-63616204D01*
X78615522Y-63551441D01*
X78812280Y-63446272D01*
X78984739Y-63304738D01*
X79126273Y-63132279D01*
X79231442Y-62935521D01*
X79296205Y-62722027D01*
X79318073Y-62500000D01*
X79318073Y-61900000D01*
X85681927Y-61900000D01*
X85681927Y-62500000D01*
X85703795Y-62722027D01*
X85768558Y-62935521D01*
X85873727Y-63132279D01*
X86015261Y-63304738D01*
X86187720Y-63446272D01*
X86384478Y-63551441D01*
X86597972Y-63616204D01*
X86819999Y-63638072D01*
X86820001Y-63638072D01*
X87042028Y-63616204D01*
X87255522Y-63551441D01*
X87452280Y-63446272D01*
X87624739Y-63304738D01*
X87766273Y-63132279D01*
X87871442Y-62935521D01*
X87936205Y-62722027D01*
X87958073Y-62500000D01*
X87958073Y-61900000D01*
X87936205Y-61677973D01*
X87871442Y-61464479D01*
X87766273Y-61267721D01*
X87624739Y-61095262D01*
X87452280Y-60953728D01*
X87255522Y-60848559D01*
X87042028Y-60783796D01*
X86820001Y-60761928D01*
X86819999Y-60761928D01*
X86597972Y-60783796D01*
X86384478Y-60848559D01*
X86187720Y-60953728D01*
X86015261Y-61095262D01*
X85873727Y-61267721D01*
X85768558Y-61464479D01*
X85703795Y-61677973D01*
X85681927Y-61900000D01*
X79318073Y-61900000D01*
X79296205Y-61677973D01*
X79231442Y-61464479D01*
X79126273Y-61267721D01*
X78984739Y-61095262D01*
X78812280Y-60953728D01*
X78615522Y-60848559D01*
X78402028Y-60783796D01*
X78180001Y-60761928D01*
X78179999Y-60761928D01*
X77957972Y-60783796D01*
X77744478Y-60848559D01*
X77547720Y-60953728D01*
X77375261Y-61095262D01*
X77233727Y-61267721D01*
X77128558Y-61464479D01*
X77063795Y-61677973D01*
X77041927Y-61900000D01*
X73731110Y-61900000D01*
X73835000Y-61377715D01*
X73835000Y-60622285D01*
X73687623Y-59881372D01*
X73398533Y-59183446D01*
X72978839Y-58555330D01*
X72444670Y-58021161D01*
X71904155Y-57660000D01*
X77130952Y-57660000D01*
X77128558Y-57664479D01*
M02*
