G04 #@! TF.GenerationSoftware,KiCad,Pcbnew,(5.1.5)-3*
G04 #@! TF.CreationDate,2020-05-05T01:34:39+02:00*
G04 #@! TF.ProjectId,USB-C-USB-3.2,5553422d-432d-4555-9342-2d332e322e6b,rev?*
G04 #@! TF.SameCoordinates,Original*
G04 #@! TF.FileFunction,Soldermask,Bot*
G04 #@! TF.FilePolarity,Negative*
%FSLAX46Y46*%
G04 Gerber Fmt 4.6, Leading zero omitted, Abs format (unit mm)*
G04 Created by KiCad (PCBNEW (5.1.5)-3) date 2020-05-05 01:34:39*
%MOMM*%
%LPD*%
G04 APERTURE LIST*
%ADD10C,0.100000*%
G04 APERTURE END LIST*
D10*
G36*
X101663512Y-76103927D02*
G01*
X101812812Y-76133624D01*
X101976784Y-76201544D01*
X102124354Y-76300147D01*
X102249853Y-76425646D01*
X102348456Y-76573216D01*
X102416376Y-76737188D01*
X102451000Y-76911259D01*
X102451000Y-77088741D01*
X102416376Y-77262812D01*
X102348456Y-77426784D01*
X102249853Y-77574354D01*
X102124354Y-77699853D01*
X101976784Y-77798456D01*
X101812812Y-77866376D01*
X101663512Y-77896073D01*
X101638742Y-77901000D01*
X101461258Y-77901000D01*
X101436488Y-77896073D01*
X101287188Y-77866376D01*
X101123216Y-77798456D01*
X100975646Y-77699853D01*
X100850147Y-77574354D01*
X100751544Y-77426784D01*
X100683624Y-77262812D01*
X100649000Y-77088741D01*
X100649000Y-76911259D01*
X100683624Y-76737188D01*
X100751544Y-76573216D01*
X100850147Y-76425646D01*
X100975646Y-76300147D01*
X101123216Y-76201544D01*
X101287188Y-76133624D01*
X101436488Y-76103927D01*
X101461258Y-76099000D01*
X101638742Y-76099000D01*
X101663512Y-76103927D01*
G37*
G36*
X66103512Y-76103927D02*
G01*
X66252812Y-76133624D01*
X66416784Y-76201544D01*
X66564354Y-76300147D01*
X66689853Y-76425646D01*
X66788456Y-76573216D01*
X66856376Y-76737188D01*
X66891000Y-76911259D01*
X66891000Y-77088741D01*
X66856376Y-77262812D01*
X66788456Y-77426784D01*
X66689853Y-77574354D01*
X66564354Y-77699853D01*
X66416784Y-77798456D01*
X66252812Y-77866376D01*
X66103512Y-77896073D01*
X66078742Y-77901000D01*
X65901258Y-77901000D01*
X65876488Y-77896073D01*
X65727188Y-77866376D01*
X65563216Y-77798456D01*
X65415646Y-77699853D01*
X65290147Y-77574354D01*
X65191544Y-77426784D01*
X65123624Y-77262812D01*
X65089000Y-77088741D01*
X65089000Y-76911259D01*
X65123624Y-76737188D01*
X65191544Y-76573216D01*
X65290147Y-76425646D01*
X65415646Y-76300147D01*
X65563216Y-76201544D01*
X65727188Y-76133624D01*
X65876488Y-76103927D01*
X65901258Y-76099000D01*
X66078742Y-76099000D01*
X66103512Y-76103927D01*
G37*
G36*
X64351000Y-77901000D02*
G01*
X62549000Y-77901000D01*
X62549000Y-76099000D01*
X64351000Y-76099000D01*
X64351000Y-77901000D01*
G37*
G36*
X68643512Y-76103927D02*
G01*
X68792812Y-76133624D01*
X68956784Y-76201544D01*
X69104354Y-76300147D01*
X69229853Y-76425646D01*
X69328456Y-76573216D01*
X69396376Y-76737188D01*
X69431000Y-76911259D01*
X69431000Y-77088741D01*
X69396376Y-77262812D01*
X69328456Y-77426784D01*
X69229853Y-77574354D01*
X69104354Y-77699853D01*
X68956784Y-77798456D01*
X68792812Y-77866376D01*
X68643512Y-77896073D01*
X68618742Y-77901000D01*
X68441258Y-77901000D01*
X68416488Y-77896073D01*
X68267188Y-77866376D01*
X68103216Y-77798456D01*
X67955646Y-77699853D01*
X67830147Y-77574354D01*
X67731544Y-77426784D01*
X67663624Y-77262812D01*
X67629000Y-77088741D01*
X67629000Y-76911259D01*
X67663624Y-76737188D01*
X67731544Y-76573216D01*
X67830147Y-76425646D01*
X67955646Y-76300147D01*
X68103216Y-76201544D01*
X68267188Y-76133624D01*
X68416488Y-76103927D01*
X68441258Y-76099000D01*
X68618742Y-76099000D01*
X68643512Y-76103927D01*
G37*
G36*
X71183512Y-76103927D02*
G01*
X71332812Y-76133624D01*
X71496784Y-76201544D01*
X71644354Y-76300147D01*
X71769853Y-76425646D01*
X71868456Y-76573216D01*
X71936376Y-76737188D01*
X71971000Y-76911259D01*
X71971000Y-77088741D01*
X71936376Y-77262812D01*
X71868456Y-77426784D01*
X71769853Y-77574354D01*
X71644354Y-77699853D01*
X71496784Y-77798456D01*
X71332812Y-77866376D01*
X71183512Y-77896073D01*
X71158742Y-77901000D01*
X70981258Y-77901000D01*
X70956488Y-77896073D01*
X70807188Y-77866376D01*
X70643216Y-77798456D01*
X70495646Y-77699853D01*
X70370147Y-77574354D01*
X70271544Y-77426784D01*
X70203624Y-77262812D01*
X70169000Y-77088741D01*
X70169000Y-76911259D01*
X70203624Y-76737188D01*
X70271544Y-76573216D01*
X70370147Y-76425646D01*
X70495646Y-76300147D01*
X70643216Y-76201544D01*
X70807188Y-76133624D01*
X70956488Y-76103927D01*
X70981258Y-76099000D01*
X71158742Y-76099000D01*
X71183512Y-76103927D01*
G37*
G36*
X73723512Y-76103927D02*
G01*
X73872812Y-76133624D01*
X74036784Y-76201544D01*
X74184354Y-76300147D01*
X74309853Y-76425646D01*
X74408456Y-76573216D01*
X74476376Y-76737188D01*
X74511000Y-76911259D01*
X74511000Y-77088741D01*
X74476376Y-77262812D01*
X74408456Y-77426784D01*
X74309853Y-77574354D01*
X74184354Y-77699853D01*
X74036784Y-77798456D01*
X73872812Y-77866376D01*
X73723512Y-77896073D01*
X73698742Y-77901000D01*
X73521258Y-77901000D01*
X73496488Y-77896073D01*
X73347188Y-77866376D01*
X73183216Y-77798456D01*
X73035646Y-77699853D01*
X72910147Y-77574354D01*
X72811544Y-77426784D01*
X72743624Y-77262812D01*
X72709000Y-77088741D01*
X72709000Y-76911259D01*
X72743624Y-76737188D01*
X72811544Y-76573216D01*
X72910147Y-76425646D01*
X73035646Y-76300147D01*
X73183216Y-76201544D01*
X73347188Y-76133624D01*
X73496488Y-76103927D01*
X73521258Y-76099000D01*
X73698742Y-76099000D01*
X73723512Y-76103927D01*
G37*
G36*
X76263512Y-76103927D02*
G01*
X76412812Y-76133624D01*
X76576784Y-76201544D01*
X76724354Y-76300147D01*
X76849853Y-76425646D01*
X76948456Y-76573216D01*
X77016376Y-76737188D01*
X77051000Y-76911259D01*
X77051000Y-77088741D01*
X77016376Y-77262812D01*
X76948456Y-77426784D01*
X76849853Y-77574354D01*
X76724354Y-77699853D01*
X76576784Y-77798456D01*
X76412812Y-77866376D01*
X76263512Y-77896073D01*
X76238742Y-77901000D01*
X76061258Y-77901000D01*
X76036488Y-77896073D01*
X75887188Y-77866376D01*
X75723216Y-77798456D01*
X75575646Y-77699853D01*
X75450147Y-77574354D01*
X75351544Y-77426784D01*
X75283624Y-77262812D01*
X75249000Y-77088741D01*
X75249000Y-76911259D01*
X75283624Y-76737188D01*
X75351544Y-76573216D01*
X75450147Y-76425646D01*
X75575646Y-76300147D01*
X75723216Y-76201544D01*
X75887188Y-76133624D01*
X76036488Y-76103927D01*
X76061258Y-76099000D01*
X76238742Y-76099000D01*
X76263512Y-76103927D01*
G37*
G36*
X78803512Y-76103927D02*
G01*
X78952812Y-76133624D01*
X79116784Y-76201544D01*
X79264354Y-76300147D01*
X79389853Y-76425646D01*
X79488456Y-76573216D01*
X79556376Y-76737188D01*
X79591000Y-76911259D01*
X79591000Y-77088741D01*
X79556376Y-77262812D01*
X79488456Y-77426784D01*
X79389853Y-77574354D01*
X79264354Y-77699853D01*
X79116784Y-77798456D01*
X78952812Y-77866376D01*
X78803512Y-77896073D01*
X78778742Y-77901000D01*
X78601258Y-77901000D01*
X78576488Y-77896073D01*
X78427188Y-77866376D01*
X78263216Y-77798456D01*
X78115646Y-77699853D01*
X77990147Y-77574354D01*
X77891544Y-77426784D01*
X77823624Y-77262812D01*
X77789000Y-77088741D01*
X77789000Y-76911259D01*
X77823624Y-76737188D01*
X77891544Y-76573216D01*
X77990147Y-76425646D01*
X78115646Y-76300147D01*
X78263216Y-76201544D01*
X78427188Y-76133624D01*
X78576488Y-76103927D01*
X78601258Y-76099000D01*
X78778742Y-76099000D01*
X78803512Y-76103927D01*
G37*
G36*
X81343512Y-76103927D02*
G01*
X81492812Y-76133624D01*
X81656784Y-76201544D01*
X81804354Y-76300147D01*
X81929853Y-76425646D01*
X82028456Y-76573216D01*
X82096376Y-76737188D01*
X82131000Y-76911259D01*
X82131000Y-77088741D01*
X82096376Y-77262812D01*
X82028456Y-77426784D01*
X81929853Y-77574354D01*
X81804354Y-77699853D01*
X81656784Y-77798456D01*
X81492812Y-77866376D01*
X81343512Y-77896073D01*
X81318742Y-77901000D01*
X81141258Y-77901000D01*
X81116488Y-77896073D01*
X80967188Y-77866376D01*
X80803216Y-77798456D01*
X80655646Y-77699853D01*
X80530147Y-77574354D01*
X80431544Y-77426784D01*
X80363624Y-77262812D01*
X80329000Y-77088741D01*
X80329000Y-76911259D01*
X80363624Y-76737188D01*
X80431544Y-76573216D01*
X80530147Y-76425646D01*
X80655646Y-76300147D01*
X80803216Y-76201544D01*
X80967188Y-76133624D01*
X81116488Y-76103927D01*
X81141258Y-76099000D01*
X81318742Y-76099000D01*
X81343512Y-76103927D01*
G37*
G36*
X86423512Y-76103927D02*
G01*
X86572812Y-76133624D01*
X86736784Y-76201544D01*
X86884354Y-76300147D01*
X87009853Y-76425646D01*
X87108456Y-76573216D01*
X87176376Y-76737188D01*
X87211000Y-76911259D01*
X87211000Y-77088741D01*
X87176376Y-77262812D01*
X87108456Y-77426784D01*
X87009853Y-77574354D01*
X86884354Y-77699853D01*
X86736784Y-77798456D01*
X86572812Y-77866376D01*
X86423512Y-77896073D01*
X86398742Y-77901000D01*
X86221258Y-77901000D01*
X86196488Y-77896073D01*
X86047188Y-77866376D01*
X85883216Y-77798456D01*
X85735646Y-77699853D01*
X85610147Y-77574354D01*
X85511544Y-77426784D01*
X85443624Y-77262812D01*
X85409000Y-77088741D01*
X85409000Y-76911259D01*
X85443624Y-76737188D01*
X85511544Y-76573216D01*
X85610147Y-76425646D01*
X85735646Y-76300147D01*
X85883216Y-76201544D01*
X86047188Y-76133624D01*
X86196488Y-76103927D01*
X86221258Y-76099000D01*
X86398742Y-76099000D01*
X86423512Y-76103927D01*
G37*
G36*
X88963512Y-76103927D02*
G01*
X89112812Y-76133624D01*
X89276784Y-76201544D01*
X89424354Y-76300147D01*
X89549853Y-76425646D01*
X89648456Y-76573216D01*
X89716376Y-76737188D01*
X89751000Y-76911259D01*
X89751000Y-77088741D01*
X89716376Y-77262812D01*
X89648456Y-77426784D01*
X89549853Y-77574354D01*
X89424354Y-77699853D01*
X89276784Y-77798456D01*
X89112812Y-77866376D01*
X88963512Y-77896073D01*
X88938742Y-77901000D01*
X88761258Y-77901000D01*
X88736488Y-77896073D01*
X88587188Y-77866376D01*
X88423216Y-77798456D01*
X88275646Y-77699853D01*
X88150147Y-77574354D01*
X88051544Y-77426784D01*
X87983624Y-77262812D01*
X87949000Y-77088741D01*
X87949000Y-76911259D01*
X87983624Y-76737188D01*
X88051544Y-76573216D01*
X88150147Y-76425646D01*
X88275646Y-76300147D01*
X88423216Y-76201544D01*
X88587188Y-76133624D01*
X88736488Y-76103927D01*
X88761258Y-76099000D01*
X88938742Y-76099000D01*
X88963512Y-76103927D01*
G37*
G36*
X91503512Y-76103927D02*
G01*
X91652812Y-76133624D01*
X91816784Y-76201544D01*
X91964354Y-76300147D01*
X92089853Y-76425646D01*
X92188456Y-76573216D01*
X92256376Y-76737188D01*
X92291000Y-76911259D01*
X92291000Y-77088741D01*
X92256376Y-77262812D01*
X92188456Y-77426784D01*
X92089853Y-77574354D01*
X91964354Y-77699853D01*
X91816784Y-77798456D01*
X91652812Y-77866376D01*
X91503512Y-77896073D01*
X91478742Y-77901000D01*
X91301258Y-77901000D01*
X91276488Y-77896073D01*
X91127188Y-77866376D01*
X90963216Y-77798456D01*
X90815646Y-77699853D01*
X90690147Y-77574354D01*
X90591544Y-77426784D01*
X90523624Y-77262812D01*
X90489000Y-77088741D01*
X90489000Y-76911259D01*
X90523624Y-76737188D01*
X90591544Y-76573216D01*
X90690147Y-76425646D01*
X90815646Y-76300147D01*
X90963216Y-76201544D01*
X91127188Y-76133624D01*
X91276488Y-76103927D01*
X91301258Y-76099000D01*
X91478742Y-76099000D01*
X91503512Y-76103927D01*
G37*
G36*
X94043512Y-76103927D02*
G01*
X94192812Y-76133624D01*
X94356784Y-76201544D01*
X94504354Y-76300147D01*
X94629853Y-76425646D01*
X94728456Y-76573216D01*
X94796376Y-76737188D01*
X94831000Y-76911259D01*
X94831000Y-77088741D01*
X94796376Y-77262812D01*
X94728456Y-77426784D01*
X94629853Y-77574354D01*
X94504354Y-77699853D01*
X94356784Y-77798456D01*
X94192812Y-77866376D01*
X94043512Y-77896073D01*
X94018742Y-77901000D01*
X93841258Y-77901000D01*
X93816488Y-77896073D01*
X93667188Y-77866376D01*
X93503216Y-77798456D01*
X93355646Y-77699853D01*
X93230147Y-77574354D01*
X93131544Y-77426784D01*
X93063624Y-77262812D01*
X93029000Y-77088741D01*
X93029000Y-76911259D01*
X93063624Y-76737188D01*
X93131544Y-76573216D01*
X93230147Y-76425646D01*
X93355646Y-76300147D01*
X93503216Y-76201544D01*
X93667188Y-76133624D01*
X93816488Y-76103927D01*
X93841258Y-76099000D01*
X94018742Y-76099000D01*
X94043512Y-76103927D01*
G37*
G36*
X96583512Y-76103927D02*
G01*
X96732812Y-76133624D01*
X96896784Y-76201544D01*
X97044354Y-76300147D01*
X97169853Y-76425646D01*
X97268456Y-76573216D01*
X97336376Y-76737188D01*
X97371000Y-76911259D01*
X97371000Y-77088741D01*
X97336376Y-77262812D01*
X97268456Y-77426784D01*
X97169853Y-77574354D01*
X97044354Y-77699853D01*
X96896784Y-77798456D01*
X96732812Y-77866376D01*
X96583512Y-77896073D01*
X96558742Y-77901000D01*
X96381258Y-77901000D01*
X96356488Y-77896073D01*
X96207188Y-77866376D01*
X96043216Y-77798456D01*
X95895646Y-77699853D01*
X95770147Y-77574354D01*
X95671544Y-77426784D01*
X95603624Y-77262812D01*
X95569000Y-77088741D01*
X95569000Y-76911259D01*
X95603624Y-76737188D01*
X95671544Y-76573216D01*
X95770147Y-76425646D01*
X95895646Y-76300147D01*
X96043216Y-76201544D01*
X96207188Y-76133624D01*
X96356488Y-76103927D01*
X96381258Y-76099000D01*
X96558742Y-76099000D01*
X96583512Y-76103927D01*
G37*
G36*
X99123512Y-76103927D02*
G01*
X99272812Y-76133624D01*
X99436784Y-76201544D01*
X99584354Y-76300147D01*
X99709853Y-76425646D01*
X99808456Y-76573216D01*
X99876376Y-76737188D01*
X99911000Y-76911259D01*
X99911000Y-77088741D01*
X99876376Y-77262812D01*
X99808456Y-77426784D01*
X99709853Y-77574354D01*
X99584354Y-77699853D01*
X99436784Y-77798456D01*
X99272812Y-77866376D01*
X99123512Y-77896073D01*
X99098742Y-77901000D01*
X98921258Y-77901000D01*
X98896488Y-77896073D01*
X98747188Y-77866376D01*
X98583216Y-77798456D01*
X98435646Y-77699853D01*
X98310147Y-77574354D01*
X98211544Y-77426784D01*
X98143624Y-77262812D01*
X98109000Y-77088741D01*
X98109000Y-76911259D01*
X98143624Y-76737188D01*
X98211544Y-76573216D01*
X98310147Y-76425646D01*
X98435646Y-76300147D01*
X98583216Y-76201544D01*
X98747188Y-76133624D01*
X98896488Y-76103927D01*
X98921258Y-76099000D01*
X99098742Y-76099000D01*
X99123512Y-76103927D01*
G37*
G36*
X83883512Y-76103927D02*
G01*
X84032812Y-76133624D01*
X84196784Y-76201544D01*
X84344354Y-76300147D01*
X84469853Y-76425646D01*
X84568456Y-76573216D01*
X84636376Y-76737188D01*
X84671000Y-76911259D01*
X84671000Y-77088741D01*
X84636376Y-77262812D01*
X84568456Y-77426784D01*
X84469853Y-77574354D01*
X84344354Y-77699853D01*
X84196784Y-77798456D01*
X84032812Y-77866376D01*
X83883512Y-77896073D01*
X83858742Y-77901000D01*
X83681258Y-77901000D01*
X83656488Y-77896073D01*
X83507188Y-77866376D01*
X83343216Y-77798456D01*
X83195646Y-77699853D01*
X83070147Y-77574354D01*
X82971544Y-77426784D01*
X82903624Y-77262812D01*
X82869000Y-77088741D01*
X82869000Y-76911259D01*
X82903624Y-76737188D01*
X82971544Y-76573216D01*
X83070147Y-76425646D01*
X83195646Y-76300147D01*
X83343216Y-76201544D01*
X83507188Y-76133624D01*
X83656488Y-76103927D01*
X83681258Y-76099000D01*
X83858742Y-76099000D01*
X83883512Y-76103927D01*
G37*
G36*
X86209672Y-65598449D02*
G01*
X86209674Y-65598450D01*
X86209675Y-65598450D01*
X86278103Y-65626793D01*
X86339686Y-65667942D01*
X86392058Y-65720314D01*
X86433207Y-65781897D01*
X86441233Y-65801275D01*
X86461551Y-65850328D01*
X86476000Y-65922966D01*
X86476000Y-65997034D01*
X86468705Y-66033709D01*
X86461550Y-66069675D01*
X86433207Y-66138103D01*
X86392058Y-66199686D01*
X86339686Y-66252058D01*
X86278103Y-66293207D01*
X86209675Y-66321550D01*
X86209674Y-66321550D01*
X86209672Y-66321551D01*
X86137034Y-66336000D01*
X86062966Y-66336000D01*
X85990328Y-66321551D01*
X85990326Y-66321550D01*
X85990325Y-66321550D01*
X85921897Y-66293207D01*
X85860314Y-66252058D01*
X85807942Y-66199686D01*
X85766793Y-66138103D01*
X85738450Y-66069675D01*
X85731296Y-66033709D01*
X85724000Y-65997034D01*
X85724000Y-65922966D01*
X85738449Y-65850328D01*
X85758767Y-65801275D01*
X85766793Y-65781897D01*
X85807942Y-65720314D01*
X85860314Y-65667942D01*
X85921897Y-65626793D01*
X85990325Y-65598450D01*
X85990326Y-65598450D01*
X85990328Y-65598449D01*
X86062966Y-65584000D01*
X86137034Y-65584000D01*
X86209672Y-65598449D01*
G37*
G36*
X78458410Y-63965525D02*
G01*
X78543426Y-63991314D01*
X78621775Y-64033193D01*
X78690449Y-64089551D01*
X78746807Y-64158225D01*
X78788686Y-64236574D01*
X78814475Y-64321590D01*
X78821000Y-64387842D01*
X78821000Y-65032158D01*
X78814475Y-65098410D01*
X78788686Y-65183426D01*
X78746807Y-65261775D01*
X78690449Y-65330448D01*
X78651546Y-65362374D01*
X78634219Y-65379701D01*
X78620605Y-65400075D01*
X78611227Y-65422714D01*
X78606446Y-65446747D01*
X78606446Y-65471251D01*
X78611226Y-65495285D01*
X78620603Y-65517924D01*
X78634216Y-65538298D01*
X78651543Y-65555625D01*
X78671917Y-65569239D01*
X78694556Y-65578617D01*
X78718589Y-65583398D01*
X78730843Y-65584000D01*
X79068472Y-65584000D01*
X79123710Y-65589440D01*
X79196825Y-65611620D01*
X79220858Y-65616401D01*
X79245362Y-65616401D01*
X79269396Y-65611621D01*
X79292035Y-65602244D01*
X79312409Y-65588630D01*
X79329736Y-65571303D01*
X79343350Y-65550929D01*
X79352727Y-65528290D01*
X79357508Y-65504257D01*
X79357508Y-65479753D01*
X79352728Y-65455719D01*
X79348595Y-65444169D01*
X79338449Y-65419674D01*
X79324000Y-65347034D01*
X79324000Y-65272966D01*
X79338449Y-65200328D01*
X79345450Y-65183425D01*
X79366793Y-65131897D01*
X79407942Y-65070314D01*
X79460314Y-65017942D01*
X79521897Y-64976793D01*
X79590325Y-64948450D01*
X79590324Y-64948450D01*
X79590327Y-64948449D01*
X79665338Y-64933528D01*
X79688786Y-64926415D01*
X79710397Y-64914864D01*
X79729339Y-64899318D01*
X79744884Y-64880376D01*
X79756435Y-64858766D01*
X79763548Y-64835317D01*
X79765950Y-64810931D01*
X79763548Y-64786544D01*
X79756435Y-64763096D01*
X79738449Y-64719674D01*
X79724000Y-64647034D01*
X79724000Y-64572966D01*
X79738449Y-64500328D01*
X79738450Y-64500325D01*
X79766793Y-64431897D01*
X79807942Y-64370314D01*
X79860314Y-64317942D01*
X79921897Y-64276793D01*
X79990325Y-64248450D01*
X79990326Y-64248450D01*
X79990328Y-64248449D01*
X80062966Y-64234000D01*
X80137034Y-64234000D01*
X80209672Y-64248449D01*
X80209674Y-64248450D01*
X80209675Y-64248450D01*
X80278103Y-64276793D01*
X80339686Y-64317942D01*
X80392058Y-64370314D01*
X80396072Y-64376321D01*
X80411612Y-64395256D01*
X80430553Y-64410801D01*
X80452164Y-64422353D01*
X80475613Y-64429466D01*
X80499999Y-64431868D01*
X80524385Y-64429466D01*
X80547834Y-64422353D01*
X80569445Y-64410803D01*
X80588387Y-64395257D01*
X80603928Y-64376321D01*
X80607942Y-64370314D01*
X80660314Y-64317942D01*
X80721897Y-64276793D01*
X80790325Y-64248450D01*
X80790326Y-64248450D01*
X80790328Y-64248449D01*
X80862966Y-64234000D01*
X80937034Y-64234000D01*
X81009672Y-64248449D01*
X81009674Y-64248450D01*
X81009675Y-64248450D01*
X81078103Y-64276793D01*
X81139686Y-64317942D01*
X81192058Y-64370314D01*
X81196072Y-64376321D01*
X81211612Y-64395256D01*
X81230553Y-64410801D01*
X81252164Y-64422353D01*
X81275613Y-64429466D01*
X81299999Y-64431868D01*
X81324385Y-64429466D01*
X81347834Y-64422353D01*
X81369445Y-64410803D01*
X81388387Y-64395257D01*
X81403928Y-64376321D01*
X81407942Y-64370314D01*
X81460314Y-64317942D01*
X81521897Y-64276793D01*
X81590325Y-64248450D01*
X81590326Y-64248450D01*
X81590328Y-64248449D01*
X81662966Y-64234000D01*
X81737034Y-64234000D01*
X81809672Y-64248449D01*
X81809674Y-64248450D01*
X81809675Y-64248450D01*
X81878103Y-64276793D01*
X81939686Y-64317942D01*
X81992058Y-64370314D01*
X82033207Y-64431897D01*
X82061550Y-64500325D01*
X82061551Y-64500328D01*
X82076000Y-64572966D01*
X82076000Y-64647034D01*
X82061551Y-64719674D01*
X82043565Y-64763096D01*
X82036452Y-64786545D01*
X82034050Y-64810931D01*
X82036452Y-64835317D01*
X82043565Y-64858766D01*
X82055116Y-64880376D01*
X82070661Y-64899318D01*
X82089603Y-64914864D01*
X82111214Y-64926415D01*
X82134662Y-64933528D01*
X82209673Y-64948449D01*
X82209676Y-64948450D01*
X82209675Y-64948450D01*
X82278103Y-64976793D01*
X82339686Y-65017942D01*
X82392058Y-65070314D01*
X82396072Y-65076321D01*
X82411612Y-65095256D01*
X82430553Y-65110801D01*
X82452164Y-65122353D01*
X82475613Y-65129466D01*
X82499999Y-65131868D01*
X82524385Y-65129466D01*
X82547834Y-65122353D01*
X82569445Y-65110803D01*
X82588387Y-65095257D01*
X82603928Y-65076321D01*
X82607942Y-65070314D01*
X82660314Y-65017942D01*
X82721897Y-64976793D01*
X82790325Y-64948450D01*
X82790324Y-64948450D01*
X82790327Y-64948449D01*
X82865338Y-64933528D01*
X82888786Y-64926415D01*
X82910397Y-64914864D01*
X82929339Y-64899318D01*
X82944884Y-64880376D01*
X82956435Y-64858766D01*
X82963548Y-64835317D01*
X82965950Y-64810931D01*
X82963548Y-64786544D01*
X82956435Y-64763096D01*
X82938449Y-64719674D01*
X82924000Y-64647034D01*
X82924000Y-64572966D01*
X82938449Y-64500328D01*
X82938450Y-64500325D01*
X82966793Y-64431897D01*
X83007942Y-64370314D01*
X83060314Y-64317942D01*
X83121897Y-64276793D01*
X83190325Y-64248450D01*
X83190326Y-64248450D01*
X83190328Y-64248449D01*
X83262966Y-64234000D01*
X83337034Y-64234000D01*
X83409672Y-64248449D01*
X83409674Y-64248450D01*
X83409675Y-64248450D01*
X83478103Y-64276793D01*
X83539686Y-64317942D01*
X83592058Y-64370314D01*
X83596072Y-64376321D01*
X83611612Y-64395256D01*
X83630553Y-64410801D01*
X83652164Y-64422353D01*
X83675613Y-64429466D01*
X83699999Y-64431868D01*
X83724385Y-64429466D01*
X83747834Y-64422353D01*
X83769445Y-64410803D01*
X83788387Y-64395257D01*
X83803928Y-64376321D01*
X83807942Y-64370314D01*
X83860314Y-64317942D01*
X83921897Y-64276793D01*
X83990325Y-64248450D01*
X83990326Y-64248450D01*
X83990328Y-64248449D01*
X84062966Y-64234000D01*
X84137034Y-64234000D01*
X84209672Y-64248449D01*
X84209674Y-64248450D01*
X84209675Y-64248450D01*
X84278103Y-64276793D01*
X84339686Y-64317942D01*
X84392058Y-64370314D01*
X84396072Y-64376321D01*
X84411612Y-64395256D01*
X84430553Y-64410801D01*
X84452164Y-64422353D01*
X84475613Y-64429466D01*
X84499999Y-64431868D01*
X84524385Y-64429466D01*
X84547834Y-64422353D01*
X84569445Y-64410803D01*
X84588387Y-64395257D01*
X84603928Y-64376321D01*
X84607942Y-64370314D01*
X84660314Y-64317942D01*
X84721897Y-64276793D01*
X84790325Y-64248450D01*
X84790326Y-64248450D01*
X84790328Y-64248449D01*
X84862966Y-64234000D01*
X84937034Y-64234000D01*
X85009672Y-64248449D01*
X85009674Y-64248450D01*
X85009675Y-64248450D01*
X85078103Y-64276793D01*
X85139686Y-64317942D01*
X85192058Y-64370314D01*
X85233207Y-64431897D01*
X85261550Y-64500325D01*
X85261551Y-64500328D01*
X85276000Y-64572966D01*
X85276000Y-64647034D01*
X85261551Y-64719674D01*
X85243565Y-64763096D01*
X85236452Y-64786545D01*
X85234050Y-64810931D01*
X85236452Y-64835317D01*
X85243565Y-64858766D01*
X85255116Y-64880376D01*
X85270661Y-64899318D01*
X85289603Y-64914864D01*
X85311214Y-64926415D01*
X85334662Y-64933528D01*
X85409673Y-64948449D01*
X85409676Y-64948450D01*
X85409675Y-64948450D01*
X85478103Y-64976793D01*
X85539686Y-65017942D01*
X85592058Y-65070314D01*
X85633207Y-65131897D01*
X85654550Y-65183425D01*
X85661551Y-65200328D01*
X85676000Y-65272966D01*
X85676000Y-65347034D01*
X85672949Y-65362374D01*
X85661550Y-65419675D01*
X85633207Y-65488103D01*
X85592058Y-65549686D01*
X85539686Y-65602058D01*
X85478103Y-65643207D01*
X85409675Y-65671550D01*
X85409674Y-65671550D01*
X85409672Y-65671551D01*
X85337034Y-65686000D01*
X85262966Y-65686000D01*
X85190328Y-65671551D01*
X85190326Y-65671550D01*
X85190325Y-65671550D01*
X85121897Y-65643207D01*
X85060314Y-65602058D01*
X85007942Y-65549686D01*
X84966793Y-65488103D01*
X84938450Y-65419675D01*
X84927052Y-65362374D01*
X84924000Y-65347034D01*
X84924000Y-65272966D01*
X84938449Y-65200326D01*
X84956435Y-65156904D01*
X84963548Y-65133455D01*
X84965950Y-65109069D01*
X84963548Y-65084683D01*
X84956435Y-65061234D01*
X84944884Y-65039624D01*
X84929339Y-65020682D01*
X84910397Y-65005136D01*
X84888786Y-64993585D01*
X84865338Y-64986472D01*
X84790327Y-64971551D01*
X84780304Y-64967399D01*
X84721897Y-64943207D01*
X84660314Y-64902058D01*
X84607942Y-64849686D01*
X84603928Y-64843679D01*
X84588388Y-64824744D01*
X84569447Y-64809199D01*
X84547836Y-64797647D01*
X84524387Y-64790534D01*
X84500001Y-64788132D01*
X84475615Y-64790534D01*
X84452166Y-64797647D01*
X84430555Y-64809197D01*
X84411613Y-64824743D01*
X84396072Y-64843679D01*
X84392058Y-64849686D01*
X84339686Y-64902058D01*
X84278103Y-64943207D01*
X84219696Y-64967399D01*
X84209673Y-64971551D01*
X84134662Y-64986472D01*
X84111214Y-64993585D01*
X84089603Y-65005136D01*
X84070661Y-65020682D01*
X84055116Y-65039624D01*
X84043565Y-65061234D01*
X84036452Y-65084683D01*
X84034050Y-65109069D01*
X84036452Y-65133456D01*
X84043565Y-65156904D01*
X84061551Y-65200326D01*
X84076000Y-65272966D01*
X84076000Y-65347034D01*
X84072949Y-65362374D01*
X84061550Y-65419675D01*
X84033207Y-65488103D01*
X83992058Y-65549686D01*
X83939686Y-65602058D01*
X83878103Y-65643207D01*
X83809675Y-65671550D01*
X83809674Y-65671550D01*
X83809672Y-65671551D01*
X83737034Y-65686000D01*
X83662966Y-65686000D01*
X83590328Y-65671551D01*
X83590326Y-65671550D01*
X83590325Y-65671550D01*
X83521897Y-65643207D01*
X83460314Y-65602058D01*
X83407942Y-65549686D01*
X83403928Y-65543679D01*
X83388388Y-65524744D01*
X83369447Y-65509199D01*
X83347836Y-65497647D01*
X83324387Y-65490534D01*
X83300001Y-65488132D01*
X83275615Y-65490534D01*
X83252166Y-65497647D01*
X83230555Y-65509197D01*
X83211613Y-65524743D01*
X83196072Y-65543679D01*
X83192058Y-65549686D01*
X83139686Y-65602058D01*
X83078103Y-65643207D01*
X83009675Y-65671550D01*
X83009674Y-65671550D01*
X83009672Y-65671551D01*
X82937034Y-65686000D01*
X82862966Y-65686000D01*
X82790328Y-65671551D01*
X82790326Y-65671550D01*
X82790325Y-65671550D01*
X82721897Y-65643207D01*
X82660314Y-65602058D01*
X82607942Y-65549686D01*
X82603928Y-65543679D01*
X82588388Y-65524744D01*
X82569447Y-65509199D01*
X82547836Y-65497647D01*
X82524387Y-65490534D01*
X82500001Y-65488132D01*
X82475615Y-65490534D01*
X82452166Y-65497647D01*
X82430555Y-65509197D01*
X82411613Y-65524743D01*
X82396072Y-65543679D01*
X82392058Y-65549686D01*
X82339686Y-65602058D01*
X82278103Y-65643207D01*
X82209675Y-65671550D01*
X82209674Y-65671550D01*
X82209672Y-65671551D01*
X82137034Y-65686000D01*
X82062966Y-65686000D01*
X81990328Y-65671551D01*
X81990326Y-65671550D01*
X81990325Y-65671550D01*
X81921897Y-65643207D01*
X81860314Y-65602058D01*
X81807942Y-65549686D01*
X81803928Y-65543679D01*
X81788388Y-65524744D01*
X81769447Y-65509199D01*
X81747836Y-65497647D01*
X81724387Y-65490534D01*
X81700001Y-65488132D01*
X81675615Y-65490534D01*
X81652166Y-65497647D01*
X81630555Y-65509197D01*
X81611613Y-65524743D01*
X81596072Y-65543679D01*
X81592058Y-65549686D01*
X81539686Y-65602058D01*
X81478103Y-65643207D01*
X81409675Y-65671550D01*
X81409674Y-65671550D01*
X81409672Y-65671551D01*
X81337034Y-65686000D01*
X81262966Y-65686000D01*
X81190328Y-65671551D01*
X81190326Y-65671550D01*
X81190325Y-65671550D01*
X81121897Y-65643207D01*
X81060314Y-65602058D01*
X81007942Y-65549686D01*
X80966793Y-65488103D01*
X80938450Y-65419675D01*
X80927052Y-65362374D01*
X80924000Y-65347034D01*
X80924000Y-65272966D01*
X80938449Y-65200326D01*
X80956435Y-65156904D01*
X80963548Y-65133455D01*
X80965950Y-65109069D01*
X80963548Y-65084683D01*
X80956435Y-65061234D01*
X80944884Y-65039624D01*
X80929339Y-65020682D01*
X80910397Y-65005136D01*
X80888786Y-64993585D01*
X80865338Y-64986472D01*
X80790327Y-64971551D01*
X80780304Y-64967399D01*
X80721897Y-64943207D01*
X80660314Y-64902058D01*
X80607942Y-64849686D01*
X80603928Y-64843679D01*
X80588388Y-64824744D01*
X80569447Y-64809199D01*
X80547836Y-64797647D01*
X80524387Y-64790534D01*
X80500001Y-64788132D01*
X80475615Y-64790534D01*
X80452166Y-64797647D01*
X80430555Y-64809197D01*
X80411613Y-64824743D01*
X80396072Y-64843679D01*
X80392058Y-64849686D01*
X80339686Y-64902058D01*
X80278103Y-64943207D01*
X80219696Y-64967399D01*
X80209673Y-64971551D01*
X80134662Y-64986472D01*
X80111214Y-64993585D01*
X80089603Y-65005136D01*
X80070661Y-65020682D01*
X80055116Y-65039624D01*
X80043565Y-65061234D01*
X80036452Y-65084683D01*
X80034050Y-65109069D01*
X80036452Y-65133456D01*
X80043565Y-65156904D01*
X80061551Y-65200326D01*
X80076000Y-65272966D01*
X80076000Y-65347034D01*
X80072949Y-65362374D01*
X80061550Y-65419675D01*
X80033207Y-65488103D01*
X79992058Y-65549686D01*
X79939686Y-65602058D01*
X79878103Y-65643207D01*
X79809675Y-65671550D01*
X79809674Y-65671550D01*
X79809672Y-65671551D01*
X79737034Y-65686000D01*
X79662966Y-65686000D01*
X79590326Y-65671551D01*
X79565831Y-65661405D01*
X79542382Y-65654292D01*
X79517996Y-65651890D01*
X79493610Y-65654292D01*
X79470161Y-65661405D01*
X79448550Y-65672956D01*
X79429608Y-65688501D01*
X79414063Y-65707443D01*
X79402512Y-65729054D01*
X79395399Y-65752503D01*
X79392997Y-65776889D01*
X79395399Y-65801275D01*
X79398380Y-65813175D01*
X79420560Y-65886290D01*
X79427819Y-65960000D01*
X79420560Y-66033710D01*
X79399060Y-66104585D01*
X79364146Y-66169904D01*
X79317159Y-66227159D01*
X79259904Y-66274146D01*
X79194585Y-66309060D01*
X79123710Y-66330560D01*
X79068472Y-66336000D01*
X78731528Y-66336000D01*
X78676290Y-66330560D01*
X78605415Y-66309060D01*
X78540096Y-66274146D01*
X78482841Y-66227159D01*
X78435854Y-66169904D01*
X78400940Y-66104585D01*
X78379440Y-66033710D01*
X78372181Y-65960000D01*
X78379440Y-65886290D01*
X78400940Y-65815415D01*
X78435854Y-65750096D01*
X78482841Y-65692842D01*
X78497703Y-65680645D01*
X78515030Y-65663318D01*
X78528644Y-65642944D01*
X78538021Y-65620305D01*
X78542802Y-65596272D01*
X78542802Y-65571768D01*
X78538022Y-65547735D01*
X78528645Y-65525096D01*
X78515031Y-65504721D01*
X78497704Y-65487394D01*
X78477330Y-65473780D01*
X78454691Y-65464403D01*
X78430658Y-65459622D01*
X78406154Y-65459622D01*
X78370001Y-65463182D01*
X78370000Y-65463182D01*
X78361293Y-65462324D01*
X78281590Y-65454475D01*
X78196574Y-65428686D01*
X78118225Y-65386807D01*
X78049552Y-65330449D01*
X77993193Y-65261774D01*
X77951314Y-65183425D01*
X77925525Y-65098409D01*
X77919000Y-65032157D01*
X77919000Y-64387842D01*
X77925525Y-64321590D01*
X77951313Y-64236577D01*
X77993195Y-64158224D01*
X78049552Y-64089551D01*
X78118226Y-64033193D01*
X78196575Y-63991314D01*
X78281591Y-63965525D01*
X78370000Y-63956818D01*
X78458410Y-63965525D01*
G37*
G36*
X86718410Y-63965525D02*
G01*
X86803426Y-63991314D01*
X86881775Y-64033193D01*
X86950449Y-64089551D01*
X87006807Y-64158225D01*
X87048686Y-64236574D01*
X87074475Y-64321590D01*
X87081000Y-64387842D01*
X87081000Y-65032158D01*
X87074475Y-65098410D01*
X87048686Y-65183426D01*
X87006807Y-65261775D01*
X86950449Y-65330448D01*
X86881774Y-65386807D01*
X86803425Y-65428686D01*
X86718409Y-65454475D01*
X86630000Y-65463182D01*
X86541590Y-65454475D01*
X86456574Y-65428686D01*
X86378225Y-65386807D01*
X86309552Y-65330449D01*
X86253193Y-65261774D01*
X86211314Y-65183425D01*
X86185525Y-65098409D01*
X86179000Y-65032157D01*
X86179000Y-64387842D01*
X86185525Y-64321590D01*
X86211313Y-64236577D01*
X86253195Y-64158224D01*
X86309552Y-64089551D01*
X86378226Y-64033193D01*
X86456575Y-63991314D01*
X86541591Y-63965525D01*
X86630000Y-63956818D01*
X86718410Y-63965525D01*
G37*
G36*
X70634239Y-57811467D02*
G01*
X70948282Y-57873934D01*
X71539926Y-58119001D01*
X72072392Y-58474784D01*
X72525216Y-58927608D01*
X72880999Y-59460074D01*
X73126066Y-60051718D01*
X73126066Y-60051719D01*
X73251000Y-60679803D01*
X73251000Y-61320197D01*
X73188533Y-61634239D01*
X73126066Y-61948282D01*
X72880999Y-62539926D01*
X72525216Y-63072392D01*
X72072392Y-63525216D01*
X71539926Y-63880999D01*
X70948282Y-64126066D01*
X70634239Y-64188533D01*
X70320197Y-64251000D01*
X69679803Y-64251000D01*
X69365761Y-64188533D01*
X69051718Y-64126066D01*
X68460074Y-63880999D01*
X67927608Y-63525216D01*
X67474784Y-63072392D01*
X67119001Y-62539926D01*
X66873934Y-61948282D01*
X66811467Y-61634239D01*
X66749000Y-61320197D01*
X66749000Y-60679803D01*
X66873934Y-60051719D01*
X66873934Y-60051718D01*
X67119001Y-59460074D01*
X67474784Y-58927608D01*
X67927608Y-58474784D01*
X68460074Y-58119001D01*
X69051718Y-57873934D01*
X69365761Y-57811467D01*
X69679803Y-57749000D01*
X70320197Y-57749000D01*
X70634239Y-57811467D01*
G37*
G36*
X95634239Y-57811467D02*
G01*
X95948282Y-57873934D01*
X96539926Y-58119001D01*
X97072392Y-58474784D01*
X97525216Y-58927608D01*
X97880999Y-59460074D01*
X98126066Y-60051718D01*
X98126066Y-60051719D01*
X98251000Y-60679803D01*
X98251000Y-61320197D01*
X98188533Y-61634239D01*
X98126066Y-61948282D01*
X97880999Y-62539926D01*
X97525216Y-63072392D01*
X97072392Y-63525216D01*
X96539926Y-63880999D01*
X95948282Y-64126066D01*
X95634239Y-64188533D01*
X95320197Y-64251000D01*
X94679803Y-64251000D01*
X94365761Y-64188533D01*
X94051718Y-64126066D01*
X93460074Y-63880999D01*
X92927608Y-63525216D01*
X92474784Y-63072392D01*
X92119001Y-62539926D01*
X91873934Y-61948282D01*
X91811467Y-61634239D01*
X91749000Y-61320197D01*
X91749000Y-60679803D01*
X91873934Y-60051719D01*
X91873934Y-60051718D01*
X92119001Y-59460074D01*
X92474784Y-58927608D01*
X92927608Y-58474784D01*
X93460074Y-58119001D01*
X94051718Y-57873934D01*
X94365761Y-57811467D01*
X94679803Y-57749000D01*
X95320197Y-57749000D01*
X95634239Y-57811467D01*
G37*
G36*
X87093114Y-59256611D02*
G01*
X87192265Y-59286688D01*
X87283644Y-59335531D01*
X87363738Y-59401262D01*
X87429469Y-59481356D01*
X87478312Y-59572735D01*
X87508389Y-59671886D01*
X87516000Y-59749161D01*
X87516000Y-60650839D01*
X87508389Y-60728114D01*
X87478312Y-60827265D01*
X87429469Y-60918644D01*
X87363738Y-60998738D01*
X87283644Y-61064469D01*
X87192264Y-61113312D01*
X87093113Y-61143389D01*
X86990000Y-61153545D01*
X86886886Y-61143389D01*
X86787735Y-61113312D01*
X86696356Y-61064469D01*
X86616262Y-60998738D01*
X86550531Y-60918644D01*
X86501688Y-60827264D01*
X86471611Y-60728113D01*
X86464000Y-60650838D01*
X86464000Y-59749161D01*
X86471612Y-59671886D01*
X86501689Y-59572735D01*
X86550532Y-59481356D01*
X86616263Y-59401262D01*
X86696357Y-59335531D01*
X86787736Y-59286688D01*
X86886887Y-59256611D01*
X86990000Y-59246455D01*
X87093114Y-59256611D01*
G37*
G36*
X78113114Y-59256611D02*
G01*
X78212265Y-59286688D01*
X78303644Y-59335531D01*
X78383738Y-59401262D01*
X78449469Y-59481356D01*
X78498312Y-59572735D01*
X78528389Y-59671886D01*
X78536000Y-59749161D01*
X78536000Y-60650839D01*
X78528389Y-60728114D01*
X78498312Y-60827265D01*
X78449469Y-60918644D01*
X78383738Y-60998738D01*
X78303644Y-61064469D01*
X78212264Y-61113312D01*
X78113113Y-61143389D01*
X78010000Y-61153545D01*
X77906886Y-61143389D01*
X77807735Y-61113312D01*
X77716356Y-61064469D01*
X77636262Y-60998738D01*
X77570531Y-60918644D01*
X77521688Y-60827264D01*
X77491611Y-60728113D01*
X77484000Y-60650838D01*
X77484000Y-59749161D01*
X77491612Y-59671886D01*
X77521689Y-59572735D01*
X77570532Y-59481356D01*
X77636263Y-59401262D01*
X77716357Y-59335531D01*
X77807736Y-59286688D01*
X77906887Y-59256611D01*
X78010000Y-59246455D01*
X78113114Y-59256611D01*
G37*
M02*
