G04 #@! TF.GenerationSoftware,KiCad,Pcbnew,(5.1.5)-3*
G04 #@! TF.CreationDate,2020-05-05T01:34:39+02:00*
G04 #@! TF.ProjectId,USB-C-USB-3.2,5553422d-432d-4555-9342-2d332e322e6b,rev?*
G04 #@! TF.SameCoordinates,Original*
G04 #@! TF.FileFunction,Legend,Top*
G04 #@! TF.FilePolarity,Positive*
%FSLAX46Y46*%
G04 Gerber Fmt 4.6, Leading zero omitted, Abs format (unit mm)*
G04 Created by KiCad (PCBNEW (5.1.5)-3) date 2020-05-05 01:34:39*
%MOMM*%
%LPD*%
G04 APERTURE LIST*
%ADD10C,0.080000*%
%ADD11C,0.100000*%
%ADD12C,0.120000*%
%ADD13C,0.150000*%
G04 APERTURE END LIST*
D10*
X82500000Y-77000000D02*
X82500000Y-65425000D01*
D11*
X62972857Y-74358809D02*
X63752857Y-74092142D01*
X62972857Y-73825476D01*
X63344285Y-73292142D02*
X63381428Y-73177857D01*
X63418571Y-73139761D01*
X63492857Y-73101666D01*
X63604285Y-73101666D01*
X63678571Y-73139761D01*
X63715714Y-73177857D01*
X63752857Y-73254047D01*
X63752857Y-73558809D01*
X62972857Y-73558809D01*
X62972857Y-73292142D01*
X63010000Y-73215952D01*
X63047142Y-73177857D01*
X63121428Y-73139761D01*
X63195714Y-73139761D01*
X63270000Y-73177857D01*
X63307142Y-73215952D01*
X63344285Y-73292142D01*
X63344285Y-73558809D01*
X62972857Y-72758809D02*
X63604285Y-72758809D01*
X63678571Y-72720714D01*
X63715714Y-72682619D01*
X63752857Y-72606428D01*
X63752857Y-72454047D01*
X63715714Y-72377857D01*
X63678571Y-72339761D01*
X63604285Y-72301666D01*
X62972857Y-72301666D01*
X63715714Y-71958809D02*
X63752857Y-71844523D01*
X63752857Y-71654047D01*
X63715714Y-71577857D01*
X63678571Y-71539761D01*
X63604285Y-71501666D01*
X63530000Y-71501666D01*
X63455714Y-71539761D01*
X63418571Y-71577857D01*
X63381428Y-71654047D01*
X63344285Y-71806428D01*
X63307142Y-71882619D01*
X63270000Y-71920714D01*
X63195714Y-71958809D01*
X63121428Y-71958809D01*
X63047142Y-71920714D01*
X63010000Y-71882619D01*
X62972857Y-71806428D01*
X62972857Y-71615952D01*
X63010000Y-71501666D01*
X66070000Y-74282619D02*
X66070000Y-73901666D01*
X66292857Y-74358809D02*
X65512857Y-74092142D01*
X66292857Y-73825476D01*
X65847142Y-73444523D02*
X65810000Y-73520714D01*
X65772857Y-73558809D01*
X65698571Y-73596904D01*
X65661428Y-73596904D01*
X65587142Y-73558809D01*
X65550000Y-73520714D01*
X65512857Y-73444523D01*
X65512857Y-73292142D01*
X65550000Y-73215952D01*
X65587142Y-73177857D01*
X65661428Y-73139761D01*
X65698571Y-73139761D01*
X65772857Y-73177857D01*
X65810000Y-73215952D01*
X65847142Y-73292142D01*
X65847142Y-73444523D01*
X65884285Y-73520714D01*
X65921428Y-73558809D01*
X65995714Y-73596904D01*
X66144285Y-73596904D01*
X66218571Y-73558809D01*
X66255714Y-73520714D01*
X66292857Y-73444523D01*
X66292857Y-73292142D01*
X66255714Y-73215952D01*
X66218571Y-73177857D01*
X66144285Y-73139761D01*
X65995714Y-73139761D01*
X65921428Y-73177857D01*
X65884285Y-73215952D01*
X65847142Y-73292142D01*
X68424285Y-73977857D02*
X68461428Y-73863571D01*
X68498571Y-73825476D01*
X68572857Y-73787380D01*
X68684285Y-73787380D01*
X68758571Y-73825476D01*
X68795714Y-73863571D01*
X68832857Y-73939761D01*
X68832857Y-74244523D01*
X68052857Y-74244523D01*
X68052857Y-73977857D01*
X68090000Y-73901666D01*
X68127142Y-73863571D01*
X68201428Y-73825476D01*
X68275714Y-73825476D01*
X68350000Y-73863571D01*
X68387142Y-73901666D01*
X68424285Y-73977857D01*
X68424285Y-74244523D01*
X68052857Y-73063571D02*
X68052857Y-73444523D01*
X68424285Y-73482619D01*
X68387142Y-73444523D01*
X68350000Y-73368333D01*
X68350000Y-73177857D01*
X68387142Y-73101666D01*
X68424285Y-73063571D01*
X68498571Y-73025476D01*
X68684285Y-73025476D01*
X68758571Y-73063571D01*
X68795714Y-73101666D01*
X68832857Y-73177857D01*
X68832857Y-73368333D01*
X68795714Y-73444523D01*
X68758571Y-73482619D01*
X70964285Y-73977857D02*
X71001428Y-73863571D01*
X71038571Y-73825476D01*
X71112857Y-73787380D01*
X71224285Y-73787380D01*
X71298571Y-73825476D01*
X71335714Y-73863571D01*
X71372857Y-73939761D01*
X71372857Y-74244523D01*
X70592857Y-74244523D01*
X70592857Y-73977857D01*
X70630000Y-73901666D01*
X70667142Y-73863571D01*
X70741428Y-73825476D01*
X70815714Y-73825476D01*
X70890000Y-73863571D01*
X70927142Y-73901666D01*
X70964285Y-73977857D01*
X70964285Y-74244523D01*
X70592857Y-73520714D02*
X70592857Y-73025476D01*
X70890000Y-73292142D01*
X70890000Y-73177857D01*
X70927142Y-73101666D01*
X70964285Y-73063571D01*
X71038571Y-73025476D01*
X71224285Y-73025476D01*
X71298571Y-73063571D01*
X71335714Y-73101666D01*
X71372857Y-73177857D01*
X71372857Y-73406428D01*
X71335714Y-73482619D01*
X71298571Y-73520714D01*
X73504285Y-73977857D02*
X73541428Y-73863571D01*
X73578571Y-73825476D01*
X73652857Y-73787380D01*
X73764285Y-73787380D01*
X73838571Y-73825476D01*
X73875714Y-73863571D01*
X73912857Y-73939761D01*
X73912857Y-74244523D01*
X73132857Y-74244523D01*
X73132857Y-73977857D01*
X73170000Y-73901666D01*
X73207142Y-73863571D01*
X73281428Y-73825476D01*
X73355714Y-73825476D01*
X73430000Y-73863571D01*
X73467142Y-73901666D01*
X73504285Y-73977857D01*
X73504285Y-74244523D01*
X73207142Y-73482619D02*
X73170000Y-73444523D01*
X73132857Y-73368333D01*
X73132857Y-73177857D01*
X73170000Y-73101666D01*
X73207142Y-73063571D01*
X73281428Y-73025476D01*
X73355714Y-73025476D01*
X73467142Y-73063571D01*
X73912857Y-73520714D01*
X73912857Y-73025476D01*
X76230000Y-74282619D02*
X76230000Y-73901666D01*
X76452857Y-74358809D02*
X75672857Y-74092142D01*
X76452857Y-73825476D01*
X76452857Y-73139761D02*
X76452857Y-73596904D01*
X76452857Y-73368333D02*
X75672857Y-73368333D01*
X75784285Y-73444523D01*
X75858571Y-73520714D01*
X75895714Y-73596904D01*
X76452857Y-72377857D02*
X76452857Y-72835000D01*
X76452857Y-72606428D02*
X75672857Y-72606428D01*
X75784285Y-72682619D01*
X75858571Y-72758809D01*
X75895714Y-72835000D01*
X78770000Y-74282619D02*
X78770000Y-73901666D01*
X78992857Y-74358809D02*
X78212857Y-74092142D01*
X78992857Y-73825476D01*
X78992857Y-73139761D02*
X78992857Y-73596904D01*
X78992857Y-73368333D02*
X78212857Y-73368333D01*
X78324285Y-73444523D01*
X78398571Y-73520714D01*
X78435714Y-73596904D01*
X78212857Y-72644523D02*
X78212857Y-72568333D01*
X78250000Y-72492142D01*
X78287142Y-72454047D01*
X78361428Y-72415952D01*
X78510000Y-72377857D01*
X78695714Y-72377857D01*
X78844285Y-72415952D01*
X78918571Y-72454047D01*
X78955714Y-72492142D01*
X78992857Y-72568333D01*
X78992857Y-72644523D01*
X78955714Y-72720714D01*
X78918571Y-72758809D01*
X78844285Y-72796904D01*
X78695714Y-72835000D01*
X78510000Y-72835000D01*
X78361428Y-72796904D01*
X78287142Y-72758809D01*
X78250000Y-72720714D01*
X78212857Y-72644523D01*
X81310000Y-74282619D02*
X81310000Y-73901666D01*
X81532857Y-74358809D02*
X80752857Y-74092142D01*
X81532857Y-73825476D01*
X80752857Y-73635000D02*
X80752857Y-73101666D01*
X81532857Y-73444523D01*
X83850000Y-74282619D02*
X83850000Y-73901666D01*
X84072857Y-74358809D02*
X83292857Y-74092142D01*
X84072857Y-73825476D01*
X83292857Y-73215952D02*
X83292857Y-73368333D01*
X83330000Y-73444523D01*
X83367142Y-73482619D01*
X83478571Y-73558809D01*
X83627142Y-73596904D01*
X83924285Y-73596904D01*
X83998571Y-73558809D01*
X84035714Y-73520714D01*
X84072857Y-73444523D01*
X84072857Y-73292142D01*
X84035714Y-73215952D01*
X83998571Y-73177857D01*
X83924285Y-73139761D01*
X83738571Y-73139761D01*
X83664285Y-73177857D01*
X83627142Y-73215952D01*
X83590000Y-73292142D01*
X83590000Y-73444523D01*
X83627142Y-73520714D01*
X83664285Y-73558809D01*
X83738571Y-73596904D01*
X86390000Y-74282619D02*
X86390000Y-73901666D01*
X86612857Y-74358809D02*
X85832857Y-74092142D01*
X86612857Y-73825476D01*
X85832857Y-73635000D02*
X85832857Y-73139761D01*
X86130000Y-73406428D01*
X86130000Y-73292142D01*
X86167142Y-73215952D01*
X86204285Y-73177857D01*
X86278571Y-73139761D01*
X86464285Y-73139761D01*
X86538571Y-73177857D01*
X86575714Y-73215952D01*
X86612857Y-73292142D01*
X86612857Y-73520714D01*
X86575714Y-73596904D01*
X86538571Y-73635000D01*
X88930000Y-74282619D02*
X88930000Y-73901666D01*
X89152857Y-74358809D02*
X88372857Y-74092142D01*
X89152857Y-73825476D01*
X88447142Y-73596904D02*
X88410000Y-73558809D01*
X88372857Y-73482619D01*
X88372857Y-73292142D01*
X88410000Y-73215952D01*
X88447142Y-73177857D01*
X88521428Y-73139761D01*
X88595714Y-73139761D01*
X88707142Y-73177857D01*
X89152857Y-73635000D01*
X89152857Y-73139761D01*
X91284285Y-73977857D02*
X91321428Y-73863571D01*
X91358571Y-73825476D01*
X91432857Y-73787380D01*
X91544285Y-73787380D01*
X91618571Y-73825476D01*
X91655714Y-73863571D01*
X91692857Y-73939761D01*
X91692857Y-74244523D01*
X90912857Y-74244523D01*
X90912857Y-73977857D01*
X90950000Y-73901666D01*
X90987142Y-73863571D01*
X91061428Y-73825476D01*
X91135714Y-73825476D01*
X91210000Y-73863571D01*
X91247142Y-73901666D01*
X91284285Y-73977857D01*
X91284285Y-74244523D01*
X91692857Y-73025476D02*
X91692857Y-73482619D01*
X91692857Y-73254047D02*
X90912857Y-73254047D01*
X91024285Y-73330238D01*
X91098571Y-73406428D01*
X91135714Y-73482619D01*
X91692857Y-72263571D02*
X91692857Y-72720714D01*
X91692857Y-72492142D02*
X90912857Y-72492142D01*
X91024285Y-72568333D01*
X91098571Y-72644523D01*
X91135714Y-72720714D01*
X93824285Y-73977857D02*
X93861428Y-73863571D01*
X93898571Y-73825476D01*
X93972857Y-73787380D01*
X94084285Y-73787380D01*
X94158571Y-73825476D01*
X94195714Y-73863571D01*
X94232857Y-73939761D01*
X94232857Y-74244523D01*
X93452857Y-74244523D01*
X93452857Y-73977857D01*
X93490000Y-73901666D01*
X93527142Y-73863571D01*
X93601428Y-73825476D01*
X93675714Y-73825476D01*
X93750000Y-73863571D01*
X93787142Y-73901666D01*
X93824285Y-73977857D01*
X93824285Y-74244523D01*
X94232857Y-73025476D02*
X94232857Y-73482619D01*
X94232857Y-73254047D02*
X93452857Y-73254047D01*
X93564285Y-73330238D01*
X93638571Y-73406428D01*
X93675714Y-73482619D01*
X93452857Y-72530238D02*
X93452857Y-72454047D01*
X93490000Y-72377857D01*
X93527142Y-72339761D01*
X93601428Y-72301666D01*
X93750000Y-72263571D01*
X93935714Y-72263571D01*
X94084285Y-72301666D01*
X94158571Y-72339761D01*
X94195714Y-72377857D01*
X94232857Y-72454047D01*
X94232857Y-72530238D01*
X94195714Y-72606428D01*
X94158571Y-72644523D01*
X94084285Y-72682619D01*
X93935714Y-72720714D01*
X93750000Y-72720714D01*
X93601428Y-72682619D01*
X93527142Y-72644523D01*
X93490000Y-72606428D01*
X93452857Y-72530238D01*
X96364285Y-73977857D02*
X96401428Y-73863571D01*
X96438571Y-73825476D01*
X96512857Y-73787380D01*
X96624285Y-73787380D01*
X96698571Y-73825476D01*
X96735714Y-73863571D01*
X96772857Y-73939761D01*
X96772857Y-74244523D01*
X95992857Y-74244523D01*
X95992857Y-73977857D01*
X96030000Y-73901666D01*
X96067142Y-73863571D01*
X96141428Y-73825476D01*
X96215714Y-73825476D01*
X96290000Y-73863571D01*
X96327142Y-73901666D01*
X96364285Y-73977857D01*
X96364285Y-74244523D01*
X95992857Y-73063571D02*
X95992857Y-73444523D01*
X96364285Y-73482619D01*
X96327142Y-73444523D01*
X96290000Y-73368333D01*
X96290000Y-73177857D01*
X96327142Y-73101666D01*
X96364285Y-73063571D01*
X96438571Y-73025476D01*
X96624285Y-73025476D01*
X96698571Y-73063571D01*
X96735714Y-73101666D01*
X96772857Y-73177857D01*
X96772857Y-73368333D01*
X96735714Y-73444523D01*
X96698571Y-73482619D01*
X98904285Y-73977857D02*
X98941428Y-73863571D01*
X98978571Y-73825476D01*
X99052857Y-73787380D01*
X99164285Y-73787380D01*
X99238571Y-73825476D01*
X99275714Y-73863571D01*
X99312857Y-73939761D01*
X99312857Y-74244523D01*
X98532857Y-74244523D01*
X98532857Y-73977857D01*
X98570000Y-73901666D01*
X98607142Y-73863571D01*
X98681428Y-73825476D01*
X98755714Y-73825476D01*
X98830000Y-73863571D01*
X98867142Y-73901666D01*
X98904285Y-73977857D01*
X98904285Y-74244523D01*
X98867142Y-73330238D02*
X98830000Y-73406428D01*
X98792857Y-73444523D01*
X98718571Y-73482619D01*
X98681428Y-73482619D01*
X98607142Y-73444523D01*
X98570000Y-73406428D01*
X98532857Y-73330238D01*
X98532857Y-73177857D01*
X98570000Y-73101666D01*
X98607142Y-73063571D01*
X98681428Y-73025476D01*
X98718571Y-73025476D01*
X98792857Y-73063571D01*
X98830000Y-73101666D01*
X98867142Y-73177857D01*
X98867142Y-73330238D01*
X98904285Y-73406428D01*
X98941428Y-73444523D01*
X99015714Y-73482619D01*
X99164285Y-73482619D01*
X99238571Y-73444523D01*
X99275714Y-73406428D01*
X99312857Y-73330238D01*
X99312857Y-73177857D01*
X99275714Y-73101666D01*
X99238571Y-73063571D01*
X99164285Y-73025476D01*
X99015714Y-73025476D01*
X98941428Y-73063571D01*
X98904285Y-73101666D01*
X98867142Y-73177857D01*
X101110000Y-73825476D02*
X101072857Y-73901666D01*
X101072857Y-74015952D01*
X101110000Y-74130238D01*
X101184285Y-74206428D01*
X101258571Y-74244523D01*
X101407142Y-74282619D01*
X101518571Y-74282619D01*
X101667142Y-74244523D01*
X101741428Y-74206428D01*
X101815714Y-74130238D01*
X101852857Y-74015952D01*
X101852857Y-73939761D01*
X101815714Y-73825476D01*
X101778571Y-73787380D01*
X101518571Y-73787380D01*
X101518571Y-73939761D01*
X101852857Y-73444523D02*
X101072857Y-73444523D01*
X101852857Y-72987380D01*
X101072857Y-72987380D01*
X101852857Y-72606428D02*
X101072857Y-72606428D01*
X101072857Y-72415952D01*
X101110000Y-72301666D01*
X101184285Y-72225476D01*
X101258571Y-72187380D01*
X101407142Y-72149285D01*
X101518571Y-72149285D01*
X101667142Y-72187380D01*
X101741428Y-72225476D01*
X101815714Y-72301666D01*
X101852857Y-72415952D01*
X101852857Y-72606428D01*
X62972857Y-82074523D02*
X63752857Y-81807857D01*
X62972857Y-81541190D01*
X63344285Y-81007857D02*
X63381428Y-80893571D01*
X63418571Y-80855476D01*
X63492857Y-80817380D01*
X63604285Y-80817380D01*
X63678571Y-80855476D01*
X63715714Y-80893571D01*
X63752857Y-80969761D01*
X63752857Y-81274523D01*
X62972857Y-81274523D01*
X62972857Y-81007857D01*
X63010000Y-80931666D01*
X63047142Y-80893571D01*
X63121428Y-80855476D01*
X63195714Y-80855476D01*
X63270000Y-80893571D01*
X63307142Y-80931666D01*
X63344285Y-81007857D01*
X63344285Y-81274523D01*
X62972857Y-80474523D02*
X63604285Y-80474523D01*
X63678571Y-80436428D01*
X63715714Y-80398333D01*
X63752857Y-80322142D01*
X63752857Y-80169761D01*
X63715714Y-80093571D01*
X63678571Y-80055476D01*
X63604285Y-80017380D01*
X62972857Y-80017380D01*
X63715714Y-79674523D02*
X63752857Y-79560238D01*
X63752857Y-79369761D01*
X63715714Y-79293571D01*
X63678571Y-79255476D01*
X63604285Y-79217380D01*
X63530000Y-79217380D01*
X63455714Y-79255476D01*
X63418571Y-79293571D01*
X63381428Y-79369761D01*
X63344285Y-79522142D01*
X63307142Y-79598333D01*
X63270000Y-79636428D01*
X63195714Y-79674523D01*
X63121428Y-79674523D01*
X63047142Y-79636428D01*
X63010000Y-79598333D01*
X62972857Y-79522142D01*
X62972857Y-79331666D01*
X63010000Y-79217380D01*
X66255714Y-82074523D02*
X66292857Y-81960238D01*
X66292857Y-81769761D01*
X66255714Y-81693571D01*
X66218571Y-81655476D01*
X66144285Y-81617380D01*
X66070000Y-81617380D01*
X65995714Y-81655476D01*
X65958571Y-81693571D01*
X65921428Y-81769761D01*
X65884285Y-81922142D01*
X65847142Y-81998333D01*
X65810000Y-82036428D01*
X65735714Y-82074523D01*
X65661428Y-82074523D01*
X65587142Y-82036428D01*
X65550000Y-81998333D01*
X65512857Y-81922142D01*
X65512857Y-81731666D01*
X65550000Y-81617380D01*
X65884285Y-81007857D02*
X65921428Y-80893571D01*
X65958571Y-80855476D01*
X66032857Y-80817380D01*
X66144285Y-80817380D01*
X66218571Y-80855476D01*
X66255714Y-80893571D01*
X66292857Y-80969761D01*
X66292857Y-81274523D01*
X65512857Y-81274523D01*
X65512857Y-81007857D01*
X65550000Y-80931666D01*
X65587142Y-80893571D01*
X65661428Y-80855476D01*
X65735714Y-80855476D01*
X65810000Y-80893571D01*
X65847142Y-80931666D01*
X65884285Y-81007857D01*
X65884285Y-81274523D01*
X65512857Y-80474523D02*
X66144285Y-80474523D01*
X66218571Y-80436428D01*
X66255714Y-80398333D01*
X66292857Y-80322142D01*
X66292857Y-80169761D01*
X66255714Y-80093571D01*
X66218571Y-80055476D01*
X66144285Y-80017380D01*
X65512857Y-80017380D01*
X66292857Y-79217380D02*
X66292857Y-79674523D01*
X66292857Y-79445952D02*
X65512857Y-79445952D01*
X65624285Y-79522142D01*
X65698571Y-79598333D01*
X65735714Y-79674523D01*
X68758571Y-80779285D02*
X68795714Y-80817380D01*
X68832857Y-80931666D01*
X68832857Y-81007857D01*
X68795714Y-81122142D01*
X68721428Y-81198333D01*
X68647142Y-81236428D01*
X68498571Y-81274523D01*
X68387142Y-81274523D01*
X68238571Y-81236428D01*
X68164285Y-81198333D01*
X68090000Y-81122142D01*
X68052857Y-81007857D01*
X68052857Y-80931666D01*
X68090000Y-80817380D01*
X68127142Y-80779285D01*
X68758571Y-79979285D02*
X68795714Y-80017380D01*
X68832857Y-80131666D01*
X68832857Y-80207857D01*
X68795714Y-80322142D01*
X68721428Y-80398333D01*
X68647142Y-80436428D01*
X68498571Y-80474523D01*
X68387142Y-80474523D01*
X68238571Y-80436428D01*
X68164285Y-80398333D01*
X68090000Y-80322142D01*
X68052857Y-80207857D01*
X68052857Y-80131666D01*
X68090000Y-80017380D01*
X68127142Y-79979285D01*
X68832857Y-79217380D02*
X68832857Y-79674523D01*
X68832857Y-79445952D02*
X68052857Y-79445952D01*
X68164285Y-79522142D01*
X68238571Y-79598333D01*
X68275714Y-79674523D01*
X70592857Y-82112619D02*
X70592857Y-81655476D01*
X71372857Y-81884047D02*
X70592857Y-81884047D01*
X70592857Y-81465000D02*
X71372857Y-80931666D01*
X70592857Y-80931666D02*
X71372857Y-81465000D01*
X70667142Y-80665000D02*
X70630000Y-80626904D01*
X70592857Y-80550714D01*
X70592857Y-80360238D01*
X70630000Y-80284047D01*
X70667142Y-80245952D01*
X70741428Y-80207857D01*
X70815714Y-80207857D01*
X70927142Y-80245952D01*
X71372857Y-80703095D01*
X71372857Y-80207857D01*
X71075714Y-79865000D02*
X71075714Y-79255476D01*
X73132857Y-82112619D02*
X73132857Y-81655476D01*
X73912857Y-81884047D02*
X73132857Y-81884047D01*
X73132857Y-81465000D02*
X73912857Y-80931666D01*
X73132857Y-80931666D02*
X73912857Y-81465000D01*
X73207142Y-80665000D02*
X73170000Y-80626904D01*
X73132857Y-80550714D01*
X73132857Y-80360238D01*
X73170000Y-80284047D01*
X73207142Y-80245952D01*
X73281428Y-80207857D01*
X73355714Y-80207857D01*
X73467142Y-80245952D01*
X73912857Y-80703095D01*
X73912857Y-80207857D01*
X73615714Y-79865000D02*
X73615714Y-79255476D01*
X73912857Y-79560238D02*
X73318571Y-79560238D01*
X76452857Y-81731666D02*
X76081428Y-81998333D01*
X76452857Y-82188809D02*
X75672857Y-82188809D01*
X75672857Y-81884047D01*
X75710000Y-81807857D01*
X75747142Y-81769761D01*
X75821428Y-81731666D01*
X75932857Y-81731666D01*
X76007142Y-81769761D01*
X76044285Y-81807857D01*
X76081428Y-81884047D01*
X76081428Y-82188809D01*
X75672857Y-81465000D02*
X76452857Y-80931666D01*
X75672857Y-80931666D02*
X76452857Y-81465000D01*
X75747142Y-80665000D02*
X75710000Y-80626904D01*
X75672857Y-80550714D01*
X75672857Y-80360238D01*
X75710000Y-80284047D01*
X75747142Y-80245952D01*
X75821428Y-80207857D01*
X75895714Y-80207857D01*
X76007142Y-80245952D01*
X76452857Y-80703095D01*
X76452857Y-80207857D01*
X76155714Y-79865000D02*
X76155714Y-79255476D01*
X76452857Y-79560238D02*
X75858571Y-79560238D01*
X78992857Y-81731666D02*
X78621428Y-81998333D01*
X78992857Y-82188809D02*
X78212857Y-82188809D01*
X78212857Y-81884047D01*
X78250000Y-81807857D01*
X78287142Y-81769761D01*
X78361428Y-81731666D01*
X78472857Y-81731666D01*
X78547142Y-81769761D01*
X78584285Y-81807857D01*
X78621428Y-81884047D01*
X78621428Y-82188809D01*
X78212857Y-81465000D02*
X78992857Y-80931666D01*
X78212857Y-80931666D02*
X78992857Y-81465000D01*
X78287142Y-80665000D02*
X78250000Y-80626904D01*
X78212857Y-80550714D01*
X78212857Y-80360238D01*
X78250000Y-80284047D01*
X78287142Y-80245952D01*
X78361428Y-80207857D01*
X78435714Y-80207857D01*
X78547142Y-80245952D01*
X78992857Y-80703095D01*
X78992857Y-80207857D01*
X78695714Y-79865000D02*
X78695714Y-79255476D01*
X81532857Y-80665000D02*
X80752857Y-80665000D01*
X80752857Y-80474523D01*
X80790000Y-80360238D01*
X80864285Y-80284047D01*
X80938571Y-80245952D01*
X81087142Y-80207857D01*
X81198571Y-80207857D01*
X81347142Y-80245952D01*
X81421428Y-80284047D01*
X81495714Y-80360238D01*
X81532857Y-80474523D01*
X81532857Y-80665000D01*
X81235714Y-79865000D02*
X81235714Y-79255476D01*
X84072857Y-80665000D02*
X83292857Y-80665000D01*
X83292857Y-80474523D01*
X83330000Y-80360238D01*
X83404285Y-80284047D01*
X83478571Y-80245952D01*
X83627142Y-80207857D01*
X83738571Y-80207857D01*
X83887142Y-80245952D01*
X83961428Y-80284047D01*
X84035714Y-80360238D01*
X84072857Y-80474523D01*
X84072857Y-80665000D01*
X83775714Y-79865000D02*
X83775714Y-79255476D01*
X84072857Y-79560238D02*
X83478571Y-79560238D01*
X85832857Y-82112619D02*
X85832857Y-81655476D01*
X86612857Y-81884047D02*
X85832857Y-81884047D01*
X85832857Y-81465000D02*
X86612857Y-80931666D01*
X85832857Y-80931666D02*
X86612857Y-81465000D01*
X86612857Y-80207857D02*
X86612857Y-80665000D01*
X86612857Y-80436428D02*
X85832857Y-80436428D01*
X85944285Y-80512619D01*
X86018571Y-80588809D01*
X86055714Y-80665000D01*
X86315714Y-79865000D02*
X86315714Y-79255476D01*
X88372857Y-82112619D02*
X88372857Y-81655476D01*
X89152857Y-81884047D02*
X88372857Y-81884047D01*
X88372857Y-81465000D02*
X89152857Y-80931666D01*
X88372857Y-80931666D02*
X89152857Y-81465000D01*
X89152857Y-80207857D02*
X89152857Y-80665000D01*
X89152857Y-80436428D02*
X88372857Y-80436428D01*
X88484285Y-80512619D01*
X88558571Y-80588809D01*
X88595714Y-80665000D01*
X88855714Y-79865000D02*
X88855714Y-79255476D01*
X89152857Y-79560238D02*
X88558571Y-79560238D01*
X91692857Y-81731666D02*
X91321428Y-81998333D01*
X91692857Y-82188809D02*
X90912857Y-82188809D01*
X90912857Y-81884047D01*
X90950000Y-81807857D01*
X90987142Y-81769761D01*
X91061428Y-81731666D01*
X91172857Y-81731666D01*
X91247142Y-81769761D01*
X91284285Y-81807857D01*
X91321428Y-81884047D01*
X91321428Y-82188809D01*
X90912857Y-81465000D02*
X91692857Y-80931666D01*
X90912857Y-80931666D02*
X91692857Y-81465000D01*
X91692857Y-80207857D02*
X91692857Y-80665000D01*
X91692857Y-80436428D02*
X90912857Y-80436428D01*
X91024285Y-80512619D01*
X91098571Y-80588809D01*
X91135714Y-80665000D01*
X91395714Y-79865000D02*
X91395714Y-79255476D01*
X94232857Y-81731666D02*
X93861428Y-81998333D01*
X94232857Y-82188809D02*
X93452857Y-82188809D01*
X93452857Y-81884047D01*
X93490000Y-81807857D01*
X93527142Y-81769761D01*
X93601428Y-81731666D01*
X93712857Y-81731666D01*
X93787142Y-81769761D01*
X93824285Y-81807857D01*
X93861428Y-81884047D01*
X93861428Y-82188809D01*
X93452857Y-81465000D02*
X94232857Y-80931666D01*
X93452857Y-80931666D02*
X94232857Y-81465000D01*
X94232857Y-80207857D02*
X94232857Y-80665000D01*
X94232857Y-80436428D02*
X93452857Y-80436428D01*
X93564285Y-80512619D01*
X93638571Y-80588809D01*
X93675714Y-80665000D01*
X93935714Y-79865000D02*
X93935714Y-79255476D01*
X94232857Y-79560238D02*
X93638571Y-79560238D01*
X96698571Y-80779285D02*
X96735714Y-80817380D01*
X96772857Y-80931666D01*
X96772857Y-81007857D01*
X96735714Y-81122142D01*
X96661428Y-81198333D01*
X96587142Y-81236428D01*
X96438571Y-81274523D01*
X96327142Y-81274523D01*
X96178571Y-81236428D01*
X96104285Y-81198333D01*
X96030000Y-81122142D01*
X95992857Y-81007857D01*
X95992857Y-80931666D01*
X96030000Y-80817380D01*
X96067142Y-80779285D01*
X96698571Y-79979285D02*
X96735714Y-80017380D01*
X96772857Y-80131666D01*
X96772857Y-80207857D01*
X96735714Y-80322142D01*
X96661428Y-80398333D01*
X96587142Y-80436428D01*
X96438571Y-80474523D01*
X96327142Y-80474523D01*
X96178571Y-80436428D01*
X96104285Y-80398333D01*
X96030000Y-80322142D01*
X95992857Y-80207857D01*
X95992857Y-80131666D01*
X96030000Y-80017380D01*
X96067142Y-79979285D01*
X96067142Y-79674523D02*
X96030000Y-79636428D01*
X95992857Y-79560238D01*
X95992857Y-79369761D01*
X96030000Y-79293571D01*
X96067142Y-79255476D01*
X96141428Y-79217380D01*
X96215714Y-79217380D01*
X96327142Y-79255476D01*
X96772857Y-79712619D01*
X96772857Y-79217380D01*
X99275714Y-82074523D02*
X99312857Y-81960238D01*
X99312857Y-81769761D01*
X99275714Y-81693571D01*
X99238571Y-81655476D01*
X99164285Y-81617380D01*
X99090000Y-81617380D01*
X99015714Y-81655476D01*
X98978571Y-81693571D01*
X98941428Y-81769761D01*
X98904285Y-81922142D01*
X98867142Y-81998333D01*
X98830000Y-82036428D01*
X98755714Y-82074523D01*
X98681428Y-82074523D01*
X98607142Y-82036428D01*
X98570000Y-81998333D01*
X98532857Y-81922142D01*
X98532857Y-81731666D01*
X98570000Y-81617380D01*
X98904285Y-81007857D02*
X98941428Y-80893571D01*
X98978571Y-80855476D01*
X99052857Y-80817380D01*
X99164285Y-80817380D01*
X99238571Y-80855476D01*
X99275714Y-80893571D01*
X99312857Y-80969761D01*
X99312857Y-81274523D01*
X98532857Y-81274523D01*
X98532857Y-81007857D01*
X98570000Y-80931666D01*
X98607142Y-80893571D01*
X98681428Y-80855476D01*
X98755714Y-80855476D01*
X98830000Y-80893571D01*
X98867142Y-80931666D01*
X98904285Y-81007857D01*
X98904285Y-81274523D01*
X98532857Y-80474523D02*
X99164285Y-80474523D01*
X99238571Y-80436428D01*
X99275714Y-80398333D01*
X99312857Y-80322142D01*
X99312857Y-80169761D01*
X99275714Y-80093571D01*
X99238571Y-80055476D01*
X99164285Y-80017380D01*
X98532857Y-80017380D01*
X98607142Y-79674523D02*
X98570000Y-79636428D01*
X98532857Y-79560238D01*
X98532857Y-79369761D01*
X98570000Y-79293571D01*
X98607142Y-79255476D01*
X98681428Y-79217380D01*
X98755714Y-79217380D01*
X98867142Y-79255476D01*
X99312857Y-79712619D01*
X99312857Y-79217380D01*
X101110000Y-80893571D02*
X101072857Y-80969761D01*
X101072857Y-81084047D01*
X101110000Y-81198333D01*
X101184285Y-81274523D01*
X101258571Y-81312619D01*
X101407142Y-81350714D01*
X101518571Y-81350714D01*
X101667142Y-81312619D01*
X101741428Y-81274523D01*
X101815714Y-81198333D01*
X101852857Y-81084047D01*
X101852857Y-81007857D01*
X101815714Y-80893571D01*
X101778571Y-80855476D01*
X101518571Y-80855476D01*
X101518571Y-81007857D01*
X101852857Y-80512619D02*
X101072857Y-80512619D01*
X101852857Y-80055476D01*
X101072857Y-80055476D01*
X101852857Y-79674523D02*
X101072857Y-79674523D01*
X101072857Y-79484047D01*
X101110000Y-79369761D01*
X101184285Y-79293571D01*
X101258571Y-79255476D01*
X101407142Y-79217380D01*
X101518571Y-79217380D01*
X101667142Y-79255476D01*
X101741428Y-79293571D01*
X101815714Y-79369761D01*
X101852857Y-79484047D01*
X101852857Y-79674523D01*
D12*
X87100000Y-58600000D02*
X77900000Y-58600000D01*
X79250000Y-66970000D02*
X77750000Y-66970000D01*
X77750000Y-66970000D02*
X77750000Y-61200000D01*
X87250000Y-66970000D02*
X87250000Y-61200000D01*
X87250000Y-66970000D02*
X85750000Y-66970000D01*
X62120000Y-78330000D02*
X62120000Y-77000000D01*
X63450000Y-78330000D02*
X62120000Y-78330000D01*
X64720000Y-78330000D02*
X64720000Y-75670000D01*
X64720000Y-75670000D02*
X102880000Y-75670000D01*
X64720000Y-78330000D02*
X102880000Y-78330000D01*
X102880000Y-78330000D02*
X102880000Y-75670000D01*
D11*
X61750351Y-62857798D02*
X63717773Y-62857798D01*
X61750351Y-63221345D02*
X61750351Y-62857798D01*
X63717773Y-63221345D02*
X61750351Y-63221345D01*
X63717773Y-62857798D02*
X63717773Y-63221345D01*
X61750357Y-64675515D02*
X61859568Y-64678944D01*
X61859568Y-64678944D02*
X61957814Y-64681690D01*
X61957814Y-64681690D02*
X62056358Y-64684141D01*
X62056358Y-64684141D02*
X62157081Y-64686351D01*
X62157081Y-64686351D02*
X62259986Y-64688327D01*
X62259986Y-64688327D02*
X62368891Y-64690125D01*
X62368891Y-64690125D02*
X62468481Y-64691529D01*
X62468481Y-64691529D02*
X62570201Y-64692745D01*
X62570201Y-64692745D02*
X62674045Y-64693779D01*
X62674045Y-64693779D02*
X62777352Y-64694619D01*
X62777352Y-64694619D02*
X62899659Y-64695402D01*
X62899659Y-64695402D02*
X63000166Y-64695891D01*
X63000166Y-64695891D02*
X63100792Y-64696258D01*
X63100792Y-64696258D02*
X63209274Y-64696541D01*
X63209274Y-64696541D02*
X63323669Y-64696732D01*
X63323669Y-64696732D02*
X63461446Y-64696855D01*
X63461446Y-64696855D02*
X63616779Y-64696897D01*
X63616779Y-64696897D02*
X63717773Y-64696902D01*
X61750357Y-65039063D02*
X61750357Y-64675515D01*
X63140382Y-65039063D02*
X61750357Y-65039063D01*
X63354232Y-65659226D02*
X63376351Y-65580686D01*
X63376351Y-65580686D02*
X63388565Y-65492535D01*
X63388565Y-65492535D02*
X63388662Y-65392418D01*
X63388662Y-65392418D02*
X63376152Y-65303440D01*
X63376152Y-65303440D02*
X63353332Y-65225896D01*
X63353332Y-65225896D02*
X63320250Y-65158471D01*
X63320250Y-65158471D02*
X63274864Y-65101483D01*
X63274864Y-65101483D02*
X63215779Y-65059778D01*
X63215779Y-65059778D02*
X63140382Y-65039063D01*
X63696393Y-65744765D02*
X63614202Y-65725727D01*
X63614202Y-65725727D02*
X63533580Y-65704248D01*
X63533580Y-65704248D02*
X63452636Y-65682449D01*
X63452636Y-65682449D02*
X63371317Y-65662779D01*
X63371317Y-65662779D02*
X63354232Y-65659226D01*
X63653620Y-65039063D02*
X63687472Y-65106443D01*
X63687472Y-65106443D02*
X63712245Y-65182712D01*
X63712245Y-65182712D02*
X63728976Y-65266356D01*
X63728976Y-65266356D02*
X63738220Y-65357117D01*
X63738220Y-65357117D02*
X63739715Y-65458235D01*
X63739715Y-65458235D02*
X63733498Y-65553008D01*
X63733498Y-65553008D02*
X63721025Y-65640839D01*
X63721025Y-65640839D02*
X63702392Y-65723763D01*
X63702392Y-65723763D02*
X63696393Y-65744765D01*
X63717773Y-65017677D02*
X63653620Y-65039063D01*
X63717773Y-64696902D02*
X63717773Y-65017677D01*
X62349128Y-65637840D02*
X62438820Y-65649253D01*
X62438820Y-65649253D02*
X62533479Y-65655582D01*
X62533479Y-65655582D02*
X62631199Y-65658383D01*
X62631199Y-65658383D02*
X62731663Y-65659175D01*
X62731663Y-65659175D02*
X62798214Y-65659226D01*
X61707578Y-66429087D02*
X61714162Y-66334379D01*
X61714162Y-66334379D02*
X61725737Y-66241667D01*
X61725737Y-66241667D02*
X61741897Y-66156932D01*
X61741897Y-66156932D02*
X61763151Y-66077783D01*
X61763151Y-66077783D02*
X61790168Y-66003434D01*
X61790168Y-66003434D02*
X61822956Y-65935269D01*
X61822956Y-65935269D02*
X61861780Y-65873510D01*
X61861780Y-65873510D02*
X61906908Y-65818378D01*
X61906908Y-65818378D02*
X61959373Y-65769476D01*
X61959373Y-65769476D02*
X62018658Y-65727978D01*
X62018658Y-65727978D02*
X62085689Y-65693730D01*
X62085689Y-65693730D02*
X62162243Y-65666740D01*
X62162243Y-65666740D02*
X62245928Y-65648362D01*
X62245928Y-65648362D02*
X62336698Y-65638504D01*
X62336698Y-65638504D02*
X62349128Y-65637840D01*
X61707578Y-66642937D02*
X61707578Y-66429087D01*
X61750351Y-67156176D02*
X61747926Y-67054998D01*
X61747926Y-67054998D02*
X61741434Y-66956843D01*
X61741434Y-66956843D02*
X61732414Y-66862598D01*
X61732414Y-66862598D02*
X61722100Y-66769977D01*
X61722100Y-66769977D02*
X61711330Y-66676339D01*
X61711330Y-66676339D02*
X61707578Y-66642937D01*
X62434673Y-67156176D02*
X61750351Y-67156176D01*
X63033450Y-67156176D02*
X62434673Y-67156176D01*
X63781925Y-66343549D02*
X63779589Y-66441752D01*
X63779589Y-66441752D02*
X63772342Y-66534919D01*
X63772342Y-66534919D02*
X63759742Y-66623112D01*
X63759742Y-66623112D02*
X63741537Y-66705233D01*
X63741537Y-66705233D02*
X63716851Y-66782617D01*
X63716851Y-66782617D02*
X63685932Y-66852807D01*
X63685932Y-66852807D02*
X63648372Y-66916106D01*
X63648372Y-66916106D02*
X63603344Y-66972961D01*
X63603344Y-66972961D02*
X63551350Y-67022134D01*
X63551350Y-67022134D02*
X63492263Y-67063647D01*
X63492263Y-67063647D02*
X63425968Y-67097519D01*
X63425968Y-67097519D02*
X63352073Y-67123865D01*
X63352073Y-67123865D02*
X63269082Y-67142861D01*
X63269082Y-67142861D02*
X63180022Y-67153829D01*
X63180022Y-67153829D02*
X63082167Y-67157232D01*
X63082167Y-67157232D02*
X63033450Y-67156176D01*
X63525302Y-66322162D02*
X63620527Y-66328809D01*
X63620527Y-66328809D02*
X63710746Y-66339522D01*
X63710746Y-66339522D02*
X63781925Y-66343549D01*
X63183141Y-66814015D02*
X63268317Y-66798822D01*
X63268317Y-66798822D02*
X63339483Y-66768633D01*
X63339483Y-66768633D02*
X63395977Y-66724894D01*
X63395977Y-66724894D02*
X63439840Y-66668610D01*
X63439840Y-66668610D02*
X63472753Y-66601067D01*
X63472753Y-66601067D02*
X63496318Y-66524314D01*
X63496318Y-66524314D02*
X63512514Y-66439655D01*
X63512514Y-66439655D02*
X63522986Y-66349963D01*
X63522986Y-66349963D02*
X63525302Y-66322162D01*
X63332839Y-66279390D02*
X63322198Y-66369199D01*
X63322198Y-66369199D02*
X63308099Y-66456305D01*
X63308099Y-66456305D02*
X63290373Y-66538616D01*
X63290373Y-66538616D02*
X63268126Y-66618047D01*
X63268126Y-66618047D02*
X63241707Y-66692174D01*
X63241707Y-66692174D02*
X63210817Y-66761829D01*
X63210817Y-66761829D02*
X63183141Y-66814015D01*
X63332839Y-66172465D02*
X63332839Y-66279390D01*
X62798214Y-65659226D02*
X62888137Y-65669807D01*
X62888137Y-65669807D02*
X62969577Y-65689002D01*
X62969577Y-65689002D02*
X63042476Y-65716723D01*
X63042476Y-65716723D02*
X63107171Y-65753011D01*
X63107171Y-65753011D02*
X63163250Y-65797373D01*
X63163250Y-65797373D02*
X63211518Y-65850129D01*
X63211518Y-65850129D02*
X63252372Y-65911777D01*
X63252372Y-65911777D02*
X63285422Y-65981667D01*
X63285422Y-65981667D02*
X63310187Y-66057117D01*
X63310187Y-66057117D02*
X63328035Y-66140322D01*
X63328035Y-66140322D02*
X63332839Y-66172465D01*
X62049746Y-66835407D02*
X62150130Y-66835332D01*
X62150130Y-66835332D02*
X62250076Y-66834905D01*
X62250076Y-66834905D02*
X62351785Y-66833838D01*
X62351785Y-66833838D02*
X62451312Y-66831940D01*
X62451312Y-66831940D02*
X62564980Y-66828391D01*
X62564980Y-66828391D02*
X62661602Y-66823848D01*
X62661602Y-66823848D02*
X62755522Y-66817615D01*
X62755522Y-66817615D02*
X62798214Y-66814021D01*
X62028360Y-66621557D02*
X62035777Y-66714547D01*
X62035777Y-66714547D02*
X62048135Y-66802975D01*
X62048135Y-66802975D02*
X62049746Y-66835407D01*
X62028360Y-66493246D02*
X62028360Y-66621557D01*
X62413287Y-66022774D02*
X62320871Y-66030982D01*
X62320871Y-66030982D02*
X62244328Y-66054673D01*
X62244328Y-66054673D02*
X62181947Y-66092559D01*
X62181947Y-66092559D02*
X62131447Y-66144436D01*
X62131447Y-66144436D02*
X62093403Y-66206747D01*
X62093403Y-66206747D02*
X62065172Y-66279083D01*
X62065172Y-66279083D02*
X62045305Y-66360177D01*
X62045305Y-66360177D02*
X62032419Y-66448810D01*
X62032419Y-66448810D02*
X62028360Y-66493246D01*
X62691289Y-66022774D02*
X62413287Y-66022774D01*
X62798214Y-66814021D02*
X62835298Y-66749241D01*
X62835298Y-66749241D02*
X62866833Y-66679425D01*
X62866833Y-66679425D02*
X62893905Y-66605772D01*
X62893905Y-66605772D02*
X62917203Y-66525742D01*
X62917203Y-66525742D02*
X62935057Y-66440439D01*
X62935057Y-66440439D02*
X62945110Y-66348768D01*
X62945110Y-66348768D02*
X62942110Y-66251261D01*
X62942110Y-66251261D02*
X62923007Y-66170260D01*
X62923007Y-66170260D02*
X62887035Y-66104905D01*
X62887035Y-66104905D02*
X62833700Y-66057593D01*
X62833700Y-66057593D02*
X62761225Y-66029620D01*
X62761225Y-66029620D02*
X62691289Y-66022774D01*
X64124086Y-63071647D02*
X64138822Y-62986103D01*
X64138822Y-62986103D02*
X64177815Y-62924972D01*
X64177815Y-62924972D02*
X64237684Y-62884715D01*
X64237684Y-62884715D02*
X64322426Y-62867821D01*
X64322426Y-62867821D02*
X64407899Y-62882546D01*
X64407899Y-62882546D02*
X64472066Y-62919624D01*
X64472066Y-62919624D02*
X64515739Y-62977426D01*
X64515739Y-62977426D02*
X64528404Y-63065386D01*
X64528404Y-63065386D02*
X64509013Y-63135800D01*
X64509013Y-63135800D02*
X64469242Y-63196723D01*
X64469242Y-63196723D02*
X64407954Y-63235467D01*
X64407954Y-63235467D02*
X64322134Y-63249744D01*
X64322134Y-63249744D02*
X64239745Y-63231632D01*
X64239745Y-63231632D02*
X64179183Y-63191145D01*
X64179183Y-63191145D02*
X64138768Y-63131101D01*
X64138768Y-63131101D02*
X64124086Y-63071647D01*
X61750357Y-67541109D02*
X61848341Y-67543860D01*
X61848341Y-67543860D02*
X61950603Y-67546472D01*
X61950603Y-67546472D02*
X62052889Y-67548826D01*
X62052889Y-67548826D02*
X62155215Y-67550938D01*
X62155215Y-67550938D02*
X62257594Y-67552821D01*
X62257594Y-67552821D02*
X62369111Y-67554623D01*
X62369111Y-67554623D02*
X62478051Y-67556151D01*
X62478051Y-67556151D02*
X62588705Y-67557488D01*
X62588705Y-67557488D02*
X62702162Y-67558647D01*
X62702162Y-67558647D02*
X62813623Y-67559595D01*
X62813623Y-67559595D02*
X62913430Y-67560297D01*
X62913430Y-67560297D02*
X63019830Y-67560909D01*
X63019830Y-67560909D02*
X63123173Y-67561383D01*
X63123173Y-67561383D02*
X63226693Y-67561751D01*
X63226693Y-67561751D02*
X63339054Y-67562046D01*
X63339054Y-67562046D02*
X63442984Y-67562237D01*
X63442984Y-67562237D02*
X63556908Y-67562373D01*
X63556908Y-67562373D02*
X63659132Y-67562445D01*
X63659132Y-67562445D02*
X63764865Y-67562481D01*
X63764865Y-67562481D02*
X63865390Y-67562493D01*
X63865390Y-67562493D02*
X63953009Y-67562496D01*
X61750357Y-67904657D02*
X61750357Y-67541109D01*
X63375618Y-67904657D02*
X61750357Y-67904657D01*
X63397004Y-68204046D02*
X63386856Y-68113320D01*
X63386856Y-68113320D02*
X63386134Y-68013799D01*
X63386134Y-68013799D02*
X63378827Y-67919454D01*
X63378827Y-67919454D02*
X63375618Y-67904657D01*
X63717779Y-68289584D02*
X63636329Y-68269857D01*
X63636329Y-68269857D02*
X63554883Y-68246062D01*
X63554883Y-68246062D02*
X63475943Y-68223081D01*
X63475943Y-68223081D02*
X63397004Y-68204046D01*
X63717779Y-67904657D02*
X63717779Y-68289584D01*
X64209631Y-68268204D02*
X64220125Y-68178032D01*
X64220125Y-68178032D02*
X64210227Y-68087415D01*
X64210227Y-68087415D02*
X64179441Y-68018087D01*
X64179441Y-68018087D02*
X64131120Y-67966151D01*
X64131120Y-67966151D02*
X64067684Y-67929394D01*
X64067684Y-67929394D02*
X63990690Y-67906161D01*
X63990690Y-67906161D02*
X63900358Y-67895344D01*
X63900358Y-67895344D02*
X63800672Y-67896393D01*
X63800672Y-67896393D02*
X63717779Y-67904657D01*
X64530406Y-68332357D02*
X64209631Y-68268204D01*
X63953009Y-67562496D02*
X64048725Y-67567846D01*
X64048725Y-67567846D02*
X64134682Y-67583205D01*
X64134682Y-67583205D02*
X64211468Y-67607672D01*
X64211468Y-67607672D02*
X64279580Y-67640504D01*
X64279580Y-67640504D02*
X64340663Y-67682108D01*
X64340663Y-67682108D02*
X64392484Y-67730333D01*
X64392484Y-67730333D02*
X64437181Y-67786523D01*
X64437181Y-67786523D02*
X64474580Y-67850911D01*
X64474580Y-67850911D02*
X64503873Y-67922490D01*
X64503873Y-67922490D02*
X64525131Y-68002051D01*
X64525131Y-68002051D02*
X64537862Y-68089548D01*
X64537862Y-68089548D02*
X64541524Y-68187450D01*
X64541524Y-68187450D02*
X64536205Y-68282701D01*
X64536205Y-68282701D02*
X64530406Y-68332357D01*
X63311453Y-61403614D02*
X63208222Y-61404038D01*
X63208222Y-61404038D02*
X63105942Y-61405182D01*
X63105942Y-61405182D02*
X63004982Y-61406860D01*
X63004982Y-61406860D02*
X62905675Y-61408896D01*
X62905675Y-61408896D02*
X62805818Y-61411211D01*
X62805818Y-61411211D02*
X62690621Y-61414054D01*
X62690621Y-61414054D02*
X62590407Y-61416545D01*
X62590407Y-61416545D02*
X62485425Y-61419039D01*
X62485425Y-61419039D02*
X62385928Y-61421173D01*
X62385928Y-61421173D02*
X62279781Y-61423061D01*
X62279781Y-61423061D02*
X62177197Y-61424356D01*
X62177197Y-61424356D02*
X62075983Y-61424968D01*
X62075983Y-61424968D02*
X62049739Y-61425000D01*
X63225914Y-62109316D02*
X63284977Y-62068192D01*
X63284977Y-62068192D02*
X63334053Y-62007855D01*
X63334053Y-62007855D02*
X63366742Y-61940287D01*
X63366742Y-61940287D02*
X63388444Y-61861182D01*
X63388444Y-61861182D02*
X63398565Y-61769036D01*
X63398565Y-61769036D02*
X63395238Y-61670628D01*
X63395238Y-61670628D02*
X63381061Y-61583503D01*
X63381061Y-61583503D02*
X63358127Y-61503842D01*
X63358127Y-61503842D02*
X63328128Y-61433760D01*
X63328128Y-61433760D02*
X63311453Y-61403614D01*
X62755441Y-62152089D02*
X62855828Y-62153961D01*
X62855828Y-62153961D02*
X62958729Y-62155480D01*
X62958729Y-62155480D02*
X63054924Y-62151509D01*
X63054924Y-62151509D02*
X63142211Y-62138368D01*
X63142211Y-62138368D02*
X63217938Y-62113152D01*
X63217938Y-62113152D02*
X63225914Y-62109316D01*
X62263589Y-62152089D02*
X62347899Y-62168354D01*
X62347899Y-62168354D02*
X62446708Y-62170630D01*
X62446708Y-62170630D02*
X62545045Y-62165134D01*
X62545045Y-62165134D02*
X62639531Y-62157636D01*
X62639531Y-62157636D02*
X62734891Y-62152334D01*
X62734891Y-62152334D02*
X62755441Y-62152089D01*
X62049739Y-61425000D02*
X62037973Y-61514531D01*
X62037973Y-61514531D02*
X62030430Y-61608053D01*
X62030430Y-61608053D02*
X62028846Y-61707387D01*
X62028846Y-61707387D02*
X62035356Y-61802732D01*
X62035356Y-61802732D02*
X62051016Y-61890845D01*
X62051016Y-61890845D02*
X62075400Y-61966572D01*
X62075400Y-61966572D02*
X62109997Y-62032800D01*
X62109997Y-62032800D02*
X62155755Y-62087913D01*
X62155755Y-62087913D02*
X62213673Y-62130313D01*
X62213673Y-62130313D02*
X62263589Y-62152089D01*
X63674993Y-63991199D02*
X63688693Y-64078817D01*
X63688693Y-64078817D02*
X63699721Y-64170841D01*
X63699721Y-64170841D02*
X63705141Y-64266614D01*
X63705141Y-64266614D02*
X63701037Y-64363402D01*
X63701037Y-64363402D02*
X63696386Y-64397513D01*
X64466241Y-63991199D02*
X63674993Y-63991199D01*
X64466241Y-63627652D02*
X64477447Y-63716722D01*
X64477447Y-63716722D02*
X64465737Y-63812931D01*
X64465737Y-63812931D02*
X64454969Y-63902903D01*
X64454969Y-63902903D02*
X64466241Y-63991199D01*
X64188239Y-63627652D02*
X64284980Y-63622841D01*
X64284980Y-63622841D02*
X64381351Y-63618330D01*
X64381351Y-63618330D02*
X64466241Y-63627652D01*
X62178051Y-63627652D02*
X64188239Y-63627652D01*
X61664812Y-64162277D02*
X61675263Y-64072547D01*
X61675263Y-64072547D02*
X61693945Y-63991095D01*
X61693945Y-63991095D02*
X61720720Y-63917653D01*
X61720720Y-63917653D02*
X61755778Y-63851742D01*
X61755778Y-63851742D02*
X61798579Y-63794336D01*
X61798579Y-63794336D02*
X61849439Y-63744941D01*
X61849439Y-63744941D02*
X61908359Y-63703775D01*
X61908359Y-63703775D02*
X61976162Y-63670728D01*
X61976162Y-63670728D02*
X62052623Y-63646450D01*
X62052623Y-63646450D02*
X62137978Y-63631297D01*
X62137978Y-63631297D02*
X62178051Y-63627652D01*
X61942814Y-64269202D02*
X61862300Y-64248214D01*
X61862300Y-64248214D02*
X61788887Y-64220885D01*
X61788887Y-64220885D02*
X61718125Y-64188648D01*
X61718125Y-64188648D02*
X61664812Y-64162277D01*
X62199437Y-63991199D02*
X62112304Y-64004614D01*
X62112304Y-64004614D02*
X62047820Y-64040404D01*
X62047820Y-64040404D02*
X62001021Y-64093638D01*
X62001021Y-64093638D02*
X61968011Y-64162223D01*
X61968011Y-64162223D02*
X61947102Y-64242697D01*
X61947102Y-64242697D02*
X61942814Y-64269202D01*
X63354225Y-63991199D02*
X62199437Y-63991199D01*
X63354225Y-64311974D02*
X63354225Y-63991199D01*
X63696386Y-64397513D02*
X63614586Y-64377786D01*
X63614586Y-64377786D02*
X63535953Y-64355494D01*
X63535953Y-64355494D02*
X63456974Y-64333905D01*
X63456974Y-64333905D02*
X63374345Y-64315527D01*
X63374345Y-64315527D02*
X63354225Y-64311974D01*
X64509020Y-61446387D02*
X64413934Y-61440205D01*
X64413934Y-61440205D02*
X64316347Y-61435119D01*
X64316347Y-61435119D02*
X64216078Y-61431150D01*
X64216078Y-61431150D02*
X64112786Y-61428275D01*
X64112786Y-61428275D02*
X64010709Y-61426473D01*
X64010709Y-61426473D02*
X63909093Y-61425493D01*
X63909093Y-61425493D02*
X63807189Y-61425086D01*
X63807189Y-61425086D02*
X63675000Y-61425000D01*
X64509020Y-61082839D02*
X64509020Y-61446387D01*
X61750357Y-61082839D02*
X64509020Y-61082839D01*
X61707585Y-61617464D02*
X61709409Y-61518920D01*
X61709409Y-61518920D02*
X61714510Y-61422525D01*
X61714510Y-61422525D02*
X61722190Y-61328710D01*
X61722190Y-61328710D02*
X61731639Y-61237790D01*
X61731639Y-61237790D02*
X61743117Y-61141007D01*
X61743117Y-61141007D02*
X61750357Y-61082839D01*
X61707585Y-61767162D02*
X61707585Y-61617464D01*
X62199437Y-62515636D02*
X62119545Y-62494936D01*
X62119545Y-62494936D02*
X62048432Y-62465320D01*
X62048432Y-62465320D02*
X61985199Y-62427676D01*
X61985199Y-62427676D02*
X61929618Y-62383082D01*
X61929618Y-62383082D02*
X61880263Y-62331288D01*
X61880263Y-62331288D02*
X61837127Y-62272784D01*
X61837127Y-62272784D02*
X61800722Y-62209125D01*
X61800722Y-62209125D02*
X61769401Y-62137515D01*
X61769401Y-62137515D02*
X61744248Y-62059702D01*
X61744248Y-62059702D02*
X61725651Y-61977154D01*
X61725651Y-61977154D02*
X61713430Y-61889005D01*
X61713430Y-61889005D02*
X61707861Y-61794234D01*
X61707861Y-61794234D02*
X61707585Y-61767162D01*
X62734062Y-62537023D02*
X62633771Y-62538771D01*
X62633771Y-62538771D02*
X62532174Y-62541588D01*
X62532174Y-62541588D02*
X62431611Y-62542077D01*
X62431611Y-62542077D02*
X62334234Y-62537298D01*
X62334234Y-62537298D02*
X62244880Y-62525458D01*
X62244880Y-62525458D02*
X62199437Y-62515636D01*
X63268686Y-62515636D02*
X63177116Y-62525814D01*
X63177116Y-62525814D02*
X63081395Y-62531944D01*
X63081395Y-62531944D02*
X62984165Y-62535205D01*
X62984165Y-62535205D02*
X62883296Y-62536645D01*
X62883296Y-62536645D02*
X62781399Y-62537009D01*
X62781399Y-62537009D02*
X62734062Y-62537023D01*
X63675000Y-61425000D02*
X63700393Y-61500212D01*
X63700393Y-61500212D02*
X63720703Y-61580209D01*
X63720703Y-61580209D02*
X63735971Y-61670654D01*
X63735971Y-61670654D02*
X63743586Y-61765318D01*
X63743586Y-61765318D02*
X63742420Y-61864764D01*
X63742420Y-61864764D02*
X63732744Y-61956013D01*
X63732744Y-61956013D02*
X63715708Y-62040715D01*
X63715708Y-62040715D02*
X63691584Y-62120446D01*
X63691584Y-62120446D02*
X63662235Y-62191423D01*
X63662235Y-62191423D02*
X63626763Y-62257232D01*
X63626763Y-62257232D02*
X63585798Y-62316647D01*
X63585798Y-62316647D02*
X63538960Y-62369987D01*
X63538960Y-62369987D02*
X63485755Y-62417058D01*
X63485755Y-62417058D02*
X63424799Y-62457713D01*
X63424799Y-62457713D02*
X63356750Y-62490044D01*
X63356750Y-62490044D02*
X63278037Y-62513679D01*
X63278037Y-62513679D02*
X63268686Y-62515636D01*
D12*
X75610000Y-60061252D02*
X75610000Y-59538748D01*
X74190000Y-60061252D02*
X74190000Y-59538748D01*
D13*
X81761904Y-61352380D02*
X81761904Y-60352380D01*
X82142857Y-60352380D01*
X82238095Y-60400000D01*
X82285714Y-60447619D01*
X82333333Y-60542857D01*
X82333333Y-60685714D01*
X82285714Y-60780952D01*
X82238095Y-60828571D01*
X82142857Y-60876190D01*
X81761904Y-60876190D01*
X83285714Y-61352380D02*
X82714285Y-61352380D01*
X83000000Y-61352380D02*
X83000000Y-60352380D01*
X82904761Y-60495238D01*
X82809523Y-60590476D01*
X82714285Y-60638095D01*
X60572380Y-77333333D02*
X61286666Y-77333333D01*
X61429523Y-77380952D01*
X61524761Y-77476190D01*
X61572380Y-77619047D01*
X61572380Y-77714285D01*
X61572380Y-76333333D02*
X61572380Y-76904761D01*
X61572380Y-76619047D02*
X60572380Y-76619047D01*
X60715238Y-76714285D01*
X60810476Y-76809523D01*
X60858095Y-76904761D01*
X74753333Y-62962380D02*
X74420000Y-62486190D01*
X74181904Y-62962380D02*
X74181904Y-61962380D01*
X74562857Y-61962380D01*
X74658095Y-62010000D01*
X74705714Y-62057619D01*
X74753333Y-62152857D01*
X74753333Y-62295714D01*
X74705714Y-62390952D01*
X74658095Y-62438571D01*
X74562857Y-62486190D01*
X74181904Y-62486190D01*
X75705714Y-62962380D02*
X75134285Y-62962380D01*
X75420000Y-62962380D02*
X75420000Y-61962380D01*
X75324761Y-62105238D01*
X75229523Y-62200476D01*
X75134285Y-62248095D01*
M02*
