M48
; DRILL file {KiCad (5.1.5)-3} date 05/05/2020 01:34:41
; FORMAT={-:-/ absolute / inch / decimal}
; #@! TF.CreationDate,2020-05-05T01:34:41+02:00
; #@! TF.GenerationSoftware,Kicad,Pcbnew,(5.1.5)-3
; #@! TF.FileFunction,Plated,1,2,PTH
FMAT,2
INCH
T1C0.0157
T2C0.0197
T3C0.0394
T4C0.1260
%
G90
G05
T1
X2.7913Y-2.9409
X2.9528Y-2.9409
X3.1614Y-2.3697
X3.1803Y-2.9425
X3.2087Y-2.6732
X3.252Y-2.4843
X3.2874Y-2.6732
X3.3031Y-2.4252
X3.311Y-2.9409
X3.3819Y-2.7047
X3.5433Y-2.937
X3.7283Y-2.937
X3.1378Y-2.5713
X3.1535Y-2.5437
X3.185Y-2.5437
X3.2008Y-2.5713
X3.2165Y-2.5437
X3.2323Y-2.5713
X3.2638Y-2.5713
X3.2795Y-2.5437
X3.2953Y-2.5713
X3.311Y-2.5437
X3.3425Y-2.5437
X3.3583Y-2.5713
T2
X2.6614Y-2.4016
X2.6891Y-2.3348
X2.6891Y-2.4684
X2.7559Y-2.3071
X2.7559Y-2.4961
X2.8227Y-2.3348
X2.8227Y-2.4684
X2.8504Y-2.4016
T3
X2.498Y-3.0315
X2.598Y-3.0315
X2.698Y-3.0315
X2.798Y-3.0315
X2.898Y-3.0315
X2.998Y-3.0315
X3.098Y-3.0315
X3.198Y-3.0315
X3.298Y-3.0315
X3.398Y-3.0315
X3.498Y-3.0315
X3.598Y-3.0315
X3.698Y-3.0315
X3.798Y-3.0315
X3.898Y-3.0315
X3.998Y-3.0315
T4
X3.7402Y-2.4016
X2.7559Y-2.4016
T2
G00X3.0713Y-2.3839
M15
G01X3.0713Y-2.3563
M16
G05
G00X3.0854Y-2.5594
M15
G01X3.0854Y-2.5358
M16
G05
G00X3.4106Y-2.5594
M15
G01X3.4106Y-2.5358
M16
G05
G00X3.4248Y-2.3839
M15
G01X3.4248Y-2.3563
M16
G05
T0
M30
