M48
; DRILL file {KiCad (5.1.2-1)-1} date 2020 April 25, Saturday 00:14:54
; FORMAT={-:-/ absolute / metric / decimal}
; #@! TF.CreationDate,2020-04-25T00:14:54+02:00
; #@! TF.GenerationSoftware,Kicad,Pcbnew,(5.1.2-1)-1
; #@! TF.FileFunction,Plated,1,2,PTH
FMAT,2
METRIC
T1C0.400
T2C0.500
T3C0.600
T4C1.000
T5C3.200
%
G90
G05
T1
X42.6Y-72.2
X43.1Y-73.85
X48.8Y-72.2
X50.942Y-69.888
X53.9Y-73.9
X54.6Y-70.8
X54.8Y-74.8
X55.4Y-65.2
X57.0Y-74.8
X59.4Y-74.8
X61.6Y-74.8
X64.0Y-74.8
X64.4Y-72.6
X66.6Y-74.8
T2
X52.4Y-65.2
X56.8Y-65.2
X39.4Y-64.4
X40.103Y-62.703
X40.103Y-66.097
X41.8Y-62.0
X41.8Y-66.8
X43.497Y-62.703
X43.497Y-66.097
X44.2Y-64.4
T4
X40.4Y-77.2
X42.94Y-77.2
X45.48Y-77.2
X48.02Y-77.2
X50.56Y-77.2
X53.1Y-77.2
X55.64Y-77.2
X58.18Y-77.2
X60.72Y-77.2
X63.26Y-77.2
X65.8Y-77.2
X68.34Y-77.2
T5
X41.8Y-64.4
X66.8Y-64.4
T3
G00X49.98Y-62.1
M15
G01X49.98Y-61.5
M16
G05
G00X49.98Y-66.28
M15
G01X49.98Y-65.68
M16
G05
G00X58.62Y-62.1
M15
G01X58.62Y-61.5
M16
G05
G00X58.62Y-66.28
M15
G01X58.62Y-65.68
M16
G05
T0
M30
