G04 #@! TF.GenerationSoftware,KiCad,Pcbnew,(5.1.2-1)-1*
G04 #@! TF.CreationDate,2020-04-25T00:14:51+02:00*
G04 #@! TF.ProjectId,USB-C-USB-2.0,5553422d-432d-4555-9342-2d322e302e6b,rev?*
G04 #@! TF.SameCoordinates,Original*
G04 #@! TF.FileFunction,Soldermask,Bot*
G04 #@! TF.FilePolarity,Negative*
%FSLAX46Y46*%
G04 Gerber Fmt 4.6, Leading zero omitted, Abs format (unit mm)*
G04 Created by KiCad (PCBNEW (5.1.2-1)-1) date 2020-04-25 00:14:51*
%MOMM*%
%LPD*%
G04 APERTURE LIST*
%ADD10C,0.100000*%
G04 APERTURE END LIST*
D10*
G36*
X68450442Y-76305518D02*
G01*
X68516627Y-76312037D01*
X68686466Y-76363557D01*
X68842991Y-76447222D01*
X68878729Y-76476552D01*
X68980186Y-76559814D01*
X69063448Y-76661271D01*
X69092778Y-76697009D01*
X69176443Y-76853534D01*
X69227963Y-77023373D01*
X69245359Y-77200000D01*
X69227963Y-77376627D01*
X69176443Y-77546466D01*
X69092778Y-77702991D01*
X69063448Y-77738729D01*
X68980186Y-77840186D01*
X68878729Y-77923448D01*
X68842991Y-77952778D01*
X68686466Y-78036443D01*
X68516627Y-78087963D01*
X68450443Y-78094481D01*
X68384260Y-78101000D01*
X68295740Y-78101000D01*
X68229557Y-78094481D01*
X68163373Y-78087963D01*
X67993534Y-78036443D01*
X67837009Y-77952778D01*
X67801271Y-77923448D01*
X67699814Y-77840186D01*
X67616552Y-77738729D01*
X67587222Y-77702991D01*
X67503557Y-77546466D01*
X67452037Y-77376627D01*
X67434641Y-77200000D01*
X67452037Y-77023373D01*
X67503557Y-76853534D01*
X67587222Y-76697009D01*
X67616552Y-76661271D01*
X67699814Y-76559814D01*
X67801271Y-76476552D01*
X67837009Y-76447222D01*
X67993534Y-76363557D01*
X68163373Y-76312037D01*
X68229558Y-76305518D01*
X68295740Y-76299000D01*
X68384260Y-76299000D01*
X68450442Y-76305518D01*
X68450442Y-76305518D01*
G37*
G36*
X65910442Y-76305518D02*
G01*
X65976627Y-76312037D01*
X66146466Y-76363557D01*
X66302991Y-76447222D01*
X66338729Y-76476552D01*
X66440186Y-76559814D01*
X66523448Y-76661271D01*
X66552778Y-76697009D01*
X66636443Y-76853534D01*
X66687963Y-77023373D01*
X66705359Y-77200000D01*
X66687963Y-77376627D01*
X66636443Y-77546466D01*
X66552778Y-77702991D01*
X66523448Y-77738729D01*
X66440186Y-77840186D01*
X66338729Y-77923448D01*
X66302991Y-77952778D01*
X66146466Y-78036443D01*
X65976627Y-78087963D01*
X65910443Y-78094481D01*
X65844260Y-78101000D01*
X65755740Y-78101000D01*
X65689557Y-78094481D01*
X65623373Y-78087963D01*
X65453534Y-78036443D01*
X65297009Y-77952778D01*
X65261271Y-77923448D01*
X65159814Y-77840186D01*
X65076552Y-77738729D01*
X65047222Y-77702991D01*
X64963557Y-77546466D01*
X64912037Y-77376627D01*
X64894641Y-77200000D01*
X64912037Y-77023373D01*
X64963557Y-76853534D01*
X65047222Y-76697009D01*
X65076552Y-76661271D01*
X65159814Y-76559814D01*
X65261271Y-76476552D01*
X65297009Y-76447222D01*
X65453534Y-76363557D01*
X65623373Y-76312037D01*
X65689558Y-76305518D01*
X65755740Y-76299000D01*
X65844260Y-76299000D01*
X65910442Y-76305518D01*
X65910442Y-76305518D01*
G37*
G36*
X63370442Y-76305518D02*
G01*
X63436627Y-76312037D01*
X63606466Y-76363557D01*
X63762991Y-76447222D01*
X63798729Y-76476552D01*
X63900186Y-76559814D01*
X63983448Y-76661271D01*
X64012778Y-76697009D01*
X64096443Y-76853534D01*
X64147963Y-77023373D01*
X64165359Y-77200000D01*
X64147963Y-77376627D01*
X64096443Y-77546466D01*
X64012778Y-77702991D01*
X63983448Y-77738729D01*
X63900186Y-77840186D01*
X63798729Y-77923448D01*
X63762991Y-77952778D01*
X63606466Y-78036443D01*
X63436627Y-78087963D01*
X63370443Y-78094481D01*
X63304260Y-78101000D01*
X63215740Y-78101000D01*
X63149557Y-78094481D01*
X63083373Y-78087963D01*
X62913534Y-78036443D01*
X62757009Y-77952778D01*
X62721271Y-77923448D01*
X62619814Y-77840186D01*
X62536552Y-77738729D01*
X62507222Y-77702991D01*
X62423557Y-77546466D01*
X62372037Y-77376627D01*
X62354641Y-77200000D01*
X62372037Y-77023373D01*
X62423557Y-76853534D01*
X62507222Y-76697009D01*
X62536552Y-76661271D01*
X62619814Y-76559814D01*
X62721271Y-76476552D01*
X62757009Y-76447222D01*
X62913534Y-76363557D01*
X63083373Y-76312037D01*
X63149558Y-76305518D01*
X63215740Y-76299000D01*
X63304260Y-76299000D01*
X63370442Y-76305518D01*
X63370442Y-76305518D01*
G37*
G36*
X60830442Y-76305518D02*
G01*
X60896627Y-76312037D01*
X61066466Y-76363557D01*
X61222991Y-76447222D01*
X61258729Y-76476552D01*
X61360186Y-76559814D01*
X61443448Y-76661271D01*
X61472778Y-76697009D01*
X61556443Y-76853534D01*
X61607963Y-77023373D01*
X61625359Y-77200000D01*
X61607963Y-77376627D01*
X61556443Y-77546466D01*
X61472778Y-77702991D01*
X61443448Y-77738729D01*
X61360186Y-77840186D01*
X61258729Y-77923448D01*
X61222991Y-77952778D01*
X61066466Y-78036443D01*
X60896627Y-78087963D01*
X60830443Y-78094481D01*
X60764260Y-78101000D01*
X60675740Y-78101000D01*
X60609557Y-78094481D01*
X60543373Y-78087963D01*
X60373534Y-78036443D01*
X60217009Y-77952778D01*
X60181271Y-77923448D01*
X60079814Y-77840186D01*
X59996552Y-77738729D01*
X59967222Y-77702991D01*
X59883557Y-77546466D01*
X59832037Y-77376627D01*
X59814641Y-77200000D01*
X59832037Y-77023373D01*
X59883557Y-76853534D01*
X59967222Y-76697009D01*
X59996552Y-76661271D01*
X60079814Y-76559814D01*
X60181271Y-76476552D01*
X60217009Y-76447222D01*
X60373534Y-76363557D01*
X60543373Y-76312037D01*
X60609558Y-76305518D01*
X60675740Y-76299000D01*
X60764260Y-76299000D01*
X60830442Y-76305518D01*
X60830442Y-76305518D01*
G37*
G36*
X58290442Y-76305518D02*
G01*
X58356627Y-76312037D01*
X58526466Y-76363557D01*
X58682991Y-76447222D01*
X58718729Y-76476552D01*
X58820186Y-76559814D01*
X58903448Y-76661271D01*
X58932778Y-76697009D01*
X59016443Y-76853534D01*
X59067963Y-77023373D01*
X59085359Y-77200000D01*
X59067963Y-77376627D01*
X59016443Y-77546466D01*
X58932778Y-77702991D01*
X58903448Y-77738729D01*
X58820186Y-77840186D01*
X58718729Y-77923448D01*
X58682991Y-77952778D01*
X58526466Y-78036443D01*
X58356627Y-78087963D01*
X58290443Y-78094481D01*
X58224260Y-78101000D01*
X58135740Y-78101000D01*
X58069557Y-78094481D01*
X58003373Y-78087963D01*
X57833534Y-78036443D01*
X57677009Y-77952778D01*
X57641271Y-77923448D01*
X57539814Y-77840186D01*
X57456552Y-77738729D01*
X57427222Y-77702991D01*
X57343557Y-77546466D01*
X57292037Y-77376627D01*
X57274641Y-77200000D01*
X57292037Y-77023373D01*
X57343557Y-76853534D01*
X57427222Y-76697009D01*
X57456552Y-76661271D01*
X57539814Y-76559814D01*
X57641271Y-76476552D01*
X57677009Y-76447222D01*
X57833534Y-76363557D01*
X58003373Y-76312037D01*
X58069558Y-76305518D01*
X58135740Y-76299000D01*
X58224260Y-76299000D01*
X58290442Y-76305518D01*
X58290442Y-76305518D01*
G37*
G36*
X55750442Y-76305518D02*
G01*
X55816627Y-76312037D01*
X55986466Y-76363557D01*
X56142991Y-76447222D01*
X56178729Y-76476552D01*
X56280186Y-76559814D01*
X56363448Y-76661271D01*
X56392778Y-76697009D01*
X56476443Y-76853534D01*
X56527963Y-77023373D01*
X56545359Y-77200000D01*
X56527963Y-77376627D01*
X56476443Y-77546466D01*
X56392778Y-77702991D01*
X56363448Y-77738729D01*
X56280186Y-77840186D01*
X56178729Y-77923448D01*
X56142991Y-77952778D01*
X55986466Y-78036443D01*
X55816627Y-78087963D01*
X55750443Y-78094481D01*
X55684260Y-78101000D01*
X55595740Y-78101000D01*
X55529557Y-78094481D01*
X55463373Y-78087963D01*
X55293534Y-78036443D01*
X55137009Y-77952778D01*
X55101271Y-77923448D01*
X54999814Y-77840186D01*
X54916552Y-77738729D01*
X54887222Y-77702991D01*
X54803557Y-77546466D01*
X54752037Y-77376627D01*
X54734641Y-77200000D01*
X54752037Y-77023373D01*
X54803557Y-76853534D01*
X54887222Y-76697009D01*
X54916552Y-76661271D01*
X54999814Y-76559814D01*
X55101271Y-76476552D01*
X55137009Y-76447222D01*
X55293534Y-76363557D01*
X55463373Y-76312037D01*
X55529558Y-76305518D01*
X55595740Y-76299000D01*
X55684260Y-76299000D01*
X55750442Y-76305518D01*
X55750442Y-76305518D01*
G37*
G36*
X53210442Y-76305518D02*
G01*
X53276627Y-76312037D01*
X53446466Y-76363557D01*
X53602991Y-76447222D01*
X53638729Y-76476552D01*
X53740186Y-76559814D01*
X53823448Y-76661271D01*
X53852778Y-76697009D01*
X53936443Y-76853534D01*
X53987963Y-77023373D01*
X54005359Y-77200000D01*
X53987963Y-77376627D01*
X53936443Y-77546466D01*
X53852778Y-77702991D01*
X53823448Y-77738729D01*
X53740186Y-77840186D01*
X53638729Y-77923448D01*
X53602991Y-77952778D01*
X53446466Y-78036443D01*
X53276627Y-78087963D01*
X53210443Y-78094481D01*
X53144260Y-78101000D01*
X53055740Y-78101000D01*
X52989557Y-78094481D01*
X52923373Y-78087963D01*
X52753534Y-78036443D01*
X52597009Y-77952778D01*
X52561271Y-77923448D01*
X52459814Y-77840186D01*
X52376552Y-77738729D01*
X52347222Y-77702991D01*
X52263557Y-77546466D01*
X52212037Y-77376627D01*
X52194641Y-77200000D01*
X52212037Y-77023373D01*
X52263557Y-76853534D01*
X52347222Y-76697009D01*
X52376552Y-76661271D01*
X52459814Y-76559814D01*
X52561271Y-76476552D01*
X52597009Y-76447222D01*
X52753534Y-76363557D01*
X52923373Y-76312037D01*
X52989558Y-76305518D01*
X53055740Y-76299000D01*
X53144260Y-76299000D01*
X53210442Y-76305518D01*
X53210442Y-76305518D01*
G37*
G36*
X50670442Y-76305518D02*
G01*
X50736627Y-76312037D01*
X50906466Y-76363557D01*
X51062991Y-76447222D01*
X51098729Y-76476552D01*
X51200186Y-76559814D01*
X51283448Y-76661271D01*
X51312778Y-76697009D01*
X51396443Y-76853534D01*
X51447963Y-77023373D01*
X51465359Y-77200000D01*
X51447963Y-77376627D01*
X51396443Y-77546466D01*
X51312778Y-77702991D01*
X51283448Y-77738729D01*
X51200186Y-77840186D01*
X51098729Y-77923448D01*
X51062991Y-77952778D01*
X50906466Y-78036443D01*
X50736627Y-78087963D01*
X50670443Y-78094481D01*
X50604260Y-78101000D01*
X50515740Y-78101000D01*
X50449557Y-78094481D01*
X50383373Y-78087963D01*
X50213534Y-78036443D01*
X50057009Y-77952778D01*
X50021271Y-77923448D01*
X49919814Y-77840186D01*
X49836552Y-77738729D01*
X49807222Y-77702991D01*
X49723557Y-77546466D01*
X49672037Y-77376627D01*
X49654641Y-77200000D01*
X49672037Y-77023373D01*
X49723557Y-76853534D01*
X49807222Y-76697009D01*
X49836552Y-76661271D01*
X49919814Y-76559814D01*
X50021271Y-76476552D01*
X50057009Y-76447222D01*
X50213534Y-76363557D01*
X50383373Y-76312037D01*
X50449558Y-76305518D01*
X50515740Y-76299000D01*
X50604260Y-76299000D01*
X50670442Y-76305518D01*
X50670442Y-76305518D01*
G37*
G36*
X48130442Y-76305518D02*
G01*
X48196627Y-76312037D01*
X48366466Y-76363557D01*
X48522991Y-76447222D01*
X48558729Y-76476552D01*
X48660186Y-76559814D01*
X48743448Y-76661271D01*
X48772778Y-76697009D01*
X48856443Y-76853534D01*
X48907963Y-77023373D01*
X48925359Y-77200000D01*
X48907963Y-77376627D01*
X48856443Y-77546466D01*
X48772778Y-77702991D01*
X48743448Y-77738729D01*
X48660186Y-77840186D01*
X48558729Y-77923448D01*
X48522991Y-77952778D01*
X48366466Y-78036443D01*
X48196627Y-78087963D01*
X48130443Y-78094481D01*
X48064260Y-78101000D01*
X47975740Y-78101000D01*
X47909557Y-78094481D01*
X47843373Y-78087963D01*
X47673534Y-78036443D01*
X47517009Y-77952778D01*
X47481271Y-77923448D01*
X47379814Y-77840186D01*
X47296552Y-77738729D01*
X47267222Y-77702991D01*
X47183557Y-77546466D01*
X47132037Y-77376627D01*
X47114641Y-77200000D01*
X47132037Y-77023373D01*
X47183557Y-76853534D01*
X47267222Y-76697009D01*
X47296552Y-76661271D01*
X47379814Y-76559814D01*
X47481271Y-76476552D01*
X47517009Y-76447222D01*
X47673534Y-76363557D01*
X47843373Y-76312037D01*
X47909558Y-76305518D01*
X47975740Y-76299000D01*
X48064260Y-76299000D01*
X48130442Y-76305518D01*
X48130442Y-76305518D01*
G37*
G36*
X45590442Y-76305518D02*
G01*
X45656627Y-76312037D01*
X45826466Y-76363557D01*
X45982991Y-76447222D01*
X46018729Y-76476552D01*
X46120186Y-76559814D01*
X46203448Y-76661271D01*
X46232778Y-76697009D01*
X46316443Y-76853534D01*
X46367963Y-77023373D01*
X46385359Y-77200000D01*
X46367963Y-77376627D01*
X46316443Y-77546466D01*
X46232778Y-77702991D01*
X46203448Y-77738729D01*
X46120186Y-77840186D01*
X46018729Y-77923448D01*
X45982991Y-77952778D01*
X45826466Y-78036443D01*
X45656627Y-78087963D01*
X45590443Y-78094481D01*
X45524260Y-78101000D01*
X45435740Y-78101000D01*
X45369557Y-78094481D01*
X45303373Y-78087963D01*
X45133534Y-78036443D01*
X44977009Y-77952778D01*
X44941271Y-77923448D01*
X44839814Y-77840186D01*
X44756552Y-77738729D01*
X44727222Y-77702991D01*
X44643557Y-77546466D01*
X44592037Y-77376627D01*
X44574641Y-77200000D01*
X44592037Y-77023373D01*
X44643557Y-76853534D01*
X44727222Y-76697009D01*
X44756552Y-76661271D01*
X44839814Y-76559814D01*
X44941271Y-76476552D01*
X44977009Y-76447222D01*
X45133534Y-76363557D01*
X45303373Y-76312037D01*
X45369558Y-76305518D01*
X45435740Y-76299000D01*
X45524260Y-76299000D01*
X45590442Y-76305518D01*
X45590442Y-76305518D01*
G37*
G36*
X43050442Y-76305518D02*
G01*
X43116627Y-76312037D01*
X43286466Y-76363557D01*
X43442991Y-76447222D01*
X43478729Y-76476552D01*
X43580186Y-76559814D01*
X43663448Y-76661271D01*
X43692778Y-76697009D01*
X43776443Y-76853534D01*
X43827963Y-77023373D01*
X43845359Y-77200000D01*
X43827963Y-77376627D01*
X43776443Y-77546466D01*
X43692778Y-77702991D01*
X43663448Y-77738729D01*
X43580186Y-77840186D01*
X43478729Y-77923448D01*
X43442991Y-77952778D01*
X43286466Y-78036443D01*
X43116627Y-78087963D01*
X43050443Y-78094481D01*
X42984260Y-78101000D01*
X42895740Y-78101000D01*
X42829557Y-78094481D01*
X42763373Y-78087963D01*
X42593534Y-78036443D01*
X42437009Y-77952778D01*
X42401271Y-77923448D01*
X42299814Y-77840186D01*
X42216552Y-77738729D01*
X42187222Y-77702991D01*
X42103557Y-77546466D01*
X42052037Y-77376627D01*
X42034641Y-77200000D01*
X42052037Y-77023373D01*
X42103557Y-76853534D01*
X42187222Y-76697009D01*
X42216552Y-76661271D01*
X42299814Y-76559814D01*
X42401271Y-76476552D01*
X42437009Y-76447222D01*
X42593534Y-76363557D01*
X42763373Y-76312037D01*
X42829558Y-76305518D01*
X42895740Y-76299000D01*
X42984260Y-76299000D01*
X43050442Y-76305518D01*
X43050442Y-76305518D01*
G37*
G36*
X41301000Y-78101000D02*
G01*
X39499000Y-78101000D01*
X39499000Y-76299000D01*
X41301000Y-76299000D01*
X41301000Y-78101000D01*
X41301000Y-78101000D01*
G37*
G36*
X42434239Y-61211467D02*
G01*
X42748282Y-61273934D01*
X43339926Y-61519001D01*
X43629523Y-61712504D01*
X43872391Y-61874783D01*
X44325217Y-62327609D01*
X44383909Y-62415448D01*
X44680999Y-62860074D01*
X44926066Y-63451718D01*
X44926066Y-63451719D01*
X45051000Y-64079803D01*
X45051000Y-64720197D01*
X44988533Y-65034239D01*
X44926066Y-65348282D01*
X44680999Y-65939926D01*
X44457871Y-66273860D01*
X44381943Y-66387495D01*
X44325216Y-66472392D01*
X43872392Y-66925216D01*
X43339926Y-67280999D01*
X42748282Y-67526066D01*
X42434239Y-67588533D01*
X42120197Y-67651000D01*
X41479803Y-67651000D01*
X41165761Y-67588533D01*
X40851718Y-67526066D01*
X40260074Y-67280999D01*
X39727608Y-66925216D01*
X39274784Y-66472392D01*
X39218058Y-66387495D01*
X39142129Y-66273860D01*
X38919001Y-65939926D01*
X38673934Y-65348282D01*
X38611467Y-65034239D01*
X38549000Y-64720197D01*
X38549000Y-64079803D01*
X38673934Y-63451719D01*
X38673934Y-63451718D01*
X38919001Y-62860074D01*
X39216091Y-62415448D01*
X39274783Y-62327609D01*
X39727609Y-61874783D01*
X39970477Y-61712504D01*
X40260074Y-61519001D01*
X40851718Y-61273934D01*
X41165761Y-61211467D01*
X41479803Y-61149000D01*
X42120197Y-61149000D01*
X42434239Y-61211467D01*
X42434239Y-61211467D01*
G37*
G36*
X67434239Y-61211467D02*
G01*
X67748282Y-61273934D01*
X68339926Y-61519001D01*
X68629523Y-61712504D01*
X68872391Y-61874783D01*
X69325217Y-62327609D01*
X69383909Y-62415448D01*
X69680999Y-62860074D01*
X69926066Y-63451718D01*
X69926066Y-63451719D01*
X70051000Y-64079803D01*
X70051000Y-64720197D01*
X69988533Y-65034239D01*
X69926066Y-65348282D01*
X69680999Y-65939926D01*
X69457871Y-66273860D01*
X69381943Y-66387495D01*
X69325216Y-66472392D01*
X68872392Y-66925216D01*
X68339926Y-67280999D01*
X67748282Y-67526066D01*
X67434239Y-67588533D01*
X67120197Y-67651000D01*
X66479803Y-67651000D01*
X66165761Y-67588533D01*
X65851718Y-67526066D01*
X65260074Y-67280999D01*
X64727608Y-66925216D01*
X64274784Y-66472392D01*
X64218058Y-66387495D01*
X64142129Y-66273860D01*
X63919001Y-65939926D01*
X63673934Y-65348282D01*
X63611467Y-65034239D01*
X63549000Y-64720197D01*
X63549000Y-64079803D01*
X63673934Y-63451719D01*
X63673934Y-63451718D01*
X63919001Y-62860074D01*
X64216091Y-62415448D01*
X64274783Y-62327609D01*
X64727609Y-61874783D01*
X64970477Y-61712504D01*
X65260074Y-61519001D01*
X65851718Y-61273934D01*
X66165761Y-61211467D01*
X66479803Y-61149000D01*
X67120197Y-61149000D01*
X67434239Y-61211467D01*
X67434239Y-61211467D01*
G37*
G36*
X50087496Y-65139587D02*
G01*
X50190860Y-65170942D01*
X50286120Y-65221860D01*
X50369617Y-65290384D01*
X50438141Y-65373881D01*
X50489059Y-65469141D01*
X50520414Y-65572505D01*
X50531001Y-65680000D01*
X50531001Y-66280000D01*
X50520414Y-66387495D01*
X50489059Y-66490859D01*
X50438141Y-66586119D01*
X50369617Y-66669616D01*
X50286120Y-66738140D01*
X50190860Y-66789058D01*
X50087496Y-66820413D01*
X49980001Y-66831000D01*
X49979999Y-66831000D01*
X49872504Y-66820413D01*
X49769140Y-66789058D01*
X49673880Y-66738140D01*
X49590383Y-66669616D01*
X49521859Y-66586119D01*
X49470941Y-66490859D01*
X49439586Y-66387495D01*
X49428999Y-66280000D01*
X49428999Y-65680000D01*
X49439586Y-65572505D01*
X49470941Y-65469141D01*
X49521859Y-65373881D01*
X49590383Y-65290384D01*
X49673880Y-65221860D01*
X49769140Y-65170942D01*
X49872504Y-65139587D01*
X49979999Y-65129000D01*
X49980001Y-65129000D01*
X50087496Y-65139587D01*
X50087496Y-65139587D01*
G37*
G36*
X58727496Y-65139587D02*
G01*
X58830860Y-65170942D01*
X58926120Y-65221860D01*
X59009617Y-65290384D01*
X59078141Y-65373881D01*
X59129059Y-65469141D01*
X59160414Y-65572505D01*
X59171001Y-65680000D01*
X59171001Y-66280000D01*
X59160414Y-66387495D01*
X59129059Y-66490859D01*
X59078141Y-66586119D01*
X59009617Y-66669616D01*
X58926120Y-66738140D01*
X58830860Y-66789058D01*
X58727496Y-66820413D01*
X58620001Y-66831000D01*
X58619999Y-66831000D01*
X58512504Y-66820413D01*
X58409140Y-66789058D01*
X58313880Y-66738140D01*
X58230383Y-66669616D01*
X58161859Y-66586119D01*
X58110941Y-66490859D01*
X58079586Y-66387495D01*
X58068999Y-66280000D01*
X58068999Y-65680000D01*
X58079586Y-65572505D01*
X58110941Y-65469141D01*
X58161859Y-65373881D01*
X58230383Y-65290384D01*
X58313880Y-65221860D01*
X58409140Y-65170942D01*
X58512504Y-65139587D01*
X58619999Y-65129000D01*
X58620001Y-65129000D01*
X58727496Y-65139587D01*
X58727496Y-65139587D01*
G37*
G36*
X58727496Y-60959587D02*
G01*
X58830860Y-60990942D01*
X58926120Y-61041860D01*
X59009617Y-61110384D01*
X59078141Y-61193881D01*
X59129059Y-61289141D01*
X59160414Y-61392505D01*
X59171001Y-61500000D01*
X59171001Y-62100000D01*
X59160414Y-62207495D01*
X59129059Y-62310859D01*
X59078141Y-62406119D01*
X59009617Y-62489616D01*
X58926120Y-62558140D01*
X58830860Y-62609058D01*
X58727496Y-62640413D01*
X58620001Y-62651000D01*
X58619999Y-62651000D01*
X58512504Y-62640413D01*
X58409140Y-62609058D01*
X58313880Y-62558140D01*
X58230383Y-62489616D01*
X58161859Y-62406119D01*
X58110941Y-62310859D01*
X58079586Y-62207495D01*
X58068999Y-62100000D01*
X58068999Y-61500000D01*
X58079586Y-61392505D01*
X58110941Y-61289141D01*
X58161859Y-61193881D01*
X58230383Y-61110384D01*
X58313880Y-61041860D01*
X58409140Y-60990942D01*
X58512504Y-60959587D01*
X58619999Y-60949000D01*
X58620001Y-60949000D01*
X58727496Y-60959587D01*
X58727496Y-60959587D01*
G37*
G36*
X50087496Y-60959587D02*
G01*
X50190860Y-60990942D01*
X50286120Y-61041860D01*
X50369617Y-61110384D01*
X50438141Y-61193881D01*
X50489059Y-61289141D01*
X50520414Y-61392505D01*
X50531001Y-61500000D01*
X50531001Y-62100000D01*
X50520414Y-62207495D01*
X50489059Y-62310859D01*
X50438141Y-62406119D01*
X50369617Y-62489616D01*
X50286120Y-62558140D01*
X50190860Y-62609058D01*
X50087496Y-62640413D01*
X49980001Y-62651000D01*
X49979999Y-62651000D01*
X49872504Y-62640413D01*
X49769140Y-62609058D01*
X49673880Y-62558140D01*
X49590383Y-62489616D01*
X49521859Y-62406119D01*
X49470941Y-62310859D01*
X49439586Y-62207495D01*
X49428999Y-62100000D01*
X49428999Y-61500000D01*
X49439586Y-61392505D01*
X49470941Y-61289141D01*
X49521859Y-61193881D01*
X49590383Y-61110384D01*
X49673880Y-61041860D01*
X49769140Y-60990942D01*
X49872504Y-60959587D01*
X49979999Y-60949000D01*
X49980001Y-60949000D01*
X50087496Y-60959587D01*
X50087496Y-60959587D01*
G37*
M02*
