G04 #@! TF.GenerationSoftware,KiCad,Pcbnew,(5.1.2-1)-1*
G04 #@! TF.CreationDate,2020-04-25T00:14:51+02:00*
G04 #@! TF.ProjectId,USB-C-USB-2.0,5553422d-432d-4555-9342-2d322e302e6b,rev?*
G04 #@! TF.SameCoordinates,Original*
G04 #@! TF.FileFunction,Legend,Top*
G04 #@! TF.FilePolarity,Positive*
%FSLAX46Y46*%
G04 Gerber Fmt 4.6, Leading zero omitted, Abs format (unit mm)*
G04 Created by KiCad (PCBNEW (5.1.2-1)-1) date 2020-04-25 00:14:51*
%MOMM*%
%LPD*%
G04 APERTURE LIST*
%ADD10C,0.100000*%
%ADD11C,0.120000*%
%ADD12C,0.010000*%
%ADD13C,0.020000*%
%ADD14C,0.150000*%
G04 APERTURE END LIST*
D10*
X40040000Y-80493571D02*
X40002857Y-80569761D01*
X40002857Y-80684047D01*
X40040000Y-80798333D01*
X40114285Y-80874523D01*
X40188571Y-80912619D01*
X40337142Y-80950714D01*
X40448571Y-80950714D01*
X40597142Y-80912619D01*
X40671428Y-80874523D01*
X40745714Y-80798333D01*
X40782857Y-80684047D01*
X40782857Y-80607857D01*
X40745714Y-80493571D01*
X40708571Y-80455476D01*
X40448571Y-80455476D01*
X40448571Y-80607857D01*
X40782857Y-80112619D02*
X40002857Y-80112619D01*
X40782857Y-79655476D01*
X40002857Y-79655476D01*
X40782857Y-79274523D02*
X40002857Y-79274523D01*
X40002857Y-79084047D01*
X40040000Y-78969761D01*
X40114285Y-78893571D01*
X40188571Y-78855476D01*
X40337142Y-78817380D01*
X40448571Y-78817380D01*
X40597142Y-78855476D01*
X40671428Y-78893571D01*
X40745714Y-78969761D01*
X40782857Y-79084047D01*
X40782857Y-79274523D01*
X42542857Y-81674523D02*
X43322857Y-81407857D01*
X42542857Y-81141190D01*
X42914285Y-80607857D02*
X42951428Y-80493571D01*
X42988571Y-80455476D01*
X43062857Y-80417380D01*
X43174285Y-80417380D01*
X43248571Y-80455476D01*
X43285714Y-80493571D01*
X43322857Y-80569761D01*
X43322857Y-80874523D01*
X42542857Y-80874523D01*
X42542857Y-80607857D01*
X42580000Y-80531666D01*
X42617142Y-80493571D01*
X42691428Y-80455476D01*
X42765714Y-80455476D01*
X42840000Y-80493571D01*
X42877142Y-80531666D01*
X42914285Y-80607857D01*
X42914285Y-80874523D01*
X42542857Y-80074523D02*
X43174285Y-80074523D01*
X43248571Y-80036428D01*
X43285714Y-79998333D01*
X43322857Y-79922142D01*
X43322857Y-79769761D01*
X43285714Y-79693571D01*
X43248571Y-79655476D01*
X43174285Y-79617380D01*
X42542857Y-79617380D01*
X43285714Y-79274523D02*
X43322857Y-79160238D01*
X43322857Y-78969761D01*
X43285714Y-78893571D01*
X43248571Y-78855476D01*
X43174285Y-78817380D01*
X43100000Y-78817380D01*
X43025714Y-78855476D01*
X42988571Y-78893571D01*
X42951428Y-78969761D01*
X42914285Y-79122142D01*
X42877142Y-79198333D01*
X42840000Y-79236428D01*
X42765714Y-79274523D01*
X42691428Y-79274523D01*
X42617142Y-79236428D01*
X42580000Y-79198333D01*
X42542857Y-79122142D01*
X42542857Y-78931666D01*
X42580000Y-78817380D01*
X45788571Y-80379285D02*
X45825714Y-80417380D01*
X45862857Y-80531666D01*
X45862857Y-80607857D01*
X45825714Y-80722142D01*
X45751428Y-80798333D01*
X45677142Y-80836428D01*
X45528571Y-80874523D01*
X45417142Y-80874523D01*
X45268571Y-80836428D01*
X45194285Y-80798333D01*
X45120000Y-80722142D01*
X45082857Y-80607857D01*
X45082857Y-80531666D01*
X45120000Y-80417380D01*
X45157142Y-80379285D01*
X45788571Y-79579285D02*
X45825714Y-79617380D01*
X45862857Y-79731666D01*
X45862857Y-79807857D01*
X45825714Y-79922142D01*
X45751428Y-79998333D01*
X45677142Y-80036428D01*
X45528571Y-80074523D01*
X45417142Y-80074523D01*
X45268571Y-80036428D01*
X45194285Y-79998333D01*
X45120000Y-79922142D01*
X45082857Y-79807857D01*
X45082857Y-79731666D01*
X45120000Y-79617380D01*
X45157142Y-79579285D01*
X45862857Y-78817380D02*
X45862857Y-79274523D01*
X45862857Y-79045952D02*
X45082857Y-79045952D01*
X45194285Y-79122142D01*
X45268571Y-79198333D01*
X45305714Y-79274523D01*
X48328571Y-80379285D02*
X48365714Y-80417380D01*
X48402857Y-80531666D01*
X48402857Y-80607857D01*
X48365714Y-80722142D01*
X48291428Y-80798333D01*
X48217142Y-80836428D01*
X48068571Y-80874523D01*
X47957142Y-80874523D01*
X47808571Y-80836428D01*
X47734285Y-80798333D01*
X47660000Y-80722142D01*
X47622857Y-80607857D01*
X47622857Y-80531666D01*
X47660000Y-80417380D01*
X47697142Y-80379285D01*
X48328571Y-79579285D02*
X48365714Y-79617380D01*
X48402857Y-79731666D01*
X48402857Y-79807857D01*
X48365714Y-79922142D01*
X48291428Y-79998333D01*
X48217142Y-80036428D01*
X48068571Y-80074523D01*
X47957142Y-80074523D01*
X47808571Y-80036428D01*
X47734285Y-79998333D01*
X47660000Y-79922142D01*
X47622857Y-79807857D01*
X47622857Y-79731666D01*
X47660000Y-79617380D01*
X47697142Y-79579285D01*
X47697142Y-79274523D02*
X47660000Y-79236428D01*
X47622857Y-79160238D01*
X47622857Y-78969761D01*
X47660000Y-78893571D01*
X47697142Y-78855476D01*
X47771428Y-78817380D01*
X47845714Y-78817380D01*
X47957142Y-78855476D01*
X48402857Y-79312619D01*
X48402857Y-78817380D01*
X50162857Y-81674523D02*
X50942857Y-81407857D01*
X50162857Y-81141190D01*
X50534285Y-80607857D02*
X50571428Y-80493571D01*
X50608571Y-80455476D01*
X50682857Y-80417380D01*
X50794285Y-80417380D01*
X50868571Y-80455476D01*
X50905714Y-80493571D01*
X50942857Y-80569761D01*
X50942857Y-80874523D01*
X50162857Y-80874523D01*
X50162857Y-80607857D01*
X50200000Y-80531666D01*
X50237142Y-80493571D01*
X50311428Y-80455476D01*
X50385714Y-80455476D01*
X50460000Y-80493571D01*
X50497142Y-80531666D01*
X50534285Y-80607857D01*
X50534285Y-80874523D01*
X50162857Y-80074523D02*
X50794285Y-80074523D01*
X50868571Y-80036428D01*
X50905714Y-79998333D01*
X50942857Y-79922142D01*
X50942857Y-79769761D01*
X50905714Y-79693571D01*
X50868571Y-79655476D01*
X50794285Y-79617380D01*
X50162857Y-79617380D01*
X50905714Y-79274523D02*
X50942857Y-79160238D01*
X50942857Y-78969761D01*
X50905714Y-78893571D01*
X50868571Y-78855476D01*
X50794285Y-78817380D01*
X50720000Y-78817380D01*
X50645714Y-78855476D01*
X50608571Y-78893571D01*
X50571428Y-78969761D01*
X50534285Y-79122142D01*
X50497142Y-79198333D01*
X50460000Y-79236428D01*
X50385714Y-79274523D01*
X50311428Y-79274523D01*
X50237142Y-79236428D01*
X50200000Y-79198333D01*
X50162857Y-79122142D01*
X50162857Y-78931666D01*
X50200000Y-78817380D01*
X52740000Y-80493571D02*
X52702857Y-80569761D01*
X52702857Y-80684047D01*
X52740000Y-80798333D01*
X52814285Y-80874523D01*
X52888571Y-80912619D01*
X53037142Y-80950714D01*
X53148571Y-80950714D01*
X53297142Y-80912619D01*
X53371428Y-80874523D01*
X53445714Y-80798333D01*
X53482857Y-80684047D01*
X53482857Y-80607857D01*
X53445714Y-80493571D01*
X53408571Y-80455476D01*
X53148571Y-80455476D01*
X53148571Y-80607857D01*
X53482857Y-80112619D02*
X52702857Y-80112619D01*
X53482857Y-79655476D01*
X52702857Y-79655476D01*
X53482857Y-79274523D02*
X52702857Y-79274523D01*
X52702857Y-79084047D01*
X52740000Y-78969761D01*
X52814285Y-78893571D01*
X52888571Y-78855476D01*
X53037142Y-78817380D01*
X53148571Y-78817380D01*
X53297142Y-78855476D01*
X53371428Y-78893571D01*
X53445714Y-78969761D01*
X53482857Y-79084047D01*
X53482857Y-79274523D01*
X56022857Y-82360238D02*
X55242857Y-82360238D01*
X55242857Y-82169761D01*
X55280000Y-82055476D01*
X55354285Y-81979285D01*
X55428571Y-81941190D01*
X55577142Y-81903095D01*
X55688571Y-81903095D01*
X55837142Y-81941190D01*
X55911428Y-81979285D01*
X55985714Y-82055476D01*
X56022857Y-82169761D01*
X56022857Y-82360238D01*
X56022857Y-81560238D02*
X55242857Y-81560238D01*
X55242857Y-81255476D01*
X55280000Y-81179285D01*
X55317142Y-81141190D01*
X55391428Y-81103095D01*
X55502857Y-81103095D01*
X55577142Y-81141190D01*
X55614285Y-81179285D01*
X55651428Y-81255476D01*
X55651428Y-81560238D01*
X55205714Y-80188809D02*
X56208571Y-80874523D01*
X55800000Y-79960238D02*
X55800000Y-79579285D01*
X56022857Y-80036428D02*
X55242857Y-79769761D01*
X56022857Y-79503095D01*
X55242857Y-79312619D02*
X55242857Y-78779285D01*
X56022857Y-79122142D01*
X58562857Y-82474523D02*
X57782857Y-82474523D01*
X57782857Y-82284047D01*
X57820000Y-82169761D01*
X57894285Y-82093571D01*
X57968571Y-82055476D01*
X58117142Y-82017380D01*
X58228571Y-82017380D01*
X58377142Y-82055476D01*
X58451428Y-82093571D01*
X58525714Y-82169761D01*
X58562857Y-82284047D01*
X58562857Y-82474523D01*
X58562857Y-81674523D02*
X57782857Y-81674523D01*
X57782857Y-81369761D01*
X57820000Y-81293571D01*
X57857142Y-81255476D01*
X57931428Y-81217380D01*
X58042857Y-81217380D01*
X58117142Y-81255476D01*
X58154285Y-81293571D01*
X58191428Y-81369761D01*
X58191428Y-81674523D01*
X57745714Y-80303095D02*
X58748571Y-80988809D01*
X58154285Y-79769761D02*
X58191428Y-79655476D01*
X58228571Y-79617380D01*
X58302857Y-79579285D01*
X58414285Y-79579285D01*
X58488571Y-79617380D01*
X58525714Y-79655476D01*
X58562857Y-79731666D01*
X58562857Y-80036428D01*
X57782857Y-80036428D01*
X57782857Y-79769761D01*
X57820000Y-79693571D01*
X57857142Y-79655476D01*
X57931428Y-79617380D01*
X58005714Y-79617380D01*
X58080000Y-79655476D01*
X58117142Y-79693571D01*
X58154285Y-79769761D01*
X58154285Y-80036428D01*
X57782857Y-79312619D02*
X57782857Y-78779285D01*
X58562857Y-79122142D01*
X61102857Y-82474523D02*
X60322857Y-82474523D01*
X60322857Y-82284047D01*
X60360000Y-82169761D01*
X60434285Y-82093571D01*
X60508571Y-82055476D01*
X60657142Y-82017380D01*
X60768571Y-82017380D01*
X60917142Y-82055476D01*
X60991428Y-82093571D01*
X61065714Y-82169761D01*
X61102857Y-82284047D01*
X61102857Y-82474523D01*
X61102857Y-81674523D02*
X60322857Y-81674523D01*
X60880000Y-81407857D01*
X60322857Y-81141190D01*
X61102857Y-81141190D01*
X60285714Y-80188809D02*
X61288571Y-80874523D01*
X60880000Y-79960238D02*
X60880000Y-79579285D01*
X61102857Y-80036428D02*
X60322857Y-79769761D01*
X61102857Y-79503095D01*
X60322857Y-78893571D02*
X60322857Y-79045952D01*
X60360000Y-79122142D01*
X60397142Y-79160238D01*
X60508571Y-79236428D01*
X60657142Y-79274523D01*
X60954285Y-79274523D01*
X61028571Y-79236428D01*
X61065714Y-79198333D01*
X61102857Y-79122142D01*
X61102857Y-78969761D01*
X61065714Y-78893571D01*
X61028571Y-78855476D01*
X60954285Y-78817380D01*
X60768571Y-78817380D01*
X60694285Y-78855476D01*
X60657142Y-78893571D01*
X60620000Y-78969761D01*
X60620000Y-79122142D01*
X60657142Y-79198333D01*
X60694285Y-79236428D01*
X60768571Y-79274523D01*
X63642857Y-82588809D02*
X62862857Y-82588809D01*
X62862857Y-82398333D01*
X62900000Y-82284047D01*
X62974285Y-82207857D01*
X63048571Y-82169761D01*
X63197142Y-82131666D01*
X63308571Y-82131666D01*
X63457142Y-82169761D01*
X63531428Y-82207857D01*
X63605714Y-82284047D01*
X63642857Y-82398333D01*
X63642857Y-82588809D01*
X63642857Y-81788809D02*
X62862857Y-81788809D01*
X63420000Y-81522142D01*
X62862857Y-81255476D01*
X63642857Y-81255476D01*
X62825714Y-80303095D02*
X63828571Y-80988809D01*
X63234285Y-79769761D02*
X63271428Y-79655476D01*
X63308571Y-79617380D01*
X63382857Y-79579285D01*
X63494285Y-79579285D01*
X63568571Y-79617380D01*
X63605714Y-79655476D01*
X63642857Y-79731666D01*
X63642857Y-80036428D01*
X62862857Y-80036428D01*
X62862857Y-79769761D01*
X62900000Y-79693571D01*
X62937142Y-79655476D01*
X63011428Y-79617380D01*
X63085714Y-79617380D01*
X63160000Y-79655476D01*
X63197142Y-79693571D01*
X63234285Y-79769761D01*
X63234285Y-80036428D01*
X62862857Y-78893571D02*
X62862857Y-79045952D01*
X62900000Y-79122142D01*
X62937142Y-79160238D01*
X63048571Y-79236428D01*
X63197142Y-79274523D01*
X63494285Y-79274523D01*
X63568571Y-79236428D01*
X63605714Y-79198333D01*
X63642857Y-79122142D01*
X63642857Y-78969761D01*
X63605714Y-78893571D01*
X63568571Y-78855476D01*
X63494285Y-78817380D01*
X63308571Y-78817380D01*
X63234285Y-78855476D01*
X63197142Y-78893571D01*
X63160000Y-78969761D01*
X63160000Y-79122142D01*
X63197142Y-79198333D01*
X63234285Y-79236428D01*
X63308571Y-79274523D01*
X66145714Y-81674523D02*
X66182857Y-81560238D01*
X66182857Y-81369761D01*
X66145714Y-81293571D01*
X66108571Y-81255476D01*
X66034285Y-81217380D01*
X65960000Y-81217380D01*
X65885714Y-81255476D01*
X65848571Y-81293571D01*
X65811428Y-81369761D01*
X65774285Y-81522142D01*
X65737142Y-81598333D01*
X65700000Y-81636428D01*
X65625714Y-81674523D01*
X65551428Y-81674523D01*
X65477142Y-81636428D01*
X65440000Y-81598333D01*
X65402857Y-81522142D01*
X65402857Y-81331666D01*
X65440000Y-81217380D01*
X65774285Y-80607857D02*
X65811428Y-80493571D01*
X65848571Y-80455476D01*
X65922857Y-80417380D01*
X66034285Y-80417380D01*
X66108571Y-80455476D01*
X66145714Y-80493571D01*
X66182857Y-80569761D01*
X66182857Y-80874523D01*
X65402857Y-80874523D01*
X65402857Y-80607857D01*
X65440000Y-80531666D01*
X65477142Y-80493571D01*
X65551428Y-80455476D01*
X65625714Y-80455476D01*
X65700000Y-80493571D01*
X65737142Y-80531666D01*
X65774285Y-80607857D01*
X65774285Y-80874523D01*
X65402857Y-80074523D02*
X66034285Y-80074523D01*
X66108571Y-80036428D01*
X66145714Y-79998333D01*
X66182857Y-79922142D01*
X66182857Y-79769761D01*
X66145714Y-79693571D01*
X66108571Y-79655476D01*
X66034285Y-79617380D01*
X65402857Y-79617380D01*
X66182857Y-78817380D02*
X66182857Y-79274523D01*
X66182857Y-79045952D02*
X65402857Y-79045952D01*
X65514285Y-79122142D01*
X65588571Y-79198333D01*
X65625714Y-79274523D01*
X68685714Y-81674523D02*
X68722857Y-81560238D01*
X68722857Y-81369761D01*
X68685714Y-81293571D01*
X68648571Y-81255476D01*
X68574285Y-81217380D01*
X68500000Y-81217380D01*
X68425714Y-81255476D01*
X68388571Y-81293571D01*
X68351428Y-81369761D01*
X68314285Y-81522142D01*
X68277142Y-81598333D01*
X68240000Y-81636428D01*
X68165714Y-81674523D01*
X68091428Y-81674523D01*
X68017142Y-81636428D01*
X67980000Y-81598333D01*
X67942857Y-81522142D01*
X67942857Y-81331666D01*
X67980000Y-81217380D01*
X68314285Y-80607857D02*
X68351428Y-80493571D01*
X68388571Y-80455476D01*
X68462857Y-80417380D01*
X68574285Y-80417380D01*
X68648571Y-80455476D01*
X68685714Y-80493571D01*
X68722857Y-80569761D01*
X68722857Y-80874523D01*
X67942857Y-80874523D01*
X67942857Y-80607857D01*
X67980000Y-80531666D01*
X68017142Y-80493571D01*
X68091428Y-80455476D01*
X68165714Y-80455476D01*
X68240000Y-80493571D01*
X68277142Y-80531666D01*
X68314285Y-80607857D01*
X68314285Y-80874523D01*
X67942857Y-80074523D02*
X68574285Y-80074523D01*
X68648571Y-80036428D01*
X68685714Y-79998333D01*
X68722857Y-79922142D01*
X68722857Y-79769761D01*
X68685714Y-79693571D01*
X68648571Y-79655476D01*
X68574285Y-79617380D01*
X67942857Y-79617380D01*
X68017142Y-79274523D02*
X67980000Y-79236428D01*
X67942857Y-79160238D01*
X67942857Y-78969761D01*
X67980000Y-78893571D01*
X68017142Y-78855476D01*
X68091428Y-78817380D01*
X68165714Y-78817380D01*
X68277142Y-78855476D01*
X68722857Y-79312619D01*
X68722857Y-78817380D01*
D11*
X53800000Y-67700000D02*
X53800000Y-74700000D01*
D12*
G36*
X67376964Y-68690018D02*
G01*
X67433812Y-68991570D01*
X67853338Y-69164512D01*
X68104984Y-68993395D01*
X68175458Y-68945750D01*
X68239163Y-68903210D01*
X68293126Y-68867715D01*
X68334373Y-68841210D01*
X68359934Y-68825636D01*
X68366895Y-68822278D01*
X68379435Y-68830914D01*
X68406231Y-68854792D01*
X68444280Y-68890859D01*
X68490579Y-68936067D01*
X68542123Y-68987364D01*
X68595909Y-69041701D01*
X68648935Y-69096028D01*
X68698195Y-69147295D01*
X68740687Y-69192451D01*
X68773407Y-69228446D01*
X68793351Y-69252230D01*
X68798119Y-69260190D01*
X68791257Y-69274865D01*
X68772020Y-69307014D01*
X68742430Y-69353492D01*
X68704510Y-69411156D01*
X68660282Y-69476860D01*
X68634654Y-69514336D01*
X68587941Y-69582768D01*
X68546432Y-69644520D01*
X68512140Y-69696519D01*
X68487080Y-69735692D01*
X68473264Y-69758965D01*
X68471188Y-69763855D01*
X68475895Y-69777755D01*
X68488723Y-69810150D01*
X68507738Y-69856485D01*
X68531003Y-69912206D01*
X68556584Y-69972758D01*
X68582545Y-70033586D01*
X68606950Y-70090136D01*
X68627863Y-70137852D01*
X68643349Y-70172181D01*
X68651472Y-70188568D01*
X68651952Y-70189212D01*
X68664707Y-70192341D01*
X68698677Y-70199321D01*
X68750340Y-70209467D01*
X68816176Y-70222092D01*
X68892664Y-70236509D01*
X68937290Y-70244823D01*
X69019021Y-70260384D01*
X69092843Y-70275192D01*
X69155021Y-70288436D01*
X69201822Y-70299305D01*
X69229509Y-70306989D01*
X69235074Y-70309427D01*
X69240526Y-70325930D01*
X69244924Y-70363200D01*
X69248272Y-70416880D01*
X69250574Y-70482612D01*
X69251832Y-70556037D01*
X69252048Y-70632796D01*
X69251227Y-70708532D01*
X69249371Y-70778886D01*
X69246482Y-70839500D01*
X69242565Y-70886016D01*
X69237622Y-70914075D01*
X69234657Y-70919916D01*
X69216934Y-70926917D01*
X69179381Y-70936927D01*
X69126964Y-70948769D01*
X69064652Y-70961267D01*
X69042900Y-70965310D01*
X68938024Y-70984520D01*
X68855180Y-70999991D01*
X68791630Y-71012337D01*
X68744637Y-71022173D01*
X68711463Y-71030114D01*
X68689371Y-71036776D01*
X68675624Y-71042773D01*
X68667484Y-71048719D01*
X68666345Y-71049894D01*
X68654977Y-71068826D01*
X68637635Y-71105669D01*
X68616050Y-71155913D01*
X68591954Y-71215046D01*
X68567079Y-71278556D01*
X68543157Y-71341932D01*
X68521919Y-71400662D01*
X68505097Y-71450235D01*
X68494422Y-71486139D01*
X68491627Y-71503862D01*
X68491860Y-71504483D01*
X68501331Y-71518970D01*
X68522818Y-71550844D01*
X68554063Y-71596789D01*
X68592807Y-71653485D01*
X68636793Y-71717617D01*
X68649319Y-71735842D01*
X68693984Y-71801914D01*
X68733288Y-71862200D01*
X68765088Y-71913235D01*
X68787245Y-71951560D01*
X68797617Y-71973711D01*
X68798119Y-71976432D01*
X68789405Y-71990736D01*
X68765325Y-72019072D01*
X68728976Y-72058396D01*
X68683453Y-72105661D01*
X68631852Y-72157823D01*
X68577267Y-72211835D01*
X68522794Y-72264653D01*
X68471529Y-72313231D01*
X68426567Y-72354523D01*
X68391004Y-72385485D01*
X68367935Y-72403070D01*
X68361554Y-72405941D01*
X68346699Y-72399178D01*
X68316286Y-72380939D01*
X68275268Y-72354297D01*
X68243709Y-72332852D01*
X68186525Y-72293503D01*
X68118806Y-72247171D01*
X68050880Y-72200913D01*
X68014361Y-72176155D01*
X67890752Y-72092547D01*
X67786991Y-72148650D01*
X67739720Y-72173228D01*
X67699523Y-72192331D01*
X67672326Y-72203227D01*
X67665402Y-72204743D01*
X67657077Y-72193549D01*
X67640654Y-72161917D01*
X67617357Y-72112765D01*
X67588414Y-72049010D01*
X67555050Y-71973571D01*
X67518491Y-71889364D01*
X67479964Y-71799308D01*
X67440694Y-71706321D01*
X67401908Y-71613320D01*
X67364830Y-71523223D01*
X67330689Y-71438948D01*
X67300708Y-71363413D01*
X67276116Y-71299534D01*
X67258136Y-71250231D01*
X67247997Y-71218421D01*
X67246366Y-71207496D01*
X67259291Y-71193561D01*
X67287589Y-71170940D01*
X67325346Y-71144333D01*
X67328515Y-71142228D01*
X67426100Y-71064114D01*
X67504786Y-70972982D01*
X67563891Y-70871745D01*
X67602732Y-70763318D01*
X67620628Y-70650614D01*
X67616897Y-70536548D01*
X67590857Y-70424034D01*
X67541825Y-70315985D01*
X67527400Y-70292345D01*
X67452369Y-70196887D01*
X67363730Y-70120232D01*
X67264549Y-70062780D01*
X67157895Y-70024929D01*
X67046836Y-70007078D01*
X66934439Y-70009625D01*
X66823773Y-70032970D01*
X66717906Y-70077510D01*
X66619905Y-70143645D01*
X66589590Y-70170487D01*
X66512438Y-70254512D01*
X66456218Y-70342966D01*
X66417653Y-70442115D01*
X66396174Y-70540303D01*
X66390872Y-70650697D01*
X66408552Y-70761640D01*
X66447419Y-70869381D01*
X66505677Y-70970169D01*
X66581531Y-71060256D01*
X66673183Y-71135892D01*
X66685228Y-71143864D01*
X66723389Y-71169974D01*
X66752399Y-71192595D01*
X66766268Y-71207039D01*
X66766469Y-71207496D01*
X66763492Y-71223121D01*
X66751689Y-71258582D01*
X66732286Y-71310962D01*
X66706512Y-71377345D01*
X66675591Y-71454814D01*
X66640751Y-71540450D01*
X66603217Y-71631337D01*
X66564217Y-71724559D01*
X66524977Y-71817197D01*
X66486724Y-71906335D01*
X66450683Y-71989055D01*
X66418083Y-72062441D01*
X66390148Y-72123575D01*
X66368105Y-72169541D01*
X66353182Y-72197421D01*
X66347172Y-72204743D01*
X66328809Y-72199041D01*
X66294448Y-72183749D01*
X66250016Y-72161599D01*
X66225583Y-72148650D01*
X66121822Y-72092547D01*
X65998213Y-72176155D01*
X65935114Y-72218987D01*
X65866030Y-72266122D01*
X65801293Y-72310503D01*
X65768866Y-72332852D01*
X65723259Y-72363477D01*
X65684640Y-72387747D01*
X65658048Y-72402587D01*
X65649410Y-72405724D01*
X65636839Y-72397261D01*
X65609016Y-72373636D01*
X65568639Y-72337302D01*
X65518405Y-72290711D01*
X65461012Y-72236317D01*
X65424714Y-72201392D01*
X65361210Y-72138996D01*
X65306327Y-72083188D01*
X65262286Y-72036354D01*
X65231305Y-72000882D01*
X65215602Y-71979161D01*
X65214095Y-71974752D01*
X65221086Y-71957985D01*
X65240406Y-71924082D01*
X65269909Y-71876476D01*
X65307455Y-71818599D01*
X65350900Y-71753884D01*
X65363255Y-71735842D01*
X65408273Y-71670267D01*
X65448660Y-71611228D01*
X65482160Y-71562042D01*
X65506514Y-71526028D01*
X65519464Y-71506502D01*
X65520715Y-71504483D01*
X65518844Y-71488922D01*
X65508913Y-71454709D01*
X65492653Y-71406355D01*
X65471795Y-71348371D01*
X65448073Y-71285270D01*
X65423216Y-71221563D01*
X65398958Y-71161761D01*
X65377029Y-71110376D01*
X65359162Y-71071919D01*
X65347087Y-71050902D01*
X65346229Y-71049894D01*
X65338846Y-71043888D01*
X65326375Y-71037948D01*
X65306080Y-71031460D01*
X65275222Y-71023809D01*
X65231066Y-71014380D01*
X65170874Y-71002559D01*
X65091907Y-70987729D01*
X64991430Y-70969277D01*
X64969675Y-70965310D01*
X64905198Y-70952853D01*
X64848989Y-70940666D01*
X64806013Y-70929926D01*
X64781240Y-70921809D01*
X64777918Y-70919916D01*
X64772444Y-70903138D01*
X64767994Y-70865645D01*
X64764572Y-70811794D01*
X64762181Y-70745944D01*
X64760823Y-70672453D01*
X64760501Y-70595680D01*
X64761219Y-70519983D01*
X64762979Y-70449720D01*
X64765784Y-70389250D01*
X64769638Y-70342930D01*
X64774543Y-70315119D01*
X64777500Y-70309427D01*
X64793963Y-70303686D01*
X64831449Y-70294345D01*
X64886225Y-70282215D01*
X64954555Y-70268107D01*
X65032706Y-70252830D01*
X65075284Y-70244823D01*
X65156071Y-70229721D01*
X65228113Y-70216040D01*
X65287889Y-70204467D01*
X65331879Y-70195687D01*
X65356561Y-70190387D01*
X65360623Y-70189212D01*
X65367489Y-70175965D01*
X65382002Y-70144057D01*
X65402229Y-70098047D01*
X65426234Y-70042492D01*
X65452082Y-69981953D01*
X65477840Y-69920986D01*
X65501573Y-69864151D01*
X65521346Y-69816006D01*
X65535224Y-69781110D01*
X65541274Y-69764021D01*
X65541386Y-69763274D01*
X65534528Y-69749793D01*
X65515302Y-69718770D01*
X65485728Y-69673289D01*
X65447827Y-69616432D01*
X65403620Y-69551283D01*
X65377921Y-69513862D01*
X65331093Y-69445247D01*
X65289501Y-69382952D01*
X65255175Y-69330129D01*
X65230143Y-69289927D01*
X65216435Y-69265500D01*
X65214456Y-69260024D01*
X65222966Y-69247278D01*
X65246493Y-69220063D01*
X65282032Y-69181428D01*
X65326577Y-69134423D01*
X65377123Y-69082095D01*
X65430664Y-69027495D01*
X65484195Y-68973670D01*
X65534711Y-68923670D01*
X65579206Y-68880543D01*
X65614675Y-68847339D01*
X65638113Y-68827106D01*
X65645954Y-68822278D01*
X65658720Y-68829067D01*
X65689256Y-68848142D01*
X65734590Y-68877561D01*
X65791756Y-68915381D01*
X65857784Y-68959661D01*
X65907590Y-68993395D01*
X66159236Y-69164512D01*
X66368999Y-69078041D01*
X66578763Y-68991570D01*
X66635611Y-68690018D01*
X66692460Y-68388466D01*
X67320115Y-68388466D01*
X67376964Y-68690018D01*
X67376964Y-68690018D01*
G37*
X67376964Y-68690018D02*
X67433812Y-68991570D01*
X67853338Y-69164512D01*
X68104984Y-68993395D01*
X68175458Y-68945750D01*
X68239163Y-68903210D01*
X68293126Y-68867715D01*
X68334373Y-68841210D01*
X68359934Y-68825636D01*
X68366895Y-68822278D01*
X68379435Y-68830914D01*
X68406231Y-68854792D01*
X68444280Y-68890859D01*
X68490579Y-68936067D01*
X68542123Y-68987364D01*
X68595909Y-69041701D01*
X68648935Y-69096028D01*
X68698195Y-69147295D01*
X68740687Y-69192451D01*
X68773407Y-69228446D01*
X68793351Y-69252230D01*
X68798119Y-69260190D01*
X68791257Y-69274865D01*
X68772020Y-69307014D01*
X68742430Y-69353492D01*
X68704510Y-69411156D01*
X68660282Y-69476860D01*
X68634654Y-69514336D01*
X68587941Y-69582768D01*
X68546432Y-69644520D01*
X68512140Y-69696519D01*
X68487080Y-69735692D01*
X68473264Y-69758965D01*
X68471188Y-69763855D01*
X68475895Y-69777755D01*
X68488723Y-69810150D01*
X68507738Y-69856485D01*
X68531003Y-69912206D01*
X68556584Y-69972758D01*
X68582545Y-70033586D01*
X68606950Y-70090136D01*
X68627863Y-70137852D01*
X68643349Y-70172181D01*
X68651472Y-70188568D01*
X68651952Y-70189212D01*
X68664707Y-70192341D01*
X68698677Y-70199321D01*
X68750340Y-70209467D01*
X68816176Y-70222092D01*
X68892664Y-70236509D01*
X68937290Y-70244823D01*
X69019021Y-70260384D01*
X69092843Y-70275192D01*
X69155021Y-70288436D01*
X69201822Y-70299305D01*
X69229509Y-70306989D01*
X69235074Y-70309427D01*
X69240526Y-70325930D01*
X69244924Y-70363200D01*
X69248272Y-70416880D01*
X69250574Y-70482612D01*
X69251832Y-70556037D01*
X69252048Y-70632796D01*
X69251227Y-70708532D01*
X69249371Y-70778886D01*
X69246482Y-70839500D01*
X69242565Y-70886016D01*
X69237622Y-70914075D01*
X69234657Y-70919916D01*
X69216934Y-70926917D01*
X69179381Y-70936927D01*
X69126964Y-70948769D01*
X69064652Y-70961267D01*
X69042900Y-70965310D01*
X68938024Y-70984520D01*
X68855180Y-70999991D01*
X68791630Y-71012337D01*
X68744637Y-71022173D01*
X68711463Y-71030114D01*
X68689371Y-71036776D01*
X68675624Y-71042773D01*
X68667484Y-71048719D01*
X68666345Y-71049894D01*
X68654977Y-71068826D01*
X68637635Y-71105669D01*
X68616050Y-71155913D01*
X68591954Y-71215046D01*
X68567079Y-71278556D01*
X68543157Y-71341932D01*
X68521919Y-71400662D01*
X68505097Y-71450235D01*
X68494422Y-71486139D01*
X68491627Y-71503862D01*
X68491860Y-71504483D01*
X68501331Y-71518970D01*
X68522818Y-71550844D01*
X68554063Y-71596789D01*
X68592807Y-71653485D01*
X68636793Y-71717617D01*
X68649319Y-71735842D01*
X68693984Y-71801914D01*
X68733288Y-71862200D01*
X68765088Y-71913235D01*
X68787245Y-71951560D01*
X68797617Y-71973711D01*
X68798119Y-71976432D01*
X68789405Y-71990736D01*
X68765325Y-72019072D01*
X68728976Y-72058396D01*
X68683453Y-72105661D01*
X68631852Y-72157823D01*
X68577267Y-72211835D01*
X68522794Y-72264653D01*
X68471529Y-72313231D01*
X68426567Y-72354523D01*
X68391004Y-72385485D01*
X68367935Y-72403070D01*
X68361554Y-72405941D01*
X68346699Y-72399178D01*
X68316286Y-72380939D01*
X68275268Y-72354297D01*
X68243709Y-72332852D01*
X68186525Y-72293503D01*
X68118806Y-72247171D01*
X68050880Y-72200913D01*
X68014361Y-72176155D01*
X67890752Y-72092547D01*
X67786991Y-72148650D01*
X67739720Y-72173228D01*
X67699523Y-72192331D01*
X67672326Y-72203227D01*
X67665402Y-72204743D01*
X67657077Y-72193549D01*
X67640654Y-72161917D01*
X67617357Y-72112765D01*
X67588414Y-72049010D01*
X67555050Y-71973571D01*
X67518491Y-71889364D01*
X67479964Y-71799308D01*
X67440694Y-71706321D01*
X67401908Y-71613320D01*
X67364830Y-71523223D01*
X67330689Y-71438948D01*
X67300708Y-71363413D01*
X67276116Y-71299534D01*
X67258136Y-71250231D01*
X67247997Y-71218421D01*
X67246366Y-71207496D01*
X67259291Y-71193561D01*
X67287589Y-71170940D01*
X67325346Y-71144333D01*
X67328515Y-71142228D01*
X67426100Y-71064114D01*
X67504786Y-70972982D01*
X67563891Y-70871745D01*
X67602732Y-70763318D01*
X67620628Y-70650614D01*
X67616897Y-70536548D01*
X67590857Y-70424034D01*
X67541825Y-70315985D01*
X67527400Y-70292345D01*
X67452369Y-70196887D01*
X67363730Y-70120232D01*
X67264549Y-70062780D01*
X67157895Y-70024929D01*
X67046836Y-70007078D01*
X66934439Y-70009625D01*
X66823773Y-70032970D01*
X66717906Y-70077510D01*
X66619905Y-70143645D01*
X66589590Y-70170487D01*
X66512438Y-70254512D01*
X66456218Y-70342966D01*
X66417653Y-70442115D01*
X66396174Y-70540303D01*
X66390872Y-70650697D01*
X66408552Y-70761640D01*
X66447419Y-70869381D01*
X66505677Y-70970169D01*
X66581531Y-71060256D01*
X66673183Y-71135892D01*
X66685228Y-71143864D01*
X66723389Y-71169974D01*
X66752399Y-71192595D01*
X66766268Y-71207039D01*
X66766469Y-71207496D01*
X66763492Y-71223121D01*
X66751689Y-71258582D01*
X66732286Y-71310962D01*
X66706512Y-71377345D01*
X66675591Y-71454814D01*
X66640751Y-71540450D01*
X66603217Y-71631337D01*
X66564217Y-71724559D01*
X66524977Y-71817197D01*
X66486724Y-71906335D01*
X66450683Y-71989055D01*
X66418083Y-72062441D01*
X66390148Y-72123575D01*
X66368105Y-72169541D01*
X66353182Y-72197421D01*
X66347172Y-72204743D01*
X66328809Y-72199041D01*
X66294448Y-72183749D01*
X66250016Y-72161599D01*
X66225583Y-72148650D01*
X66121822Y-72092547D01*
X65998213Y-72176155D01*
X65935114Y-72218987D01*
X65866030Y-72266122D01*
X65801293Y-72310503D01*
X65768866Y-72332852D01*
X65723259Y-72363477D01*
X65684640Y-72387747D01*
X65658048Y-72402587D01*
X65649410Y-72405724D01*
X65636839Y-72397261D01*
X65609016Y-72373636D01*
X65568639Y-72337302D01*
X65518405Y-72290711D01*
X65461012Y-72236317D01*
X65424714Y-72201392D01*
X65361210Y-72138996D01*
X65306327Y-72083188D01*
X65262286Y-72036354D01*
X65231305Y-72000882D01*
X65215602Y-71979161D01*
X65214095Y-71974752D01*
X65221086Y-71957985D01*
X65240406Y-71924082D01*
X65269909Y-71876476D01*
X65307455Y-71818599D01*
X65350900Y-71753884D01*
X65363255Y-71735842D01*
X65408273Y-71670267D01*
X65448660Y-71611228D01*
X65482160Y-71562042D01*
X65506514Y-71526028D01*
X65519464Y-71506502D01*
X65520715Y-71504483D01*
X65518844Y-71488922D01*
X65508913Y-71454709D01*
X65492653Y-71406355D01*
X65471795Y-71348371D01*
X65448073Y-71285270D01*
X65423216Y-71221563D01*
X65398958Y-71161761D01*
X65377029Y-71110376D01*
X65359162Y-71071919D01*
X65347087Y-71050902D01*
X65346229Y-71049894D01*
X65338846Y-71043888D01*
X65326375Y-71037948D01*
X65306080Y-71031460D01*
X65275222Y-71023809D01*
X65231066Y-71014380D01*
X65170874Y-71002559D01*
X65091907Y-70987729D01*
X64991430Y-70969277D01*
X64969675Y-70965310D01*
X64905198Y-70952853D01*
X64848989Y-70940666D01*
X64806013Y-70929926D01*
X64781240Y-70921809D01*
X64777918Y-70919916D01*
X64772444Y-70903138D01*
X64767994Y-70865645D01*
X64764572Y-70811794D01*
X64762181Y-70745944D01*
X64760823Y-70672453D01*
X64760501Y-70595680D01*
X64761219Y-70519983D01*
X64762979Y-70449720D01*
X64765784Y-70389250D01*
X64769638Y-70342930D01*
X64774543Y-70315119D01*
X64777500Y-70309427D01*
X64793963Y-70303686D01*
X64831449Y-70294345D01*
X64886225Y-70282215D01*
X64954555Y-70268107D01*
X65032706Y-70252830D01*
X65075284Y-70244823D01*
X65156071Y-70229721D01*
X65228113Y-70216040D01*
X65287889Y-70204467D01*
X65331879Y-70195687D01*
X65356561Y-70190387D01*
X65360623Y-70189212D01*
X65367489Y-70175965D01*
X65382002Y-70144057D01*
X65402229Y-70098047D01*
X65426234Y-70042492D01*
X65452082Y-69981953D01*
X65477840Y-69920986D01*
X65501573Y-69864151D01*
X65521346Y-69816006D01*
X65535224Y-69781110D01*
X65541274Y-69764021D01*
X65541386Y-69763274D01*
X65534528Y-69749793D01*
X65515302Y-69718770D01*
X65485728Y-69673289D01*
X65447827Y-69616432D01*
X65403620Y-69551283D01*
X65377921Y-69513862D01*
X65331093Y-69445247D01*
X65289501Y-69382952D01*
X65255175Y-69330129D01*
X65230143Y-69289927D01*
X65216435Y-69265500D01*
X65214456Y-69260024D01*
X65222966Y-69247278D01*
X65246493Y-69220063D01*
X65282032Y-69181428D01*
X65326577Y-69134423D01*
X65377123Y-69082095D01*
X65430664Y-69027495D01*
X65484195Y-68973670D01*
X65534711Y-68923670D01*
X65579206Y-68880543D01*
X65614675Y-68847339D01*
X65638113Y-68827106D01*
X65645954Y-68822278D01*
X65658720Y-68829067D01*
X65689256Y-68848142D01*
X65734590Y-68877561D01*
X65791756Y-68915381D01*
X65857784Y-68959661D01*
X65907590Y-68993395D01*
X66159236Y-69164512D01*
X66368999Y-69078041D01*
X66578763Y-68991570D01*
X66635611Y-68690018D01*
X66692460Y-68388466D01*
X67320115Y-68388466D01*
X67376964Y-68690018D01*
G36*
X68799460Y-72858030D02*
G01*
X68842711Y-72871245D01*
X68870558Y-72887941D01*
X68879629Y-72901145D01*
X68877132Y-72916797D01*
X68860931Y-72941385D01*
X68847232Y-72958800D01*
X68818992Y-72990283D01*
X68797775Y-73003529D01*
X68779688Y-73002664D01*
X68726035Y-72989010D01*
X68686630Y-72989630D01*
X68654632Y-73005104D01*
X68643890Y-73014161D01*
X68609505Y-73046027D01*
X68609505Y-73462179D01*
X68471188Y-73462179D01*
X68471188Y-72858614D01*
X68540347Y-72858614D01*
X68581869Y-72860256D01*
X68603291Y-72866087D01*
X68609502Y-72877461D01*
X68609505Y-72877798D01*
X68612439Y-72889713D01*
X68625704Y-72888159D01*
X68644084Y-72879563D01*
X68682046Y-72863568D01*
X68712872Y-72853945D01*
X68752536Y-72851478D01*
X68799460Y-72858030D01*
X68799460Y-72858030D01*
G37*
X68799460Y-72858030D02*
X68842711Y-72871245D01*
X68870558Y-72887941D01*
X68879629Y-72901145D01*
X68877132Y-72916797D01*
X68860931Y-72941385D01*
X68847232Y-72958800D01*
X68818992Y-72990283D01*
X68797775Y-73003529D01*
X68779688Y-73002664D01*
X68726035Y-72989010D01*
X68686630Y-72989630D01*
X68654632Y-73005104D01*
X68643890Y-73014161D01*
X68609505Y-73046027D01*
X68609505Y-73462179D01*
X68471188Y-73462179D01*
X68471188Y-72858614D01*
X68540347Y-72858614D01*
X68581869Y-72860256D01*
X68603291Y-72866087D01*
X68609502Y-72877461D01*
X68609505Y-72877798D01*
X68612439Y-72889713D01*
X68625704Y-72888159D01*
X68644084Y-72879563D01*
X68682046Y-72863568D01*
X68712872Y-72853945D01*
X68752536Y-72851478D01*
X68799460Y-72858030D01*
G36*
X66245988Y-72869002D02*
G01*
X66277283Y-72883950D01*
X66307591Y-72905541D01*
X66330682Y-72930391D01*
X66347500Y-72962087D01*
X66358994Y-73004214D01*
X66366109Y-73060358D01*
X66369793Y-73134106D01*
X66370992Y-73229044D01*
X66371011Y-73238985D01*
X66371287Y-73462179D01*
X66232970Y-73462179D01*
X66232970Y-73256418D01*
X66232872Y-73180189D01*
X66232191Y-73124939D01*
X66230349Y-73086501D01*
X66226767Y-73060706D01*
X66220868Y-73043384D01*
X66212073Y-73030368D01*
X66199820Y-73017507D01*
X66156953Y-72989873D01*
X66110157Y-72984745D01*
X66065576Y-73002217D01*
X66050072Y-73015221D01*
X66038690Y-73027447D01*
X66030519Y-73040540D01*
X66025026Y-73058615D01*
X66021680Y-73085787D01*
X66019949Y-73126170D01*
X66019303Y-73183879D01*
X66019208Y-73254132D01*
X66019208Y-73462179D01*
X65880891Y-73462179D01*
X65880891Y-72858614D01*
X65950050Y-72858614D01*
X65991572Y-72860256D01*
X66012994Y-72866087D01*
X66019205Y-72877461D01*
X66019208Y-72877798D01*
X66022090Y-72888938D01*
X66034801Y-72887674D01*
X66060074Y-72875434D01*
X66117395Y-72857424D01*
X66182963Y-72855421D01*
X66245988Y-72869002D01*
X66245988Y-72869002D01*
G37*
X66245988Y-72869002D02*
X66277283Y-72883950D01*
X66307591Y-72905541D01*
X66330682Y-72930391D01*
X66347500Y-72962087D01*
X66358994Y-73004214D01*
X66366109Y-73060358D01*
X66369793Y-73134106D01*
X66370992Y-73229044D01*
X66371011Y-73238985D01*
X66371287Y-73462179D01*
X66232970Y-73462179D01*
X66232970Y-73256418D01*
X66232872Y-73180189D01*
X66232191Y-73124939D01*
X66230349Y-73086501D01*
X66226767Y-73060706D01*
X66220868Y-73043384D01*
X66212073Y-73030368D01*
X66199820Y-73017507D01*
X66156953Y-72989873D01*
X66110157Y-72984745D01*
X66065576Y-73002217D01*
X66050072Y-73015221D01*
X66038690Y-73027447D01*
X66030519Y-73040540D01*
X66025026Y-73058615D01*
X66021680Y-73085787D01*
X66019949Y-73126170D01*
X66019303Y-73183879D01*
X66019208Y-73254132D01*
X66019208Y-73462179D01*
X65880891Y-73462179D01*
X65880891Y-72858614D01*
X65950050Y-72858614D01*
X65991572Y-72860256D01*
X66012994Y-72866087D01*
X66019205Y-72877461D01*
X66019208Y-72877798D01*
X66022090Y-72888938D01*
X66034801Y-72887674D01*
X66060074Y-72875434D01*
X66117395Y-72857424D01*
X66182963Y-72855421D01*
X66245988Y-72869002D01*
G36*
X69677898Y-72856457D02*
G01*
X69710096Y-72864279D01*
X69771825Y-72892921D01*
X69824610Y-72936667D01*
X69861141Y-72989117D01*
X69866160Y-73000893D01*
X69873045Y-73031740D01*
X69877864Y-73077371D01*
X69879505Y-73123492D01*
X69879505Y-73210693D01*
X69697178Y-73210693D01*
X69621979Y-73210978D01*
X69569003Y-73212704D01*
X69535325Y-73217181D01*
X69518020Y-73225720D01*
X69514163Y-73239630D01*
X69520829Y-73260222D01*
X69532770Y-73284315D01*
X69566080Y-73324525D01*
X69612368Y-73344558D01*
X69668944Y-73343905D01*
X69733031Y-73322101D01*
X69788417Y-73295193D01*
X69834375Y-73331532D01*
X69880333Y-73367872D01*
X69837096Y-73407819D01*
X69779374Y-73445563D01*
X69708386Y-73468320D01*
X69632029Y-73474688D01*
X69558199Y-73463268D01*
X69546287Y-73459393D01*
X69481399Y-73425506D01*
X69433130Y-73374986D01*
X69400465Y-73306325D01*
X69382385Y-73218014D01*
X69382175Y-73216121D01*
X69380556Y-73119878D01*
X69387100Y-73085542D01*
X69514852Y-73085542D01*
X69526584Y-73090822D01*
X69558438Y-73094867D01*
X69605397Y-73097176D01*
X69635154Y-73097525D01*
X69690648Y-73097306D01*
X69725346Y-73095916D01*
X69743601Y-73092251D01*
X69749766Y-73085210D01*
X69748195Y-73073690D01*
X69746878Y-73069233D01*
X69724382Y-73027355D01*
X69689003Y-72993604D01*
X69657780Y-72978773D01*
X69616301Y-72979668D01*
X69574269Y-72998164D01*
X69539012Y-73028786D01*
X69517854Y-73066062D01*
X69514852Y-73085542D01*
X69387100Y-73085542D01*
X69396690Y-73035229D01*
X69428698Y-72964191D01*
X69474701Y-72908779D01*
X69532821Y-72871009D01*
X69601180Y-72852896D01*
X69677898Y-72856457D01*
X69677898Y-72856457D01*
G37*
X69677898Y-72856457D02*
X69710096Y-72864279D01*
X69771825Y-72892921D01*
X69824610Y-72936667D01*
X69861141Y-72989117D01*
X69866160Y-73000893D01*
X69873045Y-73031740D01*
X69877864Y-73077371D01*
X69879505Y-73123492D01*
X69879505Y-73210693D01*
X69697178Y-73210693D01*
X69621979Y-73210978D01*
X69569003Y-73212704D01*
X69535325Y-73217181D01*
X69518020Y-73225720D01*
X69514163Y-73239630D01*
X69520829Y-73260222D01*
X69532770Y-73284315D01*
X69566080Y-73324525D01*
X69612368Y-73344558D01*
X69668944Y-73343905D01*
X69733031Y-73322101D01*
X69788417Y-73295193D01*
X69834375Y-73331532D01*
X69880333Y-73367872D01*
X69837096Y-73407819D01*
X69779374Y-73445563D01*
X69708386Y-73468320D01*
X69632029Y-73474688D01*
X69558199Y-73463268D01*
X69546287Y-73459393D01*
X69481399Y-73425506D01*
X69433130Y-73374986D01*
X69400465Y-73306325D01*
X69382385Y-73218014D01*
X69382175Y-73216121D01*
X69380556Y-73119878D01*
X69387100Y-73085542D01*
X69514852Y-73085542D01*
X69526584Y-73090822D01*
X69558438Y-73094867D01*
X69605397Y-73097176D01*
X69635154Y-73097525D01*
X69690648Y-73097306D01*
X69725346Y-73095916D01*
X69743601Y-73092251D01*
X69749766Y-73085210D01*
X69748195Y-73073690D01*
X69746878Y-73069233D01*
X69724382Y-73027355D01*
X69689003Y-72993604D01*
X69657780Y-72978773D01*
X69616301Y-72979668D01*
X69574269Y-72998164D01*
X69539012Y-73028786D01*
X69517854Y-73066062D01*
X69514852Y-73085542D01*
X69387100Y-73085542D01*
X69396690Y-73035229D01*
X69428698Y-72964191D01*
X69474701Y-72908779D01*
X69532821Y-72871009D01*
X69601180Y-72852896D01*
X69677898Y-72856457D01*
G36*
X69217226Y-72863880D02*
G01*
X69290080Y-72894830D01*
X69313027Y-72909895D01*
X69342354Y-72933048D01*
X69360764Y-72951253D01*
X69363961Y-72957183D01*
X69354935Y-72970340D01*
X69331837Y-72992667D01*
X69313344Y-73008250D01*
X69262728Y-73048926D01*
X69222760Y-73015295D01*
X69191874Y-72993584D01*
X69161759Y-72986090D01*
X69127292Y-72987920D01*
X69072561Y-73001528D01*
X69034886Y-73029772D01*
X69011991Y-73075433D01*
X69001597Y-73141289D01*
X69001595Y-73141331D01*
X69002494Y-73214939D01*
X69016463Y-73268946D01*
X69044328Y-73305716D01*
X69063325Y-73318168D01*
X69113776Y-73333673D01*
X69167663Y-73333683D01*
X69214546Y-73318638D01*
X69225644Y-73311287D01*
X69253476Y-73292511D01*
X69275236Y-73289434D01*
X69298704Y-73303409D01*
X69324649Y-73328510D01*
X69365716Y-73370880D01*
X69320121Y-73408464D01*
X69249674Y-73450882D01*
X69170233Y-73471785D01*
X69087215Y-73470272D01*
X69032694Y-73456411D01*
X68968970Y-73422135D01*
X68918005Y-73368212D01*
X68894851Y-73330149D01*
X68876099Y-73275536D01*
X68866715Y-73206369D01*
X68866643Y-73131407D01*
X68875824Y-73059409D01*
X68894199Y-72999137D01*
X68897093Y-72992958D01*
X68939952Y-72932351D01*
X68997979Y-72888224D01*
X69066591Y-72861493D01*
X69141201Y-72853073D01*
X69217226Y-72863880D01*
X69217226Y-72863880D01*
G37*
X69217226Y-72863880D02*
X69290080Y-72894830D01*
X69313027Y-72909895D01*
X69342354Y-72933048D01*
X69360764Y-72951253D01*
X69363961Y-72957183D01*
X69354935Y-72970340D01*
X69331837Y-72992667D01*
X69313344Y-73008250D01*
X69262728Y-73048926D01*
X69222760Y-73015295D01*
X69191874Y-72993584D01*
X69161759Y-72986090D01*
X69127292Y-72987920D01*
X69072561Y-73001528D01*
X69034886Y-73029772D01*
X69011991Y-73075433D01*
X69001597Y-73141289D01*
X69001595Y-73141331D01*
X69002494Y-73214939D01*
X69016463Y-73268946D01*
X69044328Y-73305716D01*
X69063325Y-73318168D01*
X69113776Y-73333673D01*
X69167663Y-73333683D01*
X69214546Y-73318638D01*
X69225644Y-73311287D01*
X69253476Y-73292511D01*
X69275236Y-73289434D01*
X69298704Y-73303409D01*
X69324649Y-73328510D01*
X69365716Y-73370880D01*
X69320121Y-73408464D01*
X69249674Y-73450882D01*
X69170233Y-73471785D01*
X69087215Y-73470272D01*
X69032694Y-73456411D01*
X68968970Y-73422135D01*
X68918005Y-73368212D01*
X68894851Y-73330149D01*
X68876099Y-73275536D01*
X68866715Y-73206369D01*
X68866643Y-73131407D01*
X68875824Y-73059409D01*
X68894199Y-72999137D01*
X68897093Y-72992958D01*
X68939952Y-72932351D01*
X68997979Y-72888224D01*
X69066591Y-72861493D01*
X69141201Y-72853073D01*
X69217226Y-72863880D01*
G36*
X67993367Y-73054342D02*
G01*
X67994555Y-73146563D01*
X67998897Y-73216610D01*
X68007558Y-73267381D01*
X68021704Y-73301772D01*
X68042500Y-73322679D01*
X68071110Y-73333000D01*
X68106535Y-73335636D01*
X68143636Y-73332682D01*
X68171818Y-73321889D01*
X68192243Y-73300360D01*
X68206079Y-73265199D01*
X68214491Y-73213510D01*
X68218643Y-73142394D01*
X68219703Y-73054342D01*
X68219703Y-72858614D01*
X68358020Y-72858614D01*
X68358020Y-73462179D01*
X68288862Y-73462179D01*
X68247170Y-73460489D01*
X68225701Y-73454556D01*
X68219703Y-73443293D01*
X68216091Y-73433261D01*
X68201714Y-73435383D01*
X68172736Y-73449580D01*
X68106319Y-73471480D01*
X68035875Y-73469928D01*
X67968377Y-73446147D01*
X67936233Y-73427362D01*
X67911715Y-73407022D01*
X67893804Y-73381573D01*
X67881479Y-73347458D01*
X67873723Y-73301121D01*
X67869516Y-73239007D01*
X67867840Y-73157561D01*
X67867624Y-73094578D01*
X67867624Y-72858614D01*
X67993367Y-72858614D01*
X67993367Y-73054342D01*
X67993367Y-73054342D01*
G37*
X67993367Y-73054342D02*
X67994555Y-73146563D01*
X67998897Y-73216610D01*
X68007558Y-73267381D01*
X68021704Y-73301772D01*
X68042500Y-73322679D01*
X68071110Y-73333000D01*
X68106535Y-73335636D01*
X68143636Y-73332682D01*
X68171818Y-73321889D01*
X68192243Y-73300360D01*
X68206079Y-73265199D01*
X68214491Y-73213510D01*
X68218643Y-73142394D01*
X68219703Y-73054342D01*
X68219703Y-72858614D01*
X68358020Y-72858614D01*
X68358020Y-73462179D01*
X68288862Y-73462179D01*
X68247170Y-73460489D01*
X68225701Y-73454556D01*
X68219703Y-73443293D01*
X68216091Y-73433261D01*
X68201714Y-73435383D01*
X68172736Y-73449580D01*
X68106319Y-73471480D01*
X68035875Y-73469928D01*
X67968377Y-73446147D01*
X67936233Y-73427362D01*
X67911715Y-73407022D01*
X67893804Y-73381573D01*
X67881479Y-73347458D01*
X67873723Y-73301121D01*
X67869516Y-73239007D01*
X67867840Y-73157561D01*
X67867624Y-73094578D01*
X67867624Y-72858614D01*
X67993367Y-72858614D01*
X67993367Y-73054342D01*
G36*
X67610762Y-72866055D02*
G01*
X67674363Y-72900692D01*
X67724123Y-72955372D01*
X67747568Y-72999842D01*
X67757634Y-73039121D01*
X67764156Y-73095116D01*
X67766951Y-73159621D01*
X67765836Y-73224429D01*
X67760626Y-73281334D01*
X67754541Y-73311727D01*
X67734014Y-73353306D01*
X67698463Y-73397468D01*
X67655619Y-73436087D01*
X67613211Y-73461034D01*
X67612177Y-73461430D01*
X67559553Y-73472331D01*
X67497188Y-73472601D01*
X67437924Y-73462676D01*
X67415040Y-73454722D01*
X67356102Y-73421300D01*
X67313890Y-73377511D01*
X67286156Y-73319538D01*
X67270651Y-73243565D01*
X67267143Y-73203771D01*
X67267590Y-73153766D01*
X67402376Y-73153766D01*
X67406917Y-73226732D01*
X67419986Y-73282334D01*
X67440756Y-73317861D01*
X67455552Y-73328020D01*
X67493464Y-73335104D01*
X67538527Y-73333007D01*
X67577487Y-73322812D01*
X67587704Y-73317204D01*
X67614659Y-73284538D01*
X67632451Y-73234545D01*
X67640024Y-73173705D01*
X67636325Y-73108497D01*
X67628057Y-73069253D01*
X67604320Y-73023805D01*
X67566849Y-72995396D01*
X67521720Y-72985573D01*
X67475011Y-72995887D01*
X67439132Y-73021112D01*
X67420277Y-73041925D01*
X67409272Y-73062439D01*
X67404026Y-73090203D01*
X67402449Y-73132762D01*
X67402376Y-73153766D01*
X67267590Y-73153766D01*
X67268094Y-73097580D01*
X67285388Y-73010501D01*
X67319029Y-72942530D01*
X67369018Y-72893664D01*
X67435356Y-72863899D01*
X67449601Y-72860448D01*
X67535210Y-72852345D01*
X67610762Y-72866055D01*
X67610762Y-72866055D01*
G37*
X67610762Y-72866055D02*
X67674363Y-72900692D01*
X67724123Y-72955372D01*
X67747568Y-72999842D01*
X67757634Y-73039121D01*
X67764156Y-73095116D01*
X67766951Y-73159621D01*
X67765836Y-73224429D01*
X67760626Y-73281334D01*
X67754541Y-73311727D01*
X67734014Y-73353306D01*
X67698463Y-73397468D01*
X67655619Y-73436087D01*
X67613211Y-73461034D01*
X67612177Y-73461430D01*
X67559553Y-73472331D01*
X67497188Y-73472601D01*
X67437924Y-73462676D01*
X67415040Y-73454722D01*
X67356102Y-73421300D01*
X67313890Y-73377511D01*
X67286156Y-73319538D01*
X67270651Y-73243565D01*
X67267143Y-73203771D01*
X67267590Y-73153766D01*
X67402376Y-73153766D01*
X67406917Y-73226732D01*
X67419986Y-73282334D01*
X67440756Y-73317861D01*
X67455552Y-73328020D01*
X67493464Y-73335104D01*
X67538527Y-73333007D01*
X67577487Y-73322812D01*
X67587704Y-73317204D01*
X67614659Y-73284538D01*
X67632451Y-73234545D01*
X67640024Y-73173705D01*
X67636325Y-73108497D01*
X67628057Y-73069253D01*
X67604320Y-73023805D01*
X67566849Y-72995396D01*
X67521720Y-72985573D01*
X67475011Y-72995887D01*
X67439132Y-73021112D01*
X67420277Y-73041925D01*
X67409272Y-73062439D01*
X67404026Y-73090203D01*
X67402449Y-73132762D01*
X67402376Y-73153766D01*
X67267590Y-73153766D01*
X67268094Y-73097580D01*
X67285388Y-73010501D01*
X67319029Y-72942530D01*
X67369018Y-72893664D01*
X67435356Y-72863899D01*
X67449601Y-72860448D01*
X67535210Y-72852345D01*
X67610762Y-72866055D01*
G36*
X67014017Y-72856452D02*
G01*
X67061634Y-72865482D01*
X67111034Y-72884370D01*
X67116312Y-72886777D01*
X67153774Y-72906476D01*
X67179717Y-72924781D01*
X67188103Y-72936508D01*
X67180117Y-72955632D01*
X67160720Y-72983850D01*
X67152110Y-72994384D01*
X67116628Y-73035847D01*
X67070885Y-73008858D01*
X67027350Y-72990878D01*
X66977050Y-72981267D01*
X66928812Y-72980660D01*
X66891467Y-72989691D01*
X66882505Y-72995327D01*
X66865437Y-73021171D01*
X66863363Y-73050941D01*
X66876134Y-73074197D01*
X66883688Y-73078708D01*
X66906325Y-73084309D01*
X66946115Y-73090892D01*
X66995166Y-73097183D01*
X67004215Y-73098170D01*
X67082996Y-73111798D01*
X67140136Y-73134946D01*
X67178030Y-73169752D01*
X67199079Y-73218354D01*
X67205635Y-73277718D01*
X67196577Y-73345198D01*
X67167164Y-73398188D01*
X67117278Y-73436783D01*
X67046800Y-73461081D01*
X66968565Y-73470667D01*
X66904766Y-73470552D01*
X66853016Y-73461845D01*
X66817673Y-73449825D01*
X66773017Y-73428880D01*
X66731747Y-73404574D01*
X66717079Y-73393876D01*
X66679357Y-73363084D01*
X66724852Y-73317049D01*
X66770347Y-73271013D01*
X66822072Y-73305243D01*
X66873952Y-73330952D01*
X66929351Y-73344399D01*
X66982605Y-73345818D01*
X67028049Y-73335443D01*
X67060016Y-73313507D01*
X67070338Y-73294998D01*
X67068789Y-73265314D01*
X67043140Y-73242615D01*
X66993460Y-73226940D01*
X66939031Y-73219695D01*
X66855264Y-73205873D01*
X66793033Y-73179796D01*
X66751507Y-73140699D01*
X66729853Y-73087820D01*
X66726853Y-73025126D01*
X66741671Y-72959642D01*
X66775454Y-72910144D01*
X66828505Y-72876408D01*
X66901126Y-72858207D01*
X66954928Y-72854639D01*
X67014017Y-72856452D01*
X67014017Y-72856452D01*
G37*
X67014017Y-72856452D02*
X67061634Y-72865482D01*
X67111034Y-72884370D01*
X67116312Y-72886777D01*
X67153774Y-72906476D01*
X67179717Y-72924781D01*
X67188103Y-72936508D01*
X67180117Y-72955632D01*
X67160720Y-72983850D01*
X67152110Y-72994384D01*
X67116628Y-73035847D01*
X67070885Y-73008858D01*
X67027350Y-72990878D01*
X66977050Y-72981267D01*
X66928812Y-72980660D01*
X66891467Y-72989691D01*
X66882505Y-72995327D01*
X66865437Y-73021171D01*
X66863363Y-73050941D01*
X66876134Y-73074197D01*
X66883688Y-73078708D01*
X66906325Y-73084309D01*
X66946115Y-73090892D01*
X66995166Y-73097183D01*
X67004215Y-73098170D01*
X67082996Y-73111798D01*
X67140136Y-73134946D01*
X67178030Y-73169752D01*
X67199079Y-73218354D01*
X67205635Y-73277718D01*
X67196577Y-73345198D01*
X67167164Y-73398188D01*
X67117278Y-73436783D01*
X67046800Y-73461081D01*
X66968565Y-73470667D01*
X66904766Y-73470552D01*
X66853016Y-73461845D01*
X66817673Y-73449825D01*
X66773017Y-73428880D01*
X66731747Y-73404574D01*
X66717079Y-73393876D01*
X66679357Y-73363084D01*
X66724852Y-73317049D01*
X66770347Y-73271013D01*
X66822072Y-73305243D01*
X66873952Y-73330952D01*
X66929351Y-73344399D01*
X66982605Y-73345818D01*
X67028049Y-73335443D01*
X67060016Y-73313507D01*
X67070338Y-73294998D01*
X67068789Y-73265314D01*
X67043140Y-73242615D01*
X66993460Y-73226940D01*
X66939031Y-73219695D01*
X66855264Y-73205873D01*
X66793033Y-73179796D01*
X66751507Y-73140699D01*
X66729853Y-73087820D01*
X66726853Y-73025126D01*
X66741671Y-72959642D01*
X66775454Y-72910144D01*
X66828505Y-72876408D01*
X66901126Y-72858207D01*
X66954928Y-72854639D01*
X67014017Y-72856452D01*
G36*
X65643301Y-72872614D02*
G01*
X65655832Y-72878514D01*
X65699201Y-72910283D01*
X65740210Y-72956646D01*
X65770832Y-73007696D01*
X65779541Y-73031166D01*
X65787488Y-73073091D01*
X65792226Y-73123757D01*
X65792801Y-73144679D01*
X65792871Y-73210693D01*
X65412917Y-73210693D01*
X65421017Y-73245273D01*
X65440896Y-73286170D01*
X65475653Y-73321514D01*
X65517002Y-73344282D01*
X65543351Y-73349010D01*
X65579084Y-73343273D01*
X65621718Y-73328882D01*
X65636201Y-73322262D01*
X65689760Y-73295513D01*
X65735467Y-73330376D01*
X65761842Y-73353955D01*
X65775876Y-73373417D01*
X65776586Y-73379129D01*
X65764049Y-73392973D01*
X65736572Y-73414012D01*
X65711634Y-73430425D01*
X65644336Y-73459930D01*
X65568890Y-73473284D01*
X65494112Y-73469812D01*
X65434505Y-73451663D01*
X65373059Y-73412784D01*
X65329392Y-73361595D01*
X65302074Y-73295367D01*
X65289678Y-73211371D01*
X65288579Y-73172936D01*
X65292978Y-73084861D01*
X65293518Y-73082299D01*
X65419418Y-73082299D01*
X65422885Y-73090558D01*
X65437137Y-73095113D01*
X65466530Y-73097065D01*
X65515425Y-73097517D01*
X65534252Y-73097525D01*
X65591533Y-73096843D01*
X65627859Y-73094364D01*
X65647396Y-73089443D01*
X65654310Y-73081434D01*
X65654555Y-73078862D01*
X65646664Y-73058423D01*
X65626915Y-73029789D01*
X65618425Y-73019763D01*
X65586906Y-72991408D01*
X65554051Y-72980259D01*
X65536349Y-72979327D01*
X65488461Y-72990981D01*
X65448301Y-73022285D01*
X65422827Y-73067752D01*
X65422375Y-73069233D01*
X65419418Y-73082299D01*
X65293518Y-73082299D01*
X65307608Y-73015510D01*
X65333962Y-72960025D01*
X65366193Y-72920639D01*
X65425783Y-72877931D01*
X65495832Y-72855109D01*
X65570339Y-72853046D01*
X65643301Y-72872614D01*
X65643301Y-72872614D01*
G37*
X65643301Y-72872614D02*
X65655832Y-72878514D01*
X65699201Y-72910283D01*
X65740210Y-72956646D01*
X65770832Y-73007696D01*
X65779541Y-73031166D01*
X65787488Y-73073091D01*
X65792226Y-73123757D01*
X65792801Y-73144679D01*
X65792871Y-73210693D01*
X65412917Y-73210693D01*
X65421017Y-73245273D01*
X65440896Y-73286170D01*
X65475653Y-73321514D01*
X65517002Y-73344282D01*
X65543351Y-73349010D01*
X65579084Y-73343273D01*
X65621718Y-73328882D01*
X65636201Y-73322262D01*
X65689760Y-73295513D01*
X65735467Y-73330376D01*
X65761842Y-73353955D01*
X65775876Y-73373417D01*
X65776586Y-73379129D01*
X65764049Y-73392973D01*
X65736572Y-73414012D01*
X65711634Y-73430425D01*
X65644336Y-73459930D01*
X65568890Y-73473284D01*
X65494112Y-73469812D01*
X65434505Y-73451663D01*
X65373059Y-73412784D01*
X65329392Y-73361595D01*
X65302074Y-73295367D01*
X65289678Y-73211371D01*
X65288579Y-73172936D01*
X65292978Y-73084861D01*
X65293518Y-73082299D01*
X65419418Y-73082299D01*
X65422885Y-73090558D01*
X65437137Y-73095113D01*
X65466530Y-73097065D01*
X65515425Y-73097517D01*
X65534252Y-73097525D01*
X65591533Y-73096843D01*
X65627859Y-73094364D01*
X65647396Y-73089443D01*
X65654310Y-73081434D01*
X65654555Y-73078862D01*
X65646664Y-73058423D01*
X65626915Y-73029789D01*
X65618425Y-73019763D01*
X65586906Y-72991408D01*
X65554051Y-72980259D01*
X65536349Y-72979327D01*
X65488461Y-72990981D01*
X65448301Y-73022285D01*
X65422827Y-73067752D01*
X65422375Y-73069233D01*
X65419418Y-73082299D01*
X65293518Y-73082299D01*
X65307608Y-73015510D01*
X65333962Y-72960025D01*
X65366193Y-72920639D01*
X65425783Y-72877931D01*
X65495832Y-72855109D01*
X65570339Y-72853046D01*
X65643301Y-72872614D01*
G36*
X64461739Y-72865148D02*
G01*
X64527521Y-72894231D01*
X64577460Y-72942793D01*
X64611626Y-73010908D01*
X64630093Y-73098651D01*
X64631417Y-73112351D01*
X64632454Y-73208939D01*
X64619007Y-73293602D01*
X64591892Y-73362221D01*
X64577373Y-73384294D01*
X64526799Y-73431011D01*
X64462391Y-73461268D01*
X64390334Y-73473824D01*
X64316815Y-73467439D01*
X64260928Y-73447772D01*
X64212868Y-73414629D01*
X64173588Y-73371175D01*
X64172908Y-73370158D01*
X64156956Y-73343338D01*
X64146590Y-73316368D01*
X64140312Y-73282332D01*
X64136627Y-73234310D01*
X64135003Y-73194931D01*
X64134328Y-73159219D01*
X64260045Y-73159219D01*
X64261274Y-73194770D01*
X64265734Y-73242094D01*
X64273603Y-73272465D01*
X64287793Y-73294072D01*
X64301083Y-73306694D01*
X64348198Y-73333122D01*
X64397495Y-73336653D01*
X64443407Y-73317639D01*
X64466362Y-73296331D01*
X64482904Y-73274859D01*
X64492579Y-73254313D01*
X64496826Y-73227574D01*
X64497080Y-73187523D01*
X64495772Y-73150638D01*
X64492957Y-73097947D01*
X64488495Y-73063772D01*
X64480452Y-73041480D01*
X64466897Y-73024442D01*
X64456155Y-73014703D01*
X64411223Y-72989123D01*
X64362751Y-72987847D01*
X64322106Y-73002999D01*
X64287433Y-73034642D01*
X64266776Y-73086620D01*
X64260045Y-73159219D01*
X64134328Y-73159219D01*
X64133521Y-73116621D01*
X64136052Y-73058056D01*
X64143638Y-73014007D01*
X64157319Y-72979248D01*
X64178135Y-72948551D01*
X64185853Y-72939436D01*
X64234111Y-72894021D01*
X64285872Y-72867493D01*
X64349172Y-72856379D01*
X64380039Y-72855471D01*
X64461739Y-72865148D01*
X64461739Y-72865148D01*
G37*
X64461739Y-72865148D02*
X64527521Y-72894231D01*
X64577460Y-72942793D01*
X64611626Y-73010908D01*
X64630093Y-73098651D01*
X64631417Y-73112351D01*
X64632454Y-73208939D01*
X64619007Y-73293602D01*
X64591892Y-73362221D01*
X64577373Y-73384294D01*
X64526799Y-73431011D01*
X64462391Y-73461268D01*
X64390334Y-73473824D01*
X64316815Y-73467439D01*
X64260928Y-73447772D01*
X64212868Y-73414629D01*
X64173588Y-73371175D01*
X64172908Y-73370158D01*
X64156956Y-73343338D01*
X64146590Y-73316368D01*
X64140312Y-73282332D01*
X64136627Y-73234310D01*
X64135003Y-73194931D01*
X64134328Y-73159219D01*
X64260045Y-73159219D01*
X64261274Y-73194770D01*
X64265734Y-73242094D01*
X64273603Y-73272465D01*
X64287793Y-73294072D01*
X64301083Y-73306694D01*
X64348198Y-73333122D01*
X64397495Y-73336653D01*
X64443407Y-73317639D01*
X64466362Y-73296331D01*
X64482904Y-73274859D01*
X64492579Y-73254313D01*
X64496826Y-73227574D01*
X64497080Y-73187523D01*
X64495772Y-73150638D01*
X64492957Y-73097947D01*
X64488495Y-73063772D01*
X64480452Y-73041480D01*
X64466897Y-73024442D01*
X64456155Y-73014703D01*
X64411223Y-72989123D01*
X64362751Y-72987847D01*
X64322106Y-73002999D01*
X64287433Y-73034642D01*
X64266776Y-73086620D01*
X64260045Y-73159219D01*
X64134328Y-73159219D01*
X64133521Y-73116621D01*
X64136052Y-73058056D01*
X64143638Y-73014007D01*
X64157319Y-72979248D01*
X64178135Y-72948551D01*
X64185853Y-72939436D01*
X64234111Y-72894021D01*
X64285872Y-72867493D01*
X64349172Y-72856379D01*
X64380039Y-72855471D01*
X64461739Y-72865148D01*
G36*
X69032581Y-73804970D02*
G01*
X69092685Y-73820597D01*
X69143021Y-73852848D01*
X69167393Y-73876940D01*
X69207345Y-73933895D01*
X69230242Y-73999965D01*
X69238108Y-74081182D01*
X69238148Y-74087748D01*
X69238218Y-74153763D01*
X68858264Y-74153763D01*
X68866363Y-74188342D01*
X68880987Y-74219659D01*
X68906581Y-74252291D01*
X68911935Y-74257500D01*
X68957943Y-74285694D01*
X69010410Y-74290475D01*
X69070803Y-74271926D01*
X69081040Y-74266931D01*
X69112439Y-74251745D01*
X69133470Y-74243094D01*
X69137139Y-74242293D01*
X69149948Y-74250063D01*
X69174378Y-74269072D01*
X69186779Y-74279460D01*
X69212476Y-74303321D01*
X69220915Y-74319077D01*
X69215058Y-74333571D01*
X69211928Y-74337534D01*
X69190725Y-74354879D01*
X69155738Y-74375959D01*
X69131337Y-74388265D01*
X69062072Y-74409946D01*
X68985388Y-74416971D01*
X68912765Y-74408647D01*
X68892426Y-74402686D01*
X68829476Y-74368952D01*
X68782815Y-74317045D01*
X68752173Y-74246459D01*
X68737282Y-74156692D01*
X68735647Y-74109753D01*
X68740421Y-74041413D01*
X68860990Y-74041413D01*
X68872652Y-74046465D01*
X68903998Y-74050429D01*
X68949571Y-74052768D01*
X68980446Y-74053169D01*
X69035981Y-74052783D01*
X69071033Y-74050975D01*
X69090262Y-74046773D01*
X69098330Y-74039203D01*
X69099901Y-74028218D01*
X69089121Y-73994381D01*
X69061980Y-73960940D01*
X69026277Y-73935272D01*
X68990560Y-73924772D01*
X68942048Y-73934086D01*
X68900053Y-73961013D01*
X68870936Y-73999827D01*
X68860990Y-74041413D01*
X68740421Y-74041413D01*
X68742599Y-74010236D01*
X68764055Y-73930949D01*
X68800470Y-73871263D01*
X68852297Y-73830549D01*
X68919990Y-73808179D01*
X68956662Y-73803871D01*
X69032581Y-73804970D01*
X69032581Y-73804970D01*
G37*
X69032581Y-73804970D02*
X69092685Y-73820597D01*
X69143021Y-73852848D01*
X69167393Y-73876940D01*
X69207345Y-73933895D01*
X69230242Y-73999965D01*
X69238108Y-74081182D01*
X69238148Y-74087748D01*
X69238218Y-74153763D01*
X68858264Y-74153763D01*
X68866363Y-74188342D01*
X68880987Y-74219659D01*
X68906581Y-74252291D01*
X68911935Y-74257500D01*
X68957943Y-74285694D01*
X69010410Y-74290475D01*
X69070803Y-74271926D01*
X69081040Y-74266931D01*
X69112439Y-74251745D01*
X69133470Y-74243094D01*
X69137139Y-74242293D01*
X69149948Y-74250063D01*
X69174378Y-74269072D01*
X69186779Y-74279460D01*
X69212476Y-74303321D01*
X69220915Y-74319077D01*
X69215058Y-74333571D01*
X69211928Y-74337534D01*
X69190725Y-74354879D01*
X69155738Y-74375959D01*
X69131337Y-74388265D01*
X69062072Y-74409946D01*
X68985388Y-74416971D01*
X68912765Y-74408647D01*
X68892426Y-74402686D01*
X68829476Y-74368952D01*
X68782815Y-74317045D01*
X68752173Y-74246459D01*
X68737282Y-74156692D01*
X68735647Y-74109753D01*
X68740421Y-74041413D01*
X68860990Y-74041413D01*
X68872652Y-74046465D01*
X68903998Y-74050429D01*
X68949571Y-74052768D01*
X68980446Y-74053169D01*
X69035981Y-74052783D01*
X69071033Y-74050975D01*
X69090262Y-74046773D01*
X69098330Y-74039203D01*
X69099901Y-74028218D01*
X69089121Y-73994381D01*
X69061980Y-73960940D01*
X69026277Y-73935272D01*
X68990560Y-73924772D01*
X68942048Y-73934086D01*
X68900053Y-73961013D01*
X68870936Y-73999827D01*
X68860990Y-74041413D01*
X68740421Y-74041413D01*
X68742599Y-74010236D01*
X68764055Y-73930949D01*
X68800470Y-73871263D01*
X68852297Y-73830549D01*
X68919990Y-73808179D01*
X68956662Y-73803871D01*
X69032581Y-73804970D01*
G36*
X68635255Y-73801486D02*
G01*
X68683595Y-73811015D01*
X68711114Y-73825125D01*
X68740064Y-73848568D01*
X68698876Y-73900571D01*
X68673482Y-73932064D01*
X68656238Y-73947428D01*
X68639102Y-73949776D01*
X68614027Y-73942217D01*
X68602257Y-73937941D01*
X68554270Y-73931631D01*
X68510324Y-73945156D01*
X68478060Y-73975710D01*
X68472819Y-73985452D01*
X68467112Y-74011258D01*
X68462706Y-74058817D01*
X68459811Y-74124758D01*
X68458631Y-74205710D01*
X68458614Y-74217226D01*
X68458614Y-74417822D01*
X68320297Y-74417822D01*
X68320297Y-73801683D01*
X68389456Y-73801683D01*
X68429333Y-73802725D01*
X68450107Y-73807358D01*
X68457789Y-73817849D01*
X68458614Y-73827745D01*
X68458614Y-73853806D01*
X68491745Y-73827745D01*
X68529735Y-73809965D01*
X68580770Y-73801174D01*
X68635255Y-73801486D01*
X68635255Y-73801486D01*
G37*
X68635255Y-73801486D02*
X68683595Y-73811015D01*
X68711114Y-73825125D01*
X68740064Y-73848568D01*
X68698876Y-73900571D01*
X68673482Y-73932064D01*
X68656238Y-73947428D01*
X68639102Y-73949776D01*
X68614027Y-73942217D01*
X68602257Y-73937941D01*
X68554270Y-73931631D01*
X68510324Y-73945156D01*
X68478060Y-73975710D01*
X68472819Y-73985452D01*
X68467112Y-74011258D01*
X68462706Y-74058817D01*
X68459811Y-74124758D01*
X68458631Y-74205710D01*
X68458614Y-74217226D01*
X68458614Y-74417822D01*
X68320297Y-74417822D01*
X68320297Y-73801683D01*
X68389456Y-73801683D01*
X68429333Y-73802725D01*
X68450107Y-73807358D01*
X68457789Y-73817849D01*
X68458614Y-73827745D01*
X68458614Y-73853806D01*
X68491745Y-73827745D01*
X68529735Y-73809965D01*
X68580770Y-73801174D01*
X68635255Y-73801486D01*
G36*
X68038411Y-73805417D02*
G01*
X68091411Y-73818290D01*
X68106731Y-73825110D01*
X68136428Y-73842974D01*
X68159220Y-73863093D01*
X68176083Y-73888962D01*
X68187998Y-73924073D01*
X68195942Y-73971920D01*
X68200894Y-74035996D01*
X68203831Y-74119794D01*
X68204947Y-74175768D01*
X68209052Y-74417822D01*
X68138932Y-74417822D01*
X68096393Y-74416038D01*
X68074476Y-74409942D01*
X68068812Y-74399706D01*
X68065821Y-74388637D01*
X68052451Y-74390754D01*
X68034233Y-74399629D01*
X67988624Y-74413233D01*
X67930007Y-74416899D01*
X67868354Y-74410903D01*
X67813638Y-74395521D01*
X67808730Y-74393386D01*
X67758723Y-74358255D01*
X67725756Y-74309419D01*
X67710587Y-74252333D01*
X67711746Y-74231824D01*
X67835508Y-74231824D01*
X67846413Y-74259425D01*
X67878745Y-74279204D01*
X67930910Y-74289819D01*
X67958787Y-74291228D01*
X68005247Y-74287620D01*
X68036129Y-74273597D01*
X68043664Y-74266931D01*
X68064076Y-74230666D01*
X68068812Y-74197773D01*
X68068812Y-74153763D01*
X68007513Y-74153763D01*
X67936256Y-74157395D01*
X67886276Y-74168818D01*
X67854696Y-74188824D01*
X67847626Y-74197743D01*
X67835508Y-74231824D01*
X67711746Y-74231824D01*
X67713971Y-74192456D01*
X67736663Y-74135244D01*
X67767624Y-74096580D01*
X67786376Y-74079864D01*
X67804733Y-74068878D01*
X67828619Y-74062180D01*
X67863957Y-74058326D01*
X67916669Y-74055873D01*
X67937577Y-74055168D01*
X68068812Y-74050879D01*
X68068620Y-74011158D01*
X68063537Y-73969405D01*
X68045162Y-73944158D01*
X68008039Y-73928030D01*
X68007043Y-73927742D01*
X67954410Y-73921400D01*
X67902906Y-73929684D01*
X67864630Y-73949827D01*
X67849272Y-73959773D01*
X67832730Y-73958397D01*
X67807275Y-73943987D01*
X67792328Y-73933817D01*
X67763091Y-73912088D01*
X67744980Y-73895800D01*
X67742074Y-73891137D01*
X67754040Y-73867005D01*
X67789396Y-73838185D01*
X67804753Y-73828461D01*
X67848901Y-73811714D01*
X67908398Y-73802227D01*
X67974487Y-73800095D01*
X68038411Y-73805417D01*
X68038411Y-73805417D01*
G37*
X68038411Y-73805417D02*
X68091411Y-73818290D01*
X68106731Y-73825110D01*
X68136428Y-73842974D01*
X68159220Y-73863093D01*
X68176083Y-73888962D01*
X68187998Y-73924073D01*
X68195942Y-73971920D01*
X68200894Y-74035996D01*
X68203831Y-74119794D01*
X68204947Y-74175768D01*
X68209052Y-74417822D01*
X68138932Y-74417822D01*
X68096393Y-74416038D01*
X68074476Y-74409942D01*
X68068812Y-74399706D01*
X68065821Y-74388637D01*
X68052451Y-74390754D01*
X68034233Y-74399629D01*
X67988624Y-74413233D01*
X67930007Y-74416899D01*
X67868354Y-74410903D01*
X67813638Y-74395521D01*
X67808730Y-74393386D01*
X67758723Y-74358255D01*
X67725756Y-74309419D01*
X67710587Y-74252333D01*
X67711746Y-74231824D01*
X67835508Y-74231824D01*
X67846413Y-74259425D01*
X67878745Y-74279204D01*
X67930910Y-74289819D01*
X67958787Y-74291228D01*
X68005247Y-74287620D01*
X68036129Y-74273597D01*
X68043664Y-74266931D01*
X68064076Y-74230666D01*
X68068812Y-74197773D01*
X68068812Y-74153763D01*
X68007513Y-74153763D01*
X67936256Y-74157395D01*
X67886276Y-74168818D01*
X67854696Y-74188824D01*
X67847626Y-74197743D01*
X67835508Y-74231824D01*
X67711746Y-74231824D01*
X67713971Y-74192456D01*
X67736663Y-74135244D01*
X67767624Y-74096580D01*
X67786376Y-74079864D01*
X67804733Y-74068878D01*
X67828619Y-74062180D01*
X67863957Y-74058326D01*
X67916669Y-74055873D01*
X67937577Y-74055168D01*
X68068812Y-74050879D01*
X68068620Y-74011158D01*
X68063537Y-73969405D01*
X68045162Y-73944158D01*
X68008039Y-73928030D01*
X68007043Y-73927742D01*
X67954410Y-73921400D01*
X67902906Y-73929684D01*
X67864630Y-73949827D01*
X67849272Y-73959773D01*
X67832730Y-73958397D01*
X67807275Y-73943987D01*
X67792328Y-73933817D01*
X67763091Y-73912088D01*
X67744980Y-73895800D01*
X67742074Y-73891137D01*
X67754040Y-73867005D01*
X67789396Y-73838185D01*
X67804753Y-73828461D01*
X67848901Y-73811714D01*
X67908398Y-73802227D01*
X67974487Y-73800095D01*
X68038411Y-73805417D01*
G36*
X67281524Y-73804237D02*
G01*
X67331255Y-73807971D01*
X67461291Y-74197773D01*
X67481678Y-74128614D01*
X67493946Y-74085874D01*
X67510085Y-74028115D01*
X67527512Y-73964625D01*
X67536726Y-73930570D01*
X67571388Y-73801683D01*
X67714391Y-73801683D01*
X67671646Y-73936857D01*
X67650596Y-74003342D01*
X67625167Y-74083539D01*
X67598610Y-74167193D01*
X67574902Y-74241782D01*
X67520902Y-74411535D01*
X67462598Y-74415328D01*
X67404295Y-74419122D01*
X67372679Y-74314734D01*
X67353182Y-74249889D01*
X67331904Y-74178400D01*
X67313308Y-74115263D01*
X67312574Y-74112750D01*
X67298684Y-74069969D01*
X67286429Y-74040779D01*
X67277846Y-74029741D01*
X67276082Y-74031018D01*
X67269891Y-74048130D01*
X67258128Y-74084787D01*
X67242225Y-74136378D01*
X67223614Y-74198294D01*
X67213543Y-74232352D01*
X67159007Y-74417822D01*
X67043264Y-74417822D01*
X66950737Y-74125471D01*
X66924744Y-74043462D01*
X66901066Y-73968987D01*
X66880820Y-73905544D01*
X66865126Y-73856632D01*
X66855102Y-73825749D01*
X66852055Y-73816726D01*
X66854467Y-73807487D01*
X66873408Y-73803441D01*
X66912823Y-73803846D01*
X66918993Y-73804152D01*
X66992086Y-73807971D01*
X67039957Y-73984010D01*
X67057553Y-74048211D01*
X67073277Y-74104649D01*
X67085746Y-74148422D01*
X67093574Y-74174630D01*
X67095020Y-74178903D01*
X67101014Y-74173990D01*
X67113101Y-74148532D01*
X67129893Y-74105997D01*
X67150003Y-74049850D01*
X67167003Y-73999130D01*
X67231794Y-73800504D01*
X67281524Y-73804237D01*
X67281524Y-73804237D01*
G37*
X67281524Y-73804237D02*
X67331255Y-73807971D01*
X67461291Y-74197773D01*
X67481678Y-74128614D01*
X67493946Y-74085874D01*
X67510085Y-74028115D01*
X67527512Y-73964625D01*
X67536726Y-73930570D01*
X67571388Y-73801683D01*
X67714391Y-73801683D01*
X67671646Y-73936857D01*
X67650596Y-74003342D01*
X67625167Y-74083539D01*
X67598610Y-74167193D01*
X67574902Y-74241782D01*
X67520902Y-74411535D01*
X67462598Y-74415328D01*
X67404295Y-74419122D01*
X67372679Y-74314734D01*
X67353182Y-74249889D01*
X67331904Y-74178400D01*
X67313308Y-74115263D01*
X67312574Y-74112750D01*
X67298684Y-74069969D01*
X67286429Y-74040779D01*
X67277846Y-74029741D01*
X67276082Y-74031018D01*
X67269891Y-74048130D01*
X67258128Y-74084787D01*
X67242225Y-74136378D01*
X67223614Y-74198294D01*
X67213543Y-74232352D01*
X67159007Y-74417822D01*
X67043264Y-74417822D01*
X66950737Y-74125471D01*
X66924744Y-74043462D01*
X66901066Y-73968987D01*
X66880820Y-73905544D01*
X66865126Y-73856632D01*
X66855102Y-73825749D01*
X66852055Y-73816726D01*
X66854467Y-73807487D01*
X66873408Y-73803441D01*
X66912823Y-73803846D01*
X66918993Y-73804152D01*
X66992086Y-73807971D01*
X67039957Y-73984010D01*
X67057553Y-74048211D01*
X67073277Y-74104649D01*
X67085746Y-74148422D01*
X67093574Y-74174630D01*
X67095020Y-74178903D01*
X67101014Y-74173990D01*
X67113101Y-74148532D01*
X67129893Y-74105997D01*
X67150003Y-74049850D01*
X67167003Y-73999130D01*
X67231794Y-73800504D01*
X67281524Y-73804237D01*
G36*
X66798812Y-74417822D02*
G01*
X66729654Y-74417822D01*
X66689512Y-74416645D01*
X66668606Y-74411772D01*
X66661078Y-74401186D01*
X66660495Y-74394029D01*
X66659226Y-74379676D01*
X66651221Y-74376923D01*
X66630185Y-74385771D01*
X66613827Y-74394029D01*
X66551023Y-74413597D01*
X66482752Y-74414729D01*
X66427248Y-74400135D01*
X66375562Y-74364877D01*
X66336162Y-74312835D01*
X66314587Y-74251450D01*
X66314038Y-74248018D01*
X66310833Y-74210571D01*
X66309239Y-74156813D01*
X66309367Y-74116155D01*
X66446721Y-74116155D01*
X66449903Y-74170194D01*
X66457141Y-74214735D01*
X66466940Y-74239888D01*
X66504011Y-74274260D01*
X66548026Y-74286582D01*
X66593416Y-74276618D01*
X66632203Y-74246895D01*
X66646892Y-74226905D01*
X66655481Y-74203050D01*
X66659504Y-74168230D01*
X66660495Y-74115930D01*
X66658722Y-74064139D01*
X66654037Y-74018634D01*
X66647397Y-73988181D01*
X66646290Y-73985452D01*
X66619509Y-73953000D01*
X66580421Y-73935183D01*
X66536685Y-73932306D01*
X66495962Y-73944674D01*
X66465913Y-73972593D01*
X66462796Y-73978148D01*
X66453039Y-74012022D01*
X66447723Y-74060728D01*
X66446721Y-74116155D01*
X66309367Y-74116155D01*
X66309432Y-74095540D01*
X66310336Y-74062563D01*
X66316486Y-73980981D01*
X66329267Y-73919730D01*
X66350529Y-73874449D01*
X66382122Y-73840779D01*
X66412793Y-73821014D01*
X66455646Y-73807120D01*
X66508944Y-73802354D01*
X66563520Y-73806236D01*
X66610208Y-73818282D01*
X66634876Y-73832693D01*
X66660495Y-73855878D01*
X66660495Y-73562773D01*
X66798812Y-73562773D01*
X66798812Y-74417822D01*
X66798812Y-74417822D01*
G37*
X66798812Y-74417822D02*
X66729654Y-74417822D01*
X66689512Y-74416645D01*
X66668606Y-74411772D01*
X66661078Y-74401186D01*
X66660495Y-74394029D01*
X66659226Y-74379676D01*
X66651221Y-74376923D01*
X66630185Y-74385771D01*
X66613827Y-74394029D01*
X66551023Y-74413597D01*
X66482752Y-74414729D01*
X66427248Y-74400135D01*
X66375562Y-74364877D01*
X66336162Y-74312835D01*
X66314587Y-74251450D01*
X66314038Y-74248018D01*
X66310833Y-74210571D01*
X66309239Y-74156813D01*
X66309367Y-74116155D01*
X66446721Y-74116155D01*
X66449903Y-74170194D01*
X66457141Y-74214735D01*
X66466940Y-74239888D01*
X66504011Y-74274260D01*
X66548026Y-74286582D01*
X66593416Y-74276618D01*
X66632203Y-74246895D01*
X66646892Y-74226905D01*
X66655481Y-74203050D01*
X66659504Y-74168230D01*
X66660495Y-74115930D01*
X66658722Y-74064139D01*
X66654037Y-74018634D01*
X66647397Y-73988181D01*
X66646290Y-73985452D01*
X66619509Y-73953000D01*
X66580421Y-73935183D01*
X66536685Y-73932306D01*
X66495962Y-73944674D01*
X66465913Y-73972593D01*
X66462796Y-73978148D01*
X66453039Y-74012022D01*
X66447723Y-74060728D01*
X66446721Y-74116155D01*
X66309367Y-74116155D01*
X66309432Y-74095540D01*
X66310336Y-74062563D01*
X66316486Y-73980981D01*
X66329267Y-73919730D01*
X66350529Y-73874449D01*
X66382122Y-73840779D01*
X66412793Y-73821014D01*
X66455646Y-73807120D01*
X66508944Y-73802354D01*
X66563520Y-73806236D01*
X66610208Y-73818282D01*
X66634876Y-73832693D01*
X66660495Y-73855878D01*
X66660495Y-73562773D01*
X66798812Y-73562773D01*
X66798812Y-74417822D01*
G36*
X66006644Y-73803020D02*
G01*
X66025461Y-73808660D01*
X66031527Y-73821053D01*
X66031782Y-73826647D01*
X66032871Y-73842230D01*
X66040368Y-73844676D01*
X66060619Y-73833993D01*
X66072649Y-73826694D01*
X66110600Y-73811063D01*
X66155928Y-73803334D01*
X66203456Y-73802740D01*
X66248005Y-73808513D01*
X66284398Y-73819884D01*
X66307457Y-73836088D01*
X66312004Y-73856355D01*
X66309709Y-73861843D01*
X66292980Y-73884626D01*
X66267037Y-73912647D01*
X66262345Y-73917177D01*
X66237617Y-73938005D01*
X66216282Y-73944735D01*
X66186445Y-73940038D01*
X66174492Y-73936917D01*
X66137295Y-73929421D01*
X66111141Y-73932792D01*
X66089054Y-73944681D01*
X66068822Y-73960635D01*
X66053921Y-73980700D01*
X66043566Y-74008702D01*
X66036971Y-74048467D01*
X66033351Y-74103823D01*
X66031922Y-74178594D01*
X66031782Y-74223740D01*
X66031782Y-74417822D01*
X65906040Y-74417822D01*
X65906040Y-73801683D01*
X65968911Y-73801683D01*
X66006644Y-73803020D01*
X66006644Y-73803020D01*
G37*
X66006644Y-73803020D02*
X66025461Y-73808660D01*
X66031527Y-73821053D01*
X66031782Y-73826647D01*
X66032871Y-73842230D01*
X66040368Y-73844676D01*
X66060619Y-73833993D01*
X66072649Y-73826694D01*
X66110600Y-73811063D01*
X66155928Y-73803334D01*
X66203456Y-73802740D01*
X66248005Y-73808513D01*
X66284398Y-73819884D01*
X66307457Y-73836088D01*
X66312004Y-73856355D01*
X66309709Y-73861843D01*
X66292980Y-73884626D01*
X66267037Y-73912647D01*
X66262345Y-73917177D01*
X66237617Y-73938005D01*
X66216282Y-73944735D01*
X66186445Y-73940038D01*
X66174492Y-73936917D01*
X66137295Y-73929421D01*
X66111141Y-73932792D01*
X66089054Y-73944681D01*
X66068822Y-73960635D01*
X66053921Y-73980700D01*
X66043566Y-74008702D01*
X66036971Y-74048467D01*
X66033351Y-74103823D01*
X66031922Y-74178594D01*
X66031782Y-74223740D01*
X66031782Y-74417822D01*
X65906040Y-74417822D01*
X65906040Y-73801683D01*
X65968911Y-73801683D01*
X66006644Y-73803020D01*
G36*
X65615790Y-73806555D02*
G01*
X65674945Y-73822339D01*
X65719977Y-73850948D01*
X65751754Y-73888419D01*
X65761634Y-73904411D01*
X65768927Y-73921163D01*
X65774026Y-73942592D01*
X65777321Y-73972616D01*
X65779203Y-74015154D01*
X65780063Y-74074122D01*
X65780293Y-74153440D01*
X65780297Y-74174484D01*
X65780297Y-74417822D01*
X65719941Y-74417822D01*
X65681443Y-74415126D01*
X65652977Y-74408295D01*
X65645845Y-74404083D01*
X65626348Y-74396813D01*
X65606434Y-74404083D01*
X65573647Y-74413160D01*
X65526022Y-74416813D01*
X65473236Y-74415228D01*
X65424964Y-74408589D01*
X65396782Y-74400072D01*
X65342247Y-74365063D01*
X65308165Y-74316479D01*
X65292843Y-74251882D01*
X65292701Y-74250223D01*
X65294045Y-74221566D01*
X65415644Y-74221566D01*
X65426274Y-74254161D01*
X65443590Y-74272505D01*
X65478348Y-74286379D01*
X65524227Y-74291917D01*
X65571012Y-74289191D01*
X65608486Y-74278274D01*
X65618985Y-74271269D01*
X65637332Y-74238904D01*
X65641980Y-74202111D01*
X65641980Y-74153763D01*
X65572418Y-74153763D01*
X65506333Y-74158850D01*
X65456236Y-74173263D01*
X65425071Y-74195729D01*
X65415644Y-74221566D01*
X65294045Y-74221566D01*
X65296013Y-74179647D01*
X65319290Y-74123845D01*
X65363052Y-74081647D01*
X65369101Y-74077808D01*
X65395093Y-74065309D01*
X65427265Y-74057740D01*
X65472240Y-74054061D01*
X65525669Y-74053216D01*
X65641980Y-74053169D01*
X65641980Y-74004411D01*
X65637047Y-73966581D01*
X65624457Y-73941236D01*
X65622983Y-73939887D01*
X65594966Y-73928800D01*
X65552674Y-73924503D01*
X65505936Y-73926615D01*
X65464582Y-73934756D01*
X65440043Y-73946965D01*
X65426747Y-73956746D01*
X65412706Y-73958613D01*
X65393329Y-73950600D01*
X65364024Y-73930739D01*
X65320197Y-73897063D01*
X65316175Y-73893909D01*
X65318236Y-73882236D01*
X65335432Y-73862822D01*
X65361567Y-73841248D01*
X65390448Y-73823096D01*
X65399522Y-73818809D01*
X65432620Y-73810256D01*
X65481120Y-73804155D01*
X65535305Y-73801708D01*
X65537839Y-73801703D01*
X65615790Y-73806555D01*
X65615790Y-73806555D01*
G37*
X65615790Y-73806555D02*
X65674945Y-73822339D01*
X65719977Y-73850948D01*
X65751754Y-73888419D01*
X65761634Y-73904411D01*
X65768927Y-73921163D01*
X65774026Y-73942592D01*
X65777321Y-73972616D01*
X65779203Y-74015154D01*
X65780063Y-74074122D01*
X65780293Y-74153440D01*
X65780297Y-74174484D01*
X65780297Y-74417822D01*
X65719941Y-74417822D01*
X65681443Y-74415126D01*
X65652977Y-74408295D01*
X65645845Y-74404083D01*
X65626348Y-74396813D01*
X65606434Y-74404083D01*
X65573647Y-74413160D01*
X65526022Y-74416813D01*
X65473236Y-74415228D01*
X65424964Y-74408589D01*
X65396782Y-74400072D01*
X65342247Y-74365063D01*
X65308165Y-74316479D01*
X65292843Y-74251882D01*
X65292701Y-74250223D01*
X65294045Y-74221566D01*
X65415644Y-74221566D01*
X65426274Y-74254161D01*
X65443590Y-74272505D01*
X65478348Y-74286379D01*
X65524227Y-74291917D01*
X65571012Y-74289191D01*
X65608486Y-74278274D01*
X65618985Y-74271269D01*
X65637332Y-74238904D01*
X65641980Y-74202111D01*
X65641980Y-74153763D01*
X65572418Y-74153763D01*
X65506333Y-74158850D01*
X65456236Y-74173263D01*
X65425071Y-74195729D01*
X65415644Y-74221566D01*
X65294045Y-74221566D01*
X65296013Y-74179647D01*
X65319290Y-74123845D01*
X65363052Y-74081647D01*
X65369101Y-74077808D01*
X65395093Y-74065309D01*
X65427265Y-74057740D01*
X65472240Y-74054061D01*
X65525669Y-74053216D01*
X65641980Y-74053169D01*
X65641980Y-74004411D01*
X65637047Y-73966581D01*
X65624457Y-73941236D01*
X65622983Y-73939887D01*
X65594966Y-73928800D01*
X65552674Y-73924503D01*
X65505936Y-73926615D01*
X65464582Y-73934756D01*
X65440043Y-73946965D01*
X65426747Y-73956746D01*
X65412706Y-73958613D01*
X65393329Y-73950600D01*
X65364024Y-73930739D01*
X65320197Y-73897063D01*
X65316175Y-73893909D01*
X65318236Y-73882236D01*
X65335432Y-73862822D01*
X65361567Y-73841248D01*
X65390448Y-73823096D01*
X65399522Y-73818809D01*
X65432620Y-73810256D01*
X65481120Y-73804155D01*
X65535305Y-73801708D01*
X65537839Y-73801703D01*
X65615790Y-73806555D01*
G36*
X65091241Y-72869184D02*
G01*
X65117753Y-72882282D01*
X65150447Y-72905106D01*
X65174275Y-72929996D01*
X65190594Y-72961249D01*
X65200760Y-73003166D01*
X65206128Y-73060044D01*
X65208056Y-73136184D01*
X65208169Y-73168917D01*
X65207839Y-73240656D01*
X65206473Y-73291927D01*
X65203500Y-73327404D01*
X65198351Y-73351763D01*
X65190457Y-73369680D01*
X65182243Y-73381902D01*
X65129813Y-73433905D01*
X65068070Y-73465184D01*
X65001464Y-73474592D01*
X64934442Y-73460980D01*
X64913208Y-73451354D01*
X64862376Y-73424859D01*
X64862376Y-73840052D01*
X64899475Y-73820868D01*
X64948357Y-73806025D01*
X65008439Y-73802222D01*
X65068436Y-73809243D01*
X65113744Y-73825013D01*
X65151325Y-73855047D01*
X65183436Y-73898024D01*
X65185850Y-73902436D01*
X65196033Y-73923221D01*
X65203470Y-73944170D01*
X65208589Y-73969548D01*
X65211819Y-74003618D01*
X65213587Y-74050641D01*
X65214323Y-74114882D01*
X65214456Y-74187176D01*
X65214456Y-74417822D01*
X65076139Y-74417822D01*
X65076139Y-73992533D01*
X65037451Y-73959979D01*
X64997262Y-73933940D01*
X64959203Y-73929205D01*
X64920934Y-73941389D01*
X64900538Y-73953320D01*
X64885358Y-73970313D01*
X64874562Y-73995995D01*
X64867317Y-74033991D01*
X64862792Y-74087926D01*
X64860156Y-74161425D01*
X64859228Y-74210347D01*
X64856089Y-74411535D01*
X64790074Y-74415336D01*
X64724060Y-74419136D01*
X64724060Y-73170650D01*
X64862376Y-73170650D01*
X64865903Y-73240254D01*
X64877785Y-73288569D01*
X64899980Y-73318631D01*
X64934441Y-73333471D01*
X64969258Y-73336436D01*
X65008671Y-73333028D01*
X65034829Y-73319617D01*
X65051186Y-73301896D01*
X65064063Y-73282835D01*
X65071728Y-73261601D01*
X65075139Y-73231849D01*
X65075251Y-73187236D01*
X65074103Y-73149880D01*
X65071468Y-73093604D01*
X65067544Y-73056658D01*
X65060937Y-73033223D01*
X65050251Y-73017480D01*
X65040167Y-73008380D01*
X64998030Y-72988537D01*
X64948160Y-72985332D01*
X64919524Y-72992168D01*
X64891172Y-73016464D01*
X64872391Y-73063728D01*
X64863288Y-73133624D01*
X64862376Y-73170650D01*
X64724060Y-73170650D01*
X64724060Y-72858614D01*
X64793218Y-72858614D01*
X64834740Y-72860256D01*
X64856162Y-72866087D01*
X64862374Y-72877461D01*
X64862376Y-72877798D01*
X64865258Y-72888938D01*
X64877970Y-72887673D01*
X64903243Y-72875433D01*
X64962131Y-72856707D01*
X65028385Y-72854739D01*
X65091241Y-72869184D01*
X65091241Y-72869184D01*
G37*
X65091241Y-72869184D02*
X65117753Y-72882282D01*
X65150447Y-72905106D01*
X65174275Y-72929996D01*
X65190594Y-72961249D01*
X65200760Y-73003166D01*
X65206128Y-73060044D01*
X65208056Y-73136184D01*
X65208169Y-73168917D01*
X65207839Y-73240656D01*
X65206473Y-73291927D01*
X65203500Y-73327404D01*
X65198351Y-73351763D01*
X65190457Y-73369680D01*
X65182243Y-73381902D01*
X65129813Y-73433905D01*
X65068070Y-73465184D01*
X65001464Y-73474592D01*
X64934442Y-73460980D01*
X64913208Y-73451354D01*
X64862376Y-73424859D01*
X64862376Y-73840052D01*
X64899475Y-73820868D01*
X64948357Y-73806025D01*
X65008439Y-73802222D01*
X65068436Y-73809243D01*
X65113744Y-73825013D01*
X65151325Y-73855047D01*
X65183436Y-73898024D01*
X65185850Y-73902436D01*
X65196033Y-73923221D01*
X65203470Y-73944170D01*
X65208589Y-73969548D01*
X65211819Y-74003618D01*
X65213587Y-74050641D01*
X65214323Y-74114882D01*
X65214456Y-74187176D01*
X65214456Y-74417822D01*
X65076139Y-74417822D01*
X65076139Y-73992533D01*
X65037451Y-73959979D01*
X64997262Y-73933940D01*
X64959203Y-73929205D01*
X64920934Y-73941389D01*
X64900538Y-73953320D01*
X64885358Y-73970313D01*
X64874562Y-73995995D01*
X64867317Y-74033991D01*
X64862792Y-74087926D01*
X64860156Y-74161425D01*
X64859228Y-74210347D01*
X64856089Y-74411535D01*
X64790074Y-74415336D01*
X64724060Y-74419136D01*
X64724060Y-73170650D01*
X64862376Y-73170650D01*
X64865903Y-73240254D01*
X64877785Y-73288569D01*
X64899980Y-73318631D01*
X64934441Y-73333471D01*
X64969258Y-73336436D01*
X65008671Y-73333028D01*
X65034829Y-73319617D01*
X65051186Y-73301896D01*
X65064063Y-73282835D01*
X65071728Y-73261601D01*
X65075139Y-73231849D01*
X65075251Y-73187236D01*
X65074103Y-73149880D01*
X65071468Y-73093604D01*
X65067544Y-73056658D01*
X65060937Y-73033223D01*
X65050251Y-73017480D01*
X65040167Y-73008380D01*
X64998030Y-72988537D01*
X64948160Y-72985332D01*
X64919524Y-72992168D01*
X64891172Y-73016464D01*
X64872391Y-73063728D01*
X64863288Y-73133624D01*
X64862376Y-73170650D01*
X64724060Y-73170650D01*
X64724060Y-72858614D01*
X64793218Y-72858614D01*
X64834740Y-72860256D01*
X64856162Y-72866087D01*
X64862374Y-72877461D01*
X64862376Y-72877798D01*
X64865258Y-72888938D01*
X64877970Y-72887673D01*
X64903243Y-72875433D01*
X64962131Y-72856707D01*
X65028385Y-72854739D01*
X65091241Y-72869184D01*
D11*
X39070000Y-78530000D02*
X39070000Y-77200000D01*
X40400000Y-78530000D02*
X39070000Y-78530000D01*
X41670000Y-78530000D02*
X41670000Y-75870000D01*
X41670000Y-75870000D02*
X69670000Y-75870000D01*
X41670000Y-78530000D02*
X69670000Y-78530000D01*
X69670000Y-78530000D02*
X69670000Y-75870000D01*
D10*
X58700000Y-66300000D02*
X58700000Y-59200000D01*
X49900000Y-66300000D02*
X49900000Y-59200000D01*
X49900000Y-59200000D02*
X58700000Y-59200000D01*
X58700000Y-66300000D02*
X49900000Y-66300000D01*
X50100000Y-60300000D02*
X58500000Y-60300000D01*
D13*
X54300000Y-65820000D02*
X54300000Y-59500000D01*
D11*
X45761252Y-70690000D02*
X45238748Y-70690000D01*
X45761252Y-72110000D02*
X45238748Y-72110000D01*
X51238748Y-72110000D02*
X51761252Y-72110000D01*
X51238748Y-70690000D02*
X51761252Y-70690000D01*
X48010000Y-65161252D02*
X48010000Y-64638748D01*
X46590000Y-65161252D02*
X46590000Y-64638748D01*
X45761252Y-73190000D02*
X45238748Y-73190000D01*
X45761252Y-74610000D02*
X45238748Y-74610000D01*
X51238748Y-74610000D02*
X51761252Y-74610000D01*
X51238748Y-73190000D02*
X51761252Y-73190000D01*
D10*
X54033333Y-63511904D02*
X54033333Y-64083333D01*
X53995238Y-64197619D01*
X53919047Y-64273809D01*
X53804761Y-64311904D01*
X53728571Y-64311904D01*
X54833333Y-64311904D02*
X54376190Y-64311904D01*
X54604761Y-64311904D02*
X54604761Y-63511904D01*
X54528571Y-63626190D01*
X54452380Y-63702380D01*
X54376190Y-63740476D01*
X38492857Y-70611904D02*
X38492857Y-71259523D01*
X38530952Y-71335714D01*
X38569047Y-71373809D01*
X38645238Y-71411904D01*
X38797619Y-71411904D01*
X38873809Y-71373809D01*
X38911904Y-71335714D01*
X38950000Y-71259523D01*
X38950000Y-70611904D01*
X39597619Y-70992857D02*
X39330952Y-70992857D01*
X39330952Y-71411904D02*
X39330952Y-70611904D01*
X39711904Y-70611904D01*
X40016666Y-71411904D02*
X40016666Y-70611904D01*
X40321428Y-70611904D01*
X40397619Y-70650000D01*
X40435714Y-70688095D01*
X40473809Y-70764285D01*
X40473809Y-70878571D01*
X40435714Y-70954761D01*
X40397619Y-70992857D01*
X40321428Y-71030952D01*
X40016666Y-71030952D01*
X40626190Y-71488095D02*
X41235714Y-71488095D01*
X41883333Y-71411904D02*
X41616666Y-71030952D01*
X41426190Y-71411904D02*
X41426190Y-70611904D01*
X41730952Y-70611904D01*
X41807142Y-70650000D01*
X41845238Y-70688095D01*
X41883333Y-70764285D01*
X41883333Y-70878571D01*
X41845238Y-70954761D01*
X41807142Y-70992857D01*
X41730952Y-71030952D01*
X41426190Y-71030952D01*
X42188095Y-70688095D02*
X42226190Y-70650000D01*
X42302380Y-70611904D01*
X42492857Y-70611904D01*
X42569047Y-70650000D01*
X42607142Y-70688095D01*
X42645238Y-70764285D01*
X42645238Y-70840476D01*
X42607142Y-70954761D01*
X42150000Y-71411904D01*
X42645238Y-71411904D01*
X54492857Y-70661904D02*
X54492857Y-71309523D01*
X54530952Y-71385714D01*
X54569047Y-71423809D01*
X54645238Y-71461904D01*
X54797619Y-71461904D01*
X54873809Y-71423809D01*
X54911904Y-71385714D01*
X54950000Y-71309523D01*
X54950000Y-70661904D01*
X55597619Y-71042857D02*
X55330952Y-71042857D01*
X55330952Y-71461904D02*
X55330952Y-70661904D01*
X55711904Y-70661904D01*
X56016666Y-71461904D02*
X56016666Y-70661904D01*
X56321428Y-70661904D01*
X56397619Y-70700000D01*
X56435714Y-70738095D01*
X56473809Y-70814285D01*
X56473809Y-70928571D01*
X56435714Y-71004761D01*
X56397619Y-71042857D01*
X56321428Y-71080952D01*
X56016666Y-71080952D01*
X56626190Y-71538095D02*
X57235714Y-71538095D01*
X57883333Y-71461904D02*
X57616666Y-71080952D01*
X57426190Y-71461904D02*
X57426190Y-70661904D01*
X57730952Y-70661904D01*
X57807142Y-70700000D01*
X57845238Y-70738095D01*
X57883333Y-70814285D01*
X57883333Y-70928571D01*
X57845238Y-71004761D01*
X57807142Y-71042857D01*
X57730952Y-71080952D01*
X57426190Y-71080952D01*
X58645238Y-71461904D02*
X58188095Y-71461904D01*
X58416666Y-71461904D02*
X58416666Y-70661904D01*
X58340476Y-70776190D01*
X58264285Y-70852380D01*
X58188095Y-70890476D01*
D14*
X47133333Y-62852380D02*
X46800000Y-62376190D01*
X46561904Y-62852380D02*
X46561904Y-61852380D01*
X46942857Y-61852380D01*
X47038095Y-61900000D01*
X47085714Y-61947619D01*
X47133333Y-62042857D01*
X47133333Y-62185714D01*
X47085714Y-62280952D01*
X47038095Y-62328571D01*
X46942857Y-62376190D01*
X46561904Y-62376190D01*
X48085714Y-62852380D02*
X47514285Y-62852380D01*
X47800000Y-62852380D02*
X47800000Y-61852380D01*
X47704761Y-61995238D01*
X47609523Y-62090476D01*
X47514285Y-62138095D01*
D10*
X38411904Y-74011904D02*
X38411904Y-73211904D01*
X38602380Y-73211904D01*
X38716666Y-73250000D01*
X38792857Y-73326190D01*
X38830952Y-73402380D01*
X38869047Y-73554761D01*
X38869047Y-73669047D01*
X38830952Y-73821428D01*
X38792857Y-73897619D01*
X38716666Y-73973809D01*
X38602380Y-74011904D01*
X38411904Y-74011904D01*
X39478571Y-73592857D02*
X39211904Y-73592857D01*
X39211904Y-74011904D02*
X39211904Y-73211904D01*
X39592857Y-73211904D01*
X39897619Y-74011904D02*
X39897619Y-73211904D01*
X40202380Y-73211904D01*
X40278571Y-73250000D01*
X40316666Y-73288095D01*
X40354761Y-73364285D01*
X40354761Y-73478571D01*
X40316666Y-73554761D01*
X40278571Y-73592857D01*
X40202380Y-73630952D01*
X39897619Y-73630952D01*
X40507142Y-74088095D02*
X41116666Y-74088095D01*
X41764285Y-74011904D02*
X41497619Y-73630952D01*
X41307142Y-74011904D02*
X41307142Y-73211904D01*
X41611904Y-73211904D01*
X41688095Y-73250000D01*
X41726190Y-73288095D01*
X41764285Y-73364285D01*
X41764285Y-73478571D01*
X41726190Y-73554761D01*
X41688095Y-73592857D01*
X41611904Y-73630952D01*
X41307142Y-73630952D01*
X42069047Y-73288095D02*
X42107142Y-73250000D01*
X42183333Y-73211904D01*
X42373809Y-73211904D01*
X42450000Y-73250000D01*
X42488095Y-73288095D01*
X42526190Y-73364285D01*
X42526190Y-73440476D01*
X42488095Y-73554761D01*
X42030952Y-74011904D01*
X42526190Y-74011904D01*
X54511904Y-74111904D02*
X54511904Y-73311904D01*
X54702380Y-73311904D01*
X54816666Y-73350000D01*
X54892857Y-73426190D01*
X54930952Y-73502380D01*
X54969047Y-73654761D01*
X54969047Y-73769047D01*
X54930952Y-73921428D01*
X54892857Y-73997619D01*
X54816666Y-74073809D01*
X54702380Y-74111904D01*
X54511904Y-74111904D01*
X55578571Y-73692857D02*
X55311904Y-73692857D01*
X55311904Y-74111904D02*
X55311904Y-73311904D01*
X55692857Y-73311904D01*
X55997619Y-74111904D02*
X55997619Y-73311904D01*
X56302380Y-73311904D01*
X56378571Y-73350000D01*
X56416666Y-73388095D01*
X56454761Y-73464285D01*
X56454761Y-73578571D01*
X56416666Y-73654761D01*
X56378571Y-73692857D01*
X56302380Y-73730952D01*
X55997619Y-73730952D01*
X56607142Y-74188095D02*
X57216666Y-74188095D01*
X57864285Y-74111904D02*
X57597619Y-73730952D01*
X57407142Y-74111904D02*
X57407142Y-73311904D01*
X57711904Y-73311904D01*
X57788095Y-73350000D01*
X57826190Y-73388095D01*
X57864285Y-73464285D01*
X57864285Y-73578571D01*
X57826190Y-73654761D01*
X57788095Y-73692857D01*
X57711904Y-73730952D01*
X57407142Y-73730952D01*
X58626190Y-74111904D02*
X58169047Y-74111904D01*
X58397619Y-74111904D02*
X58397619Y-73311904D01*
X58321428Y-73426190D01*
X58245238Y-73502380D01*
X58169047Y-73540476D01*
M02*
