G04 #@! TF.GenerationSoftware,KiCad,Pcbnew,(5.1.2-1)-1*
G04 #@! TF.CreationDate,2020-04-25T00:14:51+02:00*
G04 #@! TF.ProjectId,USB-C-USB-2.0,5553422d-432d-4555-9342-2d322e302e6b,rev?*
G04 #@! TF.SameCoordinates,Original*
G04 #@! TF.FileFunction,Copper,L1,Top*
G04 #@! TF.FilePolarity,Positive*
%FSLAX46Y46*%
G04 Gerber Fmt 4.6, Leading zero omitted, Abs format (unit mm)*
G04 Created by KiCad (PCBNEW (5.1.2-1)-1) date 2020-04-25 00:14:51*
%MOMM*%
%LPD*%
G04 APERTURE LIST*
%ADD10O,1.700000X1.700000*%
%ADD11R,1.700000X1.700000*%
%ADD12R,0.300000X1.450000*%
%ADD13C,0.100000*%
%ADD14C,1.000000*%
%ADD15C,6.400000*%
%ADD16C,0.800000*%
%ADD17C,1.150000*%
%ADD18C,0.250000*%
%ADD19C,0.300000*%
%ADD20C,0.254000*%
G04 APERTURE END LIST*
D10*
X68340000Y-77200000D03*
X65800000Y-77200000D03*
X63260000Y-77200000D03*
X60720000Y-77200000D03*
X58180000Y-77200000D03*
X55640000Y-77200000D03*
X53100000Y-77200000D03*
X50560000Y-77200000D03*
X48020000Y-77200000D03*
X45480000Y-77200000D03*
X42940000Y-77200000D03*
D11*
X40400000Y-77200000D03*
D12*
X57700000Y-66900000D03*
X56900000Y-66900000D03*
X56050000Y-66900000D03*
D13*
G36*
X58669010Y-61002408D02*
G01*
X58717546Y-61009607D01*
X58765143Y-61021530D01*
X58811343Y-61038060D01*
X58855699Y-61059039D01*
X58897786Y-61084265D01*
X58937198Y-61113495D01*
X58973554Y-61146447D01*
X59006506Y-61182803D01*
X59035736Y-61222215D01*
X59060962Y-61264302D01*
X59081941Y-61308658D01*
X59098471Y-61354858D01*
X59110394Y-61402455D01*
X59117593Y-61450991D01*
X59120001Y-61500000D01*
X59120001Y-62100000D01*
X59117593Y-62149009D01*
X59110394Y-62197545D01*
X59098471Y-62245142D01*
X59081941Y-62291342D01*
X59060962Y-62335698D01*
X59035736Y-62377785D01*
X59006506Y-62417197D01*
X58973554Y-62453553D01*
X58937198Y-62486505D01*
X58897786Y-62515735D01*
X58855699Y-62540961D01*
X58811343Y-62561940D01*
X58765143Y-62578470D01*
X58717546Y-62590393D01*
X58669010Y-62597592D01*
X58620001Y-62600000D01*
X58619999Y-62600000D01*
X58570990Y-62597592D01*
X58522454Y-62590393D01*
X58474857Y-62578470D01*
X58428657Y-62561940D01*
X58384301Y-62540961D01*
X58342214Y-62515735D01*
X58302802Y-62486505D01*
X58266446Y-62453553D01*
X58233494Y-62417197D01*
X58204264Y-62377785D01*
X58179038Y-62335698D01*
X58158059Y-62291342D01*
X58141529Y-62245142D01*
X58129606Y-62197545D01*
X58122407Y-62149009D01*
X58119999Y-62100000D01*
X58119999Y-61500000D01*
X58122407Y-61450991D01*
X58129606Y-61402455D01*
X58141529Y-61354858D01*
X58158059Y-61308658D01*
X58179038Y-61264302D01*
X58204264Y-61222215D01*
X58233494Y-61182803D01*
X58266446Y-61146447D01*
X58302802Y-61113495D01*
X58342214Y-61084265D01*
X58384301Y-61059039D01*
X58428657Y-61038060D01*
X58474857Y-61021530D01*
X58522454Y-61009607D01*
X58570990Y-61002408D01*
X58619999Y-61000000D01*
X58620001Y-61000000D01*
X58669010Y-61002408D01*
X58669010Y-61002408D01*
G37*
D14*
X58620000Y-61800000D03*
D13*
G36*
X50029010Y-61002408D02*
G01*
X50077546Y-61009607D01*
X50125143Y-61021530D01*
X50171343Y-61038060D01*
X50215699Y-61059039D01*
X50257786Y-61084265D01*
X50297198Y-61113495D01*
X50333554Y-61146447D01*
X50366506Y-61182803D01*
X50395736Y-61222215D01*
X50420962Y-61264302D01*
X50441941Y-61308658D01*
X50458471Y-61354858D01*
X50470394Y-61402455D01*
X50477593Y-61450991D01*
X50480001Y-61500000D01*
X50480001Y-62100000D01*
X50477593Y-62149009D01*
X50470394Y-62197545D01*
X50458471Y-62245142D01*
X50441941Y-62291342D01*
X50420962Y-62335698D01*
X50395736Y-62377785D01*
X50366506Y-62417197D01*
X50333554Y-62453553D01*
X50297198Y-62486505D01*
X50257786Y-62515735D01*
X50215699Y-62540961D01*
X50171343Y-62561940D01*
X50125143Y-62578470D01*
X50077546Y-62590393D01*
X50029010Y-62597592D01*
X49980001Y-62600000D01*
X49979999Y-62600000D01*
X49930990Y-62597592D01*
X49882454Y-62590393D01*
X49834857Y-62578470D01*
X49788657Y-62561940D01*
X49744301Y-62540961D01*
X49702214Y-62515735D01*
X49662802Y-62486505D01*
X49626446Y-62453553D01*
X49593494Y-62417197D01*
X49564264Y-62377785D01*
X49539038Y-62335698D01*
X49518059Y-62291342D01*
X49501529Y-62245142D01*
X49489606Y-62197545D01*
X49482407Y-62149009D01*
X49479999Y-62100000D01*
X49479999Y-61500000D01*
X49482407Y-61450991D01*
X49489606Y-61402455D01*
X49501529Y-61354858D01*
X49518059Y-61308658D01*
X49539038Y-61264302D01*
X49564264Y-61222215D01*
X49593494Y-61182803D01*
X49626446Y-61146447D01*
X49662802Y-61113495D01*
X49702214Y-61084265D01*
X49744301Y-61059039D01*
X49788657Y-61038060D01*
X49834857Y-61021530D01*
X49882454Y-61009607D01*
X49930990Y-61002408D01*
X49979999Y-61000000D01*
X49980001Y-61000000D01*
X50029010Y-61002408D01*
X50029010Y-61002408D01*
G37*
D14*
X49980000Y-61800000D03*
D13*
G36*
X50029010Y-65182408D02*
G01*
X50077546Y-65189607D01*
X50125143Y-65201530D01*
X50171343Y-65218060D01*
X50215699Y-65239039D01*
X50257786Y-65264265D01*
X50297198Y-65293495D01*
X50333554Y-65326447D01*
X50366506Y-65362803D01*
X50395736Y-65402215D01*
X50420962Y-65444302D01*
X50441941Y-65488658D01*
X50458471Y-65534858D01*
X50470394Y-65582455D01*
X50477593Y-65630991D01*
X50480001Y-65680000D01*
X50480001Y-66280000D01*
X50477593Y-66329009D01*
X50470394Y-66377545D01*
X50458471Y-66425142D01*
X50441941Y-66471342D01*
X50420962Y-66515698D01*
X50395736Y-66557785D01*
X50366506Y-66597197D01*
X50333554Y-66633553D01*
X50297198Y-66666505D01*
X50257786Y-66695735D01*
X50215699Y-66720961D01*
X50171343Y-66741940D01*
X50125143Y-66758470D01*
X50077546Y-66770393D01*
X50029010Y-66777592D01*
X49980001Y-66780000D01*
X49979999Y-66780000D01*
X49930990Y-66777592D01*
X49882454Y-66770393D01*
X49834857Y-66758470D01*
X49788657Y-66741940D01*
X49744301Y-66720961D01*
X49702214Y-66695735D01*
X49662802Y-66666505D01*
X49626446Y-66633553D01*
X49593494Y-66597197D01*
X49564264Y-66557785D01*
X49539038Y-66515698D01*
X49518059Y-66471342D01*
X49501529Y-66425142D01*
X49489606Y-66377545D01*
X49482407Y-66329009D01*
X49479999Y-66280000D01*
X49479999Y-65680000D01*
X49482407Y-65630991D01*
X49489606Y-65582455D01*
X49501529Y-65534858D01*
X49518059Y-65488658D01*
X49539038Y-65444302D01*
X49564264Y-65402215D01*
X49593494Y-65362803D01*
X49626446Y-65326447D01*
X49662802Y-65293495D01*
X49702214Y-65264265D01*
X49744301Y-65239039D01*
X49788657Y-65218060D01*
X49834857Y-65201530D01*
X49882454Y-65189607D01*
X49930990Y-65182408D01*
X49979999Y-65180000D01*
X49980001Y-65180000D01*
X50029010Y-65182408D01*
X50029010Y-65182408D01*
G37*
D14*
X49980000Y-65980000D03*
D13*
G36*
X58669010Y-65182408D02*
G01*
X58717546Y-65189607D01*
X58765143Y-65201530D01*
X58811343Y-65218060D01*
X58855699Y-65239039D01*
X58897786Y-65264265D01*
X58937198Y-65293495D01*
X58973554Y-65326447D01*
X59006506Y-65362803D01*
X59035736Y-65402215D01*
X59060962Y-65444302D01*
X59081941Y-65488658D01*
X59098471Y-65534858D01*
X59110394Y-65582455D01*
X59117593Y-65630991D01*
X59120001Y-65680000D01*
X59120001Y-66280000D01*
X59117593Y-66329009D01*
X59110394Y-66377545D01*
X59098471Y-66425142D01*
X59081941Y-66471342D01*
X59060962Y-66515698D01*
X59035736Y-66557785D01*
X59006506Y-66597197D01*
X58973554Y-66633553D01*
X58937198Y-66666505D01*
X58897786Y-66695735D01*
X58855699Y-66720961D01*
X58811343Y-66741940D01*
X58765143Y-66758470D01*
X58717546Y-66770393D01*
X58669010Y-66777592D01*
X58620001Y-66780000D01*
X58619999Y-66780000D01*
X58570990Y-66777592D01*
X58522454Y-66770393D01*
X58474857Y-66758470D01*
X58428657Y-66741940D01*
X58384301Y-66720961D01*
X58342214Y-66695735D01*
X58302802Y-66666505D01*
X58266446Y-66633553D01*
X58233494Y-66597197D01*
X58204264Y-66557785D01*
X58179038Y-66515698D01*
X58158059Y-66471342D01*
X58141529Y-66425142D01*
X58129606Y-66377545D01*
X58122407Y-66329009D01*
X58119999Y-66280000D01*
X58119999Y-65680000D01*
X58122407Y-65630991D01*
X58129606Y-65582455D01*
X58141529Y-65534858D01*
X58158059Y-65488658D01*
X58179038Y-65444302D01*
X58204264Y-65402215D01*
X58233494Y-65362803D01*
X58266446Y-65326447D01*
X58302802Y-65293495D01*
X58342214Y-65264265D01*
X58384301Y-65239039D01*
X58428657Y-65218060D01*
X58474857Y-65201530D01*
X58522454Y-65189607D01*
X58570990Y-65182408D01*
X58619999Y-65180000D01*
X58620001Y-65180000D01*
X58669010Y-65182408D01*
X58669010Y-65182408D01*
G37*
D14*
X58620000Y-65980000D03*
D12*
X57400000Y-66900000D03*
X56600000Y-66900000D03*
X55550000Y-66900000D03*
X52550000Y-66900000D03*
X51700000Y-66900000D03*
X50900000Y-66900000D03*
X51200000Y-66900000D03*
X52000000Y-66900000D03*
X53050000Y-66900000D03*
X53550000Y-66900000D03*
X54050000Y-66900000D03*
X54550000Y-66900000D03*
X55050000Y-66900000D03*
D15*
X66800000Y-64400000D03*
D16*
X43497056Y-62702944D03*
X41800000Y-62000000D03*
X40102944Y-62702944D03*
X39400000Y-64400000D03*
X40102944Y-66097056D03*
X41800000Y-66800000D03*
X43497056Y-66097056D03*
X44200000Y-64400000D03*
D15*
X41800000Y-64400000D03*
D13*
G36*
X44824505Y-70701204D02*
G01*
X44848773Y-70704804D01*
X44872572Y-70710765D01*
X44895671Y-70719030D01*
X44917850Y-70729520D01*
X44938893Y-70742132D01*
X44958599Y-70756747D01*
X44976777Y-70773223D01*
X44993253Y-70791401D01*
X45007868Y-70811107D01*
X45020480Y-70832150D01*
X45030970Y-70854329D01*
X45039235Y-70877428D01*
X45045196Y-70901227D01*
X45048796Y-70925495D01*
X45050000Y-70949999D01*
X45050000Y-71850001D01*
X45048796Y-71874505D01*
X45045196Y-71898773D01*
X45039235Y-71922572D01*
X45030970Y-71945671D01*
X45020480Y-71967850D01*
X45007868Y-71988893D01*
X44993253Y-72008599D01*
X44976777Y-72026777D01*
X44958599Y-72043253D01*
X44938893Y-72057868D01*
X44917850Y-72070480D01*
X44895671Y-72080970D01*
X44872572Y-72089235D01*
X44848773Y-72095196D01*
X44824505Y-72098796D01*
X44800001Y-72100000D01*
X44149999Y-72100000D01*
X44125495Y-72098796D01*
X44101227Y-72095196D01*
X44077428Y-72089235D01*
X44054329Y-72080970D01*
X44032150Y-72070480D01*
X44011107Y-72057868D01*
X43991401Y-72043253D01*
X43973223Y-72026777D01*
X43956747Y-72008599D01*
X43942132Y-71988893D01*
X43929520Y-71967850D01*
X43919030Y-71945671D01*
X43910765Y-71922572D01*
X43904804Y-71898773D01*
X43901204Y-71874505D01*
X43900000Y-71850001D01*
X43900000Y-70949999D01*
X43901204Y-70925495D01*
X43904804Y-70901227D01*
X43910765Y-70877428D01*
X43919030Y-70854329D01*
X43929520Y-70832150D01*
X43942132Y-70811107D01*
X43956747Y-70791401D01*
X43973223Y-70773223D01*
X43991401Y-70756747D01*
X44011107Y-70742132D01*
X44032150Y-70729520D01*
X44054329Y-70719030D01*
X44077428Y-70710765D01*
X44101227Y-70704804D01*
X44125495Y-70701204D01*
X44149999Y-70700000D01*
X44800001Y-70700000D01*
X44824505Y-70701204D01*
X44824505Y-70701204D01*
G37*
D17*
X44475000Y-71400000D03*
D13*
G36*
X46874505Y-70701204D02*
G01*
X46898773Y-70704804D01*
X46922572Y-70710765D01*
X46945671Y-70719030D01*
X46967850Y-70729520D01*
X46988893Y-70742132D01*
X47008599Y-70756747D01*
X47026777Y-70773223D01*
X47043253Y-70791401D01*
X47057868Y-70811107D01*
X47070480Y-70832150D01*
X47080970Y-70854329D01*
X47089235Y-70877428D01*
X47095196Y-70901227D01*
X47098796Y-70925495D01*
X47100000Y-70949999D01*
X47100000Y-71850001D01*
X47098796Y-71874505D01*
X47095196Y-71898773D01*
X47089235Y-71922572D01*
X47080970Y-71945671D01*
X47070480Y-71967850D01*
X47057868Y-71988893D01*
X47043253Y-72008599D01*
X47026777Y-72026777D01*
X47008599Y-72043253D01*
X46988893Y-72057868D01*
X46967850Y-72070480D01*
X46945671Y-72080970D01*
X46922572Y-72089235D01*
X46898773Y-72095196D01*
X46874505Y-72098796D01*
X46850001Y-72100000D01*
X46199999Y-72100000D01*
X46175495Y-72098796D01*
X46151227Y-72095196D01*
X46127428Y-72089235D01*
X46104329Y-72080970D01*
X46082150Y-72070480D01*
X46061107Y-72057868D01*
X46041401Y-72043253D01*
X46023223Y-72026777D01*
X46006747Y-72008599D01*
X45992132Y-71988893D01*
X45979520Y-71967850D01*
X45969030Y-71945671D01*
X45960765Y-71922572D01*
X45954804Y-71898773D01*
X45951204Y-71874505D01*
X45950000Y-71850001D01*
X45950000Y-70949999D01*
X45951204Y-70925495D01*
X45954804Y-70901227D01*
X45960765Y-70877428D01*
X45969030Y-70854329D01*
X45979520Y-70832150D01*
X45992132Y-70811107D01*
X46006747Y-70791401D01*
X46023223Y-70773223D01*
X46041401Y-70756747D01*
X46061107Y-70742132D01*
X46082150Y-70729520D01*
X46104329Y-70719030D01*
X46127428Y-70710765D01*
X46151227Y-70704804D01*
X46175495Y-70701204D01*
X46199999Y-70700000D01*
X46850001Y-70700000D01*
X46874505Y-70701204D01*
X46874505Y-70701204D01*
G37*
D17*
X46525000Y-71400000D03*
D13*
G36*
X52874505Y-70701204D02*
G01*
X52898773Y-70704804D01*
X52922572Y-70710765D01*
X52945671Y-70719030D01*
X52967850Y-70729520D01*
X52988893Y-70742132D01*
X53008599Y-70756747D01*
X53026777Y-70773223D01*
X53043253Y-70791401D01*
X53057868Y-70811107D01*
X53070480Y-70832150D01*
X53080970Y-70854329D01*
X53089235Y-70877428D01*
X53095196Y-70901227D01*
X53098796Y-70925495D01*
X53100000Y-70949999D01*
X53100000Y-71850001D01*
X53098796Y-71874505D01*
X53095196Y-71898773D01*
X53089235Y-71922572D01*
X53080970Y-71945671D01*
X53070480Y-71967850D01*
X53057868Y-71988893D01*
X53043253Y-72008599D01*
X53026777Y-72026777D01*
X53008599Y-72043253D01*
X52988893Y-72057868D01*
X52967850Y-72070480D01*
X52945671Y-72080970D01*
X52922572Y-72089235D01*
X52898773Y-72095196D01*
X52874505Y-72098796D01*
X52850001Y-72100000D01*
X52199999Y-72100000D01*
X52175495Y-72098796D01*
X52151227Y-72095196D01*
X52127428Y-72089235D01*
X52104329Y-72080970D01*
X52082150Y-72070480D01*
X52061107Y-72057868D01*
X52041401Y-72043253D01*
X52023223Y-72026777D01*
X52006747Y-72008599D01*
X51992132Y-71988893D01*
X51979520Y-71967850D01*
X51969030Y-71945671D01*
X51960765Y-71922572D01*
X51954804Y-71898773D01*
X51951204Y-71874505D01*
X51950000Y-71850001D01*
X51950000Y-70949999D01*
X51951204Y-70925495D01*
X51954804Y-70901227D01*
X51960765Y-70877428D01*
X51969030Y-70854329D01*
X51979520Y-70832150D01*
X51992132Y-70811107D01*
X52006747Y-70791401D01*
X52023223Y-70773223D01*
X52041401Y-70756747D01*
X52061107Y-70742132D01*
X52082150Y-70729520D01*
X52104329Y-70719030D01*
X52127428Y-70710765D01*
X52151227Y-70704804D01*
X52175495Y-70701204D01*
X52199999Y-70700000D01*
X52850001Y-70700000D01*
X52874505Y-70701204D01*
X52874505Y-70701204D01*
G37*
D17*
X52525000Y-71400000D03*
D13*
G36*
X50824505Y-70701204D02*
G01*
X50848773Y-70704804D01*
X50872572Y-70710765D01*
X50895671Y-70719030D01*
X50917850Y-70729520D01*
X50938893Y-70742132D01*
X50958599Y-70756747D01*
X50976777Y-70773223D01*
X50993253Y-70791401D01*
X51007868Y-70811107D01*
X51020480Y-70832150D01*
X51030970Y-70854329D01*
X51039235Y-70877428D01*
X51045196Y-70901227D01*
X51048796Y-70925495D01*
X51050000Y-70949999D01*
X51050000Y-71850001D01*
X51048796Y-71874505D01*
X51045196Y-71898773D01*
X51039235Y-71922572D01*
X51030970Y-71945671D01*
X51020480Y-71967850D01*
X51007868Y-71988893D01*
X50993253Y-72008599D01*
X50976777Y-72026777D01*
X50958599Y-72043253D01*
X50938893Y-72057868D01*
X50917850Y-72070480D01*
X50895671Y-72080970D01*
X50872572Y-72089235D01*
X50848773Y-72095196D01*
X50824505Y-72098796D01*
X50800001Y-72100000D01*
X50149999Y-72100000D01*
X50125495Y-72098796D01*
X50101227Y-72095196D01*
X50077428Y-72089235D01*
X50054329Y-72080970D01*
X50032150Y-72070480D01*
X50011107Y-72057868D01*
X49991401Y-72043253D01*
X49973223Y-72026777D01*
X49956747Y-72008599D01*
X49942132Y-71988893D01*
X49929520Y-71967850D01*
X49919030Y-71945671D01*
X49910765Y-71922572D01*
X49904804Y-71898773D01*
X49901204Y-71874505D01*
X49900000Y-71850001D01*
X49900000Y-70949999D01*
X49901204Y-70925495D01*
X49904804Y-70901227D01*
X49910765Y-70877428D01*
X49919030Y-70854329D01*
X49929520Y-70832150D01*
X49942132Y-70811107D01*
X49956747Y-70791401D01*
X49973223Y-70773223D01*
X49991401Y-70756747D01*
X50011107Y-70742132D01*
X50032150Y-70729520D01*
X50054329Y-70719030D01*
X50077428Y-70710765D01*
X50101227Y-70704804D01*
X50125495Y-70701204D01*
X50149999Y-70700000D01*
X50800001Y-70700000D01*
X50824505Y-70701204D01*
X50824505Y-70701204D01*
G37*
D17*
X50475000Y-71400000D03*
D13*
G36*
X47774505Y-63301204D02*
G01*
X47798773Y-63304804D01*
X47822572Y-63310765D01*
X47845671Y-63319030D01*
X47867850Y-63329520D01*
X47888893Y-63342132D01*
X47908599Y-63356747D01*
X47926777Y-63373223D01*
X47943253Y-63391401D01*
X47957868Y-63411107D01*
X47970480Y-63432150D01*
X47980970Y-63454329D01*
X47989235Y-63477428D01*
X47995196Y-63501227D01*
X47998796Y-63525495D01*
X48000000Y-63549999D01*
X48000000Y-64200001D01*
X47998796Y-64224505D01*
X47995196Y-64248773D01*
X47989235Y-64272572D01*
X47980970Y-64295671D01*
X47970480Y-64317850D01*
X47957868Y-64338893D01*
X47943253Y-64358599D01*
X47926777Y-64376777D01*
X47908599Y-64393253D01*
X47888893Y-64407868D01*
X47867850Y-64420480D01*
X47845671Y-64430970D01*
X47822572Y-64439235D01*
X47798773Y-64445196D01*
X47774505Y-64448796D01*
X47750001Y-64450000D01*
X46849999Y-64450000D01*
X46825495Y-64448796D01*
X46801227Y-64445196D01*
X46777428Y-64439235D01*
X46754329Y-64430970D01*
X46732150Y-64420480D01*
X46711107Y-64407868D01*
X46691401Y-64393253D01*
X46673223Y-64376777D01*
X46656747Y-64358599D01*
X46642132Y-64338893D01*
X46629520Y-64317850D01*
X46619030Y-64295671D01*
X46610765Y-64272572D01*
X46604804Y-64248773D01*
X46601204Y-64224505D01*
X46600000Y-64200001D01*
X46600000Y-63549999D01*
X46601204Y-63525495D01*
X46604804Y-63501227D01*
X46610765Y-63477428D01*
X46619030Y-63454329D01*
X46629520Y-63432150D01*
X46642132Y-63411107D01*
X46656747Y-63391401D01*
X46673223Y-63373223D01*
X46691401Y-63356747D01*
X46711107Y-63342132D01*
X46732150Y-63329520D01*
X46754329Y-63319030D01*
X46777428Y-63310765D01*
X46801227Y-63304804D01*
X46825495Y-63301204D01*
X46849999Y-63300000D01*
X47750001Y-63300000D01*
X47774505Y-63301204D01*
X47774505Y-63301204D01*
G37*
D17*
X47300000Y-63875000D03*
D13*
G36*
X47774505Y-65351204D02*
G01*
X47798773Y-65354804D01*
X47822572Y-65360765D01*
X47845671Y-65369030D01*
X47867850Y-65379520D01*
X47888893Y-65392132D01*
X47908599Y-65406747D01*
X47926777Y-65423223D01*
X47943253Y-65441401D01*
X47957868Y-65461107D01*
X47970480Y-65482150D01*
X47980970Y-65504329D01*
X47989235Y-65527428D01*
X47995196Y-65551227D01*
X47998796Y-65575495D01*
X48000000Y-65599999D01*
X48000000Y-66250001D01*
X47998796Y-66274505D01*
X47995196Y-66298773D01*
X47989235Y-66322572D01*
X47980970Y-66345671D01*
X47970480Y-66367850D01*
X47957868Y-66388893D01*
X47943253Y-66408599D01*
X47926777Y-66426777D01*
X47908599Y-66443253D01*
X47888893Y-66457868D01*
X47867850Y-66470480D01*
X47845671Y-66480970D01*
X47822572Y-66489235D01*
X47798773Y-66495196D01*
X47774505Y-66498796D01*
X47750001Y-66500000D01*
X46849999Y-66500000D01*
X46825495Y-66498796D01*
X46801227Y-66495196D01*
X46777428Y-66489235D01*
X46754329Y-66480970D01*
X46732150Y-66470480D01*
X46711107Y-66457868D01*
X46691401Y-66443253D01*
X46673223Y-66426777D01*
X46656747Y-66408599D01*
X46642132Y-66388893D01*
X46629520Y-66367850D01*
X46619030Y-66345671D01*
X46610765Y-66322572D01*
X46604804Y-66298773D01*
X46601204Y-66274505D01*
X46600000Y-66250001D01*
X46600000Y-65599999D01*
X46601204Y-65575495D01*
X46604804Y-65551227D01*
X46610765Y-65527428D01*
X46619030Y-65504329D01*
X46629520Y-65482150D01*
X46642132Y-65461107D01*
X46656747Y-65441401D01*
X46673223Y-65423223D01*
X46691401Y-65406747D01*
X46711107Y-65392132D01*
X46732150Y-65379520D01*
X46754329Y-65369030D01*
X46777428Y-65360765D01*
X46801227Y-65354804D01*
X46825495Y-65351204D01*
X46849999Y-65350000D01*
X47750001Y-65350000D01*
X47774505Y-65351204D01*
X47774505Y-65351204D01*
G37*
D17*
X47300000Y-65925000D03*
D13*
G36*
X44824505Y-73201204D02*
G01*
X44848773Y-73204804D01*
X44872572Y-73210765D01*
X44895671Y-73219030D01*
X44917850Y-73229520D01*
X44938893Y-73242132D01*
X44958599Y-73256747D01*
X44976777Y-73273223D01*
X44993253Y-73291401D01*
X45007868Y-73311107D01*
X45020480Y-73332150D01*
X45030970Y-73354329D01*
X45039235Y-73377428D01*
X45045196Y-73401227D01*
X45048796Y-73425495D01*
X45050000Y-73449999D01*
X45050000Y-74350001D01*
X45048796Y-74374505D01*
X45045196Y-74398773D01*
X45039235Y-74422572D01*
X45030970Y-74445671D01*
X45020480Y-74467850D01*
X45007868Y-74488893D01*
X44993253Y-74508599D01*
X44976777Y-74526777D01*
X44958599Y-74543253D01*
X44938893Y-74557868D01*
X44917850Y-74570480D01*
X44895671Y-74580970D01*
X44872572Y-74589235D01*
X44848773Y-74595196D01*
X44824505Y-74598796D01*
X44800001Y-74600000D01*
X44149999Y-74600000D01*
X44125495Y-74598796D01*
X44101227Y-74595196D01*
X44077428Y-74589235D01*
X44054329Y-74580970D01*
X44032150Y-74570480D01*
X44011107Y-74557868D01*
X43991401Y-74543253D01*
X43973223Y-74526777D01*
X43956747Y-74508599D01*
X43942132Y-74488893D01*
X43929520Y-74467850D01*
X43919030Y-74445671D01*
X43910765Y-74422572D01*
X43904804Y-74398773D01*
X43901204Y-74374505D01*
X43900000Y-74350001D01*
X43900000Y-73449999D01*
X43901204Y-73425495D01*
X43904804Y-73401227D01*
X43910765Y-73377428D01*
X43919030Y-73354329D01*
X43929520Y-73332150D01*
X43942132Y-73311107D01*
X43956747Y-73291401D01*
X43973223Y-73273223D01*
X43991401Y-73256747D01*
X44011107Y-73242132D01*
X44032150Y-73229520D01*
X44054329Y-73219030D01*
X44077428Y-73210765D01*
X44101227Y-73204804D01*
X44125495Y-73201204D01*
X44149999Y-73200000D01*
X44800001Y-73200000D01*
X44824505Y-73201204D01*
X44824505Y-73201204D01*
G37*
D17*
X44475000Y-73900000D03*
D13*
G36*
X46874505Y-73201204D02*
G01*
X46898773Y-73204804D01*
X46922572Y-73210765D01*
X46945671Y-73219030D01*
X46967850Y-73229520D01*
X46988893Y-73242132D01*
X47008599Y-73256747D01*
X47026777Y-73273223D01*
X47043253Y-73291401D01*
X47057868Y-73311107D01*
X47070480Y-73332150D01*
X47080970Y-73354329D01*
X47089235Y-73377428D01*
X47095196Y-73401227D01*
X47098796Y-73425495D01*
X47100000Y-73449999D01*
X47100000Y-74350001D01*
X47098796Y-74374505D01*
X47095196Y-74398773D01*
X47089235Y-74422572D01*
X47080970Y-74445671D01*
X47070480Y-74467850D01*
X47057868Y-74488893D01*
X47043253Y-74508599D01*
X47026777Y-74526777D01*
X47008599Y-74543253D01*
X46988893Y-74557868D01*
X46967850Y-74570480D01*
X46945671Y-74580970D01*
X46922572Y-74589235D01*
X46898773Y-74595196D01*
X46874505Y-74598796D01*
X46850001Y-74600000D01*
X46199999Y-74600000D01*
X46175495Y-74598796D01*
X46151227Y-74595196D01*
X46127428Y-74589235D01*
X46104329Y-74580970D01*
X46082150Y-74570480D01*
X46061107Y-74557868D01*
X46041401Y-74543253D01*
X46023223Y-74526777D01*
X46006747Y-74508599D01*
X45992132Y-74488893D01*
X45979520Y-74467850D01*
X45969030Y-74445671D01*
X45960765Y-74422572D01*
X45954804Y-74398773D01*
X45951204Y-74374505D01*
X45950000Y-74350001D01*
X45950000Y-73449999D01*
X45951204Y-73425495D01*
X45954804Y-73401227D01*
X45960765Y-73377428D01*
X45969030Y-73354329D01*
X45979520Y-73332150D01*
X45992132Y-73311107D01*
X46006747Y-73291401D01*
X46023223Y-73273223D01*
X46041401Y-73256747D01*
X46061107Y-73242132D01*
X46082150Y-73229520D01*
X46104329Y-73219030D01*
X46127428Y-73210765D01*
X46151227Y-73204804D01*
X46175495Y-73201204D01*
X46199999Y-73200000D01*
X46850001Y-73200000D01*
X46874505Y-73201204D01*
X46874505Y-73201204D01*
G37*
D17*
X46525000Y-73900000D03*
D13*
G36*
X52874505Y-73201204D02*
G01*
X52898773Y-73204804D01*
X52922572Y-73210765D01*
X52945671Y-73219030D01*
X52967850Y-73229520D01*
X52988893Y-73242132D01*
X53008599Y-73256747D01*
X53026777Y-73273223D01*
X53043253Y-73291401D01*
X53057868Y-73311107D01*
X53070480Y-73332150D01*
X53080970Y-73354329D01*
X53089235Y-73377428D01*
X53095196Y-73401227D01*
X53098796Y-73425495D01*
X53100000Y-73449999D01*
X53100000Y-74350001D01*
X53098796Y-74374505D01*
X53095196Y-74398773D01*
X53089235Y-74422572D01*
X53080970Y-74445671D01*
X53070480Y-74467850D01*
X53057868Y-74488893D01*
X53043253Y-74508599D01*
X53026777Y-74526777D01*
X53008599Y-74543253D01*
X52988893Y-74557868D01*
X52967850Y-74570480D01*
X52945671Y-74580970D01*
X52922572Y-74589235D01*
X52898773Y-74595196D01*
X52874505Y-74598796D01*
X52850001Y-74600000D01*
X52199999Y-74600000D01*
X52175495Y-74598796D01*
X52151227Y-74595196D01*
X52127428Y-74589235D01*
X52104329Y-74580970D01*
X52082150Y-74570480D01*
X52061107Y-74557868D01*
X52041401Y-74543253D01*
X52023223Y-74526777D01*
X52006747Y-74508599D01*
X51992132Y-74488893D01*
X51979520Y-74467850D01*
X51969030Y-74445671D01*
X51960765Y-74422572D01*
X51954804Y-74398773D01*
X51951204Y-74374505D01*
X51950000Y-74350001D01*
X51950000Y-73449999D01*
X51951204Y-73425495D01*
X51954804Y-73401227D01*
X51960765Y-73377428D01*
X51969030Y-73354329D01*
X51979520Y-73332150D01*
X51992132Y-73311107D01*
X52006747Y-73291401D01*
X52023223Y-73273223D01*
X52041401Y-73256747D01*
X52061107Y-73242132D01*
X52082150Y-73229520D01*
X52104329Y-73219030D01*
X52127428Y-73210765D01*
X52151227Y-73204804D01*
X52175495Y-73201204D01*
X52199999Y-73200000D01*
X52850001Y-73200000D01*
X52874505Y-73201204D01*
X52874505Y-73201204D01*
G37*
D17*
X52525000Y-73900000D03*
D13*
G36*
X50824505Y-73201204D02*
G01*
X50848773Y-73204804D01*
X50872572Y-73210765D01*
X50895671Y-73219030D01*
X50917850Y-73229520D01*
X50938893Y-73242132D01*
X50958599Y-73256747D01*
X50976777Y-73273223D01*
X50993253Y-73291401D01*
X51007868Y-73311107D01*
X51020480Y-73332150D01*
X51030970Y-73354329D01*
X51039235Y-73377428D01*
X51045196Y-73401227D01*
X51048796Y-73425495D01*
X51050000Y-73449999D01*
X51050000Y-74350001D01*
X51048796Y-74374505D01*
X51045196Y-74398773D01*
X51039235Y-74422572D01*
X51030970Y-74445671D01*
X51020480Y-74467850D01*
X51007868Y-74488893D01*
X50993253Y-74508599D01*
X50976777Y-74526777D01*
X50958599Y-74543253D01*
X50938893Y-74557868D01*
X50917850Y-74570480D01*
X50895671Y-74580970D01*
X50872572Y-74589235D01*
X50848773Y-74595196D01*
X50824505Y-74598796D01*
X50800001Y-74600000D01*
X50149999Y-74600000D01*
X50125495Y-74598796D01*
X50101227Y-74595196D01*
X50077428Y-74589235D01*
X50054329Y-74580970D01*
X50032150Y-74570480D01*
X50011107Y-74557868D01*
X49991401Y-74543253D01*
X49973223Y-74526777D01*
X49956747Y-74508599D01*
X49942132Y-74488893D01*
X49929520Y-74467850D01*
X49919030Y-74445671D01*
X49910765Y-74422572D01*
X49904804Y-74398773D01*
X49901204Y-74374505D01*
X49900000Y-74350001D01*
X49900000Y-73449999D01*
X49901204Y-73425495D01*
X49904804Y-73401227D01*
X49910765Y-73377428D01*
X49919030Y-73354329D01*
X49929520Y-73332150D01*
X49942132Y-73311107D01*
X49956747Y-73291401D01*
X49973223Y-73273223D01*
X49991401Y-73256747D01*
X50011107Y-73242132D01*
X50032150Y-73229520D01*
X50054329Y-73219030D01*
X50077428Y-73210765D01*
X50101227Y-73204804D01*
X50125495Y-73201204D01*
X50149999Y-73200000D01*
X50800001Y-73200000D01*
X50824505Y-73201204D01*
X50824505Y-73201204D01*
G37*
D17*
X50475000Y-73900000D03*
D16*
X53900000Y-73900000D03*
X43100000Y-73850000D03*
D14*
X52400000Y-65200000D03*
X56800000Y-65200000D03*
D16*
X55400000Y-65200000D03*
X50941904Y-69887510D03*
X48800000Y-72200000D03*
X42600000Y-72200000D03*
X57000000Y-74800000D03*
X59400000Y-74800000D03*
X61600000Y-74800000D03*
X64000000Y-74800000D03*
X66600000Y-74800000D03*
X54800000Y-74800000D03*
X64400000Y-72600000D03*
X54600000Y-70800000D03*
D18*
X53000000Y-73900000D02*
X52525000Y-73900000D01*
X53900000Y-73900000D02*
X53000000Y-73900000D01*
X44000000Y-73900000D02*
X44475000Y-73900000D01*
X43100000Y-73850000D02*
X44000000Y-73900000D01*
D19*
X52000000Y-65600000D02*
X52400000Y-65200000D01*
X51700000Y-65900000D02*
X52400000Y-65200000D01*
X51700000Y-66900000D02*
X51700000Y-65900000D01*
D18*
X56600000Y-65400000D02*
X56400000Y-65200000D01*
D19*
X56600000Y-66900000D02*
X56600000Y-65400000D01*
D18*
X56800000Y-65600000D02*
X56800000Y-65200000D01*
X56800000Y-65600000D02*
X56400000Y-65200000D01*
X56900000Y-65300000D02*
X56800000Y-65200000D01*
D19*
X56900000Y-66900000D02*
X56900000Y-65300000D01*
X52000000Y-65925000D02*
X52125000Y-65800000D01*
X52000000Y-66900000D02*
X52000000Y-65925000D01*
X52125000Y-65800000D02*
X52200000Y-65800000D01*
X52400000Y-65600000D02*
X52400000Y-65200000D01*
X52200000Y-65800000D02*
X52400000Y-65600000D01*
D18*
X55550000Y-65350000D02*
X55400000Y-65200000D01*
X55550000Y-66900000D02*
X55550000Y-65350000D01*
X50475000Y-71400000D02*
X50475000Y-73900000D01*
X50475000Y-74745000D02*
X48020000Y-77200000D01*
X50475000Y-73900000D02*
X50475000Y-74745000D01*
X50475000Y-70354414D02*
X50941904Y-69887510D01*
X50475000Y-71400000D02*
X50475000Y-70354414D01*
X52550000Y-67875000D02*
X51425000Y-69000000D01*
X52550000Y-66900000D02*
X52550000Y-67875000D01*
X46525000Y-71400000D02*
X46525000Y-73900000D01*
X46525000Y-76155000D02*
X45480000Y-77200000D01*
X46525000Y-73900000D02*
X46525000Y-76155000D01*
X51425000Y-69000000D02*
X51400000Y-69000000D01*
X51237500Y-69162500D02*
X48762500Y-69162500D01*
X48762500Y-69162500D02*
X46525000Y-71400000D01*
X51400000Y-69000000D02*
X51237500Y-69162500D01*
X57700000Y-66900000D02*
X57700000Y-68300000D01*
X57400000Y-66900000D02*
X57400000Y-68200000D01*
X57400000Y-68200000D02*
X57800000Y-68600000D01*
X51200000Y-66900000D02*
X51200000Y-67875000D01*
X50900000Y-68100000D02*
X50800000Y-68200000D01*
X50900000Y-66900000D02*
X50900000Y-68100000D01*
X50900000Y-66900000D02*
X50900000Y-64900000D01*
X51200000Y-66900000D02*
X51200000Y-64400000D01*
X51200000Y-67875000D02*
X51200000Y-68200000D01*
X51200000Y-68200000D02*
X51000000Y-68400000D01*
X51000000Y-68400000D02*
X48000000Y-68400000D01*
X53100000Y-77200000D02*
X53100000Y-75900000D01*
X53100000Y-75900000D02*
X53800000Y-75200000D01*
X53800000Y-75200000D02*
X54600000Y-75200000D01*
X54600000Y-75200000D02*
X54800000Y-75000000D01*
X52525000Y-71400000D02*
X53600000Y-71400000D01*
X54200000Y-72000000D02*
X54200000Y-72200000D01*
X53600000Y-71400000D02*
X54200000Y-72000000D01*
X44475000Y-71400000D02*
X43000000Y-71400000D01*
X43000000Y-71800000D02*
X42600000Y-72200000D01*
X43000000Y-71400000D02*
X43000000Y-71800000D01*
X57400000Y-66900000D02*
X57400000Y-66600000D01*
X57400000Y-66600000D02*
X57700000Y-66900000D01*
X54800000Y-75000000D02*
X54800000Y-74800000D01*
X54800000Y-74800000D02*
X54800000Y-72400000D01*
X49980000Y-65600000D02*
X49525000Y-65600000D01*
X47300000Y-63875000D02*
X47325000Y-63875000D01*
X49400000Y-61800000D02*
X49980000Y-61800000D01*
X47325000Y-63875000D02*
X49400000Y-61800000D01*
X48255000Y-63875000D02*
X49980000Y-65600000D01*
X47300000Y-63875000D02*
X48255000Y-63875000D01*
X64673002Y-71800000D02*
X68340000Y-75466998D01*
X56050000Y-66900000D02*
X56050000Y-67875000D01*
X56050000Y-67875000D02*
X59975000Y-71800000D01*
X59975000Y-71800000D02*
X64673002Y-71800000D01*
X68340000Y-75466998D02*
X68340000Y-77200000D01*
X65800000Y-75526998D02*
X65800000Y-77200000D01*
X65800000Y-74000000D02*
X65800000Y-75526998D01*
X64400000Y-72600000D02*
X65800000Y-74000000D01*
X53050000Y-69250000D02*
X53050000Y-66900000D01*
X54600000Y-70800000D02*
X53050000Y-69250000D01*
X53550000Y-66900000D02*
X53550000Y-68550000D01*
X55640000Y-70640000D02*
X55640000Y-77200000D01*
X53550000Y-68550000D02*
X55640000Y-70640000D01*
X58180000Y-77200000D02*
X58180000Y-72380000D01*
X54050000Y-68250000D02*
X54050000Y-66900000D01*
X58180000Y-72380000D02*
X54050000Y-68250000D01*
X54550000Y-66900000D02*
X54550000Y-67986410D01*
X54550000Y-67986410D02*
X60720000Y-74156410D01*
X60720000Y-74156410D02*
X60720000Y-77200000D01*
X55050000Y-66900000D02*
X55074999Y-66924999D01*
X55074999Y-66924999D02*
X55074999Y-67874999D01*
X63260000Y-76060000D02*
X63260000Y-77051914D01*
X55074999Y-67874999D02*
X61000000Y-73800000D01*
X61000000Y-73800000D02*
X62000000Y-73800000D01*
X63260000Y-75060000D02*
X63260000Y-76060000D01*
X62000000Y-73800000D02*
X63260000Y-75060000D01*
D20*
G36*
X48928558Y-61064479D02*
G01*
X48872313Y-61249893D01*
X48859999Y-61259999D01*
X48836201Y-61288997D01*
X47463271Y-62661928D01*
X46849999Y-62661928D01*
X46676745Y-62678992D01*
X46510149Y-62729528D01*
X46356613Y-62811595D01*
X46222038Y-62922038D01*
X46111595Y-63056613D01*
X46029528Y-63210149D01*
X45978992Y-63376745D01*
X45961928Y-63549999D01*
X45961928Y-64200001D01*
X45978992Y-64373255D01*
X46029528Y-64539851D01*
X46111595Y-64693387D01*
X46222038Y-64827962D01*
X46228594Y-64833342D01*
X46148815Y-64898815D01*
X46069463Y-64995506D01*
X46010498Y-65105820D01*
X45974188Y-65225518D01*
X45961928Y-65350000D01*
X45965000Y-65639250D01*
X46123750Y-65798000D01*
X47173000Y-65798000D01*
X47173000Y-65778000D01*
X47427000Y-65778000D01*
X47427000Y-65798000D01*
X48476250Y-65798000D01*
X48635000Y-65639250D01*
X48638072Y-65350000D01*
X48636201Y-65331003D01*
X48774223Y-65469025D01*
X48761323Y-65600000D01*
X48775997Y-65748986D01*
X48819454Y-65892247D01*
X48841927Y-65934290D01*
X48841927Y-66280000D01*
X48863795Y-66502027D01*
X48928558Y-66715521D01*
X49033727Y-66912279D01*
X49175261Y-67084738D01*
X49347720Y-67226272D01*
X49544478Y-67331441D01*
X49757972Y-67396204D01*
X49979999Y-67418072D01*
X49980001Y-67418072D01*
X50113470Y-67404926D01*
X50112002Y-67615285D01*
X50122366Y-67739939D01*
X50156849Y-67860175D01*
X50214126Y-67971375D01*
X50291997Y-68069263D01*
X50387469Y-68150078D01*
X50496873Y-68210715D01*
X50616004Y-68248844D01*
X50718250Y-68260000D01*
X50777997Y-68200253D01*
X50796873Y-68210715D01*
X50916004Y-68248844D01*
X51018250Y-68260000D01*
X51050000Y-68228250D01*
X51072998Y-68251248D01*
X51072998Y-68260000D01*
X51090199Y-68260000D01*
X50996023Y-68354176D01*
X50975724Y-68365026D01*
X50930062Y-68402500D01*
X48799823Y-68402500D01*
X48762500Y-68398824D01*
X48725177Y-68402500D01*
X48725167Y-68402500D01*
X48613514Y-68413497D01*
X48470253Y-68456954D01*
X48338224Y-68527526D01*
X48222499Y-68622499D01*
X48198701Y-68651497D01*
X46788271Y-70061928D01*
X46199999Y-70061928D01*
X46026745Y-70078992D01*
X45860149Y-70129528D01*
X45706613Y-70211595D01*
X45572038Y-70322038D01*
X45566658Y-70328594D01*
X45501185Y-70248815D01*
X45404494Y-70169463D01*
X45294180Y-70110498D01*
X45174482Y-70074188D01*
X45050000Y-70061928D01*
X44760750Y-70065000D01*
X44602000Y-70223750D01*
X44602000Y-71273000D01*
X44622000Y-71273000D01*
X44622000Y-71527000D01*
X44602000Y-71527000D01*
X44602000Y-71547000D01*
X44348000Y-71547000D01*
X44348000Y-71527000D01*
X43423750Y-71527000D01*
X43265000Y-71685750D01*
X43261928Y-72100000D01*
X43274188Y-72224482D01*
X43310498Y-72344180D01*
X43369463Y-72454494D01*
X43448815Y-72551185D01*
X43545506Y-72630537D01*
X43655820Y-72689502D01*
X43682694Y-72697654D01*
X43656613Y-72711595D01*
X43522038Y-72822038D01*
X43471509Y-72883608D01*
X43401898Y-72854774D01*
X43201939Y-72815000D01*
X42998061Y-72815000D01*
X42798102Y-72854774D01*
X42609744Y-72932795D01*
X42440226Y-73046063D01*
X42296063Y-73190226D01*
X42182795Y-73359744D01*
X42104774Y-73548102D01*
X42065000Y-73748061D01*
X42065000Y-73951939D01*
X42104774Y-74151898D01*
X42182795Y-74340256D01*
X42296063Y-74509774D01*
X42440226Y-74653937D01*
X42609744Y-74767205D01*
X42798102Y-74845226D01*
X42998061Y-74885000D01*
X43201939Y-74885000D01*
X43401898Y-74845226D01*
X43410642Y-74841604D01*
X43411595Y-74843387D01*
X43522038Y-74977962D01*
X43656613Y-75088405D01*
X43810149Y-75170472D01*
X43976745Y-75221008D01*
X44149999Y-75238072D01*
X44800001Y-75238072D01*
X44973255Y-75221008D01*
X45139851Y-75170472D01*
X45293387Y-75088405D01*
X45427962Y-74977962D01*
X45500000Y-74890184D01*
X45572038Y-74977962D01*
X45706613Y-75088405D01*
X45765001Y-75119614D01*
X45765001Y-75735885D01*
X45552950Y-75715000D01*
X45407050Y-75715000D01*
X45188889Y-75736487D01*
X44908966Y-75821401D01*
X44650986Y-75959294D01*
X44424866Y-76144866D01*
X44239294Y-76370986D01*
X44210000Y-76425791D01*
X44180706Y-76370986D01*
X43995134Y-76144866D01*
X43769014Y-75959294D01*
X43511034Y-75821401D01*
X43231111Y-75736487D01*
X43012950Y-75715000D01*
X42867050Y-75715000D01*
X42648889Y-75736487D01*
X42368966Y-75821401D01*
X42110986Y-75959294D01*
X41884866Y-76144866D01*
X41860393Y-76174687D01*
X41839502Y-76105820D01*
X41780537Y-75995506D01*
X41701185Y-75898815D01*
X41604494Y-75819463D01*
X41494180Y-75760498D01*
X41374482Y-75724188D01*
X41250000Y-75711928D01*
X40685750Y-75715000D01*
X40527000Y-75873750D01*
X40527000Y-77073000D01*
X40547000Y-77073000D01*
X40547000Y-77327000D01*
X40527000Y-77327000D01*
X40527000Y-78526250D01*
X40685750Y-78685000D01*
X41250000Y-78688072D01*
X41374482Y-78675812D01*
X41494180Y-78639502D01*
X41604494Y-78580537D01*
X41701185Y-78501185D01*
X41780537Y-78404494D01*
X41839502Y-78294180D01*
X41860393Y-78225313D01*
X41884866Y-78255134D01*
X42110986Y-78440706D01*
X42368966Y-78578599D01*
X42648889Y-78663513D01*
X42867050Y-78685000D01*
X43012950Y-78685000D01*
X43231111Y-78663513D01*
X43511034Y-78578599D01*
X43769014Y-78440706D01*
X43995134Y-78255134D01*
X44180706Y-78029014D01*
X44210000Y-77974209D01*
X44239294Y-78029014D01*
X44424866Y-78255134D01*
X44650986Y-78440706D01*
X44908966Y-78578599D01*
X45188889Y-78663513D01*
X45407050Y-78685000D01*
X45552950Y-78685000D01*
X45771111Y-78663513D01*
X46051034Y-78578599D01*
X46309014Y-78440706D01*
X46535134Y-78255134D01*
X46720706Y-78029014D01*
X46750000Y-77974209D01*
X46779294Y-78029014D01*
X46964866Y-78255134D01*
X47190986Y-78440706D01*
X47448966Y-78578599D01*
X47728889Y-78663513D01*
X47947050Y-78685000D01*
X48092950Y-78685000D01*
X48311111Y-78663513D01*
X48591034Y-78578599D01*
X48849014Y-78440706D01*
X49075134Y-78255134D01*
X49260706Y-78029014D01*
X49290000Y-77974209D01*
X49319294Y-78029014D01*
X49504866Y-78255134D01*
X49730986Y-78440706D01*
X49988966Y-78578599D01*
X50268889Y-78663513D01*
X50487050Y-78685000D01*
X50632950Y-78685000D01*
X50851111Y-78663513D01*
X51131034Y-78578599D01*
X51389014Y-78440706D01*
X51615134Y-78255134D01*
X51800706Y-78029014D01*
X51835201Y-77964477D01*
X51904822Y-78081355D01*
X52099731Y-78297588D01*
X52333080Y-78471641D01*
X52595901Y-78596825D01*
X52743110Y-78641476D01*
X52973000Y-78520155D01*
X52973000Y-77327000D01*
X52953000Y-77327000D01*
X52953000Y-77073000D01*
X52973000Y-77073000D01*
X52973000Y-75879845D01*
X52743110Y-75758524D01*
X52595901Y-75803175D01*
X52333080Y-75928359D01*
X52099731Y-76102412D01*
X51904822Y-76318645D01*
X51835201Y-76435523D01*
X51800706Y-76370986D01*
X51615134Y-76144866D01*
X51389014Y-75959294D01*
X51131034Y-75821401D01*
X50851111Y-75736487D01*
X50632950Y-75715000D01*
X50579802Y-75715000D01*
X50986003Y-75308799D01*
X51015001Y-75285001D01*
X51098764Y-75182936D01*
X51139851Y-75170472D01*
X51293387Y-75088405D01*
X51427962Y-74977962D01*
X51500000Y-74890184D01*
X51572038Y-74977962D01*
X51706613Y-75088405D01*
X51860149Y-75170472D01*
X52026745Y-75221008D01*
X52199999Y-75238072D01*
X52850001Y-75238072D01*
X53023255Y-75221008D01*
X53189851Y-75170472D01*
X53343387Y-75088405D01*
X53477962Y-74977962D01*
X53559115Y-74879077D01*
X53598102Y-74895226D01*
X53798061Y-74935000D01*
X54001939Y-74935000D01*
X54201898Y-74895226D01*
X54390256Y-74817205D01*
X54559774Y-74703937D01*
X54703937Y-74559774D01*
X54817205Y-74390256D01*
X54880001Y-74238655D01*
X54880001Y-75922405D01*
X54810986Y-75959294D01*
X54584866Y-76144866D01*
X54399294Y-76370986D01*
X54364799Y-76435523D01*
X54295178Y-76318645D01*
X54100269Y-76102412D01*
X53866920Y-75928359D01*
X53604099Y-75803175D01*
X53456890Y-75758524D01*
X53227000Y-75879845D01*
X53227000Y-77073000D01*
X53247000Y-77073000D01*
X53247000Y-77327000D01*
X53227000Y-77327000D01*
X53227000Y-78520155D01*
X53456890Y-78641476D01*
X53604099Y-78596825D01*
X53866920Y-78471641D01*
X54100269Y-78297588D01*
X54295178Y-78081355D01*
X54364799Y-77964477D01*
X54399294Y-78029014D01*
X54584866Y-78255134D01*
X54810986Y-78440706D01*
X55068966Y-78578599D01*
X55348889Y-78663513D01*
X55567050Y-78685000D01*
X55712950Y-78685000D01*
X55931111Y-78663513D01*
X56211034Y-78578599D01*
X56469014Y-78440706D01*
X56695134Y-78255134D01*
X56880706Y-78029014D01*
X56910000Y-77974209D01*
X56939294Y-78029014D01*
X57124866Y-78255134D01*
X57350986Y-78440706D01*
X57608966Y-78578599D01*
X57888889Y-78663513D01*
X58107050Y-78685000D01*
X58252950Y-78685000D01*
X58471111Y-78663513D01*
X58751034Y-78578599D01*
X59009014Y-78440706D01*
X59235134Y-78255134D01*
X59420706Y-78029014D01*
X59450000Y-77974209D01*
X59479294Y-78029014D01*
X59664866Y-78255134D01*
X59890986Y-78440706D01*
X60148966Y-78578599D01*
X60428889Y-78663513D01*
X60647050Y-78685000D01*
X60792950Y-78685000D01*
X61011111Y-78663513D01*
X61291034Y-78578599D01*
X61549014Y-78440706D01*
X61775134Y-78255134D01*
X61960706Y-78029014D01*
X61990000Y-77974209D01*
X62019294Y-78029014D01*
X62204866Y-78255134D01*
X62430986Y-78440706D01*
X62688966Y-78578599D01*
X62968889Y-78663513D01*
X63187050Y-78685000D01*
X63332950Y-78685000D01*
X63551111Y-78663513D01*
X63831034Y-78578599D01*
X64089014Y-78440706D01*
X64315134Y-78255134D01*
X64500706Y-78029014D01*
X64530000Y-77974209D01*
X64559294Y-78029014D01*
X64744866Y-78255134D01*
X64970986Y-78440706D01*
X65228966Y-78578599D01*
X65508889Y-78663513D01*
X65727050Y-78685000D01*
X65872950Y-78685000D01*
X66091111Y-78663513D01*
X66371034Y-78578599D01*
X66629014Y-78440706D01*
X66855134Y-78255134D01*
X67040706Y-78029014D01*
X67070000Y-77974209D01*
X67099294Y-78029014D01*
X67284866Y-78255134D01*
X67510986Y-78440706D01*
X67768966Y-78578599D01*
X68048889Y-78663513D01*
X68267050Y-78685000D01*
X68412950Y-78685000D01*
X68631111Y-78663513D01*
X68911034Y-78578599D01*
X69169014Y-78440706D01*
X69395134Y-78255134D01*
X69580706Y-78029014D01*
X69718599Y-77771034D01*
X69803513Y-77491111D01*
X69832185Y-77200000D01*
X69803513Y-76908889D01*
X69718599Y-76628966D01*
X69580706Y-76370986D01*
X69395134Y-76144866D01*
X69169014Y-75959294D01*
X69100000Y-75922405D01*
X69100000Y-75504320D01*
X69103676Y-75466997D01*
X69100000Y-75429674D01*
X69100000Y-75429665D01*
X69089003Y-75318012D01*
X69045546Y-75174751D01*
X68974974Y-75042722D01*
X68880001Y-74926997D01*
X68851004Y-74903200D01*
X65236806Y-71289003D01*
X65213003Y-71259999D01*
X65097278Y-71165026D01*
X64965249Y-71094454D01*
X64821988Y-71050997D01*
X64710335Y-71040000D01*
X64710324Y-71040000D01*
X64673002Y-71036324D01*
X64635680Y-71040000D01*
X60289802Y-71040000D01*
X57509801Y-68260000D01*
X57527002Y-68260000D01*
X57527002Y-68251248D01*
X57550000Y-68228250D01*
X57581750Y-68260000D01*
X57683996Y-68248844D01*
X57803127Y-68210715D01*
X57822003Y-68200253D01*
X57881750Y-68260000D01*
X57983996Y-68248844D01*
X58103127Y-68210715D01*
X58212531Y-68150078D01*
X58308003Y-68069263D01*
X58385874Y-67971375D01*
X58443151Y-67860175D01*
X58477634Y-67739939D01*
X58487998Y-67615285D01*
X58486530Y-67404926D01*
X58619999Y-67418072D01*
X58620001Y-67418072D01*
X58842028Y-67396204D01*
X59055522Y-67331441D01*
X59252280Y-67226272D01*
X59424739Y-67084738D01*
X59566273Y-66912279D01*
X59671442Y-66715521D01*
X59736205Y-66502027D01*
X59758073Y-66280000D01*
X59758073Y-65680000D01*
X59736205Y-65457973D01*
X59671442Y-65244479D01*
X59566273Y-65047721D01*
X59424739Y-64875262D01*
X59252280Y-64733728D01*
X59055522Y-64628559D01*
X58842028Y-64563796D01*
X58620001Y-64541928D01*
X58619999Y-64541928D01*
X58397972Y-64563796D01*
X58184478Y-64628559D01*
X57987720Y-64733728D01*
X57874028Y-64827033D01*
X57805824Y-64662376D01*
X57681612Y-64476480D01*
X57523520Y-64318388D01*
X57337624Y-64194176D01*
X57131067Y-64108617D01*
X56911788Y-64065000D01*
X56688212Y-64065000D01*
X56468933Y-64108617D01*
X56262376Y-64194176D01*
X56076480Y-64318388D01*
X56023226Y-64371642D01*
X55890256Y-64282795D01*
X55701898Y-64204774D01*
X55501939Y-64165000D01*
X55298061Y-64165000D01*
X55098102Y-64204774D01*
X54909744Y-64282795D01*
X54740226Y-64396063D01*
X54596063Y-64540226D01*
X54482795Y-64709744D01*
X54404774Y-64898102D01*
X54365000Y-65098061D01*
X54365000Y-65301939D01*
X54404774Y-65501898D01*
X54419284Y-65536928D01*
X54400000Y-65536928D01*
X54300000Y-65546777D01*
X54200000Y-65536928D01*
X53900000Y-65536928D01*
X53800000Y-65546777D01*
X53700000Y-65536928D01*
X53488955Y-65536928D01*
X53491383Y-65531067D01*
X53535000Y-65311788D01*
X53535000Y-65088212D01*
X53491383Y-64868933D01*
X53405824Y-64662376D01*
X53281612Y-64476480D01*
X53123520Y-64318388D01*
X52937624Y-64194176D01*
X52731067Y-64108617D01*
X52511788Y-64065000D01*
X52288212Y-64065000D01*
X52068933Y-64108617D01*
X51862376Y-64194176D01*
X51676480Y-64318388D01*
X51518388Y-64476480D01*
X51394176Y-64662376D01*
X51308617Y-64868933D01*
X51265000Y-65088212D01*
X51265000Y-65224843D01*
X51172185Y-65317658D01*
X51142237Y-65342236D01*
X51117659Y-65372184D01*
X51117655Y-65372188D01*
X51084690Y-65412356D01*
X51082994Y-65414423D01*
X51031442Y-65244479D01*
X50926273Y-65047721D01*
X50784739Y-64875262D01*
X50612280Y-64733728D01*
X50415522Y-64628559D01*
X50202028Y-64563796D01*
X49998558Y-64543756D01*
X48864801Y-63410000D01*
X49282255Y-62992546D01*
X49347720Y-63046272D01*
X49544478Y-63151441D01*
X49757972Y-63216204D01*
X49979999Y-63238072D01*
X49980001Y-63238072D01*
X50202028Y-63216204D01*
X50415522Y-63151441D01*
X50612280Y-63046272D01*
X50784739Y-62904738D01*
X50926273Y-62732279D01*
X51031442Y-62535521D01*
X51096205Y-62322027D01*
X51118073Y-62100000D01*
X51118073Y-61500000D01*
X51096205Y-61277973D01*
X51031442Y-61064479D01*
X51029048Y-61060000D01*
X57570952Y-61060000D01*
X57568558Y-61064479D01*
X57503795Y-61277973D01*
X57481927Y-61500000D01*
X57481927Y-62100000D01*
X57503795Y-62322027D01*
X57568558Y-62535521D01*
X57673727Y-62732279D01*
X57815261Y-62904738D01*
X57987720Y-63046272D01*
X58184478Y-63151441D01*
X58397972Y-63216204D01*
X58619999Y-63238072D01*
X58620001Y-63238072D01*
X58842028Y-63216204D01*
X59055522Y-63151441D01*
X59252280Y-63046272D01*
X59424739Y-62904738D01*
X59566273Y-62732279D01*
X59671442Y-62535521D01*
X59736205Y-62322027D01*
X59758073Y-62100000D01*
X59758073Y-61500000D01*
X59736205Y-61277973D01*
X59671442Y-61064479D01*
X59669048Y-61060000D01*
X64895845Y-61060000D01*
X64355330Y-61421161D01*
X63821161Y-61955330D01*
X63401467Y-62583446D01*
X63112377Y-63281372D01*
X62965000Y-64022285D01*
X62965000Y-64777715D01*
X63112377Y-65518628D01*
X63401467Y-66216554D01*
X63821161Y-66844670D01*
X64355330Y-67378839D01*
X64983446Y-67798533D01*
X65681372Y-68087623D01*
X66422285Y-68235000D01*
X67177715Y-68235000D01*
X67918628Y-68087623D01*
X68616554Y-67798533D01*
X69244670Y-67378839D01*
X69778839Y-66844670D01*
X70140001Y-66304153D01*
X70140000Y-79367721D01*
X70073286Y-80048126D01*
X69885057Y-80671570D01*
X69579323Y-81246573D01*
X69167721Y-81751248D01*
X68665933Y-82166362D01*
X68093077Y-82476104D01*
X67470961Y-82668682D01*
X66792417Y-82740000D01*
X41832279Y-82740000D01*
X41151874Y-82673286D01*
X40528430Y-82485057D01*
X39953427Y-82179323D01*
X39448752Y-81767721D01*
X39033638Y-81265933D01*
X38723896Y-80693077D01*
X38531318Y-80070961D01*
X38460000Y-79392417D01*
X38460000Y-78050000D01*
X38911928Y-78050000D01*
X38924188Y-78174482D01*
X38960498Y-78294180D01*
X39019463Y-78404494D01*
X39098815Y-78501185D01*
X39195506Y-78580537D01*
X39305820Y-78639502D01*
X39425518Y-78675812D01*
X39550000Y-78688072D01*
X40114250Y-78685000D01*
X40273000Y-78526250D01*
X40273000Y-77327000D01*
X39073750Y-77327000D01*
X38915000Y-77485750D01*
X38911928Y-78050000D01*
X38460000Y-78050000D01*
X38460000Y-76350000D01*
X38911928Y-76350000D01*
X38915000Y-76914250D01*
X39073750Y-77073000D01*
X40273000Y-77073000D01*
X40273000Y-75873750D01*
X40114250Y-75715000D01*
X39550000Y-75711928D01*
X39425518Y-75724188D01*
X39305820Y-75760498D01*
X39195506Y-75819463D01*
X39098815Y-75898815D01*
X39019463Y-75995506D01*
X38960498Y-76105820D01*
X38924188Y-76225518D01*
X38911928Y-76350000D01*
X38460000Y-76350000D01*
X38460000Y-70700000D01*
X43261928Y-70700000D01*
X43265000Y-71114250D01*
X43423750Y-71273000D01*
X44348000Y-71273000D01*
X44348000Y-70223750D01*
X44189250Y-70065000D01*
X43900000Y-70061928D01*
X43775518Y-70074188D01*
X43655820Y-70110498D01*
X43545506Y-70169463D01*
X43448815Y-70248815D01*
X43369463Y-70345506D01*
X43310498Y-70455820D01*
X43274188Y-70575518D01*
X43261928Y-70700000D01*
X38460000Y-70700000D01*
X38460000Y-66304155D01*
X38821161Y-66844670D01*
X39355330Y-67378839D01*
X39983446Y-67798533D01*
X40681372Y-68087623D01*
X41422285Y-68235000D01*
X42177715Y-68235000D01*
X42918628Y-68087623D01*
X43616554Y-67798533D01*
X44244670Y-67378839D01*
X44778839Y-66844670D01*
X45009140Y-66500000D01*
X45961928Y-66500000D01*
X45974188Y-66624482D01*
X46010498Y-66744180D01*
X46069463Y-66854494D01*
X46148815Y-66951185D01*
X46245506Y-67030537D01*
X46355820Y-67089502D01*
X46475518Y-67125812D01*
X46600000Y-67138072D01*
X47014250Y-67135000D01*
X47173000Y-66976250D01*
X47173000Y-66052000D01*
X47427000Y-66052000D01*
X47427000Y-66976250D01*
X47585750Y-67135000D01*
X48000000Y-67138072D01*
X48124482Y-67125812D01*
X48244180Y-67089502D01*
X48354494Y-67030537D01*
X48451185Y-66951185D01*
X48530537Y-66854494D01*
X48589502Y-66744180D01*
X48625812Y-66624482D01*
X48638072Y-66500000D01*
X48635000Y-66210750D01*
X48476250Y-66052000D01*
X47427000Y-66052000D01*
X47173000Y-66052000D01*
X46123750Y-66052000D01*
X45965000Y-66210750D01*
X45961928Y-66500000D01*
X45009140Y-66500000D01*
X45198533Y-66216554D01*
X45487623Y-65518628D01*
X45635000Y-64777715D01*
X45635000Y-64022285D01*
X45487623Y-63281372D01*
X45198533Y-62583446D01*
X44778839Y-61955330D01*
X44244670Y-61421161D01*
X43704155Y-61060000D01*
X48930952Y-61060000D01*
X48928558Y-61064479D01*
X48928558Y-61064479D01*
G37*
X48928558Y-61064479D02*
X48872313Y-61249893D01*
X48859999Y-61259999D01*
X48836201Y-61288997D01*
X47463271Y-62661928D01*
X46849999Y-62661928D01*
X46676745Y-62678992D01*
X46510149Y-62729528D01*
X46356613Y-62811595D01*
X46222038Y-62922038D01*
X46111595Y-63056613D01*
X46029528Y-63210149D01*
X45978992Y-63376745D01*
X45961928Y-63549999D01*
X45961928Y-64200001D01*
X45978992Y-64373255D01*
X46029528Y-64539851D01*
X46111595Y-64693387D01*
X46222038Y-64827962D01*
X46228594Y-64833342D01*
X46148815Y-64898815D01*
X46069463Y-64995506D01*
X46010498Y-65105820D01*
X45974188Y-65225518D01*
X45961928Y-65350000D01*
X45965000Y-65639250D01*
X46123750Y-65798000D01*
X47173000Y-65798000D01*
X47173000Y-65778000D01*
X47427000Y-65778000D01*
X47427000Y-65798000D01*
X48476250Y-65798000D01*
X48635000Y-65639250D01*
X48638072Y-65350000D01*
X48636201Y-65331003D01*
X48774223Y-65469025D01*
X48761323Y-65600000D01*
X48775997Y-65748986D01*
X48819454Y-65892247D01*
X48841927Y-65934290D01*
X48841927Y-66280000D01*
X48863795Y-66502027D01*
X48928558Y-66715521D01*
X49033727Y-66912279D01*
X49175261Y-67084738D01*
X49347720Y-67226272D01*
X49544478Y-67331441D01*
X49757972Y-67396204D01*
X49979999Y-67418072D01*
X49980001Y-67418072D01*
X50113470Y-67404926D01*
X50112002Y-67615285D01*
X50122366Y-67739939D01*
X50156849Y-67860175D01*
X50214126Y-67971375D01*
X50291997Y-68069263D01*
X50387469Y-68150078D01*
X50496873Y-68210715D01*
X50616004Y-68248844D01*
X50718250Y-68260000D01*
X50777997Y-68200253D01*
X50796873Y-68210715D01*
X50916004Y-68248844D01*
X51018250Y-68260000D01*
X51050000Y-68228250D01*
X51072998Y-68251248D01*
X51072998Y-68260000D01*
X51090199Y-68260000D01*
X50996023Y-68354176D01*
X50975724Y-68365026D01*
X50930062Y-68402500D01*
X48799823Y-68402500D01*
X48762500Y-68398824D01*
X48725177Y-68402500D01*
X48725167Y-68402500D01*
X48613514Y-68413497D01*
X48470253Y-68456954D01*
X48338224Y-68527526D01*
X48222499Y-68622499D01*
X48198701Y-68651497D01*
X46788271Y-70061928D01*
X46199999Y-70061928D01*
X46026745Y-70078992D01*
X45860149Y-70129528D01*
X45706613Y-70211595D01*
X45572038Y-70322038D01*
X45566658Y-70328594D01*
X45501185Y-70248815D01*
X45404494Y-70169463D01*
X45294180Y-70110498D01*
X45174482Y-70074188D01*
X45050000Y-70061928D01*
X44760750Y-70065000D01*
X44602000Y-70223750D01*
X44602000Y-71273000D01*
X44622000Y-71273000D01*
X44622000Y-71527000D01*
X44602000Y-71527000D01*
X44602000Y-71547000D01*
X44348000Y-71547000D01*
X44348000Y-71527000D01*
X43423750Y-71527000D01*
X43265000Y-71685750D01*
X43261928Y-72100000D01*
X43274188Y-72224482D01*
X43310498Y-72344180D01*
X43369463Y-72454494D01*
X43448815Y-72551185D01*
X43545506Y-72630537D01*
X43655820Y-72689502D01*
X43682694Y-72697654D01*
X43656613Y-72711595D01*
X43522038Y-72822038D01*
X43471509Y-72883608D01*
X43401898Y-72854774D01*
X43201939Y-72815000D01*
X42998061Y-72815000D01*
X42798102Y-72854774D01*
X42609744Y-72932795D01*
X42440226Y-73046063D01*
X42296063Y-73190226D01*
X42182795Y-73359744D01*
X42104774Y-73548102D01*
X42065000Y-73748061D01*
X42065000Y-73951939D01*
X42104774Y-74151898D01*
X42182795Y-74340256D01*
X42296063Y-74509774D01*
X42440226Y-74653937D01*
X42609744Y-74767205D01*
X42798102Y-74845226D01*
X42998061Y-74885000D01*
X43201939Y-74885000D01*
X43401898Y-74845226D01*
X43410642Y-74841604D01*
X43411595Y-74843387D01*
X43522038Y-74977962D01*
X43656613Y-75088405D01*
X43810149Y-75170472D01*
X43976745Y-75221008D01*
X44149999Y-75238072D01*
X44800001Y-75238072D01*
X44973255Y-75221008D01*
X45139851Y-75170472D01*
X45293387Y-75088405D01*
X45427962Y-74977962D01*
X45500000Y-74890184D01*
X45572038Y-74977962D01*
X45706613Y-75088405D01*
X45765001Y-75119614D01*
X45765001Y-75735885D01*
X45552950Y-75715000D01*
X45407050Y-75715000D01*
X45188889Y-75736487D01*
X44908966Y-75821401D01*
X44650986Y-75959294D01*
X44424866Y-76144866D01*
X44239294Y-76370986D01*
X44210000Y-76425791D01*
X44180706Y-76370986D01*
X43995134Y-76144866D01*
X43769014Y-75959294D01*
X43511034Y-75821401D01*
X43231111Y-75736487D01*
X43012950Y-75715000D01*
X42867050Y-75715000D01*
X42648889Y-75736487D01*
X42368966Y-75821401D01*
X42110986Y-75959294D01*
X41884866Y-76144866D01*
X41860393Y-76174687D01*
X41839502Y-76105820D01*
X41780537Y-75995506D01*
X41701185Y-75898815D01*
X41604494Y-75819463D01*
X41494180Y-75760498D01*
X41374482Y-75724188D01*
X41250000Y-75711928D01*
X40685750Y-75715000D01*
X40527000Y-75873750D01*
X40527000Y-77073000D01*
X40547000Y-77073000D01*
X40547000Y-77327000D01*
X40527000Y-77327000D01*
X40527000Y-78526250D01*
X40685750Y-78685000D01*
X41250000Y-78688072D01*
X41374482Y-78675812D01*
X41494180Y-78639502D01*
X41604494Y-78580537D01*
X41701185Y-78501185D01*
X41780537Y-78404494D01*
X41839502Y-78294180D01*
X41860393Y-78225313D01*
X41884866Y-78255134D01*
X42110986Y-78440706D01*
X42368966Y-78578599D01*
X42648889Y-78663513D01*
X42867050Y-78685000D01*
X43012950Y-78685000D01*
X43231111Y-78663513D01*
X43511034Y-78578599D01*
X43769014Y-78440706D01*
X43995134Y-78255134D01*
X44180706Y-78029014D01*
X44210000Y-77974209D01*
X44239294Y-78029014D01*
X44424866Y-78255134D01*
X44650986Y-78440706D01*
X44908966Y-78578599D01*
X45188889Y-78663513D01*
X45407050Y-78685000D01*
X45552950Y-78685000D01*
X45771111Y-78663513D01*
X46051034Y-78578599D01*
X46309014Y-78440706D01*
X46535134Y-78255134D01*
X46720706Y-78029014D01*
X46750000Y-77974209D01*
X46779294Y-78029014D01*
X46964866Y-78255134D01*
X47190986Y-78440706D01*
X47448966Y-78578599D01*
X47728889Y-78663513D01*
X47947050Y-78685000D01*
X48092950Y-78685000D01*
X48311111Y-78663513D01*
X48591034Y-78578599D01*
X48849014Y-78440706D01*
X49075134Y-78255134D01*
X49260706Y-78029014D01*
X49290000Y-77974209D01*
X49319294Y-78029014D01*
X49504866Y-78255134D01*
X49730986Y-78440706D01*
X49988966Y-78578599D01*
X50268889Y-78663513D01*
X50487050Y-78685000D01*
X50632950Y-78685000D01*
X50851111Y-78663513D01*
X51131034Y-78578599D01*
X51389014Y-78440706D01*
X51615134Y-78255134D01*
X51800706Y-78029014D01*
X51835201Y-77964477D01*
X51904822Y-78081355D01*
X52099731Y-78297588D01*
X52333080Y-78471641D01*
X52595901Y-78596825D01*
X52743110Y-78641476D01*
X52973000Y-78520155D01*
X52973000Y-77327000D01*
X52953000Y-77327000D01*
X52953000Y-77073000D01*
X52973000Y-77073000D01*
X52973000Y-75879845D01*
X52743110Y-75758524D01*
X52595901Y-75803175D01*
X52333080Y-75928359D01*
X52099731Y-76102412D01*
X51904822Y-76318645D01*
X51835201Y-76435523D01*
X51800706Y-76370986D01*
X51615134Y-76144866D01*
X51389014Y-75959294D01*
X51131034Y-75821401D01*
X50851111Y-75736487D01*
X50632950Y-75715000D01*
X50579802Y-75715000D01*
X50986003Y-75308799D01*
X51015001Y-75285001D01*
X51098764Y-75182936D01*
X51139851Y-75170472D01*
X51293387Y-75088405D01*
X51427962Y-74977962D01*
X51500000Y-74890184D01*
X51572038Y-74977962D01*
X51706613Y-75088405D01*
X51860149Y-75170472D01*
X52026745Y-75221008D01*
X52199999Y-75238072D01*
X52850001Y-75238072D01*
X53023255Y-75221008D01*
X53189851Y-75170472D01*
X53343387Y-75088405D01*
X53477962Y-74977962D01*
X53559115Y-74879077D01*
X53598102Y-74895226D01*
X53798061Y-74935000D01*
X54001939Y-74935000D01*
X54201898Y-74895226D01*
X54390256Y-74817205D01*
X54559774Y-74703937D01*
X54703937Y-74559774D01*
X54817205Y-74390256D01*
X54880001Y-74238655D01*
X54880001Y-75922405D01*
X54810986Y-75959294D01*
X54584866Y-76144866D01*
X54399294Y-76370986D01*
X54364799Y-76435523D01*
X54295178Y-76318645D01*
X54100269Y-76102412D01*
X53866920Y-75928359D01*
X53604099Y-75803175D01*
X53456890Y-75758524D01*
X53227000Y-75879845D01*
X53227000Y-77073000D01*
X53247000Y-77073000D01*
X53247000Y-77327000D01*
X53227000Y-77327000D01*
X53227000Y-78520155D01*
X53456890Y-78641476D01*
X53604099Y-78596825D01*
X53866920Y-78471641D01*
X54100269Y-78297588D01*
X54295178Y-78081355D01*
X54364799Y-77964477D01*
X54399294Y-78029014D01*
X54584866Y-78255134D01*
X54810986Y-78440706D01*
X55068966Y-78578599D01*
X55348889Y-78663513D01*
X55567050Y-78685000D01*
X55712950Y-78685000D01*
X55931111Y-78663513D01*
X56211034Y-78578599D01*
X56469014Y-78440706D01*
X56695134Y-78255134D01*
X56880706Y-78029014D01*
X56910000Y-77974209D01*
X56939294Y-78029014D01*
X57124866Y-78255134D01*
X57350986Y-78440706D01*
X57608966Y-78578599D01*
X57888889Y-78663513D01*
X58107050Y-78685000D01*
X58252950Y-78685000D01*
X58471111Y-78663513D01*
X58751034Y-78578599D01*
X59009014Y-78440706D01*
X59235134Y-78255134D01*
X59420706Y-78029014D01*
X59450000Y-77974209D01*
X59479294Y-78029014D01*
X59664866Y-78255134D01*
X59890986Y-78440706D01*
X60148966Y-78578599D01*
X60428889Y-78663513D01*
X60647050Y-78685000D01*
X60792950Y-78685000D01*
X61011111Y-78663513D01*
X61291034Y-78578599D01*
X61549014Y-78440706D01*
X61775134Y-78255134D01*
X61960706Y-78029014D01*
X61990000Y-77974209D01*
X62019294Y-78029014D01*
X62204866Y-78255134D01*
X62430986Y-78440706D01*
X62688966Y-78578599D01*
X62968889Y-78663513D01*
X63187050Y-78685000D01*
X63332950Y-78685000D01*
X63551111Y-78663513D01*
X63831034Y-78578599D01*
X64089014Y-78440706D01*
X64315134Y-78255134D01*
X64500706Y-78029014D01*
X64530000Y-77974209D01*
X64559294Y-78029014D01*
X64744866Y-78255134D01*
X64970986Y-78440706D01*
X65228966Y-78578599D01*
X65508889Y-78663513D01*
X65727050Y-78685000D01*
X65872950Y-78685000D01*
X66091111Y-78663513D01*
X66371034Y-78578599D01*
X66629014Y-78440706D01*
X66855134Y-78255134D01*
X67040706Y-78029014D01*
X67070000Y-77974209D01*
X67099294Y-78029014D01*
X67284866Y-78255134D01*
X67510986Y-78440706D01*
X67768966Y-78578599D01*
X68048889Y-78663513D01*
X68267050Y-78685000D01*
X68412950Y-78685000D01*
X68631111Y-78663513D01*
X68911034Y-78578599D01*
X69169014Y-78440706D01*
X69395134Y-78255134D01*
X69580706Y-78029014D01*
X69718599Y-77771034D01*
X69803513Y-77491111D01*
X69832185Y-77200000D01*
X69803513Y-76908889D01*
X69718599Y-76628966D01*
X69580706Y-76370986D01*
X69395134Y-76144866D01*
X69169014Y-75959294D01*
X69100000Y-75922405D01*
X69100000Y-75504320D01*
X69103676Y-75466997D01*
X69100000Y-75429674D01*
X69100000Y-75429665D01*
X69089003Y-75318012D01*
X69045546Y-75174751D01*
X68974974Y-75042722D01*
X68880001Y-74926997D01*
X68851004Y-74903200D01*
X65236806Y-71289003D01*
X65213003Y-71259999D01*
X65097278Y-71165026D01*
X64965249Y-71094454D01*
X64821988Y-71050997D01*
X64710335Y-71040000D01*
X64710324Y-71040000D01*
X64673002Y-71036324D01*
X64635680Y-71040000D01*
X60289802Y-71040000D01*
X57509801Y-68260000D01*
X57527002Y-68260000D01*
X57527002Y-68251248D01*
X57550000Y-68228250D01*
X57581750Y-68260000D01*
X57683996Y-68248844D01*
X57803127Y-68210715D01*
X57822003Y-68200253D01*
X57881750Y-68260000D01*
X57983996Y-68248844D01*
X58103127Y-68210715D01*
X58212531Y-68150078D01*
X58308003Y-68069263D01*
X58385874Y-67971375D01*
X58443151Y-67860175D01*
X58477634Y-67739939D01*
X58487998Y-67615285D01*
X58486530Y-67404926D01*
X58619999Y-67418072D01*
X58620001Y-67418072D01*
X58842028Y-67396204D01*
X59055522Y-67331441D01*
X59252280Y-67226272D01*
X59424739Y-67084738D01*
X59566273Y-66912279D01*
X59671442Y-66715521D01*
X59736205Y-66502027D01*
X59758073Y-66280000D01*
X59758073Y-65680000D01*
X59736205Y-65457973D01*
X59671442Y-65244479D01*
X59566273Y-65047721D01*
X59424739Y-64875262D01*
X59252280Y-64733728D01*
X59055522Y-64628559D01*
X58842028Y-64563796D01*
X58620001Y-64541928D01*
X58619999Y-64541928D01*
X58397972Y-64563796D01*
X58184478Y-64628559D01*
X57987720Y-64733728D01*
X57874028Y-64827033D01*
X57805824Y-64662376D01*
X57681612Y-64476480D01*
X57523520Y-64318388D01*
X57337624Y-64194176D01*
X57131067Y-64108617D01*
X56911788Y-64065000D01*
X56688212Y-64065000D01*
X56468933Y-64108617D01*
X56262376Y-64194176D01*
X56076480Y-64318388D01*
X56023226Y-64371642D01*
X55890256Y-64282795D01*
X55701898Y-64204774D01*
X55501939Y-64165000D01*
X55298061Y-64165000D01*
X55098102Y-64204774D01*
X54909744Y-64282795D01*
X54740226Y-64396063D01*
X54596063Y-64540226D01*
X54482795Y-64709744D01*
X54404774Y-64898102D01*
X54365000Y-65098061D01*
X54365000Y-65301939D01*
X54404774Y-65501898D01*
X54419284Y-65536928D01*
X54400000Y-65536928D01*
X54300000Y-65546777D01*
X54200000Y-65536928D01*
X53900000Y-65536928D01*
X53800000Y-65546777D01*
X53700000Y-65536928D01*
X53488955Y-65536928D01*
X53491383Y-65531067D01*
X53535000Y-65311788D01*
X53535000Y-65088212D01*
X53491383Y-64868933D01*
X53405824Y-64662376D01*
X53281612Y-64476480D01*
X53123520Y-64318388D01*
X52937624Y-64194176D01*
X52731067Y-64108617D01*
X52511788Y-64065000D01*
X52288212Y-64065000D01*
X52068933Y-64108617D01*
X51862376Y-64194176D01*
X51676480Y-64318388D01*
X51518388Y-64476480D01*
X51394176Y-64662376D01*
X51308617Y-64868933D01*
X51265000Y-65088212D01*
X51265000Y-65224843D01*
X51172185Y-65317658D01*
X51142237Y-65342236D01*
X51117659Y-65372184D01*
X51117655Y-65372188D01*
X51084690Y-65412356D01*
X51082994Y-65414423D01*
X51031442Y-65244479D01*
X50926273Y-65047721D01*
X50784739Y-64875262D01*
X50612280Y-64733728D01*
X50415522Y-64628559D01*
X50202028Y-64563796D01*
X49998558Y-64543756D01*
X48864801Y-63410000D01*
X49282255Y-62992546D01*
X49347720Y-63046272D01*
X49544478Y-63151441D01*
X49757972Y-63216204D01*
X49979999Y-63238072D01*
X49980001Y-63238072D01*
X50202028Y-63216204D01*
X50415522Y-63151441D01*
X50612280Y-63046272D01*
X50784739Y-62904738D01*
X50926273Y-62732279D01*
X51031442Y-62535521D01*
X51096205Y-62322027D01*
X51118073Y-62100000D01*
X51118073Y-61500000D01*
X51096205Y-61277973D01*
X51031442Y-61064479D01*
X51029048Y-61060000D01*
X57570952Y-61060000D01*
X57568558Y-61064479D01*
X57503795Y-61277973D01*
X57481927Y-61500000D01*
X57481927Y-62100000D01*
X57503795Y-62322027D01*
X57568558Y-62535521D01*
X57673727Y-62732279D01*
X57815261Y-62904738D01*
X57987720Y-63046272D01*
X58184478Y-63151441D01*
X58397972Y-63216204D01*
X58619999Y-63238072D01*
X58620001Y-63238072D01*
X58842028Y-63216204D01*
X59055522Y-63151441D01*
X59252280Y-63046272D01*
X59424739Y-62904738D01*
X59566273Y-62732279D01*
X59671442Y-62535521D01*
X59736205Y-62322027D01*
X59758073Y-62100000D01*
X59758073Y-61500000D01*
X59736205Y-61277973D01*
X59671442Y-61064479D01*
X59669048Y-61060000D01*
X64895845Y-61060000D01*
X64355330Y-61421161D01*
X63821161Y-61955330D01*
X63401467Y-62583446D01*
X63112377Y-63281372D01*
X62965000Y-64022285D01*
X62965000Y-64777715D01*
X63112377Y-65518628D01*
X63401467Y-66216554D01*
X63821161Y-66844670D01*
X64355330Y-67378839D01*
X64983446Y-67798533D01*
X65681372Y-68087623D01*
X66422285Y-68235000D01*
X67177715Y-68235000D01*
X67918628Y-68087623D01*
X68616554Y-67798533D01*
X69244670Y-67378839D01*
X69778839Y-66844670D01*
X70140001Y-66304153D01*
X70140000Y-79367721D01*
X70073286Y-80048126D01*
X69885057Y-80671570D01*
X69579323Y-81246573D01*
X69167721Y-81751248D01*
X68665933Y-82166362D01*
X68093077Y-82476104D01*
X67470961Y-82668682D01*
X66792417Y-82740000D01*
X41832279Y-82740000D01*
X41151874Y-82673286D01*
X40528430Y-82485057D01*
X39953427Y-82179323D01*
X39448752Y-81767721D01*
X39033638Y-81265933D01*
X38723896Y-80693077D01*
X38531318Y-80070961D01*
X38460000Y-79392417D01*
X38460000Y-78050000D01*
X38911928Y-78050000D01*
X38924188Y-78174482D01*
X38960498Y-78294180D01*
X39019463Y-78404494D01*
X39098815Y-78501185D01*
X39195506Y-78580537D01*
X39305820Y-78639502D01*
X39425518Y-78675812D01*
X39550000Y-78688072D01*
X40114250Y-78685000D01*
X40273000Y-78526250D01*
X40273000Y-77327000D01*
X39073750Y-77327000D01*
X38915000Y-77485750D01*
X38911928Y-78050000D01*
X38460000Y-78050000D01*
X38460000Y-76350000D01*
X38911928Y-76350000D01*
X38915000Y-76914250D01*
X39073750Y-77073000D01*
X40273000Y-77073000D01*
X40273000Y-75873750D01*
X40114250Y-75715000D01*
X39550000Y-75711928D01*
X39425518Y-75724188D01*
X39305820Y-75760498D01*
X39195506Y-75819463D01*
X39098815Y-75898815D01*
X39019463Y-75995506D01*
X38960498Y-76105820D01*
X38924188Y-76225518D01*
X38911928Y-76350000D01*
X38460000Y-76350000D01*
X38460000Y-70700000D01*
X43261928Y-70700000D01*
X43265000Y-71114250D01*
X43423750Y-71273000D01*
X44348000Y-71273000D01*
X44348000Y-70223750D01*
X44189250Y-70065000D01*
X43900000Y-70061928D01*
X43775518Y-70074188D01*
X43655820Y-70110498D01*
X43545506Y-70169463D01*
X43448815Y-70248815D01*
X43369463Y-70345506D01*
X43310498Y-70455820D01*
X43274188Y-70575518D01*
X43261928Y-70700000D01*
X38460000Y-70700000D01*
X38460000Y-66304155D01*
X38821161Y-66844670D01*
X39355330Y-67378839D01*
X39983446Y-67798533D01*
X40681372Y-68087623D01*
X41422285Y-68235000D01*
X42177715Y-68235000D01*
X42918628Y-68087623D01*
X43616554Y-67798533D01*
X44244670Y-67378839D01*
X44778839Y-66844670D01*
X45009140Y-66500000D01*
X45961928Y-66500000D01*
X45974188Y-66624482D01*
X46010498Y-66744180D01*
X46069463Y-66854494D01*
X46148815Y-66951185D01*
X46245506Y-67030537D01*
X46355820Y-67089502D01*
X46475518Y-67125812D01*
X46600000Y-67138072D01*
X47014250Y-67135000D01*
X47173000Y-66976250D01*
X47173000Y-66052000D01*
X47427000Y-66052000D01*
X47427000Y-66976250D01*
X47585750Y-67135000D01*
X48000000Y-67138072D01*
X48124482Y-67125812D01*
X48244180Y-67089502D01*
X48354494Y-67030537D01*
X48451185Y-66951185D01*
X48530537Y-66854494D01*
X48589502Y-66744180D01*
X48625812Y-66624482D01*
X48638072Y-66500000D01*
X48635000Y-66210750D01*
X48476250Y-66052000D01*
X47427000Y-66052000D01*
X47173000Y-66052000D01*
X46123750Y-66052000D01*
X45965000Y-66210750D01*
X45961928Y-66500000D01*
X45009140Y-66500000D01*
X45198533Y-66216554D01*
X45487623Y-65518628D01*
X45635000Y-64777715D01*
X45635000Y-64022285D01*
X45487623Y-63281372D01*
X45198533Y-62583446D01*
X44778839Y-61955330D01*
X44244670Y-61421161D01*
X43704155Y-61060000D01*
X48930952Y-61060000D01*
X48928558Y-61064479D01*
G36*
X57420001Y-72694803D02*
G01*
X57420000Y-75922405D01*
X57350986Y-75959294D01*
X57124866Y-76144866D01*
X56939294Y-76370986D01*
X56910000Y-76425791D01*
X56880706Y-76370986D01*
X56695134Y-76144866D01*
X56469014Y-75959294D01*
X56400000Y-75922405D01*
X56400000Y-71674802D01*
X57420001Y-72694803D01*
X57420001Y-72694803D01*
G37*
X57420001Y-72694803D02*
X57420000Y-75922405D01*
X57350986Y-75959294D01*
X57124866Y-76144866D01*
X56939294Y-76370986D01*
X56910000Y-76425791D01*
X56880706Y-76370986D01*
X56695134Y-76144866D01*
X56469014Y-75959294D01*
X56400000Y-75922405D01*
X56400000Y-71674802D01*
X57420001Y-72694803D01*
G36*
X67580000Y-75781800D02*
G01*
X67580000Y-75922405D01*
X67510986Y-75959294D01*
X67284866Y-76144866D01*
X67099294Y-76370986D01*
X67070000Y-76425791D01*
X67040706Y-76370986D01*
X66855134Y-76144866D01*
X66629014Y-75959294D01*
X66560000Y-75922405D01*
X66560000Y-74761800D01*
X67580000Y-75781800D01*
X67580000Y-75781800D01*
G37*
X67580000Y-75781800D02*
X67580000Y-75922405D01*
X67510986Y-75959294D01*
X67284866Y-76144866D01*
X67099294Y-76370986D01*
X67070000Y-76425791D01*
X67040706Y-76370986D01*
X66855134Y-76144866D01*
X66629014Y-75959294D01*
X66560000Y-75922405D01*
X66560000Y-74761800D01*
X67580000Y-75781800D01*
G36*
X59960000Y-74471212D02*
G01*
X59960001Y-75922405D01*
X59890986Y-75959294D01*
X59664866Y-76144866D01*
X59479294Y-76370986D01*
X59450000Y-76425791D01*
X59420706Y-76370986D01*
X59235134Y-76144866D01*
X59009014Y-75959294D01*
X58940000Y-75922405D01*
X58940000Y-73451212D01*
X59960000Y-74471212D01*
X59960000Y-74471212D01*
G37*
X59960000Y-74471212D02*
X59960001Y-75922405D01*
X59890986Y-75959294D01*
X59664866Y-76144866D01*
X59479294Y-76370986D01*
X59450000Y-76425791D01*
X59420706Y-76370986D01*
X59235134Y-76144866D01*
X59009014Y-75959294D01*
X58940000Y-75922405D01*
X58940000Y-73451212D01*
X59960000Y-74471212D01*
G36*
X62500000Y-75374802D02*
G01*
X62500001Y-75922405D01*
X62430986Y-75959294D01*
X62204866Y-76144866D01*
X62019294Y-76370986D01*
X61990000Y-76425791D01*
X61960706Y-76370986D01*
X61775134Y-76144866D01*
X61549014Y-75959294D01*
X61480000Y-75922405D01*
X61480000Y-74560000D01*
X61685199Y-74560000D01*
X62500000Y-75374802D01*
X62500000Y-75374802D01*
G37*
X62500000Y-75374802D02*
X62500001Y-75922405D01*
X62430986Y-75959294D01*
X62204866Y-76144866D01*
X62019294Y-76370986D01*
X61990000Y-76425791D01*
X61960706Y-76370986D01*
X61775134Y-76144866D01*
X61549014Y-75959294D01*
X61480000Y-75922405D01*
X61480000Y-74560000D01*
X61685199Y-74560000D01*
X62500000Y-75374802D01*
G36*
X63365000Y-72701939D02*
G01*
X63404774Y-72901898D01*
X63482795Y-73090256D01*
X63596063Y-73259774D01*
X63740226Y-73403937D01*
X63909744Y-73517205D01*
X64098102Y-73595226D01*
X64298061Y-73635000D01*
X64360199Y-73635000D01*
X65040000Y-74314802D01*
X65040001Y-75489656D01*
X65040000Y-75489666D01*
X65040000Y-75922405D01*
X64970986Y-75959294D01*
X64744866Y-76144866D01*
X64559294Y-76370986D01*
X64530000Y-76425791D01*
X64500706Y-76370986D01*
X64315134Y-76144866D01*
X64089014Y-75959294D01*
X64020000Y-75922405D01*
X64020000Y-75097322D01*
X64023676Y-75059999D01*
X64020000Y-75022676D01*
X64020000Y-75022667D01*
X64009003Y-74911014D01*
X63965546Y-74767753D01*
X63940133Y-74720209D01*
X63894974Y-74635723D01*
X63823799Y-74548997D01*
X63800001Y-74519999D01*
X63771004Y-74496202D01*
X62563804Y-73289003D01*
X62540001Y-73259999D01*
X62424276Y-73165026D01*
X62292247Y-73094454D01*
X62148986Y-73050997D01*
X62037333Y-73040000D01*
X62037322Y-73040000D01*
X62000000Y-73036324D01*
X61962678Y-73040000D01*
X61314802Y-73040000D01*
X60834802Y-72560000D01*
X63365000Y-72560000D01*
X63365000Y-72701939D01*
X63365000Y-72701939D01*
G37*
X63365000Y-72701939D02*
X63404774Y-72901898D01*
X63482795Y-73090256D01*
X63596063Y-73259774D01*
X63740226Y-73403937D01*
X63909744Y-73517205D01*
X64098102Y-73595226D01*
X64298061Y-73635000D01*
X64360199Y-73635000D01*
X65040000Y-74314802D01*
X65040001Y-75489656D01*
X65040000Y-75489666D01*
X65040000Y-75922405D01*
X64970986Y-75959294D01*
X64744866Y-76144866D01*
X64559294Y-76370986D01*
X64530000Y-76425791D01*
X64500706Y-76370986D01*
X64315134Y-76144866D01*
X64089014Y-75959294D01*
X64020000Y-75922405D01*
X64020000Y-75097322D01*
X64023676Y-75059999D01*
X64020000Y-75022676D01*
X64020000Y-75022667D01*
X64009003Y-74911014D01*
X63965546Y-74767753D01*
X63940133Y-74720209D01*
X63894974Y-74635723D01*
X63823799Y-74548997D01*
X63800001Y-74519999D01*
X63771004Y-74496202D01*
X62563804Y-73289003D01*
X62540001Y-73259999D01*
X62424276Y-73165026D01*
X62292247Y-73094454D01*
X62148986Y-73050997D01*
X62037333Y-73040000D01*
X62037322Y-73040000D01*
X62000000Y-73036324D01*
X61962678Y-73040000D01*
X61314802Y-73040000D01*
X60834802Y-72560000D01*
X63365000Y-72560000D01*
X63365000Y-72701939D01*
G36*
X49840026Y-69930138D02*
G01*
X49769454Y-70062168D01*
X49745776Y-70140226D01*
X49737192Y-70168524D01*
X49656613Y-70211595D01*
X49522038Y-70322038D01*
X49411595Y-70456613D01*
X49329528Y-70610149D01*
X49278992Y-70776745D01*
X49261928Y-70949999D01*
X49261928Y-71850001D01*
X49278992Y-72023255D01*
X49329528Y-72189851D01*
X49411595Y-72343387D01*
X49522038Y-72477962D01*
X49656613Y-72588405D01*
X49715000Y-72619614D01*
X49715001Y-72680386D01*
X49656613Y-72711595D01*
X49522038Y-72822038D01*
X49411595Y-72956613D01*
X49329528Y-73110149D01*
X49278992Y-73276745D01*
X49261928Y-73449999D01*
X49261928Y-74350001D01*
X49278992Y-74523255D01*
X49329528Y-74689851D01*
X49373354Y-74771844D01*
X48385996Y-75759203D01*
X48311111Y-75736487D01*
X48092950Y-75715000D01*
X47947050Y-75715000D01*
X47728889Y-75736487D01*
X47448966Y-75821401D01*
X47285000Y-75909043D01*
X47285000Y-75119614D01*
X47343387Y-75088405D01*
X47477962Y-74977962D01*
X47588405Y-74843387D01*
X47670472Y-74689851D01*
X47721008Y-74523255D01*
X47738072Y-74350001D01*
X47738072Y-73449999D01*
X47721008Y-73276745D01*
X47670472Y-73110149D01*
X47588405Y-72956613D01*
X47477962Y-72822038D01*
X47343387Y-72711595D01*
X47285000Y-72680386D01*
X47285000Y-72619614D01*
X47343387Y-72588405D01*
X47477962Y-72477962D01*
X47588405Y-72343387D01*
X47670472Y-72189851D01*
X47721008Y-72023255D01*
X47738072Y-71850001D01*
X47738072Y-71261729D01*
X49077302Y-69922500D01*
X49846294Y-69922500D01*
X49840026Y-69930138D01*
X49840026Y-69930138D01*
G37*
X49840026Y-69930138D02*
X49769454Y-70062168D01*
X49745776Y-70140226D01*
X49737192Y-70168524D01*
X49656613Y-70211595D01*
X49522038Y-70322038D01*
X49411595Y-70456613D01*
X49329528Y-70610149D01*
X49278992Y-70776745D01*
X49261928Y-70949999D01*
X49261928Y-71850001D01*
X49278992Y-72023255D01*
X49329528Y-72189851D01*
X49411595Y-72343387D01*
X49522038Y-72477962D01*
X49656613Y-72588405D01*
X49715000Y-72619614D01*
X49715001Y-72680386D01*
X49656613Y-72711595D01*
X49522038Y-72822038D01*
X49411595Y-72956613D01*
X49329528Y-73110149D01*
X49278992Y-73276745D01*
X49261928Y-73449999D01*
X49261928Y-74350001D01*
X49278992Y-74523255D01*
X49329528Y-74689851D01*
X49373354Y-74771844D01*
X48385996Y-75759203D01*
X48311111Y-75736487D01*
X48092950Y-75715000D01*
X47947050Y-75715000D01*
X47728889Y-75736487D01*
X47448966Y-75821401D01*
X47285000Y-75909043D01*
X47285000Y-75119614D01*
X47343387Y-75088405D01*
X47477962Y-74977962D01*
X47588405Y-74843387D01*
X47670472Y-74689851D01*
X47721008Y-74523255D01*
X47738072Y-74350001D01*
X47738072Y-73449999D01*
X47721008Y-73276745D01*
X47670472Y-73110149D01*
X47588405Y-72956613D01*
X47477962Y-72822038D01*
X47343387Y-72711595D01*
X47285000Y-72680386D01*
X47285000Y-72619614D01*
X47343387Y-72588405D01*
X47477962Y-72477962D01*
X47588405Y-72343387D01*
X47670472Y-72189851D01*
X47721008Y-72023255D01*
X47738072Y-71850001D01*
X47738072Y-71261729D01*
X49077302Y-69922500D01*
X49846294Y-69922500D01*
X49840026Y-69930138D01*
G36*
X52290000Y-69212677D02*
G01*
X52286324Y-69250000D01*
X52290000Y-69287322D01*
X52290000Y-69287332D01*
X52300997Y-69398985D01*
X52343773Y-69540001D01*
X52344454Y-69542246D01*
X52415026Y-69674276D01*
X52438190Y-69702501D01*
X52509999Y-69790001D01*
X52539003Y-69813804D01*
X52800474Y-70075276D01*
X52652000Y-70223750D01*
X52652000Y-71273000D01*
X53576250Y-71273000D01*
X53646534Y-71202716D01*
X53682795Y-71290256D01*
X53796063Y-71459774D01*
X53940226Y-71603937D01*
X54109744Y-71717205D01*
X54298102Y-71795226D01*
X54498061Y-71835000D01*
X54701939Y-71835000D01*
X54880000Y-71799582D01*
X54880000Y-73561345D01*
X54817205Y-73409744D01*
X54703937Y-73240226D01*
X54559774Y-73096063D01*
X54390256Y-72982795D01*
X54201898Y-72904774D01*
X54001939Y-72865000D01*
X53798061Y-72865000D01*
X53598102Y-72904774D01*
X53559115Y-72920923D01*
X53477962Y-72822038D01*
X53343387Y-72711595D01*
X53317306Y-72697654D01*
X53344180Y-72689502D01*
X53454494Y-72630537D01*
X53551185Y-72551185D01*
X53630537Y-72454494D01*
X53689502Y-72344180D01*
X53725812Y-72224482D01*
X53738072Y-72100000D01*
X53735000Y-71685750D01*
X53576250Y-71527000D01*
X52652000Y-71527000D01*
X52652000Y-71547000D01*
X52398000Y-71547000D01*
X52398000Y-71527000D01*
X52378000Y-71527000D01*
X52378000Y-71273000D01*
X52398000Y-71273000D01*
X52398000Y-70223750D01*
X52239250Y-70065000D01*
X51962461Y-70062060D01*
X51976904Y-69989449D01*
X51976904Y-69785571D01*
X51937130Y-69585612D01*
X51930101Y-69568643D01*
X51965001Y-69540001D01*
X51988804Y-69510998D01*
X52290000Y-69209801D01*
X52290000Y-69212677D01*
X52290000Y-69212677D01*
G37*
X52290000Y-69212677D02*
X52286324Y-69250000D01*
X52290000Y-69287322D01*
X52290000Y-69287332D01*
X52300997Y-69398985D01*
X52343773Y-69540001D01*
X52344454Y-69542246D01*
X52415026Y-69674276D01*
X52438190Y-69702501D01*
X52509999Y-69790001D01*
X52539003Y-69813804D01*
X52800474Y-70075276D01*
X52652000Y-70223750D01*
X52652000Y-71273000D01*
X53576250Y-71273000D01*
X53646534Y-71202716D01*
X53682795Y-71290256D01*
X53796063Y-71459774D01*
X53940226Y-71603937D01*
X54109744Y-71717205D01*
X54298102Y-71795226D01*
X54498061Y-71835000D01*
X54701939Y-71835000D01*
X54880000Y-71799582D01*
X54880000Y-73561345D01*
X54817205Y-73409744D01*
X54703937Y-73240226D01*
X54559774Y-73096063D01*
X54390256Y-72982795D01*
X54201898Y-72904774D01*
X54001939Y-72865000D01*
X53798061Y-72865000D01*
X53598102Y-72904774D01*
X53559115Y-72920923D01*
X53477962Y-72822038D01*
X53343387Y-72711595D01*
X53317306Y-72697654D01*
X53344180Y-72689502D01*
X53454494Y-72630537D01*
X53551185Y-72551185D01*
X53630537Y-72454494D01*
X53689502Y-72344180D01*
X53725812Y-72224482D01*
X53738072Y-72100000D01*
X53735000Y-71685750D01*
X53576250Y-71527000D01*
X52652000Y-71527000D01*
X52652000Y-71547000D01*
X52398000Y-71547000D01*
X52398000Y-71527000D01*
X52378000Y-71527000D01*
X52378000Y-71273000D01*
X52398000Y-71273000D01*
X52398000Y-70223750D01*
X52239250Y-70065000D01*
X51962461Y-70062060D01*
X51976904Y-69989449D01*
X51976904Y-69785571D01*
X51937130Y-69585612D01*
X51930101Y-69568643D01*
X51965001Y-69540001D01*
X51988804Y-69510998D01*
X52290000Y-69209801D01*
X52290000Y-69212677D01*
M02*
