G04 #@! TF.GenerationSoftware,KiCad,Pcbnew,(5.1.2-1)-1*
G04 #@! TF.CreationDate,2020-04-26T15:35:38+02:00*
G04 #@! TF.ProjectId,USB-C-USB-3.2,5553422d-432d-4555-9342-2d332e322e6b,rev?*
G04 #@! TF.SameCoordinates,Original*
G04 #@! TF.FileFunction,Copper,L2,Bot*
G04 #@! TF.FilePolarity,Positive*
%FSLAX46Y46*%
G04 Gerber Fmt 4.6, Leading zero omitted, Abs format (unit mm)*
G04 Created by KiCad (PCBNEW (5.1.2-1)-1) date 2020-04-26 15:35:38*
%MOMM*%
%LPD*%
G04 APERTURE LIST*
%ADD10O,1.700000X1.700000*%
%ADD11R,1.700000X1.700000*%
%ADD12C,0.650000*%
%ADD13O,0.800000X1.400000*%
%ADD14C,6.400000*%
%ADD15C,0.800000*%
%ADD16C,0.200000*%
%ADD17C,0.254000*%
G04 APERTURE END LIST*
D10*
X101550000Y-77000000D03*
X99010000Y-77000000D03*
X96470000Y-77000000D03*
X93930000Y-77000000D03*
X91390000Y-77000000D03*
X88850000Y-77000000D03*
X86310000Y-77000000D03*
X83770000Y-77000000D03*
X81230000Y-77000000D03*
X78690000Y-77000000D03*
X76150000Y-77000000D03*
X73610000Y-77000000D03*
X71070000Y-77000000D03*
X68530000Y-77000000D03*
X65990000Y-77000000D03*
D11*
X63450000Y-77000000D03*
D12*
X84900000Y-64610000D03*
X84100000Y-64610000D03*
X83300000Y-64610000D03*
X81700000Y-64610000D03*
X80900000Y-64610000D03*
X80100000Y-64610000D03*
X85300000Y-65310000D03*
X83700000Y-65310000D03*
X82900000Y-65310000D03*
X82100000Y-65310000D03*
X81300000Y-65310000D03*
X79700000Y-65310000D03*
D13*
X86990000Y-58760000D03*
X78010000Y-58760000D03*
X78370000Y-64710000D03*
X86630000Y-64710000D03*
D14*
X95000000Y-61000000D03*
D15*
X71697056Y-59302944D03*
X70000000Y-58600000D03*
X68302944Y-59302944D03*
X67600000Y-61000000D03*
X68302944Y-62697056D03*
X70000000Y-63400000D03*
X71697056Y-62697056D03*
X72400000Y-61000000D03*
D14*
X70000000Y-61000000D03*
D15*
X85900000Y-68700000D03*
X80780000Y-74740000D03*
X84100000Y-74700000D03*
X75000000Y-74700000D03*
X90000000Y-74600000D03*
X70900000Y-74700000D03*
X94700000Y-74600000D03*
X83900000Y-61600000D03*
X81500000Y-67900000D03*
X83500000Y-67900000D03*
X80300000Y-59600000D03*
X82600000Y-63100000D03*
D16*
X80975001Y-65634999D02*
X80975001Y-65824999D01*
X81300000Y-65310000D02*
X80975001Y-65634999D01*
X80975001Y-65824999D02*
X80400000Y-66400000D01*
X81300000Y-65310000D02*
X81300000Y-66300000D01*
X83700000Y-65310000D02*
X83700000Y-66400000D01*
X83700000Y-65310000D02*
X84700000Y-66310000D01*
X80800000Y-74720000D02*
X80780000Y-74740000D01*
X84100000Y-74700000D02*
X80800000Y-74720000D01*
X85500001Y-69099999D02*
X85900000Y-68700000D01*
X85500001Y-69109999D02*
X85500001Y-69099999D01*
X84100000Y-70700000D02*
X85500001Y-69109999D01*
X84100000Y-74700000D02*
X84100000Y-70700000D01*
X75040000Y-74740000D02*
X75000000Y-74700000D01*
X80780000Y-74740000D02*
X75040000Y-74740000D01*
X89900000Y-74700000D02*
X90000000Y-74600000D01*
X84100000Y-74700000D02*
X89900000Y-74700000D01*
X75000000Y-74700000D02*
X70900000Y-74700000D01*
X90000000Y-74600000D02*
X94700000Y-74600000D01*
X88000000Y-61600000D02*
X99010000Y-72610000D01*
X99010000Y-72610000D02*
X99010000Y-77000000D01*
X83900000Y-61600000D02*
X88000000Y-61600000D01*
X65990000Y-75670000D02*
X65990000Y-77000000D01*
X68610000Y-73050000D02*
X65990000Y-75670000D01*
X76350000Y-73050000D02*
X68610000Y-73050000D01*
X81500000Y-67900000D02*
X76350000Y-73050000D01*
X96470000Y-77000000D02*
X96470000Y-71070000D01*
X87799998Y-62399998D02*
X82263998Y-62399998D01*
X96470000Y-71070000D02*
X87799998Y-62399998D01*
X82263998Y-62399998D02*
X81700000Y-62963996D01*
X81700000Y-62963996D02*
X81700000Y-64610000D01*
X83500000Y-67900000D02*
X77590000Y-73810000D01*
X77590000Y-73810000D02*
X70420000Y-73810000D01*
X68530000Y-75700000D02*
X68530000Y-77000000D01*
X70420000Y-73810000D02*
X68530000Y-75700000D01*
X78010000Y-58460000D02*
X78010000Y-58760000D01*
X78770000Y-57700000D02*
X78010000Y-58460000D01*
X86990000Y-58460000D02*
X86230000Y-57700000D01*
X86230000Y-57700000D02*
X78770000Y-57700000D01*
X86990000Y-58760000D02*
X86990000Y-58460000D01*
X80300000Y-62480000D02*
X80300000Y-59600000D01*
X78370000Y-64410000D02*
X80300000Y-62480000D01*
X78370000Y-64710000D02*
X78370000Y-64410000D01*
X86630000Y-64710000D02*
X86630000Y-64410000D01*
X85320000Y-63100000D02*
X82600000Y-63100000D01*
X86630000Y-64410000D02*
X85320000Y-63100000D01*
D17*
G36*
X67555330Y-58021161D02*
G01*
X67021161Y-58555330D01*
X66601467Y-59183446D01*
X66312377Y-59881372D01*
X66165000Y-60622285D01*
X66165000Y-61377715D01*
X66312377Y-62118628D01*
X66601467Y-62816554D01*
X67021161Y-63444670D01*
X67555330Y-63978839D01*
X68183446Y-64398533D01*
X68881372Y-64687623D01*
X69622285Y-64835000D01*
X70377715Y-64835000D01*
X71118628Y-64687623D01*
X71816554Y-64398533D01*
X72444670Y-63978839D01*
X72978839Y-63444670D01*
X73398533Y-62816554D01*
X73687623Y-62118628D01*
X73835000Y-61377715D01*
X73835000Y-60622285D01*
X73687623Y-59881372D01*
X73398533Y-59183446D01*
X72978839Y-58555330D01*
X72444670Y-58021161D01*
X71904155Y-57660000D01*
X77353325Y-57660000D01*
X77274605Y-57724604D01*
X77145267Y-57882203D01*
X77049160Y-58062007D01*
X76989976Y-58257105D01*
X76975000Y-58409162D01*
X76975000Y-59110837D01*
X76989976Y-59262894D01*
X77049159Y-59457992D01*
X77145266Y-59637797D01*
X77274604Y-59795396D01*
X77432203Y-59924734D01*
X77612007Y-60020841D01*
X77807105Y-60080024D01*
X78010000Y-60100007D01*
X78212894Y-60080024D01*
X78407992Y-60020841D01*
X78587797Y-59924734D01*
X78745396Y-59795396D01*
X78874734Y-59637797D01*
X78970841Y-59457993D01*
X79030024Y-59262895D01*
X79045000Y-59110838D01*
X79045000Y-58464447D01*
X79074447Y-58435000D01*
X85925554Y-58435000D01*
X85955000Y-58464446D01*
X85955000Y-59110837D01*
X85969976Y-59262894D01*
X86029159Y-59457992D01*
X86125266Y-59637797D01*
X86254604Y-59795396D01*
X86412203Y-59924734D01*
X86592007Y-60020841D01*
X86787105Y-60080024D01*
X86990000Y-60100007D01*
X87192894Y-60080024D01*
X87387992Y-60020841D01*
X87567797Y-59924734D01*
X87725396Y-59795396D01*
X87854734Y-59637797D01*
X87950841Y-59457993D01*
X88010024Y-59262895D01*
X88025000Y-59110838D01*
X88025000Y-58409163D01*
X88010024Y-58257106D01*
X87950841Y-58062008D01*
X87854734Y-57882203D01*
X87725396Y-57724604D01*
X87646676Y-57660000D01*
X93095845Y-57660000D01*
X92555330Y-58021161D01*
X92021161Y-58555330D01*
X91601467Y-59183446D01*
X91312377Y-59881372D01*
X91165000Y-60622285D01*
X91165000Y-61377715D01*
X91312377Y-62118628D01*
X91601467Y-62816554D01*
X92021161Y-63444670D01*
X92555330Y-63978839D01*
X93183446Y-64398533D01*
X93881372Y-64687623D01*
X94622285Y-64835000D01*
X95377715Y-64835000D01*
X96118628Y-64687623D01*
X96816554Y-64398533D01*
X97444670Y-63978839D01*
X97978839Y-63444670D01*
X98398533Y-62816554D01*
X98687623Y-62118628D01*
X98835000Y-61377715D01*
X98835000Y-60622285D01*
X98687623Y-59881372D01*
X98398533Y-59183446D01*
X97978839Y-58555330D01*
X97444670Y-58021161D01*
X96904155Y-57660000D01*
X100917722Y-57660000D01*
X101598126Y-57726714D01*
X102221572Y-57914943D01*
X102796579Y-58220681D01*
X103301247Y-58632279D01*
X103716362Y-59134067D01*
X104026105Y-59706924D01*
X104218682Y-60329039D01*
X104290001Y-61007594D01*
X104290000Y-78967721D01*
X104223286Y-79648126D01*
X104035057Y-80271570D01*
X103729323Y-80846573D01*
X103317721Y-81351248D01*
X102815933Y-81766362D01*
X102243077Y-82076104D01*
X101620961Y-82268682D01*
X100942417Y-82340000D01*
X63982279Y-82340000D01*
X63301874Y-82273286D01*
X62678430Y-82085057D01*
X62103427Y-81779323D01*
X61598752Y-81367721D01*
X61183638Y-80865933D01*
X60873896Y-80293077D01*
X60681318Y-79670961D01*
X60610000Y-78992417D01*
X60610000Y-77850000D01*
X61961928Y-77850000D01*
X61974188Y-77974482D01*
X62010498Y-78094180D01*
X62069463Y-78204494D01*
X62148815Y-78301185D01*
X62245506Y-78380537D01*
X62355820Y-78439502D01*
X62475518Y-78475812D01*
X62600000Y-78488072D01*
X63164250Y-78485000D01*
X63323000Y-78326250D01*
X63323000Y-77127000D01*
X62123750Y-77127000D01*
X61965000Y-77285750D01*
X61961928Y-77850000D01*
X60610000Y-77850000D01*
X60610000Y-76150000D01*
X61961928Y-76150000D01*
X61965000Y-76714250D01*
X62123750Y-76873000D01*
X63323000Y-76873000D01*
X63323000Y-75673750D01*
X63577000Y-75673750D01*
X63577000Y-76873000D01*
X63597000Y-76873000D01*
X63597000Y-77127000D01*
X63577000Y-77127000D01*
X63577000Y-78326250D01*
X63735750Y-78485000D01*
X64300000Y-78488072D01*
X64424482Y-78475812D01*
X64544180Y-78439502D01*
X64654494Y-78380537D01*
X64751185Y-78301185D01*
X64830537Y-78204494D01*
X64889502Y-78094180D01*
X64910393Y-78025313D01*
X64934866Y-78055134D01*
X65160986Y-78240706D01*
X65418966Y-78378599D01*
X65698889Y-78463513D01*
X65917050Y-78485000D01*
X66062950Y-78485000D01*
X66281111Y-78463513D01*
X66561034Y-78378599D01*
X66819014Y-78240706D01*
X67045134Y-78055134D01*
X67230706Y-77829014D01*
X67260000Y-77774209D01*
X67289294Y-77829014D01*
X67474866Y-78055134D01*
X67700986Y-78240706D01*
X67958966Y-78378599D01*
X68238889Y-78463513D01*
X68457050Y-78485000D01*
X68602950Y-78485000D01*
X68821111Y-78463513D01*
X69101034Y-78378599D01*
X69359014Y-78240706D01*
X69585134Y-78055134D01*
X69770706Y-77829014D01*
X69800000Y-77774209D01*
X69829294Y-77829014D01*
X70014866Y-78055134D01*
X70240986Y-78240706D01*
X70498966Y-78378599D01*
X70778889Y-78463513D01*
X70997050Y-78485000D01*
X71142950Y-78485000D01*
X71361111Y-78463513D01*
X71641034Y-78378599D01*
X71899014Y-78240706D01*
X72125134Y-78055134D01*
X72310706Y-77829014D01*
X72340000Y-77774209D01*
X72369294Y-77829014D01*
X72554866Y-78055134D01*
X72780986Y-78240706D01*
X73038966Y-78378599D01*
X73318889Y-78463513D01*
X73537050Y-78485000D01*
X73682950Y-78485000D01*
X73901111Y-78463513D01*
X74181034Y-78378599D01*
X74439014Y-78240706D01*
X74665134Y-78055134D01*
X74850706Y-77829014D01*
X74880000Y-77774209D01*
X74909294Y-77829014D01*
X75094866Y-78055134D01*
X75320986Y-78240706D01*
X75578966Y-78378599D01*
X75858889Y-78463513D01*
X76077050Y-78485000D01*
X76222950Y-78485000D01*
X76441111Y-78463513D01*
X76721034Y-78378599D01*
X76979014Y-78240706D01*
X77205134Y-78055134D01*
X77390706Y-77829014D01*
X77420000Y-77774209D01*
X77449294Y-77829014D01*
X77634866Y-78055134D01*
X77860986Y-78240706D01*
X78118966Y-78378599D01*
X78398889Y-78463513D01*
X78617050Y-78485000D01*
X78762950Y-78485000D01*
X78981111Y-78463513D01*
X79261034Y-78378599D01*
X79519014Y-78240706D01*
X79745134Y-78055134D01*
X79930706Y-77829014D01*
X79960000Y-77774209D01*
X79989294Y-77829014D01*
X80174866Y-78055134D01*
X80400986Y-78240706D01*
X80658966Y-78378599D01*
X80938889Y-78463513D01*
X81157050Y-78485000D01*
X81302950Y-78485000D01*
X81521111Y-78463513D01*
X81801034Y-78378599D01*
X82059014Y-78240706D01*
X82285134Y-78055134D01*
X82470706Y-77829014D01*
X82500000Y-77774209D01*
X82529294Y-77829014D01*
X82714866Y-78055134D01*
X82940986Y-78240706D01*
X83198966Y-78378599D01*
X83478889Y-78463513D01*
X83697050Y-78485000D01*
X83842950Y-78485000D01*
X84061111Y-78463513D01*
X84341034Y-78378599D01*
X84599014Y-78240706D01*
X84825134Y-78055134D01*
X85010706Y-77829014D01*
X85040000Y-77774209D01*
X85069294Y-77829014D01*
X85254866Y-78055134D01*
X85480986Y-78240706D01*
X85738966Y-78378599D01*
X86018889Y-78463513D01*
X86237050Y-78485000D01*
X86382950Y-78485000D01*
X86601111Y-78463513D01*
X86881034Y-78378599D01*
X87139014Y-78240706D01*
X87365134Y-78055134D01*
X87550706Y-77829014D01*
X87580000Y-77774209D01*
X87609294Y-77829014D01*
X87794866Y-78055134D01*
X88020986Y-78240706D01*
X88278966Y-78378599D01*
X88558889Y-78463513D01*
X88777050Y-78485000D01*
X88922950Y-78485000D01*
X89141111Y-78463513D01*
X89421034Y-78378599D01*
X89679014Y-78240706D01*
X89905134Y-78055134D01*
X90090706Y-77829014D01*
X90120000Y-77774209D01*
X90149294Y-77829014D01*
X90334866Y-78055134D01*
X90560986Y-78240706D01*
X90818966Y-78378599D01*
X91098889Y-78463513D01*
X91317050Y-78485000D01*
X91462950Y-78485000D01*
X91681111Y-78463513D01*
X91961034Y-78378599D01*
X92219014Y-78240706D01*
X92445134Y-78055134D01*
X92630706Y-77829014D01*
X92660000Y-77774209D01*
X92689294Y-77829014D01*
X92874866Y-78055134D01*
X93100986Y-78240706D01*
X93358966Y-78378599D01*
X93638889Y-78463513D01*
X93857050Y-78485000D01*
X94002950Y-78485000D01*
X94221111Y-78463513D01*
X94501034Y-78378599D01*
X94759014Y-78240706D01*
X94985134Y-78055134D01*
X95170706Y-77829014D01*
X95200000Y-77774209D01*
X95229294Y-77829014D01*
X95414866Y-78055134D01*
X95640986Y-78240706D01*
X95898966Y-78378599D01*
X96178889Y-78463513D01*
X96397050Y-78485000D01*
X96542950Y-78485000D01*
X96761111Y-78463513D01*
X97041034Y-78378599D01*
X97299014Y-78240706D01*
X97525134Y-78055134D01*
X97710706Y-77829014D01*
X97740000Y-77774209D01*
X97769294Y-77829014D01*
X97954866Y-78055134D01*
X98180986Y-78240706D01*
X98438966Y-78378599D01*
X98718889Y-78463513D01*
X98937050Y-78485000D01*
X99082950Y-78485000D01*
X99301111Y-78463513D01*
X99581034Y-78378599D01*
X99839014Y-78240706D01*
X100065134Y-78055134D01*
X100250706Y-77829014D01*
X100280000Y-77774209D01*
X100309294Y-77829014D01*
X100494866Y-78055134D01*
X100720986Y-78240706D01*
X100978966Y-78378599D01*
X101258889Y-78463513D01*
X101477050Y-78485000D01*
X101622950Y-78485000D01*
X101841111Y-78463513D01*
X102121034Y-78378599D01*
X102379014Y-78240706D01*
X102605134Y-78055134D01*
X102790706Y-77829014D01*
X102928599Y-77571034D01*
X103013513Y-77291111D01*
X103042185Y-77000000D01*
X103013513Y-76708889D01*
X102928599Y-76428966D01*
X102790706Y-76170986D01*
X102605134Y-75944866D01*
X102379014Y-75759294D01*
X102121034Y-75621401D01*
X101841111Y-75536487D01*
X101622950Y-75515000D01*
X101477050Y-75515000D01*
X101258889Y-75536487D01*
X100978966Y-75621401D01*
X100720986Y-75759294D01*
X100494866Y-75944866D01*
X100309294Y-76170986D01*
X100280000Y-76225791D01*
X100250706Y-76170986D01*
X100065134Y-75944866D01*
X99839014Y-75759294D01*
X99745000Y-75709043D01*
X99745000Y-72646094D01*
X99748555Y-72609999D01*
X99745000Y-72573904D01*
X99745000Y-72573895D01*
X99734365Y-72465915D01*
X99692337Y-72327367D01*
X99624087Y-72199680D01*
X99607514Y-72179487D01*
X99555253Y-72115806D01*
X99555250Y-72115803D01*
X99532237Y-72087762D01*
X99504198Y-72064751D01*
X88545259Y-61105813D01*
X88522238Y-61077762D01*
X88410320Y-60985913D01*
X88282633Y-60917663D01*
X88144085Y-60875635D01*
X88036105Y-60865000D01*
X88000000Y-60861444D01*
X87963895Y-60865000D01*
X84628711Y-60865000D01*
X84559774Y-60796063D01*
X84390256Y-60682795D01*
X84201898Y-60604774D01*
X84001939Y-60565000D01*
X83798061Y-60565000D01*
X83598102Y-60604774D01*
X83409744Y-60682795D01*
X83240226Y-60796063D01*
X83096063Y-60940226D01*
X82982795Y-61109744D01*
X82904774Y-61298102D01*
X82865000Y-61498061D01*
X82865000Y-61664998D01*
X82300103Y-61664998D01*
X82263998Y-61661442D01*
X82119913Y-61675633D01*
X81981364Y-61717661D01*
X81865015Y-61779851D01*
X81853678Y-61785911D01*
X81741760Y-61877760D01*
X81718744Y-61905805D01*
X81205808Y-62418742D01*
X81177762Y-62441759D01*
X81085913Y-62553677D01*
X81017663Y-62681364D01*
X80993011Y-62762632D01*
X80975635Y-62819911D01*
X80961444Y-62963996D01*
X80965000Y-63000101D01*
X80965000Y-63650000D01*
X80805448Y-63650000D01*
X80619978Y-63686892D01*
X80500000Y-63736589D01*
X80380022Y-63686892D01*
X80194552Y-63650000D01*
X80169447Y-63650000D01*
X80794197Y-63025250D01*
X80822237Y-63002238D01*
X80845250Y-62974197D01*
X80845253Y-62974194D01*
X80914086Y-62890321D01*
X80914087Y-62890320D01*
X80982337Y-62762633D01*
X81024365Y-62624085D01*
X81035000Y-62516105D01*
X81035000Y-62516098D01*
X81038555Y-62480001D01*
X81035000Y-62443904D01*
X81035000Y-60328711D01*
X81103937Y-60259774D01*
X81217205Y-60090256D01*
X81295226Y-59901898D01*
X81335000Y-59701939D01*
X81335000Y-59498061D01*
X81295226Y-59298102D01*
X81217205Y-59109744D01*
X81103937Y-58940226D01*
X80959774Y-58796063D01*
X80790256Y-58682795D01*
X80601898Y-58604774D01*
X80401939Y-58565000D01*
X80198061Y-58565000D01*
X79998102Y-58604774D01*
X79809744Y-58682795D01*
X79640226Y-58796063D01*
X79496063Y-58940226D01*
X79382795Y-59109744D01*
X79304774Y-59298102D01*
X79265000Y-59498061D01*
X79265000Y-59701939D01*
X79304774Y-59901898D01*
X79382795Y-60090256D01*
X79496063Y-60259774D01*
X79565001Y-60328712D01*
X79565000Y-62175553D01*
X78370510Y-63370043D01*
X78370000Y-63369993D01*
X78167106Y-63389976D01*
X77972008Y-63449159D01*
X77792204Y-63545266D01*
X77634605Y-63674604D01*
X77505267Y-63832203D01*
X77409160Y-64012007D01*
X77349976Y-64207105D01*
X77335000Y-64359162D01*
X77335000Y-65060837D01*
X77349976Y-65212894D01*
X77409159Y-65407992D01*
X77505266Y-65587797D01*
X77634604Y-65745396D01*
X77792203Y-65874734D01*
X77793675Y-65875521D01*
X77785355Y-65960000D01*
X77803890Y-66148193D01*
X77858784Y-66329154D01*
X77947927Y-66495928D01*
X78067893Y-66642107D01*
X78214072Y-66762073D01*
X78380846Y-66851216D01*
X78561807Y-66906110D01*
X78702838Y-66920000D01*
X79097162Y-66920000D01*
X79238193Y-66906110D01*
X79419154Y-66851216D01*
X79585928Y-66762073D01*
X79732107Y-66642107D01*
X79852073Y-66495928D01*
X79941216Y-66329154D01*
X79969730Y-66235155D01*
X79980022Y-66233108D01*
X80154731Y-66160741D01*
X80311964Y-66055681D01*
X80445681Y-65921964D01*
X80543414Y-65775697D01*
X80647464Y-65782931D01*
X80860395Y-65570000D01*
X80994552Y-65570000D01*
X81166121Y-65535873D01*
X81176892Y-65590022D01*
X81183538Y-65606067D01*
X80827069Y-65962536D01*
X80840677Y-66158270D01*
X81014992Y-66231581D01*
X81200260Y-66269475D01*
X81389361Y-66270497D01*
X81575028Y-66234608D01*
X81700270Y-66183523D01*
X81819978Y-66233108D01*
X82005448Y-66270000D01*
X82194552Y-66270000D01*
X82380022Y-66233108D01*
X82500000Y-66183411D01*
X82619978Y-66233108D01*
X82805448Y-66270000D01*
X82994552Y-66270000D01*
X83180022Y-66233108D01*
X83300230Y-66183316D01*
X83414992Y-66231581D01*
X83600260Y-66269475D01*
X83789361Y-66270497D01*
X83975028Y-66234608D01*
X84150126Y-66163187D01*
X84159323Y-66158270D01*
X84172931Y-65962536D01*
X83816462Y-65606067D01*
X83823108Y-65590022D01*
X83833879Y-65535873D01*
X84005448Y-65570000D01*
X84139605Y-65570000D01*
X84352536Y-65782931D01*
X84456586Y-65775697D01*
X84554319Y-65921964D01*
X84688036Y-66055681D01*
X84845269Y-66160741D01*
X85019978Y-66233108D01*
X85187860Y-66266502D01*
X85249259Y-66414731D01*
X85354319Y-66571964D01*
X85488036Y-66705681D01*
X85645269Y-66810741D01*
X85819978Y-66883108D01*
X86005448Y-66920000D01*
X86194552Y-66920000D01*
X86380022Y-66883108D01*
X86554731Y-66810741D01*
X86711964Y-66705681D01*
X86845681Y-66571964D01*
X86950741Y-66414731D01*
X87023108Y-66240022D01*
X87060000Y-66054552D01*
X87060000Y-65953733D01*
X87207797Y-65874734D01*
X87365396Y-65745396D01*
X87494734Y-65587797D01*
X87590841Y-65407993D01*
X87650024Y-65212895D01*
X87665000Y-65060838D01*
X87665000Y-64359163D01*
X87650024Y-64207106D01*
X87590841Y-64012008D01*
X87494734Y-63832203D01*
X87365396Y-63674604D01*
X87207797Y-63545266D01*
X87027993Y-63449159D01*
X86832895Y-63389976D01*
X86630000Y-63369993D01*
X86629490Y-63370043D01*
X86394444Y-63134998D01*
X87495552Y-63134998D01*
X95735001Y-71374448D01*
X95735000Y-74498061D01*
X95695226Y-74298102D01*
X95617205Y-74109744D01*
X95503937Y-73940226D01*
X95359774Y-73796063D01*
X95190256Y-73682795D01*
X95001898Y-73604774D01*
X94801939Y-73565000D01*
X94598061Y-73565000D01*
X94398102Y-73604774D01*
X94209744Y-73682795D01*
X94040226Y-73796063D01*
X93971289Y-73865000D01*
X90728711Y-73865000D01*
X90659774Y-73796063D01*
X90490256Y-73682795D01*
X90301898Y-73604774D01*
X90101939Y-73565000D01*
X89898061Y-73565000D01*
X89698102Y-73604774D01*
X89509744Y-73682795D01*
X89340226Y-73796063D01*
X89196063Y-73940226D01*
X89179510Y-73965000D01*
X84835000Y-73965000D01*
X84835000Y-70977469D01*
X85928999Y-69735000D01*
X86001939Y-69735000D01*
X86201898Y-69695226D01*
X86390256Y-69617205D01*
X86559774Y-69503937D01*
X86703937Y-69359774D01*
X86817205Y-69190256D01*
X86895226Y-69001898D01*
X86935000Y-68801939D01*
X86935000Y-68598061D01*
X86895226Y-68398102D01*
X86817205Y-68209744D01*
X86703937Y-68040226D01*
X86559774Y-67896063D01*
X86390256Y-67782795D01*
X86201898Y-67704774D01*
X86001939Y-67665000D01*
X85798061Y-67665000D01*
X85598102Y-67704774D01*
X85409744Y-67782795D01*
X85240226Y-67896063D01*
X85096063Y-68040226D01*
X84982795Y-68209744D01*
X84904774Y-68398102D01*
X84865000Y-68598061D01*
X84865000Y-68718959D01*
X83587701Y-70169606D01*
X83577763Y-70177762D01*
X83539943Y-70223846D01*
X83524504Y-70241380D01*
X83517036Y-70251758D01*
X83485914Y-70289680D01*
X83474846Y-70310387D01*
X83461128Y-70329450D01*
X83440787Y-70374106D01*
X83417664Y-70417367D01*
X83410849Y-70439834D01*
X83401113Y-70461208D01*
X83389875Y-70508974D01*
X83375636Y-70555915D01*
X83373335Y-70579281D01*
X83367956Y-70602143D01*
X83366253Y-70651184D01*
X83365001Y-70663895D01*
X83365001Y-70687232D01*
X83362931Y-70746837D01*
X83365001Y-70759532D01*
X83365000Y-73969441D01*
X81484549Y-73980838D01*
X81439774Y-73936063D01*
X81270256Y-73822795D01*
X81081898Y-73744774D01*
X80881939Y-73705000D01*
X80678061Y-73705000D01*
X80478102Y-73744774D01*
X80289744Y-73822795D01*
X80120226Y-73936063D01*
X80051289Y-74005000D01*
X78434446Y-74005000D01*
X83504447Y-68935000D01*
X83601939Y-68935000D01*
X83801898Y-68895226D01*
X83990256Y-68817205D01*
X84159774Y-68703937D01*
X84303937Y-68559774D01*
X84417205Y-68390256D01*
X84495226Y-68201898D01*
X84535000Y-68001939D01*
X84535000Y-67798061D01*
X84495226Y-67598102D01*
X84417205Y-67409744D01*
X84303937Y-67240226D01*
X84159774Y-67096063D01*
X83990256Y-66982795D01*
X83801898Y-66904774D01*
X83601939Y-66865000D01*
X83398061Y-66865000D01*
X83198102Y-66904774D01*
X83009744Y-66982795D01*
X82840226Y-67096063D01*
X82696063Y-67240226D01*
X82582795Y-67409744D01*
X82504774Y-67598102D01*
X82500000Y-67622103D01*
X82495226Y-67598102D01*
X82417205Y-67409744D01*
X82303937Y-67240226D01*
X82159774Y-67096063D01*
X81990256Y-66982795D01*
X81801898Y-66904774D01*
X81601939Y-66865000D01*
X81398061Y-66865000D01*
X81198102Y-66904774D01*
X81009744Y-66982795D01*
X80840226Y-67096063D01*
X80696063Y-67240226D01*
X80582795Y-67409744D01*
X80504774Y-67598102D01*
X80465000Y-67798061D01*
X80465000Y-67895553D01*
X76045554Y-72315000D01*
X68646105Y-72315000D01*
X68610000Y-72311444D01*
X68465915Y-72325635D01*
X68327366Y-72367663D01*
X68199680Y-72435913D01*
X68087762Y-72527762D01*
X68064746Y-72555807D01*
X65495808Y-75124746D01*
X65467762Y-75147763D01*
X65375913Y-75259681D01*
X65307663Y-75387368D01*
X65278384Y-75483887D01*
X65265635Y-75525915D01*
X65251444Y-75670000D01*
X65255000Y-75706106D01*
X65255000Y-75709043D01*
X65160986Y-75759294D01*
X64934866Y-75944866D01*
X64910393Y-75974687D01*
X64889502Y-75905820D01*
X64830537Y-75795506D01*
X64751185Y-75698815D01*
X64654494Y-75619463D01*
X64544180Y-75560498D01*
X64424482Y-75524188D01*
X64300000Y-75511928D01*
X63735750Y-75515000D01*
X63577000Y-75673750D01*
X63323000Y-75673750D01*
X63164250Y-75515000D01*
X62600000Y-75511928D01*
X62475518Y-75524188D01*
X62355820Y-75560498D01*
X62245506Y-75619463D01*
X62148815Y-75698815D01*
X62069463Y-75795506D01*
X62010498Y-75905820D01*
X61974188Y-76025518D01*
X61961928Y-76150000D01*
X60610000Y-76150000D01*
X60610000Y-61032278D01*
X60676714Y-60351874D01*
X60864943Y-59728428D01*
X61170681Y-59153421D01*
X61582279Y-58648753D01*
X62084067Y-58233638D01*
X62656924Y-57923895D01*
X63279039Y-57731318D01*
X63957584Y-57660000D01*
X68095845Y-57660000D01*
X67555330Y-58021161D01*
X67555330Y-58021161D01*
G37*
X67555330Y-58021161D02*
X67021161Y-58555330D01*
X66601467Y-59183446D01*
X66312377Y-59881372D01*
X66165000Y-60622285D01*
X66165000Y-61377715D01*
X66312377Y-62118628D01*
X66601467Y-62816554D01*
X67021161Y-63444670D01*
X67555330Y-63978839D01*
X68183446Y-64398533D01*
X68881372Y-64687623D01*
X69622285Y-64835000D01*
X70377715Y-64835000D01*
X71118628Y-64687623D01*
X71816554Y-64398533D01*
X72444670Y-63978839D01*
X72978839Y-63444670D01*
X73398533Y-62816554D01*
X73687623Y-62118628D01*
X73835000Y-61377715D01*
X73835000Y-60622285D01*
X73687623Y-59881372D01*
X73398533Y-59183446D01*
X72978839Y-58555330D01*
X72444670Y-58021161D01*
X71904155Y-57660000D01*
X77353325Y-57660000D01*
X77274605Y-57724604D01*
X77145267Y-57882203D01*
X77049160Y-58062007D01*
X76989976Y-58257105D01*
X76975000Y-58409162D01*
X76975000Y-59110837D01*
X76989976Y-59262894D01*
X77049159Y-59457992D01*
X77145266Y-59637797D01*
X77274604Y-59795396D01*
X77432203Y-59924734D01*
X77612007Y-60020841D01*
X77807105Y-60080024D01*
X78010000Y-60100007D01*
X78212894Y-60080024D01*
X78407992Y-60020841D01*
X78587797Y-59924734D01*
X78745396Y-59795396D01*
X78874734Y-59637797D01*
X78970841Y-59457993D01*
X79030024Y-59262895D01*
X79045000Y-59110838D01*
X79045000Y-58464447D01*
X79074447Y-58435000D01*
X85925554Y-58435000D01*
X85955000Y-58464446D01*
X85955000Y-59110837D01*
X85969976Y-59262894D01*
X86029159Y-59457992D01*
X86125266Y-59637797D01*
X86254604Y-59795396D01*
X86412203Y-59924734D01*
X86592007Y-60020841D01*
X86787105Y-60080024D01*
X86990000Y-60100007D01*
X87192894Y-60080024D01*
X87387992Y-60020841D01*
X87567797Y-59924734D01*
X87725396Y-59795396D01*
X87854734Y-59637797D01*
X87950841Y-59457993D01*
X88010024Y-59262895D01*
X88025000Y-59110838D01*
X88025000Y-58409163D01*
X88010024Y-58257106D01*
X87950841Y-58062008D01*
X87854734Y-57882203D01*
X87725396Y-57724604D01*
X87646676Y-57660000D01*
X93095845Y-57660000D01*
X92555330Y-58021161D01*
X92021161Y-58555330D01*
X91601467Y-59183446D01*
X91312377Y-59881372D01*
X91165000Y-60622285D01*
X91165000Y-61377715D01*
X91312377Y-62118628D01*
X91601467Y-62816554D01*
X92021161Y-63444670D01*
X92555330Y-63978839D01*
X93183446Y-64398533D01*
X93881372Y-64687623D01*
X94622285Y-64835000D01*
X95377715Y-64835000D01*
X96118628Y-64687623D01*
X96816554Y-64398533D01*
X97444670Y-63978839D01*
X97978839Y-63444670D01*
X98398533Y-62816554D01*
X98687623Y-62118628D01*
X98835000Y-61377715D01*
X98835000Y-60622285D01*
X98687623Y-59881372D01*
X98398533Y-59183446D01*
X97978839Y-58555330D01*
X97444670Y-58021161D01*
X96904155Y-57660000D01*
X100917722Y-57660000D01*
X101598126Y-57726714D01*
X102221572Y-57914943D01*
X102796579Y-58220681D01*
X103301247Y-58632279D01*
X103716362Y-59134067D01*
X104026105Y-59706924D01*
X104218682Y-60329039D01*
X104290001Y-61007594D01*
X104290000Y-78967721D01*
X104223286Y-79648126D01*
X104035057Y-80271570D01*
X103729323Y-80846573D01*
X103317721Y-81351248D01*
X102815933Y-81766362D01*
X102243077Y-82076104D01*
X101620961Y-82268682D01*
X100942417Y-82340000D01*
X63982279Y-82340000D01*
X63301874Y-82273286D01*
X62678430Y-82085057D01*
X62103427Y-81779323D01*
X61598752Y-81367721D01*
X61183638Y-80865933D01*
X60873896Y-80293077D01*
X60681318Y-79670961D01*
X60610000Y-78992417D01*
X60610000Y-77850000D01*
X61961928Y-77850000D01*
X61974188Y-77974482D01*
X62010498Y-78094180D01*
X62069463Y-78204494D01*
X62148815Y-78301185D01*
X62245506Y-78380537D01*
X62355820Y-78439502D01*
X62475518Y-78475812D01*
X62600000Y-78488072D01*
X63164250Y-78485000D01*
X63323000Y-78326250D01*
X63323000Y-77127000D01*
X62123750Y-77127000D01*
X61965000Y-77285750D01*
X61961928Y-77850000D01*
X60610000Y-77850000D01*
X60610000Y-76150000D01*
X61961928Y-76150000D01*
X61965000Y-76714250D01*
X62123750Y-76873000D01*
X63323000Y-76873000D01*
X63323000Y-75673750D01*
X63577000Y-75673750D01*
X63577000Y-76873000D01*
X63597000Y-76873000D01*
X63597000Y-77127000D01*
X63577000Y-77127000D01*
X63577000Y-78326250D01*
X63735750Y-78485000D01*
X64300000Y-78488072D01*
X64424482Y-78475812D01*
X64544180Y-78439502D01*
X64654494Y-78380537D01*
X64751185Y-78301185D01*
X64830537Y-78204494D01*
X64889502Y-78094180D01*
X64910393Y-78025313D01*
X64934866Y-78055134D01*
X65160986Y-78240706D01*
X65418966Y-78378599D01*
X65698889Y-78463513D01*
X65917050Y-78485000D01*
X66062950Y-78485000D01*
X66281111Y-78463513D01*
X66561034Y-78378599D01*
X66819014Y-78240706D01*
X67045134Y-78055134D01*
X67230706Y-77829014D01*
X67260000Y-77774209D01*
X67289294Y-77829014D01*
X67474866Y-78055134D01*
X67700986Y-78240706D01*
X67958966Y-78378599D01*
X68238889Y-78463513D01*
X68457050Y-78485000D01*
X68602950Y-78485000D01*
X68821111Y-78463513D01*
X69101034Y-78378599D01*
X69359014Y-78240706D01*
X69585134Y-78055134D01*
X69770706Y-77829014D01*
X69800000Y-77774209D01*
X69829294Y-77829014D01*
X70014866Y-78055134D01*
X70240986Y-78240706D01*
X70498966Y-78378599D01*
X70778889Y-78463513D01*
X70997050Y-78485000D01*
X71142950Y-78485000D01*
X71361111Y-78463513D01*
X71641034Y-78378599D01*
X71899014Y-78240706D01*
X72125134Y-78055134D01*
X72310706Y-77829014D01*
X72340000Y-77774209D01*
X72369294Y-77829014D01*
X72554866Y-78055134D01*
X72780986Y-78240706D01*
X73038966Y-78378599D01*
X73318889Y-78463513D01*
X73537050Y-78485000D01*
X73682950Y-78485000D01*
X73901111Y-78463513D01*
X74181034Y-78378599D01*
X74439014Y-78240706D01*
X74665134Y-78055134D01*
X74850706Y-77829014D01*
X74880000Y-77774209D01*
X74909294Y-77829014D01*
X75094866Y-78055134D01*
X75320986Y-78240706D01*
X75578966Y-78378599D01*
X75858889Y-78463513D01*
X76077050Y-78485000D01*
X76222950Y-78485000D01*
X76441111Y-78463513D01*
X76721034Y-78378599D01*
X76979014Y-78240706D01*
X77205134Y-78055134D01*
X77390706Y-77829014D01*
X77420000Y-77774209D01*
X77449294Y-77829014D01*
X77634866Y-78055134D01*
X77860986Y-78240706D01*
X78118966Y-78378599D01*
X78398889Y-78463513D01*
X78617050Y-78485000D01*
X78762950Y-78485000D01*
X78981111Y-78463513D01*
X79261034Y-78378599D01*
X79519014Y-78240706D01*
X79745134Y-78055134D01*
X79930706Y-77829014D01*
X79960000Y-77774209D01*
X79989294Y-77829014D01*
X80174866Y-78055134D01*
X80400986Y-78240706D01*
X80658966Y-78378599D01*
X80938889Y-78463513D01*
X81157050Y-78485000D01*
X81302950Y-78485000D01*
X81521111Y-78463513D01*
X81801034Y-78378599D01*
X82059014Y-78240706D01*
X82285134Y-78055134D01*
X82470706Y-77829014D01*
X82500000Y-77774209D01*
X82529294Y-77829014D01*
X82714866Y-78055134D01*
X82940986Y-78240706D01*
X83198966Y-78378599D01*
X83478889Y-78463513D01*
X83697050Y-78485000D01*
X83842950Y-78485000D01*
X84061111Y-78463513D01*
X84341034Y-78378599D01*
X84599014Y-78240706D01*
X84825134Y-78055134D01*
X85010706Y-77829014D01*
X85040000Y-77774209D01*
X85069294Y-77829014D01*
X85254866Y-78055134D01*
X85480986Y-78240706D01*
X85738966Y-78378599D01*
X86018889Y-78463513D01*
X86237050Y-78485000D01*
X86382950Y-78485000D01*
X86601111Y-78463513D01*
X86881034Y-78378599D01*
X87139014Y-78240706D01*
X87365134Y-78055134D01*
X87550706Y-77829014D01*
X87580000Y-77774209D01*
X87609294Y-77829014D01*
X87794866Y-78055134D01*
X88020986Y-78240706D01*
X88278966Y-78378599D01*
X88558889Y-78463513D01*
X88777050Y-78485000D01*
X88922950Y-78485000D01*
X89141111Y-78463513D01*
X89421034Y-78378599D01*
X89679014Y-78240706D01*
X89905134Y-78055134D01*
X90090706Y-77829014D01*
X90120000Y-77774209D01*
X90149294Y-77829014D01*
X90334866Y-78055134D01*
X90560986Y-78240706D01*
X90818966Y-78378599D01*
X91098889Y-78463513D01*
X91317050Y-78485000D01*
X91462950Y-78485000D01*
X91681111Y-78463513D01*
X91961034Y-78378599D01*
X92219014Y-78240706D01*
X92445134Y-78055134D01*
X92630706Y-77829014D01*
X92660000Y-77774209D01*
X92689294Y-77829014D01*
X92874866Y-78055134D01*
X93100986Y-78240706D01*
X93358966Y-78378599D01*
X93638889Y-78463513D01*
X93857050Y-78485000D01*
X94002950Y-78485000D01*
X94221111Y-78463513D01*
X94501034Y-78378599D01*
X94759014Y-78240706D01*
X94985134Y-78055134D01*
X95170706Y-77829014D01*
X95200000Y-77774209D01*
X95229294Y-77829014D01*
X95414866Y-78055134D01*
X95640986Y-78240706D01*
X95898966Y-78378599D01*
X96178889Y-78463513D01*
X96397050Y-78485000D01*
X96542950Y-78485000D01*
X96761111Y-78463513D01*
X97041034Y-78378599D01*
X97299014Y-78240706D01*
X97525134Y-78055134D01*
X97710706Y-77829014D01*
X97740000Y-77774209D01*
X97769294Y-77829014D01*
X97954866Y-78055134D01*
X98180986Y-78240706D01*
X98438966Y-78378599D01*
X98718889Y-78463513D01*
X98937050Y-78485000D01*
X99082950Y-78485000D01*
X99301111Y-78463513D01*
X99581034Y-78378599D01*
X99839014Y-78240706D01*
X100065134Y-78055134D01*
X100250706Y-77829014D01*
X100280000Y-77774209D01*
X100309294Y-77829014D01*
X100494866Y-78055134D01*
X100720986Y-78240706D01*
X100978966Y-78378599D01*
X101258889Y-78463513D01*
X101477050Y-78485000D01*
X101622950Y-78485000D01*
X101841111Y-78463513D01*
X102121034Y-78378599D01*
X102379014Y-78240706D01*
X102605134Y-78055134D01*
X102790706Y-77829014D01*
X102928599Y-77571034D01*
X103013513Y-77291111D01*
X103042185Y-77000000D01*
X103013513Y-76708889D01*
X102928599Y-76428966D01*
X102790706Y-76170986D01*
X102605134Y-75944866D01*
X102379014Y-75759294D01*
X102121034Y-75621401D01*
X101841111Y-75536487D01*
X101622950Y-75515000D01*
X101477050Y-75515000D01*
X101258889Y-75536487D01*
X100978966Y-75621401D01*
X100720986Y-75759294D01*
X100494866Y-75944866D01*
X100309294Y-76170986D01*
X100280000Y-76225791D01*
X100250706Y-76170986D01*
X100065134Y-75944866D01*
X99839014Y-75759294D01*
X99745000Y-75709043D01*
X99745000Y-72646094D01*
X99748555Y-72609999D01*
X99745000Y-72573904D01*
X99745000Y-72573895D01*
X99734365Y-72465915D01*
X99692337Y-72327367D01*
X99624087Y-72199680D01*
X99607514Y-72179487D01*
X99555253Y-72115806D01*
X99555250Y-72115803D01*
X99532237Y-72087762D01*
X99504198Y-72064751D01*
X88545259Y-61105813D01*
X88522238Y-61077762D01*
X88410320Y-60985913D01*
X88282633Y-60917663D01*
X88144085Y-60875635D01*
X88036105Y-60865000D01*
X88000000Y-60861444D01*
X87963895Y-60865000D01*
X84628711Y-60865000D01*
X84559774Y-60796063D01*
X84390256Y-60682795D01*
X84201898Y-60604774D01*
X84001939Y-60565000D01*
X83798061Y-60565000D01*
X83598102Y-60604774D01*
X83409744Y-60682795D01*
X83240226Y-60796063D01*
X83096063Y-60940226D01*
X82982795Y-61109744D01*
X82904774Y-61298102D01*
X82865000Y-61498061D01*
X82865000Y-61664998D01*
X82300103Y-61664998D01*
X82263998Y-61661442D01*
X82119913Y-61675633D01*
X81981364Y-61717661D01*
X81865015Y-61779851D01*
X81853678Y-61785911D01*
X81741760Y-61877760D01*
X81718744Y-61905805D01*
X81205808Y-62418742D01*
X81177762Y-62441759D01*
X81085913Y-62553677D01*
X81017663Y-62681364D01*
X80993011Y-62762632D01*
X80975635Y-62819911D01*
X80961444Y-62963996D01*
X80965000Y-63000101D01*
X80965000Y-63650000D01*
X80805448Y-63650000D01*
X80619978Y-63686892D01*
X80500000Y-63736589D01*
X80380022Y-63686892D01*
X80194552Y-63650000D01*
X80169447Y-63650000D01*
X80794197Y-63025250D01*
X80822237Y-63002238D01*
X80845250Y-62974197D01*
X80845253Y-62974194D01*
X80914086Y-62890321D01*
X80914087Y-62890320D01*
X80982337Y-62762633D01*
X81024365Y-62624085D01*
X81035000Y-62516105D01*
X81035000Y-62516098D01*
X81038555Y-62480001D01*
X81035000Y-62443904D01*
X81035000Y-60328711D01*
X81103937Y-60259774D01*
X81217205Y-60090256D01*
X81295226Y-59901898D01*
X81335000Y-59701939D01*
X81335000Y-59498061D01*
X81295226Y-59298102D01*
X81217205Y-59109744D01*
X81103937Y-58940226D01*
X80959774Y-58796063D01*
X80790256Y-58682795D01*
X80601898Y-58604774D01*
X80401939Y-58565000D01*
X80198061Y-58565000D01*
X79998102Y-58604774D01*
X79809744Y-58682795D01*
X79640226Y-58796063D01*
X79496063Y-58940226D01*
X79382795Y-59109744D01*
X79304774Y-59298102D01*
X79265000Y-59498061D01*
X79265000Y-59701939D01*
X79304774Y-59901898D01*
X79382795Y-60090256D01*
X79496063Y-60259774D01*
X79565001Y-60328712D01*
X79565000Y-62175553D01*
X78370510Y-63370043D01*
X78370000Y-63369993D01*
X78167106Y-63389976D01*
X77972008Y-63449159D01*
X77792204Y-63545266D01*
X77634605Y-63674604D01*
X77505267Y-63832203D01*
X77409160Y-64012007D01*
X77349976Y-64207105D01*
X77335000Y-64359162D01*
X77335000Y-65060837D01*
X77349976Y-65212894D01*
X77409159Y-65407992D01*
X77505266Y-65587797D01*
X77634604Y-65745396D01*
X77792203Y-65874734D01*
X77793675Y-65875521D01*
X77785355Y-65960000D01*
X77803890Y-66148193D01*
X77858784Y-66329154D01*
X77947927Y-66495928D01*
X78067893Y-66642107D01*
X78214072Y-66762073D01*
X78380846Y-66851216D01*
X78561807Y-66906110D01*
X78702838Y-66920000D01*
X79097162Y-66920000D01*
X79238193Y-66906110D01*
X79419154Y-66851216D01*
X79585928Y-66762073D01*
X79732107Y-66642107D01*
X79852073Y-66495928D01*
X79941216Y-66329154D01*
X79969730Y-66235155D01*
X79980022Y-66233108D01*
X80154731Y-66160741D01*
X80311964Y-66055681D01*
X80445681Y-65921964D01*
X80543414Y-65775697D01*
X80647464Y-65782931D01*
X80860395Y-65570000D01*
X80994552Y-65570000D01*
X81166121Y-65535873D01*
X81176892Y-65590022D01*
X81183538Y-65606067D01*
X80827069Y-65962536D01*
X80840677Y-66158270D01*
X81014992Y-66231581D01*
X81200260Y-66269475D01*
X81389361Y-66270497D01*
X81575028Y-66234608D01*
X81700270Y-66183523D01*
X81819978Y-66233108D01*
X82005448Y-66270000D01*
X82194552Y-66270000D01*
X82380022Y-66233108D01*
X82500000Y-66183411D01*
X82619978Y-66233108D01*
X82805448Y-66270000D01*
X82994552Y-66270000D01*
X83180022Y-66233108D01*
X83300230Y-66183316D01*
X83414992Y-66231581D01*
X83600260Y-66269475D01*
X83789361Y-66270497D01*
X83975028Y-66234608D01*
X84150126Y-66163187D01*
X84159323Y-66158270D01*
X84172931Y-65962536D01*
X83816462Y-65606067D01*
X83823108Y-65590022D01*
X83833879Y-65535873D01*
X84005448Y-65570000D01*
X84139605Y-65570000D01*
X84352536Y-65782931D01*
X84456586Y-65775697D01*
X84554319Y-65921964D01*
X84688036Y-66055681D01*
X84845269Y-66160741D01*
X85019978Y-66233108D01*
X85187860Y-66266502D01*
X85249259Y-66414731D01*
X85354319Y-66571964D01*
X85488036Y-66705681D01*
X85645269Y-66810741D01*
X85819978Y-66883108D01*
X86005448Y-66920000D01*
X86194552Y-66920000D01*
X86380022Y-66883108D01*
X86554731Y-66810741D01*
X86711964Y-66705681D01*
X86845681Y-66571964D01*
X86950741Y-66414731D01*
X87023108Y-66240022D01*
X87060000Y-66054552D01*
X87060000Y-65953733D01*
X87207797Y-65874734D01*
X87365396Y-65745396D01*
X87494734Y-65587797D01*
X87590841Y-65407993D01*
X87650024Y-65212895D01*
X87665000Y-65060838D01*
X87665000Y-64359163D01*
X87650024Y-64207106D01*
X87590841Y-64012008D01*
X87494734Y-63832203D01*
X87365396Y-63674604D01*
X87207797Y-63545266D01*
X87027993Y-63449159D01*
X86832895Y-63389976D01*
X86630000Y-63369993D01*
X86629490Y-63370043D01*
X86394444Y-63134998D01*
X87495552Y-63134998D01*
X95735001Y-71374448D01*
X95735000Y-74498061D01*
X95695226Y-74298102D01*
X95617205Y-74109744D01*
X95503937Y-73940226D01*
X95359774Y-73796063D01*
X95190256Y-73682795D01*
X95001898Y-73604774D01*
X94801939Y-73565000D01*
X94598061Y-73565000D01*
X94398102Y-73604774D01*
X94209744Y-73682795D01*
X94040226Y-73796063D01*
X93971289Y-73865000D01*
X90728711Y-73865000D01*
X90659774Y-73796063D01*
X90490256Y-73682795D01*
X90301898Y-73604774D01*
X90101939Y-73565000D01*
X89898061Y-73565000D01*
X89698102Y-73604774D01*
X89509744Y-73682795D01*
X89340226Y-73796063D01*
X89196063Y-73940226D01*
X89179510Y-73965000D01*
X84835000Y-73965000D01*
X84835000Y-70977469D01*
X85928999Y-69735000D01*
X86001939Y-69735000D01*
X86201898Y-69695226D01*
X86390256Y-69617205D01*
X86559774Y-69503937D01*
X86703937Y-69359774D01*
X86817205Y-69190256D01*
X86895226Y-69001898D01*
X86935000Y-68801939D01*
X86935000Y-68598061D01*
X86895226Y-68398102D01*
X86817205Y-68209744D01*
X86703937Y-68040226D01*
X86559774Y-67896063D01*
X86390256Y-67782795D01*
X86201898Y-67704774D01*
X86001939Y-67665000D01*
X85798061Y-67665000D01*
X85598102Y-67704774D01*
X85409744Y-67782795D01*
X85240226Y-67896063D01*
X85096063Y-68040226D01*
X84982795Y-68209744D01*
X84904774Y-68398102D01*
X84865000Y-68598061D01*
X84865000Y-68718959D01*
X83587701Y-70169606D01*
X83577763Y-70177762D01*
X83539943Y-70223846D01*
X83524504Y-70241380D01*
X83517036Y-70251758D01*
X83485914Y-70289680D01*
X83474846Y-70310387D01*
X83461128Y-70329450D01*
X83440787Y-70374106D01*
X83417664Y-70417367D01*
X83410849Y-70439834D01*
X83401113Y-70461208D01*
X83389875Y-70508974D01*
X83375636Y-70555915D01*
X83373335Y-70579281D01*
X83367956Y-70602143D01*
X83366253Y-70651184D01*
X83365001Y-70663895D01*
X83365001Y-70687232D01*
X83362931Y-70746837D01*
X83365001Y-70759532D01*
X83365000Y-73969441D01*
X81484549Y-73980838D01*
X81439774Y-73936063D01*
X81270256Y-73822795D01*
X81081898Y-73744774D01*
X80881939Y-73705000D01*
X80678061Y-73705000D01*
X80478102Y-73744774D01*
X80289744Y-73822795D01*
X80120226Y-73936063D01*
X80051289Y-74005000D01*
X78434446Y-74005000D01*
X83504447Y-68935000D01*
X83601939Y-68935000D01*
X83801898Y-68895226D01*
X83990256Y-68817205D01*
X84159774Y-68703937D01*
X84303937Y-68559774D01*
X84417205Y-68390256D01*
X84495226Y-68201898D01*
X84535000Y-68001939D01*
X84535000Y-67798061D01*
X84495226Y-67598102D01*
X84417205Y-67409744D01*
X84303937Y-67240226D01*
X84159774Y-67096063D01*
X83990256Y-66982795D01*
X83801898Y-66904774D01*
X83601939Y-66865000D01*
X83398061Y-66865000D01*
X83198102Y-66904774D01*
X83009744Y-66982795D01*
X82840226Y-67096063D01*
X82696063Y-67240226D01*
X82582795Y-67409744D01*
X82504774Y-67598102D01*
X82500000Y-67622103D01*
X82495226Y-67598102D01*
X82417205Y-67409744D01*
X82303937Y-67240226D01*
X82159774Y-67096063D01*
X81990256Y-66982795D01*
X81801898Y-66904774D01*
X81601939Y-66865000D01*
X81398061Y-66865000D01*
X81198102Y-66904774D01*
X81009744Y-66982795D01*
X80840226Y-67096063D01*
X80696063Y-67240226D01*
X80582795Y-67409744D01*
X80504774Y-67598102D01*
X80465000Y-67798061D01*
X80465000Y-67895553D01*
X76045554Y-72315000D01*
X68646105Y-72315000D01*
X68610000Y-72311444D01*
X68465915Y-72325635D01*
X68327366Y-72367663D01*
X68199680Y-72435913D01*
X68087762Y-72527762D01*
X68064746Y-72555807D01*
X65495808Y-75124746D01*
X65467762Y-75147763D01*
X65375913Y-75259681D01*
X65307663Y-75387368D01*
X65278384Y-75483887D01*
X65265635Y-75525915D01*
X65251444Y-75670000D01*
X65255000Y-75706106D01*
X65255000Y-75709043D01*
X65160986Y-75759294D01*
X64934866Y-75944866D01*
X64910393Y-75974687D01*
X64889502Y-75905820D01*
X64830537Y-75795506D01*
X64751185Y-75698815D01*
X64654494Y-75619463D01*
X64544180Y-75560498D01*
X64424482Y-75524188D01*
X64300000Y-75511928D01*
X63735750Y-75515000D01*
X63577000Y-75673750D01*
X63323000Y-75673750D01*
X63164250Y-75515000D01*
X62600000Y-75511928D01*
X62475518Y-75524188D01*
X62355820Y-75560498D01*
X62245506Y-75619463D01*
X62148815Y-75698815D01*
X62069463Y-75795506D01*
X62010498Y-75905820D01*
X61974188Y-76025518D01*
X61961928Y-76150000D01*
X60610000Y-76150000D01*
X60610000Y-61032278D01*
X60676714Y-60351874D01*
X60864943Y-59728428D01*
X61170681Y-59153421D01*
X61582279Y-58648753D01*
X62084067Y-58233638D01*
X62656924Y-57923895D01*
X63279039Y-57731318D01*
X63957584Y-57660000D01*
X68095845Y-57660000D01*
X67555330Y-58021161D01*
M02*
