G04 #@! TF.GenerationSoftware,KiCad,Pcbnew,(5.1.2-1)-1*
G04 #@! TF.CreationDate,2020-04-26T15:35:38+02:00*
G04 #@! TF.ProjectId,USB-C-USB-3.2,5553422d-432d-4555-9342-2d332e322e6b,rev?*
G04 #@! TF.SameCoordinates,Original*
G04 #@! TF.FileFunction,Soldermask,Bot*
G04 #@! TF.FilePolarity,Negative*
%FSLAX46Y46*%
G04 Gerber Fmt 4.6, Leading zero omitted, Abs format (unit mm)*
G04 Created by KiCad (PCBNEW (5.1.2-1)-1) date 2020-04-26 15:35:38*
%MOMM*%
%LPD*%
G04 APERTURE LIST*
%ADD10C,0.100000*%
G04 APERTURE END LIST*
D10*
G36*
X101660443Y-76105519D02*
G01*
X101726627Y-76112037D01*
X101896466Y-76163557D01*
X102052991Y-76247222D01*
X102088729Y-76276552D01*
X102190186Y-76359814D01*
X102273448Y-76461271D01*
X102302778Y-76497009D01*
X102386443Y-76653534D01*
X102437963Y-76823373D01*
X102455359Y-77000000D01*
X102437963Y-77176627D01*
X102386443Y-77346466D01*
X102302778Y-77502991D01*
X102273448Y-77538729D01*
X102190186Y-77640186D01*
X102088729Y-77723448D01*
X102052991Y-77752778D01*
X101896466Y-77836443D01*
X101726627Y-77887963D01*
X101660442Y-77894482D01*
X101594260Y-77901000D01*
X101505740Y-77901000D01*
X101439558Y-77894482D01*
X101373373Y-77887963D01*
X101203534Y-77836443D01*
X101047009Y-77752778D01*
X101011271Y-77723448D01*
X100909814Y-77640186D01*
X100826552Y-77538729D01*
X100797222Y-77502991D01*
X100713557Y-77346466D01*
X100662037Y-77176627D01*
X100644641Y-77000000D01*
X100662037Y-76823373D01*
X100713557Y-76653534D01*
X100797222Y-76497009D01*
X100826552Y-76461271D01*
X100909814Y-76359814D01*
X101011271Y-76276552D01*
X101047009Y-76247222D01*
X101203534Y-76163557D01*
X101373373Y-76112037D01*
X101439557Y-76105519D01*
X101505740Y-76099000D01*
X101594260Y-76099000D01*
X101660443Y-76105519D01*
X101660443Y-76105519D01*
G37*
G36*
X99120443Y-76105519D02*
G01*
X99186627Y-76112037D01*
X99356466Y-76163557D01*
X99512991Y-76247222D01*
X99548729Y-76276552D01*
X99650186Y-76359814D01*
X99733448Y-76461271D01*
X99762778Y-76497009D01*
X99846443Y-76653534D01*
X99897963Y-76823373D01*
X99915359Y-77000000D01*
X99897963Y-77176627D01*
X99846443Y-77346466D01*
X99762778Y-77502991D01*
X99733448Y-77538729D01*
X99650186Y-77640186D01*
X99548729Y-77723448D01*
X99512991Y-77752778D01*
X99356466Y-77836443D01*
X99186627Y-77887963D01*
X99120442Y-77894482D01*
X99054260Y-77901000D01*
X98965740Y-77901000D01*
X98899558Y-77894482D01*
X98833373Y-77887963D01*
X98663534Y-77836443D01*
X98507009Y-77752778D01*
X98471271Y-77723448D01*
X98369814Y-77640186D01*
X98286552Y-77538729D01*
X98257222Y-77502991D01*
X98173557Y-77346466D01*
X98122037Y-77176627D01*
X98104641Y-77000000D01*
X98122037Y-76823373D01*
X98173557Y-76653534D01*
X98257222Y-76497009D01*
X98286552Y-76461271D01*
X98369814Y-76359814D01*
X98471271Y-76276552D01*
X98507009Y-76247222D01*
X98663534Y-76163557D01*
X98833373Y-76112037D01*
X98899557Y-76105519D01*
X98965740Y-76099000D01*
X99054260Y-76099000D01*
X99120443Y-76105519D01*
X99120443Y-76105519D01*
G37*
G36*
X96580443Y-76105519D02*
G01*
X96646627Y-76112037D01*
X96816466Y-76163557D01*
X96972991Y-76247222D01*
X97008729Y-76276552D01*
X97110186Y-76359814D01*
X97193448Y-76461271D01*
X97222778Y-76497009D01*
X97306443Y-76653534D01*
X97357963Y-76823373D01*
X97375359Y-77000000D01*
X97357963Y-77176627D01*
X97306443Y-77346466D01*
X97222778Y-77502991D01*
X97193448Y-77538729D01*
X97110186Y-77640186D01*
X97008729Y-77723448D01*
X96972991Y-77752778D01*
X96816466Y-77836443D01*
X96646627Y-77887963D01*
X96580442Y-77894482D01*
X96514260Y-77901000D01*
X96425740Y-77901000D01*
X96359558Y-77894482D01*
X96293373Y-77887963D01*
X96123534Y-77836443D01*
X95967009Y-77752778D01*
X95931271Y-77723448D01*
X95829814Y-77640186D01*
X95746552Y-77538729D01*
X95717222Y-77502991D01*
X95633557Y-77346466D01*
X95582037Y-77176627D01*
X95564641Y-77000000D01*
X95582037Y-76823373D01*
X95633557Y-76653534D01*
X95717222Y-76497009D01*
X95746552Y-76461271D01*
X95829814Y-76359814D01*
X95931271Y-76276552D01*
X95967009Y-76247222D01*
X96123534Y-76163557D01*
X96293373Y-76112037D01*
X96359557Y-76105519D01*
X96425740Y-76099000D01*
X96514260Y-76099000D01*
X96580443Y-76105519D01*
X96580443Y-76105519D01*
G37*
G36*
X94040443Y-76105519D02*
G01*
X94106627Y-76112037D01*
X94276466Y-76163557D01*
X94432991Y-76247222D01*
X94468729Y-76276552D01*
X94570186Y-76359814D01*
X94653448Y-76461271D01*
X94682778Y-76497009D01*
X94766443Y-76653534D01*
X94817963Y-76823373D01*
X94835359Y-77000000D01*
X94817963Y-77176627D01*
X94766443Y-77346466D01*
X94682778Y-77502991D01*
X94653448Y-77538729D01*
X94570186Y-77640186D01*
X94468729Y-77723448D01*
X94432991Y-77752778D01*
X94276466Y-77836443D01*
X94106627Y-77887963D01*
X94040442Y-77894482D01*
X93974260Y-77901000D01*
X93885740Y-77901000D01*
X93819558Y-77894482D01*
X93753373Y-77887963D01*
X93583534Y-77836443D01*
X93427009Y-77752778D01*
X93391271Y-77723448D01*
X93289814Y-77640186D01*
X93206552Y-77538729D01*
X93177222Y-77502991D01*
X93093557Y-77346466D01*
X93042037Y-77176627D01*
X93024641Y-77000000D01*
X93042037Y-76823373D01*
X93093557Y-76653534D01*
X93177222Y-76497009D01*
X93206552Y-76461271D01*
X93289814Y-76359814D01*
X93391271Y-76276552D01*
X93427009Y-76247222D01*
X93583534Y-76163557D01*
X93753373Y-76112037D01*
X93819557Y-76105519D01*
X93885740Y-76099000D01*
X93974260Y-76099000D01*
X94040443Y-76105519D01*
X94040443Y-76105519D01*
G37*
G36*
X91500443Y-76105519D02*
G01*
X91566627Y-76112037D01*
X91736466Y-76163557D01*
X91892991Y-76247222D01*
X91928729Y-76276552D01*
X92030186Y-76359814D01*
X92113448Y-76461271D01*
X92142778Y-76497009D01*
X92226443Y-76653534D01*
X92277963Y-76823373D01*
X92295359Y-77000000D01*
X92277963Y-77176627D01*
X92226443Y-77346466D01*
X92142778Y-77502991D01*
X92113448Y-77538729D01*
X92030186Y-77640186D01*
X91928729Y-77723448D01*
X91892991Y-77752778D01*
X91736466Y-77836443D01*
X91566627Y-77887963D01*
X91500442Y-77894482D01*
X91434260Y-77901000D01*
X91345740Y-77901000D01*
X91279558Y-77894482D01*
X91213373Y-77887963D01*
X91043534Y-77836443D01*
X90887009Y-77752778D01*
X90851271Y-77723448D01*
X90749814Y-77640186D01*
X90666552Y-77538729D01*
X90637222Y-77502991D01*
X90553557Y-77346466D01*
X90502037Y-77176627D01*
X90484641Y-77000000D01*
X90502037Y-76823373D01*
X90553557Y-76653534D01*
X90637222Y-76497009D01*
X90666552Y-76461271D01*
X90749814Y-76359814D01*
X90851271Y-76276552D01*
X90887009Y-76247222D01*
X91043534Y-76163557D01*
X91213373Y-76112037D01*
X91279557Y-76105519D01*
X91345740Y-76099000D01*
X91434260Y-76099000D01*
X91500443Y-76105519D01*
X91500443Y-76105519D01*
G37*
G36*
X88960443Y-76105519D02*
G01*
X89026627Y-76112037D01*
X89196466Y-76163557D01*
X89352991Y-76247222D01*
X89388729Y-76276552D01*
X89490186Y-76359814D01*
X89573448Y-76461271D01*
X89602778Y-76497009D01*
X89686443Y-76653534D01*
X89737963Y-76823373D01*
X89755359Y-77000000D01*
X89737963Y-77176627D01*
X89686443Y-77346466D01*
X89602778Y-77502991D01*
X89573448Y-77538729D01*
X89490186Y-77640186D01*
X89388729Y-77723448D01*
X89352991Y-77752778D01*
X89196466Y-77836443D01*
X89026627Y-77887963D01*
X88960442Y-77894482D01*
X88894260Y-77901000D01*
X88805740Y-77901000D01*
X88739558Y-77894482D01*
X88673373Y-77887963D01*
X88503534Y-77836443D01*
X88347009Y-77752778D01*
X88311271Y-77723448D01*
X88209814Y-77640186D01*
X88126552Y-77538729D01*
X88097222Y-77502991D01*
X88013557Y-77346466D01*
X87962037Y-77176627D01*
X87944641Y-77000000D01*
X87962037Y-76823373D01*
X88013557Y-76653534D01*
X88097222Y-76497009D01*
X88126552Y-76461271D01*
X88209814Y-76359814D01*
X88311271Y-76276552D01*
X88347009Y-76247222D01*
X88503534Y-76163557D01*
X88673373Y-76112037D01*
X88739557Y-76105519D01*
X88805740Y-76099000D01*
X88894260Y-76099000D01*
X88960443Y-76105519D01*
X88960443Y-76105519D01*
G37*
G36*
X86420443Y-76105519D02*
G01*
X86486627Y-76112037D01*
X86656466Y-76163557D01*
X86812991Y-76247222D01*
X86848729Y-76276552D01*
X86950186Y-76359814D01*
X87033448Y-76461271D01*
X87062778Y-76497009D01*
X87146443Y-76653534D01*
X87197963Y-76823373D01*
X87215359Y-77000000D01*
X87197963Y-77176627D01*
X87146443Y-77346466D01*
X87062778Y-77502991D01*
X87033448Y-77538729D01*
X86950186Y-77640186D01*
X86848729Y-77723448D01*
X86812991Y-77752778D01*
X86656466Y-77836443D01*
X86486627Y-77887963D01*
X86420442Y-77894482D01*
X86354260Y-77901000D01*
X86265740Y-77901000D01*
X86199558Y-77894482D01*
X86133373Y-77887963D01*
X85963534Y-77836443D01*
X85807009Y-77752778D01*
X85771271Y-77723448D01*
X85669814Y-77640186D01*
X85586552Y-77538729D01*
X85557222Y-77502991D01*
X85473557Y-77346466D01*
X85422037Y-77176627D01*
X85404641Y-77000000D01*
X85422037Y-76823373D01*
X85473557Y-76653534D01*
X85557222Y-76497009D01*
X85586552Y-76461271D01*
X85669814Y-76359814D01*
X85771271Y-76276552D01*
X85807009Y-76247222D01*
X85963534Y-76163557D01*
X86133373Y-76112037D01*
X86199557Y-76105519D01*
X86265740Y-76099000D01*
X86354260Y-76099000D01*
X86420443Y-76105519D01*
X86420443Y-76105519D01*
G37*
G36*
X83880443Y-76105519D02*
G01*
X83946627Y-76112037D01*
X84116466Y-76163557D01*
X84272991Y-76247222D01*
X84308729Y-76276552D01*
X84410186Y-76359814D01*
X84493448Y-76461271D01*
X84522778Y-76497009D01*
X84606443Y-76653534D01*
X84657963Y-76823373D01*
X84675359Y-77000000D01*
X84657963Y-77176627D01*
X84606443Y-77346466D01*
X84522778Y-77502991D01*
X84493448Y-77538729D01*
X84410186Y-77640186D01*
X84308729Y-77723448D01*
X84272991Y-77752778D01*
X84116466Y-77836443D01*
X83946627Y-77887963D01*
X83880442Y-77894482D01*
X83814260Y-77901000D01*
X83725740Y-77901000D01*
X83659558Y-77894482D01*
X83593373Y-77887963D01*
X83423534Y-77836443D01*
X83267009Y-77752778D01*
X83231271Y-77723448D01*
X83129814Y-77640186D01*
X83046552Y-77538729D01*
X83017222Y-77502991D01*
X82933557Y-77346466D01*
X82882037Y-77176627D01*
X82864641Y-77000000D01*
X82882037Y-76823373D01*
X82933557Y-76653534D01*
X83017222Y-76497009D01*
X83046552Y-76461271D01*
X83129814Y-76359814D01*
X83231271Y-76276552D01*
X83267009Y-76247222D01*
X83423534Y-76163557D01*
X83593373Y-76112037D01*
X83659557Y-76105519D01*
X83725740Y-76099000D01*
X83814260Y-76099000D01*
X83880443Y-76105519D01*
X83880443Y-76105519D01*
G37*
G36*
X81340443Y-76105519D02*
G01*
X81406627Y-76112037D01*
X81576466Y-76163557D01*
X81732991Y-76247222D01*
X81768729Y-76276552D01*
X81870186Y-76359814D01*
X81953448Y-76461271D01*
X81982778Y-76497009D01*
X82066443Y-76653534D01*
X82117963Y-76823373D01*
X82135359Y-77000000D01*
X82117963Y-77176627D01*
X82066443Y-77346466D01*
X81982778Y-77502991D01*
X81953448Y-77538729D01*
X81870186Y-77640186D01*
X81768729Y-77723448D01*
X81732991Y-77752778D01*
X81576466Y-77836443D01*
X81406627Y-77887963D01*
X81340442Y-77894482D01*
X81274260Y-77901000D01*
X81185740Y-77901000D01*
X81119558Y-77894482D01*
X81053373Y-77887963D01*
X80883534Y-77836443D01*
X80727009Y-77752778D01*
X80691271Y-77723448D01*
X80589814Y-77640186D01*
X80506552Y-77538729D01*
X80477222Y-77502991D01*
X80393557Y-77346466D01*
X80342037Y-77176627D01*
X80324641Y-77000000D01*
X80342037Y-76823373D01*
X80393557Y-76653534D01*
X80477222Y-76497009D01*
X80506552Y-76461271D01*
X80589814Y-76359814D01*
X80691271Y-76276552D01*
X80727009Y-76247222D01*
X80883534Y-76163557D01*
X81053373Y-76112037D01*
X81119557Y-76105519D01*
X81185740Y-76099000D01*
X81274260Y-76099000D01*
X81340443Y-76105519D01*
X81340443Y-76105519D01*
G37*
G36*
X78800443Y-76105519D02*
G01*
X78866627Y-76112037D01*
X79036466Y-76163557D01*
X79192991Y-76247222D01*
X79228729Y-76276552D01*
X79330186Y-76359814D01*
X79413448Y-76461271D01*
X79442778Y-76497009D01*
X79526443Y-76653534D01*
X79577963Y-76823373D01*
X79595359Y-77000000D01*
X79577963Y-77176627D01*
X79526443Y-77346466D01*
X79442778Y-77502991D01*
X79413448Y-77538729D01*
X79330186Y-77640186D01*
X79228729Y-77723448D01*
X79192991Y-77752778D01*
X79036466Y-77836443D01*
X78866627Y-77887963D01*
X78800442Y-77894482D01*
X78734260Y-77901000D01*
X78645740Y-77901000D01*
X78579558Y-77894482D01*
X78513373Y-77887963D01*
X78343534Y-77836443D01*
X78187009Y-77752778D01*
X78151271Y-77723448D01*
X78049814Y-77640186D01*
X77966552Y-77538729D01*
X77937222Y-77502991D01*
X77853557Y-77346466D01*
X77802037Y-77176627D01*
X77784641Y-77000000D01*
X77802037Y-76823373D01*
X77853557Y-76653534D01*
X77937222Y-76497009D01*
X77966552Y-76461271D01*
X78049814Y-76359814D01*
X78151271Y-76276552D01*
X78187009Y-76247222D01*
X78343534Y-76163557D01*
X78513373Y-76112037D01*
X78579557Y-76105519D01*
X78645740Y-76099000D01*
X78734260Y-76099000D01*
X78800443Y-76105519D01*
X78800443Y-76105519D01*
G37*
G36*
X76260443Y-76105519D02*
G01*
X76326627Y-76112037D01*
X76496466Y-76163557D01*
X76652991Y-76247222D01*
X76688729Y-76276552D01*
X76790186Y-76359814D01*
X76873448Y-76461271D01*
X76902778Y-76497009D01*
X76986443Y-76653534D01*
X77037963Y-76823373D01*
X77055359Y-77000000D01*
X77037963Y-77176627D01*
X76986443Y-77346466D01*
X76902778Y-77502991D01*
X76873448Y-77538729D01*
X76790186Y-77640186D01*
X76688729Y-77723448D01*
X76652991Y-77752778D01*
X76496466Y-77836443D01*
X76326627Y-77887963D01*
X76260442Y-77894482D01*
X76194260Y-77901000D01*
X76105740Y-77901000D01*
X76039558Y-77894482D01*
X75973373Y-77887963D01*
X75803534Y-77836443D01*
X75647009Y-77752778D01*
X75611271Y-77723448D01*
X75509814Y-77640186D01*
X75426552Y-77538729D01*
X75397222Y-77502991D01*
X75313557Y-77346466D01*
X75262037Y-77176627D01*
X75244641Y-77000000D01*
X75262037Y-76823373D01*
X75313557Y-76653534D01*
X75397222Y-76497009D01*
X75426552Y-76461271D01*
X75509814Y-76359814D01*
X75611271Y-76276552D01*
X75647009Y-76247222D01*
X75803534Y-76163557D01*
X75973373Y-76112037D01*
X76039557Y-76105519D01*
X76105740Y-76099000D01*
X76194260Y-76099000D01*
X76260443Y-76105519D01*
X76260443Y-76105519D01*
G37*
G36*
X73720443Y-76105519D02*
G01*
X73786627Y-76112037D01*
X73956466Y-76163557D01*
X74112991Y-76247222D01*
X74148729Y-76276552D01*
X74250186Y-76359814D01*
X74333448Y-76461271D01*
X74362778Y-76497009D01*
X74446443Y-76653534D01*
X74497963Y-76823373D01*
X74515359Y-77000000D01*
X74497963Y-77176627D01*
X74446443Y-77346466D01*
X74362778Y-77502991D01*
X74333448Y-77538729D01*
X74250186Y-77640186D01*
X74148729Y-77723448D01*
X74112991Y-77752778D01*
X73956466Y-77836443D01*
X73786627Y-77887963D01*
X73720442Y-77894482D01*
X73654260Y-77901000D01*
X73565740Y-77901000D01*
X73499558Y-77894482D01*
X73433373Y-77887963D01*
X73263534Y-77836443D01*
X73107009Y-77752778D01*
X73071271Y-77723448D01*
X72969814Y-77640186D01*
X72886552Y-77538729D01*
X72857222Y-77502991D01*
X72773557Y-77346466D01*
X72722037Y-77176627D01*
X72704641Y-77000000D01*
X72722037Y-76823373D01*
X72773557Y-76653534D01*
X72857222Y-76497009D01*
X72886552Y-76461271D01*
X72969814Y-76359814D01*
X73071271Y-76276552D01*
X73107009Y-76247222D01*
X73263534Y-76163557D01*
X73433373Y-76112037D01*
X73499557Y-76105519D01*
X73565740Y-76099000D01*
X73654260Y-76099000D01*
X73720443Y-76105519D01*
X73720443Y-76105519D01*
G37*
G36*
X71180443Y-76105519D02*
G01*
X71246627Y-76112037D01*
X71416466Y-76163557D01*
X71572991Y-76247222D01*
X71608729Y-76276552D01*
X71710186Y-76359814D01*
X71793448Y-76461271D01*
X71822778Y-76497009D01*
X71906443Y-76653534D01*
X71957963Y-76823373D01*
X71975359Y-77000000D01*
X71957963Y-77176627D01*
X71906443Y-77346466D01*
X71822778Y-77502991D01*
X71793448Y-77538729D01*
X71710186Y-77640186D01*
X71608729Y-77723448D01*
X71572991Y-77752778D01*
X71416466Y-77836443D01*
X71246627Y-77887963D01*
X71180442Y-77894482D01*
X71114260Y-77901000D01*
X71025740Y-77901000D01*
X70959558Y-77894482D01*
X70893373Y-77887963D01*
X70723534Y-77836443D01*
X70567009Y-77752778D01*
X70531271Y-77723448D01*
X70429814Y-77640186D01*
X70346552Y-77538729D01*
X70317222Y-77502991D01*
X70233557Y-77346466D01*
X70182037Y-77176627D01*
X70164641Y-77000000D01*
X70182037Y-76823373D01*
X70233557Y-76653534D01*
X70317222Y-76497009D01*
X70346552Y-76461271D01*
X70429814Y-76359814D01*
X70531271Y-76276552D01*
X70567009Y-76247222D01*
X70723534Y-76163557D01*
X70893373Y-76112037D01*
X70959557Y-76105519D01*
X71025740Y-76099000D01*
X71114260Y-76099000D01*
X71180443Y-76105519D01*
X71180443Y-76105519D01*
G37*
G36*
X68640443Y-76105519D02*
G01*
X68706627Y-76112037D01*
X68876466Y-76163557D01*
X69032991Y-76247222D01*
X69068729Y-76276552D01*
X69170186Y-76359814D01*
X69253448Y-76461271D01*
X69282778Y-76497009D01*
X69366443Y-76653534D01*
X69417963Y-76823373D01*
X69435359Y-77000000D01*
X69417963Y-77176627D01*
X69366443Y-77346466D01*
X69282778Y-77502991D01*
X69253448Y-77538729D01*
X69170186Y-77640186D01*
X69068729Y-77723448D01*
X69032991Y-77752778D01*
X68876466Y-77836443D01*
X68706627Y-77887963D01*
X68640442Y-77894482D01*
X68574260Y-77901000D01*
X68485740Y-77901000D01*
X68419558Y-77894482D01*
X68353373Y-77887963D01*
X68183534Y-77836443D01*
X68027009Y-77752778D01*
X67991271Y-77723448D01*
X67889814Y-77640186D01*
X67806552Y-77538729D01*
X67777222Y-77502991D01*
X67693557Y-77346466D01*
X67642037Y-77176627D01*
X67624641Y-77000000D01*
X67642037Y-76823373D01*
X67693557Y-76653534D01*
X67777222Y-76497009D01*
X67806552Y-76461271D01*
X67889814Y-76359814D01*
X67991271Y-76276552D01*
X68027009Y-76247222D01*
X68183534Y-76163557D01*
X68353373Y-76112037D01*
X68419557Y-76105519D01*
X68485740Y-76099000D01*
X68574260Y-76099000D01*
X68640443Y-76105519D01*
X68640443Y-76105519D01*
G37*
G36*
X66100443Y-76105519D02*
G01*
X66166627Y-76112037D01*
X66336466Y-76163557D01*
X66492991Y-76247222D01*
X66528729Y-76276552D01*
X66630186Y-76359814D01*
X66713448Y-76461271D01*
X66742778Y-76497009D01*
X66826443Y-76653534D01*
X66877963Y-76823373D01*
X66895359Y-77000000D01*
X66877963Y-77176627D01*
X66826443Y-77346466D01*
X66742778Y-77502991D01*
X66713448Y-77538729D01*
X66630186Y-77640186D01*
X66528729Y-77723448D01*
X66492991Y-77752778D01*
X66336466Y-77836443D01*
X66166627Y-77887963D01*
X66100442Y-77894482D01*
X66034260Y-77901000D01*
X65945740Y-77901000D01*
X65879558Y-77894482D01*
X65813373Y-77887963D01*
X65643534Y-77836443D01*
X65487009Y-77752778D01*
X65451271Y-77723448D01*
X65349814Y-77640186D01*
X65266552Y-77538729D01*
X65237222Y-77502991D01*
X65153557Y-77346466D01*
X65102037Y-77176627D01*
X65084641Y-77000000D01*
X65102037Y-76823373D01*
X65153557Y-76653534D01*
X65237222Y-76497009D01*
X65266552Y-76461271D01*
X65349814Y-76359814D01*
X65451271Y-76276552D01*
X65487009Y-76247222D01*
X65643534Y-76163557D01*
X65813373Y-76112037D01*
X65879557Y-76105519D01*
X65945740Y-76099000D01*
X66034260Y-76099000D01*
X66100443Y-76105519D01*
X66100443Y-76105519D01*
G37*
G36*
X64351000Y-77901000D02*
G01*
X62549000Y-77901000D01*
X62549000Y-76099000D01*
X64351000Y-76099000D01*
X64351000Y-77901000D01*
X64351000Y-77901000D01*
G37*
G36*
X86209672Y-65598449D02*
G01*
X86209674Y-65598450D01*
X86209675Y-65598450D01*
X86278103Y-65626793D01*
X86339686Y-65667942D01*
X86392058Y-65720314D01*
X86433207Y-65781897D01*
X86441233Y-65801275D01*
X86461551Y-65850328D01*
X86476000Y-65922966D01*
X86476000Y-65997034D01*
X86468705Y-66033709D01*
X86461550Y-66069675D01*
X86433207Y-66138103D01*
X86392058Y-66199686D01*
X86339686Y-66252058D01*
X86278103Y-66293207D01*
X86209675Y-66321550D01*
X86209674Y-66321550D01*
X86209672Y-66321551D01*
X86137034Y-66336000D01*
X86062966Y-66336000D01*
X85990328Y-66321551D01*
X85990326Y-66321550D01*
X85990325Y-66321550D01*
X85921897Y-66293207D01*
X85860314Y-66252058D01*
X85807942Y-66199686D01*
X85766793Y-66138103D01*
X85738450Y-66069675D01*
X85731296Y-66033709D01*
X85724000Y-65997034D01*
X85724000Y-65922966D01*
X85738449Y-65850328D01*
X85758767Y-65801275D01*
X85766793Y-65781897D01*
X85807942Y-65720314D01*
X85860314Y-65667942D01*
X85921897Y-65626793D01*
X85990325Y-65598450D01*
X85990326Y-65598450D01*
X85990328Y-65598449D01*
X86062966Y-65584000D01*
X86137034Y-65584000D01*
X86209672Y-65598449D01*
X86209672Y-65598449D01*
G37*
G36*
X78458410Y-63965525D02*
G01*
X78543426Y-63991314D01*
X78621775Y-64033193D01*
X78690449Y-64089551D01*
X78746807Y-64158225D01*
X78788686Y-64236574D01*
X78814475Y-64321590D01*
X78821000Y-64387842D01*
X78821000Y-65032158D01*
X78814475Y-65098410D01*
X78788686Y-65183426D01*
X78746807Y-65261775D01*
X78690449Y-65330448D01*
X78651546Y-65362374D01*
X78634219Y-65379701D01*
X78620605Y-65400075D01*
X78611227Y-65422714D01*
X78606446Y-65446747D01*
X78606446Y-65471251D01*
X78611226Y-65495285D01*
X78620603Y-65517924D01*
X78634216Y-65538298D01*
X78651543Y-65555625D01*
X78671917Y-65569239D01*
X78694556Y-65578617D01*
X78718589Y-65583398D01*
X78730843Y-65584000D01*
X79068472Y-65584000D01*
X79123710Y-65589440D01*
X79196825Y-65611620D01*
X79220858Y-65616401D01*
X79245362Y-65616401D01*
X79269396Y-65611621D01*
X79292035Y-65602244D01*
X79312409Y-65588630D01*
X79329736Y-65571303D01*
X79343350Y-65550929D01*
X79352727Y-65528290D01*
X79357508Y-65504257D01*
X79357508Y-65479753D01*
X79352728Y-65455719D01*
X79348595Y-65444169D01*
X79338449Y-65419674D01*
X79324000Y-65347034D01*
X79324000Y-65272966D01*
X79338449Y-65200328D01*
X79345450Y-65183425D01*
X79366793Y-65131897D01*
X79407942Y-65070314D01*
X79460314Y-65017942D01*
X79521897Y-64976793D01*
X79590325Y-64948450D01*
X79590324Y-64948450D01*
X79590327Y-64948449D01*
X79665338Y-64933528D01*
X79688786Y-64926415D01*
X79710397Y-64914864D01*
X79729339Y-64899318D01*
X79744884Y-64880376D01*
X79756435Y-64858766D01*
X79763548Y-64835317D01*
X79765950Y-64810931D01*
X79763548Y-64786544D01*
X79756435Y-64763096D01*
X79738449Y-64719674D01*
X79724000Y-64647034D01*
X79724000Y-64572966D01*
X79738449Y-64500328D01*
X79738450Y-64500325D01*
X79766793Y-64431897D01*
X79807942Y-64370314D01*
X79860314Y-64317942D01*
X79921897Y-64276793D01*
X79990325Y-64248450D01*
X79990326Y-64248450D01*
X79990328Y-64248449D01*
X80062966Y-64234000D01*
X80137034Y-64234000D01*
X80209672Y-64248449D01*
X80209674Y-64248450D01*
X80209675Y-64248450D01*
X80278103Y-64276793D01*
X80339686Y-64317942D01*
X80392058Y-64370314D01*
X80396072Y-64376321D01*
X80411612Y-64395256D01*
X80430553Y-64410801D01*
X80452164Y-64422353D01*
X80475613Y-64429466D01*
X80499999Y-64431868D01*
X80524385Y-64429466D01*
X80547834Y-64422353D01*
X80569445Y-64410803D01*
X80588387Y-64395257D01*
X80603928Y-64376321D01*
X80607942Y-64370314D01*
X80660314Y-64317942D01*
X80721897Y-64276793D01*
X80790325Y-64248450D01*
X80790326Y-64248450D01*
X80790328Y-64248449D01*
X80862966Y-64234000D01*
X80937034Y-64234000D01*
X81009672Y-64248449D01*
X81009674Y-64248450D01*
X81009675Y-64248450D01*
X81078103Y-64276793D01*
X81139686Y-64317942D01*
X81192058Y-64370314D01*
X81196072Y-64376321D01*
X81211612Y-64395256D01*
X81230553Y-64410801D01*
X81252164Y-64422353D01*
X81275613Y-64429466D01*
X81299999Y-64431868D01*
X81324385Y-64429466D01*
X81347834Y-64422353D01*
X81369445Y-64410803D01*
X81388387Y-64395257D01*
X81403928Y-64376321D01*
X81407942Y-64370314D01*
X81460314Y-64317942D01*
X81521897Y-64276793D01*
X81590325Y-64248450D01*
X81590326Y-64248450D01*
X81590328Y-64248449D01*
X81662966Y-64234000D01*
X81737034Y-64234000D01*
X81809672Y-64248449D01*
X81809674Y-64248450D01*
X81809675Y-64248450D01*
X81878103Y-64276793D01*
X81939686Y-64317942D01*
X81992058Y-64370314D01*
X82033207Y-64431897D01*
X82061550Y-64500325D01*
X82061551Y-64500328D01*
X82076000Y-64572966D01*
X82076000Y-64647034D01*
X82061551Y-64719674D01*
X82043565Y-64763096D01*
X82036452Y-64786545D01*
X82034050Y-64810931D01*
X82036452Y-64835317D01*
X82043565Y-64858766D01*
X82055116Y-64880376D01*
X82070661Y-64899318D01*
X82089603Y-64914864D01*
X82111214Y-64926415D01*
X82134662Y-64933528D01*
X82209673Y-64948449D01*
X82209676Y-64948450D01*
X82209675Y-64948450D01*
X82278103Y-64976793D01*
X82339686Y-65017942D01*
X82392058Y-65070314D01*
X82396072Y-65076321D01*
X82411612Y-65095256D01*
X82430553Y-65110801D01*
X82452164Y-65122353D01*
X82475613Y-65129466D01*
X82499999Y-65131868D01*
X82524385Y-65129466D01*
X82547834Y-65122353D01*
X82569445Y-65110803D01*
X82588387Y-65095257D01*
X82603928Y-65076321D01*
X82607942Y-65070314D01*
X82660314Y-65017942D01*
X82721897Y-64976793D01*
X82790325Y-64948450D01*
X82790324Y-64948450D01*
X82790327Y-64948449D01*
X82865338Y-64933528D01*
X82888786Y-64926415D01*
X82910397Y-64914864D01*
X82929339Y-64899318D01*
X82944884Y-64880376D01*
X82956435Y-64858766D01*
X82963548Y-64835317D01*
X82965950Y-64810931D01*
X82963548Y-64786544D01*
X82956435Y-64763096D01*
X82938449Y-64719674D01*
X82924000Y-64647034D01*
X82924000Y-64572966D01*
X82938449Y-64500328D01*
X82938450Y-64500325D01*
X82966793Y-64431897D01*
X83007942Y-64370314D01*
X83060314Y-64317942D01*
X83121897Y-64276793D01*
X83190325Y-64248450D01*
X83190326Y-64248450D01*
X83190328Y-64248449D01*
X83262966Y-64234000D01*
X83337034Y-64234000D01*
X83409672Y-64248449D01*
X83409674Y-64248450D01*
X83409675Y-64248450D01*
X83478103Y-64276793D01*
X83539686Y-64317942D01*
X83592058Y-64370314D01*
X83596072Y-64376321D01*
X83611612Y-64395256D01*
X83630553Y-64410801D01*
X83652164Y-64422353D01*
X83675613Y-64429466D01*
X83699999Y-64431868D01*
X83724385Y-64429466D01*
X83747834Y-64422353D01*
X83769445Y-64410803D01*
X83788387Y-64395257D01*
X83803928Y-64376321D01*
X83807942Y-64370314D01*
X83860314Y-64317942D01*
X83921897Y-64276793D01*
X83990325Y-64248450D01*
X83990326Y-64248450D01*
X83990328Y-64248449D01*
X84062966Y-64234000D01*
X84137034Y-64234000D01*
X84209672Y-64248449D01*
X84209674Y-64248450D01*
X84209675Y-64248450D01*
X84278103Y-64276793D01*
X84339686Y-64317942D01*
X84392058Y-64370314D01*
X84396072Y-64376321D01*
X84411612Y-64395256D01*
X84430553Y-64410801D01*
X84452164Y-64422353D01*
X84475613Y-64429466D01*
X84499999Y-64431868D01*
X84524385Y-64429466D01*
X84547834Y-64422353D01*
X84569445Y-64410803D01*
X84588387Y-64395257D01*
X84603928Y-64376321D01*
X84607942Y-64370314D01*
X84660314Y-64317942D01*
X84721897Y-64276793D01*
X84790325Y-64248450D01*
X84790326Y-64248450D01*
X84790328Y-64248449D01*
X84862966Y-64234000D01*
X84937034Y-64234000D01*
X85009672Y-64248449D01*
X85009674Y-64248450D01*
X85009675Y-64248450D01*
X85078103Y-64276793D01*
X85139686Y-64317942D01*
X85192058Y-64370314D01*
X85233207Y-64431897D01*
X85261550Y-64500325D01*
X85261551Y-64500328D01*
X85276000Y-64572966D01*
X85276000Y-64647034D01*
X85261551Y-64719674D01*
X85243565Y-64763096D01*
X85236452Y-64786545D01*
X85234050Y-64810931D01*
X85236452Y-64835317D01*
X85243565Y-64858766D01*
X85255116Y-64880376D01*
X85270661Y-64899318D01*
X85289603Y-64914864D01*
X85311214Y-64926415D01*
X85334662Y-64933528D01*
X85409673Y-64948449D01*
X85409676Y-64948450D01*
X85409675Y-64948450D01*
X85478103Y-64976793D01*
X85539686Y-65017942D01*
X85592058Y-65070314D01*
X85633207Y-65131897D01*
X85654550Y-65183425D01*
X85661551Y-65200328D01*
X85676000Y-65272966D01*
X85676000Y-65347034D01*
X85672949Y-65362374D01*
X85661550Y-65419675D01*
X85633207Y-65488103D01*
X85592058Y-65549686D01*
X85539686Y-65602058D01*
X85478103Y-65643207D01*
X85409675Y-65671550D01*
X85409674Y-65671550D01*
X85409672Y-65671551D01*
X85337034Y-65686000D01*
X85262966Y-65686000D01*
X85190328Y-65671551D01*
X85190326Y-65671550D01*
X85190325Y-65671550D01*
X85121897Y-65643207D01*
X85060314Y-65602058D01*
X85007942Y-65549686D01*
X84966793Y-65488103D01*
X84938450Y-65419675D01*
X84927052Y-65362374D01*
X84924000Y-65347034D01*
X84924000Y-65272966D01*
X84938449Y-65200326D01*
X84956435Y-65156904D01*
X84963548Y-65133455D01*
X84965950Y-65109069D01*
X84963548Y-65084683D01*
X84956435Y-65061234D01*
X84944884Y-65039624D01*
X84929339Y-65020682D01*
X84910397Y-65005136D01*
X84888786Y-64993585D01*
X84865338Y-64986472D01*
X84790327Y-64971551D01*
X84780304Y-64967399D01*
X84721897Y-64943207D01*
X84660314Y-64902058D01*
X84607942Y-64849686D01*
X84603928Y-64843679D01*
X84588388Y-64824744D01*
X84569447Y-64809199D01*
X84547836Y-64797647D01*
X84524387Y-64790534D01*
X84500001Y-64788132D01*
X84475615Y-64790534D01*
X84452166Y-64797647D01*
X84430555Y-64809197D01*
X84411613Y-64824743D01*
X84396072Y-64843679D01*
X84392058Y-64849686D01*
X84339686Y-64902058D01*
X84278103Y-64943207D01*
X84219696Y-64967399D01*
X84209673Y-64971551D01*
X84134662Y-64986472D01*
X84111214Y-64993585D01*
X84089603Y-65005136D01*
X84070661Y-65020682D01*
X84055116Y-65039624D01*
X84043565Y-65061234D01*
X84036452Y-65084683D01*
X84034050Y-65109069D01*
X84036452Y-65133456D01*
X84043565Y-65156904D01*
X84061551Y-65200326D01*
X84076000Y-65272966D01*
X84076000Y-65347034D01*
X84072949Y-65362374D01*
X84061550Y-65419675D01*
X84033207Y-65488103D01*
X83992058Y-65549686D01*
X83939686Y-65602058D01*
X83878103Y-65643207D01*
X83809675Y-65671550D01*
X83809674Y-65671550D01*
X83809672Y-65671551D01*
X83737034Y-65686000D01*
X83662966Y-65686000D01*
X83590328Y-65671551D01*
X83590326Y-65671550D01*
X83590325Y-65671550D01*
X83521897Y-65643207D01*
X83460314Y-65602058D01*
X83407942Y-65549686D01*
X83403928Y-65543679D01*
X83388388Y-65524744D01*
X83369447Y-65509199D01*
X83347836Y-65497647D01*
X83324387Y-65490534D01*
X83300001Y-65488132D01*
X83275615Y-65490534D01*
X83252166Y-65497647D01*
X83230555Y-65509197D01*
X83211613Y-65524743D01*
X83196072Y-65543679D01*
X83192058Y-65549686D01*
X83139686Y-65602058D01*
X83078103Y-65643207D01*
X83009675Y-65671550D01*
X83009674Y-65671550D01*
X83009672Y-65671551D01*
X82937034Y-65686000D01*
X82862966Y-65686000D01*
X82790328Y-65671551D01*
X82790326Y-65671550D01*
X82790325Y-65671550D01*
X82721897Y-65643207D01*
X82660314Y-65602058D01*
X82607942Y-65549686D01*
X82603928Y-65543679D01*
X82588388Y-65524744D01*
X82569447Y-65509199D01*
X82547836Y-65497647D01*
X82524387Y-65490534D01*
X82500001Y-65488132D01*
X82475615Y-65490534D01*
X82452166Y-65497647D01*
X82430555Y-65509197D01*
X82411613Y-65524743D01*
X82396072Y-65543679D01*
X82392058Y-65549686D01*
X82339686Y-65602058D01*
X82278103Y-65643207D01*
X82209675Y-65671550D01*
X82209674Y-65671550D01*
X82209672Y-65671551D01*
X82137034Y-65686000D01*
X82062966Y-65686000D01*
X81990328Y-65671551D01*
X81990326Y-65671550D01*
X81990325Y-65671550D01*
X81921897Y-65643207D01*
X81860314Y-65602058D01*
X81807942Y-65549686D01*
X81803928Y-65543679D01*
X81788388Y-65524744D01*
X81769447Y-65509199D01*
X81747836Y-65497647D01*
X81724387Y-65490534D01*
X81700001Y-65488132D01*
X81675615Y-65490534D01*
X81652166Y-65497647D01*
X81630555Y-65509197D01*
X81611613Y-65524743D01*
X81596072Y-65543679D01*
X81592058Y-65549686D01*
X81539686Y-65602058D01*
X81478103Y-65643207D01*
X81409675Y-65671550D01*
X81409674Y-65671550D01*
X81409672Y-65671551D01*
X81337034Y-65686000D01*
X81262966Y-65686000D01*
X81190328Y-65671551D01*
X81190326Y-65671550D01*
X81190325Y-65671550D01*
X81121897Y-65643207D01*
X81060314Y-65602058D01*
X81007942Y-65549686D01*
X80966793Y-65488103D01*
X80938450Y-65419675D01*
X80927052Y-65362374D01*
X80924000Y-65347034D01*
X80924000Y-65272966D01*
X80938449Y-65200326D01*
X80956435Y-65156904D01*
X80963548Y-65133455D01*
X80965950Y-65109069D01*
X80963548Y-65084683D01*
X80956435Y-65061234D01*
X80944884Y-65039624D01*
X80929339Y-65020682D01*
X80910397Y-65005136D01*
X80888786Y-64993585D01*
X80865338Y-64986472D01*
X80790327Y-64971551D01*
X80780304Y-64967399D01*
X80721897Y-64943207D01*
X80660314Y-64902058D01*
X80607942Y-64849686D01*
X80603928Y-64843679D01*
X80588388Y-64824744D01*
X80569447Y-64809199D01*
X80547836Y-64797647D01*
X80524387Y-64790534D01*
X80500001Y-64788132D01*
X80475615Y-64790534D01*
X80452166Y-64797647D01*
X80430555Y-64809197D01*
X80411613Y-64824743D01*
X80396072Y-64843679D01*
X80392058Y-64849686D01*
X80339686Y-64902058D01*
X80278103Y-64943207D01*
X80219696Y-64967399D01*
X80209673Y-64971551D01*
X80134662Y-64986472D01*
X80111214Y-64993585D01*
X80089603Y-65005136D01*
X80070661Y-65020682D01*
X80055116Y-65039624D01*
X80043565Y-65061234D01*
X80036452Y-65084683D01*
X80034050Y-65109069D01*
X80036452Y-65133456D01*
X80043565Y-65156904D01*
X80061551Y-65200326D01*
X80076000Y-65272966D01*
X80076000Y-65347034D01*
X80072949Y-65362374D01*
X80061550Y-65419675D01*
X80033207Y-65488103D01*
X79992058Y-65549686D01*
X79939686Y-65602058D01*
X79878103Y-65643207D01*
X79809675Y-65671550D01*
X79809674Y-65671550D01*
X79809672Y-65671551D01*
X79737034Y-65686000D01*
X79662966Y-65686000D01*
X79590326Y-65671551D01*
X79565831Y-65661405D01*
X79542382Y-65654292D01*
X79517996Y-65651890D01*
X79493610Y-65654292D01*
X79470161Y-65661405D01*
X79448550Y-65672956D01*
X79429608Y-65688501D01*
X79414063Y-65707443D01*
X79402512Y-65729054D01*
X79395399Y-65752503D01*
X79392997Y-65776889D01*
X79395399Y-65801275D01*
X79398380Y-65813175D01*
X79420560Y-65886290D01*
X79427819Y-65960000D01*
X79420560Y-66033710D01*
X79399060Y-66104585D01*
X79364146Y-66169904D01*
X79317159Y-66227159D01*
X79259904Y-66274146D01*
X79194585Y-66309060D01*
X79123710Y-66330560D01*
X79068472Y-66336000D01*
X78731528Y-66336000D01*
X78676290Y-66330560D01*
X78605415Y-66309060D01*
X78540096Y-66274146D01*
X78482841Y-66227159D01*
X78435854Y-66169904D01*
X78400940Y-66104585D01*
X78379440Y-66033710D01*
X78372181Y-65960000D01*
X78379440Y-65886290D01*
X78400940Y-65815415D01*
X78435854Y-65750096D01*
X78482841Y-65692842D01*
X78497703Y-65680645D01*
X78515030Y-65663318D01*
X78528644Y-65642944D01*
X78538021Y-65620305D01*
X78542802Y-65596272D01*
X78542802Y-65571768D01*
X78538022Y-65547735D01*
X78528645Y-65525096D01*
X78515031Y-65504721D01*
X78497704Y-65487394D01*
X78477330Y-65473780D01*
X78454691Y-65464403D01*
X78430658Y-65459622D01*
X78406154Y-65459622D01*
X78370001Y-65463182D01*
X78370000Y-65463182D01*
X78361293Y-65462324D01*
X78281590Y-65454475D01*
X78196574Y-65428686D01*
X78118225Y-65386807D01*
X78049552Y-65330449D01*
X77993193Y-65261774D01*
X77951314Y-65183425D01*
X77925525Y-65098409D01*
X77919000Y-65032157D01*
X77919000Y-64387842D01*
X77925525Y-64321590D01*
X77951313Y-64236577D01*
X77993195Y-64158224D01*
X78049552Y-64089551D01*
X78118226Y-64033193D01*
X78196575Y-63991314D01*
X78281591Y-63965525D01*
X78370000Y-63956818D01*
X78458410Y-63965525D01*
X78458410Y-63965525D01*
G37*
G36*
X86718410Y-63965525D02*
G01*
X86803426Y-63991314D01*
X86881775Y-64033193D01*
X86950449Y-64089551D01*
X87006807Y-64158225D01*
X87048686Y-64236574D01*
X87074475Y-64321590D01*
X87081000Y-64387842D01*
X87081000Y-65032158D01*
X87074475Y-65098410D01*
X87048686Y-65183426D01*
X87006807Y-65261775D01*
X86950449Y-65330448D01*
X86881774Y-65386807D01*
X86803425Y-65428686D01*
X86718409Y-65454475D01*
X86630000Y-65463182D01*
X86541590Y-65454475D01*
X86456574Y-65428686D01*
X86378225Y-65386807D01*
X86309552Y-65330449D01*
X86253193Y-65261774D01*
X86211314Y-65183425D01*
X86185525Y-65098409D01*
X86179000Y-65032157D01*
X86179000Y-64387842D01*
X86185525Y-64321590D01*
X86211313Y-64236577D01*
X86253195Y-64158224D01*
X86309552Y-64089551D01*
X86378226Y-64033193D01*
X86456575Y-63991314D01*
X86541591Y-63965525D01*
X86630000Y-63956818D01*
X86718410Y-63965525D01*
X86718410Y-63965525D01*
G37*
G36*
X95634239Y-57811467D02*
G01*
X95948282Y-57873934D01*
X96539926Y-58119001D01*
X96940073Y-58386371D01*
X97017111Y-58437846D01*
X97072392Y-58474784D01*
X97525216Y-58927608D01*
X97880999Y-59460074D01*
X98126066Y-60051718D01*
X98126066Y-60051719D01*
X98251000Y-60679803D01*
X98251000Y-61320197D01*
X98188533Y-61634239D01*
X98126066Y-61948282D01*
X97880999Y-62539926D01*
X97525216Y-63072392D01*
X97072392Y-63525216D01*
X96539926Y-63880999D01*
X95948282Y-64126066D01*
X95634239Y-64188533D01*
X95320197Y-64251000D01*
X94679803Y-64251000D01*
X94365761Y-64188533D01*
X94051718Y-64126066D01*
X93460074Y-63880999D01*
X92927608Y-63525216D01*
X92474784Y-63072392D01*
X92119001Y-62539926D01*
X91873934Y-61948282D01*
X91811467Y-61634239D01*
X91749000Y-61320197D01*
X91749000Y-60679803D01*
X91873934Y-60051719D01*
X91873934Y-60051718D01*
X92119001Y-59460074D01*
X92474784Y-58927608D01*
X92927608Y-58474784D01*
X92982890Y-58437846D01*
X93059927Y-58386371D01*
X93460074Y-58119001D01*
X94051718Y-57873934D01*
X94365761Y-57811467D01*
X94679803Y-57749000D01*
X95320197Y-57749000D01*
X95634239Y-57811467D01*
X95634239Y-57811467D01*
G37*
G36*
X70634239Y-57811467D02*
G01*
X70948282Y-57873934D01*
X71539926Y-58119001D01*
X71940073Y-58386371D01*
X72017111Y-58437846D01*
X72072392Y-58474784D01*
X72525216Y-58927608D01*
X72880999Y-59460074D01*
X73126066Y-60051718D01*
X73126066Y-60051719D01*
X73251000Y-60679803D01*
X73251000Y-61320197D01*
X73188533Y-61634239D01*
X73126066Y-61948282D01*
X72880999Y-62539926D01*
X72525216Y-63072392D01*
X72072392Y-63525216D01*
X71539926Y-63880999D01*
X70948282Y-64126066D01*
X70634239Y-64188533D01*
X70320197Y-64251000D01*
X69679803Y-64251000D01*
X69365761Y-64188533D01*
X69051718Y-64126066D01*
X68460074Y-63880999D01*
X67927608Y-63525216D01*
X67474784Y-63072392D01*
X67119001Y-62539926D01*
X66873934Y-61948282D01*
X66811467Y-61634239D01*
X66749000Y-61320197D01*
X66749000Y-60679803D01*
X66873934Y-60051719D01*
X66873934Y-60051718D01*
X67119001Y-59460074D01*
X67474784Y-58927608D01*
X67927608Y-58474784D01*
X67982890Y-58437846D01*
X68059927Y-58386371D01*
X68460074Y-58119001D01*
X69051718Y-57873934D01*
X69365761Y-57811467D01*
X69679803Y-57749000D01*
X70320197Y-57749000D01*
X70634239Y-57811467D01*
X70634239Y-57811467D01*
G37*
G36*
X87078410Y-58015525D02*
G01*
X87163426Y-58041314D01*
X87241775Y-58083193D01*
X87310449Y-58139551D01*
X87366807Y-58208225D01*
X87408686Y-58286574D01*
X87434475Y-58371590D01*
X87441000Y-58437842D01*
X87441000Y-59082158D01*
X87434475Y-59148410D01*
X87408686Y-59233426D01*
X87366807Y-59311775D01*
X87310449Y-59380448D01*
X87241774Y-59436807D01*
X87163425Y-59478686D01*
X87078409Y-59504475D01*
X86990000Y-59513182D01*
X86901590Y-59504475D01*
X86816574Y-59478686D01*
X86738225Y-59436807D01*
X86669552Y-59380449D01*
X86613193Y-59311774D01*
X86571314Y-59233425D01*
X86545525Y-59148409D01*
X86539000Y-59082157D01*
X86539000Y-58437842D01*
X86545525Y-58371590D01*
X86571313Y-58286577D01*
X86613195Y-58208224D01*
X86669552Y-58139551D01*
X86738226Y-58083193D01*
X86816575Y-58041314D01*
X86901591Y-58015525D01*
X86990000Y-58006818D01*
X87078410Y-58015525D01*
X87078410Y-58015525D01*
G37*
G36*
X78098410Y-58015525D02*
G01*
X78183426Y-58041314D01*
X78261775Y-58083193D01*
X78330449Y-58139551D01*
X78386807Y-58208225D01*
X78428686Y-58286574D01*
X78454475Y-58371590D01*
X78461000Y-58437842D01*
X78461000Y-59082158D01*
X78454475Y-59148410D01*
X78428686Y-59233426D01*
X78386807Y-59311775D01*
X78330449Y-59380448D01*
X78261774Y-59436807D01*
X78183425Y-59478686D01*
X78098409Y-59504475D01*
X78010000Y-59513182D01*
X77921590Y-59504475D01*
X77836574Y-59478686D01*
X77758225Y-59436807D01*
X77689552Y-59380449D01*
X77633193Y-59311774D01*
X77591314Y-59233425D01*
X77565525Y-59148409D01*
X77559000Y-59082157D01*
X77559000Y-58437842D01*
X77565525Y-58371590D01*
X77591313Y-58286577D01*
X77633195Y-58208224D01*
X77689552Y-58139551D01*
X77758226Y-58083193D01*
X77836575Y-58041314D01*
X77921591Y-58015525D01*
X78010000Y-58006818D01*
X78098410Y-58015525D01*
X78098410Y-58015525D01*
G37*
M02*
