G04 #@! TF.GenerationSoftware,KiCad,Pcbnew,(5.1.2-1)-1*
G04 #@! TF.CreationDate,2020-04-26T15:35:38+02:00*
G04 #@! TF.ProjectId,USB-C-USB-3.2,5553422d-432d-4555-9342-2d332e322e6b,rev?*
G04 #@! TF.SameCoordinates,Original*
G04 #@! TF.FileFunction,Legend,Bot*
G04 #@! TF.FilePolarity,Positive*
%FSLAX46Y46*%
G04 Gerber Fmt 4.6, Leading zero omitted, Abs format (unit mm)*
G04 Created by KiCad (PCBNEW (5.1.2-1)-1) date 2020-04-26 15:35:38*
%MOMM*%
%LPD*%
G04 APERTURE LIST*
%ADD10C,0.100000*%
%ADD11C,0.250000*%
%ADD12C,0.150000*%
G04 APERTURE END LIST*
D10*
X101359523Y-79411904D02*
X101359523Y-80059523D01*
X101321428Y-80135714D01*
X101283333Y-80173809D01*
X101207142Y-80211904D01*
X101054761Y-80211904D01*
X100978571Y-80173809D01*
X100940476Y-80135714D01*
X100902380Y-80059523D01*
X100902380Y-79411904D01*
X100559523Y-80173809D02*
X100445238Y-80211904D01*
X100254761Y-80211904D01*
X100178571Y-80173809D01*
X100140476Y-80135714D01*
X100102380Y-80059523D01*
X100102380Y-79983333D01*
X100140476Y-79907142D01*
X100178571Y-79869047D01*
X100254761Y-79830952D01*
X100407142Y-79792857D01*
X100483333Y-79754761D01*
X100521428Y-79716666D01*
X100559523Y-79640476D01*
X100559523Y-79564285D01*
X100521428Y-79488095D01*
X100483333Y-79450000D01*
X100407142Y-79411904D01*
X100216666Y-79411904D01*
X100102380Y-79450000D01*
X99492857Y-79792857D02*
X99378571Y-79830952D01*
X99340476Y-79869047D01*
X99302380Y-79945238D01*
X99302380Y-80059523D01*
X99340476Y-80135714D01*
X99378571Y-80173809D01*
X99454761Y-80211904D01*
X99759523Y-80211904D01*
X99759523Y-79411904D01*
X99492857Y-79411904D01*
X99416666Y-79450000D01*
X99378571Y-79488095D01*
X99340476Y-79564285D01*
X99340476Y-79640476D01*
X99378571Y-79716666D01*
X99416666Y-79754761D01*
X99492857Y-79792857D01*
X99759523Y-79792857D01*
X98350000Y-79678571D02*
X98350000Y-80478571D01*
X98350000Y-79716666D02*
X98273809Y-79678571D01*
X98121428Y-79678571D01*
X98045238Y-79716666D01*
X98007142Y-79754761D01*
X97969047Y-79830952D01*
X97969047Y-80059523D01*
X98007142Y-80135714D01*
X98045238Y-80173809D01*
X98121428Y-80211904D01*
X98273809Y-80211904D01*
X98350000Y-80173809D01*
X97283333Y-80211904D02*
X97283333Y-79792857D01*
X97321428Y-79716666D01*
X97397619Y-79678571D01*
X97550000Y-79678571D01*
X97626190Y-79716666D01*
X97283333Y-80173809D02*
X97359523Y-80211904D01*
X97550000Y-80211904D01*
X97626190Y-80173809D01*
X97664285Y-80097619D01*
X97664285Y-80021428D01*
X97626190Y-79945238D01*
X97550000Y-79907142D01*
X97359523Y-79907142D01*
X97283333Y-79869047D01*
X96902380Y-80211904D02*
X96902380Y-79678571D01*
X96902380Y-79830952D02*
X96864285Y-79754761D01*
X96826190Y-79716666D01*
X96750000Y-79678571D01*
X96673809Y-79678571D01*
X96521428Y-79678571D02*
X96216666Y-79678571D01*
X96407142Y-79411904D02*
X96407142Y-80097619D01*
X96369047Y-80173809D01*
X96292857Y-80211904D01*
X96216666Y-80211904D01*
X95988095Y-79678571D02*
X95416666Y-79678571D01*
X95759523Y-79335714D02*
X95988095Y-80364285D01*
X95492857Y-80021428D02*
X96064285Y-80021428D01*
X95721428Y-80364285D02*
X95492857Y-79335714D01*
X94578571Y-79983333D02*
X94197619Y-79983333D01*
X94654761Y-80211904D02*
X94388095Y-79411904D01*
X94121428Y-80211904D01*
X93854761Y-80211904D02*
X93854761Y-79678571D01*
X93854761Y-79754761D02*
X93816666Y-79716666D01*
X93740476Y-79678571D01*
X93626190Y-79678571D01*
X93550000Y-79716666D01*
X93511904Y-79792857D01*
X93511904Y-80211904D01*
X93511904Y-79792857D02*
X93473809Y-79716666D01*
X93397619Y-79678571D01*
X93283333Y-79678571D01*
X93207142Y-79716666D01*
X93169047Y-79792857D01*
X93169047Y-80211904D01*
X92788095Y-79678571D02*
X92788095Y-80478571D01*
X92788095Y-79716666D02*
X92711904Y-79678571D01*
X92559523Y-79678571D01*
X92483333Y-79716666D01*
X92445238Y-79754761D01*
X92407142Y-79830952D01*
X92407142Y-80059523D01*
X92445238Y-80135714D01*
X92483333Y-80173809D01*
X92559523Y-80211904D01*
X92711904Y-80211904D01*
X92788095Y-80173809D01*
X92064285Y-80211904D02*
X92064285Y-79411904D01*
X91721428Y-80211904D02*
X91721428Y-79792857D01*
X91759523Y-79716666D01*
X91835714Y-79678571D01*
X91950000Y-79678571D01*
X92026190Y-79716666D01*
X92064285Y-79754761D01*
X91035714Y-80173809D02*
X91111904Y-80211904D01*
X91264285Y-80211904D01*
X91340476Y-80173809D01*
X91378571Y-80097619D01*
X91378571Y-79792857D01*
X91340476Y-79716666D01*
X91264285Y-79678571D01*
X91111904Y-79678571D01*
X91035714Y-79716666D01*
X90997619Y-79792857D01*
X90997619Y-79869047D01*
X91378571Y-79945238D01*
X90654761Y-79678571D02*
X90654761Y-80211904D01*
X90654761Y-79754761D02*
X90616666Y-79716666D01*
X90540476Y-79678571D01*
X90426190Y-79678571D01*
X90350000Y-79716666D01*
X90311904Y-79792857D01*
X90311904Y-80211904D01*
X89816666Y-80211904D02*
X89892857Y-80173809D01*
X89930952Y-80135714D01*
X89969047Y-80059523D01*
X89969047Y-79830952D01*
X89930952Y-79754761D01*
X89892857Y-79716666D01*
X89816666Y-79678571D01*
X89702380Y-79678571D01*
X89626190Y-79716666D01*
X89588095Y-79754761D01*
X89550000Y-79830952D01*
X89550000Y-80059523D01*
X89588095Y-80135714D01*
X89626190Y-80173809D01*
X89702380Y-80211904D01*
X89816666Y-80211904D01*
X89092857Y-80211904D02*
X89169047Y-80173809D01*
X89207142Y-80097619D01*
X89207142Y-79411904D01*
X87759523Y-80211904D02*
X88216666Y-80211904D01*
X87988095Y-80211904D02*
X87988095Y-79411904D01*
X88064285Y-79526190D01*
X88140476Y-79602380D01*
X88216666Y-79640476D01*
X87454761Y-79488095D02*
X87416666Y-79450000D01*
X87340476Y-79411904D01*
X87150000Y-79411904D01*
X87073809Y-79450000D01*
X87035714Y-79488095D01*
X86997619Y-79564285D01*
X86997619Y-79640476D01*
X87035714Y-79754761D01*
X87492857Y-80211904D01*
X86997619Y-80211904D01*
X86311904Y-79678571D02*
X86311904Y-80211904D01*
X86502380Y-79373809D02*
X86692857Y-79945238D01*
X86197619Y-79945238D01*
X85740476Y-79411904D02*
X85664285Y-79411904D01*
X85588095Y-79450000D01*
X85550000Y-79488095D01*
X85511904Y-79564285D01*
X85473809Y-79716666D01*
X85473809Y-79907142D01*
X85511904Y-80059523D01*
X85550000Y-80135714D01*
X85588095Y-80173809D01*
X85664285Y-80211904D01*
X85740476Y-80211904D01*
X85816666Y-80173809D01*
X85854761Y-80135714D01*
X85892857Y-80059523D01*
X85930952Y-79907142D01*
X85930952Y-79716666D01*
X85892857Y-79564285D01*
X85854761Y-79488095D01*
X85816666Y-79450000D01*
X85740476Y-79411904D01*
X84711904Y-80211904D02*
X85169047Y-80211904D01*
X84940476Y-80211904D02*
X84940476Y-79411904D01*
X85016666Y-79526190D01*
X85092857Y-79602380D01*
X85169047Y-79640476D01*
X83988095Y-79411904D02*
X84369047Y-79411904D01*
X84407142Y-79792857D01*
X84369047Y-79754761D01*
X84292857Y-79716666D01*
X84102380Y-79716666D01*
X84026190Y-79754761D01*
X83988095Y-79792857D01*
X83950000Y-79869047D01*
X83950000Y-80059523D01*
X83988095Y-80135714D01*
X84026190Y-80173809D01*
X84102380Y-80211904D01*
X84292857Y-80211904D01*
X84369047Y-80173809D01*
X84407142Y-80135714D01*
X83264285Y-79678571D02*
X83264285Y-80211904D01*
X83454761Y-79373809D02*
X83645238Y-79945238D01*
X83150000Y-79945238D01*
X82730952Y-79754761D02*
X82807142Y-79716666D01*
X82845238Y-79678571D01*
X82883333Y-79602380D01*
X82883333Y-79564285D01*
X82845238Y-79488095D01*
X82807142Y-79450000D01*
X82730952Y-79411904D01*
X82578571Y-79411904D01*
X82502380Y-79450000D01*
X82464285Y-79488095D01*
X82426190Y-79564285D01*
X82426190Y-79602380D01*
X82464285Y-79678571D01*
X82502380Y-79716666D01*
X82578571Y-79754761D01*
X82730952Y-79754761D01*
X82807142Y-79792857D01*
X82845238Y-79830952D01*
X82883333Y-79907142D01*
X82883333Y-80059523D01*
X82845238Y-80135714D01*
X82807142Y-80173809D01*
X82730952Y-80211904D01*
X82578571Y-80211904D01*
X82502380Y-80173809D01*
X82464285Y-80135714D01*
X82426190Y-80059523D01*
X82426190Y-79907142D01*
X82464285Y-79830952D01*
X82502380Y-79792857D01*
X82578571Y-79754761D01*
X82083333Y-79792857D02*
X81816666Y-79792857D01*
X81702380Y-80211904D02*
X82083333Y-80211904D01*
X82083333Y-79411904D01*
X81702380Y-79411904D01*
X81016666Y-79678571D02*
X81016666Y-80211904D01*
X81207142Y-79373809D02*
X81397619Y-79945238D01*
X80902380Y-79945238D01*
X80635714Y-79678571D02*
X80064285Y-79678571D01*
X80407142Y-79335714D02*
X80635714Y-80364285D01*
X80140476Y-80021428D02*
X80711904Y-80021428D01*
X80369047Y-80364285D02*
X80140476Y-79335714D01*
X79835714Y-79488095D02*
X79797619Y-79450000D01*
X79721428Y-79411904D01*
X79530952Y-79411904D01*
X79454761Y-79450000D01*
X79416666Y-79488095D01*
X79378571Y-79564285D01*
X79378571Y-79640476D01*
X79416666Y-79754761D01*
X79873809Y-80211904D01*
X79378571Y-80211904D01*
X79073809Y-79983333D02*
X78692857Y-79983333D01*
X79150000Y-80211904D02*
X78883333Y-79411904D01*
X78616666Y-80211904D01*
X78311904Y-80173809D02*
X78311904Y-80211904D01*
X78350000Y-80288095D01*
X78388095Y-80326190D01*
X77359523Y-80211904D02*
X77359523Y-79411904D01*
X76902380Y-80211904D02*
X77245238Y-79754761D01*
X76902380Y-79411904D02*
X77359523Y-79869047D01*
X76445238Y-80211904D02*
X76521428Y-80173809D01*
X76559523Y-80135714D01*
X76597619Y-80059523D01*
X76597619Y-79830952D01*
X76559523Y-79754761D01*
X76521428Y-79716666D01*
X76445238Y-79678571D01*
X76330952Y-79678571D01*
X76254761Y-79716666D01*
X76216666Y-79754761D01*
X76178571Y-79830952D01*
X76178571Y-80059523D01*
X76216666Y-80135714D01*
X76254761Y-80173809D01*
X76330952Y-80211904D01*
X76445238Y-80211904D01*
X75835714Y-80211904D02*
X75835714Y-79678571D01*
X75835714Y-79830952D02*
X75797619Y-79754761D01*
X75759523Y-79716666D01*
X75683333Y-79678571D01*
X75607142Y-79678571D01*
X75035714Y-80173809D02*
X75111904Y-80211904D01*
X75264285Y-80211904D01*
X75340476Y-80173809D01*
X75378571Y-80097619D01*
X75378571Y-79792857D01*
X75340476Y-79716666D01*
X75264285Y-79678571D01*
X75111904Y-79678571D01*
X75035714Y-79716666D01*
X74997619Y-79792857D01*
X74997619Y-79869047D01*
X75378571Y-79945238D01*
X74311904Y-80211904D02*
X74311904Y-79792857D01*
X74350000Y-79716666D01*
X74426190Y-79678571D01*
X74578571Y-79678571D01*
X74654761Y-79716666D01*
X74311904Y-80173809D02*
X74388095Y-80211904D01*
X74578571Y-80211904D01*
X74654761Y-80173809D01*
X74692857Y-80097619D01*
X74692857Y-80021428D01*
X74654761Y-79945238D01*
X74578571Y-79907142D01*
X74388095Y-79907142D01*
X74311904Y-79869047D01*
X73930952Y-79678571D02*
X73930952Y-80211904D01*
X73930952Y-79754761D02*
X73892857Y-79716666D01*
X73816666Y-79678571D01*
X73702380Y-79678571D01*
X73626190Y-79716666D01*
X73588095Y-79792857D01*
X73588095Y-80211904D01*
X72597619Y-80211904D02*
X72597619Y-79411904D01*
X72597619Y-79792857D02*
X72140476Y-79792857D01*
X72140476Y-80211904D02*
X72140476Y-79411904D01*
X71759523Y-80211904D02*
X71759523Y-79678571D01*
X71759523Y-79830952D02*
X71721428Y-79754761D01*
X71683333Y-79716666D01*
X71607142Y-79678571D01*
X71530952Y-79678571D01*
X71150000Y-80211904D02*
X71226190Y-80173809D01*
X71264285Y-80135714D01*
X71302380Y-80059523D01*
X71302380Y-79830952D01*
X71264285Y-79754761D01*
X71226190Y-79716666D01*
X71150000Y-79678571D01*
X71035714Y-79678571D01*
X70959523Y-79716666D01*
X70921428Y-79754761D01*
X70883333Y-79830952D01*
X70883333Y-80059523D01*
X70921428Y-80135714D01*
X70959523Y-80173809D01*
X71035714Y-80211904D01*
X71150000Y-80211904D01*
X70540476Y-79678571D02*
X70540476Y-80478571D01*
X70540476Y-79716666D02*
X70464285Y-79678571D01*
X70311904Y-79678571D01*
X70235714Y-79716666D01*
X70197619Y-79754761D01*
X70159523Y-79830952D01*
X70159523Y-80059523D01*
X70197619Y-80135714D01*
X70235714Y-80173809D01*
X70311904Y-80211904D01*
X70464285Y-80211904D01*
X70540476Y-80173809D01*
X69473809Y-80211904D02*
X69473809Y-79792857D01*
X69511904Y-79716666D01*
X69588095Y-79678571D01*
X69740476Y-79678571D01*
X69816666Y-79716666D01*
X69473809Y-80173809D02*
X69550000Y-80211904D01*
X69740476Y-80211904D01*
X69816666Y-80173809D01*
X69854761Y-80097619D01*
X69854761Y-80021428D01*
X69816666Y-79945238D01*
X69740476Y-79907142D01*
X69550000Y-79907142D01*
X69473809Y-79869047D01*
X69092857Y-80211904D02*
X69092857Y-79678571D01*
X69092857Y-79830952D02*
X69054761Y-79754761D01*
X69016666Y-79716666D01*
X68940476Y-79678571D01*
X68864285Y-79678571D01*
X68711904Y-79678571D02*
X68407142Y-79678571D01*
X68597619Y-79411904D02*
X68597619Y-80097619D01*
X68559523Y-80173809D01*
X68483333Y-80211904D01*
X68407142Y-80211904D01*
X68178571Y-80173809D02*
X68102380Y-80211904D01*
X67950000Y-80211904D01*
X67873809Y-80173809D01*
X67835714Y-80097619D01*
X67835714Y-80059523D01*
X67873809Y-79983333D01*
X67950000Y-79945238D01*
X68064285Y-79945238D01*
X68140476Y-79907142D01*
X68178571Y-79830952D01*
X68178571Y-79792857D01*
X68140476Y-79716666D01*
X68064285Y-79678571D01*
X67950000Y-79678571D01*
X67873809Y-79716666D01*
X66883333Y-79792857D02*
X66616666Y-79792857D01*
X66502380Y-80211904D02*
X66883333Y-80211904D01*
X66883333Y-79411904D01*
X66502380Y-79411904D01*
X66045238Y-80211904D02*
X66121428Y-80173809D01*
X66159523Y-80097619D01*
X66159523Y-79411904D01*
X65435714Y-80173809D02*
X65511904Y-80211904D01*
X65664285Y-80211904D01*
X65740476Y-80173809D01*
X65778571Y-80097619D01*
X65778571Y-79792857D01*
X65740476Y-79716666D01*
X65664285Y-79678571D01*
X65511904Y-79678571D01*
X65435714Y-79716666D01*
X65397619Y-79792857D01*
X65397619Y-79869047D01*
X65778571Y-79945238D01*
X64711904Y-80173809D02*
X64788095Y-80211904D01*
X64940476Y-80211904D01*
X65016666Y-80173809D01*
X65054761Y-80135714D01*
X65092857Y-80059523D01*
X65092857Y-79830952D01*
X65054761Y-79754761D01*
X65016666Y-79716666D01*
X64940476Y-79678571D01*
X64788095Y-79678571D01*
X64711904Y-79716666D01*
X99740476Y-80711904D02*
X99283333Y-80711904D01*
X99511904Y-81511904D02*
X99511904Y-80711904D01*
X98864285Y-81130952D02*
X98864285Y-81511904D01*
X99130952Y-80711904D02*
X98864285Y-81130952D01*
X98597619Y-80711904D01*
X98330952Y-81511904D02*
X98330952Y-80711904D01*
X98026190Y-80711904D01*
X97950000Y-80750000D01*
X97911904Y-80788095D01*
X97873809Y-80864285D01*
X97873809Y-80978571D01*
X97911904Y-81054761D01*
X97950000Y-81092857D01*
X98026190Y-81130952D01*
X98330952Y-81130952D01*
X97530952Y-81092857D02*
X97264285Y-81092857D01*
X97150000Y-81511904D02*
X97530952Y-81511904D01*
X97530952Y-80711904D01*
X97150000Y-80711904D01*
X96807142Y-81207142D02*
X96197619Y-81207142D01*
X95359523Y-81435714D02*
X95397619Y-81473809D01*
X95511904Y-81511904D01*
X95588095Y-81511904D01*
X95702380Y-81473809D01*
X95778571Y-81397619D01*
X95816666Y-81321428D01*
X95854761Y-81169047D01*
X95854761Y-81054761D01*
X95816666Y-80902380D01*
X95778571Y-80826190D01*
X95702380Y-80750000D01*
X95588095Y-80711904D01*
X95511904Y-80711904D01*
X95397619Y-80750000D01*
X95359523Y-80788095D01*
X95016666Y-81207142D02*
X94407142Y-81207142D01*
X94102380Y-80711904D02*
X93607142Y-80711904D01*
X93873809Y-81016666D01*
X93759523Y-81016666D01*
X93683333Y-81054761D01*
X93645238Y-81092857D01*
X93607142Y-81169047D01*
X93607142Y-81359523D01*
X93645238Y-81435714D01*
X93683333Y-81473809D01*
X93759523Y-81511904D01*
X93988095Y-81511904D01*
X94064285Y-81473809D01*
X94102380Y-81435714D01*
X92845238Y-81511904D02*
X93302380Y-81511904D01*
X93073809Y-81511904D02*
X93073809Y-80711904D01*
X93150000Y-80826190D01*
X93226190Y-80902380D01*
X93302380Y-80940476D01*
X92502380Y-81207142D02*
X91892857Y-81207142D01*
X91511904Y-81511904D02*
X91511904Y-80711904D01*
X91245238Y-81283333D01*
X90978571Y-80711904D01*
X90978571Y-81511904D01*
X90597619Y-81207142D02*
X89988095Y-81207142D01*
X89454761Y-80711904D02*
X89378571Y-80711904D01*
X89302380Y-80750000D01*
X89264285Y-80788095D01*
X89226190Y-80864285D01*
X89188095Y-81016666D01*
X89188095Y-81207142D01*
X89226190Y-81359523D01*
X89264285Y-81435714D01*
X89302380Y-81473809D01*
X89378571Y-81511904D01*
X89454761Y-81511904D01*
X89530952Y-81473809D01*
X89569047Y-81435714D01*
X89607142Y-81359523D01*
X89645238Y-81207142D01*
X89645238Y-81016666D01*
X89607142Y-80864285D01*
X89569047Y-80788095D01*
X89530952Y-80750000D01*
X89454761Y-80711904D01*
X88502380Y-80978571D02*
X88502380Y-81511904D01*
X88692857Y-80673809D02*
X88883333Y-81245238D01*
X88388095Y-81245238D01*
X88045238Y-81473809D02*
X88045238Y-81511904D01*
X88083333Y-81588095D01*
X88121428Y-81626190D01*
X87169047Y-80711904D02*
X86635714Y-81511904D01*
X86635714Y-80711904D02*
X87169047Y-81511904D01*
X86330952Y-81511904D02*
X86330952Y-80711904D01*
X85873809Y-81511904D02*
X86216666Y-81054761D01*
X85873809Y-80711904D02*
X86330952Y-81169047D01*
X85264285Y-81092857D02*
X85150000Y-81130952D01*
X85111904Y-81169047D01*
X85073809Y-81245238D01*
X85073809Y-81359523D01*
X85111904Y-81435714D01*
X85150000Y-81473809D01*
X85226190Y-81511904D01*
X85530952Y-81511904D01*
X85530952Y-80711904D01*
X85264285Y-80711904D01*
X85188095Y-80750000D01*
X85150000Y-80788095D01*
X85111904Y-80864285D01*
X85111904Y-80940476D01*
X85150000Y-81016666D01*
X85188095Y-81054761D01*
X85264285Y-81092857D01*
X85530952Y-81092857D01*
X84121428Y-81092857D02*
X83854761Y-81092857D01*
X83740476Y-81511904D02*
X84121428Y-81511904D01*
X84121428Y-80711904D01*
X83740476Y-80711904D01*
X83397619Y-80978571D02*
X83397619Y-81511904D01*
X83397619Y-81054761D02*
X83359523Y-81016666D01*
X83283333Y-80978571D01*
X83169047Y-80978571D01*
X83092857Y-81016666D01*
X83054761Y-81092857D01*
X83054761Y-81511904D01*
X82788095Y-80978571D02*
X82483333Y-80978571D01*
X82673809Y-80711904D02*
X82673809Y-81397619D01*
X82635714Y-81473809D01*
X82559523Y-81511904D01*
X82483333Y-81511904D01*
X81911904Y-81473809D02*
X81988095Y-81511904D01*
X82140476Y-81511904D01*
X82216666Y-81473809D01*
X82254761Y-81397619D01*
X82254761Y-81092857D01*
X82216666Y-81016666D01*
X82140476Y-80978571D01*
X81988095Y-80978571D01*
X81911904Y-81016666D01*
X81873809Y-81092857D01*
X81873809Y-81169047D01*
X82254761Y-81245238D01*
X81530952Y-81511904D02*
X81530952Y-80978571D01*
X81530952Y-81130952D02*
X81492857Y-81054761D01*
X81454761Y-81016666D01*
X81378571Y-80978571D01*
X81302380Y-80978571D01*
X81035714Y-80978571D02*
X81035714Y-81778571D01*
X81035714Y-81016666D02*
X80959523Y-80978571D01*
X80807142Y-80978571D01*
X80730952Y-81016666D01*
X80692857Y-81054761D01*
X80654761Y-81130952D01*
X80654761Y-81359523D01*
X80692857Y-81435714D01*
X80730952Y-81473809D01*
X80807142Y-81511904D01*
X80959523Y-81511904D01*
X81035714Y-81473809D01*
X80311904Y-81511904D02*
X80311904Y-80978571D01*
X80311904Y-81130952D02*
X80273809Y-81054761D01*
X80235714Y-81016666D01*
X80159523Y-80978571D01*
X80083333Y-80978571D01*
X79816666Y-81511904D02*
X79816666Y-80978571D01*
X79816666Y-80711904D02*
X79854761Y-80750000D01*
X79816666Y-80788095D01*
X79778571Y-80750000D01*
X79816666Y-80711904D01*
X79816666Y-80788095D01*
X79473809Y-81473809D02*
X79397619Y-81511904D01*
X79245238Y-81511904D01*
X79169047Y-81473809D01*
X79130952Y-81397619D01*
X79130952Y-81359523D01*
X79169047Y-81283333D01*
X79245238Y-81245238D01*
X79359523Y-81245238D01*
X79435714Y-81207142D01*
X79473809Y-81130952D01*
X79473809Y-81092857D01*
X79435714Y-81016666D01*
X79359523Y-80978571D01*
X79245238Y-80978571D01*
X79169047Y-81016666D01*
X78483333Y-81473809D02*
X78559523Y-81511904D01*
X78711904Y-81511904D01*
X78788095Y-81473809D01*
X78826190Y-81397619D01*
X78826190Y-81092857D01*
X78788095Y-81016666D01*
X78711904Y-80978571D01*
X78559523Y-80978571D01*
X78483333Y-81016666D01*
X78445238Y-81092857D01*
X78445238Y-81169047D01*
X78826190Y-81245238D01*
X77492857Y-80711904D02*
X77492857Y-81359523D01*
X77454761Y-81435714D01*
X77416666Y-81473809D01*
X77340476Y-81511904D01*
X77188095Y-81511904D01*
X77111904Y-81473809D01*
X77073809Y-81435714D01*
X77035714Y-81359523D01*
X77035714Y-80711904D01*
X76692857Y-80788095D02*
X76654761Y-80750000D01*
X76578571Y-80711904D01*
X76388095Y-80711904D01*
X76311904Y-80750000D01*
X76273809Y-80788095D01*
X76235714Y-80864285D01*
X76235714Y-80940476D01*
X76273809Y-81054761D01*
X76730952Y-81511904D01*
X76235714Y-81511904D01*
X75550000Y-80711904D02*
X75702380Y-80711904D01*
X75778571Y-80750000D01*
X75816666Y-80788095D01*
X75892857Y-80902380D01*
X75930952Y-81054761D01*
X75930952Y-81359523D01*
X75892857Y-81435714D01*
X75854761Y-81473809D01*
X75778571Y-81511904D01*
X75626190Y-81511904D01*
X75550000Y-81473809D01*
X75511904Y-81435714D01*
X75473809Y-81359523D01*
X75473809Y-81169047D01*
X75511904Y-81092857D01*
X75550000Y-81054761D01*
X75626190Y-81016666D01*
X75778571Y-81016666D01*
X75854761Y-81054761D01*
X75892857Y-81092857D01*
X75930952Y-81169047D01*
X75169047Y-80788095D02*
X75130952Y-80750000D01*
X75054761Y-80711904D01*
X74864285Y-80711904D01*
X74788095Y-80750000D01*
X74750000Y-80788095D01*
X74711904Y-80864285D01*
X74711904Y-80940476D01*
X74750000Y-81054761D01*
X75207142Y-81511904D01*
X74711904Y-81511904D01*
X74369047Y-81207142D02*
X73759523Y-81207142D01*
X73416666Y-80788095D02*
X73378571Y-80750000D01*
X73302380Y-80711904D01*
X73111904Y-80711904D01*
X73035714Y-80750000D01*
X72997619Y-80788095D01*
X72959523Y-80864285D01*
X72959523Y-80940476D01*
X72997619Y-81054761D01*
X73454761Y-81511904D01*
X72959523Y-81511904D01*
X72273809Y-80978571D02*
X72273809Y-81511904D01*
X72464285Y-80673809D02*
X72654761Y-81245238D01*
X72159523Y-81245238D01*
X71435714Y-81511904D02*
X71892857Y-81511904D01*
X71664285Y-81511904D02*
X71664285Y-80711904D01*
X71740476Y-80826190D01*
X71816666Y-80902380D01*
X71892857Y-80940476D01*
X71092857Y-81511904D02*
X71092857Y-80711904D01*
X70635714Y-81511904D01*
X70635714Y-80711904D01*
X70254761Y-81207142D02*
X69645238Y-81207142D01*
X68921428Y-80978571D02*
X68921428Y-81511904D01*
X69111904Y-80673809D02*
X69302380Y-81245238D01*
X68807142Y-81245238D01*
X68235714Y-81092857D02*
X68121428Y-81130952D01*
X68083333Y-81169047D01*
X68045238Y-81245238D01*
X68045238Y-81359523D01*
X68083333Y-81435714D01*
X68121428Y-81473809D01*
X68197619Y-81511904D01*
X68502380Y-81511904D01*
X68502380Y-80711904D01*
X68235714Y-80711904D01*
X68159523Y-80750000D01*
X68121428Y-80788095D01*
X68083333Y-80864285D01*
X68083333Y-80940476D01*
X68121428Y-81016666D01*
X68159523Y-81054761D01*
X68235714Y-81092857D01*
X68502380Y-81092857D01*
X67816666Y-80711904D02*
X67550000Y-81511904D01*
X67283333Y-80711904D01*
X66673809Y-80711904D02*
X66826190Y-80711904D01*
X66902380Y-80750000D01*
X66940476Y-80788095D01*
X67016666Y-80902380D01*
X67054761Y-81054761D01*
X67054761Y-81359523D01*
X67016666Y-81435714D01*
X66978571Y-81473809D01*
X66902380Y-81511904D01*
X66750000Y-81511904D01*
X66673809Y-81473809D01*
X66635714Y-81435714D01*
X66597619Y-81359523D01*
X66597619Y-81169047D01*
X66635714Y-81092857D01*
X66673809Y-81054761D01*
X66750000Y-81016666D01*
X66902380Y-81016666D01*
X66978571Y-81054761D01*
X67016666Y-81092857D01*
X67054761Y-81169047D01*
X66102380Y-80711904D02*
X66026190Y-80711904D01*
X65950000Y-80750000D01*
X65911904Y-80788095D01*
X65873809Y-80864285D01*
X65835714Y-81016666D01*
X65835714Y-81207142D01*
X65873809Y-81359523D01*
X65911904Y-81435714D01*
X65950000Y-81473809D01*
X66026190Y-81511904D01*
X66102380Y-81511904D01*
X66178571Y-81473809D01*
X66216666Y-81435714D01*
X66254761Y-81359523D01*
X66292857Y-81207142D01*
X66292857Y-81016666D01*
X66254761Y-80864285D01*
X66216666Y-80788095D01*
X66178571Y-80750000D01*
X66102380Y-80711904D01*
D11*
X94250000Y-73678571D02*
X94250000Y-74892857D01*
X94178571Y-75035714D01*
X94107142Y-75107142D01*
X93964285Y-75178571D01*
X93678571Y-75178571D01*
X93535714Y-75107142D01*
X93464285Y-75035714D01*
X93392857Y-74892857D01*
X93392857Y-73678571D01*
X92750000Y-75107142D02*
X92535714Y-75178571D01*
X92178571Y-75178571D01*
X92035714Y-75107142D01*
X91964285Y-75035714D01*
X91892857Y-74892857D01*
X91892857Y-74750000D01*
X91964285Y-74607142D01*
X92035714Y-74535714D01*
X92178571Y-74464285D01*
X92464285Y-74392857D01*
X92607142Y-74321428D01*
X92678571Y-74250000D01*
X92750000Y-74107142D01*
X92750000Y-73964285D01*
X92678571Y-73821428D01*
X92607142Y-73750000D01*
X92464285Y-73678571D01*
X92107142Y-73678571D01*
X91892857Y-73750000D01*
X90750000Y-74392857D02*
X90535714Y-74464285D01*
X90464285Y-74535714D01*
X90392857Y-74678571D01*
X90392857Y-74892857D01*
X90464285Y-75035714D01*
X90535714Y-75107142D01*
X90678571Y-75178571D01*
X91250000Y-75178571D01*
X91250000Y-73678571D01*
X90750000Y-73678571D01*
X90607142Y-73750000D01*
X90535714Y-73821428D01*
X90464285Y-73964285D01*
X90464285Y-74107142D01*
X90535714Y-74250000D01*
X90607142Y-74321428D01*
X90750000Y-74392857D01*
X91250000Y-74392857D01*
X89750000Y-74607142D02*
X88607142Y-74607142D01*
X87035714Y-75035714D02*
X87107142Y-75107142D01*
X87321428Y-75178571D01*
X87464285Y-75178571D01*
X87678571Y-75107142D01*
X87821428Y-74964285D01*
X87892857Y-74821428D01*
X87964285Y-74535714D01*
X87964285Y-74321428D01*
X87892857Y-74035714D01*
X87821428Y-73892857D01*
X87678571Y-73750000D01*
X87464285Y-73678571D01*
X87321428Y-73678571D01*
X87107142Y-73750000D01*
X87035714Y-73821428D01*
X84750000Y-74392857D02*
X85250000Y-74392857D01*
X85250000Y-75178571D02*
X85250000Y-73678571D01*
X84535714Y-73678571D01*
X83321428Y-74178571D02*
X83321428Y-75178571D01*
X83964285Y-74178571D02*
X83964285Y-74964285D01*
X83892857Y-75107142D01*
X83750000Y-75178571D01*
X83535714Y-75178571D01*
X83392857Y-75107142D01*
X83321428Y-75035714D01*
X82392857Y-75178571D02*
X82535714Y-75107142D01*
X82607142Y-74964285D01*
X82607142Y-73678571D01*
X81607142Y-75178571D02*
X81750000Y-75107142D01*
X81821428Y-74964285D01*
X81821428Y-73678571D01*
X79392857Y-74392857D02*
X79178571Y-74464285D01*
X79107142Y-74535714D01*
X79035714Y-74678571D01*
X79035714Y-74892857D01*
X79107142Y-75035714D01*
X79178571Y-75107142D01*
X79321428Y-75178571D01*
X79892857Y-75178571D01*
X79892857Y-73678571D01*
X79392857Y-73678571D01*
X79250000Y-73750000D01*
X79178571Y-73821428D01*
X79107142Y-73964285D01*
X79107142Y-74107142D01*
X79178571Y-74250000D01*
X79250000Y-74321428D01*
X79392857Y-74392857D01*
X79892857Y-74392857D01*
X78392857Y-75178571D02*
X78392857Y-74178571D01*
X78392857Y-74464285D02*
X78321428Y-74321428D01*
X78250000Y-74250000D01*
X78107142Y-74178571D01*
X77964285Y-74178571D01*
X76892857Y-75107142D02*
X77035714Y-75178571D01*
X77321428Y-75178571D01*
X77464285Y-75107142D01*
X77535714Y-74964285D01*
X77535714Y-74392857D01*
X77464285Y-74250000D01*
X77321428Y-74178571D01*
X77035714Y-74178571D01*
X76892857Y-74250000D01*
X76821428Y-74392857D01*
X76821428Y-74535714D01*
X77535714Y-74678571D01*
X75535714Y-75178571D02*
X75535714Y-74392857D01*
X75607142Y-74250000D01*
X75750000Y-74178571D01*
X76035714Y-74178571D01*
X76178571Y-74250000D01*
X75535714Y-75107142D02*
X75678571Y-75178571D01*
X76035714Y-75178571D01*
X76178571Y-75107142D01*
X76250000Y-74964285D01*
X76250000Y-74821428D01*
X76178571Y-74678571D01*
X76035714Y-74607142D01*
X75678571Y-74607142D01*
X75535714Y-74535714D01*
X74821428Y-75178571D02*
X74821428Y-73678571D01*
X74678571Y-74607142D02*
X74250000Y-75178571D01*
X74250000Y-74178571D02*
X74821428Y-74750000D01*
X73392857Y-75178571D02*
X73535714Y-75107142D01*
X73607142Y-75035714D01*
X73678571Y-74892857D01*
X73678571Y-74464285D01*
X73607142Y-74321428D01*
X73535714Y-74250000D01*
X73392857Y-74178571D01*
X73178571Y-74178571D01*
X73035714Y-74250000D01*
X72964285Y-74321428D01*
X72892857Y-74464285D01*
X72892857Y-74892857D01*
X72964285Y-75035714D01*
X73035714Y-75107142D01*
X73178571Y-75178571D01*
X73392857Y-75178571D01*
X71607142Y-74178571D02*
X71607142Y-75178571D01*
X72250000Y-74178571D02*
X72250000Y-74964285D01*
X72178571Y-75107142D01*
X72035714Y-75178571D01*
X71821428Y-75178571D01*
X71678571Y-75107142D01*
X71607142Y-75035714D01*
X71107142Y-74178571D02*
X70535714Y-74178571D01*
X70892857Y-73678571D02*
X70892857Y-74964285D01*
X70821428Y-75107142D01*
X70678571Y-75178571D01*
X70535714Y-75178571D01*
D12*
X96428571Y-70329761D02*
X96285714Y-70377380D01*
X96047619Y-70377380D01*
X95952380Y-70329761D01*
X95904761Y-70282142D01*
X95857142Y-70186904D01*
X95857142Y-70091666D01*
X95904761Y-69996428D01*
X95952380Y-69948809D01*
X96047619Y-69901190D01*
X96238095Y-69853571D01*
X96333333Y-69805952D01*
X96380952Y-69758333D01*
X96428571Y-69663095D01*
X96428571Y-69567857D01*
X96380952Y-69472619D01*
X96333333Y-69425000D01*
X96238095Y-69377380D01*
X96000000Y-69377380D01*
X95857142Y-69425000D01*
X95047619Y-70329761D02*
X95142857Y-70377380D01*
X95333333Y-70377380D01*
X95428571Y-70329761D01*
X95476190Y-70234523D01*
X95476190Y-69853571D01*
X95428571Y-69758333D01*
X95333333Y-69710714D01*
X95142857Y-69710714D01*
X95047619Y-69758333D01*
X95000000Y-69853571D01*
X95000000Y-69948809D01*
X95476190Y-70044047D01*
X94190476Y-70329761D02*
X94285714Y-70377380D01*
X94476190Y-70377380D01*
X94571428Y-70329761D01*
X94619047Y-70234523D01*
X94619047Y-69853571D01*
X94571428Y-69758333D01*
X94476190Y-69710714D01*
X94285714Y-69710714D01*
X94190476Y-69758333D01*
X94142857Y-69853571D01*
X94142857Y-69948809D01*
X94619047Y-70044047D01*
X92952380Y-69377380D02*
X92952380Y-70186904D01*
X92904761Y-70282142D01*
X92857142Y-70329761D01*
X92761904Y-70377380D01*
X92571428Y-70377380D01*
X92476190Y-70329761D01*
X92428571Y-70282142D01*
X92380952Y-70186904D01*
X92380952Y-69377380D01*
X91952380Y-70329761D02*
X91809523Y-70377380D01*
X91571428Y-70377380D01*
X91476190Y-70329761D01*
X91428571Y-70282142D01*
X91380952Y-70186904D01*
X91380952Y-70091666D01*
X91428571Y-69996428D01*
X91476190Y-69948809D01*
X91571428Y-69901190D01*
X91761904Y-69853571D01*
X91857142Y-69805952D01*
X91904761Y-69758333D01*
X91952380Y-69663095D01*
X91952380Y-69567857D01*
X91904761Y-69472619D01*
X91857142Y-69425000D01*
X91761904Y-69377380D01*
X91523809Y-69377380D01*
X91380952Y-69425000D01*
X90619047Y-69853571D02*
X90476190Y-69901190D01*
X90428571Y-69948809D01*
X90380952Y-70044047D01*
X90380952Y-70186904D01*
X90428571Y-70282142D01*
X90476190Y-70329761D01*
X90571428Y-70377380D01*
X90952380Y-70377380D01*
X90952380Y-69377380D01*
X90619047Y-69377380D01*
X90523809Y-69425000D01*
X90476190Y-69472619D01*
X90428571Y-69567857D01*
X90428571Y-69663095D01*
X90476190Y-69758333D01*
X90523809Y-69805952D01*
X90619047Y-69853571D01*
X90952380Y-69853571D01*
X89952380Y-69996428D02*
X89190476Y-69996428D01*
X88714285Y-70377380D02*
X88714285Y-69377380D01*
X87904761Y-69853571D02*
X88238095Y-69853571D01*
X88238095Y-70377380D02*
X88238095Y-69377380D01*
X87761904Y-69377380D01*
X86666666Y-70329761D02*
X86571428Y-70377380D01*
X86380952Y-70377380D01*
X86285714Y-70329761D01*
X86238095Y-70234523D01*
X86238095Y-70186904D01*
X86285714Y-70091666D01*
X86380952Y-70044047D01*
X86523809Y-70044047D01*
X86619047Y-69996428D01*
X86666666Y-69901190D01*
X86666666Y-69853571D01*
X86619047Y-69758333D01*
X86523809Y-69710714D01*
X86380952Y-69710714D01*
X86285714Y-69758333D01*
X85809523Y-69710714D02*
X85809523Y-70710714D01*
X85809523Y-69758333D02*
X85714285Y-69710714D01*
X85523809Y-69710714D01*
X85428571Y-69758333D01*
X85380952Y-69805952D01*
X85333333Y-69901190D01*
X85333333Y-70186904D01*
X85380952Y-70282142D01*
X85428571Y-70329761D01*
X85523809Y-70377380D01*
X85714285Y-70377380D01*
X85809523Y-70329761D01*
X84523809Y-70329761D02*
X84619047Y-70377380D01*
X84809523Y-70377380D01*
X84904761Y-70329761D01*
X84952380Y-70234523D01*
X84952380Y-69853571D01*
X84904761Y-69758333D01*
X84809523Y-69710714D01*
X84619047Y-69710714D01*
X84523809Y-69758333D01*
X84476190Y-69853571D01*
X84476190Y-69948809D01*
X84952380Y-70044047D01*
X83619047Y-70329761D02*
X83714285Y-70377380D01*
X83904761Y-70377380D01*
X84000000Y-70329761D01*
X84047619Y-70282142D01*
X84095238Y-70186904D01*
X84095238Y-69901190D01*
X84047619Y-69805952D01*
X84000000Y-69758333D01*
X83904761Y-69710714D01*
X83714285Y-69710714D01*
X83619047Y-69758333D01*
X83142857Y-70329761D02*
X83142857Y-70377380D01*
X83190476Y-70472619D01*
X83238095Y-70520238D01*
X81952380Y-70377380D02*
X81952380Y-69377380D01*
X81619047Y-70091666D01*
X81285714Y-69377380D01*
X81285714Y-70377380D01*
X80809523Y-70377380D02*
X80809523Y-69710714D01*
X80809523Y-69377380D02*
X80857142Y-69425000D01*
X80809523Y-69472619D01*
X80761904Y-69425000D01*
X80809523Y-69377380D01*
X80809523Y-69472619D01*
X79904761Y-70329761D02*
X80000000Y-70377380D01*
X80190476Y-70377380D01*
X80285714Y-70329761D01*
X80333333Y-70282142D01*
X80380952Y-70186904D01*
X80380952Y-69901190D01*
X80333333Y-69805952D01*
X80285714Y-69758333D01*
X80190476Y-69710714D01*
X80000000Y-69710714D01*
X79904761Y-69758333D01*
X79476190Y-70377380D02*
X79476190Y-69710714D01*
X79476190Y-69901190D02*
X79428571Y-69805952D01*
X79380952Y-69758333D01*
X79285714Y-69710714D01*
X79190476Y-69710714D01*
X78714285Y-70377380D02*
X78809523Y-70329761D01*
X78857142Y-70282142D01*
X78904761Y-70186904D01*
X78904761Y-69901190D01*
X78857142Y-69805952D01*
X78809523Y-69758333D01*
X78714285Y-69710714D01*
X78571428Y-69710714D01*
X78476190Y-69758333D01*
X78428571Y-69805952D01*
X78380952Y-69901190D01*
X78380952Y-70186904D01*
X78428571Y-70282142D01*
X78476190Y-70329761D01*
X78571428Y-70377380D01*
X78714285Y-70377380D01*
X77523809Y-70329761D02*
X77619047Y-70377380D01*
X77809523Y-70377380D01*
X77904761Y-70329761D01*
X77952380Y-70282142D01*
X78000000Y-70186904D01*
X78000000Y-69901190D01*
X77952380Y-69805952D01*
X77904761Y-69758333D01*
X77809523Y-69710714D01*
X77619047Y-69710714D01*
X77523809Y-69758333D01*
X77095238Y-70377380D02*
X77095238Y-69377380D01*
X76666666Y-70377380D02*
X76666666Y-69853571D01*
X76714285Y-69758333D01*
X76809523Y-69710714D01*
X76952380Y-69710714D01*
X77047619Y-69758333D01*
X77095238Y-69805952D01*
X76190476Y-70377380D02*
X76190476Y-69710714D01*
X76190476Y-69377380D02*
X76238095Y-69425000D01*
X76190476Y-69472619D01*
X76142857Y-69425000D01*
X76190476Y-69377380D01*
X76190476Y-69472619D01*
X75714285Y-69710714D02*
X75714285Y-70710714D01*
X75714285Y-69758333D02*
X75619047Y-69710714D01*
X75428571Y-69710714D01*
X75333333Y-69758333D01*
X75285714Y-69805952D01*
X75238095Y-69901190D01*
X75238095Y-70186904D01*
X75285714Y-70282142D01*
X75333333Y-70329761D01*
X75428571Y-70377380D01*
X75619047Y-70377380D01*
X75714285Y-70329761D01*
X74095238Y-70091666D02*
X73619047Y-70091666D01*
X74190476Y-70377380D02*
X73857142Y-69377380D01*
X73523809Y-70377380D01*
X73190476Y-69710714D02*
X73190476Y-70710714D01*
X73190476Y-69758333D02*
X73095238Y-69710714D01*
X72904761Y-69710714D01*
X72809523Y-69758333D01*
X72761904Y-69805952D01*
X72714285Y-69901190D01*
X72714285Y-70186904D01*
X72761904Y-70282142D01*
X72809523Y-70329761D01*
X72904761Y-70377380D01*
X73095238Y-70377380D01*
X73190476Y-70329761D01*
X72285714Y-69710714D02*
X72285714Y-70710714D01*
X72285714Y-69758333D02*
X72190476Y-69710714D01*
X72000000Y-69710714D01*
X71904761Y-69758333D01*
X71857142Y-69805952D01*
X71809523Y-69901190D01*
X71809523Y-70186904D01*
X71857142Y-70282142D01*
X71904761Y-70329761D01*
X72000000Y-70377380D01*
X72190476Y-70377380D01*
X72285714Y-70329761D01*
X71380952Y-69710714D02*
X71380952Y-70377380D01*
X71380952Y-69805952D02*
X71333333Y-69758333D01*
X71238095Y-69710714D01*
X71095238Y-69710714D01*
X71000000Y-69758333D01*
X70952380Y-69853571D01*
X70952380Y-70377380D01*
X70333333Y-70377380D02*
X70428571Y-70329761D01*
X70476190Y-70282142D01*
X70523809Y-70186904D01*
X70523809Y-69901190D01*
X70476190Y-69805952D01*
X70428571Y-69758333D01*
X70333333Y-69710714D01*
X70190476Y-69710714D01*
X70095238Y-69758333D01*
X70047619Y-69805952D01*
X70000000Y-69901190D01*
X70000000Y-70186904D01*
X70047619Y-70282142D01*
X70095238Y-70329761D01*
X70190476Y-70377380D01*
X70333333Y-70377380D01*
X69714285Y-69710714D02*
X69333333Y-69710714D01*
X69571428Y-69377380D02*
X69571428Y-70234523D01*
X69523809Y-70329761D01*
X69428571Y-70377380D01*
X69333333Y-70377380D01*
X68619047Y-70329761D02*
X68714285Y-70377380D01*
X68904761Y-70377380D01*
X69000000Y-70329761D01*
X69047619Y-70234523D01*
X69047619Y-69853571D01*
X69000000Y-69758333D01*
X68904761Y-69710714D01*
X68714285Y-69710714D01*
X68619047Y-69758333D01*
X68571428Y-69853571D01*
X68571428Y-69948809D01*
X69047619Y-70044047D01*
X94500000Y-71741666D02*
X94023809Y-71741666D01*
X94595238Y-72027380D02*
X94261904Y-71027380D01*
X93928571Y-72027380D01*
X93595238Y-72027380D02*
X93595238Y-71027380D01*
X93023809Y-72027380D01*
X93023809Y-71027380D01*
X92023809Y-72027380D02*
X92595238Y-72027380D01*
X92309523Y-72027380D02*
X92309523Y-71027380D01*
X92404761Y-71170238D01*
X92500000Y-71265476D01*
X92595238Y-71313095D01*
X91547619Y-72027380D02*
X91357142Y-72027380D01*
X91261904Y-71979761D01*
X91214285Y-71932142D01*
X91119047Y-71789285D01*
X91071428Y-71598809D01*
X91071428Y-71217857D01*
X91119047Y-71122619D01*
X91166666Y-71075000D01*
X91261904Y-71027380D01*
X91452380Y-71027380D01*
X91547619Y-71075000D01*
X91595238Y-71122619D01*
X91642857Y-71217857D01*
X91642857Y-71455952D01*
X91595238Y-71551190D01*
X91547619Y-71598809D01*
X91452380Y-71646428D01*
X91261904Y-71646428D01*
X91166666Y-71598809D01*
X91119047Y-71551190D01*
X91071428Y-71455952D01*
X90166666Y-71027380D02*
X90642857Y-71027380D01*
X90690476Y-71503571D01*
X90642857Y-71455952D01*
X90547619Y-71408333D01*
X90309523Y-71408333D01*
X90214285Y-71455952D01*
X90166666Y-71503571D01*
X90119047Y-71598809D01*
X90119047Y-71836904D01*
X90166666Y-71932142D01*
X90214285Y-71979761D01*
X90309523Y-72027380D01*
X90547619Y-72027380D01*
X90642857Y-71979761D01*
X90690476Y-71932142D01*
X89785714Y-71027380D02*
X89166666Y-71027380D01*
X89500000Y-71408333D01*
X89357142Y-71408333D01*
X89261904Y-71455952D01*
X89214285Y-71503571D01*
X89166666Y-71598809D01*
X89166666Y-71836904D01*
X89214285Y-71932142D01*
X89261904Y-71979761D01*
X89357142Y-72027380D01*
X89642857Y-72027380D01*
X89738095Y-71979761D01*
X89785714Y-71932142D01*
X88690476Y-71979761D02*
X88690476Y-72027380D01*
X88738095Y-72122619D01*
X88785714Y-72170238D01*
X87071428Y-71979761D02*
X87166666Y-72027380D01*
X87357142Y-72027380D01*
X87452380Y-71979761D01*
X87500000Y-71932142D01*
X87547619Y-71836904D01*
X87547619Y-71551190D01*
X87500000Y-71455952D01*
X87452380Y-71408333D01*
X87357142Y-71360714D01*
X87166666Y-71360714D01*
X87071428Y-71408333D01*
X86642857Y-72027380D02*
X86642857Y-71027380D01*
X86214285Y-72027380D02*
X86214285Y-71503571D01*
X86261904Y-71408333D01*
X86357142Y-71360714D01*
X86500000Y-71360714D01*
X86595238Y-71408333D01*
X86642857Y-71455952D01*
X85309523Y-72027380D02*
X85309523Y-71503571D01*
X85357142Y-71408333D01*
X85452380Y-71360714D01*
X85642857Y-71360714D01*
X85738095Y-71408333D01*
X85309523Y-71979761D02*
X85404761Y-72027380D01*
X85642857Y-72027380D01*
X85738095Y-71979761D01*
X85785714Y-71884523D01*
X85785714Y-71789285D01*
X85738095Y-71694047D01*
X85642857Y-71646428D01*
X85404761Y-71646428D01*
X85309523Y-71598809D01*
X84833333Y-71360714D02*
X84833333Y-72360714D01*
X84833333Y-71408333D02*
X84738095Y-71360714D01*
X84547619Y-71360714D01*
X84452380Y-71408333D01*
X84404761Y-71455952D01*
X84357142Y-71551190D01*
X84357142Y-71836904D01*
X84404761Y-71932142D01*
X84452380Y-71979761D01*
X84547619Y-72027380D01*
X84738095Y-72027380D01*
X84833333Y-71979761D01*
X84071428Y-71360714D02*
X83690476Y-71360714D01*
X83928571Y-71027380D02*
X83928571Y-71884523D01*
X83880952Y-71979761D01*
X83785714Y-72027380D01*
X83690476Y-72027380D01*
X82976190Y-71979761D02*
X83071428Y-72027380D01*
X83261904Y-72027380D01*
X83357142Y-71979761D01*
X83404761Y-71884523D01*
X83404761Y-71503571D01*
X83357142Y-71408333D01*
X83261904Y-71360714D01*
X83071428Y-71360714D01*
X82976190Y-71408333D01*
X82928571Y-71503571D01*
X82928571Y-71598809D01*
X83404761Y-71694047D01*
X82500000Y-72027380D02*
X82500000Y-71360714D01*
X82500000Y-71551190D02*
X82452380Y-71455952D01*
X82404761Y-71408333D01*
X82309523Y-71360714D01*
X82214285Y-71360714D01*
X81214285Y-71027380D02*
X80595238Y-71027380D01*
X80928571Y-71408333D01*
X80785714Y-71408333D01*
X80690476Y-71455952D01*
X80642857Y-71503571D01*
X80595238Y-71598809D01*
X80595238Y-71836904D01*
X80642857Y-71932142D01*
X80690476Y-71979761D01*
X80785714Y-72027380D01*
X81071428Y-72027380D01*
X81166666Y-71979761D01*
X81214285Y-71932142D01*
X80166666Y-71932142D02*
X80119047Y-71979761D01*
X80166666Y-72027380D01*
X80214285Y-71979761D01*
X80166666Y-71932142D01*
X80166666Y-72027380D01*
X79500000Y-71027380D02*
X79404761Y-71027380D01*
X79309523Y-71075000D01*
X79261904Y-71122619D01*
X79214285Y-71217857D01*
X79166666Y-71408333D01*
X79166666Y-71646428D01*
X79214285Y-71836904D01*
X79261904Y-71932142D01*
X79309523Y-71979761D01*
X79404761Y-72027380D01*
X79500000Y-72027380D01*
X79595238Y-71979761D01*
X79642857Y-71932142D01*
X79690476Y-71836904D01*
X79738095Y-71646428D01*
X79738095Y-71408333D01*
X79690476Y-71217857D01*
X79642857Y-71122619D01*
X79595238Y-71075000D01*
X79500000Y-71027380D01*
X78119047Y-71360714D02*
X77738095Y-71360714D01*
X77976190Y-72027380D02*
X77976190Y-71170238D01*
X77928571Y-71075000D01*
X77833333Y-71027380D01*
X77738095Y-71027380D01*
X77261904Y-72027380D02*
X77357142Y-71979761D01*
X77404761Y-71932142D01*
X77452380Y-71836904D01*
X77452380Y-71551190D01*
X77404761Y-71455952D01*
X77357142Y-71408333D01*
X77261904Y-71360714D01*
X77119047Y-71360714D01*
X77023809Y-71408333D01*
X76976190Y-71455952D01*
X76928571Y-71551190D01*
X76928571Y-71836904D01*
X76976190Y-71932142D01*
X77023809Y-71979761D01*
X77119047Y-72027380D01*
X77261904Y-72027380D01*
X76500000Y-72027380D02*
X76500000Y-71360714D01*
X76500000Y-71551190D02*
X76452380Y-71455952D01*
X76404761Y-71408333D01*
X76309523Y-71360714D01*
X76214285Y-71360714D01*
X74690476Y-72027380D02*
X74690476Y-71027380D01*
X74690476Y-71979761D02*
X74785714Y-72027380D01*
X74976190Y-72027380D01*
X75071428Y-71979761D01*
X75119047Y-71932142D01*
X75166666Y-71836904D01*
X75166666Y-71551190D01*
X75119047Y-71455952D01*
X75071428Y-71408333D01*
X74976190Y-71360714D01*
X74785714Y-71360714D01*
X74690476Y-71408333D01*
X73833333Y-71979761D02*
X73928571Y-72027380D01*
X74119047Y-72027380D01*
X74214285Y-71979761D01*
X74261904Y-71884523D01*
X74261904Y-71503571D01*
X74214285Y-71408333D01*
X74119047Y-71360714D01*
X73928571Y-71360714D01*
X73833333Y-71408333D01*
X73785714Y-71503571D01*
X73785714Y-71598809D01*
X74261904Y-71694047D01*
X73500000Y-71360714D02*
X73119047Y-71360714D01*
X73357142Y-71027380D02*
X73357142Y-71884523D01*
X73309523Y-71979761D01*
X73214285Y-72027380D01*
X73119047Y-72027380D01*
X72357142Y-72027380D02*
X72357142Y-71503571D01*
X72404761Y-71408333D01*
X72500000Y-71360714D01*
X72690476Y-71360714D01*
X72785714Y-71408333D01*
X72357142Y-71979761D02*
X72452380Y-72027380D01*
X72690476Y-72027380D01*
X72785714Y-71979761D01*
X72833333Y-71884523D01*
X72833333Y-71789285D01*
X72785714Y-71694047D01*
X72690476Y-71646428D01*
X72452380Y-71646428D01*
X72357142Y-71598809D01*
X71880952Y-72027380D02*
X71880952Y-71360714D01*
X71880952Y-71027380D02*
X71928571Y-71075000D01*
X71880952Y-71122619D01*
X71833333Y-71075000D01*
X71880952Y-71027380D01*
X71880952Y-71122619D01*
X71261904Y-72027380D02*
X71357142Y-71979761D01*
X71404761Y-71884523D01*
X71404761Y-71027380D01*
X70928571Y-71979761D02*
X70833333Y-72027380D01*
X70642857Y-72027380D01*
X70547619Y-71979761D01*
X70500000Y-71884523D01*
X70500000Y-71836904D01*
X70547619Y-71741666D01*
X70642857Y-71694047D01*
X70785714Y-71694047D01*
X70880952Y-71646428D01*
X70928571Y-71551190D01*
X70928571Y-71503571D01*
X70880952Y-71408333D01*
X70785714Y-71360714D01*
X70642857Y-71360714D01*
X70547619Y-71408333D01*
M02*
