G04 #@! TF.GenerationSoftware,KiCad,Pcbnew,(5.1.2-1)-1*
G04 #@! TF.CreationDate,2020-04-26T15:35:38+02:00*
G04 #@! TF.ProjectId,USB-C-USB-3.2,5553422d-432d-4555-9342-2d332e322e6b,rev?*
G04 #@! TF.SameCoordinates,Original*
G04 #@! TF.FileFunction,Paste,Top*
G04 #@! TF.FilePolarity,Positive*
%FSLAX46Y46*%
G04 Gerber Fmt 4.6, Leading zero omitted, Abs format (unit mm)*
G04 Created by KiCad (PCBNEW (5.1.2-1)-1) date 2020-04-26 15:35:38*
%MOMM*%
%LPD*%
G04 APERTURE LIST*
%ADD10R,0.300000X0.700000*%
%ADD11C,0.100000*%
%ADD12C,1.150000*%
G04 APERTURE END LIST*
D10*
X80250000Y-66620000D03*
X81750000Y-66620000D03*
X81250000Y-66620000D03*
X80750000Y-66620000D03*
X79750000Y-66620000D03*
X82250000Y-66620000D03*
X82750000Y-66620000D03*
X83250000Y-66620000D03*
X83750000Y-66620000D03*
X84250000Y-66620000D03*
X84750000Y-66620000D03*
X85250000Y-66620000D03*
D11*
G36*
X75374505Y-58201204D02*
G01*
X75398773Y-58204804D01*
X75422572Y-58210765D01*
X75445671Y-58219030D01*
X75467850Y-58229520D01*
X75488893Y-58242132D01*
X75508599Y-58256747D01*
X75526777Y-58273223D01*
X75543253Y-58291401D01*
X75557868Y-58311107D01*
X75570480Y-58332150D01*
X75580970Y-58354329D01*
X75589235Y-58377428D01*
X75595196Y-58401227D01*
X75598796Y-58425495D01*
X75600000Y-58449999D01*
X75600000Y-59100001D01*
X75598796Y-59124505D01*
X75595196Y-59148773D01*
X75589235Y-59172572D01*
X75580970Y-59195671D01*
X75570480Y-59217850D01*
X75557868Y-59238893D01*
X75543253Y-59258599D01*
X75526777Y-59276777D01*
X75508599Y-59293253D01*
X75488893Y-59307868D01*
X75467850Y-59320480D01*
X75445671Y-59330970D01*
X75422572Y-59339235D01*
X75398773Y-59345196D01*
X75374505Y-59348796D01*
X75350001Y-59350000D01*
X74449999Y-59350000D01*
X74425495Y-59348796D01*
X74401227Y-59345196D01*
X74377428Y-59339235D01*
X74354329Y-59330970D01*
X74332150Y-59320480D01*
X74311107Y-59307868D01*
X74291401Y-59293253D01*
X74273223Y-59276777D01*
X74256747Y-59258599D01*
X74242132Y-59238893D01*
X74229520Y-59217850D01*
X74219030Y-59195671D01*
X74210765Y-59172572D01*
X74204804Y-59148773D01*
X74201204Y-59124505D01*
X74200000Y-59100001D01*
X74200000Y-58449999D01*
X74201204Y-58425495D01*
X74204804Y-58401227D01*
X74210765Y-58377428D01*
X74219030Y-58354329D01*
X74229520Y-58332150D01*
X74242132Y-58311107D01*
X74256747Y-58291401D01*
X74273223Y-58273223D01*
X74291401Y-58256747D01*
X74311107Y-58242132D01*
X74332150Y-58229520D01*
X74354329Y-58219030D01*
X74377428Y-58210765D01*
X74401227Y-58204804D01*
X74425495Y-58201204D01*
X74449999Y-58200000D01*
X75350001Y-58200000D01*
X75374505Y-58201204D01*
X75374505Y-58201204D01*
G37*
D12*
X74900000Y-58775000D03*
D11*
G36*
X75374505Y-60251204D02*
G01*
X75398773Y-60254804D01*
X75422572Y-60260765D01*
X75445671Y-60269030D01*
X75467850Y-60279520D01*
X75488893Y-60292132D01*
X75508599Y-60306747D01*
X75526777Y-60323223D01*
X75543253Y-60341401D01*
X75557868Y-60361107D01*
X75570480Y-60382150D01*
X75580970Y-60404329D01*
X75589235Y-60427428D01*
X75595196Y-60451227D01*
X75598796Y-60475495D01*
X75600000Y-60499999D01*
X75600000Y-61150001D01*
X75598796Y-61174505D01*
X75595196Y-61198773D01*
X75589235Y-61222572D01*
X75580970Y-61245671D01*
X75570480Y-61267850D01*
X75557868Y-61288893D01*
X75543253Y-61308599D01*
X75526777Y-61326777D01*
X75508599Y-61343253D01*
X75488893Y-61357868D01*
X75467850Y-61370480D01*
X75445671Y-61380970D01*
X75422572Y-61389235D01*
X75398773Y-61395196D01*
X75374505Y-61398796D01*
X75350001Y-61400000D01*
X74449999Y-61400000D01*
X74425495Y-61398796D01*
X74401227Y-61395196D01*
X74377428Y-61389235D01*
X74354329Y-61380970D01*
X74332150Y-61370480D01*
X74311107Y-61357868D01*
X74291401Y-61343253D01*
X74273223Y-61326777D01*
X74256747Y-61308599D01*
X74242132Y-61288893D01*
X74229520Y-61267850D01*
X74219030Y-61245671D01*
X74210765Y-61222572D01*
X74204804Y-61198773D01*
X74201204Y-61174505D01*
X74200000Y-61150001D01*
X74200000Y-60499999D01*
X74201204Y-60475495D01*
X74204804Y-60451227D01*
X74210765Y-60427428D01*
X74219030Y-60404329D01*
X74229520Y-60382150D01*
X74242132Y-60361107D01*
X74256747Y-60341401D01*
X74273223Y-60323223D01*
X74291401Y-60306747D01*
X74311107Y-60292132D01*
X74332150Y-60279520D01*
X74354329Y-60269030D01*
X74377428Y-60260765D01*
X74401227Y-60254804D01*
X74425495Y-60251204D01*
X74449999Y-60250000D01*
X75350001Y-60250000D01*
X75374505Y-60251204D01*
X75374505Y-60251204D01*
G37*
D12*
X74900000Y-60825000D03*
M02*
