M48
; DRILL file {KiCad (5.1.2-1)-1} date 2020 April 26, Sunday 15:35:40
; FORMAT={-:-/ absolute / metric / decimal}
; #@! TF.CreationDate,2020-04-26T15:35:40+02:00
; #@! TF.GenerationSoftware,Kicad,Pcbnew,(5.1.2-1)-1
; #@! TF.FileFunction,Plated,1,2,PTH
FMAT,2
METRIC
T1C0.400
T2C0.500
T3C1.000
T4C3.200
%
G90
G05
T1
X70.9Y-74.7
X75.0Y-74.7
X80.3Y-59.6
X80.78Y-74.74
X81.5Y-67.9
X82.6Y-63.1
X83.5Y-67.9
X83.9Y-61.6
X84.1Y-74.7
X85.9Y-68.7
X90.0Y-74.6
X94.7Y-74.6
X79.7Y-65.31
X80.1Y-64.61
X80.9Y-64.61
X81.3Y-65.31
X81.7Y-64.61
X82.1Y-65.31
X82.9Y-65.31
X83.3Y-64.61
X83.7Y-65.31
X84.1Y-64.61
X84.9Y-64.61
X85.3Y-65.31
T2
X67.6Y-61.0
X68.303Y-59.303
X68.303Y-62.697
X70.0Y-58.6
X70.0Y-63.4
X71.697Y-59.303
X71.697Y-62.697
X72.4Y-61.0
T3
X63.45Y-77.0
X65.99Y-77.0
X68.53Y-77.0
X71.07Y-77.0
X73.61Y-77.0
X76.15Y-77.0
X78.69Y-77.0
X81.23Y-77.0
X83.77Y-77.0
X86.31Y-77.0
X88.85Y-77.0
X91.39Y-77.0
X93.93Y-77.0
X96.47Y-77.0
X99.01Y-77.0
X101.55Y-77.0
T4
X70.0Y-61.0
X95.0Y-61.0
T2
G00X78.01Y-59.06
M15
G01X78.01Y-58.46
M16
G05
G00X78.37Y-65.01
M15
G01X78.37Y-64.41
M16
G05
G00X86.63Y-65.01
M15
G01X86.63Y-64.41
M16
G05
G00X86.99Y-59.06
M15
G01X86.99Y-58.46
M16
G05
T0
M30
